<?xml version="1.0" standalone="no"?>
<!DOCTYPE svg PUBLIC "-//W3C//DTD SVG 1.1//EN" "http://www.w3.org/Graphics/SVG/1.1/DTD/svg11.dtd" >
<svg xmlns="http://www.w3.org/2000/svg" xmlns:xlink="http://www.w3.org/1999/xlink" version="1.1">
<metadata>
Created by FontForge 20170731 at Wed Oct 21 17:55:15 2009
 By ,,,
BRICKLETTER computer font v1.0 (c) 2002 Harold Lohner  HLohner@aol.com  www.haroldsfonts.com   Bricks inspired by Jeffrey N. Levine's font "Off the Wall."  Letters inspired by Max Kaufmann's classic "Balloon"
</metadata>
<defs>
<font id="Brickletter" horiz-adv-x="607" >
  <font-face 
    font-family="Brickletter"
    font-weight="400"
    font-stretch="normal"
    units-per-em="1000"
    panose-1="0 0 4 0 0 0 0 0 0 0"
    ascent="800"
    descent="-200"
    x-height="964"
    cap-height="964"
    bbox="-155 -304 3334 970"
    underline-thickness="20"
    underline-position="-163"
    unicode-range="U+0020-F002"
  />
<missing-glyph horiz-adv-x="500" 
d="M63 0v970h375v-970h-375zM125 63h250v845h-250v-845z" />
    <glyph glyph-name=".notdef" horiz-adv-x="500" 
d="M63 0v970h375v-970h-375zM125 63h250v845h-250v-845z" />
    <glyph glyph-name=".null" horiz-adv-x="0" 
 />
    <glyph glyph-name="glyph2" horiz-adv-x="500" 
 />
    <glyph glyph-name="space" unicode=" " horiz-adv-x="500" 
 />
    <glyph glyph-name="exclam" unicode="!" horiz-adv-x="600" 
d="M-153 -157v142h150v136h-150v142h150v136h-150v141h150v134h-150v141h150v149h607v-152h-150v-133h150v-142h-150v-133h150v-142h-150v-136h150v-142h-150v-136h150v-152h-607v147h-150zM589 277v112h-270v-112h270zM142 689v111h-280v-111h280zM589 -1v112h-270v-112
h270zM589 -279v112h-270v-112h270zM291 -279v112h-279v-112h279zM589 827v112h-270v-112h270zM291 827v112h-279v-112h279zM156 552q10 37 27 112h-171v-112h144zM131 414l10 56v55h-279v-111h269zM107 277l20 112h-115v-112h95zM291 366q-22 -57 -36 -89h36v89zM351 525
q-21 -56 -42 -111h130v111h-88zM400 664q-14 -42 -39 -112h228v112h-189zM412 707q0 -3 -4 -18h31v111h-269v-111h17q2 12 3 23q3 24 71 24h98q53 0 53 -29zM169 152q19 -3 33 -16h237v112h-197q-9 -18 -31 -20.5t-42 -3.5v-72zM100 136q19 14 41 17v71q-30 1 -34 24h-245
v-112h238zM55 -1q-4 16 -4 36q0 42 24 76h-63v-112h43zM141 -52q-7 -1 -15 -1q-36 0 -56 23h-208v-112h279v90zM187 -30q-9 -7 -18 -12v-100h270v112h-252zM228 70q0 -39 -19 -71h82v112h-72q9 -18 9 -41z" />
    <glyph glyph-name="quotedbl" unicode="&#x22;" horiz-adv-x="600" 
d="M589 277v112h-270v-112h270zM142 689v111h-280v-111h280zM589 -1v112h-270v-112h270zM439 136v112h-270v-112h270zM291 277v112h-279v-112h279zM439 -142v112h-270v-112h270zM291 -1v112h-279v-112h279zM141 136v112h-279v-112h279zM141 -142v112h-279v-112h279z
M589 -279v112h-270v-112h270zM291 -279v112h-279v-112h279zM589 827v112h-270v-112h270zM291 827v112h-279v-112h279zM439 425q-6 -7 -9 -11h9v11zM516 537q-35 -54 -62 -91v-42h150v-142h-150v-136h150v-142h-150v-136h150v-152h-607v147h-150v142h150v136h-150v142h150
v136h-150v141h150v134h-150v141h150v149h607v-152h-150v-108q15 4 37 4q100 0 104 -29h9v-142h-88zM589 658q-16 -33 -63 -106h63v106zM184 689q17 19 65 19q85 0 100 -19h77q6 6 13 9v102h-269v-111h14zM120 552q24 70 47 112h-155v-112h108zM100 414q-4 10 -4 32
q0 24 16 79h-250v-111h238zM266 525q-56 -86 -78 -111h154q-4 10 -4 32q0 24 16 79h-88zM350 664q-8 -18 -31 -56v-56h43q24 70 47 112h-59z" />
    <glyph glyph-name="numbersign" unicode="#" 
d="M142 689v111h-280v-111h280zM439 -142v112h-270v-112h270zM141 -142v112h-279v-112h279zM589 -279v112h-270v-112h270zM291 -279v112h-279v-112h279zM589 827v112h-270v-112h270zM291 827v112h-279v-112h279zM323 389l-4 -14v-55h46l20 69h-62zM394 419h-63l-1 -5h63z
M402 664q-6 -27 -28 -101h62q8 31 29 101h-63zM253 689q13 34 22 40t27 6q104 0 104 -42v-4h33v111h-269v-111h83zM120 552q9 10 31 11q-16 -1 64 -1q8 31 29 102h-232v-112h108zM141 419l-31 -1q-29 0 -29 27q0 10 13 49q7 21 11 31h-243v-111h279v5zM38 277q13 35 30 40
q8 2 76 2l20 70h-152v-112h26zM92 136q4 16 11 40l-57 -1q-30 0 -30 27q0 11 12 46h-166v-112h230zM248 111l-13 -54q-8 -31 -14 -40q-11 -17 -36 -17q-36 0 -68 12q-43 15 -43 45q0 12 11 54h-73v-112h279v112h-43zM313 136q4 16 11 40h-59l-11 -40h59zM469 111l-13 -54
q-8 -31 -14 -40q-10 -17 -36 -17q-53 0 -87 21v-22h270v112h-120zM544 389l-19 -69q5 0 64 -2v71h-45zM685 544q0 -3 -13 -53q-16 -58 -38 -67q-4 -2 -81 -3l-5 -17h56v-86h9q7 -6 7 -17q0 -3 -13 -53q-12 -42 -23.5 -55.5t-34.5 -14.5h-63l-13 -52h131v-142h-150v-136h150
v-152h-607v147h-150v142h150v136h-150v142h150v136h-150v141h150v134h-150v141h150v149h607v-152h-150v-133h16q16 44 25.5 50t27.5 6q104 0 104 -42q0 -24 -23 -100v-30q25 -1 74 -2q7 -6 7 -17z" />
    <glyph glyph-name="dollar" unicode="$" horiz-adv-x="600" 
d="M142 689v111h-280v-111h280zM141 414v111h-279v-111h279zM141 -142v112h-279v-112h279zM589 -279v112h-270v-112h270zM291 -279v112h-279v-112h279zM589 827v112h-270v-112h270zM291 827v112h-279v-112h279zM340 689q20 35 62 35q13 0 37 -5v81h-269v-111h170zM319 632
l6 2q1 7 5 30h-11v-32zM198 552q27 57 93 73v39h-279v-112h186zM197 414q-15 28 -15 59q0 28 7 52h-20v-111h28zM291 328q-53 34 -76 61h-203v-112h279v51zM352 277q-4 13 -33 33v-33h33zM231 248q45 -12 69 -12q28 0 43 12h-112zM123 136v2q-1 19 18 69v41h-279v-112h261z
M159 -1v1l29 91q-25 8 -45 20h-131v-112h147zM317 -30q-17 -16 -60 -15q-22 1 -45 1q-28 2 -41 14h-2v-112h270v112h-122zM438 111q-49 -33 -92 -33q-5 -29 -14 -79h257v112h-151zM445 389q69 -46 81 -112h63v112h-144zM439 493q-10 2 -18 2q-66 0 -66 -34q0 -19 49 -47h35
v79zM553 537q-19 -58 -44 -58q-12 0 -55 11v-86h150v-142h-76q1 -9 1 -18q0 -60 -71 -118h146v-142h-150v-136h150v-152h-607v147h-150v142h150v136h-150v142h150v136h-150v141h150v134h-150v141h150v149h607v-152h-150v-96l7 -1q46 -8 46 -36h97v-142h-51zM565 599
q0 -17 -8 -47h32v112h-85q-2 -10 -8 -25l44 -10q25 -8 25 -30z" />
    <glyph glyph-name="percent" unicode="%" horiz-adv-x="913" 
d="M143 689v111h-281v-111h281zM142 136v112h-280v-112h280zM897 -279v112h-279v-112h279zM590 -279v112h-270v-112h270zM292 -279v112h-279v-112h279zM897 827v112h-279v-112h279zM590 827v112h-270v-112h270zM292 827v112h-279v-112h279zM777 262v-10q0 -55 -15 -111v-15
h150v-142h-150v-136h150v-152h-915v147h-150v142h150v136h-150v142h150v136h-150v141h150v134h-150v141h150v149h915v-152h-149v-133h149v-142h-150v-133h150v-142h-135zM708 389q58 -27 68 -112h121v112h-189zM468 192q5 28 16 56h-16v-56zM635 -30q-22 -10 -43 -10
q-32 0 -56 10h-68v-112h279v112h-112zM678 -1h219v112h-145q-26 -71 -74 -112zM171 700q45 39 101 39q61 0 92 -50h76v111h-269v-100zM84 552q17 64 53 112h-124v-112h71zM77 414q-4 27 -4 61q0 24 5 50h-216v-111h215zM292 341q-47 -41 -88 -41q-96 0 -121 89h-70v-112h279
v64zM567 689q24 29 56 29q3 0 13 1h14q61 0 60 -30h38v111h-280v-111h99zM474 552q46 74 74 112h-172q13 -33 13 -72q0 -19 -2 -40h87zM386 414l54 82v29h-57q-10 -61 -36 -111h39zM320 311l50 78h-37q-7 -10 -13 -19v-59zM208 136q30 48 71 111v1h-109v-112h38zM128 -1v2
q5 14 65 110h-180v-112h115zM142 -42q-9 5 -13 12h-267v-112h280v100zM268 -30q-21 -25 -54 -26q-25 0 -44 4v-90h270v112h-172zM355 111l-35 -58v-54h176q-30 37 -34 112h-107zM440 248l-70 -112h70v112zM528 389l-70 -112h39q36 74 93 104v8h-62zM615 525q-19 -29 -49 -75
l-22 -36h203v111h-132zM643 566l-10 -14h264v112h-195q-15 -29 -59 -98zM618 248q-22 -41 -29 -112h42q21 56 24 112h-37zM208 525q-9 -43 -9 -70q0 -26 5 -26q30 0 53 96h-49zM267 602q0 14 -5 14q-27 0 -47 -64h47q5 29 5 50z" />
    <glyph glyph-name="ampersand" unicode="&#x26;" horiz-adv-x="600" 
d="M142 689v111h-280v-111h280zM589 -279v112h-270v-112h270zM291 -279v112h-279v-112h279zM589 827v112h-270v-112h270zM291 827v112h-279v-112h279zM214 111q11 -4 22 -4q15 0 31 4h-53zM201 248q-28 -34 -28 -76q0 -19 11 -36h133q24 19 35 43l-9 -1q-39 0 -39 14
q0 4 11 36l7 20h-121zM291 300q-19 -4 -58 -23h58v23zM358 389l-1 -2q-13 -33 -16 -39q-12 -27 -22 -35v-36h15q25 55 72 55q165 0 183 -10v67h-231zM415 552q-7 28 -48 28q-25 0 -45 -28h93zM439 501q-17 3 -21 24h-109q-3 -8 -3 -16q0 -35 63 -60q4 -6 4 -10q0 -10 -5 -25
h71v87zM548 664q28 -38 28 -94q0 -10 -2 -18h15v112h-41zM238 689q64 45 137 45q34 0 64 -6v72h-269v-111h68zM144 552q13 63 64 112h-196v-112h132zM141 499q-1 9 -1 17q0 4 1 9h-279v-111h279v85zM31 277q34 74 101 112h-120v-112h19zM6 136q-1 8 -1 16q0 50 15 96h-158
v-112h144zM79 -1q-50 43 -67 103v-103h67zM141 -38l-18 8h-261v-112h279v104zM345 -30q-62 -22 -132 -22q-22 0 -44 5v-95h270v112h-94zM512 111q-2 -2 -22 -33q-32 -48 -83 -79h182v112h-77zM591 262q-13 -46 -17 -53q-14 -28 -41 -30q-22 1 -67 -3q52 -17 52 -43
q0 -3 -1 -7h87v-142h-150v-136h150v-152h-607v147h-150v142h150v136h-150v142h150v136h-150v141h150v134h-150v141h150v149h607v-152h-150v-88q51 -14 82 -45h68v-142h-35q-19 -38 -115 -38v-95h150v-142h-13z" />
    <glyph glyph-name="quotesingle" unicode="'" horiz-adv-x="309" 
d="M-153 -157v142h150v136h-150v142h150v136h-150v141h150v134h-150v141h150v149h310v-152h-149v-133h29q16 23 48 27q11 2 25 2q47 0 62 -3q42 -6 42 -30q0 -13 -57 -105v-33h-22q-68 -105 -89 -126q-4 -4 -9 -7h120v-142h-150v-136h150v-142h-150v-136h150v-152h-310v147
h-150zM178 664h-165v-112h118q24 70 47 112zM143 689v111h-281v-111h281zM292 277v112h-279v-112h279zM123 525h-261v-111h249q-4 10 -4 32q0 24 16 79zM292 -1v112h-279v-112h279zM142 136v112h-280v-112h280zM292 -279v112h-279v-112h279zM142 -142v112h-280v-112h280z
M292 827v112h-279v-112h279z" />
    <glyph glyph-name="parenleft" unicode="(" 
d="M439 689v111h-269v-111h269zM291 552v112h-279v-112h279zM142 689v111h-280v-111h280zM141 414v111h-279v-111h279zM141 136v112h-279v-112h279zM141 -142v112h-279v-112h279zM589 -279v112h-270v-112h270zM291 -279v112h-279v-112h279zM589 827v112h-270v-112h270z
M291 827v112h-279v-112h279zM410 111q9 -45 32 -101q2 -4 2 -11v0h145v112h-179zM409 248q-6 -37 -6 -73q0 -19 3 -39h33v112h-30zM450 389q-24 -57 -36 -112h175v112h-139zM589 611q-22 -26 -45 -59h45v59zM454 689q35 45 75 89q16 18 34 18q15 0 50.5 -40t35.5 -57
q0 -18 -8 -28q-2 -2 -37 -43v-91h-71q-46 -67 -76 -133h147v-142h-150v-136h150v-142h-150v-136h150v-152h-607v147h-150v142h150v136h-150v142h150v136h-150v141h150v134h-150v141h150v149h607v-152h-150v-123zM362 552q32 56 73 112h-116v-112h43zM295 414q22 55 52 111
h-178v-111h126zM257 277q10 55 29 112h-274v-112h245zM247 136q-1 15 -1 29q0 41 6 83h-83v-112h78zM272 -1q-17 53 -23 112h-237v-112h260zM430 -41q-87 -63 -95 -63q-15 0 -26 18q-15 26 -27 56h-113v-112h270v112h-3q-2 -5 -6 -11z" />
    <glyph glyph-name="parenright" unicode=")" 
d="M-153 -157v142h150v136h-150v142h150v136h-150v141h150v134h-150v141h150v149h607v-152h-150v-133h150v-142h-150v-133h150v-142h-150v-136h150v-142h-150v-136h150v-152h-607v147h-150zM142 689v111h-280v-111h280zM141 414v111h-279v-111h279zM141 136v112h-279v-112
h279zM589 -279v112h-270v-112h270zM291 -279v112h-279v-112h279zM589 827v112h-270v-112h270zM291 827v112h-279v-112h279zM291 577q-8 39 -27 87h-252v-112h279v25zM286 414q11 51 11 101v10h-128v-111h117zM239 277q27 57 42 112h-269v-112h227zM169 156q32 46 56 92h-56
v-92zM52 -1q3 15 8 20q26 30 77 92h-125v-112h40zM141 -105h-3q-12 0 -37.5 25.5t-40.5 49.5h-198v-112h279v37zM222 -30q-18 -22 -53 -61v-51h270v112h-217zM291 63q-22 -32 -46 -64h46v64zM322 111l-3 -5v-107h270v112h-267zM393 248q-23 -56 -56 -112h102v112h-46z
M438 389q-12 -55 -33 -112h184v112h-151zM436 664q14 -55 17 -112h136v112h-153zM270 731q86 64 94 64q16 0 27 -19q22 -38 38 -87h10v111h-269v-111h86v2q-1 18 14 40z" />
    <glyph glyph-name="asterisk" unicode="*" 
d="M142 689v111h-280v-111h280zM589 -1v112h-270v-112h270zM439 -142v112h-270v-112h270zM291 -1v112h-279v-112h279zM141 -142v112h-279v-112h279zM589 -279v112h-270v-112h270zM291 -279v112h-279v-112h279zM589 827v112h-270v-112h270zM291 827v112h-279v-112h279z
M467 664q-13 -40 -46 -112h45q86 34 123 35v77h-122zM311 689q10 23 39 27q9 2 22 2q50 0 67 -4v86h-269v-111h141zM101 552q27 40 51 42q14 1 79 -42h52q3 31 8 62v50h-279v-112h89zM132 414q-71 21 -75 40q-2 15 15 47q3 7 12 24h-222v-111h270zM81 277l1 3q8 18 135 109
h-205v-112h69zM141 187l-8 6q-22 19 -25 22q-18 18 -25 33h-221v-112h279v51zM291 290q-5 -6 -11 -13h11v13zM328 277q-5 22 -9 44v-44h9zM439 200q-41 -24 -64 -24q-10 0 -16 4q-9 6 -24 68h-79q-64 -75 -87 -73v-39h270v64zM449 389q50 -67 60 -112h80v112h-140zM600 433
q-16 -12 -146 -22v-7h150v-142h-93q-1 -18 -40 -43q-5 -3 -17 -10v-83h150v-142h-150v-136h150v-152h-607v147h-150v142h150v136h-150v142h150v136h-150v141h150v134h-150v141h150v149h607v-152h-150v-104q15 -7 18 -20q1 -2 -1 -9h133v-96q11 -10 14 -40q4 -36 4 -47
q0 -47 -22 -63z" />
    <glyph glyph-name="plus" unicode="+" 
d="M439 689v111h-269v-111h269zM142 689v111h-280v-111h280zM589 -1v112h-270v-112h270zM439 -142v112h-270v-112h270zM141 136v112h-279v-112h279zM141 -142v112h-279v-112h279zM589 -279v112h-270v-112h270zM291 -279v112h-279v-112h279zM589 827v112h-270v-112h270z
M291 827v112h-279v-112h279zM454 459q21 0 62 -1.5t59 -1.5q22 -17 22 -41v-11h7v-142h-150v-136h150v-142h-150v-136h150v-152h-607v147h-150v142h150v136h-150v142h150v136h-150v141h150v134h-150v141h150v149h607v-152h-150v-133h150v-142h-150v-78zM427 525
q-6 -23 -17 -66h29v66h-12zM319 638q18 9 44 9q44 0 50 -1q29 -6 29 -32t-8 -62h155v112h-270v-26zM278 552l13 45v67h-279v-112h266zM169 458h82q7 28 19 67h-101v-67zM60 414q30 41 81 44v67h-279v-111h198zM203 277q5 17 6 24h-105q-64 0 -64 52q0 19 7 36h-35v-112h191z
M181 136q-5 11 -5 26q0 20 19 86h-26v-112h12zM289 111q-18 -8 -43 -8q-23 0 -40 8h-194v-112h279v112h-2zM354 248l-21 -80q-5 -19 -14 -32h120v112h-85zM369 302l-7 -25h227v89q-14 -42 -42 -55q-15 -7 -178 -9z" />
    <glyph glyph-name="comma" unicode="," horiz-adv-x="309" 
d="M292 552v112h-279v-112h279zM143 689v111h-281v-111h281zM292 277v112h-279v-112h279zM142 414v111h-280v-111h280zM292 -279v112h-279v-112h279zM292 827v112h-279v-112h279zM62 136q24 40 74 40h6v72h-280v-112h200zM13 1q21 74 36 110h-36v-110zM137 -30
q-44 -73 -60 -90.5t-40 -17.5q-41 0 -41 53q0 22 8 55h-142v-112h280v112h-5zM217 111q-20 -42 -62 -112h137v112h-75zM230 142q0 -4 -6 -16h83v-142h-150v-136h150v-152h-310v147h-150v142h150v136h-150v142h150v136h-150v141h150v134h-150v141h150v149h310v-152h-149v-133
h149v-142h-150v-133h150v-142h-150v-86q73 -2 73 -34z" />
    <glyph glyph-name="hyphen" unicode="-" horiz-adv-x="600" 
d="M589 552v112h-270v-112h270zM439 689v111h-269v-111h269zM291 552v112h-279v-112h279zM142 689v111h-280v-111h280zM589 -1v112h-270v-112h270zM141 414v111h-279v-111h279zM439 -142v112h-270v-112h270zM291 -1v112h-279v-112h279zM141 136v112h-279v-112h279zM141 -142
v112h-279v-112h279zM589 -279v112h-270v-112h270zM291 -279v112h-279v-112h279zM589 827v112h-270v-112h270zM291 827v112h-279v-112h279zM454 416h14q6 -4 8 -12h128v-142h-150v-136h150v-142h-150v-136h150v-152h-607v147h-150v142h150v136h-150v142h150v136h-150v141h150
v134h-150v141h150v149h607v-152h-150v-133h150v-142h-150v-121zM207 414q14 4 39 4q18 0 52 1h53q11 0 88 -2v108h-270v-111h38zM144 277q1 10 16 56q7 22 19 56h-167v-112h132zM420 248q-20 -7 -216 -7h-35v-105h270v112h-19zM477 389q-6 -21 -16 -59q-7 -28 -19 -53h147
v112h-112z" />
    <glyph glyph-name="hyphen" unicode="&#x2010;" horiz-adv-x="600" 
d="M589 552v112h-270v-112h270zM439 689v111h-269v-111h269zM291 552v112h-279v-112h279zM142 689v111h-280v-111h280zM589 -1v112h-270v-112h270zM141 414v111h-279v-111h279zM439 -142v112h-270v-112h270zM291 -1v112h-279v-112h279zM141 136v112h-279v-112h279zM141 -142
v112h-279v-112h279zM589 -279v112h-270v-112h270zM291 -279v112h-279v-112h279zM589 827v112h-270v-112h270zM291 827v112h-279v-112h279zM454 416h14q6 -4 8 -12h128v-142h-150v-136h150v-142h-150v-136h150v-152h-607v147h-150v142h150v136h-150v142h150v136h-150v141h150
v134h-150v141h150v149h607v-152h-150v-133h150v-142h-150v-121zM207 414q14 4 39 4q18 0 52 1h53q11 0 88 -2v108h-270v-111h38zM144 277q1 10 16 56q7 22 19 56h-167v-112h132zM420 248q-20 -7 -216 -7h-35v-105h270v112h-19zM477 389q-6 -21 -16 -59q-7 -28 -19 -53h147
v112h-112z" />
    <glyph glyph-name="period" unicode="." horiz-adv-x="309" 
d="M292 552v112h-279v-112h279zM143 689v111h-281v-111h281zM292 277v112h-279v-112h279zM142 414v111h-280v-111h280zM292 -279v112h-279v-112h279zM142 -142v112h-280v-112h280zM292 827v112h-279v-112h279zM157 176q45 -4 56 -50h94v-142h-150v-136h150v-152h-310v147
h-150v142h150v136h-150v142h150v136h-150v141h150v134h-150v141h150v149h310v-152h-149v-133h149v-142h-150v-133h150v-142h-150v-86zM79 136q26 36 63 39v73h-280v-112h217zM69 -1q-19 20 -19 54q0 29 14 58h-51v-112h56zM216 102q0 -73 -45 -103h121v112h-77q1 -4 1 -9z
" />
    <glyph glyph-name="slash" unicode="/" horiz-adv-x="309" 
d="M143 689v111h-281v-111h281zM292 -279v112h-279v-112h279zM292 827v112h-279v-112h279zM189 552q12 35 41 112h-217v-112h176zM157 467l26 70h-26v-70zM136 414l6 14v97h-280v-111h274zM84 277l42 112h-113v-112h71zM31 136q18 50 42 112h-211v-112h169zM13 87l8 24h-8
v-24zM142 -53q-13 -37 -21 -47q-15 -20 -46 -20q-46 0 -73 9q-41 14 -38 50q1 7 8 31h-110v-112h280v89zM197 111l-4 -11l-34 -101h133v112h-95zM292 370l-35 -93h35v93zM425 738q-3 -27 -42 -129q-27 -69 -54 -137q-6 -15 -25 -68h3v-142h-55l-49 -136h104v-142h-150v-136
h150v-152h-310v147h-150v142h130l20 60v76h-150v142h150v136h-150v141h150v134h-150v141h150v149h310v-152h-149v-133h78q32 80 49 92q11 8 35 8q54 0 67 -2q41 -7 38 -39z" />
    <glyph glyph-name="zero" unicode="0" horiz-adv-x="600" 
d="M142 689v111h-280v-111h280zM141 -142v112h-279v-112h279zM589 -279v112h-270v-112h270zM291 -279v112h-279v-112h279zM589 827v112h-270v-112h270zM291 827v112h-279v-112h279zM542 664q29 -46 39 -112h8v112h-47zM228 689q75 57 162 57q26 0 49 -6v60h-269v-111h58z
M114 552q37 66 85 112h-187v-112h102zM57 414q17 58 43 111h-238v-111h195zM35 277q2 54 16 112h-39v-112h23zM45 136q-9 48 -10 112h-173v-112h183zM117 -1q-46 38 -66 112h-39v-112h105zM322 -30q-33 -15 -65 -15q-50 0 -88 14v-111h270v112h-117zM479 111
q-43 -66 -107 -112h217v112h-110zM577 389q-8 -57 -24 -112h36v112h-12zM585 494q0 -44 -6 -90h25v-142h-55q-24 -76 -61 -136h116v-142h-150v-136h150v-152h-607v147h-150v142h150v136h-150v142h150v136h-150v141h150v134h-150v141h150v149h607v-152h-150v-76
q46 -16 78 -57h72v-142h-21q2 -21 2 -43zM367 277q20 48 28 82q4 19 7 30h-83v-112h48zM214 248q-2 -14 -2 -23q0 -42 5 -57q9 -29 41 -29q46 0 97 109h-141zM243 389q-17 -57 -26 -112h74v112h-48zM404 552q-12 23 -33 23q-24 0 -48 -23h81zM416 497q0 14 -3 28h-111
q-27 -41 -51 -111h156q9 47 9 83z" />
    <glyph glyph-name="one" unicode="1" horiz-adv-x="309" 
d="M-153 -157v142h150v136h-150v142h150v136h-150v141h150v134h-150v141h150v149h310v-152h-149v-133h26l28 35q14 17 38 17q125 0 125 -56q0 -42 -68 -282v-131h-38l-6 -18l-32 -118h76v-142h-119q-12 -20 -31 -24v-112h150v-152h-310v147h-150zM171 664h-158v-112h65
q9 10 25 28zM143 689v111h-281v-111h281zM118 389h-105v-112h74zM292 277v64l-19 -64h19zM67 525h-205v-111h262q9 31 15 58q-73 26 -72 51v2zM43 111h-30v-112h9q-2 4 -2 9q0 21 9 52q7 25 14 51zM292 -1v112h-65l-12 -42q-5 -24 -19 -70h96zM79 248h-217v-112h187
q12 47 30 112zM292 -279v112h-279v-112h279zM142 -142v101q-44 1 -77 11h-203v-112h280zM292 827v112h-279v-112h279z" />
    <glyph glyph-name="two" unicode="2" horiz-adv-x="600" 
d="M142 689v111h-280v-111h280zM589 -279v112h-270v-112h270zM291 -279v112h-279v-112h279zM589 827v112h-270v-112h270zM291 827v112h-279v-112h279zM205 689q76 53 172 53q33 0 62 -7v65h-269v-111h35zM112 552q16 67 62 112h-162v-112h100zM141 495q-30 8 -32 30h-247
v-111h279v81zM375 552q-8 11 -24 11q-17 0 -32 -10v-1h56zM324 414q53 78 56 111h-88q-13 -19 -16 -21q-8 -10 -15 -12t-29 -2h-63v-76h155zM221 277q34 40 65 83l5 7v22h-279v-112h209zM169 221q14 14 26 27h-26v-27zM84 136q37 36 57 56v56h-279v-112h222zM89 -1
q-6 11 -15 28q-23 46 -23 62q0 9 10 22h-49v-112h77zM141 -37q-16 2 -26 7h-253v-112h279v105zM439 -32q-23 -9 -106 -9h-128q-15 2 -36 3v-104h270v110zM499 111q3 -7 3 -16q0 -16 -8.5 -48.5t-16.5 -47.5h112v112h-90zM420 248q-34 -38 -101 -112h120v112h-19zM523 389
q-29 -52 -78 -112h144v112h-66zM570 537q-6 -66 -40 -133h74v-142h-150v-133h2q13 0 23 -3h125v-142h-138q-5 -5 -12 -9v-127h150v-152h-607v147h-150v142h150v136h-150v142h150v136h-150v141h150v134h-150v141h150v149h607v-152h-150v-82q49 -15 79 -51h71v-142h-34z
M571 563q0 -5 -1 -11h19v112h-45q27 -42 27 -101z" />
    <glyph glyph-name="three" unicode="3" horiz-adv-x="600" 
d="M142 689v111h-280v-111h280zM141 414v111h-279v-111h279zM141 -142v112h-279v-112h279zM589 -279v112h-270v-112h270zM291 -279v112h-279v-112h279zM589 827v112h-270v-112h270zM291 827v112h-279v-112h279zM553 664q32 -38 36 -89v89h-36zM231 689q71 45 156 45
q27 0 52 -6v72h-269v-111h61zM132 552q-1 3 -1 7q0 10 21 49q17 31 45 56h-185v-112h120zM394 552q-10 26 -34 26q-26 0 -41 -12v-14h75zM264 414q10 32 32 41q14 6 54 6q40 29 47 64h-127q-21 -8 -57 -8q-25 0 -44 5v-108h95zM291 288q-14 7 -35 13q-14 5 -14 28q0 4 12 49
l3 11h-245v-112h279v11zM169 234q27 -5 32 -16.5t5 -52.5q0 -16 10 -29h96q32 30 32 86q0 14 -6 26h-169v-14zM46 136q1 53 13 75q17 30 66 30q6 0 16 -2v9h-279v-112h184zM121 -1q-63 47 -73 112h-36v-112h109zM360 -30q-51 -18 -108 -18q-40 0 -81 18h-2v-112h270v112h-79
zM517 111q-28 -70 -95 -112h167v112h-72zM498 389q-24 -16 -55 -27q54 -26 78 -85h68v112h-91zM589 537q-8 -81 -70 -133h85v-142h-78q9 -28 9 -59q0 -41 -12 -77h81v-142h-150v-136h150v-152h-607v147h-150v142h150v136h-150v142h150v136h-150v141h150v134h-150v141h150
v149h607v-152h-150v-87q51 -14 85 -46h65v-142h-15z" />
    <glyph glyph-name="four" unicode="4" horiz-adv-x="600" 
d="M142 689v111h-280v-111h280zM141 -142v112h-279v-112h279zM589 -279v112h-270v-112h270zM291 -279v112h-279v-112h279zM589 827v112h-270v-112h270zM291 827v112h-279v-112h279zM501 664q-2 -12 -46 -83q92 6 134 -25v108h-88zM305 689q41 41 61 41q23 0 73 -19v89h-269
v-111h135zM197 552q48 69 86 112h-271v-112h185zM169 512l9 13h-9v-13zM102 414q11 14 16 21.5l23 34.5v55h-279v-111h240zM28 277q-2 7 -2 13q0 26 57 99h-71v-112h16zM141 143q-29 3 -46 19q-14 13 -40 54q-13 20 -18 32h-175v-112h279v7zM282 -1q1 19 9 54v58h-279v-112
h270zM439 -46q-9 -3 -24 -3q-63 0 -109 19h-137v-112h270v96zM494 111q-7 -28 -31 -112h126v112h-95zM580 389q-9 -28 -24 -74q11 -3 33 -12v86h-9zM611 516q0 -34 -26 -112h19v-142h-1q-4 -26 -24 -77q-16 -39 -25 -45t-55 -10l-1 -4h106v-142h-146l-4 -15v-121h150v-152
h-607v147h-150v142h150v136h-150v142h150v136h-150v141h150v134h-150v141h150v149h607v-152h-150v-107q31 -13 42 -26h108v-139q7 -11 7 -24zM319 315q20 -1 37 -4q13 35 27 78h-64v-74zM291 366q-22 -26 -42 -49q27 0 42 -1v50zM417 525l-87 -111h61l34 111h-8z" />
    <glyph glyph-name="five" unicode="5" horiz-adv-x="600" 
d="M142 689v111h-280v-111h280zM141 -142v112h-279v-112h279zM589 -279v112h-270v-112h270zM291 -279v112h-279v-112h279zM589 827v112h-270v-112h270zM291 827v112h-279v-112h279zM189 689q8 24 12.5 28t30.5 4l71 1h71h65v78h-269v-111h19zM149 552l1 2q10 37 31 110h-169
v-112h137zM123 414q-6 11 -6 16q0 26 24 95h-279v-111h261zM291 333q-20 -3 -74 -34q-21 0 -79 90h-126v-112h279v56zM380 277q-13 46 -61 55v-55h61zM169 201q28 -1 38.5 -9.5t16.5 -28.5t13 -27h87q57 32 59 112h-214v-47zM37 136v3q-1 62 92 62h12v47h-279v-112h175z
M101 -1q-52 46 -62 112h-27v-112h89zM372 -30q-57 -26 -121 -26q-42 0 -82 14v-100h270v112h-67zM520 111q-38 -69 -98 -112h167v112h-69zM542 389q23 -50 23 -104v-8h24v112h-47zM321 525q-11 -35 -18 -62q37 27 94 27q22 0 42 -5v40h-118zM589 566q-7 -10 -21 -14h21v14z
M617 691q0 -28 -11 -69l-2 -9v-76h-150v-57q51 -21 81 -76h69v-142h-40q-5 -71 -37 -136h77v-142h-150v-136h150v-152h-607v147h-150v142h150v136h-150v142h150v136h-150v141h150v134h-150v141h150v149h607v-152h-150v-90l62 -1q5 0 20.5 1t25.5 1q55 0 55 -32z" />
    <glyph glyph-name="six" unicode="6" horiz-adv-x="600" 
d="M142 689v111h-280v-111h280zM141 -142v112h-279v-112h279zM589 -279v112h-270v-112h270zM291 -279v112h-279v-112h279zM589 827v112h-270v-112h270zM291 827v112h-279v-112h279zM534 389q35 -43 36 -112h19v112h-55zM416 525q-40 -45 -68 -87q20 7 55 7q19 0 36 -3v83
h-23zM540 664q-4 -13 -15 -25q-53 -52 -85 -87h149v112h-49zM315 689l6 5q39 38 73 38q14 0 45 -8v76h-269v-111h145zM199 552q42 60 92 112h-279v-112h187zM169 507l12 18h-12v-18zM119 414q10 22 22 44v67h-279v-111h257zM73 277q11 55 35 112h-96v-112h61zM65 136
q-3 21 -3 42q0 34 5 70h-205v-112h203zM132 -1q-46 43 -63 112h-57v-112h120zM381 -30q-51 -24 -106 -24q-57 0 -102 24h-4v-112h270v112h-58zM527 111q-38 -69 -97 -112h159v112h-62zM570 262q-3 -69 -36 -136h70v-142h-150v-136h150v-152h-607v147h-150v142h150v136h-150
v142h150v136h-150v141h150v134h-150v141h150v149h607v-152h-150v-91q70 -19 84 -42h66v-142h-150v-98q39 -10 66 -35h84v-142h-34zM291 340q-15 -33 -24 -63h24v63zM389 243q0 3 -1 5h-128q-9 -37 -9 -71q0 -25 13 -41h62q26 16 44.5 48t18.5 59z" />
    <glyph glyph-name="seven" unicode="7" horiz-adv-x="600" 
d="M141 414v111h-279v-111h279zM589 -279v112h-270v-112h270zM291 -279v112h-279v-112h279zM589 827v112h-270v-112h270zM291 827v112h-279v-112h279zM170 719q14 5 55 6q61 1 62 1l152 -2v76h-269v-81zM141 689l1 3v108h-280v-111h279zM107 552q-1 3 -1 7q0 29 18 83l7 22
h-119v-112h95zM307 414q47 73 76 111h-214v-111h138zM222 277q36 60 69 112h-279v-112h210zM169 189q17 29 35 59h-35v-59zM138 136l3 5v107h-279v-112h276zM71 -1q-1 2 -1 4q0 12 54 108h-112v-112h59zM141 -47q-24 8 -40 17h-239v-112h279v95zM256 -30q-26 -30 -53 -30
q-12 0 -34 5v-87h270v112h-183zM291 24q-7 -12 -11 -19l-3 -6h14v25zM336 111q-5 -10 -17 -33v-79h270v112h-253zM415 248q-36 -58 -66 -112h90v112h-24zM507 389q-40 -58 -74 -112h156v112h-82zM638 587q0 -21 -30 -61l-42 -52q-25 -36 -49 -70h87v-142h-150v-136h150v-142
h-150v-136h150v-152h-607v147h-150v142h150v136h-150v142h150v136h-150v141h150v134h-150v141h150v149h607v-152h-150v-88h93q25 -1 59 -58q32 -53 32 -79z" />
    <glyph glyph-name="eight" unicode="8" horiz-adv-x="600" 
d="M142 689v111h-280v-111h280zM589 -279v112h-270v-112h270zM291 -279v112h-279v-112h279zM589 827v112h-270v-112h270zM291 827v112h-279v-112h279zM231 689q71 44 172 44q13 0 36 -3v70h-269v-111h61zM140 552q8 67 57 112h-185v-112h128zM141 495q-2 15 -2 30h-277v-111
h279v81zM129 277q33 30 86 67q-19 23 -33 45h-170v-112h117zM43 136q9 57 58 112h-239v-112h181zM85 -1q-45 42 -44 109v3h-29v-112h73zM141 -35q-6 2 -11 5h-268v-112h279v107zM378 -30q-60 -23 -133 -23q-40 0 -76 9v-98h270v112h-61zM514 111q-18 -69 -80 -112h155v112
h-75zM576 389q-42 -44 -106 -72q15 -24 24 -40h95v112h-13zM639 638q0 -20 -35 -63v-38h-32q-10 -11 -14 -17q12 -16 24.5 -46.5t12.5 -48.5q0 -10 -7 -21h16v-142h-103q21 -44 21 -94q0 -22 -4 -42h86v-142h-150v-136h150v-152h-607v147h-150v142h150v136h-150v142h150v136
h-150v141h150v134h-150v141h150v149h607v-152h-150v-84q70 -10 120 -30q65 -26 65 -60zM312 525q-1 -3 -1 -6q0 -22 13.5 -44.5t33.5 -34.5q53 39 81 57v28h-127zM458 552q-44 25 -86 25q-34 0 -51 -25h137zM492 529l-10 8h-28v-30q20 12 38 22zM249 111q12 -10 27 -10
q7 0 15 2v8h-42zM344 165q0 38 -27 57q-25 -13 -49 -32q-34 -28 -34 -47q0 -3 1 -7h101q8 14 8 29z" />
    <glyph glyph-name="nine" unicode="9" horiz-adv-x="600" 
d="M142 689v111h-280v-111h280zM141 136v112h-279v-112h279zM141 -142v112h-279v-112h279zM589 -279v112h-270v-112h270zM291 -279v112h-279v-112h279zM589 827v112h-270v-112h270zM291 827v112h-279v-112h279zM547 664q28 -35 42 -84v84h-42zM241 689q69 47 147 47
q27 0 51 -6v70h-269v-111h71zM126 552q31 66 83 112h-197v-112h114zM93 414q1 56 22 111h-253v-111h231zM144 277q-45 41 -50 112h-82v-112h132zM229 136q42 48 86 107q-38 -7 -54 -7q-38 0 -70 12h-22v-112h60zM127 -1q-5 7 -5 14q0 14 15 29q35 32 69 69h-194v-112h115z
M318 -30q-29 -20 -51 -20q-34 0 -89 20h-9v-112h270v112h-121zM447 111q-57 -76 -94 -112h236v112h-142zM587 389q-13 -56 -37 -112h39v112h-2zM600 496q0 -44 -9 -92h13v-142h-61q-31 -65 -76 -125l-9 -11h146v-142h-150v-136h150v-152h-607v147h-150v142h150v136h-150v142
h150v136h-150v141h150v134h-150v141h150v149h607v-152h-150v-86q46 -13 80 -47h70v-142h-6q2 -20 2 -41zM344 389q2 -35 10 -86q25 57 36 86h-46zM390 552q-7 4 -17 4q-11 0 -23 -4h40zM412 505q0 10 -3 20h-97q-36 -40 -36 -87q0 -16 6 -24h116q14 48 14 91z" />
    <glyph glyph-name="colon" unicode=":" horiz-adv-x="309" 
d="M292 552v112h-279v-112h279zM143 689v111h-281v-111h281zM292 277v112h-279v-112h279zM142 414v111h-280v-111h280zM292 -279v112h-279v-112h279zM142 -142v112h-280v-112h280zM292 827v112h-279v-112h279zM157 176q45 -4 56 -50h94v-142h-150v-136h150v-152h-310v147
h-150v142h150v136h-150v142h150v136h-150v141h150v134h-150v141h150v149h310v-152h-149v-133h149v-142h-150v-133h150v-142h-150v-86zM79 136q26 36 63 39v73h-280v-112h217zM69 -1q-19 20 -19 54q0 29 14 58h-51v-112h56zM216 102q0 -73 -45 -103h121v112h-77q1 -4 1 -9z
M286 402q0 -120 -108 -120q-28 0 -43 21t-15 50q0 44 28 81q29 42 72 42q66 0 66 -74z" />
    <glyph glyph-name="semicolon" unicode=";" horiz-adv-x="309" 
d="M292 552v112h-279v-112h279zM143 689v111h-281v-111h281zM292 277v112h-279v-112h279zM142 414v111h-280v-111h280zM292 -279v112h-279v-112h279zM292 827v112h-279v-112h279zM62 136q24 40 74 40h6v72h-280v-112h200zM13 1q21 74 36 110h-36v-110zM137 -30
q-44 -73 -60 -90.5t-40 -17.5q-41 0 -41 53q0 22 8 55h-142v-112h280v112h-5zM217 111q-20 -42 -62 -112h137v112h-75zM230 142q0 -4 -6 -16h83v-142h-150v-136h150v-152h-310v147h-150v142h150v136h-150v142h150v136h-150v141h150v134h-150v141h150v149h310v-152h-149v-133
h149v-142h-150v-133h150v-142h-150v-86q73 -2 73 -34zM286 402q0 -120 -108 -120q-28 0 -43 21t-15 50q0 44 28 81q29 42 72 42q66 0 66 -74z" />
    <glyph glyph-name="less" unicode="&#x3c;" 
d="M439 689v111h-269v-111h269zM291 552v112h-279v-112h279zM142 689v111h-280v-111h280zM141 414v111h-279v-111h279zM141 136v112h-279v-112h279zM141 -142v112h-279v-112h279zM589 -279v112h-270v-112h270zM291 -279v112h-279v-112h279zM589 827v112h-270v-112h270z
M291 827v112h-279v-112h279zM319 561q68 61 128 103h-128v-103zM176 414q35 46 103 111h-110v-111h7zM168 277q-19 61 -19 84q0 10 10 28h-147v-112h156zM220 136q-24 57 -42 112h-9v-112h51zM285 -1q-26 46 -55 112h-218v-112h273zM420 -30q-27 -47 -67 -47q-19 0 -50 47
h-134v-112h270v112h-19zM418 111q14 -58 14 -103q0 -4 -1 -9h158v112h-171zM382 248q10 -37 30 -112h27v112h-57zM401 389q-21 -28 -32 -49q1 -29 7 -63h213v112h-188zM439 434q-10 -11 -17 -20h17v20zM587 664v0q0 -46 -48 -112h50v112h-2zM550 716q27 0 35 -37h19v-142
h-77q-18 -23 -73 -86v-47h150v-142h-150v-136h150v-142h-150v-136h150v-152h-607v147h-150v142h150v136h-150v142h150v136h-150v141h150v134h-150v141h150v149h607v-152h-150v-133h15q57 37 81 37z" />
    <glyph glyph-name="equal" unicode="=" 
d="M589 552v112h-270v-112h270zM439 689v111h-269v-111h269zM291 552v112h-279v-112h279zM142 689v111h-280v-111h280zM589 -1v112h-270v-112h270zM439 -142v112h-270v-112h270zM291 -1v112h-279v-112h279zM141 -142v112h-279v-112h279zM589 -279v112h-270v-112h270z
M291 -279v112h-279v-112h279zM589 827v112h-270v-112h270zM291 827v112h-279v-112h279zM111 414q13 39 20 49q4 5 10 9v53h-279v-111h249zM401 484q16 0 38 -1v42h-270v-43q10 1 27 1q34 0 102 1h103zM78 277l3 6q16 20 65 20q14 0 145 1v52l-143 -1q-41 0 -43 34h-93v-112
h66zM141 175h-43q-43 0 -43 38q0 7 11 35h-204v-112h279v39zM439 184q-24 -9 -270 -9v-39h270v48zM481 262q0 -3 -16 -53q-4 -14 -11 -18v-65h150v-142h-150v-136h150v-152h-607v147h-150v142h150v136h-150v142h150v136h-150v141h150v134h-150v141h150v149h607v-152h-150
v-133h150v-142h-150v-54q22 -1 66 -2q12 -9 12 -26t-12 -51h84v-142h-123zM351 304q22 0 59 -1q43 -2 60 -2q11 -9 12 -24h107v112h-73h-1q-4 -16 -25 -25q-15 -7 -171 -8v-52h32z" />
    <glyph glyph-name="greater" unicode="&#x3e;" 
d="M-153 -157v142h150v136h-150v142h150v136h-150v141h150v134h-150v141h150v149h607v-152h-150v-133h150v-142h-150v-133h150v-142h-150v-136h150v-142h-150v-136h150v-152h-607v147h-150zM142 689v111h-280v-111h280zM589 -1v112h-270v-112h270zM141 414v111h-279v-111
h279zM439 -142v112h-270v-112h270zM589 -279v112h-270v-112h270zM291 -279v112h-279v-112h279zM589 827v112h-270v-112h270zM291 827v112h-279v-112h279zM291 93q-62 -55 -118 -94h118v94zM439 245q-34 -46 -101 -109h101v109zM445 389q21 -67 21 -91q0 -8 -6 -21h129v112
h-144zM395 525q23 -57 42 -111h2v111h-44zM328 664q27 -45 56 -112h205v112h-261zM195 689q27 47 67 47q20 0 51 -47h126v111h-269v-111h25zM196 552q-13 56 -13 99q0 6 2 13h-173v-112h184zM233 414q-11 37 -30 111h-34v-111h64zM219 277q18 23 27 43q-1 31 -8 69h-226
v-112h207zM169 216q16 19 27 32h-27v-32zM99 136q16 19 42 49v63h-279v-112h237zM28 -1q2 46 52 112h-68v-112h16zM66 -57q-22 0 -33 27h-171v-112h279v112h-11q-45 -27 -64 -27z" />
    <glyph glyph-name="question" unicode="?" horiz-adv-x="600" 
d="M142 689v111h-280v-111h280zM589 -1v112h-270v-112h270zM589 -279v112h-270v-112h270zM291 -279v112h-279v-112h279zM589 827v112h-270v-112h270zM291 827v112h-279v-112h279zM190 689q62 47 137 47q62 0 112 -17v81h-269v-111h20zM101 552q22 71 61 112h-150v-112h89z
M141 471q-46 5 -46 48v6h-233v-111h279v57zM370 552q-10 23 -50 22h-1v-22h51zM270 414q52 42 66 56q33 30 36 43q1 7 2 12h-106q-4 -10 -15 -39q-6 -16 -84 -16v-56h101zM160 277q23 51 56 88q8 9 25 24h-229v-112h148zM141 199q-2 5 -2 12q0 6 2 14v23h-279v-112h279v63z
M481 389q-42 -36 -120 -112h228v112h-108zM562 537q-6 -68 -66 -133h108v-142h-150v-136h150v-142h-150v-136h150v-152h-607v147h-150v142h150v136h-150v142h150v136h-150v141h150v134h-150v141h150v149h607v-152h-150v-99q32 -13 56 -34h94v-142h-42zM562 553v-1h27v112
h-65q38 -44 38 -111zM172 136q13 4 26 4q16 0 29 -4h212v112h-100q-9 -12 -33 -55q-13 -22 -121 -22q-9 0 -16 2v-37h3zM107 -1q-6 15 -6 33q0 46 32 79h-121v-112h95zM141 -37q-6 3 -11 7h-268v-112h279v105zM243 -30q-24 -19 -54 -19q-10 0 -20 2v-95h270v112h-196z
M285 54q0 -29 -16 -55h22v112h-24q18 -22 18 -57z" />
    <glyph glyph-name="at" unicode="@" horiz-adv-x="913" 
d="M143 689v111h-281v-111h281zM747 -142v112h-279v-112h279zM142 -142v112h-280v-112h280zM897 -279v112h-279v-112h279zM590 -279v112h-270v-112h270zM292 -279v112h-279v-112h279zM897 827v112h-279v-112h279zM590 827v112h-270v-112h270zM292 827v112h-279v-112h279z
M606 136q-10 18 -14 44q-21 -21 -63 -44h77zM698 111q-39 -14 -67 0h-13v-112h279v112h-199zM884 389q-7 -58 -31 -112h44v112h-13zM792 664q48 -48 72 -112h33v112h-105zM763 689l12 -10h137v-142h-42q16 -50 16 -105q0 -14 -1 -28h27v-142h-66q-33 -67 -84 -112v-24h150
v-142h-150v-136h150v-152h-915v147h-150v142h150v136h-150v142h150v136h-150v141h150v134h-150v141h150v149h915v-152h-149v-123zM468 743q48 12 96 12q103 0 184 -55v100h-280v-57zM340 689q48 29 100 46v65h-269v-111h169zM188 552q45 59 104 104v8h-279v-112h175z
M111 414q13 34 31 66v45h-280v-111h249zM81 277q3 56 21 112h-89v-112h68zM96 136q-16 53 -16 112h-218v-112h234zM179 -1q-48 46 -74 112h-92v-112h166zM440 -54q-21 -30 -45 -30q-103 0 -181 54h-44v-112h270v88zM270 111q10 -11 22 -19v19h-22zM692 389q-3 -24 -31 -112
h26q40 44 52 112h-47zM655 525q38 -45 38 -111h49v16q0 53 -23 95h-64zM618 556l6 -4h77q-33 38 -83 52v-48zM457 552q44 22 89 22q23 0 44 -6v42q-13 1 -26 1q-87 0 -171 -59h64zM316 414q40 68 97 111h-53q-54 -48 -90 -111h46zM269 277q4 42 23 88v24h-35
q-27 -56 -32 -112h44zM316 136q-44 43 -47 112h-46q0 -66 28 -112h65zM416 96q-36 0 -65 15h-31v-35q37 -17 85 -17q6 0 17 2t16 2q30 0 30 -25q0 -17 -6 -39h128v112h-114q-38 -15 -60 -15zM549 414q0 8 -3 17q-20 -3 -41 -17h44zM483 277q52 49 64 112h-73
q-50 -51 -60 -112h69zM415 240q12 2 25 7v1h-27z" />
    <glyph glyph-name="A" unicode="A" horiz-adv-x="604" 
d="M142 689v111h-280v-111h280zM141 414v111h-279v-111h279zM589 -279v112h-270v-112h270zM291 -279v112h-279v-112h279zM589 827v112h-270v-112h270zM291 827v112h-279v-112h279zM522 664q4 -11 6 -106v-6h61v112h-67zM308 689q26 36 56 36q20 0 66 -9l9 -2v86h-269v-111
h138zM230 552q36 71 61 112v0h-279v-112h218zM170 426q14 30 47 99h-48zM36 277q12 39 23.5 46.5t64.5 7.5q11 18 29 58h-141v-112h24zM17 136q-9 5 -9 21q0 31 19 91h-165v-112h155zM12 87q4 8 11 24h-11v-24zM141 -42q-10 -6 -19 -6q-30 0 -75 18h-185v-112h279v100z
M225 111q-15 -38 -50 -112h116v112h-66zM344 136q2 36 4 68q-29 -58 -54 -68h50zM342 -1v10q0 54 1 102h-24v-112h23zM439 -52h-19q-51 0 -68 22h-183v-112h270v90zM521 111q-3 -64 -3 -112h71v112h-68zM529 262q-3 -45 -7 -136h82v-142h-86q-2 -31 -64 -35v-101h150v-152
h-607v147h-150v142h150v17q-7 9 -7 18q0 12 7 32v69h-150v142h150v136h-150v141h150v134h-150v141h150v149h607v-152h-150v-101q47 -11 61 -32h89v-142h-76l3 -133h73v-142h-75zM531 375q0 -43 -2 -98h60v112h-58v-14zM334 389l-15 -45v-18h41l7 63h-33zM374 497
q-16 -38 -32 -83h27q5 47 5 83z" />
    <glyph glyph-name="B" unicode="B" horiz-adv-x="606" 
d="M142 689v111h-280v-111h280zM589 -279v112h-270v-112h270zM291 -279v112h-279v-112h279zM589 827v112h-270v-112h270zM291 827v112h-279v-112h279zM548 664q24 -19 41 -42v42h-41zM170 697q19 6 65 18q53 13 118 13q43 0 86 -11v83h-269v-103zM66 552q19 86 44 112h-98
v-112h54zM116 414l25 87q-12 0 -34.5 -8.5t-31.5 -8.5q-17 0 -17 23q0 8 2 18h-198v-111h254zM78 277q14 51 31 112h-97v-112h66zM42 136q9 41 28 112h-208v-112h180zM89 -1l-8 11q-13 18 -23 31q-23 29 -23 49q0 7 2 21h-25v-112h77zM141 -46q-16 5 -28 16h-251v-112h279
v96zM370 -30l-3 -1q-56 -22 -92 -22h-75q-18 0 -31 1v-90h270v112h-69zM535 111q-27 -67 -104 -112h158v112h-54zM576 389q-29 -33 -87 -68q19 -20 33 -44h67v112h-13zM623 518q0 -66 -34 -114h15v-142h-74q19 -38 19 -74q0 -33 -9 -62h64v-142h-150v-136h150v-152h-607v147
h-150v142h150v136h-150v142h150v136h-150v141h150v134h-150v141h150v149h607v-152h-150v-100q40 -12 73 -33h77v-81q19 -37 19 -80zM418 488q0 23 -15 37h-175q71 -8 96 -34l1 -14q1 -18 -16 -63h61q48 32 48 74zM291 334q-11 -21 -22 -57h22v57zM354 193q0 19 -19 33
q-25 17 -28 22h-46q0 -2 -25 -112h89q29 22 29 57z" />
    <glyph glyph-name="C" unicode="C" horiz-adv-x="606" 
d="M589 277v112h-270v-112h270zM142 689v111h-280v-111h280zM141 -142v112h-279v-112h279zM589 -279v112h-270v-112h270zM291 -279v112h-279v-112h279zM589 827v112h-270v-112h270zM291 827v112h-279v-112h279zM582 664q4 -4 7 -9v9h-7zM264 689q65 41 141 41q17 0 34 -2v72
h-269v-111h94zM138 552q41 69 92 112h-218v-112h126zM78 414q19 59 46 111h-262v-111h216zM48 277q8 60 19 99l3 13h-58v-112h36zM51 136q-8 40 -8 84q0 11 2 28h-183v-112h189zM112 -1q-39 42 -56 112h-44v-112h100zM358 -30q-54 -25 -114 -25q-41 0 -75 14v-101h270v112
h-81zM501 111q-37 -69 -95 -112h183v112h-88zM240 248q-5 -33 -5 -52q0 -17 14 -33q15 -20 37 -20q6 0 13 2q29 7 47 44q27 54 31 59h-137zM271 389q-16 -54 -26 -112h46v112h-20zM439 447q-11 9 -14 23q11 42 11 51v4h-102q-29 -33 -55 -111h160v33zM613 581
q0 -76 -27 -108q-29 -36 -104 -36q-16 0 -28 4v-37h150v-142h-89q24 -11 24 -34q0 -21 -13 -60q-8 -22 -18 -42h96v-142h-150v-136h150v-152h-607v147h-150v142h150v136h-150v142h150v136h-150v141h150v134h-150v141h150v149h607v-152h-150v-86q70 -11 112 -47h38v-51
q9 -22 9 -47z" />
    <glyph glyph-name="D" unicode="D" horiz-adv-x="606" 
d="M589 -279v112h-270v-112h270zM291 -279v112h-279v-112h279zM589 827v112h-270v-112h270zM291 827v112h-279v-112h279zM514 664q46 -31 75 -74v74h-75zM170 710q50 15 125 15q78 0 144 -23v98h-269v-90zM125 689q8 5 17 10v101h-280v-111h263zM63 552q12 36 32 98
q2 7 6 14h-89v-112h51zM108 414l32 109q-14 -1 -37 -11t-29 -10q-16 0 -16 17v6h-196v-111h246zM70 277q13 49 31 112h-89v-112h58zM39 136q7 44 24 112h-201v-112h177zM92 -1q-5 6 -10 13l-30 36q-18 24 -18 41q0 10 2 22h-24v-112h80zM141 -43q-10 5 -19 13h-260v-112h279
v99zM325 -30q-66 -30 -116 -30q-22 0 -40 5v-87h270v112h-114zM516 111q-60 -69 -135 -112h208v112h-73zM639 416q0 -154 -110 -290h75v-142h-150v-136h150v-152h-607v147h-150v142h150v136h-150v142h150v136h-150v141h150v134h-150v141h150v149h607v-152h-150v-116
q19 -8 36 -17h114v-114q35 -65 35 -149zM404 277q27 53 30 112h-115v-112h85zM264 248q-7 -33 -21 -98q89 16 144 98h-123zM291 347q-13 -39 -20 -70h20v70zM433 414q-5 74 -65 111h-81q35 -20 35 -50q0 -22 -11 -61h122z" />
    <glyph glyph-name="E" unicode="E" horiz-adv-x="605" 
d="M142 689v111h-280v-111h280zM141 414v111h-279v-111h279zM589 -279v112h-270v-112h270zM291 -279v112h-279v-112h279zM589 827v112h-270v-112h270zM291 827v112h-279v-112h279zM170 705q20 16 71 16h119q33 0 79 -2v81h-269v-95zM120 552v2q-1 7 13 58q4 19 14 52h-135
v-112h108zM169 488q6 23 11 37h-6h-5v-37zM57 277q5 75 37 112h-82v-112h45zM70 136l24 87q-29 0 -36 25h-196v-112h208zM90 -1q-28 35 -28 76q0 17 3 36h-53v-112h78zM141 -41q-11 5 -20 11h-259v-112h279v101zM439 -39q-15 -11 -45 -11h-50q-35 2 -49 2q-44 -4 -126 0v-94
h270v103zM476 111q7 -8 7 -21q0 -25 -20 -91h126v112h-113zM439 225l-80 1l-69 -1q-8 -30 -25 -89h174v89zM544 389q5 -7 5 -16q0 -7 -17 -70l-6 -26h63v112h-45zM284 525q74 -28 74 -48q0 -12 -14 -63h95v111h-155zM630 680q0 -22 -16 -75q-1 -3 -10 -35v-33h-14
q-13 -15 -55 -15q-32 0 -81 3v-114q42 0 65 -7h85v-142h-83q-13 -38 -64 -37h-3v-99h150v-142h-147q-1 -3 -3 -6v-130h150v-152h-607v147h-150v142h150v136h-150v142h150v136h-150v141h150v134h-150v141h150v149h607v-152h-150v-93l26 -1q6 0 26 1t33 1q91 0 91 -40z" />
    <glyph glyph-name="F" unicode="F" horiz-adv-x="606" 
d="M142 689v111h-280v-111h280zM589 -1v112h-270v-112h270zM141 414v111h-279v-111h279zM589 -279v112h-270v-112h270zM291 -279v112h-279v-112h279zM589 827v112h-270v-112h270zM291 827v112h-279v-112h279zM170 695q13 21 37 24q6 1 64 1h66q73 0 102 -1v81h-269v-105z
M128 552q-3 4 -3 10q0 14 29 96l2 6h-144v-112h116zM169 419q1 1 1 2l23 104h-24v-106zM75 277q15 70 35 112h-98v-112h63zM86 136q22 69 26 91q-32 8 -38 21h-212v-112h224zM61 -1q-5 8 -5 17q0 19 23 95h-67v-112h49zM141 -39q-18 4 -34 9h-245v-112h279v103zM230 -30
q-10 -16 -36 -16q-10 0 -25 2v-98h270v112h-209zM274 111q-16 -60 -33 -112h50v112h-17zM439 225l-135 1q-12 -49 -23 -90h158v89zM548 389q2 -4 2 -10q0 -34 -23 -102h62v112h-41zM320 525q51 -20 51 -45q0 -23 -11 -66h79v111h-119zM624 677q0 -7 -8 -41q-4 -16 -12 -49
v-50h-32q-10 -5 -22 -5q-28 0 -96 3v-121q51 0 75 -10h75v-142h-82q-14 -37 -36 -37h-32v-99h150v-142h-150v-136h150v-152h-607v147h-150v142h150v136h-150v142h150v136h-150v141h150v134h-150v141h150v149h607v-152h-150v-93q16 -1 28 -2q38 -2 77 -3q65 -8 65 -37z" />
    <glyph glyph-name="G" unicode="G" horiz-adv-x="606" 
d="M142 689v111h-280v-111h280zM141 -142v112h-279v-112h279zM589 -279v112h-270v-112h270zM291 -279v112h-279v-112h279zM589 827v112h-270v-112h270zM291 827v112h-279v-112h279zM578 664q6 -6 11 -12v12h-11zM264 689q69 38 120 38q28 0 55 -4v77h-269v-111h94zM132 552
q42 70 95 112h-215v-112h120zM73 414q18 60 44 111h-255v-111h211zM45 277q6 56 21 112h-54v-112h33zM49 136q-8 37 -8 76q0 17 1 36h-180v-112h187zM119 -1q-43 42 -64 112h-43v-112h107zM357 -30q-53 -23 -109 -23q-43 0 -79 17v-106h270v112h-82zM507 111
q-36 -68 -98 -112h180v112h-82zM319 357q16 15 82 21q78 8 124 5q21 1 64 -5v11h-270v-32zM224 248q-1 -10 -1 -19q0 -77 30 -93h34q18 8 31.5 27t13.5 38q-10 -4 -14 -4q-38 0 -38 32q0 9 2 19h-58zM254 389q-19 -56 -27 -112h61l3 10v102h-37zM439 450q-26 5 -26 30
q0 5 1.5 18.5t1.5 21.5q0 3 -1 5h-85q-38 -33 -67 -111h176v36zM622 553q0 -47 -13.5 -65t-58.5 -26q-77 -13 -94 -13h-2v-45h150v-32q12 -9 12 -18q0 -6 -11 -55l-1 -6v-31h-7q-13 -44 -56 -44q-6 -47 -26 -92h89v-142h-150v-136h150v-152h-607v147h-150v142h150v136h-150
v142h150v136h-150v141h150v134h-150v141h150v149h607v-152h-150v-91q65 -11 107 -42h43v-50q18 -33 18 -76z" />
    <glyph glyph-name="H" unicode="H" horiz-adv-x="606" 
d="M142 689v111h-280v-111h280zM589 -279v112h-270v-112h270zM291 -279v112h-279v-112h279zM589 827v112h-270v-112h270zM291 827v112h-279v-112h279zM339 525q-10 -36 -34 -108q50 -3 60 -3h52l22 78v33h-100zM365 664q1 -5 1 -11q0 -30 -19 -101h109l13 47q5 21 17 65
h-121zM199 689q19 29 44 29q67 0 104 -29h92v111h-269v-111h29zM149 552l14 41q6 23 23 71h-174v-112h137zM73 414q13 7 41 11q9 43 27 100h-279v-111h211zM13 277q3 22 22 80q8 21 13 32h-36v-112h1zM30 136l24 80q-31 4 -40 32h-152v-112h168zM12 71q4 17 11 40h-11v-40z
M141 -48h-7q-60 0 -98 18h-174v-112h279v94zM219 111q-4 -17 -7 -31q-5 -27 -22 -81h101v112h-72zM381 277q9 30 13 42q-15 -18 -33 -42h20zM338 136q16 55 34 112h-33q-27 -32 -92 -32q-5 -18 -21 -80h112zM319 67q5 20 12 44h-12v-44zM439 -49h-8q-76 0 -108 19h-150
q-2 -2 -4 -5v-107h270v93zM531 111l-7 -22q-8 -30 -26 -90h91v112h-58zM589 311l-10 -34h10v34zM676 641q0 -39 -22 -112q-18 -56 -35 -112l-15 -52v-103h-29q-22 -76 -40 -136h69v-142h-112q-8 -21 -25 -27q-6 -3 -13 -4v-105h150v-152h-607v147h-150v142h150v136h-150v142
h150v136h-150v141h150v134h-150v141h150v149h607v-152h-150v-133h38q17 36 45 36q48 0 86 -15q53 -20 53 -59z" />
    <glyph glyph-name="I" unicode="I" horiz-adv-x="309" 
d="M-153 -157v142h150v1q-14 16 -14 35q0 17 14 74v26h-150v142h150v136h-150v141h150v134h-150v141h150v149h310v-152h-149v-133h13q9 18 16 24q12 8 39 8q143 0 143 -57q0 -33 -67 -250h5v-142h-44l-34 -136h78v-142h-114q-11 -31 -36 -38v-98h150v-152h-310v147h-150z
M165 664h-152v-112h115q21 74 37 112zM143 689v111h-281v-111h281zM82 389h-69v-112h35zM292 277v93l-4 -11q-6 -22 -21 -82h25zM120 525h-258v-111h227l8 25q6 24 23 86zM292 -1v112h-66l-29 -112h95zM40 248h-178v-112h146q13 46 32 112zM292 -279v112h-279v-112h279z
M142 -142v86h-7q-70 0 -116 26h-157v-112h280zM292 827v112h-279v-112h279z" />
    <glyph glyph-name="J" unicode="J" 
d="M291 552v112h-279v-112h279zM142 689v111h-280v-111h280zM141 414v111h-279v-111h279zM589 -279v112h-270v-112h270zM291 -279v112h-279v-112h279zM589 827v112h-270v-112h270zM291 827v112h-279v-112h279zM413 689q12 18 26 26v85h-269v-111h243zM371 552q7 38 29 112
h-81v-112h52zM334 414l31 111h-196v-111h165zM319 359l8 30h-8v-30zM220 248q-6 -22 -13 -45q-7 -27 -7 -46q0 -15 4 -21h39q29 22 50 112h-73zM49 277q8 22 18.5 32t70.5 10q88 0 87 -38v-4h66v112h-279v-112h37zM24 136q3 59 16 112h-178v-112h162zM79 -1q-52 40 -55 112
h-12v-112h67zM141 -31l-4 1h-275v-112h279v111zM330 -30q-37 -15 -83 -15q-42 0 -78 7v-104h270v112h-109zM451 111q-30 -74 -74 -112h212v112h-138zM528 389l-14 -51q-6 -22 -16 -61h91v112h-61zM570 537q-14 -52 -37 -133h71v-142h-109q-21 -91 -38 -136h147v-142h-150
v-136h150v-152h-607v147h-150v142h150v136h-150v142h150v136h-150v141h150v134h-150v141h150v149h607v-152h-150v-91q7 1 14 1q99 0 124 -43h12v-142h-34zM589 612q-6 -25 -15 -60h15v60z" />
    <glyph glyph-name="K" unicode="K" horiz-adv-x="606" 
d="M142 689v111h-280v-111h280zM589 -279v112h-270v-112h270zM291 -279v112h-279v-112h279zM589 827v112h-270v-112h270zM291 827v112h-279v-112h279zM329 525q-21 -64 -30 -88q9 -3 14 -3q18 0 47 24q41 33 71 67h-102zM371 664q-5 -25 -33 -112h115q40 53 61 112h-143z
M180 689q18 39 48 39q33 0 72 -9q49 -11 65 -30h74v111h-269v-111h10zM139 552q17 68 32 112h-159v-112h127zM105 414l2 9q8 26 26 102h-271v-111h243zM67 277l31 112h-86v-112h55zM28 136l31 112h-197v-112h166zM12 79l9 32h-9v-32zM141 -50q-45 4 -94 20h-185v-112h279v92
zM249 136q-16 32 -24 44q-2 -21 -6 -44h30zM291 50q-10 21 -30 61h-47q-9 -43 -29 -112h106v51zM439 -112q-20 -10 -33 -10q-23 0 -74 92h-155l-4 -13q-2 -2 -4 -3v-96h270v30zM474 111q31 -57 58 -112h57v112h-115zM392 248q10 -14 28 -41q10 -16 19 -33v74h-47zM551 389
q-82 -87 -169 -112h207v112h-38zM700 649q0 -30 -63 -142q-31 -55 -73 -103h40v-142h-150v-114l12 -22h138v-142h-65l7 -15q0 -27 -26 -41q-37 -20 -41 -25q-9 0 -25 -8v-47h150v-152h-607v147h-150v142h150v15q-2 3 -2 7q0 6 2 15v99h-150v142h150v136h-150v141h150v134
h-150v141h150v149h607v-152h-150v-133h65q15 38 39 38q33 0 83 -20q59 -22 59 -48z" />
    <glyph glyph-name="L" unicode="L" horiz-adv-x="604" 
d="M589 277v112h-270v-112h270zM142 689v111h-280v-111h280zM589 -279v112h-270v-112h270zM291 -279v112h-279v-112h279zM589 827v112h-270v-112h270zM291 827v112h-279v-112h279zM279 248l-25 -99q20 -1 185 15v84h-160zM355 525q-10 -30 -32 -111h116v111h-84zM395 664
q-3 -37 -30 -112h224v112h-194zM204 689l8 24q13 16 46 16q24 0 65 -11q48 -13 64 -29h52v111h-269v-111h34zM161 552q18 61 35 112h-184v-112h149zM122 414l19 67v44h-279v-111h260zM84 277q7 24 20 71l12 41h-104v-112h72zM50 136q6 45 25 112h-213v-112h188zM88 -1
q-41 42 -41 89q0 11 1 23h-36v-112h76zM141 -38q-5 2 -16 8h-263v-112h279v104zM390 -30q-29 0 -114 -7q-78 -6 -107 -4v-101h270v112h-49zM535 111q-5 -16 -11.5 -42t-24.5 -70h90v112h-54zM540 142q0 -6 -2 -16h66v-142h-120q-12 -8 -30 -10v-126h150v-152h-607v147h-150
v142h150v136h-150v142h150v136h-150v141h150v134h-150v141h150v149h607v-152h-150v-133h150v-142h-150v-133h150v-142h-150v-96q30 2 47 2q39 0 39 -26z" />
    <glyph glyph-name="M" unicode="M" horiz-adv-x="913" 
d="M-153 -157v142h150v136h-150v142h150v136h-150v141h150v134h-150v141h150v149h915v-152h-149v-96q70 -8 100 -37h49v-142h-39q-3 -26 -19 -133h58v-142h-74l-13 -136h87v-142h-110q-13 -24 -40 -31v-105h150v-152h-915v147h-150zM665 664h-47v-75q23 40 47 75zM897 552
v112h-23q5 -11 5 -23q0 -39 -5 -89h23zM748 717v83h-280v-111h215q24 28 51 28h14zM628 277h34q10 49 15 84q-23 -36 -49 -84zM897 277v112h-45q-6 -43 -9 -72l-4 -40h58zM581 525h-113v-111h56q31 62 57 111zM590 552v112h-149q12 -31 16 -112h133zM440 689v111h-269v-111
h54q10 20 17 24q13 9 64 9q91 0 120 -33h14zM628 111h-10v-112v0v7q0 46 10 105zM897 -1v112h-74v-3l-4 -56q-3 -34 -10 -53h88zM656 248h-43q-20 -38 -58 -112h77q4 20 24 112zM511 389h-52q-2 -64 -8 -112h6zM213 664h-200v-112h157q25 71 43 112zM143 689v111h-281v-111
h281zM747 -142v93q-6 -1 -11 -1q-77 0 -101 20h-167v-112h279zM590 -1v112h-48l-1 -3q-16 -37 -56 -109h105zM293 248h-32q-9 -37 -28 -112h51q3 37 9 112zM118 389h-105v-112h73q16 57 32 112zM292 277v78l-23 -78h23zM142 464v61h-280v-111h264q8 26 16 50zM440 -142v101
q-14 -5 -29 -5q-65 0 -92 16h-139q-5 -5 -10 -8v-104h270zM41 111h-28v-112h8q-1 4 -1 9q0 16 21 103zM292 -1v3q-11 24 -11 66q0 20 1 43h-55q-6 -25 -14 -55q-5 -19 -16 -57h95zM78 248h-216v-112h186q13 52 30 112zM142 -142v97q-45 1 -83 15h-197v-112h280zM897 -279
v112h-279v-112h279zM590 -279v112h-270v-112h270zM292 -279v112h-279v-112h279zM897 827v112h-279v-112h279zM590 827v112h-270v-112h270zM292 827v112h-279v-112h279z" />
    <glyph glyph-name="N" unicode="N" horiz-adv-x="597" 
d="M142 689v111h-280v-111h280zM589 -279v112h-270v-112h270zM291 -279v112h-279v-112h279zM589 827v112h-270v-112h270zM291 827v112h-279v-112h279zM396 389q2 -24 6 -62q7 29 15 62h-21zM379 525q8 -45 14 -111h30l16 74v37h-60zM334 664q24 -33 40 -112h79q15 63 27 112
h-146zM170 705q12 18 24 18q49 0 111 -34h134v111h-269v-95zM117 552q19 74 33 112h-138v-112h105zM82 414l29 111h-249v-111h220zM48 277l28 112h-64v-112h36zM9 136q10 38 31 112h-178v-112h147zM141 -39q-11 -7 -26 -7q-51 0 -91 16h-162v-112h279v103zM198 111
q-15 -60 -32 -112h125v112h-93zM270 277q-4 37 -13 112h-9q-9 -66 -17 -112h39zM289 136q-6 37 -16 112h-47q-11 -61 -22 -112h85zM439 -46q-59 0 -90 16h-180v-112h270v96zM522 111q-28 -82 -28 -95q0 -6 3 -17h92v112h-67zM589 341q-8 -30 -18 -64h18v64zM657 649
q0 -53 -53 -253v-134h-37q-15 -51 -38 -131l-2 -5h77v-142h-104q1 -2 1 -3q0 -24 -47 -26v-107h150v-152h-607v147h-150v142h150v2q-13 12 -13 29q0 16 13 71v34h-150v142h150v136h-150v141h150v134h-150v141h150v149h607v-152h-150v-133h30l5 16q6 24 41 24q40 0 78 -16
q49 -20 49 -54z" />
    <glyph glyph-name="O" unicode="O" horiz-adv-x="604" 
d="M142 689v111h-280v-111h280zM141 -142v112h-279v-112h279zM589 -279v112h-270v-112h270zM291 -279v112h-279v-112h279zM589 827v112h-270v-112h270zM291 827v112h-279v-112h279zM432 664q-1 -16 -1 -24q8 7 27 24h-26zM260 689q11 7 23 13q67 33 115 33q37 0 37 -29
q0 -8 -1 -17h5v111h-269v-111h90zM130 552q41 68 94 112h-212v-112h118zM70 414q18 60 45 111h-253v-111h208zM43 277q5 56 20 112h-51v-112h31zM50 136q-9 41 -9 85v27h-179v-112h188zM126 -1q-47 43 -69 112h-45v-112h114zM385 -30q-52 -28 -105 -28q-62 0 -111 26v-110
h270v112h-54zM531 111q-40 -63 -103 -112h161v112h-58zM634 496q0 -109 -30 -217v-17h-5q-23 -76 -59 -136h64v-142h-150v-136h150v-152h-607v147h-150v142h150v136h-150v142h150v136h-150v141h150v134h-150v141h150v149h607v-152h-150v-133h22q56 47 78 47q45 0 66 -95
q14 -61 14 -135zM395 277q19 49 28 112h-104v-112h76zM237 248v-14q0 -88 54 -88q36 0 79 77q7 12 13 25h-146zM268 389q-23 -53 -29 -112h52v112h-23zM423 552q-5 18 -11 32q-3 -15 -11 -32h22zM431 474q1 23 -3 51h-54q-59 -45 -94 -111h146z" />
    <glyph glyph-name="P" unicode="P" horiz-adv-x="606" 
d="M142 689v111h-280v-111h280zM589 -1v112h-270v-112h270zM589 -279v112h-270v-112h270zM291 -279v112h-279v-112h279zM589 827v112h-270v-112h270zM291 827v112h-279v-112h279zM558 664q17 -14 31 -30v30h-31zM170 693q55 31 214 31q28 0 55 -6v82h-269v-107zM91 552
q9 73 43 112h-122v-112h79zM141 468h-10q-14 0 -27 6q-16 9 -16 21q0 16 1 30h-227v-111h279v54zM169 418q10 41 18 75q-8 -10 -18 -16v-59zM132 277l29 112h-149v-112h120zM95 136q0 3 29 112h-262v-112h233zM66 -1q-1 2 -1 5q0 26 23 107h-76v-112h54zM141 -46
q-29 6 -48 16h-231v-112h279v96zM238 -30v-2q-6 -19 -54 -19q-6 0 -15 1v-92h270v112h-201zM272 111q-8 -39 -25 -112h44v112h-19zM439 186q-61 -24 -85 -24q-34 0 -34 86h-15q-13 -40 -28 -112h162v50zM589 319q-14 -22 -30 -42h30v42zM642 488q0 -70 -38 -143v-83h-58
q-42 -45 -92 -69v-67h150v-142h-150v-136h150v-152h-607v147h-150v142h150v136h-150v142h150v136h-150v141h150v134h-150v141h150v149h607v-152h-150v-97q46 -11 83 -36h67v-65q38 -56 38 -126zM350 389q-7 -23 -11 -33q39 5 71 33h-60zM439 499q-11 17 -34 26h-122l-25 -5
q107 -23 107 -65q0 -11 -8 -41h75q4 6 7 13v72z" />
    <glyph glyph-name="Q" unicode="Q" 
d="M142 689v111h-280v-111h280zM141 -142v112h-279v-112h279zM589 -279v112h-270v-112h270zM291 -279v112h-279v-112h279zM589 827v112h-270v-112h270zM291 827v112h-279v-112h279zM444 664q-6 -20 -11 -28h15q9 9 30 28h-34zM265 689q70 44 149 44q16 0 25 -5v72h-269v-111
h95zM137 552q41 68 94 112h-219v-112h125zM74 414q19 59 47 111h-259v-111h212zM44 277q6 56 22 112h-54v-112h32zM49 136q-9 39 -9 80q0 15 1 32h-179v-112h187zM121 -1q-44 43 -65 112h-44v-112h109zM371 -142q-17 8 -43 39q-18 24 -36 47q-29 -1 -34 -1q-48 0 -89 21
v-106h202zM439 -116q-27 -19 -44 -26h44v26zM521 111q-25 -33 -55 -63q24 -28 37 -49h86v112h-68zM645 516q0 -138 -41 -251v-3h-1q-27 -73 -71 -136h72v-142h-92q5 -12 5 -19q0 -21 -63 -70v-47h150v-152h-607v147h-150v142h150v136h-150v142h150v136h-150v141h150v134
h-150v141h150v149h607v-152h-150v-133h42q49 40 76 40q42 0 61 -84q12 -53 12 -119zM398 277q21 52 31 112h-110v-112h79zM237 248v-14l2 -36t10 -33q8 -4 13 -4q13 0 29.5 27t31.5 27q22 0 35 -14q15 23 27 47h-148zM275 389q-27 -57 -35 -112h51v112h-16zM435 552
q-2 15 -5 31q-10 -16 -16 -31h21zM438 500q0 12 -1 25h-52q-55 -35 -97 -111h145q5 41 5 86z" />
    <glyph glyph-name="R" unicode="R" horiz-adv-x="604" 
d="M589 -279v112h-270v-112h270zM291 -279v112h-279v-112h279zM589 827v112h-270v-112h270zM291 827v112h-279v-112h279zM553 664q21 -17 36 -38v38h-36zM170 701l7 1q107 27 176 27q44 0 86 -10v81h-269v-99zM129 689q5 2 13 5v106h-280v-111h267zM66 552q4 27 15 58
q7 21 20 54h-89v-112h54zM131 414l10 35v64q-37 -10 -54 -10q-20 0 -22 22h-203v-111h269zM93 277q14 51 31 112h-112v-112h81zM55 136q12 48 30 112h-223v-112h193zM28 -1q-1 3 -1 5q0 20 22 107h-37v-112h16zM141 -48q-56 2 -87 18h-192v-112h279v94zM243 111l-29 -112h77
v112h-48zM279 136l-20 38l-10 -38h30zM353 -1q-16 28 -34 61v-61h34zM439 -119q-19 7 -69 89h-164v-2q-4 -14 -37 -16v-94h270v23zM502 111q41 -72 59 -112h28v112h-87zM589 355q-26 -41 -71 -78h71v78zM629 500q0 -65 -25 -118v-120h-104q-21 -15 -46 -32v-39
q18 -29 39 -65h111v-142h-37q5 -13 5 -19q0 -22 -45 -50q-39 -25 -73 -33v-34h150v-152h-607v147h-150v142h150v136h-150v142h150v136h-150v141h150v134h-150v141h150v149h607v-152h-150v-97q44 -13 79 -36h71v-76q25 -46 25 -103zM319 356q40 4 75 33h-75v-33zM439 485
q-4 23 -23 40h-160q77 -15 77 -52q0 -14 -12 -59h98q16 21 20 44v27z" />
    <glyph glyph-name="S" unicode="S" horiz-adv-x="606" 
d="M142 689v111h-280v-111h280zM141 414v111h-279v-111h279zM589 -279v112h-270v-112h270zM291 -279v112h-279v-112h279zM589 827v112h-270v-112h270zM291 827v112h-279v-112h279zM318 689q55 22 121 31v80h-269v-111h148zM170 552q29 68 100 112h-258v-112h158zM279 277
q-31 37 -88 112h-179v-112h267zM169 211q47 -2 47 -28q0 -23 -6 -46q1 -1 5 -1h54q57 8 57 43q0 30 -26 69h-131v-37zM52 136l1 3q11 45 20 56q15 18 56 16q4 -1 12 0v37h-279v-112h190zM35 -1q-2 12 -2 36q0 25 13 76h-34v-112h23zM141 -51q-34 2 -48 4q-32 5 -44 17h-187
v-112h279v91zM360 -30q-61 -24 -138 -24q-27 0 -53 1v-89h270v112h-79zM502 111q-24 -70 -86 -112h173v112h-87zM423 389q53 -68 73 -112h93v112h-166zM386 525q-28 -13 -28 -32q0 -20 46 -79h35v111h-53zM653 666q0 -22 -16 -93q-12 -56 -37 -68q-16 -8 -88 -8
q-48 0 -48 21q0 4 4 17h-14v-131h150v-142h-101q12 -33 12 -62q0 -40 -9 -74h98v-142h-150v-136h150v-152h-607v147h-150v142h150v136h-150v142h150v136h-150v141h150v134h-150v141h150v149h607v-152h-150v-90q41 5 87 5q53 0 73 -7q39 -12 39 -54z" />
    <glyph glyph-name="T" unicode="T" horiz-adv-x="606" 
d="M141 414v111h-279v-111h279zM141 136v112h-279v-112h279zM141 -142v112h-279v-112h279zM589 -279v112h-270v-112h270zM291 -279v112h-279v-112h279zM589 827v112h-270v-112h270zM291 827v112h-279v-112h279zM170 718q10 1 36 1h98q60 0 135 -1v82h-269v-82zM131 689
q5 10 11 16v95h-280v-111h269zM115 552q-11 10 -11 26q0 35 17 86h-109v-112h103zM274 414q5 16 11 33.5t13 37.5q9 24 9 39v1h-138v-111h105zM236 277q17 67 31 112h-255v-112h224zM197 136q7 21 31 112h-59v-112h28zM162 -1v5q0 36 26 107h-176v-112h150zM346 -30
q-19 -19 -55 -19q-68 0 -104 19h-18v-112h270v112h-93zM390 111q-8 -40 -27 -112h226v112h-199zM427 248q-3 -9 -5 -14q-14 -53 -26 -98h43v112h-12zM468 389q-10 -40 -33 -112h154v112h-121zM416 525q14 -4 23 -8v8h-23zM683 682q0 -15 -15 -64q-19 -66 -22 -70
q-12 -16 -64 -16q-19 0 -61 2q-50 2 -67 3v-27q28 -16 28 -40q0 -21 -10 -66h132v-142h-150v-136h150v-142h-150v-136h150v-152h-607v147h-150v142h150v136h-150v142h150v136h-150v141h150v134h-150v141h150v149h607v-152h-150v-94q48 -1 88 -2q2 0 18 1h30q93 0 93 -35z
" />
    <glyph glyph-name="U" unicode="U" horiz-adv-x="605" 
d="M142 689v111h-280v-111h280zM141 -142v112h-279v-112h279zM589 -279v112h-270v-112h270zM291 -279v112h-279v-112h279zM589 827v112h-270v-112h270zM291 827v112h-279v-112h279zM369 277q14 46 30 112h-80v-112h50zM240 248q-6 -33 -6 -51q0 -19 12.5 -32.5t30.5 -13.5
q8 0 24 2q27 4 58 95h-119zM273 389q-18 -67 -28 -112h46v112h-18zM311 525q-10 -35 -32 -111h126l10 43l17 68h-121zM345 664q-1 -23 -24 -104l-2 -6v-2h120q9 38 30 112h-124zM170 704q16 10 65 10q75 0 101 -25h103v111h-269v-96zM117 552l18 69q4 16 11 43h-134v-112
h105zM82 414l28 111h-248v-111h220zM47 277q2 10 26 100l3 12h-64v-112h35zM37 136q-3 19 -3 39q0 32 8 73h-180v-112h175zM115 -1q-55 43 -73 112h-30v-112h103zM383 -30q-45 -24 -100 -24q-63 0 -114 21v-109h270v112h-56zM507 111q-35 -72 -82 -112h164v112h-82zM589 369
q-7 -30 -23 -92h23v92zM660 670q0 -38 -24 -128l-38 -138h6v-142h-43q-22 -81 -47 -136h90v-142h-150v-136h150v-152h-607v147h-150v142h150v136h-150v142h150v136h-150v141h150v134h-150v141h150v149h607v-152h-150v-133h20q18 44 60 44q126 0 126 -53z" />
    <glyph glyph-name="V" unicode="V" 
d="M141 -142v112h-279v-112h279zM589 -279v112h-270v-112h270zM291 -279v112h-279v-112h279zM589 827v112h-270v-112h270zM291 827v112h-279v-112h279zM402 552q25 62 45 112h-128v-112h83zM319 344q10 23 17 39l2 6h-19v-45zM291 338q-6 -37 -5 -61h3l2 4v57zM301 525
q-2 -54 -5 -111h52l43 111h-90zM170 720q84 -2 113 -31h156v111h-269v-80zM117 689q6 23 25 28v83h-280v-111h255zM114 552v82v30h-102v-112h102zM115 414l-1 111h-252v-111h253zM116 277v72v40h-104v-112h104zM118 136q-2 49 -2 112h-254v-112h256zM129 -1q-7 24 -10 112
h-107v-112h117zM299 -30q-20 -25 -40 -25q-28 0 -89 25h-1v-112h270v112h-140zM387 111q-41 -72 -68 -112h270v112h-202zM439 204q-19 -35 -38 -68h38v68zM536 389q-27 -53 -58 -112h111v112h-53zM639 662q0 -35 -35 -123v-2h-1q-23 -57 -60 -133h61v-142h-134l-16 -31v-105
h150v-142h-150v-136h150v-152h-607v147h-150v142h150v136h-150v142h150v136h-150v141h150v134h-150v141h150v149h607v-152h-150v-131q16 36 50 36q40 0 80 -11q55 -16 55 -44z" />
    <glyph glyph-name="W" unicode="W" horiz-adv-x="913" 
d="M143 689v111h-281v-111h281zM142 414v111h-280v-111h280zM142 -142v112h-280v-112h280zM897 -279v112h-279v-112h279zM590 -279v112h-270v-112h270zM292 -279v112h-279v-112h279zM897 827v112h-279v-112h279zM590 827v112h-270v-112h270zM292 827v112h-279v-112h279z
M658 389q0 -41 -2 -78q14 25 36 78h-34zM656 525l2 -111h45q13 31 44 108v3h-91zM657 664q-1 -26 -1 -95v-17h102q32 78 47 112h-148zM483 689q23 29 61 29q12 0 52 -7q37 -8 50 -22h102v111h-280v-111h15zM320 389v-18v-72q14 36 36 90h-36zM324 525q-1 -55 -3 -111h45
l45 111h-87zM324 664q1 -8 1 -17v-95h97l30 75q5 12 16 37h-144zM171 717q10 6 26 6q8 0 47 -8q35 -7 42 -9q19 -6 28 -17h126v111h-269v-83zM144 552l1 67q-1 15 0 45h-132v-112h131zM141 277l1 112h-129v-112h128zM140 136v73l1 39h-279v-112h278zM148 -1q-5 13 -8 97v15
h-127v-112h135zM307 -30q-17 -17 -33 -17q-8 0 -41 5.5t-50 11.5h-13v-112h270v112h-133zM440 228q-24 -50 -37 -80q-2 -4 -5 -12h42v92zM497 277q2 51 3 83q-15 -34 -37 -83h34zM492 136v5q0 39 3 107h-27v-112h24zM499 -1q-9 23 -7 112h-104q-31 -73 -57 -112h168z
M673 -30q-19 -21 -48 -21q-75 0 -104 21h-53v-112h279v112h-74zM751 111l-39 -78q-11 -21 -18 -34h203v112h-146zM883 389q-23 -52 -52 -112h66v112h-14zM987 658q0 -41 -97 -254h22v-142h-88q-30 -62 -62 -129v-7h150v-142h-150v-136h150v-152h-915v147h-150v142h150v136
h-150v142h150v136h-150v141h150v134h-150v141h150v149h915v-152h-149v-133h50q19 39 45 39q33 0 76 -15q53 -19 53 -45z" />
    <glyph glyph-name="X" unicode="X" horiz-adv-x="604" 
d="M589 -279v112h-270v-112h270zM291 -279v112h-279v-112h279zM589 827v112h-270v-112h270zM291 827v112h-279v-112h279zM339 552q18 38 59 112h-79v-112h20zM170 718q14 -3 41 -7q37 -5 46 -8q16 -4 24 -14h136q11 14 22 21v90h-269v-82zM96 689q6 27 46 29v82h-280v-111
h234zM121 552q-23 71 -26 112h-83v-112h109zM141 495q-6 16 -11 30h-268v-111h279v81zM166 277q26 42 33 57q-5 20 -18 55h-169v-112h154zM80 136q16 26 61 100v12h-279v-112h218zM12 13q11 27 53 98h-53v-98zM141 -50h-3q-58 -1 -103 20h-173v-112h279v92zM291 103l-2 8
h-18q-19 -51 -54 -112h74v104zM439 -51q-60 0 -86 21h-158q-12 -11 -26 -16v-96h270v91zM484 111q32 -85 36 -112h69v112h-105zM429 248l10 -25v25h-10zM450 389l-45 -73q4 -14 13 -39h171v112h-139zM539 537q-31 -53 -80 -133h145v-142h-150v-76l24 -60h126v-142h-84
q-6 -31 -66 -34v-102h150v-152h-607v147h-150v142h150v136h-150v142h150v136h-150v141h150v134h-150v141h150v149h607v-152h-150v-95h7q32 0 71 -9q50 -11 63 -29h9v-142h-65zM589 632q-13 -29 -42 -80h42v80z" />
    <glyph glyph-name="Y" unicode="Y" 
d="M141 414v111h-279v-111h279zM141 136v112h-279v-112h279zM141 -142v112h-279v-112h279zM589 -279v112h-270v-112h270zM291 -279v112h-279v-112h279zM589 827v112h-270v-112h270zM291 827v112h-279v-112h279zM343 525l21 -83q9 23 34 83h-55zM319 623q5 -16 7 -30l10 -41
h74q31 72 53 112h-144v-41zM170 723q26 -4 70 -10q25 -4 44 -24h155v111h-269v-77zM106 689q1 35 36 36v75h-280v-111h244zM147 552q-16 38 -39 112h-96v-112h135zM186 414q-10 32 -17 54v-54h17zM229 277q-9 36 -35 112h-182v-112h217zM197 136q19 37 44 86q-2 12 -5 26
h-67v-112h28zM143 -1q-1 3 -1 7q0 17 43 105h-173v-112h131zM325 -30q-22 -23 -48 -23q-41 0 -95 23h-13v-112h270v112h-114zM399 111l-4 -8q-17 -34 -53 -104h247v112h-190zM439 187l-27 -51h27v51zM544 389q-26 -50 -58 -112h103v112h-45zM664 665q0 -36 -113 -261h53
v-142h-126l-24 -47v-89h150v-142h-150v-136h150v-152h-607v147h-150v142h150v136h-150v142h150v136h-150v141h150v134h-150v141h150v149h607v-152h-150v-133h18q10 16 16 23q10 12 22 16q8 2 19 2q36 0 78 -12q57 -16 57 -43z" />
    <glyph glyph-name="Z" unicode="Z" 
d="M142 689v111h-280v-111h280zM141 414v111h-279v-111h279zM589 -279v112h-270v-112h270zM291 -279v112h-279v-112h279zM589 827v112h-270v-112h270zM291 827v112h-279v-112h279zM170 720q12 7 34 7q97 2 220 3h15v70h-269v-80zM124 552q-5 6 -5 17q0 19 24 95h-131v-112
h112zM273 414q39 38 114 111h-218v-111h104zM145 277q41 49 103 112h-236v-112h133zM32 136q37 45 88 110l2 2h-260v-112h170zM40 -1q-23 40 -28 80v-80h28zM141 -42l-55 1q-12 0 -24 11h-200v-112h279v100zM439 -41q-16 -4 -46 -4q-74 0 -224 2v-99h270v101zM498 111
q4 -8 4 -19q0 -13 -9 -51q-4 -15 -12 -42h108v112h-91zM345 248q-16 -18 -29 -35q-32 -41 -66 -77h189v112h-94zM482 389q-38 -37 -111 -112h218v112h-107zM617 557q0 -18 -7 -27q-37 -50 -113 -126h107v-142h-150v-136h150v-142h-130q-7 -14 -20 -20v-116h150v-152h-607
v147h-150v142h150v136h-150v142h150v136h-150v141h150v134h-150v141h150v149h607v-152h-150v-82q62 2 81 -4q31 -9 49 -47h20v-56q13 -49 13 -66z" />
    <glyph glyph-name="bracketleft" unicode="[" horiz-adv-x="662" 
d="M43 -304v1119h1v149h617v-152h-151v-133h150v-142h-150v-133h150v-142h-150v-136h150v-142h-150v-136h150v-152h-617zM645 552v112h-270v-112h270zM495 689v111h-269v-111h269zM645 277v112h-270v-112h270zM495 414v111h-270v-111h270zM347 552v112h-279v-112h279z
M198 689v111h-130v-111h130zM645 -1v112h-270v-112h270zM495 136v112h-270v-112h270zM347 277v112h-279v-112h279zM197 414v111h-129v-111h129zM495 -142v112h-270v-112h270zM347 -1v112h-279v-112h279zM197 136v112h-129v-112h129zM197 -142v112h-129v-112h129zM646 827
v112h-270v-112h270zM348 827v112h-279v-112h279zM645 -279v112h-270v-112h270zM347 -279v112h-279v-112h279z" />
    <glyph glyph-name="backslash" unicode="\" horiz-adv-x="913" 
d="M-153 -157v142h150v136h-150v142h150v136h-150v141h150v134h-150v141h150v149h915v-152h-149v-133h149v-142h-150v-133h150v-142h-150v-136h150v-142h-150v-136h150v-152h-915v147h-150zM897 552v112h-279v-112h279zM748 689v111h-280v-111h280zM897 277v112h-279v-112
h279zM747 414v111h-279v-111h279zM590 552v112h-270v-112h270zM440 689v111h-269v-111h269zM897 -1v112h-279v-112h279zM747 136v112h-279v-112h279zM590 277v112h-270v-112h270zM440 414v111h-270v-111h270zM292 552v112h-279v-112h279zM143 689v111h-281v-111h281z
M747 -142v112h-279v-112h279zM590 -1v112h-270v-112h270zM440 136v112h-270v-112h270zM292 277v112h-279v-112h279zM142 414v111h-280v-111h280zM440 -142v112h-270v-112h270zM292 -1v112h-279v-112h279zM142 136v112h-280v-112h280zM142 -142v112h-280v-112h280zM897 -279
v112h-279v-112h279zM590 -279v112h-270v-112h270zM292 -279v112h-279v-112h279zM897 827v112h-279v-112h279zM590 827v112h-270v-112h270zM292 827v112h-279v-112h279z" />
    <glyph glyph-name="bracketright" unicode="]" horiz-adv-x="658" 
d="M-153 -157v142h150v136h-150v142h150v136h-150v141h150v134h-150v141h150v149h618v-149h1v-141h-1v-978h-618v147h-150zM591 689v111h-123v-111h123zM590 414v111h-122v-111h122zM590 552v112h-270v-112h270zM440 689v111h-269v-111h269zM590 136v112h-122v-112h122z
M590 277v112h-270v-112h270zM440 414v111h-270v-111h270zM292 552v112h-279v-112h279zM143 689v111h-281v-111h281zM590 -142v112h-122v-112h122zM590 -1v112h-270v-112h270zM440 136v112h-270v-112h270zM292 277v112h-279v-112h279zM142 414v111h-280v-111h280zM440 -142
v112h-270v-112h270zM292 -1v112h-279v-112h279zM142 136v112h-280v-112h280zM142 -142v112h-280v-112h280zM590 827v112h-270v-112h270zM292 827v112h-279v-112h279zM590 -279v112h-270v-112h270zM292 -279v112h-279v-112h279z" />
    <glyph glyph-name="asciicircum" unicode="^" horiz-adv-x="3329" 
d="M-153 -157v142h150v136h-150v142h150v136h-150v141h150v134h-150v141h150v149h915v-152h-149v-133h149v-142h-150v-133h150v-142h-150v-136h150v-142h-150v-136h150v-152h-915v147h-150zM897 552v112h-279v-112h279zM748 689v111h-280v-111h280zM897 277v112h-279v-112
h279zM747 414v111h-279v-111h279zM590 552v112h-270v-112h270zM440 689v111h-269v-111h269zM897 -1v112h-279v-112h279zM747 136v112h-279v-112h279zM590 277v112h-270v-112h270zM440 414v111h-270v-111h270zM292 552v112h-279v-112h279zM143 689v111h-281v-111h281z
M747 -142v112h-279v-112h279zM590 -1v112h-270v-112h270zM440 136v112h-270v-112h270zM292 277v112h-279v-112h279zM142 414v111h-280v-111h280zM440 -142v112h-270v-112h270zM292 -1v112h-279v-112h279zM142 136v112h-280v-112h280zM142 -142v112h-280v-112h280zM897 -279
v112h-279v-112h279zM590 -279v112h-270v-112h270zM292 -279v112h-279v-112h279zM897 827v112h-279v-112h279zM590 827v112h-270v-112h270zM292 827v112h-279v-112h279zM757 -157v142h150v136h-150v142h150v136h-150v141h150v134h-150v141h150v149h915v-152h-149v-133h149
v-142h-150v-133h150v-142h-150v-136h150v-142h-150v-136h150v-152h-915v147h-150zM1807 552v112h-279v-112h279zM1658 689v111h-280v-111h280zM1807 277v112h-279v-112h279zM1657 414v111h-279v-111h279zM1500 552v112h-270v-112h270zM1350 689v111h-269v-111h269zM1807 -1
v112h-279v-112h279zM1657 136v112h-279v-112h279zM1500 277v112h-270v-112h270zM1350 414v111h-270v-111h270zM1202 552v112h-279v-112h279zM1053 689v111h-281v-111h281zM1657 -142v112h-279v-112h279zM1500 -1v112h-270v-112h270zM1350 136v112h-270v-112h270zM1202 277
v112h-279v-112h279zM1052 414v111h-280v-111h280zM1350 -142v112h-270v-112h270zM1202 -1v112h-279v-112h279zM1052 136v112h-280v-112h280zM1052 -142v112h-280v-112h280zM1807 -279v112h-279v-112h279zM1500 -279v112h-270v-112h270zM1202 -279v112h-279v-112h279z
M1807 827v112h-279v-112h279zM1500 827v112h-270v-112h270zM1202 827v112h-279v-112h279zM1667 -157v142h150v136h-150v142h150v136h-150v141h150v134h-150v141h150v149h915v-152h-149v-133h149v-142h-150v-133h150v-142h-150v-136h150v-142h-150v-136h150v-152h-915v147
h-150zM2717 552v112h-279v-112h279zM2568 689v111h-280v-111h280zM2717 277v112h-279v-112h279zM2567 414v111h-279v-111h279zM2410 552v112h-270v-112h270zM2260 689v111h-269v-111h269zM2717 -1v112h-279v-112h279zM2567 136v112h-279v-112h279zM2410 277v112h-270v-112
h270zM2260 414v111h-270v-111h270zM2112 552v112h-279v-112h279zM1963 689v111h-281v-111h281zM2567 -142v112h-279v-112h279zM2410 -1v112h-270v-112h270zM2260 136v112h-270v-112h270zM2112 277v112h-279v-112h279zM1962 414v111h-280v-111h280zM2260 -142v112h-270v-112
h270zM2112 -1v112h-279v-112h279zM1962 136v112h-280v-112h280zM1962 -142v112h-280v-112h280zM2717 -279v112h-279v-112h279zM2410 -279v112h-270v-112h270zM2112 -279v112h-279v-112h279zM2717 827v112h-279v-112h279zM2410 827v112h-270v-112h270zM2112 827v112h-279
v-112h279zM2577 -157v142h150v136h-150v142h150v136h-150v141h150v134h-150v141h150v149h607v-152h-150v-133h150v-142h-150v-133h150v-142h-150v-136h150v-142h-150v-136h150v-152h-607v147h-150zM3319 552v112h-270v-112h270zM3169 689v111h-269v-111h269zM3319 277v112
h-270v-112h270zM3169 414v111h-270v-111h270zM3021 552v112h-279v-112h279zM2872 689v111h-280v-111h280zM3319 -1v112h-270v-112h270zM3169 136v112h-270v-112h270zM3021 277v112h-279v-112h279zM2871 414v111h-279v-111h279zM3169 -142v112h-270v-112h270zM3021 -1v112
h-279v-112h279zM2871 136v112h-279v-112h279zM2871 -142v112h-279v-112h279zM3319 -279v112h-270v-112h270zM3021 -279v112h-279v-112h279zM3319 827v112h-270v-112h270zM3021 827v112h-279v-112h279zM3022 566q0 -18 -29 -26q-10 6 -60 89l-3 -62q-5 -5 -14 -5
q-33 0 -33 21q0 10 9 150q-10 -3 -18 -4q-7 3 -7 15q0 28 7 40q27 13 56 13q36 0 58.5 -25t22.5 -59q0 -40 -36 -70q47 -63 47 -77zM2855 777q0 -30 -6 -40q-9 -3 -30 -1l-31 2q-7 0 -14 -2q18 -8 21 -12q1 -3 0 -23q5 0 14 1h13q27 0 27 -18q0 -25 -5 -37q-2 -1 -38 -1
l-15 -1q0 -10 -2 -30h34q18 0 22 -7q1 -4 1 -23q0 -23 -17 -23q-56 0 -72 9t-16 45q0 10 1 29q-12 -1 -12 30q0 29 16 26q1 12 3 35q-14 1 -17 10v20q0 30 23 30l84 -2q16 0 16 -17zM3143 173q0 -20 -16 -20q-14 0 -24 3.5t-11 49.5v57v14q-8 -35 -17 -70q-14 -53 -30 -53
q-33 0 -41 52q-2 38 -5 76q-3 -38 -3 -63q0 -65 -15 -65q-12 0 -26 8q-6 8 -6 17q0 38 6 107q8 82 16 98q7 3 13 3q30 0 40 -27q0 -1 8 -49q7 -43 8 -65q30 139 49 139q33 0 41 -27q3 -10 3 -51q0 -23 5 -67.5t5 -66.5zM2703 764q0 -30 -5.5 -89.5t-5.5 -89.5q0 -2 2 -7
t2 -8q0 -7 -13 -7q-29 0 -40 22q-7 22 -13 44l-23 75q2 -45 2 -84q0 -57 -14 -57q-36 0 -36 25q0 39 5 111q6 93 14 98q39 -4 58 -45q2 -6 20 -73q-2 31 -2 64q0 52 13 52q36 0 36 -31zM2530 762q0 -29 -5.5 -86.5t-5.5 -85.5t-17 -28q-34 0 -34 21q0 45 7 91q-5 -13 -9 -26
q-4 -4 -28 -5q0 -23 -1 -46q-3 -35 -14 -35q-38 0 -38 35q0 8 2 23.5t3 22.5q-13 2 -13 31q0 28 18 32q0 89 18 89q37 0 37 -28q0 6 -7 -64q12 0 33 -1q1 26 2 51q3 41 13 41q39 0 39 -32zM2923 274q0 -41 -12 -75q-18 -49 -53 -49q-40 0 -61 46q-16 34 -16 77q0 38 14 72
q19 46 54 46l7 -2q4 -6 6 -27q19 26 26 26q17 0 28 -50q7 -37 7 -64zM2760 327q0 -27 -27 -27q-12 0 -15 8q0 2 -1 17q0 9 -7 9q-19 0 -19 -77q0 -42 12 -42q6 0 9.5 17.5t15.5 17.5q30 0 30 -19q0 -29 -12 -51q-15 -29 -44 -29q-32 0 -49 46q-12 33 -12 71q0 41 13 75
q19 46 55 46q51 0 51 -62zM2359 683q0 -41 -13 -75q-18 -49 -53 -49q-40 0 -61 46q-15 34 -15 77q0 38 14 73q19 45 53 45l7 -2q4 -5 6 -27q20 26 27 26q17 0 27 -50q8 -37 8 -64zM2196 598q0 -35 -17 -35q-50 0 -65 8q-23 12 -23 53q0 24 12 170q0 4 10 4q12 0 24.5 -5.5
t12.5 -14.5q0 -30 -4 -78q-5 -60 -6 -78h45q11 0 11 -24zM2616 182q0 -28 -22 -28q-18 0 -18 28q0 30 19 30q21 0 21 -30zM2562 340q0 -14 -6 -17.5t-23 -3.5q-15 0 -13 11h-5q-10 0 -10 -10q0 -5 23 -43t23 -67q0 -24 -13.5 -41t-38.5 -17h-13q-32 0 -38 16q-2 6 -2 42
q0 22 16 22l18 -1q7 -5 6 -22h4q13 0 13 10q0 13 -24.5 48t-24.5 57q0 30 21 47t55 17q20 0 27 -8q4 -6 5 -26v-14zM2781 -111q0 -20 -16 -20q-14 0 -24 3.5t-12 49.5q1 28 1 57v14q-9 -35 -17 -70q-14 -53 -30 -53q-33 0 -41 52q-3 38 -5 76q-3 -38 -3 -64q0 -64 -15 -64
q-13 0 -27 8q-5 8 -5 17q0 38 6 106q7 83 16 99q6 3 13 3q30 0 40 -27q0 -1 8 -49q7 -43 8 -65q30 139 49 139q33 0 41 -27q3 -10 3 -52q0 -22 5 -66.5t5 -66.5zM2438 370q0 -31 -5 -39q-7 -3 -24 -2q-24 2 -26 2l-6 -1q10 -4 21 -9q7 -5 7 -20q0 -18 -2.5 -55.5t-2.5 -56.5
q0 -36 -18 -36q-36 0 -36 24q0 25 6 75t6 75l-4 5l-11 -1q-23 0 -28 4t-5 24q0 17 7 25q6 2 13 2h17l74 -2q17 0 17 -14zM1980 681q0 -39 -22 -77q-26 -45 -64 -45q-22 0 -37 22t-15 43q0 15 7 111l-16 -6q-2 4 -5 8q0 35 6 44q9 16 43 16q49 0 78 -37q25 -34 25 -79z
M2285 354q0 -29 -5 -88.5t-5 -89.5q0 -3 1.5 -7.5t1.5 -7.5q0 -7 -12 -7q-30 0 -41 22q-6 22 -13 44l-22 75q2 -45 2 -85q0 -56 -14 -56q-36 0 -36 25q0 39 4 111q6 93 14 97q40 -3 58 -44q3 -6 21 -73q-3 30 -3 64q0 52 14 52q35 0 35 -32zM2561 -11q0 -40 -13 -75
q-17 -48 -52 -48q-41 0 -61 46q-16 34 -16 77q0 38 14 72q19 46 54 46l7 -2q4 -6 5 -27q20 26 27 26q17 0 27 -50q8 -37 8 -65zM1815 598q0 -35 -17 -35q-50 0 -66 8q-23 12 -23 53q0 24 12 170q1 4 11 4q11 0 24 -5.5t13 -14.5q0 -30 -4 -78q-5 -60 -6 -78h45q11 0 11 -24z
M2398 42q0 -26 -27 -26q-12 0 -15 8q0 2 -1 17q0 9 -7 9q-20 0 -20 -78q0 -41 13 -41q6 0 9.5 17.5t15.5 17.5q29 0 29 -19q0 -30 -11 -52q-15 -28 -44 -28q-33 0 -50 46q-12 33 -12 71q0 41 14 75q18 46 55 46q51 0 51 -63zM2114 274q0 -41 -13 -75q-18 -49 -53 -49
q-40 0 -61 46q-15 34 -15 77q0 38 14 72q19 46 53 46l7 -2q4 -6 6 -27q20 26 27 26q17 0 27 -50q8 -37 8 -64zM1679 683q0 -41 -12 -75q-18 -49 -53 -49q-40 0 -61 46q-16 34 -16 77q0 38 14 73q19 45 54 45l7 -2q4 -5 6 -27q20 26 26 26q17 0 28 -50q7 -37 7 -64zM1958 373
q0 -37 -6 -40q-1 -1 -44 -2h-22q19 -9 22 -14t2 -25q4 0 13 1h13q19 0 19 -21q0 -31 -9 -35q-1 -1 -41 -1v-21q1 -61 -14 -61q-38 0 -38 24q0 11 2 30.5t2 28.5q-10 3 -12 12q0 -1 0 18q0 20 17 29l1 35q-6 1 -14 1l-5 6v19q-1 24 18 29q3 1 43 1q53 0 53 -14zM2253 -103
q0 -27 -21 -27q-18 0 -18 28q0 30 19 30q20 0 20 -31zM2195 -95q0 -35 -17 -35q-50 0 -65 8q-24 12 -24 53q0 23 13 169q0 5 10 5q11 0 24 -6t13 -15q0 -29 -4 -77q-5 -60 -6 -78h45q11 0 11 -24zM1522 566q0 -18 -28 -26q-11 6 -60 89l-4 -62q-5 -5 -13 -5q-34 0 -34 21
q0 10 9 150q-10 -3 -18 -4q-7 3 -7 15q0 28 7 40q27 13 56 13q36 0 60 -26q21 -24 21 -58q0 -40 -35 -70q46 -63 46 -77zM1828 340q0 -14 -5.5 -17.5t-22.5 -3.5q-15 0 -14 11h-4q-10 0 -10 -10q0 -5 22.5 -43t22.5 -67q0 -24 -13 -41t-38 -17h-14q-31 0 -37 16q-3 6 -3 42
q0 22 17 22l17 -1q8 -5 6 -22h5q13 0 13 10q0 13 -24.5 48t-24.5 57q0 30 21 47t54 17q21 0 26.5 -7t5.5 -27v-14zM2060 -11q0 -40 -13 -75q-18 -48 -53 -48q-40 0 -61 46q-15 34 -15 77q0 38 14 72q19 46 53 46l7 -2q4 -6 6 -27q20 26 27 26q17 0 27 -50q8 -37 8 -65z
M1349 571q0 -10 -21 -10q-24 0 -30 31q-1 23 -3 47q-6 -25 -25 -21q-3 -16 -5 -31q-6 -25 -14 -25q-10 0 -23.5 7.5t-13.5 15.5q0 6 2.5 16.5t2.5 15.5q-7 2 -7 19q0 30 6 40l15 1q7 33 15 65q15 55 26 55q29 0 39 -13q6 -7 21 -100t15 -113zM1696 272q0 -39 -22 -77
q-26 -45 -64 -45q-22 0 -37 22t-15 43q0 15 6 111l-15 -6q-3 3 -5 8q0 35 5 44q9 16 44 16q48 0 77 -38q26 -33 26 -78zM1893 -122q0 -10 -21 -10q-24 0 -29 30l-4 48q-5 -26 -24 -21l-6 -32q-6 -24 -14 -24q-10 0 -23 7t-13 16q0 6 2 16.5t2 15.5q-7 1 -7 18q0 30 6 41
l15 1q8 32 15 65q15 55 26 55q30 0 40 -13q5 -7 20 -102q15 -91 15 -111zM1194 762q0 -29 -6 -86.5t-6 -85.5t-16 -28q-35 0 -35 21q0 45 7 91q-4 -13 -9 -26q-3 -4 -28 -5q0 -23 -1 -46q-2 -35 -14 -35q-37 0 -37 35q0 8 2 23.5t2 22.5q-13 2 -13 31q0 28 18 32q1 89 18 89
q37 0 37 -28q0 6 -7 -64q13 0 33 -1q1 26 2 51q3 41 14 41q39 0 39 -32zM1531 189q0 -35 -18 -35q-50 0 -65 8q-23 12 -23 53q0 23 12 169q0 5 11 5t24 -5.5t13 -14.5q0 -30 -4 -78q-6 -60 -6 -78h44q12 0 12 -24zM1395 274q0 -41 -13 -75q-17 -49 -52 -49q-41 0 -61 46
q-16 34 -16 77q0 38 14 72q19 46 54 46l7 -2q4 -6 5 -27q20 26 27 26q17 0 27 -50q8 -37 8 -64zM933 599q0 -23 -5.5 -28.5t-30.5 -5.5h-31q-18 0 -31.5 11.5t-13.5 27.5q0 1 30.5 53.5t30.5 75.5q0 13 -10 13q-9 0 -16 -20q-5 -2 -18 -2q-24 0 -24 17q0 24 15.5 41t40.5 17
q30 0 45 -23q13 -19 13 -48q0 -27 -15 -59q-15 -27 -30 -55q7 0 18 1h18q14 0 14 -16zM1237 156q0 -17 -28 -25q-10 6 -60 89l-3 -63q-5 -4 -14 -4q-33 0 -33 21q0 10 9 150q-10 -3 -18 -4q-8 3 -8 15q0 28 8 40q27 13 55 13q37 0 59.5 -25t22.5 -59q0 -40 -36 -71
q46 -62 46 -77zM779 680q0 -35 -12 -70q-17 -47 -47 -47q-40 0 -58 46q-13 33 -13 77q0 42 13 73q17 42 52 42q36 0 53 -45q12 -32 12 -76zM1496 -128q0 -18 -28 -25q-11 6 -61 89l-3 -63q-5 -5 -14 -5q-33 0 -33 22q0 10 9 150q-10 -3 -18 -4q-7 3 -7 15q0 28 7 40
q27 13 56 13q36 0 58.5 -25t22.5 -59q0 -40 -36 -71q47 -62 47 -77zM1064 162q0 -10 -21 -10q-24 0 -29 31q-2 23 -3 47q-6 -25 -25 -21l-6 -32q-6 -24 -14 -24q-10 0 -23 7.5t-13 15.5q0 6 2 16.5t3 15.5q-8 1 -8 18q0 30 7 41l14 1q8 33 16 65q14 55 26 55q29 0 39 -13
q6 -7 21 -102q14 -91 14 -111zM1329 84q0 -30 -6 -40q-9 -3 -30 -2l-31 2q-7 0 -13 -1q18 -8 20 -12q1 -3 0 -23h14q9 1 13 1q27 0 27 -18q0 -25 -5 -37q-2 -1 -38 -2h-15q0 -10 -2 -30h34q18 0 22 -8q2 -3 2 -22q0 -24 -17 -24q-56 0 -72.5 9.5t-16.5 44.5q0 11 1 29
q-12 0 -12 31q0 28 16 26q1 12 3 35q-14 1 -17 10v20q0 30 23 29l84 -1q16 0 16 -17zM613 680q0 -35 -12 -70q-17 -47 -47 -47q-40 0 -59 46q-13 33 -13 77q0 42 13 73q17 42 53 42q35 0 52 -45q13 -32 13 -76zM909 354q0 -29 -5.5 -87t-5.5 -86t-17 -28q-34 0 -34 21
q0 45 7 90q-5 -12 -9 -25q-4 -4 -28 -6q0 -22 -1 -45q-3 -35 -14 -35q-38 0 -38 34q0 9 2 24.5t3 21.5q-13 2 -13 32q0 28 18 32q0 89 18 89q37 0 37 -28q0 6 -7 -64q12 -1 33 -1q1 25 2 51q3 41 13 41q39 0 39 -31zM1177 70q0 -30 -5.5 -89t-5.5 -89q0 -3 2 -7.5t2 -7.5
q0 -7 -13 -7q-29 0 -40 21q-7 23 -13 45l-23 74q2 -45 2 -84q0 -56 -14 -56q-36 0 -36 25q0 39 5 111q6 93 14 97q39 -3 58 -44q2 -7 20 -73q-2 30 -2 63q0 53 13 53q36 0 36 -32zM445 598q0 -22 -5.5 -27.5t-30.5 -5.5h-31q-18 0 -31.5 11.5t-13.5 27.5q0 1 30.5 53.5
t30.5 75.5q0 13 -10 13q-9 0 -16 -20q-5 -2 -18 -2q-24 0 -24 17q0 24 15.5 41t40.5 17q30 0 45 -23q13 -19 13 -48q0 -27 -15 -59q-15 -27 -30 -55q7 0 18 1h19q13 0 13 -17zM1004 68q0 -29 -5.5 -86t-5.5 -85t-17 -28q-34 0 -34 21q0 45 7 90q-5 -12 -9 -25q-4 -4 -28 -6
q0 -22 -1 -45q-3 -35 -14 -35q-38 0 -38 34q0 9 2.5 24.5t2.5 21.5q-13 2 -13 31t18 33q1 89 18 89q37 0 37 -28q0 6 -7 -64q13 -1 33 -1q1 25 2 51q3 41 13 41q39 0 39 -33zM737 182q0 -28 -21 -28q-19 0 -19 28q0 30 19 30q21 0 21 -30zM292 683q-1 -46 -27 -83
q-30 -42 -79 -42t-77 42q-25 36 -24 83q0 47 27 84q30 42 79 42q48 0 77 -42q25 -37 24 -84zM686 368q0 -32 -19 -119q-22 -96 -37 -96q-25 0 -33 14q-3 5 -8 36q-3 25 -10 74q-22 -123 -37 -123q-30 0 -39 27q-3 25 -7 50q0 4 -13 73q-8 44 -8 73q0 10 11 10q24 0 32 -11
q5 -7 8 -33t9 -81q5 34 9 69q9 55 26 55q13 0 27 -6q11 -14 20 -104l1 -14l21 111q3 13 10 13q9 0 23 -6t14 -12zM833 -11q0 -40 -13 -75q-18 -48 -53 -48q-40 0 -61 46q-15 34 -15 77q0 38 14 72q19 46 53 46l7 -2q4 -6 6 -27q20 26 27 26q17 0 27 -50q8 -37 8 -65z
M461 368q0 -32 -20 -119q-21 -96 -36 -96q-26 0 -34 14q-3 5 -8 36q-3 25 -10 74q-22 -123 -36 -123q-31 0 -39 27q-4 25 -7 50q-1 4 -13 73q-8 44 -8 73q0 10 10 10q25 0 33 -11q5 -7 8 -33t9 -81q4 34 8 69q10 55 26 55q13 0 27 -6q12 -14 20 -102l1 -16q7 37 22 111
q2 13 9 13q9 0 23.5 -6t14.5 -12zM670 -95q0 -35 -17 -35q-50 0 -65 8q-23 12 -23 53q0 23 12 169q0 5 10 5q12 0 23 -5q15 -7 15 -16q0 -29 -5 -77q-5 -60 -5 -78h44q11 0 11 -24zM534 68q0 -29 -5.5 -86t-5.5 -85t-17 -28q-34 0 -34 21q0 45 7 90q-5 -12 -9 -25
q-4 -4 -28 -6q-1 -22 -1 -45q-3 -35 -14 -35q-38 0 -38 34q0 9 2 24.5t3 21.5q-14 2 -14 31t18 33q1 89 19 89q37 0 37 -28q0 6 -7 -64q12 -1 33 -1q1 25 1 51q3 41 14 41q39 0 39 -33zM235 368q0 -32 -20 -119q-21 -96 -36 -96q-26 0 -34 14q-2 5 -7 36q-3 25 -10 74
q-23 -123 -37 -123q-30 0 -39 27q-3 25 -7 50q0 4 -13 73q-8 44 -8 73q0 10 10 10q25 0 33 -11q5 -7 8 -33t9 -81q5 34 9 69q9 55 26 55q12 0 27 -6q11 -14 19 -103l2 -15q6 37 21 111q3 13 10 13q9 0 23 -6t14 -12zM2965 714q0 30 -31 30q-7 0 -30 -7q34 -5 34 -24
q0 -4 -1 -13t-1 -13q0 -1 1 -3q11 0 19.5 9.5t8.5 20.5zM2872 277q0 42 -12 68l-2 -13q-27 -24 -27 -69q0 -51 20 -51q10 0 17 28q4 21 4 37zM2308 686q0 42 -13 68l-2 -13q-26 -23 -26 -69q0 -51 19 -51q11 0 17 29q5 20 5 36zM1929 684q0 23 -11 40q-14 20 -38 20
q-5 0 -15 -1q32 -3 32 -31q0 -16 -2 -46t-2 -44q36 9 36 62zM2510 -7q0 42 -13 68l-1 -13q-27 -24 -27 -69q0 -51 20 -51q10 0 17 28q4 21 4 37zM2063 277q0 42 -13 68l-2 -13q-26 -24 -26 -69q0 -51 19 -51q11 0 17 28q5 21 5 37zM1629 686q0 42 -13 68l-2 -13
q-26 -23 -26 -69q0 -51 19 -51q11 0 17 29q5 20 5 36zM1465 714q0 30 -31 30q-7 0 -30 -7q34 -5 34 -24q0 -4 -1 -13t-1 -13q0 -1 1 -3q11 0 19.5 9.5t8.5 20.5zM1292 676q-1 30 -5 52q-1 -9 -6 -52h11zM2009 -7q0 42 -13 68l-2 -13q-26 -24 -26 -69q0 -51 19 -51
q11 0 17 28q5 21 5 37zM1645 275q0 23 -12.5 41.5t-36.5 18.5q-5 0 -16 -1q32 -3 32 -31q0 -16 -2 -46t-2 -44q37 8 37 62zM1837 -17q-2 29 -5 52q-2 -9 -7 -52h12zM1646 8q0 18 -7 18q-13 0 -23 -21q-7 -17 -7 -31q0 -19 7 -19q13 0 22 21q8 18 8 32zM1344 277q0 42 -13 68
l-2 -13q-26 -24 -26 -69q0 -51 19 -51q11 0 18 29q4 20 4 36zM1180 305q0 30 -30 30q-7 0 -30 -7q34 -5 34 -24q0 -4 -1 -13t-1 -14v-2q12 0 20 9.5t8 20.5zM1439 21q0 29 -31 29q-7 0 -30 -6q34 -5 34 -24q0 -4 -1 -13t-1 -14l1 -2q11 0 19.5 9.5t8.5 20.5zM735 698
q0 52 -17 52q-12 0 -18 -31q-5 -22 -5 -40v-18q0 -43 17 -43q12 0 19 35q4 23 4 45zM1008 267q-2 29 -5 52q-2 -9 -7 -52h12zM569 698q0 52 -17 52q-12 0 -19 -31q-5 -22 -5 -40v-18q0 -43 17 -43q12 0 19 35q5 23 5 45zM263 683q1 34 -17 61q-22 31 -56 31q-35 0 -57 -31
q-19 -27 -20 -61q-1 -33 18 -60q21 -32 56 -32t57 32q19 27 19 60zM782 -7q0 42 -13 68l-2 -13q-26 -24 -26 -69q0 -51 19 -51q11 0 17 28q5 21 5 37zM245 695l-36 1q-3 24 -18 24q-19 0 -20 -38q-1 -35 20 -35q14 0 18 23h35q-10 -64 -55 -64q-29 0 -45 26q-14 22 -14 51
q1 29 14 51q16 27 46 27q47 0 55 -66zM1676 -15v0q-2 -15 -2 -21l1 -7q8 0 15 21q5 17 5 28q0 28 -16 52.5t-45 24.5q-34 0 -56 -36q-19 -30 -19 -64q0 -83 71 -83q6 0 6 -8q0 -31 -10 -31q-47 0 -75 44q-24 38 -24 84q0 47 24 86q29 46 77 46q46 0 75 -42q25 -36 25 -80
q0 -26 -10 -50q-14 -30 -39 -30q-17 0 -27 13q-13 -14 -30 -14q-23 0 -35 23q-10 18 -10 40q0 26 13 51q17 31 43 31q44 0 44 -64q0 -8 -1 -14z" />
    <glyph glyph-name="underscore" unicode="_" horiz-adv-x="601" 
d="M-153 -157v142h150v136h-150v142h150v136h-150v141h150v134h-150v141h150v149h607v-152h-150v-133h150v-142h-150v-133h150v-142h-150v-136h150v-142h-150v-136h150v-152h-607v147h-150zM589 552v112h-270v-112h270zM439 689v111h-269v-111h269zM589 277v112h-270v-112
h270zM439 414v111h-270v-111h270zM291 552v112h-279v-112h279zM142 689v111h-280v-111h280zM589 -1v112h-270v-112h270zM439 136v112h-270v-112h270zM291 277v112h-279v-112h279zM141 414v111h-279v-111h279zM439 -142v112h-270v-112h270zM291 -1v112h-279v-112h279z
M141 136v112h-279v-112h279zM141 -142v112h-279v-112h279zM589 -279v112h-270v-112h270zM291 -279v112h-279v-112h279zM589 827v112h-270v-112h270zM291 827v112h-279v-112h279z" />
    <glyph glyph-name="grave" unicode="`" horiz-adv-x="279" 
d="M360 764q0 -15 -13 -25.5t-29 -10.5q-24 0 -109 31q-56 21 -112 43q-18 6 -18 22t34 46.5t52 30.5q24 0 107 -54q88 -56 88 -83z" />
    <glyph glyph-name="a" unicode="a" horiz-adv-x="604" 
d="M142 689v111h-280v-111h280zM141 414v111h-279v-111h279zM589 -279v112h-270v-112h270zM291 -279v112h-279v-112h279zM589 827v112h-270v-112h270zM291 827v112h-279v-112h279zM522 664q4 -11 6 -106v-6h61v112h-67zM308 689q26 36 56 36q20 0 66 -9l9 -2v86h-269v-111
h138zM230 552q36 71 61 112v0h-279v-112h218zM170 426q14 30 47 99h-48zM36 277q12 39 23.5 46.5t64.5 7.5q11 18 29 58h-141v-112h24zM17 136q-9 5 -9 21q0 31 19 91h-165v-112h155zM12 87q4 8 11 24h-11v-24zM141 -42q-10 -6 -19 -6q-30 0 -75 18h-185v-112h279v100z
M225 111q-15 -38 -50 -112h116v112h-66zM344 136q2 36 4 68q-29 -58 -54 -68h50zM342 -1v10q0 54 1 102h-24v-112h23zM439 -52h-19q-51 0 -68 22h-183v-112h270v90zM521 111q-3 -64 -3 -112h71v112h-68zM529 262q-3 -45 -7 -136h82v-142h-86q-2 -31 -64 -35v-101h150v-152
h-607v147h-150v142h150v17q-7 9 -7 18q0 12 7 32v69h-150v142h150v136h-150v141h150v134h-150v141h150v149h607v-152h-150v-101q47 -11 61 -32h89v-142h-76l3 -133h73v-142h-75zM531 375q0 -43 -2 -98h60v112h-58v-14zM334 389l-15 -45v-18h41l7 63h-33zM374 497
q-16 -38 -32 -83h27q5 47 5 83z" />
    <glyph glyph-name="b" unicode="b" horiz-adv-x="606" 
d="M142 689v111h-280v-111h280zM589 -279v112h-270v-112h270zM291 -279v112h-279v-112h279zM589 827v112h-270v-112h270zM291 827v112h-279v-112h279zM548 664q24 -19 41 -42v42h-41zM170 697q19 6 65 18q53 13 118 13q43 0 86 -11v83h-269v-103zM66 552q19 86 44 112h-98
v-112h54zM116 414l25 87q-12 0 -34.5 -8.5t-31.5 -8.5q-17 0 -17 23q0 8 2 18h-198v-111h254zM78 277q14 51 31 112h-97v-112h66zM42 136q9 41 28 112h-208v-112h180zM89 -1l-8 11q-13 18 -23 31q-23 29 -23 49q0 7 2 21h-25v-112h77zM141 -46q-16 5 -28 16h-251v-112h279
v96zM370 -30l-3 -1q-56 -22 -92 -22h-75q-18 0 -31 1v-90h270v112h-69zM535 111q-27 -67 -104 -112h158v112h-54zM576 389q-29 -33 -87 -68q19 -20 33 -44h67v112h-13zM623 518q0 -66 -34 -114h15v-142h-74q19 -38 19 -74q0 -33 -9 -62h64v-142h-150v-136h150v-152h-607v147
h-150v142h150v136h-150v142h150v136h-150v141h150v134h-150v141h150v149h607v-152h-150v-100q40 -12 73 -33h77v-81q19 -37 19 -80zM418 488q0 23 -15 37h-175q71 -8 96 -34l1 -14q1 -18 -16 -63h61q48 32 48 74zM291 334q-11 -21 -22 -57h22v57zM354 193q0 19 -19 33
q-25 17 -28 22h-46q0 -2 -25 -112h89q29 22 29 57z" />
    <glyph glyph-name="c" unicode="c" horiz-adv-x="606" 
d="M589 277v112h-270v-112h270zM142 689v111h-280v-111h280zM141 -142v112h-279v-112h279zM589 -279v112h-270v-112h270zM291 -279v112h-279v-112h279zM589 827v112h-270v-112h270zM291 827v112h-279v-112h279zM582 664q4 -4 7 -9v9h-7zM264 689q65 41 141 41q17 0 34 -2v72
h-269v-111h94zM138 552q41 69 92 112h-218v-112h126zM78 414q19 59 46 111h-262v-111h216zM48 277q8 60 19 99l3 13h-58v-112h36zM51 136q-8 40 -8 84q0 11 2 28h-183v-112h189zM112 -1q-39 42 -56 112h-44v-112h100zM358 -30q-54 -25 -114 -25q-41 0 -75 14v-101h270v112
h-81zM501 111q-37 -69 -95 -112h183v112h-88zM240 248q-5 -33 -5 -52q0 -17 14 -33q15 -20 37 -20q6 0 13 2q29 7 47 44q27 54 31 59h-137zM271 389q-16 -54 -26 -112h46v112h-20zM439 447q-11 9 -14 23q11 42 11 51v4h-102q-29 -33 -55 -111h160v33zM613 581
q0 -76 -27 -108q-29 -36 -104 -36q-16 0 -28 4v-37h150v-142h-89q24 -11 24 -34q0 -21 -13 -60q-8 -22 -18 -42h96v-142h-150v-136h150v-152h-607v147h-150v142h150v136h-150v142h150v136h-150v141h150v134h-150v141h150v149h607v-152h-150v-86q70 -11 112 -47h38v-51
q9 -22 9 -47z" />
    <glyph glyph-name="d" unicode="d" horiz-adv-x="606" 
d="M589 -279v112h-270v-112h270zM291 -279v112h-279v-112h279zM589 827v112h-270v-112h270zM291 827v112h-279v-112h279zM514 664q46 -31 75 -74v74h-75zM170 710q50 15 125 15q78 0 144 -23v98h-269v-90zM125 689q8 5 17 10v101h-280v-111h263zM63 552q12 36 32 98
q2 7 6 14h-89v-112h51zM108 414l32 109q-14 -1 -37 -11t-29 -10q-16 0 -16 17v6h-196v-111h246zM70 277q13 49 31 112h-89v-112h58zM39 136q7 44 24 112h-201v-112h177zM92 -1q-5 6 -10 13l-30 36q-18 24 -18 41q0 10 2 22h-24v-112h80zM141 -43q-10 5 -19 13h-260v-112h279
v99zM325 -30q-66 -30 -116 -30q-22 0 -40 5v-87h270v112h-114zM516 111q-60 -69 -135 -112h208v112h-73zM639 416q0 -154 -110 -290h75v-142h-150v-136h150v-152h-607v147h-150v142h150v136h-150v142h150v136h-150v141h150v134h-150v141h150v149h607v-152h-150v-116
q19 -8 36 -17h114v-114q35 -65 35 -149zM404 277q27 53 30 112h-115v-112h85zM264 248q-7 -33 -21 -98q89 16 144 98h-123zM291 347q-13 -39 -20 -70h20v70zM433 414q-5 74 -65 111h-81q35 -20 35 -50q0 -22 -11 -61h122z" />
    <glyph glyph-name="e" unicode="e" horiz-adv-x="605" 
d="M142 689v111h-280v-111h280zM141 414v111h-279v-111h279zM589 -279v112h-270v-112h270zM291 -279v112h-279v-112h279zM589 827v112h-270v-112h270zM291 827v112h-279v-112h279zM170 705q20 16 71 16h119q33 0 79 -2v81h-269v-95zM120 552v2q-1 7 13 58q4 19 14 52h-135
v-112h108zM169 488q6 23 11 37h-6h-5v-37zM57 277q5 75 37 112h-82v-112h45zM70 136l24 87q-29 0 -36 25h-196v-112h208zM90 -1q-28 35 -28 76q0 17 3 36h-53v-112h78zM141 -41q-11 5 -20 11h-259v-112h279v101zM439 -39q-15 -11 -45 -11h-50q-35 2 -49 2q-44 -4 -126 0v-94
h270v103zM476 111q7 -8 7 -21q0 -25 -20 -91h126v112h-113zM439 225l-80 1l-69 -1q-8 -30 -25 -89h174v89zM544 389q5 -7 5 -16q0 -7 -17 -70l-6 -26h63v112h-45zM284 525q74 -28 74 -48q0 -12 -14 -63h95v111h-155zM630 680q0 -22 -16 -75q-1 -3 -10 -35v-33h-14
q-13 -15 -55 -15q-32 0 -81 3v-114q42 0 65 -7h85v-142h-83q-13 -38 -64 -37h-3v-99h150v-142h-147q-1 -3 -3 -6v-130h150v-152h-607v147h-150v142h150v136h-150v142h150v136h-150v141h150v134h-150v141h150v149h607v-152h-150v-93l26 -1q6 0 26 1t33 1q91 0 91 -40z" />
    <glyph glyph-name="f" unicode="f" horiz-adv-x="606" 
d="M142 689v111h-280v-111h280zM589 -1v112h-270v-112h270zM141 414v111h-279v-111h279zM589 -279v112h-270v-112h270zM291 -279v112h-279v-112h279zM589 827v112h-270v-112h270zM291 827v112h-279v-112h279zM170 695q13 21 37 24q6 1 64 1h66q73 0 102 -1v81h-269v-105z
M128 552q-3 4 -3 10q0 14 29 96l2 6h-144v-112h116zM169 419q1 1 1 2l23 104h-24v-106zM75 277q15 70 35 112h-98v-112h63zM86 136q22 69 26 91q-32 8 -38 21h-212v-112h224zM61 -1q-5 8 -5 17q0 19 23 95h-67v-112h49zM141 -39q-18 4 -34 9h-245v-112h279v103zM230 -30
q-10 -16 -36 -16q-10 0 -25 2v-98h270v112h-209zM274 111q-16 -60 -33 -112h50v112h-17zM439 225l-135 1q-12 -49 -23 -90h158v89zM548 389q2 -4 2 -10q0 -34 -23 -102h62v112h-41zM320 525q51 -20 51 -45q0 -23 -11 -66h79v111h-119zM624 677q0 -7 -8 -41q-4 -16 -12 -49
v-50h-32q-10 -5 -22 -5q-28 0 -96 3v-121q51 0 75 -10h75v-142h-82q-14 -37 -36 -37h-32v-99h150v-142h-150v-136h150v-152h-607v147h-150v142h150v136h-150v142h150v136h-150v141h150v134h-150v141h150v149h607v-152h-150v-93q16 -1 28 -2q38 -2 77 -3q65 -8 65 -37z" />
    <glyph glyph-name="g" unicode="g" horiz-adv-x="606" 
d="M142 689v111h-280v-111h280zM141 -142v112h-279v-112h279zM589 -279v112h-270v-112h270zM291 -279v112h-279v-112h279zM589 827v112h-270v-112h270zM291 827v112h-279v-112h279zM578 664q6 -6 11 -12v12h-11zM264 689q69 38 120 38q28 0 55 -4v77h-269v-111h94zM132 552
q42 70 95 112h-215v-112h120zM73 414q18 60 44 111h-255v-111h211zM45 277q6 56 21 112h-54v-112h33zM49 136q-8 37 -8 76q0 17 1 36h-180v-112h187zM119 -1q-43 42 -64 112h-43v-112h107zM357 -30q-53 -23 -109 -23q-43 0 -79 17v-106h270v112h-82zM507 111
q-36 -68 -98 -112h180v112h-82zM319 357q16 15 82 21q78 8 124 5q21 1 64 -5v11h-270v-32zM224 248q-1 -10 -1 -19q0 -77 30 -93h34q18 8 31.5 27t13.5 38q-10 -4 -14 -4q-38 0 -38 32q0 9 2 19h-58zM254 389q-19 -56 -27 -112h61l3 10v102h-37zM439 450q-26 5 -26 30
q0 5 1.5 18.5t1.5 21.5q0 3 -1 5h-85q-38 -33 -67 -111h176v36zM622 553q0 -47 -13.5 -65t-58.5 -26q-77 -13 -94 -13h-2v-45h150v-32q12 -9 12 -18q0 -6 -11 -55l-1 -6v-31h-7q-13 -44 -56 -44q-6 -47 -26 -92h89v-142h-150v-136h150v-152h-607v147h-150v142h150v136h-150
v142h150v136h-150v141h150v134h-150v141h150v149h607v-152h-150v-91q65 -11 107 -42h43v-50q18 -33 18 -76z" />
    <glyph glyph-name="h" unicode="h" horiz-adv-x="606" 
d="M142 689v111h-280v-111h280zM589 -279v112h-270v-112h270zM291 -279v112h-279v-112h279zM589 827v112h-270v-112h270zM291 827v112h-279v-112h279zM339 525q-10 -36 -34 -108q50 -3 60 -3h52l22 78v33h-100zM365 664q1 -5 1 -11q0 -30 -19 -101h109l13 47q5 21 17 65
h-121zM199 689q19 29 44 29q67 0 104 -29h92v111h-269v-111h29zM149 552l14 41q6 23 23 71h-174v-112h137zM73 414q13 7 41 11q9 43 27 100h-279v-111h211zM13 277q3 22 22 80q8 21 13 32h-36v-112h1zM30 136l24 80q-31 4 -40 32h-152v-112h168zM12 71q4 17 11 40h-11v-40z
M141 -48h-7q-60 0 -98 18h-174v-112h279v94zM219 111q-4 -17 -7 -31q-5 -27 -22 -81h101v112h-72zM381 277q9 30 13 42q-15 -18 -33 -42h20zM338 136q16 55 34 112h-33q-27 -32 -92 -32q-5 -18 -21 -80h112zM319 67q5 20 12 44h-12v-44zM439 -49h-8q-76 0 -108 19h-150
q-2 -2 -4 -5v-107h270v93zM531 111l-7 -22q-8 -30 -26 -90h91v112h-58zM589 311l-10 -34h10v34zM676 641q0 -39 -22 -112q-18 -56 -35 -112l-15 -52v-103h-29q-22 -76 -40 -136h69v-142h-112q-8 -21 -25 -27q-6 -3 -13 -4v-105h150v-152h-607v147h-150v142h150v136h-150v142
h150v136h-150v141h150v134h-150v141h150v149h607v-152h-150v-133h38q17 36 45 36q48 0 86 -15q53 -20 53 -59z" />
    <glyph glyph-name="i" unicode="i" horiz-adv-x="309" 
d="M-155 -157v142h150v1q-14 16 -14 35q0 17 14 74v26h-150v142h150v136h-150v141h150v134h-150v141h150v149h310v-152h-149v-133h13q9 18 16 24q12 8 39 8q143 0 143 -57q0 -33 -67 -250h5v-142h-44l-34 -136h78v-142h-114q-11 -31 -36 -38v-98h150v-152h-310v147h-150z
M163 664h-152v-112h115q21 74 37 112zM141 689v111h-281v-111h281zM80 389h-69v-112h35zM290 277v93l-4 -11q-6 -22 -21 -82h25zM118 525h-258v-111h227l8 25q6 24 23 86zM290 -1v112h-66l-29 -112h95zM38 248h-178v-112h146q13 46 32 112zM290 -279v112h-279v-112h279z
M140 -142v86h-7q-70 0 -116 26h-157v-112h280zM290 827v112h-279v-112h279z" />
    <glyph glyph-name="j" unicode="j" 
d="M289 552v112h-279v-112h279zM140 689v111h-280v-111h280zM139 414v111h-279v-111h279zM587 -279v112h-270v-112h270zM289 -279v112h-279v-112h279zM587 827v112h-270v-112h270zM289 827v112h-279v-112h279zM411 689q12 18 26 26v85h-269v-111h243zM369 552q7 38 29 112
h-81v-112h52zM332 414l31 111h-196v-111h165zM317 359l8 30h-8v-30zM218 248q-6 -22 -13 -45q-7 -27 -7 -46q0 -15 4 -21h39q29 22 50 112h-73zM47 277q8 22 18.5 32t70.5 10q88 0 87 -38v-4h66v112h-279v-112h37zM22 136q3 59 16 112h-178v-112h162zM77 -1q-52 40 -55 112
h-12v-112h67zM139 -31l-4 1h-275v-112h279v111zM328 -30q-37 -15 -83 -15q-42 0 -78 7v-104h270v112h-109zM449 111q-30 -74 -74 -112h212v112h-138zM526 389l-14 -51q-6 -22 -16 -61h91v112h-61zM568 537q-14 -52 -37 -133h71v-142h-109q-21 -91 -38 -136h147v-142h-150
v-136h150v-152h-607v147h-150v142h150v136h-150v142h150v136h-150v141h150v134h-150v141h150v149h607v-152h-150v-91q7 1 14 1q99 0 124 -43h12v-142h-34zM587 612q-6 -25 -15 -60h15v60z" />
    <glyph glyph-name="k" unicode="k" horiz-adv-x="606" 
d="M142 689v111h-280v-111h280zM589 -279v112h-270v-112h270zM291 -279v112h-279v-112h279zM589 827v112h-270v-112h270zM291 827v112h-279v-112h279zM329 525q-21 -64 -30 -88q9 -3 14 -3q18 0 47 24q41 33 71 67h-102zM371 664q-5 -25 -33 -112h115q40 53 61 112h-143z
M180 689q18 39 48 39q33 0 72 -9q49 -11 65 -30h74v111h-269v-111h10zM139 552q17 68 32 112h-159v-112h127zM105 414l2 9q8 26 26 102h-271v-111h243zM67 277l31 112h-86v-112h55zM28 136l31 112h-197v-112h166zM12 79l9 32h-9v-32zM141 -50q-45 4 -94 20h-185v-112h279v92
zM249 136q-16 32 -24 44q-2 -21 -6 -44h30zM291 50q-10 21 -30 61h-47q-9 -43 -29 -112h106v51zM439 -112q-20 -10 -33 -10q-23 0 -74 92h-155l-4 -13q-2 -2 -4 -3v-96h270v30zM474 111q31 -57 58 -112h57v112h-115zM392 248q10 -14 28 -41q10 -16 19 -33v74h-47zM551 389
q-82 -87 -169 -112h207v112h-38zM700 649q0 -30 -63 -142q-31 -55 -73 -103h40v-142h-150v-114l12 -22h138v-142h-65l7 -15q0 -27 -26 -41q-37 -20 -41 -25q-9 0 -25 -8v-47h150v-152h-607v147h-150v142h150v15q-2 3 -2 7q0 6 2 15v99h-150v142h150v136h-150v141h150v134
h-150v141h150v149h607v-152h-150v-133h65q15 38 39 38q33 0 83 -20q59 -22 59 -48z" />
    <glyph glyph-name="l" unicode="l" horiz-adv-x="604" 
d="M589 277v112h-270v-112h270zM142 689v111h-280v-111h280zM589 -279v112h-270v-112h270zM291 -279v112h-279v-112h279zM589 827v112h-270v-112h270zM291 827v112h-279v-112h279zM279 248l-25 -99q20 -1 185 15v84h-160zM355 525q-10 -30 -32 -111h116v111h-84zM395 664
q-3 -37 -30 -112h224v112h-194zM204 689l8 24q13 16 46 16q24 0 65 -11q48 -13 64 -29h52v111h-269v-111h34zM161 552q18 61 35 112h-184v-112h149zM122 414l19 67v44h-279v-111h260zM84 277q7 24 20 71l12 41h-104v-112h72zM50 136q6 45 25 112h-213v-112h188zM88 -1
q-41 42 -41 89q0 11 1 23h-36v-112h76zM141 -38q-5 2 -16 8h-263v-112h279v104zM390 -30q-29 0 -114 -7q-78 -6 -107 -4v-101h270v112h-49zM535 111q-5 -16 -11.5 -42t-24.5 -70h90v112h-54zM540 142q0 -6 -2 -16h66v-142h-120q-12 -8 -30 -10v-126h150v-152h-607v147h-150
v142h150v136h-150v142h150v136h-150v141h150v134h-150v141h150v149h607v-152h-150v-133h150v-142h-150v-133h150v-142h-150v-96q30 2 47 2q39 0 39 -26z" />
    <glyph glyph-name="m" unicode="m" horiz-adv-x="913" 
d="M-155 -157v142h150v136h-150v142h150v136h-150v141h150v134h-150v141h150v149h915v-152h-149v-96q70 -8 100 -37h49v-142h-39q-3 -26 -19 -133h58v-142h-74l-13 -136h87v-142h-110q-13 -24 -40 -31v-105h150v-152h-915v147h-150zM663 664h-47v-75q23 40 47 75zM895 552
v112h-23q5 -11 5 -23q0 -39 -5 -89h23zM746 717v83h-280v-111h215q24 28 51 28h14zM626 277h34q10 49 15 84q-23 -36 -49 -84zM895 277v112h-45q-6 -43 -9 -72l-4 -40h58zM579 525h-113v-111h56q31 62 57 111zM588 552v112h-149q12 -31 16 -112h133zM438 689v111h-269v-111
h54q10 20 17 24q13 9 64 9q91 0 120 -33h14zM626 111h-10v-112v0v7q0 46 10 105zM895 -1v112h-74v-3l-4 -56q-3 -34 -10 -53h88zM654 248h-43q-20 -38 -58 -112h77q4 20 24 112zM509 389h-52q-2 -64 -8 -112h6zM211 664h-200v-112h157q25 71 43 112zM141 689v111h-281v-111
h281zM745 -142v93q-6 -1 -11 -1q-77 0 -101 20h-167v-112h279zM588 -1v112h-48l-1 -3q-16 -37 -56 -109h105zM291 248h-32q-9 -37 -28 -112h51q3 37 9 112zM116 389h-105v-112h73q16 57 32 112zM290 277v78l-23 -78h23zM140 464v61h-280v-111h264q8 26 16 50zM438 -142v101
q-14 -5 -29 -5q-65 0 -92 16h-139q-5 -5 -10 -8v-104h270zM39 111h-28v-112h8q-1 4 -1 9q0 16 21 103zM290 -1v3q-11 24 -11 66q0 20 1 43h-55q-6 -25 -14 -55q-5 -19 -16 -57h95zM76 248h-216v-112h186q13 52 30 112zM140 -142v97q-45 1 -83 15h-197v-112h280zM895 -279
v112h-279v-112h279zM588 -279v112h-270v-112h270zM290 -279v112h-279v-112h279zM895 827v112h-279v-112h279zM588 827v112h-270v-112h270zM290 827v112h-279v-112h279z" />
    <glyph glyph-name="n" unicode="n" horiz-adv-x="597" 
d="M142 689v111h-280v-111h280zM589 -279v112h-270v-112h270zM291 -279v112h-279v-112h279zM589 827v112h-270v-112h270zM291 827v112h-279v-112h279zM396 389q2 -24 6 -62q7 29 15 62h-21zM379 525q8 -45 14 -111h30l16 74v37h-60zM334 664q24 -33 40 -112h79q15 63 27 112
h-146zM170 705q12 18 24 18q49 0 111 -34h134v111h-269v-95zM117 552q19 74 33 112h-138v-112h105zM82 414l29 111h-249v-111h220zM48 277l28 112h-64v-112h36zM9 136q10 38 31 112h-178v-112h147zM141 -39q-11 -7 -26 -7q-51 0 -91 16h-162v-112h279v103zM198 111
q-15 -60 -32 -112h125v112h-93zM270 277q-4 37 -13 112h-9q-9 -66 -17 -112h39zM289 136q-6 37 -16 112h-47q-11 -61 -22 -112h85zM439 -46q-59 0 -90 16h-180v-112h270v96zM522 111q-28 -82 -28 -95q0 -6 3 -17h92v112h-67zM589 341q-8 -30 -18 -64h18v64zM657 649
q0 -53 -53 -253v-134h-37q-15 -51 -38 -131l-2 -5h77v-142h-104q1 -2 1 -3q0 -24 -47 -26v-107h150v-152h-607v147h-150v142h150v2q-13 12 -13 29q0 16 13 71v34h-150v142h150v136h-150v141h150v134h-150v141h150v149h607v-152h-150v-133h30l5 16q6 24 41 24q40 0 78 -16
q49 -20 49 -54z" />
    <glyph glyph-name="o" unicode="o" horiz-adv-x="604" 
d="M142 689v111h-280v-111h280zM141 -142v112h-279v-112h279zM589 -279v112h-270v-112h270zM291 -279v112h-279v-112h279zM589 827v112h-270v-112h270zM291 827v112h-279v-112h279zM432 664q-1 -16 -1 -24q8 7 27 24h-26zM260 689q11 7 23 13q67 33 115 33q37 0 37 -29
q0 -8 -1 -17h5v111h-269v-111h90zM130 552q41 68 94 112h-212v-112h118zM70 414q18 60 45 111h-253v-111h208zM43 277q5 56 20 112h-51v-112h31zM50 136q-9 41 -9 85v27h-179v-112h188zM126 -1q-47 43 -69 112h-45v-112h114zM385 -30q-52 -28 -105 -28q-62 0 -111 26v-110
h270v112h-54zM531 111q-40 -63 -103 -112h161v112h-58zM634 496q0 -109 -30 -217v-17h-5q-23 -76 -59 -136h64v-142h-150v-136h150v-152h-607v147h-150v142h150v136h-150v142h150v136h-150v141h150v134h-150v141h150v149h607v-152h-150v-133h22q56 47 78 47q45 0 66 -95
q14 -61 14 -135zM395 277q19 49 28 112h-104v-112h76zM237 248v-14q0 -88 54 -88q36 0 79 77q7 12 13 25h-146zM268 389q-23 -53 -29 -112h52v112h-23zM423 552q-5 18 -11 32q-3 -15 -11 -32h22zM431 474q1 23 -3 51h-54q-59 -45 -94 -111h146z" />
    <glyph glyph-name="p" unicode="p" horiz-adv-x="606" 
d="M142 689v111h-280v-111h280zM589 -1v112h-270v-112h270zM589 -279v112h-270v-112h270zM291 -279v112h-279v-112h279zM589 827v112h-270v-112h270zM291 827v112h-279v-112h279zM558 664q17 -14 31 -30v30h-31zM170 693q55 31 214 31q28 0 55 -6v82h-269v-107zM91 552
q9 73 43 112h-122v-112h79zM141 468h-10q-14 0 -27 6q-16 9 -16 21q0 16 1 30h-227v-111h279v54zM169 418q10 41 18 75q-8 -10 -18 -16v-59zM132 277l29 112h-149v-112h120zM95 136q0 3 29 112h-262v-112h233zM66 -1q-1 2 -1 5q0 26 23 107h-76v-112h54zM141 -46
q-29 6 -48 16h-231v-112h279v96zM238 -30v-2q-6 -19 -54 -19q-6 0 -15 1v-92h270v112h-201zM272 111q-8 -39 -25 -112h44v112h-19zM439 186q-61 -24 -85 -24q-34 0 -34 86h-15q-13 -40 -28 -112h162v50zM589 319q-14 -22 -30 -42h30v42zM642 488q0 -70 -38 -143v-83h-58
q-42 -45 -92 -69v-67h150v-142h-150v-136h150v-152h-607v147h-150v142h150v136h-150v142h150v136h-150v141h150v134h-150v141h150v149h607v-152h-150v-97q46 -11 83 -36h67v-65q38 -56 38 -126zM350 389q-7 -23 -11 -33q39 5 71 33h-60zM439 499q-11 17 -34 26h-122l-25 -5
q107 -23 107 -65q0 -11 -8 -41h75q4 6 7 13v72z" />
    <glyph glyph-name="q" unicode="q" 
d="M140 689v111h-280v-111h280zM139 -142v112h-279v-112h279zM587 -279v112h-270v-112h270zM289 -279v112h-279v-112h279zM587 827v112h-270v-112h270zM289 827v112h-279v-112h279zM442 664q-6 -20 -11 -28h15q9 9 30 28h-34zM263 689q70 44 149 44q16 0 25 -5v72h-269v-111
h95zM135 552q41 68 94 112h-219v-112h125zM72 414q19 59 47 111h-259v-111h212zM42 277q6 56 22 112h-54v-112h32zM47 136q-9 39 -9 80q0 15 1 32h-179v-112h187zM119 -1q-44 43 -65 112h-44v-112h109zM369 -142q-17 8 -43 39q-18 24 -36 47q-29 -1 -34 -1q-48 0 -89 21
v-106h202zM437 -116q-27 -19 -44 -26h44v26zM519 111q-25 -33 -55 -63q24 -28 37 -49h86v112h-68zM643 516q0 -138 -41 -251v-3h-1q-27 -73 -71 -136h72v-142h-92q5 -12 5 -19q0 -21 -63 -70v-47h150v-152h-607v147h-150v142h150v136h-150v142h150v136h-150v141h150v134
h-150v141h150v149h607v-152h-150v-133h42q49 40 76 40q42 0 61 -84q12 -53 12 -119zM396 277q21 52 31 112h-110v-112h79zM235 248v-14l2 -36t10 -33q8 -4 13 -4q13 0 29.5 27t31.5 27q22 0 35 -14q15 23 27 47h-148zM273 389q-27 -57 -35 -112h51v112h-16zM433 552
q-2 15 -5 31q-10 -16 -16 -31h21zM436 500q0 12 -1 25h-52q-55 -35 -97 -111h145q5 41 5 86z" />
    <glyph glyph-name="r" unicode="r" horiz-adv-x="604" 
d="M589 -279v112h-270v-112h270zM291 -279v112h-279v-112h279zM589 827v112h-270v-112h270zM291 827v112h-279v-112h279zM553 664q21 -17 36 -38v38h-36zM170 701l7 1q107 27 176 27q44 0 86 -10v81h-269v-99zM129 689q5 2 13 5v106h-280v-111h267zM66 552q4 27 15 58
q7 21 20 54h-89v-112h54zM131 414l10 35v64q-37 -10 -54 -10q-20 0 -22 22h-203v-111h269zM93 277q14 51 31 112h-112v-112h81zM55 136q12 48 30 112h-223v-112h193zM28 -1q-1 3 -1 5q0 20 22 107h-37v-112h16zM141 -48q-56 2 -87 18h-192v-112h279v94zM243 111l-29 -112h77
v112h-48zM279 136l-20 38l-10 -38h30zM353 -1q-16 28 -34 61v-61h34zM439 -119q-19 7 -69 89h-164v-2q-4 -14 -37 -16v-94h270v23zM502 111q41 -72 59 -112h28v112h-87zM589 355q-26 -41 -71 -78h71v78zM629 500q0 -65 -25 -118v-120h-104q-21 -15 -46 -32v-39
q18 -29 39 -65h111v-142h-37q5 -13 5 -19q0 -22 -45 -50q-39 -25 -73 -33v-34h150v-152h-607v147h-150v142h150v136h-150v142h150v136h-150v141h150v134h-150v141h150v149h607v-152h-150v-97q44 -13 79 -36h71v-76q25 -46 25 -103zM319 356q40 4 75 33h-75v-33zM439 485
q-4 23 -23 40h-160q77 -15 77 -52q0 -14 -12 -59h98q16 21 20 44v27z" />
    <glyph glyph-name="s" unicode="s" horiz-adv-x="606" 
d="M142 689v111h-280v-111h280zM141 414v111h-279v-111h279zM589 -279v112h-270v-112h270zM291 -279v112h-279v-112h279zM589 827v112h-270v-112h270zM291 827v112h-279v-112h279zM318 689q55 22 121 31v80h-269v-111h148zM170 552q29 68 100 112h-258v-112h158zM279 277
q-31 37 -88 112h-179v-112h267zM169 211q47 -2 47 -28q0 -23 -6 -46q1 -1 5 -1h54q57 8 57 43q0 30 -26 69h-131v-37zM52 136l1 3q11 45 20 56q15 18 56 16q4 -1 12 0v37h-279v-112h190zM35 -1q-2 12 -2 36q0 25 13 76h-34v-112h23zM141 -51q-34 2 -48 4q-32 5 -44 17h-187
v-112h279v91zM360 -30q-61 -24 -138 -24q-27 0 -53 1v-89h270v112h-79zM502 111q-24 -70 -86 -112h173v112h-87zM423 389q53 -68 73 -112h93v112h-166zM386 525q-28 -13 -28 -32q0 -20 46 -79h35v111h-53zM653 666q0 -22 -16 -93q-12 -56 -37 -68q-16 -8 -88 -8
q-48 0 -48 21q0 4 4 17h-14v-131h150v-142h-101q12 -33 12 -62q0 -40 -9 -74h98v-142h-150v-136h150v-152h-607v147h-150v142h150v136h-150v142h150v136h-150v141h150v134h-150v141h150v149h607v-152h-150v-90q41 5 87 5q53 0 73 -7q39 -12 39 -54z" />
    <glyph glyph-name="t" unicode="t" horiz-adv-x="606" 
d="M141 414v111h-279v-111h279zM141 136v112h-279v-112h279zM141 -142v112h-279v-112h279zM589 -279v112h-270v-112h270zM291 -279v112h-279v-112h279zM589 827v112h-270v-112h270zM291 827v112h-279v-112h279zM170 718q10 1 36 1h98q60 0 135 -1v82h-269v-82zM131 689
q5 10 11 16v95h-280v-111h269zM115 552q-11 10 -11 26q0 35 17 86h-109v-112h103zM274 414q5 16 11 33.5t13 37.5q9 24 9 39v1h-138v-111h105zM236 277q17 67 31 112h-255v-112h224zM197 136q7 21 31 112h-59v-112h28zM162 -1v5q0 36 26 107h-176v-112h150zM346 -30
q-19 -19 -55 -19q-68 0 -104 19h-18v-112h270v112h-93zM390 111q-8 -40 -27 -112h226v112h-199zM427 248q-3 -9 -5 -14q-14 -53 -26 -98h43v112h-12zM468 389q-10 -40 -33 -112h154v112h-121zM416 525q14 -4 23 -8v8h-23zM683 682q0 -15 -15 -64q-19 -66 -22 -70
q-12 -16 -64 -16q-19 0 -61 2q-50 2 -67 3v-27q28 -16 28 -40q0 -21 -10 -66h132v-142h-150v-136h150v-142h-150v-136h150v-152h-607v147h-150v142h150v136h-150v142h150v136h-150v141h150v134h-150v141h150v149h607v-152h-150v-94q48 -1 88 -2q2 0 18 1h30q93 0 93 -35z
" />
    <glyph glyph-name="u" unicode="u" horiz-adv-x="605" 
d="M142 689v111h-280v-111h280zM141 -142v112h-279v-112h279zM589 -279v112h-270v-112h270zM291 -279v112h-279v-112h279zM589 827v112h-270v-112h270zM291 827v112h-279v-112h279zM369 277q14 46 30 112h-80v-112h50zM240 248q-6 -33 -6 -51q0 -19 12.5 -32.5t30.5 -13.5
q8 0 24 2q27 4 58 95h-119zM273 389q-18 -67 -28 -112h46v112h-18zM311 525q-10 -35 -32 -111h126l10 43l17 68h-121zM345 664q-1 -23 -24 -104l-2 -6v-2h120q9 38 30 112h-124zM170 704q16 10 65 10q75 0 101 -25h103v111h-269v-96zM117 552l18 69q4 16 11 43h-134v-112
h105zM82 414l28 111h-248v-111h220zM47 277q2 10 26 100l3 12h-64v-112h35zM37 136q-3 19 -3 39q0 32 8 73h-180v-112h175zM115 -1q-55 43 -73 112h-30v-112h103zM383 -30q-45 -24 -100 -24q-63 0 -114 21v-109h270v112h-56zM507 111q-35 -72 -82 -112h164v112h-82zM589 369
q-7 -30 -23 -92h23v92zM660 670q0 -38 -24 -128l-38 -138h6v-142h-43q-22 -81 -47 -136h90v-142h-150v-136h150v-152h-607v147h-150v142h150v136h-150v142h150v136h-150v141h150v134h-150v141h150v149h607v-152h-150v-133h20q18 44 60 44q126 0 126 -53z" />
    <glyph glyph-name="v" unicode="v" 
d="M139 -142v112h-279v-112h279zM587 -279v112h-270v-112h270zM289 -279v112h-279v-112h279zM587 827v112h-270v-112h270zM289 827v112h-279v-112h279zM400 552q25 62 45 112h-128v-112h83zM317 344q10 23 17 39l2 6h-19v-45zM289 338q-6 -37 -5 -61h3l2 4v57zM299 525
q-2 -54 -5 -111h52l43 111h-90zM168 720q84 -2 113 -31h156v111h-269v-80zM115 689q6 23 25 28v83h-280v-111h255zM112 552v82v30h-102v-112h102zM113 414l-1 111h-252v-111h253zM114 277v72v40h-104v-112h104zM116 136q-2 49 -2 112h-254v-112h256zM127 -1q-7 24 -10 112
h-107v-112h117zM297 -30q-20 -25 -40 -25q-28 0 -89 25h-1v-112h270v112h-140zM385 111q-41 -72 -68 -112h270v112h-202zM437 204q-19 -35 -38 -68h38v68zM534 389q-27 -53 -58 -112h111v112h-53zM637 662q0 -35 -35 -123v-2h-1q-23 -57 -60 -133h61v-142h-134l-16 -31v-105
h150v-142h-150v-136h150v-152h-607v147h-150v142h150v136h-150v142h150v136h-150v141h150v134h-150v141h150v149h607v-152h-150v-131q16 36 50 36q40 0 80 -11q55 -16 55 -44z" />
    <glyph glyph-name="w" unicode="w" horiz-adv-x="913" 
d="M141 689v111h-281v-111h281zM140 414v111h-280v-111h280zM140 -142v112h-280v-112h280zM895 -279v112h-279v-112h279zM588 -279v112h-270v-112h270zM290 -279v112h-279v-112h279zM895 827v112h-279v-112h279zM588 827v112h-270v-112h270zM290 827v112h-279v-112h279z
M656 389q0 -41 -2 -78q14 25 36 78h-34zM654 525l2 -111h45q13 31 44 108v3h-91zM655 664q-1 -26 -1 -95v-17h102q32 78 47 112h-148zM481 689q23 29 61 29q12 0 52 -7q37 -8 50 -22h102v111h-280v-111h15zM318 389v-18v-72q14 36 36 90h-36zM322 525q-1 -55 -3 -111h45
l45 111h-87zM322 664q1 -8 1 -17v-95h97l30 75q5 12 16 37h-144zM169 717q10 6 26 6q8 0 47 -8q35 -7 42 -9q19 -6 28 -17h126v111h-269v-83zM142 552l1 67q-1 15 0 45h-132v-112h131zM139 277l1 112h-129v-112h128zM138 136v73l1 39h-279v-112h278zM146 -1q-5 13 -8 97v15
h-127v-112h135zM305 -30q-17 -17 -33 -17q-8 0 -41 5.5t-50 11.5h-13v-112h270v112h-133zM438 228q-24 -50 -37 -80q-2 -4 -5 -12h42v92zM495 277q2 51 3 83q-15 -34 -37 -83h34zM490 136v5q0 39 3 107h-27v-112h24zM497 -1q-9 23 -7 112h-104q-31 -73 -57 -112h168z
M671 -30q-19 -21 -48 -21q-75 0 -104 21h-53v-112h279v112h-74zM749 111l-39 -78q-11 -21 -18 -34h203v112h-146zM881 389q-23 -52 -52 -112h66v112h-14zM985 658q0 -41 -97 -254h22v-142h-88q-30 -62 -62 -129v-7h150v-142h-150v-136h150v-152h-915v147h-150v142h150v136
h-150v142h150v136h-150v141h150v134h-150v141h150v149h915v-152h-149v-133h50q19 39 45 39q33 0 76 -15q53 -19 53 -45z" />
    <glyph glyph-name="x" unicode="x" horiz-adv-x="604" 
d="M589 -279v112h-270v-112h270zM291 -279v112h-279v-112h279zM589 827v112h-270v-112h270zM291 827v112h-279v-112h279zM339 552q18 38 59 112h-79v-112h20zM170 718q14 -3 41 -7q37 -5 46 -8q16 -4 24 -14h136q11 14 22 21v90h-269v-82zM96 689q6 27 46 29v82h-280v-111
h234zM121 552q-23 71 -26 112h-83v-112h109zM141 495q-6 16 -11 30h-268v-111h279v81zM166 277q26 42 33 57q-5 20 -18 55h-169v-112h154zM80 136q16 26 61 100v12h-279v-112h218zM12 13q11 27 53 98h-53v-98zM141 -50h-3q-58 -1 -103 20h-173v-112h279v92zM291 103l-2 8
h-18q-19 -51 -54 -112h74v104zM439 -51q-60 0 -86 21h-158q-12 -11 -26 -16v-96h270v91zM484 111q32 -85 36 -112h69v112h-105zM429 248l10 -25v25h-10zM450 389l-45 -73q4 -14 13 -39h171v112h-139zM539 537q-31 -53 -80 -133h145v-142h-150v-76l24 -60h126v-142h-84
q-6 -31 -66 -34v-102h150v-152h-607v147h-150v142h150v136h-150v142h150v136h-150v141h150v134h-150v141h150v149h607v-152h-150v-95h7q32 0 71 -9q50 -11 63 -29h9v-142h-65zM589 632q-13 -29 -42 -80h42v80z" />
    <glyph glyph-name="y" unicode="y" 
d="M139 414v111h-279v-111h279zM139 136v112h-279v-112h279zM139 -142v112h-279v-112h279zM587 -279v112h-270v-112h270zM289 -279v112h-279v-112h279zM587 827v112h-270v-112h270zM289 827v112h-279v-112h279zM341 525l21 -83q9 23 34 83h-55zM317 623q5 -16 7 -30l10 -41
h74q31 72 53 112h-144v-41zM168 723q26 -4 70 -10q25 -4 44 -24h155v111h-269v-77zM104 689q1 35 36 36v75h-280v-111h244zM145 552q-16 38 -39 112h-96v-112h135zM184 414q-10 32 -17 54v-54h17zM227 277q-9 36 -35 112h-182v-112h217zM195 136q19 37 44 86q-2 12 -5 26
h-67v-112h28zM141 -1q-1 3 -1 7q0 17 43 105h-173v-112h131zM323 -30q-22 -23 -48 -23q-41 0 -95 23h-13v-112h270v112h-114zM397 111l-4 -8q-17 -34 -53 -104h247v112h-190zM437 187l-27 -51h27v51zM542 389q-26 -50 -58 -112h103v112h-45zM662 665q0 -36 -113 -261h53
v-142h-126l-24 -47v-89h150v-142h-150v-136h150v-152h-607v147h-150v142h150v136h-150v142h150v136h-150v141h150v134h-150v141h150v149h607v-152h-150v-133h18q10 16 16 23q10 12 22 16q8 2 19 2q36 0 78 -12q57 -16 57 -43z" />
    <glyph glyph-name="z" unicode="z" 
d="M140 689v111h-280v-111h280zM139 414v111h-279v-111h279zM587 -279v112h-270v-112h270zM289 -279v112h-279v-112h279zM587 827v112h-270v-112h270zM289 827v112h-279v-112h279zM168 720q12 7 34 7q97 2 220 3h15v70h-269v-80zM122 552q-5 6 -5 17q0 19 24 95h-131v-112
h112zM271 414q39 38 114 111h-218v-111h104zM143 277q41 49 103 112h-236v-112h133zM30 136q37 45 88 110l2 2h-260v-112h170zM38 -1q-23 40 -28 80v-80h28zM139 -42l-55 1q-12 0 -24 11h-200v-112h279v100zM437 -41q-16 -4 -46 -4q-74 0 -224 2v-99h270v101zM496 111
q4 -8 4 -19q0 -13 -9 -51q-4 -15 -12 -42h108v112h-91zM343 248q-16 -18 -29 -35q-32 -41 -66 -77h189v112h-94zM480 389q-38 -37 -111 -112h218v112h-107zM615 557q0 -18 -7 -27q-37 -50 -113 -126h107v-142h-150v-136h150v-142h-130q-7 -14 -20 -20v-116h150v-152h-607
v147h-150v142h150v136h-150v142h150v136h-150v141h150v134h-150v141h150v149h607v-152h-150v-82q62 2 81 -4q31 -9 49 -47h20v-56q13 -49 13 -66z" />
    <glyph glyph-name="braceleft" unicode="{" horiz-adv-x="364" 
d="M43 -304v1268h319v-152h-150v-133h150v-142h-150v-133h150v-142h-150v-136h150v-142h-150v-136h150v-152h-319zM347 552v112h-279v-112h279zM347 277v112h-279v-112h279zM197 414v111h-129v-111h129zM347 -1v112h-279v-112h279zM197 136v112h-129v-112h129zM197 -142v112
h-129v-112h129zM347 -279v112h-279v-112h279zM347 827v112h-279v-112h279zM197 689v111h-129v-111h129z" />
    <glyph glyph-name="bar" unicode="|" horiz-adv-x="309" 
d="M-153 -157v142h150v136h-150v142h150v136h-150v141h150v134h-150v141h150v149h310v-152h-149v-133h149v-142h-150v-133h150v-142h-150v-136h150v-142h-150v-136h150v-152h-310v147h-150zM292 552v112h-279v-112h279zM143 689v111h-281v-111h281zM292 277v112h-279v-112
h279zM142 414v111h-280v-111h280zM292 -1v112h-279v-112h279zM142 136v112h-280v-112h280zM292 -279v112h-279v-112h279zM142 -142v112h-280v-112h280zM292 827v112h-279v-112h279z" />
    <glyph glyph-name="braceright" unicode="}" horiz-adv-x="507" 
d="M-153 -157v142h150v136h-150v142h150v136h-150v141h150v134h-150v141h150v149h468v-1268h-468v147h-150zM440 552v112h-120v-112h120zM440 689v111h-269v-111h269zM440 277v112h-120v-112h120zM440 414v111h-270v-111h270zM292 552v112h-279v-112h279zM143 689v111h-281
v-111h281zM440 -1v112h-120v-112h120zM440 136v112h-270v-112h270zM292 277v112h-279v-112h279zM142 414v111h-280v-111h280zM440 -142v112h-270v-112h270zM292 -1v112h-279v-112h279zM142 136v112h-280v-112h280zM142 -142v112h-280v-112h280zM440 827v112h-120v-112h120z
M292 827v112h-279v-112h279zM440 -279v112h-120v-112h120zM292 -279v112h-279v-112h279z" />
    <glyph glyph-name="asciitilde" unicode="~" horiz-adv-x="905" 
d="M668 830l-8 -9q-47 40 -99 45q-61 43 -156 58l2 12q93 -15 158 -58q54 -6 103 -48zM719 778l-7 -10q-151 102 -367 143l3 12q215 -42 371 -145zM766 719l-7 -10q-92 66 -210 116q-132 57 -228 63v12q102 -6 233 -63q110 -48 212 -118zM794 673l-7 -9q-106 78 -245 136
q-155 64 -271 67v12q123 -3 275 -67q132 -55 248 -139zM821 599l-5 -10q-20 9 -92 69l-24 3q-34 32 -122 69q-73 32 -135 48q-136 36 -237 36v12q117 0 240 -36q192 -57 259 -118h4q-26 29 -87 63q-138 75 -369 111l2 11q311 -47 446 -161q9 -10 28 -27l33 -4q17 -8 47 -28
l-7 -9q-13 10 -43 26l-13 1q24 -21 75 -56zM820 547l-5 -10q-26 12 -74 44q-31 29 -111 72q-147 78 -338 109l2 12q193 -32 342 -111q30 -16 92 -59q58 -40 92 -57zM843 554l-8 -9q-123 104 -296 173q-185 75 -334 70v12h12q198 5 428 -117q116 -62 198 -129zM848 446l-9 -7
q-44 56 -100 105h-2l-2 3q-187 163 -366 166l-1 -3l-4 3v0q-16 16 -64 12l-1 12q12 1 24 0q-16 6 -28 3l-3 12q5 1 10 1q27 1 66 -28q183 0 373 -167h4q35 1 82 -47l-8 -9q-40 40 -66 45q58 -53 95 -101zM855 396l-10 -7q-88 131 -234 220q-158 95 -305 91v11l6 1
q201 4 390 -152q94 -79 153 -164zM855 263l-12 -4l-9 29l11 4zM850 372l-10 -7q-154 202 -279 254q150 -82 281 -281l-10 -7q-62 96 -147 178q-101 97 -190 126l1 1q-87 36 -182 38l1 12q100 -3 189 -41q37 0 91 -29q117 -64 255 -244zM833 191l-11 -4l-9 32l11 3zM274 748
q-10 -8 -21 -8q-8 0 -21 5l-1 -1l-3 2l-41 -10l-3 12l42 10q6 6 13 11l-55 -8l-2 12l58 8l2 -10q9 5 23 9l3 -11q-19 -6 -28 -14q10 -3 16 -3q4 0 10 5zM839 308l-10 -7q-162 244 -341 310q-26 8 -76 24.5t-89 15.5q-60 -1 -119 -27q-37 -17 -107 -62l-7 10q118 76 157 81
q25 5 76 10q41 1 92 -16q66 -21 89 -30q49 -19 84 -41q125 -80 251 -268zM283 732l-2 -12q-20 3 -40 3q-43 -1 -78 -18l-5 11q36 18 85 18q21 1 40 -2zM297 710l-2 -12q-13 3 -27 3q-50 -1 -119 -26l-4 12q71 25 121 25q17 1 31 -2zM833 260l-11 -4q-22 73 -51 92
q44 -78 50 -124l-11 -2q-8 49 -56 130v0q-2 4 -5 9h1q-44 79 -120 143t-161 93q-17 6 -66 16q-8 3 -24 8q-30 8 -62 7q-90 -2 -171 -70l-1 -1v0l-13 -11l-8 8l7 7q-19 -2 -40 -37l-10 6q24 43 51 43q6 0 11 -2q83 67 174 69q34 1 65 -8q8 -3 24 -7q28 -6 84 -22
q174 -65 271 -238q41 -3 72 -105zM310 681l-45 -9q-8 -19 -35 -20q-22 0 -47 -15l-6 11q27 16 59 16q12 0 17 10q-8 5 -20 4q-34 0 -92 -35l-6 10q59 35 98 36q18 0 29 -6l45 10zM178 631q-18 0 -45 -23l-8 9q30 26 46 26h6zM778 32q-16 -37 -32 -50l-7 9q-22 -31 -64 -55
l-6 11q68 37 79 94l12 -3q-5 -23 -19 -44q11 8 26 42zM700 36q-32 -44 -64 -45q-36 -1 -69 53q-14 25 -44 77q-41 71 -108 183l-3 6l10 6l3 -6q64 -107 106 -178q15 -28 47 -83q29 -46 56 -46q27 1 56 41zM750 -24q-24 -35 -50 -44l-4 11q22 8 44 40zM822 167l-12 -2
q-5 39 -26 66q-31 140 -156 253q-42 37 -112 70q-65 30 -124 43q-42 8 -72 8q-67 -1 -134 -54q-13 -23 -35 -40q5 3 13 5q28 34 62 44q29 29 91 30q73 2 156 -30q156 -59 236 -180q48 -75 67 -142q38 -52 41 -129l-11 -1q-3 47 -20 88q9 -45 10 -80q0 -40 -11 -62l-10 5
q9 20 9 56q-1 41 -15 101q-15 64 -33 95q-26 44 -39 65q-24 35 -47 59q-65 69 -182 114q-80 31 -152 30q-55 -1 -82 -28q37 20 86 21q88 1 183 -52q2 1 4 1q35 0 108.5 -60t129.5 -191q27 -65 29 -148q0 -34 -5 -66l-12 2q5 30 4 70q-1 106 -66 215q-67 113 -160 158
q84 -58 143.5 -155t73.5 -198l2 -2l-2 -1q3 -18 3 -34q1 -67 -39 -114q-23 -27 -34 -38q-20 -18 -42 -27q-32 -36 -68 -36q-55 -1 -104 70q-33 47 -76 151t-58 126q8 -73 83 -220q71 -137 156 -135q51 1 106 50l8 -9q-24 -22 -46 -34q39 16 85 41l6 -10q-119 -67 -189 -68
q-12 0 -19 2q-10 -3 -20 -3q-59 -1 -105.5 64.5t-56.5 79.5q-30 46 -45 85v5q0 17 -10 32q11 -72 47 -128q54 -87 72 -105q46 -47 116 -46q10 0 30.5 0.5t53.5 17.5q49 25 110 44l6 1l3 -11l-6 -2q-60 -18 -107 -43q-35 -18 -61 -19q-10 1 -29 0q-97 -1 -163 101
q-77 118 -85 203l-3 2l2 3q-25 75 -26 136q-1 39 9 70l11 -4q-9 -28 -8 -65q1 -59 26 -135q26 -21 24 -55q34 -86 108 -171q43 -49 87 -48q10 0 20 3q7 -2 19 -2q19 0 42 6h-10q-100 -2 -169 143q-80 170 -84 225q-1 8 -2 24h2q-4 17 -4 34q-2 71 48 84q15 1 45 9
q-15 7 -28 6q-17 0 -33 -13l-8 10q20 15 43 16q14 0 37 -11q46 -22 78 -56q24 -25 57 -78q12 -19 51 -102q18 -36 51 -109q4 -8 5 -19q2 6 2 15q0 7 -2 17l-4 5l2 2q-6 23 -21 52q-3 4 -8 14q-6 20 -22 59q-64 153 -170 207q-35 18 -76 18q-84 -2 -85 -83l-12 1q1 92 93 93
q48 1 85 -18q110 -56 176 -211q7 -21 22 -61q3 -6 9 -17q16 -31 22 -56q5 -8 9 -8t5 13q-86 237 -161 297q-49 39 -67 49q-28 15 -81 24l2 12q54 -9 84 -25q20 -10 70 -51q77 -62 165 -304q-2 -28 -15 -28q-4 0 -9 3v-4q2 -41 -33 -41q-34 -1 -67 63q-67 133 -73 142
q-62 111 -92 111h-2q-4 -15 -4 -27q0 -20 23 -56q24 -39 103 -182q49 -88 96 -87q13 0 25 8h1q57 42 56 81q-1 49 -56 163q-53 111 -92 150q-73 76 -166 103q-6 -7 -49 -10q-47 -4 -76 -23q-44 -29 -67 -100l-12 4q21 63 58.5 93.5t102.5 37.5q14 1 34 6l-1 -2l1 -2l4 6
q-6 -2 -14 -2q-10 3 -30 5q-28 -1 -60 -14q-119 -47 -116 -231q1 -42 7 -74q19 -99 56 -194q51 -131 108 -156q4 -4 12 -4t20 5q14 -24 73 -22v-12h-6q-41 -2 -63 12l1 -5q-14 -4 -27 -4q-26 0 -52 13l5 10q24 -11 47 -11q12 0 19 2l-2 2q-8 -2 -15 -2q-8 0 -19 6
q-22 13 -34 25q-48 47 -89 156q-34 93 -46 177q-6 47 -7 75q-3 178 105 235q-125 -49 -122 -199q0 -16 3 -39q1 -16 3 -46q26 -252 164 -372l-8 -9q-106 90 -149 268q-16 66 -24 180q-2 -28 -1 -58q4 -242 139 -361l-8 -9q-82 74 -114 171q-27 78 -29 204q-3 177 58 259
q-41 -43 -64 -140q-20 -82 -18 -158q0 -29 3 -60l-12 -1q-3 32 -4 60q-1 67 16 146q19 92 52 138l-14 -19v-4h-3q-54 -87 -58 -204l-12 1q3 109 51 193q-34 -29 -51 -132l-12 2q12 72 35 114l-10 3q15 42 38 58l7 -10q-18 -12 -30 -43q15 23 35 29q44 67 105 102
q-29 -8 -54 -37v-1l-5 -5q-16 -14 -33 -39l-10 7q8 11 13 18q-9 -8 -17 -21l-11 6q8 14 18 22l-14 -7v0q-44 -32 -47 -98l-12 1q4 69 49 104v2h2q3 32 68 60l2 3l2 -1q64 54 143 55q131 2 288 -104q64 -44 114.5 -121.5t68.5 -154.5q22 -30 27 -70zM128 542l-32 -42h-1
l-20 -35l-11 6l22 37h1l31 41zM511 -118l-4 -11q-42 16 -70.5 50t-55.5 69h-1v1q-50 62 -80 145t-31 163q-1 13 0 28h12v-27q3 -156 100 -291q-7 38 -58 146q-34 71 -35 148q-2 111 85 123l2 -11q-76 -11 -75 -110q2 -73 34 -144q18 -41 37 -83q24 -58 22 -83
q25 -33 52.5 -66t65.5 -47zM537 -184q-33 -6 -62 -7q-56 -1 -81 13q-43 25 -93 106q-44 72 -61 128q-33 118 -35 221q0 40 5 63q5 18 23 57q10 20 13 25q8 14 19 19l5 -11q-14 -8 -28 -43l-5 2l4 -3q-25 -29 -24 -107q2 -103 35 -219q15 -54 59 -125q49 -80 89 -102
q23 -13 73 -12q27 0 62 7zM456 -161l-1 -12l-6 1q-23 2 -56 28q-113 89 -158 327q-6 37 -7 78q-1 81 23 134q33 68 107 70q7 0 18 -1l-1 -12h-13q-125 -2 -122 -188q1 -40 7 -78q16 -100 68 -206q67 -135 141 -141zM693 -176l-62 -25l-5 11l63 25zM729 -128
q-120 -80 -273 -90l-1 12q147 7 268 88zM620 -203q-14 -10 -59 -27l-5 11q20 7 57 25zM362 -165l-8 -9q-82 71 -128 206q-40 116 -42 242q-1 39 3 73l12 -1q-5 -46 -4 -90q4 -233 134 -385q20 -24 33 -36zM553 -229q-23 -10 -100 -18l-2 12q25 2 50 5q29 4 48 12zM550 -253
q-46 -20 -114 -21h-10v12h12q63 0 107 20zM186 -81l-9 -8q-76 91 -80 292q0 20 1 40l11 -1v-42q3 -191 77 -281zM448 -249l-74 -6l-1 12l74 6zM400 -219q-20 -6 -38 -6q-21 0 -42 4l2 12q21 -5 40 -4q16 0 34 5zM245 -150l-7 -10q-38 28 -52 53l11 6q12 -23 48 -49zM501 507
l-2 2l2 -2v0zM499 509l-5 2v0zM527 446q-16 22 -39 27q10 -13 39 -27zM721 104q-1 25 -13 52q-11 23 -22 47q-4 11 -12 34q-31 80 -80 135q-17 21 -54 59l-1 -3q-54 21 -67 48q-19 14 -64 29q-3 -7 -11 -11q103 -29 174 -107q80 -87 148 -302q2 9 2 19zM735 178
q-23 108 -95 204t-170 141q-80 38 -149 36q-83 -1 -153 -78q64 67 158 69q24 0 89 -13q14 -2 41 -10q55 -22 131.5 -100.5t98.5 -133.5q29 -74 49 -115zM743 113q0 14 -2 30q-14 18 -36 70q-29 72 -30 75q-9 18 -43 65q-94 129 -180 162q-11 5 -39 10q-68 13 -87 13
q-11 -1 -23 -2q36 1 91.5 -14t82.5 -35l3 1v-2q41 -3 64 -43q11 -8 59 -63q41 -47 78 -132q5 -13 15 -40q4 -6 12 -19q24 -46 25 -83q0 -27 -12 -48q-6 -44 -57 -80q-6 -31 -50 -32q-57 -1 -138 129q8 -31 49 -77l-9 -8q-53 59 -53 92q0 6 1 12q-94 158 -95 216q-1 32 20 33
q6 0 15 -4q3 2 7 2q36 0 101 -111q41 -70 76 -149q25 -57 57 -56q-8 5 -16 18q-1 2 -37 68q-30 57 -91 168q-48 82 -102 81q-44 -1 -44 -44q1 -21 13 -47h-1q61 -149 82 -191q71 -140 126 -152l-2 -12q-80 17 -167 230q-20 47 -59 143q1 0 1 1q-4 14 -5 27q0 56 56 57
q61 1 112 -87q14 -23 91 -168q12 -23 37 -68q8 -12 14 -15q0 7 -5 20q0 1 -24 53q-54 119 -78 159q-55 90 -123 123q-8 -7 -26 -10q-14 -3 -29 -5q-41 -11 -40 -68q0 -20 8 -45q13 -13 62 -130q41 -95 66 -136q54 -88 107 -87q23 0 45 17h-7q-50 -1 -85 52l10 6
q31 -47 76 -46q11 0 23 4l5 6l3 -3q33 15 73 69q30 40 29 100zM396 509q-51 16 -93 15q-111 -2 -151 -127q26 54 78 85t112 30h6v-5q16 -5 30 -5q13 1 18 7zM164 540q-32 -18 -41 -33q24 14 41 33zM645 -32q-8 -2 -16 -3q-64 -1 -120 118q-24 51 -90 156q-25 39 -25 63
q0 12 4 27q-5 1 -9 1q-9 0 -9 -16q2 -62 89 -206q91 -151 146 -150q21 0 30 10zM477 95v0v1v-1z" />
    <glyph glyph-name="exclamdown" unicode="&#xa1;" 
d="M291 552v112h-279v-112h279zM142 689v111h-280v-111h280zM291 277v112h-279v-112h279zM141 414v111h-279v-111h279zM141 136v112h-279v-112h279zM141 -142v112h-279v-112h279zM589 -279v112h-270v-112h270zM291 -279v112h-279v-112h279zM589 827v112h-270v-112h270z
M291 827v112h-279v-112h279zM423 -30q-6 -23 -69 -23h-106q-43 0 -47 23h-32v-112h270v112h-16zM452 111q-9 -37 -25 -112h162v112h-137zM502 389q-2 -9 -19 -112h106v112h-87zM361 414q15 34 29 39q5 3 49 5v67h-270v-111h192zM319 309q19 48 32 80h-32v-80zM254 136
q20 56 42 112h-127v-112h85zM207 -1q11 36 38 112h-233v-112h195zM562 664v-16q0 -59 -42 -96h69v112h-27zM454 730q15 6 33 6q59 0 72 -57h45v-142h-107q-21 -9 -43 -8v-70h12q41 0 41 -36q0 -7 -2 -19h99v-142h-124q-7 -46 -24 -136h148v-142h-150v-136h150v-152h-607v147
h-150v142h150v136h-150v142h150v136h-150v141h150v134h-150v141h150v149h607v-152h-150v-82zM407 689q13 21 32 33v78h-269v-111h237zM385 613q0 26 9 51h-75v-112h87q-21 23 -21 61z" />
    <glyph glyph-name="cent" unicode="&#xa2;" 
d="M142 689v111h-280v-111h280zM141 -142v112h-279v-112h279zM589 -279v112h-270v-112h270zM291 -279v112h-279v-112h279zM589 827v112h-270v-112h270zM291 827v112h-279v-112h279zM507 664q1 -5 1 -10q0 3 -7 -24l-8 -28q34 -24 46 -50h50v112h-82zM340 689q8 14 22 21
q8 4 21 4q10 0 30.5 -3.5t25.5 -3.5v93h-269v-111h170zM319 640l9 24h-9v-24zM199 552q41 51 92 71v41h-279v-112h187zM169 506q5 10 11 19h-11v-19zM129 414q6 17 12 33v78h-279v-111h267zM108 277q0 65 8 92q2 10 5 20h-109v-112h96zM132 136q-21 47 -24 112h-246v-112
h270zM140 -1v8q0 15 12 39q17 34 18 37q-13 12 -24 28h-134v-112h128zM292 -30q-18 -15 -50 -15q-54 0 -73 7v-104h270v112h-147zM409 111q-35 -31 -76 -48q-3 -5 -14 -43v-21h270v112h-180zM493 262q-1 -16 -10 -42q-10 -30 -29 -58v-36h150v-142h-150v-136h150v-152h-607
v147h-150v142h150v136h-150v142h150v136h-150v141h150v134h-150v141h150v149h607v-152h-150v-106q37 -2 49 -27h101v-142h-59q3 -10 3 -20q0 -98 -70 -113h126v-142h-111zM348 277q19 33 56 33q80 0 88 -33h97v112h-270v-112h29zM270 248v-4q0 -11 10 -21t24 -6q17 4 30 31
h-64zM291 387q-13 -51 -19 -110h19v110zM392 414q-11 9 -13 22q8 32 8 37q0 9 -37 9q-29 0 -51 -68h93z" />
    <glyph glyph-name="sterling" unicode="&#xa3;" 
d="M142 689v111h-280v-111h280zM141 414v111h-279v-111h279zM589 -279v112h-270v-112h270zM291 -279v112h-279v-112h279zM589 827v112h-270v-112h270zM291 827v112h-279v-112h279zM235 689q71 47 185 47q7 0 19 -2v66h-269v-111h65zM151 552q8 68 53 112h-192v-112h139z
M185 414q-6 8 -16 22v-22h16zM92 277q1 24 12 53q13 37 29 39q22 -1 68 5q-2 8 -4 15h-185v-112h80zM169 219q16 16 23 29h-23v-29zM70 136q24 19 71 57v55h-279v-112h208zM12 87q4 7 25 24h-25v-24zM44 -1q-26 44 -32 75v-75h32zM123 -30q-12 -7 -37 -19q-9 4 -22 19h-202
v-112h279v112h-18zM439 -39q-35 -11 -81 -11q-31 0 -103 20h-86v-112h270v103zM454 111q12 -23 22.5 -56.5t10.5 -47.5q0 -4 -1 -8h103v112h-135zM364 248q-31 -62 -106 -112h181v112h-75zM380 389q3 -9 4 -17q20 -2 79 -2q29 0 29 -21q0 -49 -17 -72h114v112h-209zM333 525
q-1 -6 -1 -13q0 -15 13 -45q13 -26 25 -53h69v111h-106zM463 552q-36 25 -69 25t-50 -25h119zM589 576q-11 -13 -21 -24h21v24zM630 642q0 -11 -26 -46v-59h-51q-22 -20 -31 -20q-12 0 -38 20h-30v-133h150v-142h-146l-4 -2v-134h150v-142h-125q-9 -10 -25 -17v-119h150
v-152h-607v147h-150v142h150v136h-150v142h150v136h-150v141h150v134h-150v141h150v149h607v-152h-150v-81q89 -19 144 -52h6v-4q26 -17 26 -33z" />
    <glyph glyph-name="yen" unicode="&#xa5;" 
d="M141 414v111h-279v-111h279zM141 -142v112h-279v-112h279zM589 -279v112h-270v-112h270zM291 -279v112h-279v-112h279zM589 827v112h-270v-112h270zM291 827v112h-279v-112h279zM331 525q3 -45 -1 -77q9 22 31 77h-30zM319 627l9 -75h45q30 70 53 112h-107v-37zM170 733
q17 -1 75 -11q52 -10 64 -33h130v111h-269v-67zM119 689q2 34 23 42v69h-280v-111h257zM136 552q-15 67 -17 112h-107v-112h124zM82 277q3 10 7 17q26 48 29 52q19 24 50 24l10 3q-2 8 -3 16h-163v-112h70zM141 216q-64 4 -64 28v4h-215v-112h279v80zM169 150l34 65
q-3 1 -14 0.5t-20 -0.5v-65zM107 -1q-2 4 -2 9q0 17 44 103h-137v-112h95zM289 -30q-22 -22 -47 -22q-27 0 -73 15v-105h270v112h-150zM364 111l-3 -5l-42 -82v-25h270v112h-225zM439 221h-17l-45 -85h62v85zM505 389q-7 -13 -10 -19h69q11 -8 11 -18q0 -4 -5.5 -29.5
t-6.5 -28.5q-4 -9 -8 -17h34v112h-84zM633 673q0 -24 -29 -89v-47h-22q-21 -42 -69 -133h91v-142h-57q-17 -27 -40 -35q-18 -7 -53 -6v-95h150v-142h-150v-136h150v-152h-607v147h-150v142h150v136h-150v142h150v136h-150v141h150v134h-150v141h150v149h607v-152h-150v-103
q11 14 23 18q8 2 20 2q36 0 79 -12q57 -17 57 -44z" />
    <glyph glyph-name="dieresis" unicode="&#xa8;" horiz-adv-x="428" 
d="M473 865q0 -108 -95 -108q-53 0 -53 65q0 44 25.5 73t68.5 29q54 0 54 -59zM267 865q0 -108 -95 -108q-53 0 -53 65q0 44 26 73t69 29q53 0 53 -59z" />
    <glyph glyph-name="copyright" unicode="&#xa9;" horiz-adv-x="3220" 
d="M3002 566q0 -18 -29 -26q-10 6 -60 89l-3 -62q-5 -5 -14 -5q-33 0 -33 21q0 10 9 150q-10 -3 -18 -4q-7 3 -7 15q0 28 7 40q27 13 56 13q36 0 58.5 -25t22.5 -59q0 -40 -36 -70q47 -63 47 -77zM2835 777q0 -30 -6 -40q-9 -3 -30 -1l-31 2q-7 0 -14 -2q18 -8 21 -12
q1 -3 0 -23q5 0 14 1h13q27 0 27 -18q0 -25 -5 -37q-2 -1 -38 -1l-15 -1q0 -10 -2 -30h34q18 0 22 -7q1 -4 1 -23q0 -23 -17 -23q-56 0 -72 9t-16 45q0 10 1 29q-12 -1 -12 30q0 29 16 26q1 12 3 35q-14 1 -17 10v20q0 30 23 30l84 -2q16 0 16 -17zM3123 173q0 -20 -16 -20
q-14 0 -24 3.5t-11 49.5v57v14q-8 -35 -17 -70q-14 -53 -30 -53q-33 0 -41 52q-2 38 -5 76q-3 -38 -3 -63q0 -65 -15 -65q-12 0 -26 8q-6 8 -6 17q0 38 6 107q8 82 16 98q7 3 13 3q30 0 40 -27q0 -1 8 -49q7 -43 8 -65q30 139 49 139q33 0 41 -27q3 -10 3 -51q0 -23 5 -67.5
t5 -66.5zM2683 764q0 -30 -5.5 -89.5t-5.5 -89.5q0 -2 2 -7t2 -8q0 -7 -13 -7q-29 0 -40 22q-7 22 -13 44l-23 75q2 -45 2 -84q0 -57 -14 -57q-36 0 -36 25q0 39 5 111q6 93 14 98q39 -4 58 -45q2 -6 20 -73q-2 31 -2 64q0 52 13 52q36 0 36 -31zM2510 762q0 -29 -5.5 -86.5
t-5.5 -85.5t-17 -28q-34 0 -34 21q0 45 7 91q-5 -13 -9 -26q-4 -4 -28 -5q0 -23 -1 -46q-3 -35 -14 -35q-38 0 -38 35q0 8 2 23.5t3 22.5q-13 2 -13 31q0 28 18 32q0 89 18 89q37 0 37 -28q0 6 -7 -64q12 0 33 -1q1 26 2 51q3 41 13 41q39 0 39 -32zM2903 274q0 -41 -12 -75
q-18 -49 -53 -49q-40 0 -61 46q-16 34 -16 77q0 38 14 72q19 46 54 46l7 -2q4 -6 6 -27q19 26 26 26q17 0 28 -50q7 -37 7 -64zM2740 327q0 -27 -27 -27q-12 0 -15 8q0 2 -1 17q0 9 -7 9q-19 0 -19 -77q0 -42 12 -42q6 0 9.5 17.5t15.5 17.5q30 0 30 -19q0 -29 -12 -51
q-15 -29 -44 -29q-32 0 -49 46q-12 33 -12 71q0 41 13 75q19 46 55 46q51 0 51 -62zM2339 683q0 -41 -13 -75q-18 -49 -53 -49q-40 0 -61 46q-15 34 -15 77q0 38 14 73q19 45 53 45l7 -2q4 -5 6 -27q20 26 27 26q17 0 27 -50q8 -37 8 -64zM2176 598q0 -35 -17 -35
q-50 0 -65 8q-23 12 -23 53q0 24 12 170q0 4 10 4q12 0 24.5 -5.5t12.5 -14.5q0 -30 -4 -78q-5 -60 -6 -78h45q11 0 11 -24zM2596 182q0 -28 -22 -28q-18 0 -18 28q0 30 19 30q21 0 21 -30zM2542 340q0 -14 -6 -17.5t-23 -3.5q-15 0 -13 11h-5q-10 0 -10 -10q0 -5 23 -43
t23 -67q0 -24 -13.5 -41t-38.5 -17h-13q-32 0 -38 16q-2 6 -2 42q0 22 16 22l18 -1q7 -5 6 -22h4q13 0 13 10q0 13 -24.5 48t-24.5 57q0 30 21 47t55 17q20 0 27 -8q4 -6 5 -26v-14zM2761 -111q0 -20 -16 -20q-14 0 -24 3.5t-12 49.5q1 28 1 57v14q-9 -35 -17 -70
q-14 -53 -30 -53q-33 0 -41 52q-3 38 -5 76q-3 -38 -3 -64q0 -64 -15 -64q-13 0 -27 8q-5 8 -5 17q0 38 6 106q7 83 16 99q6 3 13 3q30 0 40 -27q0 -1 8 -49q7 -43 8 -65q30 139 49 139q33 0 41 -27q3 -10 3 -52q0 -22 5 -66.5t5 -66.5zM2418 370q0 -31 -5 -39q-7 -3 -24 -2
q-24 2 -26 2l-6 -1q10 -4 21 -9q7 -5 7 -20q0 -18 -2.5 -55.5t-2.5 -56.5q0 -36 -18 -36q-36 0 -36 24q0 25 6 75t6 75l-4 5l-11 -1q-23 0 -28 4t-5 24q0 17 7 25q6 2 13 2h17l74 -2q17 0 17 -14zM1960 681q0 -39 -22 -77q-26 -45 -64 -45q-22 0 -37 22t-15 43q0 15 7 111
l-16 -6q-2 4 -5 8q0 35 6 44q9 16 43 16q49 0 78 -37q25 -34 25 -79zM2265 354q0 -29 -5 -88.5t-5 -89.5q0 -3 1.5 -7.5t1.5 -7.5q0 -7 -12 -7q-30 0 -41 22q-6 22 -13 44l-22 75q2 -45 2 -85q0 -56 -14 -56q-36 0 -36 25q0 39 4 111q6 93 14 97q40 -3 58 -44q3 -6 21 -73
q-3 30 -3 64q0 52 14 52q35 0 35 -32zM2541 -11q0 -40 -13 -75q-17 -48 -52 -48q-41 0 -61 46q-16 34 -16 77q0 38 14 72q19 46 54 46l7 -2q4 -6 5 -27q20 26 27 26q17 0 27 -50q8 -37 8 -65zM1795 598q0 -35 -17 -35q-50 0 -66 8q-23 12 -23 53q0 24 12 170q1 4 11 4
q11 0 24 -5.5t13 -14.5q0 -30 -4 -78q-5 -60 -6 -78h45q11 0 11 -24zM2378 42q0 -26 -27 -26q-12 0 -15 8q0 2 -1 17q0 9 -7 9q-20 0 -20 -78q0 -41 13 -41q6 0 9.5 17.5t15.5 17.5q29 0 29 -19q0 -30 -11 -52q-15 -28 -44 -28q-33 0 -50 46q-12 33 -12 71q0 41 14 75
q18 46 55 46q51 0 51 -63zM2094 274q0 -41 -13 -75q-18 -49 -53 -49q-40 0 -61 46q-15 34 -15 77q0 38 14 72q19 46 53 46l7 -2q4 -6 6 -27q20 26 27 26q17 0 27 -50q8 -37 8 -64zM1659 683q0 -41 -12 -75q-18 -49 -53 -49q-40 0 -61 46q-16 34 -16 77q0 38 14 73
q19 45 54 45l7 -2q4 -5 6 -27q20 26 26 26q17 0 28 -50q7 -37 7 -64zM1938 373q0 -37 -6 -40q-1 -1 -44 -2h-22q19 -9 22 -14t2 -25q4 0 13 1h13q19 0 19 -21q0 -31 -9 -35q-1 -1 -41 -1v-21q1 -61 -14 -61q-38 0 -38 24q0 11 2 30.5t2 28.5q-10 3 -12 12q0 -1 0 18
q0 20 17 29l1 35q-6 1 -14 1l-5 6v19q-1 24 18 29q3 1 43 1q53 0 53 -14zM2233 -103q0 -27 -21 -27q-18 0 -18 28q0 30 19 30q20 0 20 -31zM2175 -95q0 -35 -17 -35q-50 0 -65 8q-24 12 -24 53q0 23 13 169q0 5 10 5q11 0 24 -6t13 -15q0 -29 -4 -77q-5 -60 -6 -78h45
q11 0 11 -24zM1502 566q0 -18 -28 -26q-11 6 -60 89l-4 -62q-5 -5 -13 -5q-34 0 -34 21q0 10 9 150q-10 -3 -18 -4q-7 3 -7 15q0 28 7 40q27 13 56 13q36 0 60 -26q21 -24 21 -58q0 -40 -35 -70q46 -63 46 -77zM1808 340q0 -14 -5.5 -17.5t-22.5 -3.5q-15 0 -14 11h-4
q-10 0 -10 -10q0 -5 22.5 -43t22.5 -67q0 -24 -13 -41t-38 -17h-14q-31 0 -37 16q-3 6 -3 42q0 22 17 22l17 -1q8 -5 6 -22h5q13 0 13 10q0 13 -24.5 48t-24.5 57q0 30 21 47t54 17q21 0 26.5 -7t5.5 -27v-14zM2040 -11q0 -40 -13 -75q-18 -48 -53 -48q-40 0 -61 46
q-15 34 -15 77q0 38 14 72q19 46 53 46l7 -2q4 -6 6 -27q20 26 27 26q17 0 27 -50q8 -37 8 -65zM1329 571q0 -10 -21 -10q-24 0 -30 31q-1 23 -3 47q-6 -25 -25 -21q-3 -16 -5 -31q-6 -25 -14 -25q-10 0 -23.5 7.5t-13.5 15.5q0 6 2.5 16.5t2.5 15.5q-7 2 -7 19q0 30 6 40
l15 1q7 33 15 65q15 55 26 55q29 0 39 -13q6 -7 21 -100t15 -113zM1676 272q0 -39 -22 -77q-26 -45 -64 -45q-22 0 -37 22t-15 43q0 15 6 111l-15 -6q-3 3 -5 8q0 35 5 44q9 16 44 16q48 0 77 -38q26 -33 26 -78zM1873 -122q0 -10 -21 -10q-24 0 -29 30l-4 48
q-5 -26 -24 -21l-6 -32q-6 -24 -14 -24q-10 0 -23 7t-13 16q0 6 2 16.5t2 15.5q-7 1 -7 18q0 30 6 41l15 1q8 32 15 65q15 55 26 55q30 0 40 -13q5 -7 20 -102q15 -91 15 -111zM1174 762q0 -29 -6 -86.5t-6 -85.5t-16 -28q-35 0 -35 21q0 45 7 91q-4 -13 -9 -26
q-3 -4 -28 -5q0 -23 -1 -46q-2 -35 -14 -35q-37 0 -37 35q0 8 2 23.5t2 22.5q-13 2 -13 31q0 28 18 32q1 89 18 89q37 0 37 -28q0 6 -7 -64q13 0 33 -1q1 26 2 51q3 41 14 41q39 0 39 -32zM1511 189q0 -35 -18 -35q-50 0 -65 8q-23 12 -23 53q0 23 12 169q0 5 11 5t24 -5.5
t13 -14.5q0 -30 -4 -78q-6 -60 -6 -78h44q12 0 12 -24zM1375 274q0 -41 -13 -75q-17 -49 -52 -49q-41 0 -61 46q-16 34 -16 77q0 38 14 72q19 46 54 46l7 -2q4 -6 5 -27q20 26 27 26q17 0 27 -50q8 -37 8 -64zM913 599q0 -23 -5.5 -28.5t-30.5 -5.5h-31q-18 0 -31.5 11.5
t-13.5 27.5q0 1 30.5 53.5t30.5 75.5q0 13 -10 13q-9 0 -16 -20q-5 -2 -18 -2q-24 0 -24 17q0 24 15.5 41t40.5 17q30 0 45 -23q13 -19 13 -48q0 -27 -15 -59q-15 -27 -30 -55q7 0 18 1h18q14 0 14 -16zM1217 156q0 -17 -28 -25q-10 6 -60 89l-3 -63q-5 -4 -14 -4
q-33 0 -33 21q0 10 9 150q-10 -3 -18 -4q-8 3 -8 15q0 28 8 40q27 13 55 13q37 0 59.5 -25t22.5 -59q0 -40 -36 -71q46 -62 46 -77zM759 680q0 -35 -12 -70q-17 -47 -47 -47q-40 0 -58 46q-13 33 -13 77q0 42 13 73q17 42 52 42q36 0 53 -45q12 -32 12 -76zM1476 -128
q0 -18 -28 -25q-11 6 -61 89l-3 -63q-5 -5 -14 -5q-33 0 -33 22q0 10 9 150q-10 -3 -18 -4q-7 3 -7 15q0 28 7 40q27 13 56 13q36 0 58.5 -25t22.5 -59q0 -40 -36 -71q47 -62 47 -77zM1044 162q0 -10 -21 -10q-24 0 -29 31q-2 23 -3 47q-6 -25 -25 -21l-6 -32
q-6 -24 -14 -24q-10 0 -23 7.5t-13 15.5q0 6 2 16.5t3 15.5q-8 1 -8 18q0 30 7 41l14 1q8 33 16 65q14 55 26 55q29 0 39 -13q6 -7 21 -102q14 -91 14 -111zM1309 84q0 -30 -6 -40q-9 -3 -30 -2l-31 2q-7 0 -13 -1q18 -8 20 -12q1 -3 0 -23h14q9 1 13 1q27 0 27 -18
q0 -25 -5 -37q-2 -1 -38 -2h-15q0 -10 -2 -30h34q18 0 22 -8q2 -3 2 -22q0 -24 -17 -24q-56 0 -72.5 9.5t-16.5 44.5q0 11 1 29q-12 0 -12 31q0 28 16 26q1 12 3 35q-14 1 -17 10v20q0 30 23 29l84 -1q16 0 16 -17zM593 680q0 -35 -12 -70q-17 -47 -47 -47q-40 0 -59 46
q-13 33 -13 77q0 42 13 73q17 42 53 42q35 0 52 -45q13 -32 13 -76zM889 354q0 -29 -5.5 -87t-5.5 -86t-17 -28q-34 0 -34 21q0 45 7 90q-5 -12 -9 -25q-4 -4 -28 -6q0 -22 -1 -45q-3 -35 -14 -35q-38 0 -38 34q0 9 2 24.5t3 21.5q-13 2 -13 32q0 28 18 32q0 89 18 89
q37 0 37 -28q0 6 -7 -64q12 -1 33 -1q1 25 2 51q3 41 13 41q39 0 39 -31zM1157 70q0 -30 -5.5 -89t-5.5 -89q0 -3 2 -7.5t2 -7.5q0 -7 -13 -7q-29 0 -40 21q-7 23 -13 45l-23 74q2 -45 2 -84q0 -56 -14 -56q-36 0 -36 25q0 39 5 111q6 93 14 97q39 -3 58 -44q2 -7 20 -73
q-2 30 -2 63q0 53 13 53q36 0 36 -32zM425 598q0 -22 -5.5 -27.5t-30.5 -5.5h-31q-18 0 -31.5 11.5t-13.5 27.5q0 1 30.5 53.5t30.5 75.5q0 13 -10 13q-9 0 -16 -20q-5 -2 -18 -2q-24 0 -24 17q0 24 15.5 41t40.5 17q30 0 45 -23q13 -19 13 -48q0 -27 -15 -59
q-15 -27 -30 -55q7 0 18 1h19q13 0 13 -17zM984 68q0 -29 -5.5 -86t-5.5 -85t-17 -28q-34 0 -34 21q0 45 7 90q-5 -12 -9 -25q-4 -4 -28 -6q0 -22 -1 -45q-3 -35 -14 -35q-38 0 -38 34q0 9 2.5 24.5t2.5 21.5q-13 2 -13 31t18 33q1 89 18 89q37 0 37 -28q0 6 -7 -64
q13 -1 33 -1q1 25 2 51q3 41 13 41q39 0 39 -33zM717 182q0 -28 -21 -28q-19 0 -19 28q0 30 19 30q21 0 21 -30zM272 683q-1 -46 -27 -83q-30 -42 -79 -42t-77 42q-25 36 -24 83q0 47 27 84q30 42 79 42q48 0 77 -42q25 -37 24 -84zM666 368q0 -32 -19 -119q-22 -96 -37 -96
q-25 0 -33 14q-3 5 -8 36q-3 25 -10 74q-22 -123 -37 -123q-30 0 -39 27q-3 25 -7 50q0 4 -13 73q-8 44 -8 73q0 10 11 10q24 0 32 -11q5 -7 8 -33t9 -81q5 34 9 69q9 55 26 55q13 0 27 -6q11 -14 20 -104l1 -14l21 111q3 13 10 13q9 0 23 -6t14 -12zM813 -11q0 -40 -13 -75
q-18 -48 -53 -48q-40 0 -61 46q-15 34 -15 77q0 38 14 72q19 46 53 46l7 -2q4 -6 6 -27q20 26 27 26q17 0 27 -50q8 -37 8 -65zM441 368q0 -32 -20 -119q-21 -96 -36 -96q-26 0 -34 14q-3 5 -8 36q-3 25 -10 74q-22 -123 -36 -123q-31 0 -39 27q-4 25 -7 50q-1 4 -13 73
q-8 44 -8 73q0 10 10 10q25 0 33 -11q5 -7 8 -33t9 -81q4 34 8 69q10 55 26 55q13 0 27 -6q12 -14 20 -102l1 -16q7 37 22 111q2 13 9 13q9 0 23.5 -6t14.5 -12zM650 -95q0 -35 -17 -35q-50 0 -65 8q-23 12 -23 53q0 23 12 169q0 5 10 5q12 0 23 -5q15 -7 15 -16
q0 -29 -5 -77q-5 -60 -5 -78h44q11 0 11 -24zM514 68q0 -29 -5.5 -86t-5.5 -85t-17 -28q-34 0 -34 21q0 45 7 90q-5 -12 -9 -25q-4 -4 -28 -6q-1 -22 -1 -45q-3 -35 -14 -35q-38 0 -38 34q0 9 2 24.5t3 21.5q-14 2 -14 31t18 33q1 89 19 89q37 0 37 -28q0 6 -7 -64
q12 -1 33 -1q1 25 1 51q3 41 14 41q39 0 39 -33zM215 368q0 -32 -20 -119q-21 -96 -36 -96q-26 0 -34 14q-2 5 -7 36q-3 25 -10 74q-23 -123 -37 -123q-30 0 -39 27q-3 25 -7 50q0 4 -13 73q-8 44 -8 73q0 10 10 10q25 0 33 -11q5 -7 8 -33t9 -81q5 34 9 69q9 55 26 55
q12 0 27 -6q11 -14 19 -103l2 -15q6 37 21 111q3 13 10 13q9 0 23 -6t14 -12zM2945 714q0 30 -31 30q-7 0 -30 -7q34 -5 34 -24q0 -4 -1 -13t-1 -13q0 -1 1 -3q11 0 19.5 9.5t8.5 20.5zM2852 277q0 42 -12 68l-2 -13q-27 -24 -27 -69q0 -51 20 -51q10 0 17 28q4 21 4 37z
M2288 686q0 42 -13 68l-2 -13q-26 -23 -26 -69q0 -51 19 -51q11 0 17 29q5 20 5 36zM1909 684q0 23 -11 40q-14 20 -38 20q-5 0 -15 -1q32 -3 32 -31q0 -16 -2 -46t-2 -44q36 9 36 62zM2490 -7q0 42 -13 68l-1 -13q-27 -24 -27 -69q0 -51 20 -51q10 0 17 28q4 21 4 37z
M2043 277q0 42 -13 68l-2 -13q-26 -24 -26 -69q0 -51 19 -51q11 0 17 28q5 21 5 37zM1609 686q0 42 -13 68l-2 -13q-26 -23 -26 -69q0 -51 19 -51q11 0 17 29q5 20 5 36zM1445 714q0 30 -31 30q-7 0 -30 -7q34 -5 34 -24q0 -4 -1 -13t-1 -13q0 -1 1 -3q11 0 19.5 9.5
t8.5 20.5zM1272 676q-1 30 -5 52q-1 -9 -6 -52h11zM1989 -7q0 42 -13 68l-2 -13q-26 -24 -26 -69q0 -51 19 -51q11 0 17 28q5 21 5 37zM1625 275q0 23 -12.5 41.5t-36.5 18.5q-5 0 -16 -1q32 -3 32 -31q0 -16 -2 -46t-2 -44q37 8 37 62zM1817 -17q-2 29 -5 52q-2 -9 -7 -52
h12zM1626 8q0 18 -7 18q-13 0 -23 -21q-7 -17 -7 -31q0 -19 7 -19q13 0 22 21q8 18 8 32zM1324 277q0 42 -13 68l-2 -13q-26 -24 -26 -69q0 -51 19 -51q11 0 18 29q4 20 4 36zM1160 305q0 30 -30 30q-7 0 -30 -7q34 -5 34 -24q0 -4 -1 -13t-1 -14v-2q12 0 20 9.5t8 20.5z
M1419 21q0 29 -31 29q-7 0 -30 -6q34 -5 34 -24q0 -4 -1 -13t-1 -14l1 -2q11 0 19.5 9.5t8.5 20.5zM715 698q0 52 -17 52q-12 0 -18 -31q-5 -22 -5 -40v-18q0 -43 17 -43q12 0 19 35q4 23 4 45zM988 267q-2 29 -5 52q-2 -9 -7 -52h12zM549 698q0 52 -17 52q-12 0 -19 -31
q-5 -22 -5 -40v-18q0 -43 17 -43q12 0 19 35q5 23 5 45zM243 683q1 34 -17 61q-22 31 -56 31q-35 0 -57 -31q-19 -27 -20 -61q-1 -33 18 -60q21 -32 56 -32t57 32q19 27 19 60zM762 -7q0 42 -13 68l-2 -13q-26 -24 -26 -69q0 -51 19 -51q11 0 17 28q5 21 5 37zM225 695
l-36 1q-3 24 -18 24q-19 0 -20 -38q-1 -35 20 -35q14 0 18 23h35q-10 -64 -55 -64q-29 0 -45 26q-14 22 -14 51q1 29 14 51q16 27 46 27q47 0 55 -66zM1656 -15v0q-2 -15 -2 -21l1 -7q8 0 15 21q5 17 5 28q0 28 -16 52.5t-45 24.5q-34 0 -56 -36q-19 -30 -19 -64
q0 -83 71 -83q6 0 6 -8q0 -31 -10 -31q-47 0 -75 44q-24 38 -24 84q0 47 24 86q29 46 77 46q46 0 75 -42q25 -36 25 -80q0 -26 -10 -50q-14 -30 -39 -30q-17 0 -27 13q-13 -14 -30 -14q-23 0 -35 23q-10 18 -10 40q0 26 13 51q17 31 43 31q44 0 44 -64q0 -8 -1 -14z" />
    <glyph glyph-name="guillemotleft" unicode="&#xab;" 
d="M589 552v112h-270v-112h270zM439 689v111h-269v-111h269zM291 552v112h-279v-112h279zM142 689v111h-280v-111h280zM141 414v111h-279v-111h279zM439 -142v112h-270v-112h270zM141 -142v112h-279v-112h279zM589 -279v112h-270v-112h270zM291 -279v112h-279v-112h279z
M589 827v112h-270v-112h270zM291 827v112h-279v-112h279zM319 320q33 34 81 69h-81v-69zM449 111q1 -18 -15 -34.5t-34 -15.5q-20 0 -47 50h-34v-112h270v112h-140zM421 248q5 -24 18 -77v77h-18zM521 389q-7 -26 -37 -59q-25 -26 -50 -53h155v112h-68zM494 438
q28 -1 29 -34h81v-142h-150v-136h150v-142h-150v-136h150v-152h-607v147h-150v142h150v136h-150v142h150v136h-150v141h150v134h-150v141h150v149h607v-152h-150v-133h150v-142h-150v-113q27 15 40 14zM81 277q0 4 1 6q6 31 108 106h-178v-112h69zM130 136q-28 57 -43 112
h-225v-112h268zM239 111q1 -18 -15 -34.5t-34 -15.5q-20 0 -47 50h-131v-112h279v112h-52zM211 248q9 -38 26 -112h103q-28 57 -43 112h-86zM291 350q-23 -24 -67 -73h67v73zM284 438q22 0 28 -24h124l3 2v109h-270v-111h57q40 25 58 24z" />
    <glyph glyph-name="acute" unicode="&#xb4;" horiz-adv-x="280" 
d="M345 848q0 -16 -18 -22q-57 -22 -113 -43q-85 -31 -109 -31q-16 0 -28.5 11t-12.5 27q0 26 89 82q83 53 106 53q18 0 52 -30.5t34 -46.5z" />
    <glyph glyph-name="periodcentered" unicode="&#xb7;" horiz-adv-x="309" 
d="M292 552v112h-279v-112h279zM143 689v111h-281v-111h281zM292 -1v112h-279v-112h279zM292 -279v112h-279v-112h279zM142 -142v112h-280v-112h280zM292 827v112h-279v-112h279zM107 414q13 4 35 4v0q-15 1 -11 1h11v106h-280v-111h245zM44 277q1 10 16 56q7 22 19 56h-66
v-112h31zM142 241h-38q-44 0 -52 7h-190v-112h280v105zM214 262q-7 -10 -12 -13q-12 -6 -45 -8v-115h150v-142h-150v-136h150v-152h-310v147h-150v142h150v136h-150v142h150v136h-150v141h150v134h-150v141h150v149h310v-152h-149v-133h149v-142h-150v-118q30 -2 91 -3
q6 -4 8 -12h51v-142h-93zM257 389q-6 -21 -16 -59q-7 -28 -19 -53h70v112h-35z" />
    <glyph glyph-name="periodcentered" unicode="&#x2219;" horiz-adv-x="309" 
d="M292 552v112h-279v-112h279zM143 689v111h-281v-111h281zM292 -1v112h-279v-112h279zM292 -279v112h-279v-112h279zM142 -142v112h-280v-112h280zM292 827v112h-279v-112h279zM107 414q13 4 35 4v0q-15 1 -11 1h11v106h-280v-111h245zM44 277q1 10 16 56q7 22 19 56h-66
v-112h31zM142 241h-38q-44 0 -52 7h-190v-112h280v105zM214 262q-7 -10 -12 -13q-12 -6 -45 -8v-115h150v-142h-150v-136h150v-152h-310v147h-150v142h150v136h-150v142h150v136h-150v141h150v134h-150v141h150v149h310v-152h-149v-133h149v-142h-150v-118q30 -2 91 -3
q6 -4 8 -12h51v-142h-93zM257 389q-6 -21 -16 -59q-7 -28 -19 -53h70v112h-35z" />
    <glyph glyph-name="cedilla" unicode="&#xb8;" horiz-adv-x="210" 
d="M307 -16q0 -110 -104 -190q-51 -40 -70 -40q-40 0 -40 31q0 8 4 16q21 27 41 54q29 38 29 56q0 16 -11.5 42.5t-11.5 38.5q0 45 76 45q47 0 61 -5q26 -10 26 -48z" />
    <glyph glyph-name="guillemotright" unicode="&#xbb;" 
d="M589 552v112h-270v-112h270zM439 689v111h-269v-111h269zM291 552v112h-279v-112h279zM142 689v111h-280v-111h280zM439 -142v112h-270v-112h270zM141 -142v112h-279v-112h279zM589 -279v112h-270v-112h270zM291 -279v112h-279v-112h279zM589 827v112h-270v-112h270z
M291 827v112h-279v-112h279zM212 389q26 -48 48 -112h31v112h-79zM124 414q7 10 17 17v94h-279v-111h262zM138 277q-23 95 -23 112h-103v-112h126zM55 136q11 19 43 51.5t43 49.5v11h-279v-112h193zM376 111q-32 -24 -57 -37v-75h270v112h-213zM439 163q-14 -13 -31 -27h31
v27zM474 262q11 -36 9 -45q-2 -12 -29 -39v-52h150v-142h-150v-136h150v-152h-607v147h-150v142h150v136h-150v142h150v136h-150v141h150v134h-150v141h150v149h607v-152h-150v-133h150v-142h-150v-133h150v-142h-130zM422 389q26 -48 48 -112h119v112h-167zM334 414
q17 25 41 24q13 0 31 -24h33v111h-270v-87q12 -4 27 -24h138zM348 277q-23 95 -23 112h-6v-112h29zM265 136q11 19 45 53.5t45 54.5v4h-87q7 -24 5 -31q-5 -23 -75 -81h67zM281 61q-16 0 -24 14t-5 31q1 2 2 5h-88q-69 -51 -95 -50q-16 0 -24 14t-5 31q1 2 2 5h-32v-112h279
v63q-6 -1 -10 -1z" />
    <glyph glyph-name="questiondown" unicode="&#xbf;" 
d="M291 552v112h-279v-112h279zM142 689v111h-280v-111h280zM141 414v111h-279v-111h279zM141 -142v112h-279v-112h279zM589 -279v112h-270v-112h270zM291 -279v112h-279v-112h279zM589 827v112h-270v-112h270zM291 827v112h-279v-112h279zM158 -1q-54 41 -62 112h-84v-112
h146zM419 -30q-43 -19 -89 -19q-42 0 -79 8q-4 1 -20 6t-18 5h-44v-112h270v112h-20zM548 111q-26 -71 -80 -112h121v112h-41zM356 248q-27 -23 -40 -35q-28 -27 -30.5 -38.5t-2.5 -19.5q0 -11 3 -19h89q5 8 29 65q5 12 35 15v32h-83zM487 389q-32 -60 -95 -112h197v112
h-102zM299 414q21 24 39 59q13 23 27 30q19 9 74 12v10h-270v-111h130zM156 277q21 23 59 57q47 42 61 55h-264v-112h144zM95 136q0 59 38 112h-271v-112h233zM555 664q1 -4 1 -9q0 -33 -19 -62.5t-49 -40.5h101v112h-34zM454 735q7 1 14 1q69 0 85 -57h51v-142h-150v-22
l18 1q46 0 46 -40q0 -25 -23 -72h109v-142h-150v-45h9q50 1 64 -3q35 -9 35 -46q0 -14 -9 -42h51v-142h-150v-136h150v-152h-607v147h-150v142h150v136h-150v142h150v136h-150v141h150v134h-150v141h150v149h607v-152h-150v-77zM388 689q19 31 51 42v69h-269v-111h218z
M372 633q0 16 5 31h-58v-112h107q-54 17 -54 81z" />
    <glyph glyph-name="Agrave" unicode="&#xc0;" 
d="M140 689v111h-280v-111h280zM139 414v111h-279v-111h279zM587 -279v112h-270v-112h270zM289 -279v112h-279v-112h279zM587 827v112h-270v-112h270zM289 827v112h-279v-112h279zM520 664q4 -11 6 -106v-6h61v112h-67zM306 689q26 36 56 36q20 0 66 -9l9 -2v86h-269v-111
h138zM228 552q36 71 61 112v0h-279v-112h218zM168 426q14 30 47 99h-48zM34 277q12 39 23.5 46.5t64.5 7.5q11 18 29 58h-141v-112h24zM15 136q-9 5 -9 21q0 31 19 91h-165v-112h155zM10 87q4 8 11 24h-11v-24zM139 -42q-10 -6 -19 -6q-30 0 -75 18h-185v-112h279v100z
M223 111q-15 -38 -50 -112h116v112h-66zM342 136q2 36 4 68q-29 -58 -54 -68h50zM340 -1v10q0 54 1 102h-24v-112h23zM437 -52h-19q-51 0 -68 22h-183v-112h270v90zM519 111q-3 -64 -3 -112h71v112h-68zM527 262q-3 -45 -7 -136h82v-142h-86q-2 -31 -64 -35v-101h150v-152
h-607v147h-150v142h150v17q-7 9 -7 18q0 12 7 32v69h-150v142h150v136h-150v141h150v134h-150v141h150v149h607v-152h-150v-101q47 -11 61 -32h89v-142h-76l3 -133h73v-142h-75zM529 375q0 -43 -2 -98h60v112h-58v-14zM332 389l-15 -45v-18h41l7 63h-33zM372 497
q-16 -38 -32 -83h27q5 47 5 83zM558 764q0 -15 -13 -25.5t-29 -10.5q-24 0 -109 31q-56 21 -112 43q-18 6 -18 22t34 46.5t52 30.5q24 0 107 -54q88 -56 88 -83z" />
    <glyph glyph-name="Aacute" unicode="&#xc1;" 
d="M140 689v111h-280v-111h280zM139 414v111h-279v-111h279zM587 -279v112h-270v-112h270zM289 -279v112h-279v-112h279zM587 827v112h-270v-112h270zM289 827v112h-279v-112h279zM520 664q4 -11 6 -106v-6h61v112h-67zM306 689q26 36 56 36q20 0 66 -9l9 -2v86h-269v-111
h138zM228 552q36 71 61 112v0h-279v-112h218zM168 426q14 30 47 99h-48zM34 277q12 39 23.5 46.5t64.5 7.5q11 18 29 58h-141v-112h24zM15 136q-9 5 -9 21q0 31 19 91h-165v-112h155zM10 87q4 8 11 24h-11v-24zM139 -42q-10 -6 -19 -6q-30 0 -75 18h-185v-112h279v100z
M223 111q-15 -38 -50 -112h116v112h-66zM342 136q2 36 4 68q-29 -58 -54 -68h50zM340 -1v10q0 54 1 102h-24v-112h23zM437 -52h-19q-51 0 -68 22h-183v-112h270v90zM519 111q-3 -64 -3 -112h71v112h-68zM527 262q-3 -45 -7 -136h82v-142h-86q-2 -31 -64 -35v-101h150v-152
h-607v147h-150v142h150v17q-7 9 -7 18q0 12 7 32v69h-150v142h150v136h-150v141h150v134h-150v141h150v149h607v-152h-150v-101q47 -11 61 -32h89v-142h-76l3 -133h73v-142h-75zM529 375q0 -43 -2 -98h60v112h-58v-14zM332 389l-15 -45v-18h41l7 63h-33zM372 497
q-16 -38 -32 -83h27q5 47 5 83zM543 848q0 -16 -18 -22q-57 -22 -113 -43q-85 -31 -109 -31q-16 0 -28.5 11t-12.5 27q0 26 89 82q83 53 106 53q18 0 52 -30.5t34 -46.5z" />
    <glyph glyph-name="Acircumflex" unicode="&#xc2;" 
d="M140 689v111h-280v-111h280zM139 414v111h-279v-111h279zM587 -279v112h-270v-112h270zM289 -279v112h-279v-112h279zM587 827v112h-270v-112h270zM289 827v112h-279v-112h279zM520 664q4 -11 6 -106v-6h61v112h-67zM306 689q26 36 56 36q20 0 66 -9l9 -2v86h-269v-111
h138zM228 552q36 71 61 112v0h-279v-112h218zM168 426q14 30 47 99h-48zM34 277q12 39 23.5 46.5t64.5 7.5q11 18 29 58h-141v-112h24zM15 136q-9 5 -9 21q0 31 19 91h-165v-112h155zM10 87q4 8 11 24h-11v-24zM139 -42q-10 -6 -19 -6q-30 0 -75 18h-185v-112h279v100z
M223 111q-15 -38 -50 -112h116v112h-66zM342 136q2 36 4 68q-29 -58 -54 -68h50zM340 -1v10q0 54 1 102h-24v-112h23zM437 -52h-19q-51 0 -68 22h-183v-112h270v90zM519 111q-3 -64 -3 -112h71v112h-68zM527 262q-3 -45 -7 -136h82v-142h-86q-2 -31 -64 -35v-101h150v-152
h-607v147h-150v142h150v17q-7 9 -7 18q0 12 7 32v69h-150v142h150v136h-150v141h150v134h-150v141h150v149h607v-152h-150v-101q47 -11 61 -32h89v-142h-76l3 -133h73v-142h-75zM529 375q0 -43 -2 -98h60v112h-58v-14zM332 389l-15 -45v-18h41l7 63h-33zM372 497
q-16 -38 -32 -83h27q5 47 5 83zM595 802q-1 -14 -13.5 -25t-27.5 -11q-29 -2 -65 15q-50 24 -60 27q-57 -22 -139 -45q-15 -1 -27 9.5t-11 25.5q0 26 83 78q77 49 100 50q25 1 91 -46q70 -50 69 -78z" />
    <glyph glyph-name="Atilde" unicode="&#xc3;" 
d="M140 689v111h-280v-111h280zM139 414v111h-279v-111h279zM587 -279v112h-270v-112h270zM289 -279v112h-279v-112h279zM587 827v112h-270v-112h270zM289 827v112h-279v-112h279zM520 664q4 -11 6 -106v-6h61v112h-67zM306 689q26 36 56 36q20 0 66 -9l9 -2v86h-269v-111
h138zM228 552q36 71 61 112v0h-279v-112h218zM168 426q14 30 47 99h-48zM34 277q12 39 23.5 46.5t64.5 7.5q11 18 29 58h-141v-112h24zM15 136q-9 5 -9 21q0 31 19 91h-165v-112h155zM10 87q4 8 11 24h-11v-24zM139 -42q-10 -6 -19 -6q-30 0 -75 18h-185v-112h279v100z
M223 111q-15 -38 -50 -112h116v112h-66zM342 136q2 36 4 68q-29 -58 -54 -68h50zM340 -1v10q0 54 1 102h-24v-112h23zM437 -52h-19q-51 0 -68 22h-183v-112h270v90zM519 111q-3 -64 -3 -112h71v112h-68zM527 262q-3 -45 -7 -136h82v-142h-86q-2 -31 -64 -35v-101h150v-152
h-607v147h-150v142h150v17q-7 9 -7 18q0 12 7 32v69h-150v142h150v136h-150v141h150v134h-150v141h150v149h607v-152h-150v-101q47 -11 61 -32h89v-142h-76l3 -133h73v-142h-75zM529 375q0 -43 -2 -98h60v112h-58v-14zM332 389l-15 -45v-18h41l7 63h-33zM372 497
q-16 -38 -32 -83h27q5 47 5 83zM629 853q0 -26 -24 -46.5t-47.5 -40t-54.5 -19.5q-22 0 -58.5 19.5t-57.5 19.5q-6 0 -10 -1q-16 -11 -51 -26q-63 10 -63 45q0 11 15 24l22 20q49 55 91 55q28 0 69 -19.5t50 -19.5q13 0 36 18.5t41 18.5q42 0 42 -48z" />
    <glyph glyph-name="Adieresis" unicode="&#xc4;" 
d="M140 689v111h-280v-111h280zM139 414v111h-279v-111h279zM587 -279v112h-270v-112h270zM289 -279v112h-279v-112h279zM587 827v112h-270v-112h270zM289 827v112h-279v-112h279zM520 664q4 -11 6 -106v-6h61v112h-67zM306 689q26 36 56 36q20 0 66 -9l9 -2v86h-269v-111
h138zM228 552q36 71 61 112v0h-279v-112h218zM168 426q14 30 47 99h-48zM34 277q12 39 23.5 46.5t64.5 7.5q11 18 29 58h-141v-112h24zM15 136q-9 5 -9 21q0 31 19 91h-165v-112h155zM10 87q4 8 11 24h-11v-24zM139 -42q-10 -6 -19 -6q-30 0 -75 18h-185v-112h279v100z
M223 111q-15 -38 -50 -112h116v112h-66zM342 136q2 36 4 68q-29 -58 -54 -68h50zM340 -1v10q0 54 1 102h-24v-112h23zM437 -52h-19q-51 0 -68 22h-183v-112h270v90zM519 111q-3 -64 -3 -112h71v112h-68zM527 262q-3 -45 -7 -136h82v-142h-86q-2 -31 -64 -35v-101h150v-152
h-607v147h-150v142h150v17q-7 9 -7 18q0 12 7 32v69h-150v142h150v136h-150v141h150v134h-150v141h150v149h607v-152h-150v-101q47 -11 61 -32h89v-142h-76l3 -133h73v-142h-75zM529 375q0 -43 -2 -98h60v112h-58v-14zM332 389l-15 -45v-18h41l7 63h-33zM372 497
q-16 -38 -32 -83h27q5 47 5 83zM601 865q0 -108 -95 -108q-53 0 -53 65q0 44 25.5 73t68.5 29q54 0 54 -59zM395 865q0 -108 -95 -108q-53 0 -53 65q0 44 26 73t69 29q53 0 53 -59z" />
    <glyph glyph-name="Aring" unicode="&#xc5;" 
d="M140 689v111h-280v-111h280zM139 414v111h-279v-111h279zM587 -279v112h-270v-112h270zM289 -279v112h-279v-112h279zM587 827v112h-270v-112h270zM289 827v112h-279v-112h279zM520 664q4 -11 6 -106v-6h61v112h-67zM306 689q26 36 56 36q20 0 66 -9l9 -2v86h-269v-111
h138zM228 552q36 71 61 112v0h-279v-112h218zM168 426q14 30 47 99h-48zM34 277q12 39 23.5 46.5t64.5 7.5q11 18 29 58h-141v-112h24zM15 136q-9 5 -9 21q0 31 19 91h-165v-112h155zM10 87q4 8 11 24h-11v-24zM139 -42q-10 -6 -19 -6q-30 0 -75 18h-185v-112h279v100z
M223 111q-15 -38 -50 -112h116v112h-66zM342 136q2 36 4 68q-29 -58 -54 -68h50zM340 -1v10q0 54 1 102h-24v-112h23zM437 -52h-19q-51 0 -68 22h-183v-112h270v90zM519 111q-3 -64 -3 -112h71v112h-68zM527 262q-3 -45 -7 -136h82v-142h-86q-2 -31 -64 -35v-101h150v-152
h-607v147h-150v142h150v17q-7 9 -7 18q0 12 7 32v69h-150v142h150v136h-150v141h150v134h-150v141h150v149h607v-152h-150v-101q47 -11 61 -32h89v-142h-76l3 -133h73v-142h-75zM529 375q0 -43 -2 -98h60v112h-58v-14zM332 389l-15 -45v-18h41l7 63h-33zM372 497
q-16 -38 -32 -83h27q5 47 5 83zM435 733q-44 0 -71 33.5t-23 76.5q4 44 38 78t78 34q45 0 72.5 -32t23.5 -78q-4 -45 -38.5 -78.5t-79.5 -33.5zM455 885q-15 0 -26.5 -13t-13.5 -29q-1 -14 7.5 -25t21.5 -11q15 0 28 13t15 29q1 15 -8 25.5t-24 10.5z" />
    <glyph glyph-name="AE" unicode="&#xc6;" 
d="M142 689v111h-280v-111h280zM141 414v111h-279v-111h279zM589 -279v112h-270v-112h270zM291 -279v112h-279v-112h279zM589 827v112h-270v-112h270zM291 827v112h-279v-112h279zM305 689q32 43 74 43q27 0 60 -1v69h-269v-111h135zM225 552l31 53q11 20 33 59h-277v-112
h213zM169 454q16 30 40 71h-40v-71zM24 277q16 41 27 49.5t55 8.5q13 20 30 54h-124v-112h12zM-5 136q-10 5 -9 18q0 27 27 94h-151v-112h133zM79 -30q-14 -17 -32 -17q-21 0 -55 17h-130v-112h279v112h-62zM256 136q8 40 15 72q-19 -32 -28 -43q-16 -22 -33 -29h46zM235 -1
q2 31 16 112h-98q-29 -56 -56 -112h138zM439 -49q-177 1 -179 2q-13 6 -19 17h-72v-112h270v93zM574 111q5 -9 5 -22q-1 -25 -17 -90h27v112h-15zM439 230l-31 -1q-5 -32 -19 -93h50v94zM694 684q-1 -26 -12 -71q-16 -63 -18 -66q-10 -18 -47 -18q-16 0 -163 7v-34
q9 -9 8 -22q0 -14 -8 -48v-16l61 -1h18q16 1 26 1q72 0 71 -41q-2 -35 -22 -101q-2 -11 -10 -31q-6 -11 -31 -14q-19 -2 -51 -1q-45 2 -41 2h-21v-102l61 1q24 0 35 -3h54v-142h-47q-12 -34 -51 -34l-52 1v-103h150v-152h-607v147h-150v142h121q-19 16 -18 31q0 14 44 105
h-147v142h150v136h-150v141h150v134h-150v141h150v149h607v-152h-150v-81q219 -3 232 -14q9 -9 8 -33zM284 389q-11 -26 -23 -58h30v58h-7zM336 504q-20 -41 -41 -90h22q14 59 19 90z" />
    <glyph glyph-name="Ccedilla" unicode="&#xc7;" horiz-adv-x="606" 
d="M589 277v112h-270v-112h270zM142 689v111h-280v-111h280zM141 -142v112h-279v-112h279zM589 -279v112h-270v-112h270zM291 -279v112h-279v-112h279zM589 827v112h-270v-112h270zM291 827v112h-279v-112h279zM582 664q4 -4 7 -9v9h-7zM264 689q65 41 141 41q17 0 34 -2v72
h-269v-111h94zM138 552q41 69 92 112h-218v-112h126zM78 414q19 59 46 111h-262v-111h216zM48 277q8 60 19 99l3 13h-58v-112h36zM51 136q-8 40 -8 84q0 11 2 28h-183v-112h189zM112 -1q-39 42 -56 112h-44v-112h100zM358 -30q-54 -25 -114 -25q-41 0 -75 14v-101h270v112
h-81zM501 111q-37 -69 -95 -112h183v112h-88zM240 248q-5 -33 -5 -52q0 -17 14 -33q15 -20 37 -20q6 0 13 2q29 7 47 44q27 54 31 59h-137zM271 389q-16 -54 -26 -112h46v112h-20zM439 447q-11 9 -14 23q11 42 11 51v4h-102q-29 -33 -55 -111h160v33zM613 581
q0 -76 -27 -108q-29 -36 -104 -36q-16 0 -28 4v-37h150v-142h-89q24 -11 24 -34q0 -21 -13 -60q-8 -22 -18 -42h96v-142h-150v-136h150v-152h-607v147h-150v142h150v136h-150v142h150v136h-150v141h150v134h-150v141h150v149h607v-152h-150v-86q70 -11 112 -47h38v-51
q9 -22 9 -47zM327 -16q0 -110 -104 -190q-51 -40 -70 -40q-40 0 -40 31q0 8 4 16q21 27 41 54q29 38 29 56q0 16 -11.5 42.5t-11.5 38.5q0 45 76 45q47 0 61 -5q26 -10 26 -48z" />
    <glyph glyph-name="Egrave" unicode="&#xc8;" horiz-adv-x="605" 
d="M142 689v111h-280v-111h280zM141 414v111h-279v-111h279zM589 -279v112h-270v-112h270zM291 -279v112h-279v-112h279zM589 827v112h-270v-112h270zM291 827v112h-279v-112h279zM170 705q20 16 71 16h119q33 0 79 -2v81h-269v-95zM120 552v2q-1 7 13 58q4 19 14 52h-135
v-112h108zM169 488q6 23 11 37h-6h-5v-37zM57 277q5 75 37 112h-82v-112h45zM70 136l24 87q-29 0 -36 25h-196v-112h208zM90 -1q-28 35 -28 76q0 17 3 36h-53v-112h78zM141 -41q-11 5 -20 11h-259v-112h279v101zM439 -39q-15 -11 -45 -11h-50q-35 2 -49 2q-44 -4 -126 0v-94
h270v103zM476 111q7 -8 7 -21q0 -25 -20 -91h126v112h-113zM439 225l-80 1l-69 -1q-8 -30 -25 -89h174v89zM544 389q5 -7 5 -16q0 -7 -17 -70l-6 -26h63v112h-45zM284 525q74 -28 74 -48q0 -12 -14 -63h95v111h-155zM630 680q0 -22 -16 -75q-1 -3 -10 -35v-33h-14
q-13 -15 -55 -15q-32 0 -81 3v-114q42 0 65 -7h85v-142h-83q-13 -38 -64 -37h-3v-99h150v-142h-147q-1 -3 -3 -6v-130h150v-152h-607v147h-150v142h150v136h-150v142h150v136h-150v141h150v134h-150v141h150v149h607v-152h-150v-93l26 -1q6 0 26 1t33 1q91 0 91 -40z
M540 764q0 -15 -13 -25.5t-29 -10.5q-24 0 -109 31q-56 21 -112 43q-18 6 -18 22t34 46.5t52 30.5q24 0 107 -54q88 -56 88 -83z" />
    <glyph glyph-name="Eacute" unicode="&#xc9;" horiz-adv-x="605" 
d="M142 689v111h-280v-111h280zM141 414v111h-279v-111h279zM589 -279v112h-270v-112h270zM291 -279v112h-279v-112h279zM589 827v112h-270v-112h270zM291 827v112h-279v-112h279zM170 705q20 16 71 16h119q33 0 79 -2v81h-269v-95zM120 552v2q-1 7 13 58q4 19 14 52h-135
v-112h108zM169 488q6 23 11 37h-6h-5v-37zM57 277q5 75 37 112h-82v-112h45zM70 136l24 87q-29 0 -36 25h-196v-112h208zM90 -1q-28 35 -28 76q0 17 3 36h-53v-112h78zM141 -41q-11 5 -20 11h-259v-112h279v101zM439 -39q-15 -11 -45 -11h-50q-35 2 -49 2q-44 -4 -126 0v-94
h270v103zM476 111q7 -8 7 -21q0 -25 -20 -91h126v112h-113zM439 225l-80 1l-69 -1q-8 -30 -25 -89h174v89zM544 389q5 -7 5 -16q0 -7 -17 -70l-6 -26h63v112h-45zM284 525q74 -28 74 -48q0 -12 -14 -63h95v111h-155zM630 680q0 -22 -16 -75q-1 -3 -10 -35v-33h-14
q-13 -15 -55 -15q-32 0 -81 3v-114q42 0 65 -7h85v-142h-83q-13 -38 -64 -37h-3v-99h150v-142h-147q-1 -3 -3 -6v-130h150v-152h-607v147h-150v142h150v136h-150v142h150v136h-150v141h150v134h-150v141h150v149h607v-152h-150v-93l26 -1q6 0 26 1t33 1q91 0 91 -40z
M545 848q0 -16 -18 -22q-57 -22 -113 -43q-85 -31 -109 -31q-16 0 -28.5 11t-12.5 27q0 26 89 82q83 53 106 53q18 0 52 -30.5t34 -46.5z" />
    <glyph glyph-name="Ecircumflex" unicode="&#xca;" horiz-adv-x="605" 
d="M142 689v111h-280v-111h280zM141 414v111h-279v-111h279zM589 -279v112h-270v-112h270zM291 -279v112h-279v-112h279zM589 827v112h-270v-112h270zM291 827v112h-279v-112h279zM170 705q20 16 71 16h119q33 0 79 -2v81h-269v-95zM120 552v2q-1 7 13 58q4 19 14 52h-135
v-112h108zM169 488q6 23 11 37h-6h-5v-37zM57 277q5 75 37 112h-82v-112h45zM70 136l24 87q-29 0 -36 25h-196v-112h208zM90 -1q-28 35 -28 76q0 17 3 36h-53v-112h78zM141 -41q-11 5 -20 11h-259v-112h279v101zM439 -39q-15 -11 -45 -11h-50q-35 2 -49 2q-44 -4 -126 0v-94
h270v103zM476 111q7 -8 7 -21q0 -25 -20 -91h126v112h-113zM439 225l-80 1l-69 -1q-8 -30 -25 -89h174v89zM544 389q5 -7 5 -16q0 -7 -17 -70l-6 -26h63v112h-45zM284 525q74 -28 74 -48q0 -12 -14 -63h95v111h-155zM630 680q0 -22 -16 -75q-1 -3 -10 -35v-33h-14
q-13 -15 -55 -15q-32 0 -81 3v-114q42 0 65 -7h85v-142h-83q-13 -38 -64 -37h-3v-99h150v-142h-147q-1 -3 -3 -6v-130h150v-152h-607v147h-150v142h150v136h-150v142h150v136h-150v141h150v134h-150v141h150v149h607v-152h-150v-93l26 -1q6 0 26 1t33 1q91 0 91 -40z
M617 802q-1 -14 -13.5 -25t-27.5 -11q-29 -2 -65 15q-50 24 -60 27q-57 -22 -139 -45q-15 -1 -27 9.5t-11 25.5q0 26 83 78q77 49 100 50q25 1 91 -46q70 -50 69 -78z" />
    <glyph glyph-name="Edieresis" unicode="&#xcb;" horiz-adv-x="605" 
d="M142 689v111h-280v-111h280zM141 414v111h-279v-111h279zM589 -279v112h-270v-112h270zM291 -279v112h-279v-112h279zM589 827v112h-270v-112h270zM291 827v112h-279v-112h279zM170 705q20 16 71 16h119q33 0 79 -2v81h-269v-95zM120 552v2q-1 7 13 58q4 19 14 52h-135
v-112h108zM169 488q6 23 11 37h-6h-5v-37zM57 277q5 75 37 112h-82v-112h45zM70 136l24 87q-29 0 -36 25h-196v-112h208zM90 -1q-28 35 -28 76q0 17 3 36h-53v-112h78zM141 -41q-11 5 -20 11h-259v-112h279v101zM439 -39q-15 -11 -45 -11h-50q-35 2 -49 2q-44 -4 -126 0v-94
h270v103zM476 111q7 -8 7 -21q0 -25 -20 -91h126v112h-113zM439 225l-80 1l-69 -1q-8 -30 -25 -89h174v89zM544 389q5 -7 5 -16q0 -7 -17 -70l-6 -26h63v112h-45zM284 525q74 -28 74 -48q0 -12 -14 -63h95v111h-155zM630 680q0 -22 -16 -75q-1 -3 -10 -35v-33h-14
q-13 -15 -55 -15q-32 0 -81 3v-114q42 0 65 -7h85v-142h-83q-13 -38 -64 -37h-3v-99h150v-142h-147q-1 -3 -3 -6v-130h150v-152h-607v147h-150v142h150v136h-150v142h150v136h-150v141h150v134h-150v141h150v149h607v-152h-150v-93l26 -1q6 0 26 1t33 1q91 0 91 -40z
M603 865q0 -108 -95 -108q-53 0 -53 65q0 44 25.5 73t68.5 29q54 0 54 -59zM397 865q0 -108 -95 -108q-53 0 -53 65q0 44 26 73t69 29q53 0 53 -59z" />
    <glyph glyph-name="Igrave" unicode="&#xcc;" horiz-adv-x="309" 
d="M-155 -157v142h150v1q-14 16 -14 35q0 17 14 74v26h-150v142h150v136h-150v141h150v134h-150v141h150v149h310v-152h-149v-133h13q9 18 16 24q12 8 39 8q143 0 143 -57q0 -33 -67 -250h5v-142h-44l-34 -136h78v-142h-114q-11 -31 -36 -38v-98h150v-152h-310v147h-150z
M163 664h-152v-112h115q21 74 37 112zM141 689v111h-281v-111h281zM80 389h-69v-112h35zM290 277v93l-4 -11q-6 -22 -21 -82h25zM118 525h-258v-111h227l8 25q6 24 23 86zM290 -1v112h-66l-29 -112h95zM38 248h-178v-112h146q13 46 32 112zM290 -279v112h-279v-112h279z
M140 -142v86h-7q-70 0 -116 26h-157v-112h280zM290 827v112h-279v-112h279zM418 764q0 -15 -13 -25.5t-29 -10.5q-24 0 -109 31q-56 21 -112 43q-18 6 -18 22t34 46.5t52 30.5q24 0 107 -54q88 -56 88 -83z" />
    <glyph glyph-name="Iacute" unicode="&#xcd;" horiz-adv-x="309" 
d="M-155 -157v142h150v1q-14 16 -14 35q0 17 14 74v26h-150v142h150v136h-150v141h150v134h-150v141h150v149h310v-152h-149v-133h13q9 18 16 24q12 8 39 8q143 0 143 -57q0 -33 -67 -250h5v-142h-44l-34 -136h78v-142h-114q-11 -31 -36 -38v-98h150v-152h-310v147h-150z
M163 664h-152v-112h115q21 74 37 112zM141 689v111h-281v-111h281zM80 389h-69v-112h35zM290 277v93l-4 -11q-6 -22 -21 -82h25zM118 525h-258v-111h227l8 25q6 24 23 86zM290 -1v112h-66l-29 -112h95zM38 248h-178v-112h146q13 46 32 112zM290 -279v112h-279v-112h279z
M140 -142v86h-7q-70 0 -116 26h-157v-112h280zM290 827v112h-279v-112h279zM443 848q0 -16 -18 -22q-57 -22 -113 -43q-85 -31 -109 -31q-16 0 -28.5 11t-12.5 27q0 26 89 82q83 53 106 53q18 0 52 -30.5t34 -46.5z" />
    <glyph glyph-name="Icircumflex" unicode="&#xce;" horiz-adv-x="309" 
d="M-155 -157v142h150v1q-14 16 -14 35q0 17 14 74v26h-150v142h150v136h-150v141h150v134h-150v141h150v149h310v-152h-149v-133h13q9 18 16 24q12 8 39 8q143 0 143 -57q0 -33 -67 -250h5v-142h-44l-34 -136h78v-142h-114q-11 -31 -36 -38v-98h150v-152h-310v147h-150z
M163 664h-152v-112h115q21 74 37 112zM141 689v111h-281v-111h281zM80 389h-69v-112h35zM290 277v93l-4 -11q-6 -22 -21 -82h25zM118 525h-258v-111h227l8 25q6 24 23 86zM290 -1v112h-66l-29 -112h95zM38 248h-178v-112h146q13 46 32 112zM290 -279v112h-279v-112h279z
M140 -142v86h-7q-70 0 -116 26h-157v-112h280zM290 827v112h-279v-112h279zM465 802q-1 -14 -13.5 -25t-27.5 -11q-29 -2 -65 15q-50 24 -60 27q-57 -22 -139 -45q-15 -1 -27 9.5t-11 25.5q0 26 83 78q77 49 100 50q25 1 91 -46q70 -50 69 -78z" />
    <glyph glyph-name="Idieresis" unicode="&#xcf;" horiz-adv-x="309" 
d="M-155 -157v142h150v1q-14 16 -14 35q0 17 14 74v26h-150v142h150v136h-150v141h150v134h-150v141h150v149h310v-152h-149v-133h13q9 18 16 24q12 8 39 8q143 0 143 -57q0 -33 -67 -250h5v-142h-44l-34 -136h78v-142h-114q-11 -31 -36 -38v-98h150v-152h-310v147h-150z
M163 664h-152v-112h115q21 74 37 112zM141 689v111h-281v-111h281zM80 389h-69v-112h35zM290 277v93l-4 -11q-6 -22 -21 -82h25zM118 525h-258v-111h227l8 25q6 24 23 86zM290 -1v112h-66l-29 -112h95zM38 248h-178v-112h146q13 46 32 112zM290 -279v112h-279v-112h279z
M140 -142v86h-7q-70 0 -116 26h-157v-112h280zM290 827v112h-279v-112h279zM471 865q0 -108 -95 -108q-53 0 -53 65q0 44 25.5 73t68.5 29q54 0 54 -59zM265 865q0 -108 -95 -108q-53 0 -53 65q0 44 26 73t69 29q53 0 53 -59z" />
    <glyph glyph-name="Eth" unicode="&#xd0;" horiz-adv-x="606" 
d="M589 -279v112h-270v-112h270zM291 -279v112h-279v-112h279zM589 827v112h-270v-112h270zM291 827v112h-279v-112h279zM39 136q7 44 24 112h-201v-112h177zM92 -1q-5 6 -10 13l-30 36q-18 24 -18 41q0 10 2 22h-24v-112h80zM141 -43q-10 5 -19 13h-260v-112h279v99z
M325 -30q-66 -30 -116 -30q-22 0 -40 5v-87h270v112h-114zM516 111q-60 -69 -135 -112h208v112h-73zM514 664q46 -31 75 -74v74h-75zM454 696q19 -8 36 -17h114v-114q35 -65 35 -149q0 -154 -110 -290h75v-142h-150v-136h150v-152h-607v147h-150v142h150v136h-150v142h150
v136h-150v141h150v134h-150v141h150v149h607v-152h-150v-116zM170 710q50 15 125 15q78 0 144 -23v98h-269v-90zM125 689q8 5 17 10v101h-280v-111h263zM63 552q12 36 32 98q2 7 6 14h-89v-112h51zM108 414l32 109q-14 -1 -37 -11t-29 -10q-16 0 -16 17v6h-196v-111h246z
M37 277q-3 7 -3 16q0 11 6 27q6 21 13 43q6 18 14 26h-55v-112h25zM433 414q-5 74 -65 111h-81q35 -20 35 -50q0 -23 -4 -61h115zM281 248q-15 -31 -38 -98q89 16 144 98h-106zM397 382q0 -12 -7 -33l-10 -32q-7 -28 -18 -40h42q27 53 30 112h-38q1 -3 1 -7z" />
    <glyph glyph-name="Ntilde" unicode="&#xd1;" horiz-adv-x="597" 
d="M142 689v111h-280v-111h280zM589 -279v112h-270v-112h270zM291 -279v112h-279v-112h279zM589 827v112h-270v-112h270zM291 827v112h-279v-112h279zM396 389q2 -24 6 -62q7 29 15 62h-21zM379 525q8 -45 14 -111h30l16 74v37h-60zM334 664q24 -33 40 -112h79q15 63 27 112
h-146zM170 705q12 18 24 18q49 0 111 -34h134v111h-269v-95zM117 552q19 74 33 112h-138v-112h105zM82 414l29 111h-249v-111h220zM48 277l28 112h-64v-112h36zM9 136q10 38 31 112h-178v-112h147zM141 -39q-11 -7 -26 -7q-51 0 -91 16h-162v-112h279v103zM198 111
q-15 -60 -32 -112h125v112h-93zM270 277q-4 37 -13 112h-9q-9 -66 -17 -112h39zM289 136q-6 37 -16 112h-47q-11 -61 -22 -112h85zM439 -46q-59 0 -90 16h-180v-112h270v96zM522 111q-28 -82 -28 -95q0 -6 3 -17h92v112h-67zM589 341q-8 -30 -18 -64h18v64zM657 649
q0 -53 -53 -253v-134h-37q-15 -51 -38 -131l-2 -5h77v-142h-104q1 -2 1 -3q0 -24 -47 -26v-107h150v-152h-607v147h-150v142h150v2q-13 12 -13 29q0 16 13 71v34h-150v142h150v136h-150v141h150v134h-150v141h150v149h607v-152h-150v-133h30l5 16q6 24 41 24q40 0 78 -16
q49 -20 49 -54zM601 853q0 -26 -24 -46.5t-47.5 -40t-54.5 -19.5q-22 0 -58.5 19.5t-57.5 19.5q-6 0 -10 -1q-16 -11 -51 -26q-63 10 -63 45q0 11 15 24l22 20q49 55 91 55q28 0 69 -19.5t50 -19.5q13 0 36 18.5t41 18.5q42 0 42 -48z" />
    <glyph glyph-name="Ograve" unicode="&#xd2;" horiz-adv-x="604" 
d="M142 689v111h-280v-111h280zM141 -142v112h-279v-112h279zM589 -279v112h-270v-112h270zM291 -279v112h-279v-112h279zM589 827v112h-270v-112h270zM291 827v112h-279v-112h279zM432 664q-1 -16 -1 -24q8 7 27 24h-26zM260 689q11 7 23 13q67 33 115 33q37 0 37 -29
q0 -8 -1 -17h5v111h-269v-111h90zM130 552q41 68 94 112h-212v-112h118zM70 414q18 60 45 111h-253v-111h208zM43 277q5 56 20 112h-51v-112h31zM50 136q-9 41 -9 85v27h-179v-112h188zM126 -1q-47 43 -69 112h-45v-112h114zM385 -30q-52 -28 -105 -28q-62 0 -111 26v-110
h270v112h-54zM531 111q-40 -63 -103 -112h161v112h-58zM634 496q0 -109 -30 -217v-17h-5q-23 -76 -59 -136h64v-142h-150v-136h150v-152h-607v147h-150v142h150v136h-150v142h150v136h-150v141h150v134h-150v141h150v149h607v-152h-150v-133h22q56 47 78 47q45 0 66 -95
q14 -61 14 -135zM395 277q19 49 28 112h-104v-112h76zM237 248v-14q0 -88 54 -88q36 0 79 77q7 12 13 25h-146zM268 389q-23 -53 -29 -112h52v112h-23zM423 552q-5 18 -11 32q-3 -15 -11 -32h22zM431 474q1 23 -3 51h-54q-59 -45 -94 -111h146zM550 764q0 -15 -13 -25.5
t-29 -10.5q-24 0 -109 31q-56 21 -112 43q-18 6 -18 22t34 46.5t52 30.5q24 0 107 -54q88 -56 88 -83z" />
    <glyph glyph-name="Oacute" unicode="&#xd3;" horiz-adv-x="604" 
d="M142 689v111h-280v-111h280zM141 -142v112h-279v-112h279zM589 -279v112h-270v-112h270zM291 -279v112h-279v-112h279zM589 827v112h-270v-112h270zM291 827v112h-279v-112h279zM432 664q-1 -16 -1 -24q8 7 27 24h-26zM260 689q11 7 23 13q67 33 115 33q37 0 37 -29
q0 -8 -1 -17h5v111h-269v-111h90zM130 552q41 68 94 112h-212v-112h118zM70 414q18 60 45 111h-253v-111h208zM43 277q5 56 20 112h-51v-112h31zM50 136q-9 41 -9 85v27h-179v-112h188zM126 -1q-47 43 -69 112h-45v-112h114zM385 -30q-52 -28 -105 -28q-62 0 -111 26v-110
h270v112h-54zM531 111q-40 -63 -103 -112h161v112h-58zM634 496q0 -109 -30 -217v-17h-5q-23 -76 -59 -136h64v-142h-150v-136h150v-152h-607v147h-150v142h150v136h-150v142h150v136h-150v141h150v134h-150v141h150v149h607v-152h-150v-133h22q56 47 78 47q45 0 66 -95
q14 -61 14 -135zM395 277q19 49 28 112h-104v-112h76zM237 248v-14q0 -88 54 -88q36 0 79 77q7 12 13 25h-146zM268 389q-23 -53 -29 -112h52v112h-23zM423 552q-5 18 -11 32q-3 -15 -11 -32h22zM431 474q1 23 -3 51h-54q-59 -45 -94 -111h146zM595 848q0 -16 -18 -22
q-57 -22 -113 -43q-85 -31 -109 -31q-16 0 -28.5 11t-12.5 27q0 26 89 82q83 53 106 53q18 0 52 -30.5t34 -46.5z" />
    <glyph glyph-name="Ocircumflex" unicode="&#xd4;" horiz-adv-x="604" 
d="M142 689v111h-280v-111h280zM141 -142v112h-279v-112h279zM589 -279v112h-270v-112h270zM291 -279v112h-279v-112h279zM589 827v112h-270v-112h270zM291 827v112h-279v-112h279zM432 664q-1 -16 -1 -24q8 7 27 24h-26zM260 689q11 7 23 13q67 33 115 33q37 0 37 -29
q0 -8 -1 -17h5v111h-269v-111h90zM130 552q41 68 94 112h-212v-112h118zM70 414q18 60 45 111h-253v-111h208zM43 277q5 56 20 112h-51v-112h31zM50 136q-9 41 -9 85v27h-179v-112h188zM126 -1q-47 43 -69 112h-45v-112h114zM385 -30q-52 -28 -105 -28q-62 0 -111 26v-110
h270v112h-54zM531 111q-40 -63 -103 -112h161v112h-58zM634 496q0 -109 -30 -217v-17h-5q-23 -76 -59 -136h64v-142h-150v-136h150v-152h-607v147h-150v142h150v136h-150v142h150v136h-150v141h150v134h-150v141h150v149h607v-152h-150v-133h22q56 47 78 47q45 0 66 -95
q14 -61 14 -135zM395 277q19 49 28 112h-104v-112h76zM237 248v-14q0 -88 54 -88q36 0 79 77q7 12 13 25h-146zM268 389q-23 -53 -29 -112h52v112h-23zM423 552q-5 18 -11 32q-3 -15 -11 -32h22zM431 474q1 23 -3 51h-54q-59 -45 -94 -111h146zM627 802q-1 -14 -13.5 -25
t-27.5 -11q-29 -2 -65 15q-50 24 -60 27q-57 -22 -139 -45q-15 -1 -27 9.5t-11 25.5q0 26 83 78q77 49 100 50q25 1 91 -46q70 -50 69 -78z" />
    <glyph glyph-name="Otilde" unicode="&#xd5;" horiz-adv-x="604" 
d="M142 689v111h-280v-111h280zM141 -142v112h-279v-112h279zM589 -279v112h-270v-112h270zM291 -279v112h-279v-112h279zM589 827v112h-270v-112h270zM291 827v112h-279v-112h279zM432 664q-1 -16 -1 -24q8 7 27 24h-26zM260 689q11 7 23 13q67 33 115 33q37 0 37 -29
q0 -8 -1 -17h5v111h-269v-111h90zM130 552q41 68 94 112h-212v-112h118zM70 414q18 60 45 111h-253v-111h208zM43 277q5 56 20 112h-51v-112h31zM50 136q-9 41 -9 85v27h-179v-112h188zM126 -1q-47 43 -69 112h-45v-112h114zM385 -30q-52 -28 -105 -28q-62 0 -111 26v-110
h270v112h-54zM531 111q-40 -63 -103 -112h161v112h-58zM634 496q0 -109 -30 -217v-17h-5q-23 -76 -59 -136h64v-142h-150v-136h150v-152h-607v147h-150v142h150v136h-150v142h150v136h-150v141h150v134h-150v141h150v149h607v-152h-150v-133h22q56 47 78 47q45 0 66 -95
q14 -61 14 -135zM395 277q19 49 28 112h-104v-112h76zM237 248v-14q0 -88 54 -88q36 0 79 77q7 12 13 25h-146zM268 389q-23 -53 -29 -112h52v112h-23zM423 552q-5 18 -11 32q-3 -15 -11 -32h22zM431 474q1 23 -3 51h-54q-59 -45 -94 -111h146zM631 853q0 -26 -24 -46.5
t-47.5 -40t-54.5 -19.5q-22 0 -58.5 19.5t-57.5 19.5q-6 0 -10 -1q-16 -11 -51 -26q-63 10 -63 45q0 11 15 24l22 20q49 55 91 55q28 0 69 -19.5t50 -19.5q13 0 36 18.5t41 18.5q42 0 42 -48z" />
    <glyph glyph-name="Odieresis" unicode="&#xd6;" 
d="M142 689v111h-280v-111h280zM141 -142v112h-279v-112h279zM589 -279v112h-270v-112h270zM291 -279v112h-279v-112h279zM589 827v112h-270v-112h270zM291 827v112h-279v-112h279zM432 664q-1 -16 -1 -24q8 7 27 24h-26zM260 689q11 7 23 13q67 33 115 33q37 0 37 -29
q0 -8 -1 -17h5v111h-269v-111h90zM130 552q41 68 94 112h-212v-112h118zM70 414q18 60 45 111h-253v-111h208zM43 277q5 56 20 112h-51v-112h31zM50 136q-9 41 -9 85v27h-179v-112h188zM126 -1q-47 43 -69 112h-45v-112h114zM385 -30q-52 -28 -105 -28q-62 0 -111 26v-110
h270v112h-54zM531 111q-40 -63 -103 -112h161v112h-58zM634 496q0 -109 -30 -217v-17h-5q-23 -76 -59 -136h64v-142h-150v-136h150v-152h-607v147h-150v142h150v136h-150v142h150v136h-150v141h150v134h-150v141h150v149h607v-152h-150v-133h22q56 47 78 47q45 0 66 -95
q14 -61 14 -135zM395 277q19 49 28 112h-104v-112h76zM237 248v-14q0 -88 54 -88q36 0 79 77q7 12 13 25h-146zM268 389q-23 -53 -29 -112h52v112h-23zM423 552q-5 18 -11 32q-3 -15 -11 -32h22zM431 474q1 23 -3 51h-54q-59 -45 -94 -111h146zM643 865q0 -108 -95 -108
q-53 0 -53 65q0 44 25.5 73t68.5 29q54 0 54 -59zM437 865q0 -108 -95 -108q-53 0 -53 65q0 44 26 73t69 29q53 0 53 -59z" />
    <glyph glyph-name="Oslash" unicode="&#xd8;" 
d="M142 689v111h-280v-111h280zM141 -142v112h-279v-112h279zM589 -279v112h-270v-112h270zM291 -279v112h-279v-112h279zM589 827v112h-270v-112h270zM291 827v112h-279v-112h279zM426 664q-1 -10 -1 -16q4 3 19 16h-18zM239 689q18 12 36 21q68 34 117 34q37 0 37 -29
q0 -11 -1 -26h11v111h-269v-111h69zM117 552q39 67 90 112h-195v-112h105zM59 414q17 59 43 111h-240v-111h197zM33 277q5 56 19 112h-40v-112h21zM40 136q-9 40 -9 88q0 12 1 24h-170v-112h178zM16 -1q0 18 17 40l30 34q-9 18 -16 38h-35v-112h4zM119 -1l-18 18
q-4 -5 -15 -18h33zM376 -30q-50 -28 -103 -28q-57 0 -104 23v-107h270v112h-63zM524 111q-40 -63 -104 -112h169v112h-65zM683 711q0 -11 -26 -45q-23 -30 -37 -44q11 -53 11 -120q0 -102 -27 -204v-36h-10q-24 -76 -60 -136h70v-142h-150v-136h150v-152h-607v147h-150v142
h150v136h-150v142h150v136h-150v141h150v134h-150v141h150v149h607v-152h-150v-133h7q64 55 88 55q22 0 44 -33q40 47 55 47l8 -3q27 -20 27 -34zM259 389q-16 -44 -28 -112h3l57 67v45h-32zM418 552q-4 22 -12 39q-4 -18 -14 -39h26zM424 500q-1 14 -2 25h-64
q-58 -46 -88 -111h81zM300 248l-60 -69q17 -30 43 -30q47 0 91 99h-74zM417 385l-92 -108h61q23 61 31 108z" />
    <glyph glyph-name="Ugrave" unicode="&#xd9;" horiz-adv-x="605" 
d="M142 689v111h-280v-111h280zM141 -142v112h-279v-112h279zM589 -279v112h-270v-112h270zM291 -279v112h-279v-112h279zM589 827v112h-270v-112h270zM291 827v112h-279v-112h279zM369 277q14 46 30 112h-80v-112h50zM240 248q-6 -33 -6 -51q0 -19 12.5 -32.5t30.5 -13.5
q8 0 24 2q27 4 58 95h-119zM273 389q-18 -67 -28 -112h46v112h-18zM311 525q-10 -35 -32 -111h126l10 43l17 68h-121zM345 664q-1 -23 -24 -104l-2 -6v-2h120q9 38 30 112h-124zM170 704q16 10 65 10q75 0 101 -25h103v111h-269v-96zM117 552l18 69q4 16 11 43h-134v-112
h105zM82 414l28 111h-248v-111h220zM47 277q2 10 26 100l3 12h-64v-112h35zM37 136q-3 19 -3 39q0 32 8 73h-180v-112h175zM115 -1q-55 43 -73 112h-30v-112h103zM383 -30q-45 -24 -100 -24q-63 0 -114 21v-109h270v112h-56zM507 111q-35 -72 -82 -112h164v112h-82zM589 369
q-7 -30 -23 -92h23v92zM660 670q0 -38 -24 -128l-38 -138h6v-142h-43q-22 -81 -47 -136h90v-142h-150v-136h150v-152h-607v147h-150v142h150v136h-150v142h150v136h-150v141h150v134h-150v141h150v149h607v-152h-150v-133h20q18 44 60 44q126 0 126 -53zM530 764
q0 -15 -13 -25.5t-29 -10.5q-24 0 -109 31q-56 21 -112 43q-18 6 -18 22t34 46.5t52 30.5q24 0 107 -54q88 -56 88 -83z" />
    <glyph glyph-name="Uacute" unicode="&#xda;" horiz-adv-x="605" 
d="M142 689v111h-280v-111h280zM141 -142v112h-279v-112h279zM589 -279v112h-270v-112h270zM291 -279v112h-279v-112h279zM589 827v112h-270v-112h270zM291 827v112h-279v-112h279zM369 277q14 46 30 112h-80v-112h50zM240 248q-6 -33 -6 -51q0 -19 12.5 -32.5t30.5 -13.5
q8 0 24 2q27 4 58 95h-119zM273 389q-18 -67 -28 -112h46v112h-18zM311 525q-10 -35 -32 -111h126l10 43l17 68h-121zM345 664q-1 -23 -24 -104l-2 -6v-2h120q9 38 30 112h-124zM170 704q16 10 65 10q75 0 101 -25h103v111h-269v-96zM117 552l18 69q4 16 11 43h-134v-112
h105zM82 414l28 111h-248v-111h220zM47 277q2 10 26 100l3 12h-64v-112h35zM37 136q-3 19 -3 39q0 32 8 73h-180v-112h175zM115 -1q-55 43 -73 112h-30v-112h103zM383 -30q-45 -24 -100 -24q-63 0 -114 21v-109h270v112h-56zM507 111q-35 -72 -82 -112h164v112h-82zM589 369
q-7 -30 -23 -92h23v92zM660 670q0 -38 -24 -128l-38 -138h6v-142h-43q-22 -81 -47 -136h90v-142h-150v-136h150v-152h-607v147h-150v142h150v136h-150v142h150v136h-150v141h150v134h-150v141h150v149h607v-152h-150v-133h20q18 44 60 44q126 0 126 -53zM565 848
q0 -16 -18 -22q-57 -22 -113 -43q-85 -31 -109 -31q-16 0 -28.5 11t-12.5 27q0 26 89 82q83 53 106 53q18 0 52 -30.5t34 -46.5z" />
    <glyph glyph-name="Ucircumflex" unicode="&#xdb;" horiz-adv-x="605" 
d="M142 689v111h-280v-111h280zM141 -142v112h-279v-112h279zM589 -279v112h-270v-112h270zM291 -279v112h-279v-112h279zM589 827v112h-270v-112h270zM291 827v112h-279v-112h279zM369 277q14 46 30 112h-80v-112h50zM240 248q-6 -33 -6 -51q0 -19 12.5 -32.5t30.5 -13.5
q8 0 24 2q27 4 58 95h-119zM273 389q-18 -67 -28 -112h46v112h-18zM311 525q-10 -35 -32 -111h126l10 43l17 68h-121zM345 664q-1 -23 -24 -104l-2 -6v-2h120q9 38 30 112h-124zM170 704q16 10 65 10q75 0 101 -25h103v111h-269v-96zM117 552l18 69q4 16 11 43h-134v-112
h105zM82 414l28 111h-248v-111h220zM47 277q2 10 26 100l3 12h-64v-112h35zM37 136q-3 19 -3 39q0 32 8 73h-180v-112h175zM115 -1q-55 43 -73 112h-30v-112h103zM383 -30q-45 -24 -100 -24q-63 0 -114 21v-109h270v112h-56zM507 111q-35 -72 -82 -112h164v112h-82zM589 369
q-7 -30 -23 -92h23v92zM660 670q0 -38 -24 -128l-38 -138h6v-142h-43q-22 -81 -47 -136h90v-142h-150v-136h150v-152h-607v147h-150v142h150v136h-150v142h150v136h-150v141h150v134h-150v141h150v149h607v-152h-150v-133h20q18 44 60 44q126 0 126 -53zM587 802
q-1 -14 -13.5 -25t-27.5 -11q-29 -2 -65 15q-50 24 -60 27q-57 -22 -139 -45q-15 -1 -27 9.5t-11 25.5q0 26 83 78q77 49 100 50q25 1 91 -46q70 -50 69 -78z" />
    <glyph glyph-name="Udieresis" unicode="&#xdc;" horiz-adv-x="605" 
d="M142 689v111h-280v-111h280zM141 -142v112h-279v-112h279zM589 -279v112h-270v-112h270zM291 -279v112h-279v-112h279zM589 827v112h-270v-112h270zM291 827v112h-279v-112h279zM369 277q14 46 30 112h-80v-112h50zM240 248q-6 -33 -6 -51q0 -19 12.5 -32.5t30.5 -13.5
q8 0 24 2q27 4 58 95h-119zM273 389q-18 -67 -28 -112h46v112h-18zM311 525q-10 -35 -32 -111h126l10 43l17 68h-121zM345 664q-1 -23 -24 -104l-2 -6v-2h120q9 38 30 112h-124zM170 704q16 10 65 10q75 0 101 -25h103v111h-269v-96zM117 552l18 69q4 16 11 43h-134v-112
h105zM82 414l28 111h-248v-111h220zM47 277q2 10 26 100l3 12h-64v-112h35zM37 136q-3 19 -3 39q0 32 8 73h-180v-112h175zM115 -1q-55 43 -73 112h-30v-112h103zM383 -30q-45 -24 -100 -24q-63 0 -114 21v-109h270v112h-56zM507 111q-35 -72 -82 -112h164v112h-82zM589 369
q-7 -30 -23 -92h23v92zM660 670q0 -38 -24 -128l-38 -138h6v-142h-43q-22 -81 -47 -136h90v-142h-150v-136h150v-152h-607v147h-150v142h150v136h-150v142h150v136h-150v141h150v134h-150v141h150v149h607v-152h-150v-133h20q18 44 60 44q126 0 126 -53zM603 865
q0 -108 -95 -108q-53 0 -53 65q0 44 25.5 73t68.5 29q54 0 54 -59zM397 865q0 -108 -95 -108q-53 0 -53 65q0 44 26 73t69 29q53 0 53 -59z" />
    <glyph glyph-name="Yacute" unicode="&#xdd;" 
d="M139 414v111h-279v-111h279zM139 136v112h-279v-112h279zM139 -142v112h-279v-112h279zM587 -279v112h-270v-112h270zM289 -279v112h-279v-112h279zM587 827v112h-270v-112h270zM289 827v112h-279v-112h279zM341 525l21 -83q9 23 34 83h-55zM317 623q5 -16 7 -30l10 -41
h74q31 72 53 112h-144v-41zM168 723q26 -4 70 -10q25 -4 44 -24h155v111h-269v-77zM104 689q1 35 36 36v75h-280v-111h244zM145 552q-16 38 -39 112h-96v-112h135zM184 414q-10 32 -17 54v-54h17zM227 277q-9 36 -35 112h-182v-112h217zM195 136q19 37 44 86q-2 12 -5 26
h-67v-112h28zM141 -1q-1 3 -1 7q0 17 43 105h-173v-112h131zM323 -30q-22 -23 -48 -23q-41 0 -95 23h-13v-112h270v112h-114zM397 111l-4 -8q-17 -34 -53 -104h247v112h-190zM437 187l-27 -51h27v51zM542 389q-26 -50 -58 -112h103v112h-45zM662 665q0 -36 -113 -261h53
v-142h-126l-24 -47v-89h150v-142h-150v-136h150v-152h-607v147h-150v142h150v136h-150v142h150v136h-150v141h150v134h-150v141h150v149h607v-152h-150v-133h18q10 16 16 23q10 12 22 16q8 2 19 2q36 0 78 -12q57 -16 57 -43zM543 848q0 -16 -18 -22q-57 -22 -113 -43
q-85 -31 -109 -31q-16 0 -28.5 11t-12.5 27q0 26 89 82q83 53 106 53q18 0 52 -30.5t34 -46.5z" />
    <glyph glyph-name="Thorn" unicode="&#xde;" 
d="M142 689v111h-280v-111h280zM589 -279v112h-270v-112h270zM291 -279v112h-279v-112h279zM589 827v112h-270v-112h270zM291 827v112h-279v-112h279zM444 664v0q0 -22 -17 -82q50 -8 92 -30h70v112h-145zM262 689q8 18 15 24q12 8 54 8q85 0 106 -32h2v111h-269v-111h92z
M154 552q29 17 75 25q12 53 24 87h-241v-112h142zM83 414q6 72 39 111h-260v-111h221zM151 277l29 100q-21 -22 -56 -22q-14 0 -27 6q-16 7 -16 18v10h-69v-112h139zM111 136q11 44 30 108v4h-279v-112h249zM97 -1q-9 14 -9 32q0 17 16 80h-92v-112h85zM141 -34l-10 4h-269
v-112h279v108zM254 -30q-14 -16 -44 -16q-21 0 -41 4v-100h270v112h-185zM291 74l-13 -42l-9 -33h22v75zM320 136q0 -4 1 38l-11 -38h10zM456 111q-20 -9 -40 -15q-59 -17 -69 -17q-20 0 -25 32h-3v-112h270v112h-133zM635 373q0 -68 -42.5 -137t-109.5 -110h121v-142h-150
v-136h150v-152h-607v147h-150v142h150v136h-150v142h150v136h-150v141h150v134h-150v141h150v149h607v-152h-150v-133h150v-142h-60q91 -62 91 -164zM338 255zM379 408l-41 -153q41 6 72 33t31 64q0 46 -58 58zM379 408z" />
    <glyph glyph-name="germandbls" unicode="&#xdf;" horiz-adv-x="1210" 
d="M142 689v111h-280v-111h280zM141 414v111h-279v-111h279zM589 -279v112h-270v-112h270zM291 -279v112h-279v-112h279zM589 827v112h-270v-112h270zM291 827v112h-279v-112h279zM318 689q55 22 121 31v80h-269v-111h148zM170 552q29 68 100 112h-258v-112h158zM279 277
q-31 37 -88 112h-179v-112h267zM169 211q47 -2 47 -28q0 -23 -6 -46q1 -1 5 -1h54q57 8 57 43q0 30 -26 69h-131v-37zM52 136l1 3q11 45 20 56q15 18 56 16q4 -1 12 0v37h-279v-112h190zM35 -1q-2 12 -2 36q0 25 13 76h-34v-112h23zM141 -51q-34 2 -48 4q-32 5 -44 17h-187
v-112h279v91zM360 -30q-61 -24 -138 -24q-27 0 -53 1v-89h270v112h-79zM502 111q-24 -70 -86 -112h173v112h-87zM423 389q53 -68 73 -112h93v112h-166zM386 525q-28 -13 -28 -32q0 -20 46 -79h35v111h-53zM653 666q0 -22 -16 -93q-12 -56 -37 -68q-16 -8 -88 -8
q-48 0 -48 21q0 4 4 17h-14v-131h150v-142h-101q12 -33 12 -62q0 -40 -9 -74h98v-142h-150v-136h150v-152h-607v147h-150v142h150v136h-150v142h150v136h-150v141h150v134h-150v141h150v149h607v-152h-150v-90q41 5 87 5q53 0 73 -7q39 -12 39 -54zM746 689v111h-280v-111
h280zM745 414v111h-279v-111h279zM1193 -279v112h-270v-112h270zM895 -279v112h-279v-112h279zM1193 827v112h-270v-112h270zM895 827v112h-279v-112h279zM922 689q55 22 121 31v80h-269v-111h148zM774 552q29 68 100 112h-258v-112h158zM883 277q-31 37 -88 112h-179v-112
h267zM773 211q47 -2 47 -28q0 -23 -6 -46q1 -1 5 -1h54q57 8 57 43q0 30 -26 69h-131v-37zM656 136l1 3q11 45 20 56q15 18 56 16q4 -1 12 0v37h-279v-112h190zM639 -1q-2 12 -2 36q0 25 13 76h-34v-112h23zM745 -51q-34 2 -48 4q-32 5 -44 17h-187v-112h279v91zM964 -30
q-61 -24 -138 -24q-27 0 -53 1v-89h270v112h-79zM1106 111q-24 -70 -86 -112h173v112h-87zM1027 389q53 -68 73 -112h93v112h-166zM990 525q-28 -13 -28 -32q0 -20 46 -79h35v111h-53zM1257 666q0 -22 -16 -93q-12 -56 -37 -68q-16 -8 -88 -8q-48 0 -48 21q0 4 4 17h-14
v-131h150v-142h-101q12 -33 12 -62q0 -40 -9 -74h98v-142h-150v-136h150v-152h-607v147h-150v142h150v136h-150v142h150v136h-150v141h150v134h-150v141h150v149h607v-152h-150v-90q41 5 87 5q53 0 73 -7q39 -12 39 -54z" />
    <glyph glyph-name="agrave" unicode="&#xe0;" 
d="M140 689v111h-280v-111h280zM139 414v111h-279v-111h279zM587 -279v112h-270v-112h270zM289 -279v112h-279v-112h279zM587 827v112h-270v-112h270zM289 827v112h-279v-112h279zM520 664q4 -11 6 -106v-6h61v112h-67zM306 689q26 36 56 36q20 0 66 -9l9 -2v86h-269v-111
h138zM228 552q36 71 61 112v0h-279v-112h218zM168 426q14 30 47 99h-48zM34 277q12 39 23.5 46.5t64.5 7.5q11 18 29 58h-141v-112h24zM15 136q-9 5 -9 21q0 31 19 91h-165v-112h155zM10 87q4 8 11 24h-11v-24zM139 -42q-10 -6 -19 -6q-30 0 -75 18h-185v-112h279v100z
M223 111q-15 -38 -50 -112h116v112h-66zM342 136q2 36 4 68q-29 -58 -54 -68h50zM340 -1v10q0 54 1 102h-24v-112h23zM437 -52h-19q-51 0 -68 22h-183v-112h270v90zM519 111q-3 -64 -3 -112h71v112h-68zM527 262q-3 -45 -7 -136h82v-142h-86q-2 -31 -64 -35v-101h150v-152
h-607v147h-150v142h150v17q-7 9 -7 18q0 12 7 32v69h-150v142h150v136h-150v141h150v134h-150v141h150v149h607v-152h-150v-101q47 -11 61 -32h89v-142h-76l3 -133h73v-142h-75zM529 375q0 -43 -2 -98h60v112h-58v-14zM332 389l-15 -45v-18h41l7 63h-33zM372 497
q-16 -38 -32 -83h27q5 47 5 83zM558 764q0 -15 -13 -25.5t-29 -10.5q-24 0 -109 31q-56 21 -112 43q-18 6 -18 22t34 46.5t52 30.5q24 0 107 -54q88 -56 88 -83z" />
    <glyph glyph-name="aacute" unicode="&#xe1;" 
d="M140 689v111h-280v-111h280zM139 414v111h-279v-111h279zM587 -279v112h-270v-112h270zM289 -279v112h-279v-112h279zM587 827v112h-270v-112h270zM289 827v112h-279v-112h279zM520 664q4 -11 6 -106v-6h61v112h-67zM306 689q26 36 56 36q20 0 66 -9l9 -2v86h-269v-111
h138zM228 552q36 71 61 112v0h-279v-112h218zM168 426q14 30 47 99h-48zM34 277q12 39 23.5 46.5t64.5 7.5q11 18 29 58h-141v-112h24zM15 136q-9 5 -9 21q0 31 19 91h-165v-112h155zM10 87q4 8 11 24h-11v-24zM139 -42q-10 -6 -19 -6q-30 0 -75 18h-185v-112h279v100z
M223 111q-15 -38 -50 -112h116v112h-66zM342 136q2 36 4 68q-29 -58 -54 -68h50zM340 -1v10q0 54 1 102h-24v-112h23zM437 -52h-19q-51 0 -68 22h-183v-112h270v90zM519 111q-3 -64 -3 -112h71v112h-68zM527 262q-3 -45 -7 -136h82v-142h-86q-2 -31 -64 -35v-101h150v-152
h-607v147h-150v142h150v17q-7 9 -7 18q0 12 7 32v69h-150v142h150v136h-150v141h150v134h-150v141h150v149h607v-152h-150v-101q47 -11 61 -32h89v-142h-76l3 -133h73v-142h-75zM529 375q0 -43 -2 -98h60v112h-58v-14zM332 389l-15 -45v-18h41l7 63h-33zM372 497
q-16 -38 -32 -83h27q5 47 5 83zM543 848q0 -16 -18 -22q-57 -22 -113 -43q-85 -31 -109 -31q-16 0 -28.5 11t-12.5 27q0 26 89 82q83 53 106 53q18 0 52 -30.5t34 -46.5z" />
    <glyph glyph-name="acircumflex" unicode="&#xe2;" 
d="M140 689v111h-280v-111h280zM139 414v111h-279v-111h279zM587 -279v112h-270v-112h270zM289 -279v112h-279v-112h279zM587 827v112h-270v-112h270zM289 827v112h-279v-112h279zM520 664q4 -11 6 -106v-6h61v112h-67zM306 689q26 36 56 36q20 0 66 -9l9 -2v86h-269v-111
h138zM228 552q36 71 61 112v0h-279v-112h218zM168 426q14 30 47 99h-48zM34 277q12 39 23.5 46.5t64.5 7.5q11 18 29 58h-141v-112h24zM15 136q-9 5 -9 21q0 31 19 91h-165v-112h155zM10 87q4 8 11 24h-11v-24zM139 -42q-10 -6 -19 -6q-30 0 -75 18h-185v-112h279v100z
M223 111q-15 -38 -50 -112h116v112h-66zM342 136q2 36 4 68q-29 -58 -54 -68h50zM340 -1v10q0 54 1 102h-24v-112h23zM437 -52h-19q-51 0 -68 22h-183v-112h270v90zM519 111q-3 -64 -3 -112h71v112h-68zM527 262q-3 -45 -7 -136h82v-142h-86q-2 -31 -64 -35v-101h150v-152
h-607v147h-150v142h150v17q-7 9 -7 18q0 12 7 32v69h-150v142h150v136h-150v141h150v134h-150v141h150v149h607v-152h-150v-101q47 -11 61 -32h89v-142h-76l3 -133h73v-142h-75zM529 375q0 -43 -2 -98h60v112h-58v-14zM332 389l-15 -45v-18h41l7 63h-33zM372 497
q-16 -38 -32 -83h27q5 47 5 83zM595 802q-1 -14 -13.5 -25t-27.5 -11q-29 -2 -65 15q-50 24 -60 27q-57 -22 -139 -45q-15 -1 -27 9.5t-11 25.5q0 26 83 78q77 49 100 50q25 1 91 -46q70 -50 69 -78z" />
    <glyph glyph-name="atilde" unicode="&#xe3;" 
d="M140 689v111h-280v-111h280zM139 414v111h-279v-111h279zM587 -279v112h-270v-112h270zM289 -279v112h-279v-112h279zM587 827v112h-270v-112h270zM289 827v112h-279v-112h279zM520 664q4 -11 6 -106v-6h61v112h-67zM306 689q26 36 56 36q20 0 66 -9l9 -2v86h-269v-111
h138zM228 552q36 71 61 112v0h-279v-112h218zM168 426q14 30 47 99h-48zM34 277q12 39 23.5 46.5t64.5 7.5q11 18 29 58h-141v-112h24zM15 136q-9 5 -9 21q0 31 19 91h-165v-112h155zM10 87q4 8 11 24h-11v-24zM139 -42q-10 -6 -19 -6q-30 0 -75 18h-185v-112h279v100z
M223 111q-15 -38 -50 -112h116v112h-66zM342 136q2 36 4 68q-29 -58 -54 -68h50zM340 -1v10q0 54 1 102h-24v-112h23zM437 -52h-19q-51 0 -68 22h-183v-112h270v90zM519 111q-3 -64 -3 -112h71v112h-68zM527 262q-3 -45 -7 -136h82v-142h-86q-2 -31 -64 -35v-101h150v-152
h-607v147h-150v142h150v17q-7 9 -7 18q0 12 7 32v69h-150v142h150v136h-150v141h150v134h-150v141h150v149h607v-152h-150v-101q47 -11 61 -32h89v-142h-76l3 -133h73v-142h-75zM529 375q0 -43 -2 -98h60v112h-58v-14zM332 389l-15 -45v-18h41l7 63h-33zM372 497
q-16 -38 -32 -83h27q5 47 5 83zM629 853q0 -26 -24 -46.5t-47.5 -40t-54.5 -19.5q-22 0 -58.5 19.5t-57.5 19.5q-6 0 -10 -1q-16 -11 -51 -26q-63 10 -63 45q0 11 15 24l22 20q49 55 91 55q28 0 69 -19.5t50 -19.5q13 0 36 18.5t41 18.5q42 0 42 -48z" />
    <glyph glyph-name="adieresis" unicode="&#xe4;" 
d="M140 689v111h-280v-111h280zM139 414v111h-279v-111h279zM587 -279v112h-270v-112h270zM289 -279v112h-279v-112h279zM587 827v112h-270v-112h270zM289 827v112h-279v-112h279zM520 664q4 -11 6 -106v-6h61v112h-67zM306 689q26 36 56 36q20 0 66 -9l9 -2v86h-269v-111
h138zM228 552q36 71 61 112v0h-279v-112h218zM168 426q14 30 47 99h-48zM34 277q12 39 23.5 46.5t64.5 7.5q11 18 29 58h-141v-112h24zM15 136q-9 5 -9 21q0 31 19 91h-165v-112h155zM10 87q4 8 11 24h-11v-24zM139 -42q-10 -6 -19 -6q-30 0 -75 18h-185v-112h279v100z
M223 111q-15 -38 -50 -112h116v112h-66zM342 136q2 36 4 68q-29 -58 -54 -68h50zM340 -1v10q0 54 1 102h-24v-112h23zM437 -52h-19q-51 0 -68 22h-183v-112h270v90zM519 111q-3 -64 -3 -112h71v112h-68zM527 262q-3 -45 -7 -136h82v-142h-86q-2 -31 -64 -35v-101h150v-152
h-607v147h-150v142h150v17q-7 9 -7 18q0 12 7 32v69h-150v142h150v136h-150v141h150v134h-150v141h150v149h607v-152h-150v-101q47 -11 61 -32h89v-142h-76l3 -133h73v-142h-75zM529 375q0 -43 -2 -98h60v112h-58v-14zM332 389l-15 -45v-18h41l7 63h-33zM372 497
q-16 -38 -32 -83h27q5 47 5 83zM601 865q0 -108 -95 -108q-53 0 -53 65q0 44 25.5 73t68.5 29q54 0 54 -59zM395 865q0 -108 -95 -108q-53 0 -53 65q0 44 26 73t69 29q53 0 53 -59z" />
    <glyph glyph-name="aring" unicode="&#xe5;" 
d="M140 689v111h-280v-111h280zM139 414v111h-279v-111h279zM587 -279v112h-270v-112h270zM289 -279v112h-279v-112h279zM587 827v112h-270v-112h270zM289 827v112h-279v-112h279zM520 664q4 -11 6 -106v-6h61v112h-67zM306 689q26 36 56 36q20 0 66 -9l9 -2v86h-269v-111
h138zM228 552q36 71 61 112v0h-279v-112h218zM168 426q14 30 47 99h-48zM34 277q12 39 23.5 46.5t64.5 7.5q11 18 29 58h-141v-112h24zM15 136q-9 5 -9 21q0 31 19 91h-165v-112h155zM10 87q4 8 11 24h-11v-24zM139 -42q-10 -6 -19 -6q-30 0 -75 18h-185v-112h279v100z
M223 111q-15 -38 -50 -112h116v112h-66zM342 136q2 36 4 68q-29 -58 -54 -68h50zM340 -1v10q0 54 1 102h-24v-112h23zM437 -52h-19q-51 0 -68 22h-183v-112h270v90zM519 111q-3 -64 -3 -112h71v112h-68zM527 262q-3 -45 -7 -136h82v-142h-86q-2 -31 -64 -35v-101h150v-152
h-607v147h-150v142h150v17q-7 9 -7 18q0 12 7 32v69h-150v142h150v136h-150v141h150v134h-150v141h150v149h607v-152h-150v-101q47 -11 61 -32h89v-142h-76l3 -133h73v-142h-75zM529 375q0 -43 -2 -98h60v112h-58v-14zM332 389l-15 -45v-18h41l7 63h-33zM372 497
q-16 -38 -32 -83h27q5 47 5 83zM435 733q-44 0 -71 33.5t-23 76.5q4 44 38 78t78 34q45 0 72.5 -32t23.5 -78q-4 -45 -38.5 -78.5t-79.5 -33.5zM455 885q-15 0 -26.5 -13t-13.5 -29q-1 -14 7.5 -25t21.5 -11q15 0 28 13t15 29q1 15 -8 25.5t-24 10.5z" />
    <glyph glyph-name="ae" unicode="&#xe6;" 
d="M140 689v111h-280v-111h280zM139 414v111h-279v-111h279zM587 -279v112h-270v-112h270zM289 -279v112h-279v-112h279zM587 827v112h-270v-112h270zM289 827v112h-279v-112h279zM303 689q32 43 74 43q27 0 60 -1v69h-269v-111h135zM223 552l31 53q11 20 33 59h-277v-112
h213zM167 454q16 30 40 71h-40v-71zM22 277q16 41 27 49.5t55 8.5q13 20 30 54h-124v-112h12zM-7 136q-10 5 -9 18q0 27 27 94h-151v-112h133zM77 -30q-14 -17 -32 -17q-21 0 -55 17h-130v-112h279v112h-62zM254 136q8 40 15 72q-19 -32 -28 -43q-16 -22 -33 -29h46zM233 -1
q2 31 16 112h-98q-29 -56 -56 -112h138zM437 -49q-177 1 -179 2q-13 6 -19 17h-72v-112h270v93zM572 111q5 -9 5 -22q-1 -25 -17 -90h27v112h-15zM437 230l-31 -1q-5 -32 -19 -93h50v94zM692 684q-1 -26 -12 -71q-16 -63 -18 -66q-10 -18 -47 -18q-16 0 -163 7v-34
q9 -9 8 -22q0 -14 -8 -48v-16l61 -1h18q16 1 26 1q72 0 71 -41q-2 -35 -22 -101q-2 -11 -10 -31q-6 -11 -31 -14q-19 -2 -51 -1q-45 2 -41 2h-21v-102l61 1q24 0 35 -3h54v-142h-47q-12 -34 -51 -34l-52 1v-103h150v-152h-607v147h-150v142h121q-19 16 -18 31q0 14 44 105
h-147v142h150v136h-150v141h150v134h-150v141h150v149h607v-152h-150v-81q219 -3 232 -14q9 -9 8 -33zM282 389q-11 -26 -23 -58h30v58h-7zM334 504q-20 -41 -41 -90h22q14 59 19 90z" />
    <glyph glyph-name="ccedilla" unicode="&#xe7;" horiz-adv-x="606" 
d="M589 277v112h-270v-112h270zM142 689v111h-280v-111h280zM141 -142v112h-279v-112h279zM589 -279v112h-270v-112h270zM291 -279v112h-279v-112h279zM589 827v112h-270v-112h270zM291 827v112h-279v-112h279zM582 664q4 -4 7 -9v9h-7zM264 689q65 41 141 41q17 0 34 -2v72
h-269v-111h94zM138 552q41 69 92 112h-218v-112h126zM78 414q19 59 46 111h-262v-111h216zM48 277q8 60 19 99l3 13h-58v-112h36zM51 136q-8 40 -8 84q0 11 2 28h-183v-112h189zM112 -1q-39 42 -56 112h-44v-112h100zM358 -30q-54 -25 -114 -25q-41 0 -75 14v-101h270v112
h-81zM501 111q-37 -69 -95 -112h183v112h-88zM240 248q-5 -33 -5 -52q0 -17 14 -33q15 -20 37 -20q6 0 13 2q29 7 47 44q27 54 31 59h-137zM271 389q-16 -54 -26 -112h46v112h-20zM439 447q-11 9 -14 23q11 42 11 51v4h-102q-29 -33 -55 -111h160v33zM613 581
q0 -76 -27 -108q-29 -36 -104 -36q-16 0 -28 4v-37h150v-142h-89q24 -11 24 -34q0 -21 -13 -60q-8 -22 -18 -42h96v-142h-150v-136h150v-152h-607v147h-150v142h150v136h-150v142h150v136h-150v141h150v134h-150v141h150v149h607v-152h-150v-86q70 -11 112 -47h38v-51
q9 -22 9 -47zM327 -16q0 -110 -104 -190q-51 -40 -70 -40q-40 0 -40 31q0 8 4 16q21 27 41 54q29 38 29 56q0 16 -11.5 42.5t-11.5 38.5q0 45 76 45q47 0 61 -5q26 -10 26 -48z" />
    <glyph glyph-name="egrave" unicode="&#xe8;" horiz-adv-x="605" 
d="M142 689v111h-280v-111h280zM141 414v111h-279v-111h279zM589 -279v112h-270v-112h270zM291 -279v112h-279v-112h279zM589 827v112h-270v-112h270zM291 827v112h-279v-112h279zM170 705q20 16 71 16h119q33 0 79 -2v81h-269v-95zM120 552v2q-1 7 13 58q4 19 14 52h-135
v-112h108zM169 488q6 23 11 37h-6h-5v-37zM57 277q5 75 37 112h-82v-112h45zM70 136l24 87q-29 0 -36 25h-196v-112h208zM90 -1q-28 35 -28 76q0 17 3 36h-53v-112h78zM141 -41q-11 5 -20 11h-259v-112h279v101zM439 -39q-15 -11 -45 -11h-50q-35 2 -49 2q-44 -4 -126 0v-94
h270v103zM476 111q7 -8 7 -21q0 -25 -20 -91h126v112h-113zM439 225l-80 1l-69 -1q-8 -30 -25 -89h174v89zM544 389q5 -7 5 -16q0 -7 -17 -70l-6 -26h63v112h-45zM284 525q74 -28 74 -48q0 -12 -14 -63h95v111h-155zM630 680q0 -22 -16 -75q-1 -3 -10 -35v-33h-14
q-13 -15 -55 -15q-32 0 -81 3v-114q42 0 65 -7h85v-142h-83q-13 -38 -64 -37h-3v-99h150v-142h-147q-1 -3 -3 -6v-130h150v-152h-607v147h-150v142h150v136h-150v142h150v136h-150v141h150v134h-150v141h150v149h607v-152h-150v-93l26 -1q6 0 26 1t33 1q91 0 91 -40z
M540 764q0 -15 -13 -25.5t-29 -10.5q-24 0 -109 31q-56 21 -112 43q-18 6 -18 22t34 46.5t52 30.5q24 0 107 -54q88 -56 88 -83z" />
    <glyph glyph-name="eacute" unicode="&#xe9;" horiz-adv-x="605" 
d="M142 689v111h-280v-111h280zM141 414v111h-279v-111h279zM589 -279v112h-270v-112h270zM291 -279v112h-279v-112h279zM589 827v112h-270v-112h270zM291 827v112h-279v-112h279zM170 705q20 16 71 16h119q33 0 79 -2v81h-269v-95zM120 552v2q-1 7 13 58q4 19 14 52h-135
v-112h108zM169 488q6 23 11 37h-6h-5v-37zM57 277q5 75 37 112h-82v-112h45zM70 136l24 87q-29 0 -36 25h-196v-112h208zM90 -1q-28 35 -28 76q0 17 3 36h-53v-112h78zM141 -41q-11 5 -20 11h-259v-112h279v101zM439 -39q-15 -11 -45 -11h-50q-35 2 -49 2q-44 -4 -126 0v-94
h270v103zM476 111q7 -8 7 -21q0 -25 -20 -91h126v112h-113zM439 225l-80 1l-69 -1q-8 -30 -25 -89h174v89zM544 389q5 -7 5 -16q0 -7 -17 -70l-6 -26h63v112h-45zM284 525q74 -28 74 -48q0 -12 -14 -63h95v111h-155zM630 680q0 -22 -16 -75q-1 -3 -10 -35v-33h-14
q-13 -15 -55 -15q-32 0 -81 3v-114q42 0 65 -7h85v-142h-83q-13 -38 -64 -37h-3v-99h150v-142h-147q-1 -3 -3 -6v-130h150v-152h-607v147h-150v142h150v136h-150v142h150v136h-150v141h150v134h-150v141h150v149h607v-152h-150v-93l26 -1q6 0 26 1t33 1q91 0 91 -40z
M545 848q0 -16 -18 -22q-57 -22 -113 -43q-85 -31 -109 -31q-16 0 -28.5 11t-12.5 27q0 26 89 82q83 53 106 53q18 0 52 -30.5t34 -46.5z" />
    <glyph glyph-name="ecircumflex" unicode="&#xea;" horiz-adv-x="605" 
d="M142 689v111h-280v-111h280zM141 414v111h-279v-111h279zM589 -279v112h-270v-112h270zM291 -279v112h-279v-112h279zM589 827v112h-270v-112h270zM291 827v112h-279v-112h279zM170 705q20 16 71 16h119q33 0 79 -2v81h-269v-95zM120 552v2q-1 7 13 58q4 19 14 52h-135
v-112h108zM169 488q6 23 11 37h-6h-5v-37zM57 277q5 75 37 112h-82v-112h45zM70 136l24 87q-29 0 -36 25h-196v-112h208zM90 -1q-28 35 -28 76q0 17 3 36h-53v-112h78zM141 -41q-11 5 -20 11h-259v-112h279v101zM439 -39q-15 -11 -45 -11h-50q-35 2 -49 2q-44 -4 -126 0v-94
h270v103zM476 111q7 -8 7 -21q0 -25 -20 -91h126v112h-113zM439 225l-80 1l-69 -1q-8 -30 -25 -89h174v89zM544 389q5 -7 5 -16q0 -7 -17 -70l-6 -26h63v112h-45zM284 525q74 -28 74 -48q0 -12 -14 -63h95v111h-155zM630 680q0 -22 -16 -75q-1 -3 -10 -35v-33h-14
q-13 -15 -55 -15q-32 0 -81 3v-114q42 0 65 -7h85v-142h-83q-13 -38 -64 -37h-3v-99h150v-142h-147q-1 -3 -3 -6v-130h150v-152h-607v147h-150v142h150v136h-150v142h150v136h-150v141h150v134h-150v141h150v149h607v-152h-150v-93l26 -1q6 0 26 1t33 1q91 0 91 -40z
M617 802q-1 -14 -13.5 -25t-27.5 -11q-29 -2 -65 15q-50 24 -60 27q-57 -22 -139 -45q-15 -1 -27 9.5t-11 25.5q0 26 83 78q77 49 100 50q25 1 91 -46q70 -50 69 -78z" />
    <glyph glyph-name="edieresis" unicode="&#xeb;" horiz-adv-x="605" 
d="M142 689v111h-280v-111h280zM141 414v111h-279v-111h279zM589 -279v112h-270v-112h270zM291 -279v112h-279v-112h279zM589 827v112h-270v-112h270zM291 827v112h-279v-112h279zM170 705q20 16 71 16h119q33 0 79 -2v81h-269v-95zM120 552v2q-1 7 13 58q4 19 14 52h-135
v-112h108zM169 488q6 23 11 37h-6h-5v-37zM57 277q5 75 37 112h-82v-112h45zM70 136l24 87q-29 0 -36 25h-196v-112h208zM90 -1q-28 35 -28 76q0 17 3 36h-53v-112h78zM141 -41q-11 5 -20 11h-259v-112h279v101zM439 -39q-15 -11 -45 -11h-50q-35 2 -49 2q-44 -4 -126 0v-94
h270v103zM476 111q7 -8 7 -21q0 -25 -20 -91h126v112h-113zM439 225l-80 1l-69 -1q-8 -30 -25 -89h174v89zM544 389q5 -7 5 -16q0 -7 -17 -70l-6 -26h63v112h-45zM284 525q74 -28 74 -48q0 -12 -14 -63h95v111h-155zM630 680q0 -22 -16 -75q-1 -3 -10 -35v-33h-14
q-13 -15 -55 -15q-32 0 -81 3v-114q42 0 65 -7h85v-142h-83q-13 -38 -64 -37h-3v-99h150v-142h-147q-1 -3 -3 -6v-130h150v-152h-607v147h-150v142h150v136h-150v142h150v136h-150v141h150v134h-150v141h150v149h607v-152h-150v-93l26 -1q6 0 26 1t33 1q91 0 91 -40z
M603 865q0 -108 -95 -108q-53 0 -53 65q0 44 25.5 73t68.5 29q54 0 54 -59zM397 865q0 -108 -95 -108q-53 0 -53 65q0 44 26 73t69 29q53 0 53 -59z" />
    <glyph glyph-name="igrave" unicode="&#xec;" horiz-adv-x="309" 
d="M-155 -157v142h150v1q-14 16 -14 35q0 17 14 74v26h-150v142h150v136h-150v141h150v134h-150v141h150v149h310v-152h-149v-133h13q9 18 16 24q12 8 39 8q143 0 143 -57q0 -33 -67 -250h5v-142h-44l-34 -136h78v-142h-114q-11 -31 -36 -38v-98h150v-152h-310v147h-150z
M163 664h-152v-112h115q21 74 37 112zM141 689v111h-281v-111h281zM80 389h-69v-112h35zM290 277v93l-4 -11q-6 -22 -21 -82h25zM118 525h-258v-111h227l8 25q6 24 23 86zM290 -1v112h-66l-29 -112h95zM38 248h-178v-112h146q13 46 32 112zM290 -279v112h-279v-112h279z
M140 -142v86h-7q-70 0 -116 26h-157v-112h280zM290 827v112h-279v-112h279zM418 764q0 -15 -13 -25.5t-29 -10.5q-24 0 -109 31q-56 21 -112 43q-18 6 -18 22t34 46.5t52 30.5q24 0 107 -54q88 -56 88 -83z" />
    <glyph glyph-name="iacute" unicode="&#xed;" horiz-adv-x="309" 
d="M-155 -157v142h150v1q-14 16 -14 35q0 17 14 74v26h-150v142h150v136h-150v141h150v134h-150v141h150v149h310v-152h-149v-133h13q9 18 16 24q12 8 39 8q143 0 143 -57q0 -33 -67 -250h5v-142h-44l-34 -136h78v-142h-114q-11 -31 -36 -38v-98h150v-152h-310v147h-150z
M163 664h-152v-112h115q21 74 37 112zM141 689v111h-281v-111h281zM80 389h-69v-112h35zM290 277v93l-4 -11q-6 -22 -21 -82h25zM118 525h-258v-111h227l8 25q6 24 23 86zM290 -1v112h-66l-29 -112h95zM38 248h-178v-112h146q13 46 32 112zM290 -279v112h-279v-112h279z
M140 -142v86h-7q-70 0 -116 26h-157v-112h280zM290 827v112h-279v-112h279zM443 848q0 -16 -18 -22q-57 -22 -113 -43q-85 -31 -109 -31q-16 0 -28.5 11t-12.5 27q0 26 89 82q83 53 106 53q18 0 52 -30.5t34 -46.5z" />
    <glyph glyph-name="icircumflex" unicode="&#xee;" horiz-adv-x="309" 
d="M-155 -157v142h150v1q-14 16 -14 35q0 17 14 74v26h-150v142h150v136h-150v141h150v134h-150v141h150v149h310v-152h-149v-133h13q9 18 16 24q12 8 39 8q143 0 143 -57q0 -33 -67 -250h5v-142h-44l-34 -136h78v-142h-114q-11 -31 -36 -38v-98h150v-152h-310v147h-150z
M163 664h-152v-112h115q21 74 37 112zM141 689v111h-281v-111h281zM80 389h-69v-112h35zM290 277v93l-4 -11q-6 -22 -21 -82h25zM118 525h-258v-111h227l8 25q6 24 23 86zM290 -1v112h-66l-29 -112h95zM38 248h-178v-112h146q13 46 32 112zM290 -279v112h-279v-112h279z
M140 -142v86h-7q-70 0 -116 26h-157v-112h280zM290 827v112h-279v-112h279zM465 802q-1 -14 -13.5 -25t-27.5 -11q-29 -2 -65 15q-50 24 -60 27q-57 -22 -139 -45q-15 -1 -27 9.5t-11 25.5q0 26 83 78q77 49 100 50q25 1 91 -46q70 -50 69 -78z" />
    <glyph glyph-name="idieresis" unicode="&#xef;" horiz-adv-x="309" 
d="M-155 -157v142h150v1q-14 16 -14 35q0 17 14 74v26h-150v142h150v136h-150v141h150v134h-150v141h150v149h310v-152h-149v-133h13q9 18 16 24q12 8 39 8q143 0 143 -57q0 -33 -67 -250h5v-142h-44l-34 -136h78v-142h-114q-11 -31 -36 -38v-98h150v-152h-310v147h-150z
M163 664h-152v-112h115q21 74 37 112zM141 689v111h-281v-111h281zM80 389h-69v-112h35zM290 277v93l-4 -11q-6 -22 -21 -82h25zM118 525h-258v-111h227l8 25q6 24 23 86zM290 -1v112h-66l-29 -112h95zM38 248h-178v-112h146q13 46 32 112zM290 -279v112h-279v-112h279z
M140 -142v86h-7q-70 0 -116 26h-157v-112h280zM290 827v112h-279v-112h279zM471 865q0 -108 -95 -108q-53 0 -53 65q0 44 25.5 73t68.5 29q54 0 54 -59zM265 865q0 -108 -95 -108q-53 0 -53 65q0 44 26 73t69 29q53 0 53 -59z" />
    <glyph glyph-name="eth" unicode="&#xf0;" horiz-adv-x="606" 
d="M589 -279v112h-270v-112h270zM291 -279v112h-279v-112h279zM589 827v112h-270v-112h270zM291 827v112h-279v-112h279zM39 136q7 44 24 112h-201v-112h177zM92 -1q-5 6 -10 13l-30 36q-18 24 -18 41q0 10 2 22h-24v-112h80zM141 -43q-10 5 -19 13h-260v-112h279v99z
M325 -30q-66 -30 -116 -30q-22 0 -40 5v-87h270v112h-114zM516 111q-60 -69 -135 -112h208v112h-73zM514 664q46 -31 75 -74v74h-75zM454 696q19 -8 36 -17h114v-114q35 -65 35 -149q0 -154 -110 -290h75v-142h-150v-136h150v-152h-607v147h-150v142h150v136h-150v142h150
v136h-150v141h150v134h-150v141h150v149h607v-152h-150v-116zM170 710q50 15 125 15q78 0 144 -23v98h-269v-90zM125 689q8 5 17 10v101h-280v-111h263zM63 552q12 36 32 98q2 7 6 14h-89v-112h51zM108 414l32 109q-14 -1 -37 -11t-29 -10q-16 0 -16 17v6h-196v-111h246z
M37 277q-3 7 -3 16q0 11 6 27q6 21 13 43q6 18 14 26h-55v-112h25zM433 414q-5 74 -65 111h-81q35 -20 35 -50q0 -23 -4 -61h115zM281 248q-15 -31 -38 -98q89 16 144 98h-106zM397 382q0 -12 -7 -33l-10 -32q-7 -28 -18 -40h42q27 53 30 112h-38q1 -3 1 -7z" />
    <glyph glyph-name="ntilde" unicode="&#xf1;" horiz-adv-x="597" 
d="M142 689v111h-280v-111h280zM589 -279v112h-270v-112h270zM291 -279v112h-279v-112h279zM589 827v112h-270v-112h270zM291 827v112h-279v-112h279zM396 389q2 -24 6 -62q7 29 15 62h-21zM379 525q8 -45 14 -111h30l16 74v37h-60zM334 664q24 -33 40 -112h79q15 63 27 112
h-146zM170 705q12 18 24 18q49 0 111 -34h134v111h-269v-95zM117 552q19 74 33 112h-138v-112h105zM82 414l29 111h-249v-111h220zM48 277l28 112h-64v-112h36zM9 136q10 38 31 112h-178v-112h147zM141 -39q-11 -7 -26 -7q-51 0 -91 16h-162v-112h279v103zM198 111
q-15 -60 -32 -112h125v112h-93zM270 277q-4 37 -13 112h-9q-9 -66 -17 -112h39zM289 136q-6 37 -16 112h-47q-11 -61 -22 -112h85zM439 -46q-59 0 -90 16h-180v-112h270v96zM522 111q-28 -82 -28 -95q0 -6 3 -17h92v112h-67zM589 341q-8 -30 -18 -64h18v64zM657 649
q0 -53 -53 -253v-134h-37q-15 -51 -38 -131l-2 -5h77v-142h-104q1 -2 1 -3q0 -24 -47 -26v-107h150v-152h-607v147h-150v142h150v2q-13 12 -13 29q0 16 13 71v34h-150v142h150v136h-150v141h150v134h-150v141h150v149h607v-152h-150v-133h30l5 16q6 24 41 24q40 0 78 -16
q49 -20 49 -54zM601 853q0 -26 -24 -46.5t-47.5 -40t-54.5 -19.5q-22 0 -58.5 19.5t-57.5 19.5q-6 0 -10 -1q-16 -11 -51 -26q-63 10 -63 45q0 11 15 24l22 20q49 55 91 55q28 0 69 -19.5t50 -19.5q13 0 36 18.5t41 18.5q42 0 42 -48z" />
    <glyph glyph-name="ograve" unicode="&#xf2;" horiz-adv-x="604" 
d="M142 689v111h-280v-111h280zM141 -142v112h-279v-112h279zM589 -279v112h-270v-112h270zM291 -279v112h-279v-112h279zM589 827v112h-270v-112h270zM291 827v112h-279v-112h279zM432 664q-1 -16 -1 -24q8 7 27 24h-26zM260 689q11 7 23 13q67 33 115 33q37 0 37 -29
q0 -8 -1 -17h5v111h-269v-111h90zM130 552q41 68 94 112h-212v-112h118zM70 414q18 60 45 111h-253v-111h208zM43 277q5 56 20 112h-51v-112h31zM50 136q-9 41 -9 85v27h-179v-112h188zM126 -1q-47 43 -69 112h-45v-112h114zM385 -30q-52 -28 -105 -28q-62 0 -111 26v-110
h270v112h-54zM531 111q-40 -63 -103 -112h161v112h-58zM634 496q0 -109 -30 -217v-17h-5q-23 -76 -59 -136h64v-142h-150v-136h150v-152h-607v147h-150v142h150v136h-150v142h150v136h-150v141h150v134h-150v141h150v149h607v-152h-150v-133h22q56 47 78 47q45 0 66 -95
q14 -61 14 -135zM395 277q19 49 28 112h-104v-112h76zM237 248v-14q0 -88 54 -88q36 0 79 77q7 12 13 25h-146zM268 389q-23 -53 -29 -112h52v112h-23zM423 552q-5 18 -11 32q-3 -15 -11 -32h22zM431 474q1 23 -3 51h-54q-59 -45 -94 -111h146zM550 764q0 -15 -13 -25.5
t-29 -10.5q-24 0 -109 31q-56 21 -112 43q-18 6 -18 22t34 46.5t52 30.5q24 0 107 -54q88 -56 88 -83z" />
    <glyph glyph-name="oacute" unicode="&#xf3;" horiz-adv-x="604" 
d="M142 689v111h-280v-111h280zM141 -142v112h-279v-112h279zM589 -279v112h-270v-112h270zM291 -279v112h-279v-112h279zM589 827v112h-270v-112h270zM291 827v112h-279v-112h279zM432 664q-1 -16 -1 -24q8 7 27 24h-26zM260 689q11 7 23 13q67 33 115 33q37 0 37 -29
q0 -8 -1 -17h5v111h-269v-111h90zM130 552q41 68 94 112h-212v-112h118zM70 414q18 60 45 111h-253v-111h208zM43 277q5 56 20 112h-51v-112h31zM50 136q-9 41 -9 85v27h-179v-112h188zM126 -1q-47 43 -69 112h-45v-112h114zM385 -30q-52 -28 -105 -28q-62 0 -111 26v-110
h270v112h-54zM531 111q-40 -63 -103 -112h161v112h-58zM634 496q0 -109 -30 -217v-17h-5q-23 -76 -59 -136h64v-142h-150v-136h150v-152h-607v147h-150v142h150v136h-150v142h150v136h-150v141h150v134h-150v141h150v149h607v-152h-150v-133h22q56 47 78 47q45 0 66 -95
q14 -61 14 -135zM395 277q19 49 28 112h-104v-112h76zM237 248v-14q0 -88 54 -88q36 0 79 77q7 12 13 25h-146zM268 389q-23 -53 -29 -112h52v112h-23zM423 552q-5 18 -11 32q-3 -15 -11 -32h22zM431 474q1 23 -3 51h-54q-59 -45 -94 -111h146zM595 848q0 -16 -18 -22
q-57 -22 -113 -43q-85 -31 -109 -31q-16 0 -28.5 11t-12.5 27q0 26 89 82q83 53 106 53q18 0 52 -30.5t34 -46.5z" />
    </font>
</defs>
</svg>
