<?xml version="1.0" standalone="no"?>
<!DOCTYPE svg PUBLIC "-//W3C//DTD SVG 1.1//EN" "http://www.w3.org/Graphics/SVG/1.1/DTD/svg11.dtd" >
<svg xmlns="http://www.w3.org/2000/svg" xmlns:xlink="http://www.w3.org/1999/xlink" version="1.1">
<metadata>
Created by FontForge 20160405 at Wed Nov  1 15:14:48 2017
 By www-data
Copyright (c) 2017 by MA^ns Grebck. All rights reserved.
</metadata>
<defs>
<font id="EthernalLightPERSONALUSE" horiz-adv-x="745" >
  <font-face 
    font-family="Ethernal Light PERSONAL USE"
    font-weight="400"
    font-stretch="normal"
    units-per-em="1000"
    panose-1="0 0 0 0 0 0 0 0 0 0"
    ascent="800"
    descent="-200"
    x-height="387"
    cap-height="661"
    bbox="-2036 -375 1775 932"
    underline-thickness="50"
    underline-position="-150"
    unicode-range="U+000D-FB02"
  />
<missing-glyph horiz-adv-x="319" 
 />
    <glyph glyph-name="f_f" unicode="ff" horiz-adv-x="414" 
d="M674 657q-12 3 -19.5 9t-15 11.5t-17 9.5t-25.5 4q-26 0 -50 -12.5t-45 -32t-39 -42t-30 -41.5q-29 -45 -53.5 -91.5t-47.5 -94.5q23 1 46 6q4 1 11 1q16 0 16 -15q0 -13 -10 -21.5t-24.5 -13.5t-31.5 -7t-31 -2q-35 -76 -68.5 -151.5t-74.5 -147.5q44 30 88 58.5
t87 60.5q22 17 43 39t44 35q4 2 8 2q7 0 11 -5.5t4 -11.5q0 -10 -20 -28.5t-50.5 -42t-67.5 -49t-71 -48.5t-61 -41t-38 -26q-8 -5 -14.5 -11t-13.5 -12l-6 -10q-5 -7 -13.5 -19t-19 -23.5t-21 -20t-19.5 -8.5q-11 0 -18 7.5t-7 17.5q0 13 9.5 21.5t17.5 16.5l12 11
q28 31 54.5 74t52 93.5t51 106t51.5 112.5q-38 2 -76.5 6t-76.5 6l-51 -114q-38 -81 -80 -163.5t-93 -155.5q-5 -7 -13.5 -19t-19 -23.5t-21 -20t-19.5 -8.5q-11 0 -18 7.5t-7 17.5q0 7 10 20h-1q2 2 3 2q7 9 16.5 18.5t20.5 18.5q30 35 59 82.5t57 103t55 115.5t54 119
q-20 -2 -39 -10t-23 -8q-7 0 -12 5.5t-5 12.5q0 10 9 16.5t23.5 11t31.5 7t33 4.5q36 78 72 147t73 116q15 19 33.5 37.5t40 33t45.5 23t50 8.5q9 0 19.5 -1.5t19.5 -6t15.5 -12t6.5 -18.5q0 -10 -6 -17.5t-17 -7.5t-21 6t-24 6q-35 0 -70 -29t-68.5 -74t-64 -100.5
t-55.5 -108.5l64 -2t64 -1h29q34 72 69 138t73.5 117t81 81t90.5 30q13 0 31 -4.5t34.5 -12.5t28 -20t11.5 -28q0 -8 -6 -14t-14 -6h-6q-1 0 -1 1h1z" />
    <glyph glyph-name="fi" unicode="fi" horiz-adv-x="421" 
d="M358 364q0 -8 -12.5 -29.5t-31 -50.5t-40.5 -62t-40.5 -63.5t-31 -55t-12.5 -36.5q0 -10 4.5 -17t15.5 -7q17 0 39.5 13t46.5 33t47.5 43t43.5 43t34 33t19 13q7 0 12.5 -4.5t5.5 -12.5q0 -5 -14.5 -22t-37.5 -39.5t-51.5 -47.5t-56.5 -46t-52.5 -34.5t-38.5 -13.5
q-29 0 -45 19t-16 46q0 10 5 25.5t13 35.5q-31 -23 -66.5 -47.5t-68 -46.5t-58.5 -39t-36 -25q-7 -5 -13.5 -11t-13.5 -12l-7 -10q-5 -7 -13.5 -19t-19 -23.5t-21 -20t-19.5 -8.5q-11 0 -18 7.5t-7 17.5q0 13 9.5 21.5t17.5 16.5l13 11q28 31 55 75t53 95.5t52 108.5l52 114
q-5 1 -9 1h-9q-20 0 -27 -7t-15 -7q-7 0 -12 5.5t-5 12.5t8 13.5t21.5 11t31 8t36.5 6.5q33 72 68.5 138t73.5 116.5t80.5 80.5t90.5 30q13 0 31 -4.5t34.5 -12.5t28 -20t11.5 -28q0 -8 -6 -14t-14 -6h-6q-1 0 -1 1h1q-12 3 -19.5 9t-15 11.5t-17 9.5t-25.5 4
q-26 0 -50 -12.5t-45 -32t-39 -42t-30 -41.5q-28 -44 -52 -89t-46 -93q18 2 33.5 2.5t23.5 0.5q15 0 15 -15q0 -13 -9.5 -21t-22.5 -12.5t-27.5 -6t-23.5 -1.5h-14q-35 -77 -69 -153t-76 -149q44 30 88 58.5t87 60.5q18 14 36 32t36 32q18 32 36.5 63t35 56t28 41t15.5 18
q3 2 10 2q10 0 19 -7t9 -18zM407 501q-14 0 -25 10t-11 25t10.5 25.5t25.5 10.5t25.5 -10.5t10.5 -25.5t-11 -25t-25 -10z" />
    <glyph glyph-name="fl" unicode="fl" horiz-adv-x="488" 
d="M240 149q-6 -26 -6 -51q0 -11 2 -25.5t13 -20.5h-1q5 -2 9.5 -3t9.5 -1q21 0 45.5 13t49.5 32t48.5 41.5t43 41.5t33.5 32t20 13q7 0 12 -5t5 -11q0 -7 -14 -22.5t-35.5 -36t-47.5 -42.5t-50 -41t-43.5 -33t-27.5 -18q-11 -5 -22.5 -8.5t-24.5 -3.5q-20 0 -34.5 8
t-24 21.5t-14 30.5t-4.5 35q0 10 1.5 23t5.5 28q-30 -24 -69 -51t-76 -52t-67 -45t-42 -29q-7 -5 -13.5 -10.5t-13.5 -12.5l-7 -10q-5 -7 -13.5 -19t-19 -23.5t-21 -20t-19.5 -8.5q-11 0 -18 7.5t-7 17.5q0 13 9.5 21.5t17.5 16.5l12 11q28 31 54.5 74.5t53 95t52.5 108.5
t52 115q-5 1 -8.5 1h-8.5q-20 0 -27 -7t-15 -7q-7 0 -12 5.5t-5 12.5t8 13.5t21.5 11t31 8t36.5 6.5q33 72 68 137.5t72.5 116t78 80.5t85.5 30q7 0 19 -1.5t22.5 -5.5t18.5 -10t8 -16q0 -11 -9 -17.5t-19 -6.5q-11 0 -20 3t-20 3q-31 0 -63.5 -26t-65 -69.5t-64.5 -99
t-61 -113.5q20 2 36 2.5t24 0.5q15 0 15 -15q0 -13 -9.5 -21t-22.5 -12.5t-27.5 -6t-23.5 -1.5h-18q-18 -39 -35 -76.5t-32 -70.5l-27.5 -60.5t-21.5 -45.5q-6 -13 -12.5 -25t-13.5 -24q44 29 88.5 58t87.5 61q19 14 37.5 33.5t38.5 33.5q17 49 42 107.5t55 117t63 113
t65.5 96.5t62 67.5t53.5 25.5q20 0 30.5 -14.5t10.5 -32.5q0 -13 -3 -23q-7 -34 -28.5 -69.5t-40.5 -64.5q-7 -10 -25.5 -36t-43.5 -60t-53.5 -72t-56 -72t-51.5 -61t-38 -39q-3 -11 -6 -23t-5 -23zM364 447q-23 -40 -43.5 -80t-37.5 -82q29 34 58.5 67.5t56.5 72.5
q6 9 18.5 28t27.5 43t31 51.5t29.5 53.5t23 47.5t11.5 35.5q-12 -7 -28.5 -24t-34 -40.5t-35.5 -49.5t-33.5 -50.5t-27 -44t-16.5 -28.5z" />
    <glyph glyph-name="t_t" unicode="tt" horiz-adv-x="498" 
d="M95 543q24 0 47.5 1t47.5 3l64 114q6 11 14 26t22 17h6q9 0 15.5 -7.5t6.5 -15.5q0 -9 -18.5 -43.5t-47.5 -84.5q38 4 76.5 7.5t77.5 3.5h16.5t26.5 -1q19 33 37 66.5t37 67.5q6 11 14 26t22 17h6q9 0 15.5 -7.5t6.5 -15.5q0 -11 -24 -54t-59 -104q18 -2 35 -5t30.5 -7.5
t22 -10t8.5 -12.5q-3 -13 -18 -16t-26 -3q-41 0 -83 3q-37 -63 -76.5 -130.5t-72.5 -127t-54.5 -104.5t-21.5 -63q0 -11 5.5 -23.5t19.5 -12.5q24 0 49.5 13t50.5 32t48 41.5t42.5 41.5t33 32t19.5 13q7 0 12 -5t5 -11t-16 -23.5t-36 -37.5t-39.5 -37.5t-25.5 -23.5
q-26 -23 -54 -46t-63 -33q-7 -2 -13.5 -3t-13.5 -1q-35 0 -55.5 25.5t-20.5 58.5q0 14 3 28l-32 -29q-26 -23 -54 -46t-63 -33q-7 -2 -13.5 -3t-13.5 -1q-35 0 -55.5 25.5t-20.5 58.5q0 29 12.5 54.5t26.5 49.5q48 80 93 160t90 161h-18h-26t-37.5 1.5t-34 6.5t-14.5 15
q0 7 4.5 12.5t11.5 5.5q10 0 19.5 -3t20.5 -3zM420 511q-11 0 -22 0.5t-22 0.5q-38 0 -75.5 -1t-75.5 -2q-24 -40 -49.5 -83.5t-50.5 -86.5t-48 -84t-40.5 -75t-27.5 -59.5t-10 -37.5q0 -11 5.5 -23.5t19.5 -12.5q30 0 62 19t62 45.5t56 53t43 41.5q45 76 88 152t85 153z
" />
    <glyph glyph-name=".notdef" horiz-adv-x="319" 
 />
    <glyph glyph-name=".null" horiz-adv-x="0" 
 />
    <glyph glyph-name="nonmarkingreturn" unicode="&#xd;" horiz-adv-x="319" 
 />
    <glyph glyph-name="NULL" horiz-adv-x="0" 
 />
    <glyph glyph-name="NULL" horiz-adv-x="0" 
 />
    <glyph glyph-name="space" unicode=" " horiz-adv-x="319" 
 />
    <glyph glyph-name="exclam" unicode="!" horiz-adv-x="284" 
d="M119 211q-6 0 -11 4.5t-5 11.5q0 12 17 47t44 81t60.5 96.5t67.5 92.5t64.5 69.5t50.5 27.5q7 0 12 -5t5 -12q0 -4 -2 -6.5t-4 -5.5q-81 -87 -150.5 -184t-128.5 -200q-3 -6 -7.5 -11.5t-12.5 -5.5zM45 -4q-18 0 -30.5 12.5t-12.5 30.5t12.5 30.5t30.5 12.5t31 -12.5
t13 -30.5q0 -19 -12.5 -31t-31.5 -12z" />
    <glyph glyph-name="quotedbl" unicode="&#x22;" horiz-adv-x="230" 
d="M212 590q0 -14 -11 -45.5t-27 -64.5t-34 -58t-32 -25q-6 0 -11 4t-5 11q0 4 9 24.5t21 46.5t22.5 51t13.5 37q1 6 3 16t5 20t8 17t13 7q14 0 19.5 -15t5.5 -26zM318 590q0 -13 -11 -45t-27 -65t-34 -58t-32 -25q-6 0 -11 4t-5 11q0 3 9 24t21 47t22.5 51t13.5 37
q1 6 3 16.5t5 20t8 16.5t13 7q15 0 20 -14.5t5 -26.5z" />
    <glyph glyph-name="numbersign" unicode="#" horiz-adv-x="522" 
d="M222 -12q-7 0 -12.5 4.5t-5.5 11.5q0 1 16 28.5t40 69.5l-48 -4l-48 -4q-32 -46 -55.5 -76t-30.5 -30t-12.5 4.5t-5.5 12.5q6 11 14 25q7 12 16 27.5t20 34.5h-35h-18t-24 1.5t-21 6.5t-9 14q0 12 12 17q14 5 49 9.5t78 6.5l68 113q-14 -1 -28.5 -1h-28.5h-18t-24 1.5
t-21 6.5t-9 14q0 12 12 17q19 7 60 11t89 6q12 21 21 36t12 21t10.5 19t16 25.5t17.5 22.5t16 10q8 0 12.5 -5t4.5 -13q0 -12 -14 -42.5t-37 -71.5q26 1 47.5 1.5t39.5 0.5q13 21 21 35.5t10 17.5q3 6 10.5 19t16 25.5t17.5 22.5t16 10q8 0 12.5 -5t4.5 -13q0 -12 -13.5 -42
t-35.5 -69h25t23.5 -2t17.5 -5.5t7 -10.5q0 -10 -7 -13.5t-15 -4.5q-19 -2 -37.5 -3.5t-37.5 -3.5q-17 -31 -37 -62.5t-40 -62.5q12 0 28.5 1t31.5 -0.5t25.5 -5t10.5 -12.5q0 -10 -7 -13.5t-15 -4.5q-26 -2 -51.5 -4.5t-51.5 -5.5q-35 -51 -61 -85t-34 -34zM270 263
q-17 -28 -34.5 -57t-35.5 -57l89 3l71 119q-23 -2 -45 -4t-45 -4z" />
    <glyph glyph-name="dollar" unicode="$" horiz-adv-x="464" 
d="M51 -99q-8 0 -12 5.5t-4 12.5q0 3 9 20.5t24 46.5q-29 17 -47 45.5t-18 66.5q0 23 7.5 48.5t22 47t35.5 35.5t48 14q21 0 38.5 -13t17.5 -36q0 -19 -18 -19q-6 0 -10 3t-9.5 6t-12.5 6t-18 3q-30 0 -45 -22t-15 -49q0 -29 13 -52.5t35 -39.5q34 62 80 142t91 158
q-6 36 -6 74q0 23 6.5 46.5t19.5 42.5t32.5 31t45.5 12q11 0 22 -3q5 9 9.5 16t7.5 11t8.5 12t11.5 16t12 14t11 6q8 0 13 -5t5 -12t-10 -28.5t-27 -52.5q29 -27 29 -67q0 -9 -3.5 -25.5t-10 -32.5t-16 -28t-21.5 -12q-9 0 -15.5 5t-6.5 15t3.5 19.5t7.5 19.5t7.5 20t3.5 21
q0 10 -4 18q-20 -35 -43.5 -75.5t-47.5 -81.5q11 -37 21.5 -73.5t10.5 -75.5q0 -41 -11 -77t-33.5 -63t-55.5 -43t-77 -16q-29 0 -59 11q-17 -27 -32 -47.5t-20 -20.5zM173 3q29 0 51 11t36.5 29t21.5 42t7 51q0 29 -4 58.5t-9 59.5l-118 -194l-30 -50q20 -7 45 -7zM291 399
v-10t1 -10q19 32 35.5 61t30.5 52h-1q-17 0 -29.5 -9t-20.5 -23t-12 -30.5t-4 -30.5z" />
    <glyph glyph-name="percent" unicode="%" horiz-adv-x="747" 
d="M559 234q18 0 28.5 -10.5t10.5 -27.5q0 -20 -18.5 -45t-48 -51t-66 -51.5t-72 -45.5t-66 -32t-48.5 -12q-27 0 -48 14.5t-21 44.5q0 24 16.5 50t43.5 51t60.5 48t67.5 40.5t65 27.5t53 10q8 0 20.5 -1t16.5 -11q2 1 6 1zM441 454q17 0 27.5 -11t10.5 -28q0 -20 -18.5 -45
t-48 -51t-66 -51.5t-72 -45.5t-66 -32t-48.5 -12q-26 0 -47 14t-21 43q0 24 16.5 50.5t43 52t60 48.5t67.5 40.5t65 27.5t53 10q9 0 20.5 -1t15.5 -10q3 1 8 1zM19 -50q-8 0 -12 5.5t-4 12.5q0 2 0.5 3.5t0.5 3.5q1 3 9.5 11t18.5 17t19.5 17.5t13.5 11.5q29 27 59.5 51.5
t61.5 49.5q16 13 56.5 43t93.5 67t113 76.5t114.5 72.5t98 54t63.5 21q8 0 13.5 -5t5.5 -13q0 -10 -15.5 -22t-36 -24t-40 -22t-27.5 -15q-153 -87 -302 -183t-279 -216l-11 -11t-14 -6zM523 211q-19 0 -45.5 -10t-55.5 -26.5t-58 -37t-51.5 -42t-37 -41.5t-14.5 -36
q0 -2 2 -4.5t4 -3.5l-1 1q5 -2 11 -3t11 -1q30 0 65.5 15.5t69 39.5t62 51.5t44.5 51.5q2 4 8.5 13t8.5 15q-7 2 -14.5 4.5t-7.5 13.5h-1zM404 430q-32 0 -70 -17.5t-74 -44t-66 -57t-45 -57.5q-2 -4 -4.5 -8t-2.5 -9q0 -2 2 -4.5t4 -3.5l-1 1q5 -2 11 -3t11 -1
q30 0 65.5 15.5t69 39.5t61.5 51.5t45 51.5q2 4 8.5 13t8.5 15q-7 2 -14.5 4.5t-7.5 13.5h-1zM555 188q0 2 -4 4zM436 407q0 2 -4 4z" />
    <glyph glyph-name="ampersand" unicode="&#x26;" horiz-adv-x="712" 
d="M539 506q0 22 -18.5 30t-36.5 8q-26 0 -53 -8t-49 -23l1 1q-15 -10 -28 -26t-13 -35q0 -23 17 -34q14 -3 25.5 -9t11.5 -17q0 -6 -4 -10.5t-11 -4.5q-10 0 -14 1q-5 -2 -12 -3.5t-14.5 -2.5t-14 -2t-9.5 -1q-39 -7 -78 -18t-74 -30q-55 -29 -88.5 -83t-33.5 -117
q0 -40 14 -70.5t39 -50.5t57.5 -30.5t70.5 -10.5q46 0 99.5 15.5t98.5 45t75 72t30 96.5q0 29 -19.5 50.5t-50.5 19.5q-30 1 -65.5 -7t-65.5 -25.5t-50 -44.5t-20 -63q0 -5 1 -11t6 -10l-1 1q10 -7 20 -7q8 0 11 3.5t5.5 7t6.5 7t13 3.5q8 0 10.5 -8t2.5 -13
q0 -22 -18 -35.5t-38 -13.5q-28 0 -47 18t-19 47q0 40 25 76.5t62.5 64t81 43.5t80.5 16q51 0 85 -29.5t34 -82.5q0 -63 -35.5 -116t-89.5 -90.5t-117.5 -58.5t-119.5 -21q-45 0 -83.5 13t-67 38t-45 61t-16.5 83q0 60 26.5 115t70 98.5t99 71.5t114.5 32q-13 23 -13 47
q0 30 16 52t40.5 36.5t53.5 21t54 6.5q18 0 37.5 -4t35.5 -13t26 -24t10 -37q0 -8 -3.5 -19t-9.5 -21t-14 -17.5t-17 -7.5q-7 0 -12 5t-5 12q0 6 4 10t9.5 9t9.5 11.5t4 16.5zM797 473q8 0 12.5 -5t4.5 -13q0 -14 -6.5 -32t-14.5 -29q-21 -30 -49 -42t-57.5 -17t-56.5 -9
t-45 -19q-5 -5 -10.5 -10t-13.5 -5q-7 0 -11 5.5t-4 11.5q0 13 16.5 24.5t38.5 21t44 16.5t32 10q18 5 36 12t32 19q6 5 12.5 15t13 20.5t13.5 18t13 7.5z" />
    <glyph glyph-name="quotesingle" unicode="'" horiz-adv-x="2" 
d="M152 590q0 -13 -11 -45t-27 -65t-34 -58t-32 -25q-6 0 -11 4t-5 11q0 4 9 24.5t21 46.5t22.5 51t13.5 37q1 6 3 16.5t5 20t8 16.5t13 7q15 0 20 -14.5t5 -26.5z" />
    <glyph glyph-name="parenleft" unicode="(" horiz-adv-x="258" 
d="M0 210q43 42 91 69t102 27q14 0 25 -7t9 -22q-2 -14 -12 -23.5t-21 -6.5q-30 8 -53 5.5t-42 -12t-37 -24t-37 -30.5q-7 -5 -16.5 -10t-11.5 1q-6 7 -4 17.5t7 15.5z" />
    <glyph glyph-name="parenright" unicode=")" horiz-adv-x="164" 
d="M0 209q8 8 18.5 22.5t19.5 31t13.5 34t1.5 31.5q-4 17 4.5 24.5t20 6t21 -11.5t8.5 -26q-2 -17 -10 -35t-19.5 -35.5t-25 -33t-25.5 -27.5q-9 -9 -18 -10.5t-13.5 2t-4.5 11t9 16.5z" />
    <glyph glyph-name="asterisk" unicode="*" horiz-adv-x="386" 
d="M339 312q0 -7 -5 -11.5t-12 -4.5q-12 0 -17 12q-5 10 -11 29.5t-13 44.5q-27 -19 -53.5 -35t-49.5 -28t-41 -18.5t-29 -6.5q-7 0 -11 6t-4 12q0 10 10 15q29 16 57.5 31t56.5 34q4 2 9 7q-24 -2 -43.5 -2.5t-30.5 -0.5h-15.5t-18 2.5t-14.5 7t-6 13.5q0 8 14 14t37.5 10
t52.5 6.5t59 4.5q-8 31 -12.5 56.5t-4.5 37.5q0 11 3.5 20t16.5 9q6 0 12 -8.5t12 -23.5t12 -34.5t11 -40.5q24 20 48.5 40.5t45 37t35 27t17.5 10.5q8 0 12 -5t4 -12q0 -17 -26 -47t-66 -63h22q6 0 16 0.5t20 -0.5t17 -4.5t7 -12.5q0 -7 -4.5 -11.5t-10.5 -6.5
q-15 -5 -48.5 -8.5t-74.5 -7.5q6 -33 10 -59t4 -36z" />
    <glyph glyph-name="plus" unicode="+" horiz-adv-x="491" 
d="M347 388q0 -14 -17 -50.5t-41 -81.5h64q9 0 24.5 1t31.5 0t27.5 -6t11.5 -16q0 -9 -8.5 -11.5t-15.5 -3.5q-42 -5 -82 -9t-82 -8q-26 -46 -49 -84.5t-32 -53.5q-4 -7 -8.5 -13.5t-13.5 -6.5q-7 0 -11.5 4.5t-4.5 10.5q0 10 17 49.5t43 89.5q-23 -1 -46 -1.5t-46 -0.5
h-17.5t-22 1.5t-18.5 6.5t-8 14t17 15.5t44 11t60 6.5t66 3q16 30 31.5 58t29 49t23.5 34t15 13q9 0 13.5 -6.5t4.5 -14.5z" />
    <glyph glyph-name="comma" unicode="," horiz-adv-x="192" 
d="M61 62q0 -16 -13.5 -43t-32.5 -53t-40 -45t-36 -19q-7 0 -11 5t-4 11q0 9 6.5 16t11.5 13q25 29 43 59.5t31 66.5q3 9 6 17t15 8q14 0 19 -12.5t5 -23.5z" />
    <glyph glyph-name="hyphen" unicode="-" horiz-adv-x="427" 
d="M216 226q9 0 30.5 0.5t44.5 -1t40.5 -6.5t17.5 -16q0 -8 -6 -12q-2 -2 -19.5 -4.5t-43 -5t-55 -5t-56 -4.5t-45.5 -3t-24 -1q-10 0 -19 3t-9 16q0 14 19 22t43.5 11.5t48 4.5t33.5 1z" />
    <glyph glyph-name="period" unicode="." horiz-adv-x="258" 
d="M45 -4q-18 0 -30.5 12.5t-12.5 30.5t12.5 30.5t30.5 12.5t31 -12.5t13 -30.5q0 -19 -12.5 -31t-31.5 -12z" />
    <glyph glyph-name="slash" unicode="/" horiz-adv-x="439" 
d="M-172 -199q-8 0 -11.5 6t-3.5 12q0 4 3 8t5 7q38 53 89.5 114t110.5 125.5t123.5 129t128.5 123.5t125.5 110t113.5 89q10 7 24 17.5t29.5 20.5t31 16.5t28.5 6.5q7 0 11.5 -6t4.5 -12q0 -7 -6.5 -14.5t-15 -15t-17 -13.5t-13.5 -9q-86 -58 -179.5 -134.5t-184 -160.5
t-174 -171t-149.5 -167q-5 -6 -14.5 -19.5t-20.5 -27.5t-21.5 -24.5t-17.5 -10.5z" />
    <glyph glyph-name="zero" unicode="0" horiz-adv-x="1844" 
d="M202 176l-28 -150l-27 150h-39l-3 -239h36l1 97l19 -97h28l19 98l2 -98h35l-2 239h-41zM997 642q-49 0 -57 48q-2 10 -2 20v21q0 23 -1 48t5 47q5 19 19.5 27.5t32.5 9.5t34.5 -6t22.5 -26q8 -20 7.5 -46t-0.5 -48q0 -14 -0.5 -26.5t-3.5 -24.5q-9 -44 -57 -44zM941 394
q-49 0 -58 46q-2 11 -1.5 22t0.5 23q0 21 -1 46t4 46q5 20 19 28.5t33 8.5q20 1 35.5 -6t22.5 -25q8 -22 6 -47t-2 -47q0 -14 0.5 -26t-2.5 -25q-4 -22 -18.5 -33t-37.5 -11zM648 26h24v-15.5t-1.5 -20t-7 -16t-15.5 -2.5q-6 2 -9 8.5t-4 14t-0.5 15.5t0.5 13v57
q0 11 -0.5 25.5t2.5 26.5q8 11 19 10q12 -4 13 -15q2 -8 1.5 -17t-0.5 -19h40q0 10 -0.5 21.5t-2.5 22.5t-7.5 20.5t-15.5 15.5q-11 7 -26 7.5t-28 -3.5q-17 -5 -24.5 -19t-10.5 -30q-2 -17 -1.5 -34.5t0.5 -34.5t-0.5 -33t1.5 -33q2 -14 7.5 -28.5t17.5 -21.5
q12 -8 29.5 -8t28.5 11l1 -7h32v124h-63v-35zM676 644v218q20 0 43.5 0.5t41.5 -9.5q12 -7 18 -22t6 -30.5t-6.5 -29t-19.5 -18.5l29 -109h-29l-29 103h-23v-103h-31zM548 61l-20 22l-12 12t-9 16q-2 4 -2 9.5t1.5 10.5t5 8t9.5 3q6 -1 9.5 -6.5t4.5 -12.5t1.5 -14.5
t0.5 -12.5l37 2q0 22 -5 44.5t-26 31.5q-13 6 -26 5t-23.5 -7t-17.5 -16.5t-8 -24.5q-2 -14 0.5 -29t10.5 -26q3 -7 9 -12t11 -11q11 -14 24.5 -27.5t13.5 -33.5q0 -7 -1.5 -13t-8.5 -7q-5 -2 -9 0.5t-6 7.5q-5 10 -6 21l-2 22l-37 -3q0 -15 1.5 -29t7.5 -28
q8 -17 24.5 -24.5t33.5 -3.5q19 3 29.5 17t12.5 30q4 45 -28 79zM438 644v218h46q17 0 31.5 -3.5t22.5 -20.5q10 -19 8.5 -43.5t-18.5 -38.5q-12 -10 -29 -10h-31v-102h-30zM1030 396v217h20l62 -145v145h27v-217h-21l-63 148v-148h-25zM1088 644v218h20l61 -145v145h26
v-218h-20l-63 148v-148h-24zM521 397q-10 -4 -21 -4t-21.5 3.5t-19 10.5t-12.5 19q-5 11 -6 24t-1 28v135h29v-145q0 -12 2 -27.5t16 -23.5q12 -4 19.5 -0.5t12 11t6.5 17.5t2 19q1 18 0.5 35t-0.5 35v79h30v-100q0 -14 0.5 -31.5t-2 -34.5t-10 -30.5t-24.5 -19.5zM1217 644
l46 218h29l46 -218h-28l-11 54h-44l-10 -54h-28zM639 394q-28 0 -42 18t-15 45l28 7q1 -10 2.5 -20.5t8.5 -17.5q7 -8 17 -9t18 6q9 8 8 21t-7 21q-5 6 -10.5 12.5t-13.5 11.5q-10 10 -22.5 20t-19.5 22q-7 10 -8.5 23t1.5 25t11 21t20 13q12 3 27 2t26 -9t14.5 -21t4.5 -26
l-24 -8q-1 12 -5.5 25t-18.5 16q-10 2 -18 -3.5t-10 -16.5q-5 -17 8.5 -29.5t25.5 -22.5q14 -13 27 -26.5t17 -33.5q6 -25 -8 -45.5t-42 -20.5zM866 642q-27 0 -42 18t-16 44l28 8q1 -11 3 -21.5t9 -17.5t17.5 -8t17.5 6q8 8 7.5 20.5t-6.5 22.5q-4 6 -10 11.5t-14 12.5
q-10 9 -22 19t-19 21t-9 24t1 25t10.5 21.5t20.5 12.5q12 3 27 2t25 -9q11 -8 15 -21t5 -26l-24 -7q-1 11 -5.5 24t-18.5 17q-10 1 -18.5 -4.5t-10.5 -14.5q-3 -19 10 -32t26 -22q14 -13 26.5 -26.5t17.5 -31.5q5 -27 -9 -47.5t-42 -20.5zM719 -93h34l68 299h-38zM568 644
v218h83v-23h-54v-71h44v-22h-44v-81h55v-21h-84zM715 396v217h84v-23h-54v-71h44v-22h-44v-81h54v-20h-84zM985 667q13 -5 27 0q9 5 11.5 12.5t3.5 15.5v25v76q0 9 -0.5 19t-8.5 17q-10 12 -26 7q-16 -1 -21 -19q-5 -15 -3 -34t2 -35v-40q0 -11 1 -24.5t14 -19.5zM926 419
q6 -3 14.5 -3t13.5 3q8 5 11.5 13t4.5 16q1 5 0.5 11.5t-0.5 11.5v77q0 9 -0.5 19t-8.5 17q-5 6 -12.5 8t-14.5 0q-15 -4 -21 -21q-3 -15 -2 -33.5t1 -35.5v-39q0 -11 1.5 -24t12.5 -20zM1311 396v45q0 8 1 16.5t-1 15.5q-4 22 -15 42l-31 98h28l33 -104l31 104h30
q-14 -45 -30 -90l-14 -45q-3 -8 -2.5 -15t0.5 -13v-54h-30zM1361 644v218h30v-197h56v-21h-86zM1172 396v217h30v-197h55v-20h-85zM561 -237q-13 0 -19.5 6t-9 15t-2.5 20v20t0.5 19t3.5 17.5t10 12t20 3.5q11 -1 17 -6.5t8.5 -14t2.5 -18v-18.5t-0.5 -18.5t-3 -18t-9 -14
t-18.5 -5.5zM1338 -235v110q11 0 24.5 0.5t23.5 -7.5t9.5 -23t-0.5 -26v-26.5t-12 -22.5q-9 -7 -22 -6t-23 1zM1403 -375q-13 0 -19.5 6t-9 15t-2.5 19.5v19.5q0 10 0.5 20t4 17.5t10.5 12t20 3.5q12 -1 17 -6.5t7 -14t1.5 -18t-0.5 -18.5v-18.5t-2.5 -18t-8.5 -14t-18 -5.5
zM467 -375q-14 0 -20.5 6t-8.5 15t-2 19.5v19.5q0 10 0.5 20t3.5 17.5t10 12t20 3.5q12 -1 17.5 -6.5t8 -14t2.5 -18v-18.5v-18.5t-3 -18t-9.5 -14t-18.5 -5.5zM748 -374v111q11 0 22.5 1t20.5 -4q6 -4 9.5 -11.5t3.5 -15.5t-3.5 -15t-10.5 -10l16 -56h-15l-13 53h-12v-53
h-18zM512 -374l2 111h16l20 -89l19 89h14l2 -111h-12l-1 82l-18 -82h-11l-17 82l-1 -82h-13zM602 -374l2 111h16l19 -89l20 89h16l1 -111h-11l-2 82l-19 -82h-10l-17 82l-2 -82h-13zM1204 -374v111q11 0 22 1t21 -4q6 -4 9.5 -11.5t3.5 -15.5t-3 -15t-10 -10l14 -56h-14
l-14 53h-13v-53h-16zM607 -235v110q10 0 21 1t20 -4q6 -3 10 -11t4.5 -16.5t-3 -15.5t-11.5 -10l16 -54h-15l-16 51h-11v-51h-15zM618 231v112q6 0 13 0.5t14.5 -0.5t14 -3t10.5 -8q4 -10 3 -23t-9 -20q-7 -5 -15 -5.5t-16 -0.5v-52h-15zM1265 -235v110h10l32 -73v73h12
v-110h-9l-32 74v-74h-13zM765 -235v110h14v-48h29v48h16v-110h-16v51h-29v-51h-14zM1450 -374v111h10l32 -74v74h12v-111h-10l-32 76v-76h-12zM788 231l24 112h15l24 -112h-16l-5 29h-23l-5 -29h-14zM919 -374l24 111h15l24 -111h-14l-5 29h-24l-5 -29h-15zM1193 -235
l21 110h17l23 -110h-15l-5 27h-23l-6 -27h-12zM1412 443l-8 170h28l-9 -170h-11zM1024 -235q-16 -5 -27.5 2t-14.5 23q-2 7 -1 13.5t1 12.5v59h14v-49q0 -5 -0.5 -13.5t0.5 -17t4 -15t10 -6.5q8 0 11.5 6.5t5 15t1 17t-0.5 13.5v49h13v-50q0 -7 0.5 -16t-0.5 -18t-4.5 -16
t-11.5 -10zM468 768q8 0 15.5 -0.5t16.5 1.5q11 3 14 11.5t3 19.5q1 12 -1.5 23t-15.5 15q-9 2 -16.5 1.5t-15.5 -0.5v-71zM707 768h15t16 2q10 5 13.5 15t1.5 21q0 10 -2.5 18t-12.5 12q-8 4 -16 3.5t-15 -0.5v-71zM395 -375q-14 0 -20.5 8t-8.5 20t-1.5 25.5t0.5 23.5
q0 15 7.5 26.5t26.5 9.5q17 -2 20.5 -14t3.5 -25h-14v10t-2 10q-2 8 -10.5 8.5t-12.5 -6.5q-5 -6 -3.5 -19t1.5 -21q0 -7 -1.5 -19t4.5 -19q3 -7 11.5 -6t10.5 9q2 5 2 10.5v10.5h14q0 -14 -4 -28t-24 -14zM848 -375q-15 0 -21 8t-7.5 20t-0.5 25.5t1 23.5q0 15 7 26.5
t25 9.5t21.5 -14t3.5 -25h-16q0 5 0.5 10t-1.5 10q-2 8 -10 8.5t-13 -6.5q-5 -6 -4 -19t1 -21q0 -7 -1 -19t5 -19q4 -7 12 -6t10 9q2 5 1.5 10.5t-0.5 10.5h16q0 -14 -4.5 -28t-24.5 -14zM1143 230q-15 0 -21.5 9t-7.5 23l15 5q0 -6 2 -13.5t8 -10.5q7 -2 11.5 2t4.5 11
q1 11 -8.5 19.5t-17.5 16.5q-11 8 -15 22t8 25q15 8 31 3q8 -3 11 -11t4 -16l-13 -3q-1 5 -2.5 10.5t-6.5 10.5q-4 2 -9.5 0t-6.5 -9q-5 -8 2.5 -15.5l12.5 -12.5q7 -6 14 -12.5t9 -17.5q4 -14 -3 -25t-22 -11zM888 230q-14 0 -21.5 9t-8.5 23l15 5q0 -6 2 -13.5t7 -10.5
q8 -2 13 2t5 11q0 11 -10 19.5t-17 16.5q-11 8 -14.5 22t8.5 25q7 4 15.5 4.5t14.5 -1.5q8 -3 11.5 -11t4.5 -16l-13 -3q-1 5 -2.5 10.5t-6.5 10.5q-5 2 -10 0t-7 -9q-3 -8 3.5 -15.5t11.5 -12.5q8 -6 15 -12.5t9 -17.5q4 -14 -3.5 -25t-21.5 -11zM1303 -375q-15 0 -22 10
t-9 23l15 3q0 -5 2 -12t7 -9q8 -5 13 -0.5t5 10.5q0 11 -10 20t-17 15q-10 10 -14 24.5t9 23.5q6 5 15 5.5t15 -2.5q8 -2 11 -10t4 -15l-13 -5q-1 5 -2 11t-6 10q-6 2 -11 0t-7 -8q-4 -8 3 -15t13 -12q7 -8 14 -14.5t9 -17.5q4 -13 -3 -24t-21 -11zM1033 231l-25 112h16
l16 -82l18 82h12l-23 -112h-14zM1099 -374l-25 111h14l18 -81l15 81h16l-26 -111h-12zM926 231v112h44v-10h-28v-38h23v-11h-23v-42h29v-11h-45zM841 -235v110h43v-11h-27v-37h23v-11h-23v-42h27v-9h-43zM1148 -374v111h45v-10h-29v-36h23v-12h-23v-42h29v-11h-45zM693 -374
v111h44v-10h-28v-36h23v-12h-23v-42h28v-11h-44zM738 231v112h43v-10h-29v-38h24v-11h-24v-42h29v-11h-43zM554 -224q9 -4 13.5 -0.5t6 10.5t1.5 15v14q0 4 0.5 11t0.5 14.5t-1.5 14t-5.5 8.5q-11 6 -17.5 -1.5t-6.5 -16.5v-18q0 -4 -0.5 -11.5t0 -16t2.5 -15t7 -8.5z
M1396 -359q9 -5 14 -2.5t7 9.5t2 15v14q0 4 0.5 11t-0.5 14.5t-3 13.5t-6 8q-11 7 -15.5 -0.5t-4.5 -15.5v-17q0 -4 -1 -12t-1 -16t1.5 -14.5t6.5 -7.5zM459 -359q9 -5 13.5 -2.5t6.5 9.5t2 15v14q0 4 0.5 11t0.5 14.5t-1.5 13.5t-5.5 8q-12 7 -17.5 -0.5t-5.5 -15.5
q-1 -5 -0.5 -9t0.5 -8t-0.5 -12t-0.5 -16t1.5 -14.5t6.5 -7.5zM478 -235v110h43v-11h-26v-37h21v-11h-21v-51h-17zM930 -235v110h42v-11h-29v-37h22v-11h-22v-51h-13zM1353 -226q10 0 17 2t9 14v29v29q-1 12 -8 14t-18 2v-90zM721 -235v99h-20v11h56v-11h-20v-99h-16z
M1229 231v102h-21v10h54v-10h-19v-102h-14zM994 -374v111h14v-100h29v-11h-43zM1058 -235v110h15v-101h28v-9h-43zM1111 -235v110h16v-101h28v-9h-44zM684 231v112h14v-101h29v-11h-43zM1084 231v112h15v-112h-15zM1259 720h37l-19 99zM410 -63h40v44h-40v-44zM892 -374v111
h16v-111h-16zM1342 -374v111h14v-111h-14zM1182 231v112h16v-112h-16zM1404 396v31h28v-31h-28zM633 294h8t9 2q6 2 7 8t1 12q-1 14 -7.5 15.5t-17.5 1.5v-39zM622 -173q10 0 17.5 3t7.5 16t-7 15.5t-18 2.5v-37zM1220 -309q11 0 18 2.5t7 15.5q0 11 -7 14.5t-18 3.5v-36z
M766 -309q10 0 16.5 2.5t6.5 15.5q0 11 -6.5 14.5t-16.5 3.5v-36zM941 -335h19l-9 51zM1213 -196h20l-10 50zM808 271h20l-8 51zM347 61l-41 115h-31v-239h37v117l42 -117h30v239h-37v-115zM1356 176h-52v-239h40v104h10l16 -104h40l-19 115q8 8 12.5 19t6.5 23q2 15 0 29.5
t-8 26t-17.5 19t-28.5 7.5zM1502 61l-41 115h-31v-239h37v117l42 -117h30v239h-37v-115zM1098 42h40v-105h40v239h-40v-99h-40v99h-40v-239h40v105zM1595 176l-44 -239h40l9 56h26l8 -56h40l-42 239h-37zM1239 42h38v35h-38v64h48v35h-88v-239h88v35h-48v70zM873 42h37v35
h-37v64h46v35h-87v-239h87v35h-46v70zM1008 141h37v35h-112v-35h36v-204h39v204zM1727 176h-40v-239h88v35h-48v204zM1344 141q5 0 12.5 0.5t11.5 -4.5q3 -4 4 -11.5t1 -16t-1.5 -16t-4.5 -11.5q-5 -5 -11.5 -5h-11.5v64zM1606 29l7 47l7 -47h-14z" />
    <glyph glyph-name="one" unicode="1" horiz-adv-x="1844" 
d="M202 176l-28 -150l-27 150h-39l-3 -239h36l1 97l19 -97h28l19 98l2 -98h35l-2 239h-41zM997 642q-49 0 -57 48q-2 10 -2 20v21q0 23 -1 48t5 47q5 19 19.5 27.5t32.5 9.5t34.5 -6t22.5 -26q8 -20 7.5 -46t-0.5 -48q0 -14 -0.5 -26.5t-3.5 -24.5q-9 -44 -57 -44zM941 394
q-49 0 -58 46q-2 11 -1.5 22t0.5 23q0 21 -1 46t4 46q5 20 19 28.5t33 8.5q20 1 35.5 -6t22.5 -25q8 -22 6 -47t-2 -47q0 -14 0.5 -26t-2.5 -25q-4 -22 -18.5 -33t-37.5 -11zM648 26h24v-15.5t-1.5 -20t-7 -16t-15.5 -2.5q-6 2 -9 8.5t-4 14t-0.5 15.5t0.5 13v57
q0 11 -0.5 25.5t2.5 26.5q8 11 19 10q12 -4 13 -15q2 -8 1.5 -17t-0.5 -19h40q0 10 -0.5 21.5t-2.5 22.5t-7.5 20.5t-15.5 15.5q-11 7 -26 7.5t-28 -3.5q-17 -5 -24.5 -19t-10.5 -30q-2 -17 -1.5 -34.5t0.5 -34.5t-0.5 -33t1.5 -33q2 -14 7.5 -28.5t17.5 -21.5
q12 -8 29.5 -8t28.5 11l1 -7h32v124h-63v-35zM676 644v218q20 0 43.5 0.5t41.5 -9.5q12 -7 18 -22t6 -30.5t-6.5 -29t-19.5 -18.5l29 -109h-29l-29 103h-23v-103h-31zM548 61l-20 22l-12 12t-9 16q-2 4 -2 9.5t1.5 10.5t5 8t9.5 3q6 -1 9.5 -6.5t4.5 -12.5t1.5 -14.5
t0.5 -12.5l37 2q0 22 -5 44.5t-26 31.5q-13 6 -26 5t-23.5 -7t-17.5 -16.5t-8 -24.5q-2 -14 0.5 -29t10.5 -26q3 -7 9 -12t11 -11q11 -14 24.5 -27.5t13.5 -33.5q0 -7 -1.5 -13t-8.5 -7q-5 -2 -9 0.5t-6 7.5q-5 10 -6 21l-2 22l-37 -3q0 -15 1.5 -29t7.5 -28
q8 -17 24.5 -24.5t33.5 -3.5q19 3 29.5 17t12.5 30q4 45 -28 79zM438 644v218h46q17 0 31.5 -3.5t22.5 -20.5q10 -19 8.5 -43.5t-18.5 -38.5q-12 -10 -29 -10h-31v-102h-30zM1030 396v217h20l62 -145v145h27v-217h-21l-63 148v-148h-25zM1088 644v218h20l61 -145v145h26
v-218h-20l-63 148v-148h-24zM521 397q-10 -4 -21 -4t-21.5 3.5t-19 10.5t-12.5 19q-5 11 -6 24t-1 28v135h29v-145q0 -12 2 -27.5t16 -23.5q12 -4 19.5 -0.5t12 11t6.5 17.5t2 19q1 18 0.5 35t-0.5 35v79h30v-100q0 -14 0.5 -31.5t-2 -34.5t-10 -30.5t-24.5 -19.5zM1217 644
l46 218h29l46 -218h-28l-11 54h-44l-10 -54h-28zM639 394q-28 0 -42 18t-15 45l28 7q1 -10 2.5 -20.5t8.5 -17.5q7 -8 17 -9t18 6q9 8 8 21t-7 21q-5 6 -10.5 12.5t-13.5 11.5q-10 10 -22.5 20t-19.5 22q-7 10 -8.5 23t1.5 25t11 21t20 13q12 3 27 2t26 -9t14.5 -21t4.5 -26
l-24 -8q-1 12 -5.5 25t-18.5 16q-10 2 -18 -3.5t-10 -16.5q-5 -17 8.5 -29.5t25.5 -22.5q14 -13 27 -26.5t17 -33.5q6 -25 -8 -45.5t-42 -20.5zM866 642q-27 0 -42 18t-16 44l28 8q1 -11 3 -21.5t9 -17.5t17.5 -8t17.5 6q8 8 7.5 20.5t-6.5 22.5q-4 6 -10 11.5t-14 12.5
q-10 9 -22 19t-19 21t-9 24t1 25t10.5 21.5t20.5 12.5q12 3 27 2t25 -9q11 -8 15 -21t5 -26l-24 -7q-1 11 -5.5 24t-18.5 17q-10 1 -18.5 -4.5t-10.5 -14.5q-3 -19 10 -32t26 -22q14 -13 26.5 -26.5t17.5 -31.5q5 -27 -9 -47.5t-42 -20.5zM719 -93h34l68 299h-38zM568 644
v218h83v-23h-54v-71h44v-22h-44v-81h55v-21h-84zM715 396v217h84v-23h-54v-71h44v-22h-44v-81h54v-20h-84zM985 667q13 -5 27 0q9 5 11.5 12.5t3.5 15.5v25v76q0 9 -0.5 19t-8.5 17q-10 12 -26 7q-16 -1 -21 -19q-5 -15 -3 -34t2 -35v-40q0 -11 1 -24.5t14 -19.5zM926 419
q6 -3 14.5 -3t13.5 3q8 5 11.5 13t4.5 16q1 5 0.5 11.5t-0.5 11.5v77q0 9 -0.5 19t-8.5 17q-5 6 -12.5 8t-14.5 0q-15 -4 -21 -21q-3 -15 -2 -33.5t1 -35.5v-39q0 -11 1.5 -24t12.5 -20zM1311 396v45q0 8 1 16.5t-1 15.5q-4 22 -15 42l-31 98h28l33 -104l31 104h30
q-14 -45 -30 -90l-14 -45q-3 -8 -2.5 -15t0.5 -13v-54h-30zM1361 644v218h30v-197h56v-21h-86zM1172 396v217h30v-197h55v-20h-85zM561 -237q-13 0 -19.5 6t-9 15t-2.5 20v20t0.5 19t3.5 17.5t10 12t20 3.5q11 -1 17 -6.5t8.5 -14t2.5 -18v-18.5t-0.5 -18.5t-3 -18t-9 -14
t-18.5 -5.5zM1338 -235v110q11 0 24.5 0.5t23.5 -7.5t9.5 -23t-0.5 -26v-26.5t-12 -22.5q-9 -7 -22 -6t-23 1zM1403 -375q-13 0 -19.5 6t-9 15t-2.5 19.5v19.5q0 10 0.5 20t4 17.5t10.5 12t20 3.5q12 -1 17 -6.5t7 -14t1.5 -18t-0.5 -18.5v-18.5t-2.5 -18t-8.5 -14t-18 -5.5
zM467 -375q-14 0 -20.5 6t-8.5 15t-2 19.5v19.5q0 10 0.5 20t3.5 17.5t10 12t20 3.5q12 -1 17.5 -6.5t8 -14t2.5 -18v-18.5v-18.5t-3 -18t-9.5 -14t-18.5 -5.5zM748 -374v111q11 0 22.5 1t20.5 -4q6 -4 9.5 -11.5t3.5 -15.5t-3.5 -15t-10.5 -10l16 -56h-15l-13 53h-12v-53
h-18zM512 -374l2 111h16l20 -89l19 89h14l2 -111h-12l-1 82l-18 -82h-11l-17 82l-1 -82h-13zM602 -374l2 111h16l19 -89l20 89h16l1 -111h-11l-2 82l-19 -82h-10l-17 82l-2 -82h-13zM1204 -374v111q11 0 22 1t21 -4q6 -4 9.5 -11.5t3.5 -15.5t-3 -15t-10 -10l14 -56h-14
l-14 53h-13v-53h-16zM607 -235v110q10 0 21 1t20 -4q6 -3 10 -11t4.5 -16.5t-3 -15.5t-11.5 -10l16 -54h-15l-16 51h-11v-51h-15zM618 231v112q6 0 13 0.5t14.5 -0.5t14 -3t10.5 -8q4 -10 3 -23t-9 -20q-7 -5 -15 -5.5t-16 -0.5v-52h-15zM1265 -235v110h10l32 -73v73h12
v-110h-9l-32 74v-74h-13zM765 -235v110h14v-48h29v48h16v-110h-16v51h-29v-51h-14zM1450 -374v111h10l32 -74v74h12v-111h-10l-32 76v-76h-12zM788 231l24 112h15l24 -112h-16l-5 29h-23l-5 -29h-14zM919 -374l24 111h15l24 -111h-14l-5 29h-24l-5 -29h-15zM1193 -235
l21 110h17l23 -110h-15l-5 27h-23l-6 -27h-12zM1412 443l-8 170h28l-9 -170h-11zM1024 -235q-16 -5 -27.5 2t-14.5 23q-2 7 -1 13.5t1 12.5v59h14v-49q0 -5 -0.5 -13.5t0.5 -17t4 -15t10 -6.5q8 0 11.5 6.5t5 15t1 17t-0.5 13.5v49h13v-50q0 -7 0.5 -16t-0.5 -18t-4.5 -16
t-11.5 -10zM468 768q8 0 15.5 -0.5t16.5 1.5q11 3 14 11.5t3 19.5q1 12 -1.5 23t-15.5 15q-9 2 -16.5 1.5t-15.5 -0.5v-71zM707 768h15t16 2q10 5 13.5 15t1.5 21q0 10 -2.5 18t-12.5 12q-8 4 -16 3.5t-15 -0.5v-71zM395 -375q-14 0 -20.5 8t-8.5 20t-1.5 25.5t0.5 23.5
q0 15 7.5 26.5t26.5 9.5q17 -2 20.5 -14t3.5 -25h-14v10t-2 10q-2 8 -10.5 8.5t-12.5 -6.5q-5 -6 -3.5 -19t1.5 -21q0 -7 -1.5 -19t4.5 -19q3 -7 11.5 -6t10.5 9q2 5 2 10.5v10.5h14q0 -14 -4 -28t-24 -14zM848 -375q-15 0 -21 8t-7.5 20t-0.5 25.5t1 23.5q0 15 7 26.5
t25 9.5t21.5 -14t3.5 -25h-16q0 5 0.5 10t-1.5 10q-2 8 -10 8.5t-13 -6.5q-5 -6 -4 -19t1 -21q0 -7 -1 -19t5 -19q4 -7 12 -6t10 9q2 5 1.5 10.5t-0.5 10.5h16q0 -14 -4.5 -28t-24.5 -14zM1143 230q-15 0 -21.5 9t-7.5 23l15 5q0 -6 2 -13.5t8 -10.5q7 -2 11.5 2t4.5 11
q1 11 -8.5 19.5t-17.5 16.5q-11 8 -15 22t8 25q15 8 31 3q8 -3 11 -11t4 -16l-13 -3q-1 5 -2.5 10.5t-6.5 10.5q-4 2 -9.5 0t-6.5 -9q-5 -8 2.5 -15.5l12.5 -12.5q7 -6 14 -12.5t9 -17.5q4 -14 -3 -25t-22 -11zM888 230q-14 0 -21.5 9t-8.5 23l15 5q0 -6 2 -13.5t7 -10.5
q8 -2 13 2t5 11q0 11 -10 19.5t-17 16.5q-11 8 -14.5 22t8.5 25q7 4 15.5 4.5t14.5 -1.5q8 -3 11.5 -11t4.5 -16l-13 -3q-1 5 -2.5 10.5t-6.5 10.5q-5 2 -10 0t-7 -9q-3 -8 3.5 -15.5t11.5 -12.5q8 -6 15 -12.5t9 -17.5q4 -14 -3.5 -25t-21.5 -11zM1303 -375q-15 0 -22 10
t-9 23l15 3q0 -5 2 -12t7 -9q8 -5 13 -0.5t5 10.5q0 11 -10 20t-17 15q-10 10 -14 24.5t9 23.5q6 5 15 5.5t15 -2.5q8 -2 11 -10t4 -15l-13 -5q-1 5 -2 11t-6 10q-6 2 -11 0t-7 -8q-4 -8 3 -15t13 -12q7 -8 14 -14.5t9 -17.5q4 -13 -3 -24t-21 -11zM1033 231l-25 112h16
l16 -82l18 82h12l-23 -112h-14zM1099 -374l-25 111h14l18 -81l15 81h16l-26 -111h-12zM926 231v112h44v-10h-28v-38h23v-11h-23v-42h29v-11h-45zM841 -235v110h43v-11h-27v-37h23v-11h-23v-42h27v-9h-43zM1148 -374v111h45v-10h-29v-36h23v-12h-23v-42h29v-11h-45zM693 -374
v111h44v-10h-28v-36h23v-12h-23v-42h28v-11h-44zM738 231v112h43v-10h-29v-38h24v-11h-24v-42h29v-11h-43zM554 -224q9 -4 13.5 -0.5t6 10.5t1.5 15v14q0 4 0.5 11t0.5 14.5t-1.5 14t-5.5 8.5q-11 6 -17.5 -1.5t-6.5 -16.5v-18q0 -4 -0.5 -11.5t0 -16t2.5 -15t7 -8.5z
M1396 -359q9 -5 14 -2.5t7 9.5t2 15v14q0 4 0.5 11t-0.5 14.5t-3 13.5t-6 8q-11 7 -15.5 -0.5t-4.5 -15.5v-17q0 -4 -1 -12t-1 -16t1.5 -14.5t6.5 -7.5zM459 -359q9 -5 13.5 -2.5t6.5 9.5t2 15v14q0 4 0.5 11t0.5 14.5t-1.5 13.5t-5.5 8q-12 7 -17.5 -0.5t-5.5 -15.5
q-1 -5 -0.5 -9t0.5 -8t-0.5 -12t-0.5 -16t1.5 -14.5t6.5 -7.5zM478 -235v110h43v-11h-26v-37h21v-11h-21v-51h-17zM930 -235v110h42v-11h-29v-37h22v-11h-22v-51h-13zM1353 -226q10 0 17 2t9 14v29v29q-1 12 -8 14t-18 2v-90zM721 -235v99h-20v11h56v-11h-20v-99h-16z
M1229 231v102h-21v10h54v-10h-19v-102h-14zM994 -374v111h14v-100h29v-11h-43zM1058 -235v110h15v-101h28v-9h-43zM1111 -235v110h16v-101h28v-9h-44zM684 231v112h14v-101h29v-11h-43zM1084 231v112h15v-112h-15zM1259 720h37l-19 99zM410 -63h40v44h-40v-44zM892 -374v111
h16v-111h-16zM1342 -374v111h14v-111h-14zM1182 231v112h16v-112h-16zM1404 396v31h28v-31h-28zM633 294h8t9 2q6 2 7 8t1 12q-1 14 -7.5 15.5t-17.5 1.5v-39zM622 -173q10 0 17.5 3t7.5 16t-7 15.5t-18 2.5v-37zM1220 -309q11 0 18 2.5t7 15.5q0 11 -7 14.5t-18 3.5v-36z
M766 -309q10 0 16.5 2.5t6.5 15.5q0 11 -6.5 14.5t-16.5 3.5v-36zM941 -335h19l-9 51zM1213 -196h20l-10 50zM808 271h20l-8 51zM347 61l-41 115h-31v-239h37v117l42 -117h30v239h-37v-115zM1356 176h-52v-239h40v104h10l16 -104h40l-19 115q8 8 12.5 19t6.5 23q2 15 0 29.5
t-8 26t-17.5 19t-28.5 7.5zM1502 61l-41 115h-31v-239h37v117l42 -117h30v239h-37v-115zM1098 42h40v-105h40v239h-40v-99h-40v99h-40v-239h40v105zM1595 176l-44 -239h40l9 56h26l8 -56h40l-42 239h-37zM1239 42h38v35h-38v64h48v35h-88v-239h88v35h-48v70zM873 42h37v35
h-37v64h46v35h-87v-239h87v35h-46v70zM1008 141h37v35h-112v-35h36v-204h39v204zM1727 176h-40v-239h88v35h-48v204zM1344 141q5 0 12.5 0.5t11.5 -4.5q3 -4 4 -11.5t1 -16t-1.5 -16t-4.5 -11.5q-5 -5 -11.5 -5h-11.5v64zM1606 29l7 47l7 -47h-14z" />
    <glyph glyph-name="two" unicode="2" horiz-adv-x="1844" 
d="M202 176l-28 -150l-27 150h-39l-3 -239h36l1 97l19 -97h28l19 98l2 -98h35l-2 239h-41zM997 642q-49 0 -57 48q-2 10 -2 20v21q0 23 -1 48t5 47q5 19 19.5 27.5t32.5 9.5t34.5 -6t22.5 -26q8 -20 7.5 -46t-0.5 -48q0 -14 -0.5 -26.5t-3.5 -24.5q-9 -44 -57 -44zM941 394
q-49 0 -58 46q-2 11 -1.5 22t0.5 23q0 21 -1 46t4 46q5 20 19 28.5t33 8.5q20 1 35.5 -6t22.5 -25q8 -22 6 -47t-2 -47q0 -14 0.5 -26t-2.5 -25q-4 -22 -18.5 -33t-37.5 -11zM648 26h24v-15.5t-1.5 -20t-7 -16t-15.5 -2.5q-6 2 -9 8.5t-4 14t-0.5 15.5t0.5 13v57
q0 11 -0.5 25.5t2.5 26.5q8 11 19 10q12 -4 13 -15q2 -8 1.5 -17t-0.5 -19h40q0 10 -0.5 21.5t-2.5 22.5t-7.5 20.5t-15.5 15.5q-11 7 -26 7.5t-28 -3.5q-17 -5 -24.5 -19t-10.5 -30q-2 -17 -1.5 -34.5t0.5 -34.5t-0.5 -33t1.5 -33q2 -14 7.5 -28.5t17.5 -21.5
q12 -8 29.5 -8t28.5 11l1 -7h32v124h-63v-35zM676 644v218q20 0 43.5 0.5t41.5 -9.5q12 -7 18 -22t6 -30.5t-6.5 -29t-19.5 -18.5l29 -109h-29l-29 103h-23v-103h-31zM548 61l-20 22l-12 12t-9 16q-2 4 -2 9.5t1.5 10.5t5 8t9.5 3q6 -1 9.5 -6.5t4.5 -12.5t1.5 -14.5
t0.5 -12.5l37 2q0 22 -5 44.5t-26 31.5q-13 6 -26 5t-23.5 -7t-17.5 -16.5t-8 -24.5q-2 -14 0.5 -29t10.5 -26q3 -7 9 -12t11 -11q11 -14 24.5 -27.5t13.5 -33.5q0 -7 -1.5 -13t-8.5 -7q-5 -2 -9 0.5t-6 7.5q-5 10 -6 21l-2 22l-37 -3q0 -15 1.5 -29t7.5 -28
q8 -17 24.5 -24.5t33.5 -3.5q19 3 29.5 17t12.5 30q4 45 -28 79zM438 644v218h46q17 0 31.5 -3.5t22.5 -20.5q10 -19 8.5 -43.5t-18.5 -38.5q-12 -10 -29 -10h-31v-102h-30zM1030 396v217h20l62 -145v145h27v-217h-21l-63 148v-148h-25zM1088 644v218h20l61 -145v145h26
v-218h-20l-63 148v-148h-24zM521 397q-10 -4 -21 -4t-21.5 3.5t-19 10.5t-12.5 19q-5 11 -6 24t-1 28v135h29v-145q0 -12 2 -27.5t16 -23.5q12 -4 19.5 -0.5t12 11t6.5 17.5t2 19q1 18 0.5 35t-0.5 35v79h30v-100q0 -14 0.5 -31.5t-2 -34.5t-10 -30.5t-24.5 -19.5zM1217 644
l46 218h29l46 -218h-28l-11 54h-44l-10 -54h-28zM639 394q-28 0 -42 18t-15 45l28 7q1 -10 2.5 -20.5t8.5 -17.5q7 -8 17 -9t18 6q9 8 8 21t-7 21q-5 6 -10.5 12.5t-13.5 11.5q-10 10 -22.5 20t-19.5 22q-7 10 -8.5 23t1.5 25t11 21t20 13q12 3 27 2t26 -9t14.5 -21t4.5 -26
l-24 -8q-1 12 -5.5 25t-18.5 16q-10 2 -18 -3.5t-10 -16.5q-5 -17 8.5 -29.5t25.5 -22.5q14 -13 27 -26.5t17 -33.5q6 -25 -8 -45.5t-42 -20.5zM866 642q-27 0 -42 18t-16 44l28 8q1 -11 3 -21.5t9 -17.5t17.5 -8t17.5 6q8 8 7.5 20.5t-6.5 22.5q-4 6 -10 11.5t-14 12.5
q-10 9 -22 19t-19 21t-9 24t1 25t10.5 21.5t20.5 12.5q12 3 27 2t25 -9q11 -8 15 -21t5 -26l-24 -7q-1 11 -5.5 24t-18.5 17q-10 1 -18.5 -4.5t-10.5 -14.5q-3 -19 10 -32t26 -22q14 -13 26.5 -26.5t17.5 -31.5q5 -27 -9 -47.5t-42 -20.5zM719 -93h34l68 299h-38zM568 644
v218h83v-23h-54v-71h44v-22h-44v-81h55v-21h-84zM715 396v217h84v-23h-54v-71h44v-22h-44v-81h54v-20h-84zM985 667q13 -5 27 0q9 5 11.5 12.5t3.5 15.5v25v76q0 9 -0.5 19t-8.5 17q-10 12 -26 7q-16 -1 -21 -19q-5 -15 -3 -34t2 -35v-40q0 -11 1 -24.5t14 -19.5zM926 419
q6 -3 14.5 -3t13.5 3q8 5 11.5 13t4.5 16q1 5 0.5 11.5t-0.5 11.5v77q0 9 -0.5 19t-8.5 17q-5 6 -12.5 8t-14.5 0q-15 -4 -21 -21q-3 -15 -2 -33.5t1 -35.5v-39q0 -11 1.5 -24t12.5 -20zM1311 396v45q0 8 1 16.5t-1 15.5q-4 22 -15 42l-31 98h28l33 -104l31 104h30
q-14 -45 -30 -90l-14 -45q-3 -8 -2.5 -15t0.5 -13v-54h-30zM1361 644v218h30v-197h56v-21h-86zM1172 396v217h30v-197h55v-20h-85zM561 -237q-13 0 -19.5 6t-9 15t-2.5 20v20t0.5 19t3.5 17.5t10 12t20 3.5q11 -1 17 -6.5t8.5 -14t2.5 -18v-18.5t-0.5 -18.5t-3 -18t-9 -14
t-18.5 -5.5zM1338 -235v110q11 0 24.5 0.5t23.5 -7.5t9.5 -23t-0.5 -26v-26.5t-12 -22.5q-9 -7 -22 -6t-23 1zM1403 -375q-13 0 -19.5 6t-9 15t-2.5 19.5v19.5q0 10 0.5 20t4 17.5t10.5 12t20 3.5q12 -1 17 -6.5t7 -14t1.5 -18t-0.5 -18.5v-18.5t-2.5 -18t-8.5 -14t-18 -5.5
zM467 -375q-14 0 -20.5 6t-8.5 15t-2 19.5v19.5q0 10 0.5 20t3.5 17.5t10 12t20 3.5q12 -1 17.5 -6.5t8 -14t2.5 -18v-18.5v-18.5t-3 -18t-9.5 -14t-18.5 -5.5zM748 -374v111q11 0 22.5 1t20.5 -4q6 -4 9.5 -11.5t3.5 -15.5t-3.5 -15t-10.5 -10l16 -56h-15l-13 53h-12v-53
h-18zM512 -374l2 111h16l20 -89l19 89h14l2 -111h-12l-1 82l-18 -82h-11l-17 82l-1 -82h-13zM602 -374l2 111h16l19 -89l20 89h16l1 -111h-11l-2 82l-19 -82h-10l-17 82l-2 -82h-13zM1204 -374v111q11 0 22 1t21 -4q6 -4 9.5 -11.5t3.5 -15.5t-3 -15t-10 -10l14 -56h-14
l-14 53h-13v-53h-16zM607 -235v110q10 0 21 1t20 -4q6 -3 10 -11t4.5 -16.5t-3 -15.5t-11.5 -10l16 -54h-15l-16 51h-11v-51h-15zM618 231v112q6 0 13 0.5t14.5 -0.5t14 -3t10.5 -8q4 -10 3 -23t-9 -20q-7 -5 -15 -5.5t-16 -0.5v-52h-15zM1265 -235v110h10l32 -73v73h12
v-110h-9l-32 74v-74h-13zM765 -235v110h14v-48h29v48h16v-110h-16v51h-29v-51h-14zM1450 -374v111h10l32 -74v74h12v-111h-10l-32 76v-76h-12zM788 231l24 112h15l24 -112h-16l-5 29h-23l-5 -29h-14zM919 -374l24 111h15l24 -111h-14l-5 29h-24l-5 -29h-15zM1193 -235
l21 110h17l23 -110h-15l-5 27h-23l-6 -27h-12zM1412 443l-8 170h28l-9 -170h-11zM1024 -235q-16 -5 -27.5 2t-14.5 23q-2 7 -1 13.5t1 12.5v59h14v-49q0 -5 -0.5 -13.5t0.5 -17t4 -15t10 -6.5q8 0 11.5 6.5t5 15t1 17t-0.5 13.5v49h13v-50q0 -7 0.5 -16t-0.5 -18t-4.5 -16
t-11.5 -10zM468 768q8 0 15.5 -0.5t16.5 1.5q11 3 14 11.5t3 19.5q1 12 -1.5 23t-15.5 15q-9 2 -16.5 1.5t-15.5 -0.5v-71zM707 768h15t16 2q10 5 13.5 15t1.5 21q0 10 -2.5 18t-12.5 12q-8 4 -16 3.5t-15 -0.5v-71zM395 -375q-14 0 -20.5 8t-8.5 20t-1.5 25.5t0.5 23.5
q0 15 7.5 26.5t26.5 9.5q17 -2 20.5 -14t3.5 -25h-14v10t-2 10q-2 8 -10.5 8.5t-12.5 -6.5q-5 -6 -3.5 -19t1.5 -21q0 -7 -1.5 -19t4.5 -19q3 -7 11.5 -6t10.5 9q2 5 2 10.5v10.5h14q0 -14 -4 -28t-24 -14zM848 -375q-15 0 -21 8t-7.5 20t-0.5 25.5t1 23.5q0 15 7 26.5
t25 9.5t21.5 -14t3.5 -25h-16q0 5 0.5 10t-1.5 10q-2 8 -10 8.5t-13 -6.5q-5 -6 -4 -19t1 -21q0 -7 -1 -19t5 -19q4 -7 12 -6t10 9q2 5 1.5 10.5t-0.5 10.5h16q0 -14 -4.5 -28t-24.5 -14zM1143 230q-15 0 -21.5 9t-7.5 23l15 5q0 -6 2 -13.5t8 -10.5q7 -2 11.5 2t4.5 11
q1 11 -8.5 19.5t-17.5 16.5q-11 8 -15 22t8 25q15 8 31 3q8 -3 11 -11t4 -16l-13 -3q-1 5 -2.5 10.5t-6.5 10.5q-4 2 -9.5 0t-6.5 -9q-5 -8 2.5 -15.5l12.5 -12.5q7 -6 14 -12.5t9 -17.5q4 -14 -3 -25t-22 -11zM888 230q-14 0 -21.5 9t-8.5 23l15 5q0 -6 2 -13.5t7 -10.5
q8 -2 13 2t5 11q0 11 -10 19.5t-17 16.5q-11 8 -14.5 22t8.5 25q7 4 15.5 4.5t14.5 -1.5q8 -3 11.5 -11t4.5 -16l-13 -3q-1 5 -2.5 10.5t-6.5 10.5q-5 2 -10 0t-7 -9q-3 -8 3.5 -15.5t11.5 -12.5q8 -6 15 -12.5t9 -17.5q4 -14 -3.5 -25t-21.5 -11zM1303 -375q-15 0 -22 10
t-9 23l15 3q0 -5 2 -12t7 -9q8 -5 13 -0.5t5 10.5q0 11 -10 20t-17 15q-10 10 -14 24.5t9 23.5q6 5 15 5.5t15 -2.5q8 -2 11 -10t4 -15l-13 -5q-1 5 -2 11t-6 10q-6 2 -11 0t-7 -8q-4 -8 3 -15t13 -12q7 -8 14 -14.5t9 -17.5q4 -13 -3 -24t-21 -11zM1033 231l-25 112h16
l16 -82l18 82h12l-23 -112h-14zM1099 -374l-25 111h14l18 -81l15 81h16l-26 -111h-12zM926 231v112h44v-10h-28v-38h23v-11h-23v-42h29v-11h-45zM841 -235v110h43v-11h-27v-37h23v-11h-23v-42h27v-9h-43zM1148 -374v111h45v-10h-29v-36h23v-12h-23v-42h29v-11h-45zM693 -374
v111h44v-10h-28v-36h23v-12h-23v-42h28v-11h-44zM738 231v112h43v-10h-29v-38h24v-11h-24v-42h29v-11h-43zM554 -224q9 -4 13.5 -0.5t6 10.5t1.5 15v14q0 4 0.5 11t0.5 14.5t-1.5 14t-5.5 8.5q-11 6 -17.5 -1.5t-6.5 -16.5v-18q0 -4 -0.5 -11.5t0 -16t2.5 -15t7 -8.5z
M1396 -359q9 -5 14 -2.5t7 9.5t2 15v14q0 4 0.5 11t-0.5 14.5t-3 13.5t-6 8q-11 7 -15.5 -0.5t-4.5 -15.5v-17q0 -4 -1 -12t-1 -16t1.5 -14.5t6.5 -7.5zM459 -359q9 -5 13.5 -2.5t6.5 9.5t2 15v14q0 4 0.5 11t0.5 14.5t-1.5 13.5t-5.5 8q-12 7 -17.5 -0.5t-5.5 -15.5
q-1 -5 -0.5 -9t0.5 -8t-0.5 -12t-0.5 -16t1.5 -14.5t6.5 -7.5zM478 -235v110h43v-11h-26v-37h21v-11h-21v-51h-17zM930 -235v110h42v-11h-29v-37h22v-11h-22v-51h-13zM1353 -226q10 0 17 2t9 14v29v29q-1 12 -8 14t-18 2v-90zM721 -235v99h-20v11h56v-11h-20v-99h-16z
M1229 231v102h-21v10h54v-10h-19v-102h-14zM994 -374v111h14v-100h29v-11h-43zM1058 -235v110h15v-101h28v-9h-43zM1111 -235v110h16v-101h28v-9h-44zM684 231v112h14v-101h29v-11h-43zM1084 231v112h15v-112h-15zM1259 720h37l-19 99zM410 -63h40v44h-40v-44zM892 -374v111
h16v-111h-16zM1342 -374v111h14v-111h-14zM1182 231v112h16v-112h-16zM1404 396v31h28v-31h-28zM633 294h8t9 2q6 2 7 8t1 12q-1 14 -7.5 15.5t-17.5 1.5v-39zM622 -173q10 0 17.5 3t7.5 16t-7 15.5t-18 2.5v-37zM1220 -309q11 0 18 2.5t7 15.5q0 11 -7 14.5t-18 3.5v-36z
M766 -309q10 0 16.5 2.5t6.5 15.5q0 11 -6.5 14.5t-16.5 3.5v-36zM941 -335h19l-9 51zM1213 -196h20l-10 50zM808 271h20l-8 51zM347 61l-41 115h-31v-239h37v117l42 -117h30v239h-37v-115zM1356 176h-52v-239h40v104h10l16 -104h40l-19 115q8 8 12.5 19t6.5 23q2 15 0 29.5
t-8 26t-17.5 19t-28.5 7.5zM1502 61l-41 115h-31v-239h37v117l42 -117h30v239h-37v-115zM1098 42h40v-105h40v239h-40v-99h-40v99h-40v-239h40v105zM1595 176l-44 -239h40l9 56h26l8 -56h40l-42 239h-37zM1239 42h38v35h-38v64h48v35h-88v-239h88v35h-48v70zM873 42h37v35
h-37v64h46v35h-87v-239h87v35h-46v70zM1008 141h37v35h-112v-35h36v-204h39v204zM1727 176h-40v-239h88v35h-48v204zM1344 141q5 0 12.5 0.5t11.5 -4.5q3 -4 4 -11.5t1 -16t-1.5 -16t-4.5 -11.5q-5 -5 -11.5 -5h-11.5v64zM1606 29l7 47l7 -47h-14z" />
    <glyph glyph-name="three" unicode="3" horiz-adv-x="1844" 
d="M202 176l-28 -150l-27 150h-39l-3 -239h36l1 97l19 -97h28l19 98l2 -98h35l-2 239h-41zM997 642q-49 0 -57 48q-2 10 -2 20v21q0 23 -1 48t5 47q5 19 19.5 27.5t32.5 9.5t34.5 -6t22.5 -26q8 -20 7.5 -46t-0.5 -48q0 -14 -0.5 -26.5t-3.5 -24.5q-9 -44 -57 -44zM941 394
q-49 0 -58 46q-2 11 -1.5 22t0.5 23q0 21 -1 46t4 46q5 20 19 28.5t33 8.5q20 1 35.5 -6t22.5 -25q8 -22 6 -47t-2 -47q0 -14 0.5 -26t-2.5 -25q-4 -22 -18.5 -33t-37.5 -11zM648 26h24v-15.5t-1.5 -20t-7 -16t-15.5 -2.5q-6 2 -9 8.5t-4 14t-0.5 15.5t0.5 13v57
q0 11 -0.5 25.5t2.5 26.5q8 11 19 10q12 -4 13 -15q2 -8 1.5 -17t-0.5 -19h40q0 10 -0.5 21.5t-2.5 22.5t-7.5 20.5t-15.5 15.5q-11 7 -26 7.5t-28 -3.5q-17 -5 -24.5 -19t-10.5 -30q-2 -17 -1.5 -34.5t0.5 -34.5t-0.5 -33t1.5 -33q2 -14 7.5 -28.5t17.5 -21.5
q12 -8 29.5 -8t28.5 11l1 -7h32v124h-63v-35zM676 644v218q20 0 43.5 0.5t41.5 -9.5q12 -7 18 -22t6 -30.5t-6.5 -29t-19.5 -18.5l29 -109h-29l-29 103h-23v-103h-31zM548 61l-20 22l-12 12t-9 16q-2 4 -2 9.5t1.5 10.5t5 8t9.5 3q6 -1 9.5 -6.5t4.5 -12.5t1.5 -14.5
t0.5 -12.5l37 2q0 22 -5 44.5t-26 31.5q-13 6 -26 5t-23.5 -7t-17.5 -16.5t-8 -24.5q-2 -14 0.5 -29t10.5 -26q3 -7 9 -12t11 -11q11 -14 24.5 -27.5t13.5 -33.5q0 -7 -1.5 -13t-8.5 -7q-5 -2 -9 0.5t-6 7.5q-5 10 -6 21l-2 22l-37 -3q0 -15 1.5 -29t7.5 -28
q8 -17 24.5 -24.5t33.5 -3.5q19 3 29.5 17t12.5 30q4 45 -28 79zM438 644v218h46q17 0 31.5 -3.5t22.5 -20.5q10 -19 8.5 -43.5t-18.5 -38.5q-12 -10 -29 -10h-31v-102h-30zM1030 396v217h20l62 -145v145h27v-217h-21l-63 148v-148h-25zM1088 644v218h20l61 -145v145h26
v-218h-20l-63 148v-148h-24zM521 397q-10 -4 -21 -4t-21.5 3.5t-19 10.5t-12.5 19q-5 11 -6 24t-1 28v135h29v-145q0 -12 2 -27.5t16 -23.5q12 -4 19.5 -0.5t12 11t6.5 17.5t2 19q1 18 0.5 35t-0.5 35v79h30v-100q0 -14 0.5 -31.5t-2 -34.5t-10 -30.5t-24.5 -19.5zM1217 644
l46 218h29l46 -218h-28l-11 54h-44l-10 -54h-28zM639 394q-28 0 -42 18t-15 45l28 7q1 -10 2.5 -20.5t8.5 -17.5q7 -8 17 -9t18 6q9 8 8 21t-7 21q-5 6 -10.5 12.5t-13.5 11.5q-10 10 -22.5 20t-19.5 22q-7 10 -8.5 23t1.5 25t11 21t20 13q12 3 27 2t26 -9t14.5 -21t4.5 -26
l-24 -8q-1 12 -5.5 25t-18.5 16q-10 2 -18 -3.5t-10 -16.5q-5 -17 8.5 -29.5t25.5 -22.5q14 -13 27 -26.5t17 -33.5q6 -25 -8 -45.5t-42 -20.5zM866 642q-27 0 -42 18t-16 44l28 8q1 -11 3 -21.5t9 -17.5t17.5 -8t17.5 6q8 8 7.5 20.5t-6.5 22.5q-4 6 -10 11.5t-14 12.5
q-10 9 -22 19t-19 21t-9 24t1 25t10.5 21.5t20.5 12.5q12 3 27 2t25 -9q11 -8 15 -21t5 -26l-24 -7q-1 11 -5.5 24t-18.5 17q-10 1 -18.5 -4.5t-10.5 -14.5q-3 -19 10 -32t26 -22q14 -13 26.5 -26.5t17.5 -31.5q5 -27 -9 -47.5t-42 -20.5zM719 -93h34l68 299h-38zM568 644
v218h83v-23h-54v-71h44v-22h-44v-81h55v-21h-84zM715 396v217h84v-23h-54v-71h44v-22h-44v-81h54v-20h-84zM985 667q13 -5 27 0q9 5 11.5 12.5t3.5 15.5v25v76q0 9 -0.5 19t-8.5 17q-10 12 -26 7q-16 -1 -21 -19q-5 -15 -3 -34t2 -35v-40q0 -11 1 -24.5t14 -19.5zM926 419
q6 -3 14.5 -3t13.5 3q8 5 11.5 13t4.5 16q1 5 0.5 11.5t-0.5 11.5v77q0 9 -0.5 19t-8.5 17q-5 6 -12.5 8t-14.5 0q-15 -4 -21 -21q-3 -15 -2 -33.5t1 -35.5v-39q0 -11 1.5 -24t12.5 -20zM1311 396v45q0 8 1 16.5t-1 15.5q-4 22 -15 42l-31 98h28l33 -104l31 104h30
q-14 -45 -30 -90l-14 -45q-3 -8 -2.5 -15t0.5 -13v-54h-30zM1361 644v218h30v-197h56v-21h-86zM1172 396v217h30v-197h55v-20h-85zM561 -237q-13 0 -19.5 6t-9 15t-2.5 20v20t0.5 19t3.5 17.5t10 12t20 3.5q11 -1 17 -6.5t8.5 -14t2.5 -18v-18.5t-0.5 -18.5t-3 -18t-9 -14
t-18.5 -5.5zM1338 -235v110q11 0 24.5 0.5t23.5 -7.5t9.5 -23t-0.5 -26v-26.5t-12 -22.5q-9 -7 -22 -6t-23 1zM1403 -375q-13 0 -19.5 6t-9 15t-2.5 19.5v19.5q0 10 0.5 20t4 17.5t10.5 12t20 3.5q12 -1 17 -6.5t7 -14t1.5 -18t-0.5 -18.5v-18.5t-2.5 -18t-8.5 -14t-18 -5.5
zM467 -375q-14 0 -20.5 6t-8.5 15t-2 19.5v19.5q0 10 0.5 20t3.5 17.5t10 12t20 3.5q12 -1 17.5 -6.5t8 -14t2.5 -18v-18.5v-18.5t-3 -18t-9.5 -14t-18.5 -5.5zM748 -374v111q11 0 22.5 1t20.5 -4q6 -4 9.5 -11.5t3.5 -15.5t-3.5 -15t-10.5 -10l16 -56h-15l-13 53h-12v-53
h-18zM512 -374l2 111h16l20 -89l19 89h14l2 -111h-12l-1 82l-18 -82h-11l-17 82l-1 -82h-13zM602 -374l2 111h16l19 -89l20 89h16l1 -111h-11l-2 82l-19 -82h-10l-17 82l-2 -82h-13zM1204 -374v111q11 0 22 1t21 -4q6 -4 9.5 -11.5t3.5 -15.5t-3 -15t-10 -10l14 -56h-14
l-14 53h-13v-53h-16zM607 -235v110q10 0 21 1t20 -4q6 -3 10 -11t4.5 -16.5t-3 -15.5t-11.5 -10l16 -54h-15l-16 51h-11v-51h-15zM618 231v112q6 0 13 0.5t14.5 -0.5t14 -3t10.5 -8q4 -10 3 -23t-9 -20q-7 -5 -15 -5.5t-16 -0.5v-52h-15zM1265 -235v110h10l32 -73v73h12
v-110h-9l-32 74v-74h-13zM765 -235v110h14v-48h29v48h16v-110h-16v51h-29v-51h-14zM1450 -374v111h10l32 -74v74h12v-111h-10l-32 76v-76h-12zM788 231l24 112h15l24 -112h-16l-5 29h-23l-5 -29h-14zM919 -374l24 111h15l24 -111h-14l-5 29h-24l-5 -29h-15zM1193 -235
l21 110h17l23 -110h-15l-5 27h-23l-6 -27h-12zM1412 443l-8 170h28l-9 -170h-11zM1024 -235q-16 -5 -27.5 2t-14.5 23q-2 7 -1 13.5t1 12.5v59h14v-49q0 -5 -0.5 -13.5t0.5 -17t4 -15t10 -6.5q8 0 11.5 6.5t5 15t1 17t-0.5 13.5v49h13v-50q0 -7 0.5 -16t-0.5 -18t-4.5 -16
t-11.5 -10zM468 768q8 0 15.5 -0.5t16.5 1.5q11 3 14 11.5t3 19.5q1 12 -1.5 23t-15.5 15q-9 2 -16.5 1.5t-15.5 -0.5v-71zM707 768h15t16 2q10 5 13.5 15t1.5 21q0 10 -2.5 18t-12.5 12q-8 4 -16 3.5t-15 -0.5v-71zM395 -375q-14 0 -20.5 8t-8.5 20t-1.5 25.5t0.5 23.5
q0 15 7.5 26.5t26.5 9.5q17 -2 20.5 -14t3.5 -25h-14v10t-2 10q-2 8 -10.5 8.5t-12.5 -6.5q-5 -6 -3.5 -19t1.5 -21q0 -7 -1.5 -19t4.5 -19q3 -7 11.5 -6t10.5 9q2 5 2 10.5v10.5h14q0 -14 -4 -28t-24 -14zM848 -375q-15 0 -21 8t-7.5 20t-0.5 25.5t1 23.5q0 15 7 26.5
t25 9.5t21.5 -14t3.5 -25h-16q0 5 0.5 10t-1.5 10q-2 8 -10 8.5t-13 -6.5q-5 -6 -4 -19t1 -21q0 -7 -1 -19t5 -19q4 -7 12 -6t10 9q2 5 1.5 10.5t-0.5 10.5h16q0 -14 -4.5 -28t-24.5 -14zM1143 230q-15 0 -21.5 9t-7.5 23l15 5q0 -6 2 -13.5t8 -10.5q7 -2 11.5 2t4.5 11
q1 11 -8.5 19.5t-17.5 16.5q-11 8 -15 22t8 25q15 8 31 3q8 -3 11 -11t4 -16l-13 -3q-1 5 -2.5 10.5t-6.5 10.5q-4 2 -9.5 0t-6.5 -9q-5 -8 2.5 -15.5l12.5 -12.5q7 -6 14 -12.5t9 -17.5q4 -14 -3 -25t-22 -11zM888 230q-14 0 -21.5 9t-8.5 23l15 5q0 -6 2 -13.5t7 -10.5
q8 -2 13 2t5 11q0 11 -10 19.5t-17 16.5q-11 8 -14.5 22t8.5 25q7 4 15.5 4.5t14.5 -1.5q8 -3 11.5 -11t4.5 -16l-13 -3q-1 5 -2.5 10.5t-6.5 10.5q-5 2 -10 0t-7 -9q-3 -8 3.5 -15.5t11.5 -12.5q8 -6 15 -12.5t9 -17.5q4 -14 -3.5 -25t-21.5 -11zM1303 -375q-15 0 -22 10
t-9 23l15 3q0 -5 2 -12t7 -9q8 -5 13 -0.5t5 10.5q0 11 -10 20t-17 15q-10 10 -14 24.5t9 23.5q6 5 15 5.5t15 -2.5q8 -2 11 -10t4 -15l-13 -5q-1 5 -2 11t-6 10q-6 2 -11 0t-7 -8q-4 -8 3 -15t13 -12q7 -8 14 -14.5t9 -17.5q4 -13 -3 -24t-21 -11zM1033 231l-25 112h16
l16 -82l18 82h12l-23 -112h-14zM1099 -374l-25 111h14l18 -81l15 81h16l-26 -111h-12zM926 231v112h44v-10h-28v-38h23v-11h-23v-42h29v-11h-45zM841 -235v110h43v-11h-27v-37h23v-11h-23v-42h27v-9h-43zM1148 -374v111h45v-10h-29v-36h23v-12h-23v-42h29v-11h-45zM693 -374
v111h44v-10h-28v-36h23v-12h-23v-42h28v-11h-44zM738 231v112h43v-10h-29v-38h24v-11h-24v-42h29v-11h-43zM554 -224q9 -4 13.5 -0.5t6 10.5t1.5 15v14q0 4 0.5 11t0.5 14.5t-1.5 14t-5.5 8.5q-11 6 -17.5 -1.5t-6.5 -16.5v-18q0 -4 -0.5 -11.5t0 -16t2.5 -15t7 -8.5z
M1396 -359q9 -5 14 -2.5t7 9.5t2 15v14q0 4 0.5 11t-0.5 14.5t-3 13.5t-6 8q-11 7 -15.5 -0.5t-4.5 -15.5v-17q0 -4 -1 -12t-1 -16t1.5 -14.5t6.5 -7.5zM459 -359q9 -5 13.5 -2.5t6.5 9.5t2 15v14q0 4 0.5 11t0.5 14.5t-1.5 13.5t-5.5 8q-12 7 -17.5 -0.5t-5.5 -15.5
q-1 -5 -0.5 -9t0.5 -8t-0.5 -12t-0.5 -16t1.5 -14.5t6.5 -7.5zM478 -235v110h43v-11h-26v-37h21v-11h-21v-51h-17zM930 -235v110h42v-11h-29v-37h22v-11h-22v-51h-13zM1353 -226q10 0 17 2t9 14v29v29q-1 12 -8 14t-18 2v-90zM721 -235v99h-20v11h56v-11h-20v-99h-16z
M1229 231v102h-21v10h54v-10h-19v-102h-14zM994 -374v111h14v-100h29v-11h-43zM1058 -235v110h15v-101h28v-9h-43zM1111 -235v110h16v-101h28v-9h-44zM684 231v112h14v-101h29v-11h-43zM1084 231v112h15v-112h-15zM1259 720h37l-19 99zM410 -63h40v44h-40v-44zM892 -374v111
h16v-111h-16zM1342 -374v111h14v-111h-14zM1182 231v112h16v-112h-16zM1404 396v31h28v-31h-28zM633 294h8t9 2q6 2 7 8t1 12q-1 14 -7.5 15.5t-17.5 1.5v-39zM622 -173q10 0 17.5 3t7.5 16t-7 15.5t-18 2.5v-37zM1220 -309q11 0 18 2.5t7 15.5q0 11 -7 14.5t-18 3.5v-36z
M766 -309q10 0 16.5 2.5t6.5 15.5q0 11 -6.5 14.5t-16.5 3.5v-36zM941 -335h19l-9 51zM1213 -196h20l-10 50zM808 271h20l-8 51zM347 61l-41 115h-31v-239h37v117l42 -117h30v239h-37v-115zM1356 176h-52v-239h40v104h10l16 -104h40l-19 115q8 8 12.5 19t6.5 23q2 15 0 29.5
t-8 26t-17.5 19t-28.5 7.5zM1502 61l-41 115h-31v-239h37v117l42 -117h30v239h-37v-115zM1098 42h40v-105h40v239h-40v-99h-40v99h-40v-239h40v105zM1595 176l-44 -239h40l9 56h26l8 -56h40l-42 239h-37zM1239 42h38v35h-38v64h48v35h-88v-239h88v35h-48v70zM873 42h37v35
h-37v64h46v35h-87v-239h87v35h-46v70zM1008 141h37v35h-112v-35h36v-204h39v204zM1727 176h-40v-239h88v35h-48v204zM1344 141q5 0 12.5 0.5t11.5 -4.5q3 -4 4 -11.5t1 -16t-1.5 -16t-4.5 -11.5q-5 -5 -11.5 -5h-11.5v64zM1606 29l7 47l7 -47h-14z" />
    <glyph glyph-name="four" unicode="4" horiz-adv-x="1844" 
d="M202 176l-28 -150l-27 150h-39l-3 -239h36l1 97l19 -97h28l19 98l2 -98h35l-2 239h-41zM997 642q-49 0 -57 48q-2 10 -2 20v21q0 23 -1 48t5 47q5 19 19.5 27.5t32.5 9.5t34.5 -6t22.5 -26q8 -20 7.5 -46t-0.5 -48q0 -14 -0.5 -26.5t-3.5 -24.5q-9 -44 -57 -44zM941 394
q-49 0 -58 46q-2 11 -1.5 22t0.5 23q0 21 -1 46t4 46q5 20 19 28.5t33 8.5q20 1 35.5 -6t22.5 -25q8 -22 6 -47t-2 -47q0 -14 0.5 -26t-2.5 -25q-4 -22 -18.5 -33t-37.5 -11zM648 26h24v-15.5t-1.5 -20t-7 -16t-15.5 -2.5q-6 2 -9 8.5t-4 14t-0.5 15.5t0.5 13v57
q0 11 -0.5 25.5t2.5 26.5q8 11 19 10q12 -4 13 -15q2 -8 1.5 -17t-0.5 -19h40q0 10 -0.5 21.5t-2.5 22.5t-7.5 20.5t-15.5 15.5q-11 7 -26 7.5t-28 -3.5q-17 -5 -24.5 -19t-10.5 -30q-2 -17 -1.5 -34.5t0.5 -34.5t-0.5 -33t1.5 -33q2 -14 7.5 -28.5t17.5 -21.5
q12 -8 29.5 -8t28.5 11l1 -7h32v124h-63v-35zM676 644v218q20 0 43.5 0.5t41.5 -9.5q12 -7 18 -22t6 -30.5t-6.5 -29t-19.5 -18.5l29 -109h-29l-29 103h-23v-103h-31zM548 61l-20 22l-12 12t-9 16q-2 4 -2 9.5t1.5 10.5t5 8t9.5 3q6 -1 9.5 -6.5t4.5 -12.5t1.5 -14.5
t0.5 -12.5l37 2q0 22 -5 44.5t-26 31.5q-13 6 -26 5t-23.5 -7t-17.5 -16.5t-8 -24.5q-2 -14 0.5 -29t10.5 -26q3 -7 9 -12t11 -11q11 -14 24.5 -27.5t13.5 -33.5q0 -7 -1.5 -13t-8.5 -7q-5 -2 -9 0.5t-6 7.5q-5 10 -6 21l-2 22l-37 -3q0 -15 1.5 -29t7.5 -28
q8 -17 24.5 -24.5t33.5 -3.5q19 3 29.5 17t12.5 30q4 45 -28 79zM438 644v218h46q17 0 31.5 -3.5t22.5 -20.5q10 -19 8.5 -43.5t-18.5 -38.5q-12 -10 -29 -10h-31v-102h-30zM1030 396v217h20l62 -145v145h27v-217h-21l-63 148v-148h-25zM1088 644v218h20l61 -145v145h26
v-218h-20l-63 148v-148h-24zM521 397q-10 -4 -21 -4t-21.5 3.5t-19 10.5t-12.5 19q-5 11 -6 24t-1 28v135h29v-145q0 -12 2 -27.5t16 -23.5q12 -4 19.5 -0.5t12 11t6.5 17.5t2 19q1 18 0.5 35t-0.5 35v79h30v-100q0 -14 0.5 -31.5t-2 -34.5t-10 -30.5t-24.5 -19.5zM1217 644
l46 218h29l46 -218h-28l-11 54h-44l-10 -54h-28zM639 394q-28 0 -42 18t-15 45l28 7q1 -10 2.5 -20.5t8.5 -17.5q7 -8 17 -9t18 6q9 8 8 21t-7 21q-5 6 -10.5 12.5t-13.5 11.5q-10 10 -22.5 20t-19.5 22q-7 10 -8.5 23t1.5 25t11 21t20 13q12 3 27 2t26 -9t14.5 -21t4.5 -26
l-24 -8q-1 12 -5.5 25t-18.5 16q-10 2 -18 -3.5t-10 -16.5q-5 -17 8.5 -29.5t25.5 -22.5q14 -13 27 -26.5t17 -33.5q6 -25 -8 -45.5t-42 -20.5zM866 642q-27 0 -42 18t-16 44l28 8q1 -11 3 -21.5t9 -17.5t17.5 -8t17.5 6q8 8 7.5 20.5t-6.5 22.5q-4 6 -10 11.5t-14 12.5
q-10 9 -22 19t-19 21t-9 24t1 25t10.5 21.5t20.5 12.5q12 3 27 2t25 -9q11 -8 15 -21t5 -26l-24 -7q-1 11 -5.5 24t-18.5 17q-10 1 -18.5 -4.5t-10.5 -14.5q-3 -19 10 -32t26 -22q14 -13 26.5 -26.5t17.5 -31.5q5 -27 -9 -47.5t-42 -20.5zM719 -93h34l68 299h-38zM568 644
v218h83v-23h-54v-71h44v-22h-44v-81h55v-21h-84zM715 396v217h84v-23h-54v-71h44v-22h-44v-81h54v-20h-84zM985 667q13 -5 27 0q9 5 11.5 12.5t3.5 15.5v25v76q0 9 -0.5 19t-8.5 17q-10 12 -26 7q-16 -1 -21 -19q-5 -15 -3 -34t2 -35v-40q0 -11 1 -24.5t14 -19.5zM926 419
q6 -3 14.5 -3t13.5 3q8 5 11.5 13t4.5 16q1 5 0.5 11.5t-0.5 11.5v77q0 9 -0.5 19t-8.5 17q-5 6 -12.5 8t-14.5 0q-15 -4 -21 -21q-3 -15 -2 -33.5t1 -35.5v-39q0 -11 1.5 -24t12.5 -20zM1311 396v45q0 8 1 16.5t-1 15.5q-4 22 -15 42l-31 98h28l33 -104l31 104h30
q-14 -45 -30 -90l-14 -45q-3 -8 -2.5 -15t0.5 -13v-54h-30zM1361 644v218h30v-197h56v-21h-86zM1172 396v217h30v-197h55v-20h-85zM561 -237q-13 0 -19.5 6t-9 15t-2.5 20v20t0.5 19t3.5 17.5t10 12t20 3.5q11 -1 17 -6.5t8.5 -14t2.5 -18v-18.5t-0.5 -18.5t-3 -18t-9 -14
t-18.5 -5.5zM1338 -235v110q11 0 24.5 0.5t23.5 -7.5t9.5 -23t-0.5 -26v-26.5t-12 -22.5q-9 -7 -22 -6t-23 1zM1403 -375q-13 0 -19.5 6t-9 15t-2.5 19.5v19.5q0 10 0.5 20t4 17.5t10.5 12t20 3.5q12 -1 17 -6.5t7 -14t1.5 -18t-0.5 -18.5v-18.5t-2.5 -18t-8.5 -14t-18 -5.5
zM467 -375q-14 0 -20.5 6t-8.5 15t-2 19.5v19.5q0 10 0.5 20t3.5 17.5t10 12t20 3.5q12 -1 17.5 -6.5t8 -14t2.5 -18v-18.5v-18.5t-3 -18t-9.5 -14t-18.5 -5.5zM748 -374v111q11 0 22.5 1t20.5 -4q6 -4 9.5 -11.5t3.5 -15.5t-3.5 -15t-10.5 -10l16 -56h-15l-13 53h-12v-53
h-18zM512 -374l2 111h16l20 -89l19 89h14l2 -111h-12l-1 82l-18 -82h-11l-17 82l-1 -82h-13zM602 -374l2 111h16l19 -89l20 89h16l1 -111h-11l-2 82l-19 -82h-10l-17 82l-2 -82h-13zM1204 -374v111q11 0 22 1t21 -4q6 -4 9.5 -11.5t3.5 -15.5t-3 -15t-10 -10l14 -56h-14
l-14 53h-13v-53h-16zM607 -235v110q10 0 21 1t20 -4q6 -3 10 -11t4.5 -16.5t-3 -15.5t-11.5 -10l16 -54h-15l-16 51h-11v-51h-15zM618 231v112q6 0 13 0.5t14.5 -0.5t14 -3t10.5 -8q4 -10 3 -23t-9 -20q-7 -5 -15 -5.5t-16 -0.5v-52h-15zM1265 -235v110h10l32 -73v73h12
v-110h-9l-32 74v-74h-13zM765 -235v110h14v-48h29v48h16v-110h-16v51h-29v-51h-14zM1450 -374v111h10l32 -74v74h12v-111h-10l-32 76v-76h-12zM788 231l24 112h15l24 -112h-16l-5 29h-23l-5 -29h-14zM919 -374l24 111h15l24 -111h-14l-5 29h-24l-5 -29h-15zM1193 -235
l21 110h17l23 -110h-15l-5 27h-23l-6 -27h-12zM1412 443l-8 170h28l-9 -170h-11zM1024 -235q-16 -5 -27.5 2t-14.5 23q-2 7 -1 13.5t1 12.5v59h14v-49q0 -5 -0.5 -13.5t0.5 -17t4 -15t10 -6.5q8 0 11.5 6.5t5 15t1 17t-0.5 13.5v49h13v-50q0 -7 0.5 -16t-0.5 -18t-4.5 -16
t-11.5 -10zM468 768q8 0 15.5 -0.5t16.5 1.5q11 3 14 11.5t3 19.5q1 12 -1.5 23t-15.5 15q-9 2 -16.5 1.5t-15.5 -0.5v-71zM707 768h15t16 2q10 5 13.5 15t1.5 21q0 10 -2.5 18t-12.5 12q-8 4 -16 3.5t-15 -0.5v-71zM395 -375q-14 0 -20.5 8t-8.5 20t-1.5 25.5t0.5 23.5
q0 15 7.5 26.5t26.5 9.5q17 -2 20.5 -14t3.5 -25h-14v10t-2 10q-2 8 -10.5 8.5t-12.5 -6.5q-5 -6 -3.5 -19t1.5 -21q0 -7 -1.5 -19t4.5 -19q3 -7 11.5 -6t10.5 9q2 5 2 10.5v10.5h14q0 -14 -4 -28t-24 -14zM848 -375q-15 0 -21 8t-7.5 20t-0.5 25.5t1 23.5q0 15 7 26.5
t25 9.5t21.5 -14t3.5 -25h-16q0 5 0.5 10t-1.5 10q-2 8 -10 8.5t-13 -6.5q-5 -6 -4 -19t1 -21q0 -7 -1 -19t5 -19q4 -7 12 -6t10 9q2 5 1.5 10.5t-0.5 10.5h16q0 -14 -4.5 -28t-24.5 -14zM1143 230q-15 0 -21.5 9t-7.5 23l15 5q0 -6 2 -13.5t8 -10.5q7 -2 11.5 2t4.5 11
q1 11 -8.5 19.5t-17.5 16.5q-11 8 -15 22t8 25q15 8 31 3q8 -3 11 -11t4 -16l-13 -3q-1 5 -2.5 10.5t-6.5 10.5q-4 2 -9.5 0t-6.5 -9q-5 -8 2.5 -15.5l12.5 -12.5q7 -6 14 -12.5t9 -17.5q4 -14 -3 -25t-22 -11zM888 230q-14 0 -21.5 9t-8.5 23l15 5q0 -6 2 -13.5t7 -10.5
q8 -2 13 2t5 11q0 11 -10 19.5t-17 16.5q-11 8 -14.5 22t8.5 25q7 4 15.5 4.5t14.5 -1.5q8 -3 11.5 -11t4.5 -16l-13 -3q-1 5 -2.5 10.5t-6.5 10.5q-5 2 -10 0t-7 -9q-3 -8 3.5 -15.5t11.5 -12.5q8 -6 15 -12.5t9 -17.5q4 -14 -3.5 -25t-21.5 -11zM1303 -375q-15 0 -22 10
t-9 23l15 3q0 -5 2 -12t7 -9q8 -5 13 -0.5t5 10.5q0 11 -10 20t-17 15q-10 10 -14 24.5t9 23.5q6 5 15 5.5t15 -2.5q8 -2 11 -10t4 -15l-13 -5q-1 5 -2 11t-6 10q-6 2 -11 0t-7 -8q-4 -8 3 -15t13 -12q7 -8 14 -14.5t9 -17.5q4 -13 -3 -24t-21 -11zM1033 231l-25 112h16
l16 -82l18 82h12l-23 -112h-14zM1099 -374l-25 111h14l18 -81l15 81h16l-26 -111h-12zM926 231v112h44v-10h-28v-38h23v-11h-23v-42h29v-11h-45zM841 -235v110h43v-11h-27v-37h23v-11h-23v-42h27v-9h-43zM1148 -374v111h45v-10h-29v-36h23v-12h-23v-42h29v-11h-45zM693 -374
v111h44v-10h-28v-36h23v-12h-23v-42h28v-11h-44zM738 231v112h43v-10h-29v-38h24v-11h-24v-42h29v-11h-43zM554 -224q9 -4 13.5 -0.5t6 10.5t1.5 15v14q0 4 0.5 11t0.5 14.5t-1.5 14t-5.5 8.5q-11 6 -17.5 -1.5t-6.5 -16.5v-18q0 -4 -0.5 -11.5t0 -16t2.5 -15t7 -8.5z
M1396 -359q9 -5 14 -2.5t7 9.5t2 15v14q0 4 0.5 11t-0.5 14.5t-3 13.5t-6 8q-11 7 -15.5 -0.5t-4.5 -15.5v-17q0 -4 -1 -12t-1 -16t1.5 -14.5t6.5 -7.5zM459 -359q9 -5 13.5 -2.5t6.5 9.5t2 15v14q0 4 0.5 11t0.5 14.5t-1.5 13.5t-5.5 8q-12 7 -17.5 -0.5t-5.5 -15.5
q-1 -5 -0.5 -9t0.5 -8t-0.5 -12t-0.5 -16t1.5 -14.5t6.5 -7.5zM478 -235v110h43v-11h-26v-37h21v-11h-21v-51h-17zM930 -235v110h42v-11h-29v-37h22v-11h-22v-51h-13zM1353 -226q10 0 17 2t9 14v29v29q-1 12 -8 14t-18 2v-90zM721 -235v99h-20v11h56v-11h-20v-99h-16z
M1229 231v102h-21v10h54v-10h-19v-102h-14zM994 -374v111h14v-100h29v-11h-43zM1058 -235v110h15v-101h28v-9h-43zM1111 -235v110h16v-101h28v-9h-44zM684 231v112h14v-101h29v-11h-43zM1084 231v112h15v-112h-15zM1259 720h37l-19 99zM410 -63h40v44h-40v-44zM892 -374v111
h16v-111h-16zM1342 -374v111h14v-111h-14zM1182 231v112h16v-112h-16zM1404 396v31h28v-31h-28zM633 294h8t9 2q6 2 7 8t1 12q-1 14 -7.5 15.5t-17.5 1.5v-39zM622 -173q10 0 17.5 3t7.5 16t-7 15.5t-18 2.5v-37zM1220 -309q11 0 18 2.5t7 15.5q0 11 -7 14.5t-18 3.5v-36z
M766 -309q10 0 16.5 2.5t6.5 15.5q0 11 -6.5 14.5t-16.5 3.5v-36zM941 -335h19l-9 51zM1213 -196h20l-10 50zM808 271h20l-8 51zM347 61l-41 115h-31v-239h37v117l42 -117h30v239h-37v-115zM1356 176h-52v-239h40v104h10l16 -104h40l-19 115q8 8 12.5 19t6.5 23q2 15 0 29.5
t-8 26t-17.5 19t-28.5 7.5zM1502 61l-41 115h-31v-239h37v117l42 -117h30v239h-37v-115zM1098 42h40v-105h40v239h-40v-99h-40v99h-40v-239h40v105zM1595 176l-44 -239h40l9 56h26l8 -56h40l-42 239h-37zM1239 42h38v35h-38v64h48v35h-88v-239h88v35h-48v70zM873 42h37v35
h-37v64h46v35h-87v-239h87v35h-46v70zM1008 141h37v35h-112v-35h36v-204h39v204zM1727 176h-40v-239h88v35h-48v204zM1344 141q5 0 12.5 0.5t11.5 -4.5q3 -4 4 -11.5t1 -16t-1.5 -16t-4.5 -11.5q-5 -5 -11.5 -5h-11.5v64zM1606 29l7 47l7 -47h-14z" />
    <glyph glyph-name="five" unicode="5" horiz-adv-x="1844" 
d="M202 176l-28 -150l-27 150h-39l-3 -239h36l1 97l19 -97h28l19 98l2 -98h35l-2 239h-41zM997 642q-49 0 -57 48q-2 10 -2 20v21q0 23 -1 48t5 47q5 19 19.5 27.5t32.5 9.5t34.5 -6t22.5 -26q8 -20 7.5 -46t-0.5 -48q0 -14 -0.5 -26.5t-3.5 -24.5q-9 -44 -57 -44zM941 394
q-49 0 -58 46q-2 11 -1.5 22t0.5 23q0 21 -1 46t4 46q5 20 19 28.5t33 8.5q20 1 35.5 -6t22.5 -25q8 -22 6 -47t-2 -47q0 -14 0.5 -26t-2.5 -25q-4 -22 -18.5 -33t-37.5 -11zM648 26h24v-15.5t-1.5 -20t-7 -16t-15.5 -2.5q-6 2 -9 8.5t-4 14t-0.5 15.5t0.5 13v57
q0 11 -0.5 25.5t2.5 26.5q8 11 19 10q12 -4 13 -15q2 -8 1.5 -17t-0.5 -19h40q0 10 -0.5 21.5t-2.5 22.5t-7.5 20.5t-15.5 15.5q-11 7 -26 7.5t-28 -3.5q-17 -5 -24.5 -19t-10.5 -30q-2 -17 -1.5 -34.5t0.5 -34.5t-0.5 -33t1.5 -33q2 -14 7.5 -28.5t17.5 -21.5
q12 -8 29.5 -8t28.5 11l1 -7h32v124h-63v-35zM676 644v218q20 0 43.5 0.5t41.5 -9.5q12 -7 18 -22t6 -30.5t-6.5 -29t-19.5 -18.5l29 -109h-29l-29 103h-23v-103h-31zM548 61l-20 22l-12 12t-9 16q-2 4 -2 9.5t1.5 10.5t5 8t9.5 3q6 -1 9.5 -6.5t4.5 -12.5t1.5 -14.5
t0.5 -12.5l37 2q0 22 -5 44.5t-26 31.5q-13 6 -26 5t-23.5 -7t-17.5 -16.5t-8 -24.5q-2 -14 0.5 -29t10.5 -26q3 -7 9 -12t11 -11q11 -14 24.5 -27.5t13.5 -33.5q0 -7 -1.5 -13t-8.5 -7q-5 -2 -9 0.5t-6 7.5q-5 10 -6 21l-2 22l-37 -3q0 -15 1.5 -29t7.5 -28
q8 -17 24.5 -24.5t33.5 -3.5q19 3 29.5 17t12.5 30q4 45 -28 79zM438 644v218h46q17 0 31.5 -3.5t22.5 -20.5q10 -19 8.5 -43.5t-18.5 -38.5q-12 -10 -29 -10h-31v-102h-30zM1030 396v217h20l62 -145v145h27v-217h-21l-63 148v-148h-25zM1088 644v218h20l61 -145v145h26
v-218h-20l-63 148v-148h-24zM521 397q-10 -4 -21 -4t-21.5 3.5t-19 10.5t-12.5 19q-5 11 -6 24t-1 28v135h29v-145q0 -12 2 -27.5t16 -23.5q12 -4 19.5 -0.5t12 11t6.5 17.5t2 19q1 18 0.5 35t-0.5 35v79h30v-100q0 -14 0.5 -31.5t-2 -34.5t-10 -30.5t-24.5 -19.5zM1217 644
l46 218h29l46 -218h-28l-11 54h-44l-10 -54h-28zM639 394q-28 0 -42 18t-15 45l28 7q1 -10 2.5 -20.5t8.5 -17.5q7 -8 17 -9t18 6q9 8 8 21t-7 21q-5 6 -10.5 12.5t-13.5 11.5q-10 10 -22.5 20t-19.5 22q-7 10 -8.5 23t1.5 25t11 21t20 13q12 3 27 2t26 -9t14.5 -21t4.5 -26
l-24 -8q-1 12 -5.5 25t-18.5 16q-10 2 -18 -3.5t-10 -16.5q-5 -17 8.5 -29.5t25.5 -22.5q14 -13 27 -26.5t17 -33.5q6 -25 -8 -45.5t-42 -20.5zM866 642q-27 0 -42 18t-16 44l28 8q1 -11 3 -21.5t9 -17.5t17.5 -8t17.5 6q8 8 7.5 20.5t-6.5 22.5q-4 6 -10 11.5t-14 12.5
q-10 9 -22 19t-19 21t-9 24t1 25t10.5 21.5t20.5 12.5q12 3 27 2t25 -9q11 -8 15 -21t5 -26l-24 -7q-1 11 -5.5 24t-18.5 17q-10 1 -18.5 -4.5t-10.5 -14.5q-3 -19 10 -32t26 -22q14 -13 26.5 -26.5t17.5 -31.5q5 -27 -9 -47.5t-42 -20.5zM719 -93h34l68 299h-38zM568 644
v218h83v-23h-54v-71h44v-22h-44v-81h55v-21h-84zM715 396v217h84v-23h-54v-71h44v-22h-44v-81h54v-20h-84zM985 667q13 -5 27 0q9 5 11.5 12.5t3.5 15.5v25v76q0 9 -0.5 19t-8.5 17q-10 12 -26 7q-16 -1 -21 -19q-5 -15 -3 -34t2 -35v-40q0 -11 1 -24.5t14 -19.5zM926 419
q6 -3 14.5 -3t13.5 3q8 5 11.5 13t4.5 16q1 5 0.5 11.5t-0.5 11.5v77q0 9 -0.5 19t-8.5 17q-5 6 -12.5 8t-14.5 0q-15 -4 -21 -21q-3 -15 -2 -33.5t1 -35.5v-39q0 -11 1.5 -24t12.5 -20zM1311 396v45q0 8 1 16.5t-1 15.5q-4 22 -15 42l-31 98h28l33 -104l31 104h30
q-14 -45 -30 -90l-14 -45q-3 -8 -2.5 -15t0.5 -13v-54h-30zM1361 644v218h30v-197h56v-21h-86zM1172 396v217h30v-197h55v-20h-85zM561 -237q-13 0 -19.5 6t-9 15t-2.5 20v20t0.5 19t3.5 17.5t10 12t20 3.5q11 -1 17 -6.5t8.5 -14t2.5 -18v-18.5t-0.5 -18.5t-3 -18t-9 -14
t-18.5 -5.5zM1338 -235v110q11 0 24.5 0.5t23.5 -7.5t9.5 -23t-0.5 -26v-26.5t-12 -22.5q-9 -7 -22 -6t-23 1zM1403 -375q-13 0 -19.5 6t-9 15t-2.5 19.5v19.5q0 10 0.5 20t4 17.5t10.5 12t20 3.5q12 -1 17 -6.5t7 -14t1.5 -18t-0.5 -18.5v-18.5t-2.5 -18t-8.5 -14t-18 -5.5
zM467 -375q-14 0 -20.5 6t-8.5 15t-2 19.5v19.5q0 10 0.5 20t3.5 17.5t10 12t20 3.5q12 -1 17.5 -6.5t8 -14t2.5 -18v-18.5v-18.5t-3 -18t-9.5 -14t-18.5 -5.5zM748 -374v111q11 0 22.5 1t20.5 -4q6 -4 9.5 -11.5t3.5 -15.5t-3.5 -15t-10.5 -10l16 -56h-15l-13 53h-12v-53
h-18zM512 -374l2 111h16l20 -89l19 89h14l2 -111h-12l-1 82l-18 -82h-11l-17 82l-1 -82h-13zM602 -374l2 111h16l19 -89l20 89h16l1 -111h-11l-2 82l-19 -82h-10l-17 82l-2 -82h-13zM1204 -374v111q11 0 22 1t21 -4q6 -4 9.5 -11.5t3.5 -15.5t-3 -15t-10 -10l14 -56h-14
l-14 53h-13v-53h-16zM607 -235v110q10 0 21 1t20 -4q6 -3 10 -11t4.5 -16.5t-3 -15.5t-11.5 -10l16 -54h-15l-16 51h-11v-51h-15zM618 231v112q6 0 13 0.5t14.5 -0.5t14 -3t10.5 -8q4 -10 3 -23t-9 -20q-7 -5 -15 -5.5t-16 -0.5v-52h-15zM1265 -235v110h10l32 -73v73h12
v-110h-9l-32 74v-74h-13zM765 -235v110h14v-48h29v48h16v-110h-16v51h-29v-51h-14zM1450 -374v111h10l32 -74v74h12v-111h-10l-32 76v-76h-12zM788 231l24 112h15l24 -112h-16l-5 29h-23l-5 -29h-14zM919 -374l24 111h15l24 -111h-14l-5 29h-24l-5 -29h-15zM1193 -235
l21 110h17l23 -110h-15l-5 27h-23l-6 -27h-12zM1412 443l-8 170h28l-9 -170h-11zM1024 -235q-16 -5 -27.5 2t-14.5 23q-2 7 -1 13.5t1 12.5v59h14v-49q0 -5 -0.5 -13.5t0.5 -17t4 -15t10 -6.5q8 0 11.5 6.5t5 15t1 17t-0.5 13.5v49h13v-50q0 -7 0.5 -16t-0.5 -18t-4.5 -16
t-11.5 -10zM468 768q8 0 15.5 -0.5t16.5 1.5q11 3 14 11.5t3 19.5q1 12 -1.5 23t-15.5 15q-9 2 -16.5 1.5t-15.5 -0.5v-71zM707 768h15t16 2q10 5 13.5 15t1.5 21q0 10 -2.5 18t-12.5 12q-8 4 -16 3.5t-15 -0.5v-71zM395 -375q-14 0 -20.5 8t-8.5 20t-1.5 25.5t0.5 23.5
q0 15 7.5 26.5t26.5 9.5q17 -2 20.5 -14t3.5 -25h-14v10t-2 10q-2 8 -10.5 8.5t-12.5 -6.5q-5 -6 -3.5 -19t1.5 -21q0 -7 -1.5 -19t4.5 -19q3 -7 11.5 -6t10.5 9q2 5 2 10.5v10.5h14q0 -14 -4 -28t-24 -14zM848 -375q-15 0 -21 8t-7.5 20t-0.5 25.5t1 23.5q0 15 7 26.5
t25 9.5t21.5 -14t3.5 -25h-16q0 5 0.5 10t-1.5 10q-2 8 -10 8.5t-13 -6.5q-5 -6 -4 -19t1 -21q0 -7 -1 -19t5 -19q4 -7 12 -6t10 9q2 5 1.5 10.5t-0.5 10.5h16q0 -14 -4.5 -28t-24.5 -14zM1143 230q-15 0 -21.5 9t-7.5 23l15 5q0 -6 2 -13.5t8 -10.5q7 -2 11.5 2t4.5 11
q1 11 -8.5 19.5t-17.5 16.5q-11 8 -15 22t8 25q15 8 31 3q8 -3 11 -11t4 -16l-13 -3q-1 5 -2.5 10.5t-6.5 10.5q-4 2 -9.5 0t-6.5 -9q-5 -8 2.5 -15.5l12.5 -12.5q7 -6 14 -12.5t9 -17.5q4 -14 -3 -25t-22 -11zM888 230q-14 0 -21.5 9t-8.5 23l15 5q0 -6 2 -13.5t7 -10.5
q8 -2 13 2t5 11q0 11 -10 19.5t-17 16.5q-11 8 -14.5 22t8.5 25q7 4 15.5 4.5t14.5 -1.5q8 -3 11.5 -11t4.5 -16l-13 -3q-1 5 -2.5 10.5t-6.5 10.5q-5 2 -10 0t-7 -9q-3 -8 3.5 -15.5t11.5 -12.5q8 -6 15 -12.5t9 -17.5q4 -14 -3.5 -25t-21.5 -11zM1303 -375q-15 0 -22 10
t-9 23l15 3q0 -5 2 -12t7 -9q8 -5 13 -0.5t5 10.5q0 11 -10 20t-17 15q-10 10 -14 24.5t9 23.5q6 5 15 5.5t15 -2.5q8 -2 11 -10t4 -15l-13 -5q-1 5 -2 11t-6 10q-6 2 -11 0t-7 -8q-4 -8 3 -15t13 -12q7 -8 14 -14.5t9 -17.5q4 -13 -3 -24t-21 -11zM1033 231l-25 112h16
l16 -82l18 82h12l-23 -112h-14zM1099 -374l-25 111h14l18 -81l15 81h16l-26 -111h-12zM926 231v112h44v-10h-28v-38h23v-11h-23v-42h29v-11h-45zM841 -235v110h43v-11h-27v-37h23v-11h-23v-42h27v-9h-43zM1148 -374v111h45v-10h-29v-36h23v-12h-23v-42h29v-11h-45zM693 -374
v111h44v-10h-28v-36h23v-12h-23v-42h28v-11h-44zM738 231v112h43v-10h-29v-38h24v-11h-24v-42h29v-11h-43zM554 -224q9 -4 13.5 -0.5t6 10.5t1.5 15v14q0 4 0.5 11t0.5 14.5t-1.5 14t-5.5 8.5q-11 6 -17.5 -1.5t-6.5 -16.5v-18q0 -4 -0.5 -11.5t0 -16t2.5 -15t7 -8.5z
M1396 -359q9 -5 14 -2.5t7 9.5t2 15v14q0 4 0.5 11t-0.5 14.5t-3 13.5t-6 8q-11 7 -15.5 -0.5t-4.5 -15.5v-17q0 -4 -1 -12t-1 -16t1.5 -14.5t6.5 -7.5zM459 -359q9 -5 13.5 -2.5t6.5 9.5t2 15v14q0 4 0.5 11t0.5 14.5t-1.5 13.5t-5.5 8q-12 7 -17.5 -0.5t-5.5 -15.5
q-1 -5 -0.5 -9t0.5 -8t-0.5 -12t-0.5 -16t1.5 -14.5t6.5 -7.5zM478 -235v110h43v-11h-26v-37h21v-11h-21v-51h-17zM930 -235v110h42v-11h-29v-37h22v-11h-22v-51h-13zM1353 -226q10 0 17 2t9 14v29v29q-1 12 -8 14t-18 2v-90zM721 -235v99h-20v11h56v-11h-20v-99h-16z
M1229 231v102h-21v10h54v-10h-19v-102h-14zM994 -374v111h14v-100h29v-11h-43zM1058 -235v110h15v-101h28v-9h-43zM1111 -235v110h16v-101h28v-9h-44zM684 231v112h14v-101h29v-11h-43zM1084 231v112h15v-112h-15zM1259 720h37l-19 99zM410 -63h40v44h-40v-44zM892 -374v111
h16v-111h-16zM1342 -374v111h14v-111h-14zM1182 231v112h16v-112h-16zM1404 396v31h28v-31h-28zM633 294h8t9 2q6 2 7 8t1 12q-1 14 -7.5 15.5t-17.5 1.5v-39zM622 -173q10 0 17.5 3t7.5 16t-7 15.5t-18 2.5v-37zM1220 -309q11 0 18 2.5t7 15.5q0 11 -7 14.5t-18 3.5v-36z
M766 -309q10 0 16.5 2.5t6.5 15.5q0 11 -6.5 14.5t-16.5 3.5v-36zM941 -335h19l-9 51zM1213 -196h20l-10 50zM808 271h20l-8 51zM347 61l-41 115h-31v-239h37v117l42 -117h30v239h-37v-115zM1356 176h-52v-239h40v104h10l16 -104h40l-19 115q8 8 12.5 19t6.5 23q2 15 0 29.5
t-8 26t-17.5 19t-28.5 7.5zM1502 61l-41 115h-31v-239h37v117l42 -117h30v239h-37v-115zM1098 42h40v-105h40v239h-40v-99h-40v99h-40v-239h40v105zM1595 176l-44 -239h40l9 56h26l8 -56h40l-42 239h-37zM1239 42h38v35h-38v64h48v35h-88v-239h88v35h-48v70zM873 42h37v35
h-37v64h46v35h-87v-239h87v35h-46v70zM1008 141h37v35h-112v-35h36v-204h39v204zM1727 176h-40v-239h88v35h-48v204zM1344 141q5 0 12.5 0.5t11.5 -4.5q3 -4 4 -11.5t1 -16t-1.5 -16t-4.5 -11.5q-5 -5 -11.5 -5h-11.5v64zM1606 29l7 47l7 -47h-14z" />
    <glyph glyph-name="six" unicode="6" horiz-adv-x="1844" 
d="M202 176l-28 -150l-27 150h-39l-3 -239h36l1 97l19 -97h28l19 98l2 -98h35l-2 239h-41zM997 642q-49 0 -57 48q-2 10 -2 20v21q0 23 -1 48t5 47q5 19 19.5 27.5t32.5 9.5t34.5 -6t22.5 -26q8 -20 7.5 -46t-0.5 -48q0 -14 -0.5 -26.5t-3.5 -24.5q-9 -44 -57 -44zM941 394
q-49 0 -58 46q-2 11 -1.5 22t0.5 23q0 21 -1 46t4 46q5 20 19 28.5t33 8.5q20 1 35.5 -6t22.5 -25q8 -22 6 -47t-2 -47q0 -14 0.5 -26t-2.5 -25q-4 -22 -18.5 -33t-37.5 -11zM648 26h24v-15.5t-1.5 -20t-7 -16t-15.5 -2.5q-6 2 -9 8.5t-4 14t-0.5 15.5t0.5 13v57
q0 11 -0.5 25.5t2.5 26.5q8 11 19 10q12 -4 13 -15q2 -8 1.5 -17t-0.5 -19h40q0 10 -0.5 21.5t-2.5 22.5t-7.5 20.5t-15.5 15.5q-11 7 -26 7.5t-28 -3.5q-17 -5 -24.5 -19t-10.5 -30q-2 -17 -1.5 -34.5t0.5 -34.5t-0.5 -33t1.5 -33q2 -14 7.5 -28.5t17.5 -21.5
q12 -8 29.5 -8t28.5 11l1 -7h32v124h-63v-35zM676 644v218q20 0 43.5 0.5t41.5 -9.5q12 -7 18 -22t6 -30.5t-6.5 -29t-19.5 -18.5l29 -109h-29l-29 103h-23v-103h-31zM548 61l-20 22l-12 12t-9 16q-2 4 -2 9.5t1.5 10.5t5 8t9.5 3q6 -1 9.5 -6.5t4.5 -12.5t1.5 -14.5
t0.5 -12.5l37 2q0 22 -5 44.5t-26 31.5q-13 6 -26 5t-23.5 -7t-17.5 -16.5t-8 -24.5q-2 -14 0.5 -29t10.5 -26q3 -7 9 -12t11 -11q11 -14 24.5 -27.5t13.5 -33.5q0 -7 -1.5 -13t-8.5 -7q-5 -2 -9 0.5t-6 7.5q-5 10 -6 21l-2 22l-37 -3q0 -15 1.5 -29t7.5 -28
q8 -17 24.5 -24.5t33.5 -3.5q19 3 29.5 17t12.5 30q4 45 -28 79zM438 644v218h46q17 0 31.5 -3.5t22.5 -20.5q10 -19 8.5 -43.5t-18.5 -38.5q-12 -10 -29 -10h-31v-102h-30zM1030 396v217h20l62 -145v145h27v-217h-21l-63 148v-148h-25zM1088 644v218h20l61 -145v145h26
v-218h-20l-63 148v-148h-24zM521 397q-10 -4 -21 -4t-21.5 3.5t-19 10.5t-12.5 19q-5 11 -6 24t-1 28v135h29v-145q0 -12 2 -27.5t16 -23.5q12 -4 19.5 -0.5t12 11t6.5 17.5t2 19q1 18 0.5 35t-0.5 35v79h30v-100q0 -14 0.5 -31.5t-2 -34.5t-10 -30.5t-24.5 -19.5zM1217 644
l46 218h29l46 -218h-28l-11 54h-44l-10 -54h-28zM639 394q-28 0 -42 18t-15 45l28 7q1 -10 2.5 -20.5t8.5 -17.5q7 -8 17 -9t18 6q9 8 8 21t-7 21q-5 6 -10.5 12.5t-13.5 11.5q-10 10 -22.5 20t-19.5 22q-7 10 -8.5 23t1.5 25t11 21t20 13q12 3 27 2t26 -9t14.5 -21t4.5 -26
l-24 -8q-1 12 -5.5 25t-18.5 16q-10 2 -18 -3.5t-10 -16.5q-5 -17 8.5 -29.5t25.5 -22.5q14 -13 27 -26.5t17 -33.5q6 -25 -8 -45.5t-42 -20.5zM866 642q-27 0 -42 18t-16 44l28 8q1 -11 3 -21.5t9 -17.5t17.5 -8t17.5 6q8 8 7.5 20.5t-6.5 22.5q-4 6 -10 11.5t-14 12.5
q-10 9 -22 19t-19 21t-9 24t1 25t10.5 21.5t20.5 12.5q12 3 27 2t25 -9q11 -8 15 -21t5 -26l-24 -7q-1 11 -5.5 24t-18.5 17q-10 1 -18.5 -4.5t-10.5 -14.5q-3 -19 10 -32t26 -22q14 -13 26.5 -26.5t17.5 -31.5q5 -27 -9 -47.5t-42 -20.5zM719 -93h34l68 299h-38zM568 644
v218h83v-23h-54v-71h44v-22h-44v-81h55v-21h-84zM715 396v217h84v-23h-54v-71h44v-22h-44v-81h54v-20h-84zM985 667q13 -5 27 0q9 5 11.5 12.5t3.5 15.5v25v76q0 9 -0.5 19t-8.5 17q-10 12 -26 7q-16 -1 -21 -19q-5 -15 -3 -34t2 -35v-40q0 -11 1 -24.5t14 -19.5zM926 419
q6 -3 14.5 -3t13.5 3q8 5 11.5 13t4.5 16q1 5 0.5 11.5t-0.5 11.5v77q0 9 -0.5 19t-8.5 17q-5 6 -12.5 8t-14.5 0q-15 -4 -21 -21q-3 -15 -2 -33.5t1 -35.5v-39q0 -11 1.5 -24t12.5 -20zM1311 396v45q0 8 1 16.5t-1 15.5q-4 22 -15 42l-31 98h28l33 -104l31 104h30
q-14 -45 -30 -90l-14 -45q-3 -8 -2.5 -15t0.5 -13v-54h-30zM1361 644v218h30v-197h56v-21h-86zM1172 396v217h30v-197h55v-20h-85zM561 -237q-13 0 -19.5 6t-9 15t-2.5 20v20t0.5 19t3.5 17.5t10 12t20 3.5q11 -1 17 -6.5t8.5 -14t2.5 -18v-18.5t-0.5 -18.5t-3 -18t-9 -14
t-18.5 -5.5zM1338 -235v110q11 0 24.5 0.5t23.5 -7.5t9.5 -23t-0.5 -26v-26.5t-12 -22.5q-9 -7 -22 -6t-23 1zM1403 -375q-13 0 -19.5 6t-9 15t-2.5 19.5v19.5q0 10 0.5 20t4 17.5t10.5 12t20 3.5q12 -1 17 -6.5t7 -14t1.5 -18t-0.5 -18.5v-18.5t-2.5 -18t-8.5 -14t-18 -5.5
zM467 -375q-14 0 -20.5 6t-8.5 15t-2 19.5v19.5q0 10 0.5 20t3.5 17.5t10 12t20 3.5q12 -1 17.5 -6.5t8 -14t2.5 -18v-18.5v-18.5t-3 -18t-9.5 -14t-18.5 -5.5zM748 -374v111q11 0 22.5 1t20.5 -4q6 -4 9.5 -11.5t3.5 -15.5t-3.5 -15t-10.5 -10l16 -56h-15l-13 53h-12v-53
h-18zM512 -374l2 111h16l20 -89l19 89h14l2 -111h-12l-1 82l-18 -82h-11l-17 82l-1 -82h-13zM602 -374l2 111h16l19 -89l20 89h16l1 -111h-11l-2 82l-19 -82h-10l-17 82l-2 -82h-13zM1204 -374v111q11 0 22 1t21 -4q6 -4 9.5 -11.5t3.5 -15.5t-3 -15t-10 -10l14 -56h-14
l-14 53h-13v-53h-16zM607 -235v110q10 0 21 1t20 -4q6 -3 10 -11t4.5 -16.5t-3 -15.5t-11.5 -10l16 -54h-15l-16 51h-11v-51h-15zM618 231v112q6 0 13 0.5t14.5 -0.5t14 -3t10.5 -8q4 -10 3 -23t-9 -20q-7 -5 -15 -5.5t-16 -0.5v-52h-15zM1265 -235v110h10l32 -73v73h12
v-110h-9l-32 74v-74h-13zM765 -235v110h14v-48h29v48h16v-110h-16v51h-29v-51h-14zM1450 -374v111h10l32 -74v74h12v-111h-10l-32 76v-76h-12zM788 231l24 112h15l24 -112h-16l-5 29h-23l-5 -29h-14zM919 -374l24 111h15l24 -111h-14l-5 29h-24l-5 -29h-15zM1193 -235
l21 110h17l23 -110h-15l-5 27h-23l-6 -27h-12zM1412 443l-8 170h28l-9 -170h-11zM1024 -235q-16 -5 -27.5 2t-14.5 23q-2 7 -1 13.5t1 12.5v59h14v-49q0 -5 -0.5 -13.5t0.5 -17t4 -15t10 -6.5q8 0 11.5 6.5t5 15t1 17t-0.5 13.5v49h13v-50q0 -7 0.5 -16t-0.5 -18t-4.5 -16
t-11.5 -10zM468 768q8 0 15.5 -0.5t16.5 1.5q11 3 14 11.5t3 19.5q1 12 -1.5 23t-15.5 15q-9 2 -16.5 1.5t-15.5 -0.5v-71zM707 768h15t16 2q10 5 13.5 15t1.5 21q0 10 -2.5 18t-12.5 12q-8 4 -16 3.5t-15 -0.5v-71zM395 -375q-14 0 -20.5 8t-8.5 20t-1.5 25.5t0.5 23.5
q0 15 7.5 26.5t26.5 9.5q17 -2 20.5 -14t3.5 -25h-14v10t-2 10q-2 8 -10.5 8.5t-12.5 -6.5q-5 -6 -3.5 -19t1.5 -21q0 -7 -1.5 -19t4.5 -19q3 -7 11.5 -6t10.5 9q2 5 2 10.5v10.5h14q0 -14 -4 -28t-24 -14zM848 -375q-15 0 -21 8t-7.5 20t-0.5 25.5t1 23.5q0 15 7 26.5
t25 9.5t21.5 -14t3.5 -25h-16q0 5 0.5 10t-1.5 10q-2 8 -10 8.5t-13 -6.5q-5 -6 -4 -19t1 -21q0 -7 -1 -19t5 -19q4 -7 12 -6t10 9q2 5 1.5 10.5t-0.5 10.5h16q0 -14 -4.5 -28t-24.5 -14zM1143 230q-15 0 -21.5 9t-7.5 23l15 5q0 -6 2 -13.5t8 -10.5q7 -2 11.5 2t4.5 11
q1 11 -8.5 19.5t-17.5 16.5q-11 8 -15 22t8 25q15 8 31 3q8 -3 11 -11t4 -16l-13 -3q-1 5 -2.5 10.5t-6.5 10.5q-4 2 -9.5 0t-6.5 -9q-5 -8 2.5 -15.5l12.5 -12.5q7 -6 14 -12.5t9 -17.5q4 -14 -3 -25t-22 -11zM888 230q-14 0 -21.5 9t-8.5 23l15 5q0 -6 2 -13.5t7 -10.5
q8 -2 13 2t5 11q0 11 -10 19.5t-17 16.5q-11 8 -14.5 22t8.5 25q7 4 15.5 4.5t14.5 -1.5q8 -3 11.5 -11t4.5 -16l-13 -3q-1 5 -2.5 10.5t-6.5 10.5q-5 2 -10 0t-7 -9q-3 -8 3.5 -15.5t11.5 -12.5q8 -6 15 -12.5t9 -17.5q4 -14 -3.5 -25t-21.5 -11zM1303 -375q-15 0 -22 10
t-9 23l15 3q0 -5 2 -12t7 -9q8 -5 13 -0.5t5 10.5q0 11 -10 20t-17 15q-10 10 -14 24.5t9 23.5q6 5 15 5.5t15 -2.5q8 -2 11 -10t4 -15l-13 -5q-1 5 -2 11t-6 10q-6 2 -11 0t-7 -8q-4 -8 3 -15t13 -12q7 -8 14 -14.5t9 -17.5q4 -13 -3 -24t-21 -11zM1033 231l-25 112h16
l16 -82l18 82h12l-23 -112h-14zM1099 -374l-25 111h14l18 -81l15 81h16l-26 -111h-12zM926 231v112h44v-10h-28v-38h23v-11h-23v-42h29v-11h-45zM841 -235v110h43v-11h-27v-37h23v-11h-23v-42h27v-9h-43zM1148 -374v111h45v-10h-29v-36h23v-12h-23v-42h29v-11h-45zM693 -374
v111h44v-10h-28v-36h23v-12h-23v-42h28v-11h-44zM738 231v112h43v-10h-29v-38h24v-11h-24v-42h29v-11h-43zM554 -224q9 -4 13.5 -0.5t6 10.5t1.5 15v14q0 4 0.5 11t0.5 14.5t-1.5 14t-5.5 8.5q-11 6 -17.5 -1.5t-6.5 -16.5v-18q0 -4 -0.5 -11.5t0 -16t2.5 -15t7 -8.5z
M1396 -359q9 -5 14 -2.5t7 9.5t2 15v14q0 4 0.5 11t-0.5 14.5t-3 13.5t-6 8q-11 7 -15.5 -0.5t-4.5 -15.5v-17q0 -4 -1 -12t-1 -16t1.5 -14.5t6.5 -7.5zM459 -359q9 -5 13.5 -2.5t6.5 9.5t2 15v14q0 4 0.5 11t0.5 14.5t-1.5 13.5t-5.5 8q-12 7 -17.5 -0.5t-5.5 -15.5
q-1 -5 -0.5 -9t0.5 -8t-0.5 -12t-0.5 -16t1.5 -14.5t6.5 -7.5zM478 -235v110h43v-11h-26v-37h21v-11h-21v-51h-17zM930 -235v110h42v-11h-29v-37h22v-11h-22v-51h-13zM1353 -226q10 0 17 2t9 14v29v29q-1 12 -8 14t-18 2v-90zM721 -235v99h-20v11h56v-11h-20v-99h-16z
M1229 231v102h-21v10h54v-10h-19v-102h-14zM994 -374v111h14v-100h29v-11h-43zM1058 -235v110h15v-101h28v-9h-43zM1111 -235v110h16v-101h28v-9h-44zM684 231v112h14v-101h29v-11h-43zM1084 231v112h15v-112h-15zM1259 720h37l-19 99zM410 -63h40v44h-40v-44zM892 -374v111
h16v-111h-16zM1342 -374v111h14v-111h-14zM1182 231v112h16v-112h-16zM1404 396v31h28v-31h-28zM633 294h8t9 2q6 2 7 8t1 12q-1 14 -7.5 15.5t-17.5 1.5v-39zM622 -173q10 0 17.5 3t7.5 16t-7 15.5t-18 2.5v-37zM1220 -309q11 0 18 2.5t7 15.5q0 11 -7 14.5t-18 3.5v-36z
M766 -309q10 0 16.5 2.5t6.5 15.5q0 11 -6.5 14.5t-16.5 3.5v-36zM941 -335h19l-9 51zM1213 -196h20l-10 50zM808 271h20l-8 51zM347 61l-41 115h-31v-239h37v117l42 -117h30v239h-37v-115zM1356 176h-52v-239h40v104h10l16 -104h40l-19 115q8 8 12.5 19t6.5 23q2 15 0 29.5
t-8 26t-17.5 19t-28.5 7.5zM1502 61l-41 115h-31v-239h37v117l42 -117h30v239h-37v-115zM1098 42h40v-105h40v239h-40v-99h-40v99h-40v-239h40v105zM1595 176l-44 -239h40l9 56h26l8 -56h40l-42 239h-37zM1239 42h38v35h-38v64h48v35h-88v-239h88v35h-48v70zM873 42h37v35
h-37v64h46v35h-87v-239h87v35h-46v70zM1008 141h37v35h-112v-35h36v-204h39v204zM1727 176h-40v-239h88v35h-48v204zM1344 141q5 0 12.5 0.5t11.5 -4.5q3 -4 4 -11.5t1 -16t-1.5 -16t-4.5 -11.5q-5 -5 -11.5 -5h-11.5v64zM1606 29l7 47l7 -47h-14z" />
    <glyph glyph-name="seven" unicode="7" horiz-adv-x="1844" 
d="M202 176l-28 -150l-27 150h-39l-3 -239h36l1 97l19 -97h28l19 98l2 -98h35l-2 239h-41zM997 642q-49 0 -57 48q-2 10 -2 20v21q0 23 -1 48t5 47q5 19 19.5 27.5t32.5 9.5t34.5 -6t22.5 -26q8 -20 7.5 -46t-0.5 -48q0 -14 -0.5 -26.5t-3.5 -24.5q-9 -44 -57 -44zM941 394
q-49 0 -58 46q-2 11 -1.5 22t0.5 23q0 21 -1 46t4 46q5 20 19 28.5t33 8.5q20 1 35.5 -6t22.5 -25q8 -22 6 -47t-2 -47q0 -14 0.5 -26t-2.5 -25q-4 -22 -18.5 -33t-37.5 -11zM648 26h24v-15.5t-1.5 -20t-7 -16t-15.5 -2.5q-6 2 -9 8.5t-4 14t-0.5 15.5t0.5 13v57
q0 11 -0.5 25.5t2.5 26.5q8 11 19 10q12 -4 13 -15q2 -8 1.5 -17t-0.5 -19h40q0 10 -0.5 21.5t-2.5 22.5t-7.5 20.5t-15.5 15.5q-11 7 -26 7.5t-28 -3.5q-17 -5 -24.5 -19t-10.5 -30q-2 -17 -1.5 -34.5t0.5 -34.5t-0.5 -33t1.5 -33q2 -14 7.5 -28.5t17.5 -21.5
q12 -8 29.5 -8t28.5 11l1 -7h32v124h-63v-35zM676 644v218q20 0 43.5 0.5t41.5 -9.5q12 -7 18 -22t6 -30.5t-6.5 -29t-19.5 -18.5l29 -109h-29l-29 103h-23v-103h-31zM548 61l-20 22l-12 12t-9 16q-2 4 -2 9.5t1.5 10.5t5 8t9.5 3q6 -1 9.5 -6.5t4.5 -12.5t1.5 -14.5
t0.5 -12.5l37 2q0 22 -5 44.5t-26 31.5q-13 6 -26 5t-23.5 -7t-17.5 -16.5t-8 -24.5q-2 -14 0.5 -29t10.5 -26q3 -7 9 -12t11 -11q11 -14 24.5 -27.5t13.5 -33.5q0 -7 -1.5 -13t-8.5 -7q-5 -2 -9 0.5t-6 7.5q-5 10 -6 21l-2 22l-37 -3q0 -15 1.5 -29t7.5 -28
q8 -17 24.5 -24.5t33.5 -3.5q19 3 29.5 17t12.5 30q4 45 -28 79zM438 644v218h46q17 0 31.5 -3.5t22.5 -20.5q10 -19 8.5 -43.5t-18.5 -38.5q-12 -10 -29 -10h-31v-102h-30zM1030 396v217h20l62 -145v145h27v-217h-21l-63 148v-148h-25zM1088 644v218h20l61 -145v145h26
v-218h-20l-63 148v-148h-24zM521 397q-10 -4 -21 -4t-21.5 3.5t-19 10.5t-12.5 19q-5 11 -6 24t-1 28v135h29v-145q0 -12 2 -27.5t16 -23.5q12 -4 19.5 -0.5t12 11t6.5 17.5t2 19q1 18 0.5 35t-0.5 35v79h30v-100q0 -14 0.5 -31.5t-2 -34.5t-10 -30.5t-24.5 -19.5zM1217 644
l46 218h29l46 -218h-28l-11 54h-44l-10 -54h-28zM639 394q-28 0 -42 18t-15 45l28 7q1 -10 2.5 -20.5t8.5 -17.5q7 -8 17 -9t18 6q9 8 8 21t-7 21q-5 6 -10.5 12.5t-13.5 11.5q-10 10 -22.5 20t-19.5 22q-7 10 -8.5 23t1.5 25t11 21t20 13q12 3 27 2t26 -9t14.5 -21t4.5 -26
l-24 -8q-1 12 -5.5 25t-18.5 16q-10 2 -18 -3.5t-10 -16.5q-5 -17 8.5 -29.5t25.5 -22.5q14 -13 27 -26.5t17 -33.5q6 -25 -8 -45.5t-42 -20.5zM866 642q-27 0 -42 18t-16 44l28 8q1 -11 3 -21.5t9 -17.5t17.5 -8t17.5 6q8 8 7.5 20.5t-6.5 22.5q-4 6 -10 11.5t-14 12.5
q-10 9 -22 19t-19 21t-9 24t1 25t10.5 21.5t20.5 12.5q12 3 27 2t25 -9q11 -8 15 -21t5 -26l-24 -7q-1 11 -5.5 24t-18.5 17q-10 1 -18.5 -4.5t-10.5 -14.5q-3 -19 10 -32t26 -22q14 -13 26.5 -26.5t17.5 -31.5q5 -27 -9 -47.5t-42 -20.5zM719 -93h34l68 299h-38zM568 644
v218h83v-23h-54v-71h44v-22h-44v-81h55v-21h-84zM715 396v217h84v-23h-54v-71h44v-22h-44v-81h54v-20h-84zM985 667q13 -5 27 0q9 5 11.5 12.5t3.5 15.5v25v76q0 9 -0.5 19t-8.5 17q-10 12 -26 7q-16 -1 -21 -19q-5 -15 -3 -34t2 -35v-40q0 -11 1 -24.5t14 -19.5zM926 419
q6 -3 14.5 -3t13.5 3q8 5 11.5 13t4.5 16q1 5 0.5 11.5t-0.5 11.5v77q0 9 -0.5 19t-8.5 17q-5 6 -12.5 8t-14.5 0q-15 -4 -21 -21q-3 -15 -2 -33.5t1 -35.5v-39q0 -11 1.5 -24t12.5 -20zM1311 396v45q0 8 1 16.5t-1 15.5q-4 22 -15 42l-31 98h28l33 -104l31 104h30
q-14 -45 -30 -90l-14 -45q-3 -8 -2.5 -15t0.5 -13v-54h-30zM1361 644v218h30v-197h56v-21h-86zM1172 396v217h30v-197h55v-20h-85zM561 -237q-13 0 -19.5 6t-9 15t-2.5 20v20t0.5 19t3.5 17.5t10 12t20 3.5q11 -1 17 -6.5t8.5 -14t2.5 -18v-18.5t-0.5 -18.5t-3 -18t-9 -14
t-18.5 -5.5zM1338 -235v110q11 0 24.5 0.5t23.5 -7.5t9.5 -23t-0.5 -26v-26.5t-12 -22.5q-9 -7 -22 -6t-23 1zM1403 -375q-13 0 -19.5 6t-9 15t-2.5 19.5v19.5q0 10 0.5 20t4 17.5t10.5 12t20 3.5q12 -1 17 -6.5t7 -14t1.5 -18t-0.5 -18.5v-18.5t-2.5 -18t-8.5 -14t-18 -5.5
zM467 -375q-14 0 -20.5 6t-8.5 15t-2 19.5v19.5q0 10 0.5 20t3.5 17.5t10 12t20 3.5q12 -1 17.5 -6.5t8 -14t2.5 -18v-18.5v-18.5t-3 -18t-9.5 -14t-18.5 -5.5zM748 -374v111q11 0 22.5 1t20.5 -4q6 -4 9.5 -11.5t3.5 -15.5t-3.5 -15t-10.5 -10l16 -56h-15l-13 53h-12v-53
h-18zM512 -374l2 111h16l20 -89l19 89h14l2 -111h-12l-1 82l-18 -82h-11l-17 82l-1 -82h-13zM602 -374l2 111h16l19 -89l20 89h16l1 -111h-11l-2 82l-19 -82h-10l-17 82l-2 -82h-13zM1204 -374v111q11 0 22 1t21 -4q6 -4 9.5 -11.5t3.5 -15.5t-3 -15t-10 -10l14 -56h-14
l-14 53h-13v-53h-16zM607 -235v110q10 0 21 1t20 -4q6 -3 10 -11t4.5 -16.5t-3 -15.5t-11.5 -10l16 -54h-15l-16 51h-11v-51h-15zM618 231v112q6 0 13 0.5t14.5 -0.5t14 -3t10.5 -8q4 -10 3 -23t-9 -20q-7 -5 -15 -5.5t-16 -0.5v-52h-15zM1265 -235v110h10l32 -73v73h12
v-110h-9l-32 74v-74h-13zM765 -235v110h14v-48h29v48h16v-110h-16v51h-29v-51h-14zM1450 -374v111h10l32 -74v74h12v-111h-10l-32 76v-76h-12zM788 231l24 112h15l24 -112h-16l-5 29h-23l-5 -29h-14zM919 -374l24 111h15l24 -111h-14l-5 29h-24l-5 -29h-15zM1193 -235
l21 110h17l23 -110h-15l-5 27h-23l-6 -27h-12zM1412 443l-8 170h28l-9 -170h-11zM1024 -235q-16 -5 -27.5 2t-14.5 23q-2 7 -1 13.5t1 12.5v59h14v-49q0 -5 -0.5 -13.5t0.5 -17t4 -15t10 -6.5q8 0 11.5 6.5t5 15t1 17t-0.5 13.5v49h13v-50q0 -7 0.5 -16t-0.5 -18t-4.5 -16
t-11.5 -10zM468 768q8 0 15.5 -0.5t16.5 1.5q11 3 14 11.5t3 19.5q1 12 -1.5 23t-15.5 15q-9 2 -16.5 1.5t-15.5 -0.5v-71zM707 768h15t16 2q10 5 13.5 15t1.5 21q0 10 -2.5 18t-12.5 12q-8 4 -16 3.5t-15 -0.5v-71zM395 -375q-14 0 -20.5 8t-8.5 20t-1.5 25.5t0.5 23.5
q0 15 7.5 26.5t26.5 9.5q17 -2 20.5 -14t3.5 -25h-14v10t-2 10q-2 8 -10.5 8.5t-12.5 -6.5q-5 -6 -3.5 -19t1.5 -21q0 -7 -1.5 -19t4.5 -19q3 -7 11.5 -6t10.5 9q2 5 2 10.5v10.5h14q0 -14 -4 -28t-24 -14zM848 -375q-15 0 -21 8t-7.5 20t-0.5 25.5t1 23.5q0 15 7 26.5
t25 9.5t21.5 -14t3.5 -25h-16q0 5 0.5 10t-1.5 10q-2 8 -10 8.5t-13 -6.5q-5 -6 -4 -19t1 -21q0 -7 -1 -19t5 -19q4 -7 12 -6t10 9q2 5 1.5 10.5t-0.5 10.5h16q0 -14 -4.5 -28t-24.5 -14zM1143 230q-15 0 -21.5 9t-7.5 23l15 5q0 -6 2 -13.5t8 -10.5q7 -2 11.5 2t4.5 11
q1 11 -8.5 19.5t-17.5 16.5q-11 8 -15 22t8 25q15 8 31 3q8 -3 11 -11t4 -16l-13 -3q-1 5 -2.5 10.5t-6.5 10.5q-4 2 -9.5 0t-6.5 -9q-5 -8 2.5 -15.5l12.5 -12.5q7 -6 14 -12.5t9 -17.5q4 -14 -3 -25t-22 -11zM888 230q-14 0 -21.5 9t-8.5 23l15 5q0 -6 2 -13.5t7 -10.5
q8 -2 13 2t5 11q0 11 -10 19.5t-17 16.5q-11 8 -14.5 22t8.5 25q7 4 15.5 4.5t14.5 -1.5q8 -3 11.5 -11t4.5 -16l-13 -3q-1 5 -2.5 10.5t-6.5 10.5q-5 2 -10 0t-7 -9q-3 -8 3.5 -15.5t11.5 -12.5q8 -6 15 -12.5t9 -17.5q4 -14 -3.5 -25t-21.5 -11zM1303 -375q-15 0 -22 10
t-9 23l15 3q0 -5 2 -12t7 -9q8 -5 13 -0.5t5 10.5q0 11 -10 20t-17 15q-10 10 -14 24.5t9 23.5q6 5 15 5.5t15 -2.5q8 -2 11 -10t4 -15l-13 -5q-1 5 -2 11t-6 10q-6 2 -11 0t-7 -8q-4 -8 3 -15t13 -12q7 -8 14 -14.5t9 -17.5q4 -13 -3 -24t-21 -11zM1033 231l-25 112h16
l16 -82l18 82h12l-23 -112h-14zM1099 -374l-25 111h14l18 -81l15 81h16l-26 -111h-12zM926 231v112h44v-10h-28v-38h23v-11h-23v-42h29v-11h-45zM841 -235v110h43v-11h-27v-37h23v-11h-23v-42h27v-9h-43zM1148 -374v111h45v-10h-29v-36h23v-12h-23v-42h29v-11h-45zM693 -374
v111h44v-10h-28v-36h23v-12h-23v-42h28v-11h-44zM738 231v112h43v-10h-29v-38h24v-11h-24v-42h29v-11h-43zM554 -224q9 -4 13.5 -0.5t6 10.5t1.5 15v14q0 4 0.5 11t0.5 14.5t-1.5 14t-5.5 8.5q-11 6 -17.5 -1.5t-6.5 -16.5v-18q0 -4 -0.5 -11.5t0 -16t2.5 -15t7 -8.5z
M1396 -359q9 -5 14 -2.5t7 9.5t2 15v14q0 4 0.5 11t-0.5 14.5t-3 13.5t-6 8q-11 7 -15.5 -0.5t-4.5 -15.5v-17q0 -4 -1 -12t-1 -16t1.5 -14.5t6.5 -7.5zM459 -359q9 -5 13.5 -2.5t6.5 9.5t2 15v14q0 4 0.5 11t0.5 14.5t-1.5 13.5t-5.5 8q-12 7 -17.5 -0.5t-5.5 -15.5
q-1 -5 -0.5 -9t0.5 -8t-0.5 -12t-0.5 -16t1.5 -14.5t6.5 -7.5zM478 -235v110h43v-11h-26v-37h21v-11h-21v-51h-17zM930 -235v110h42v-11h-29v-37h22v-11h-22v-51h-13zM1353 -226q10 0 17 2t9 14v29v29q-1 12 -8 14t-18 2v-90zM721 -235v99h-20v11h56v-11h-20v-99h-16z
M1229 231v102h-21v10h54v-10h-19v-102h-14zM994 -374v111h14v-100h29v-11h-43zM1058 -235v110h15v-101h28v-9h-43zM1111 -235v110h16v-101h28v-9h-44zM684 231v112h14v-101h29v-11h-43zM1084 231v112h15v-112h-15zM1259 720h37l-19 99zM410 -63h40v44h-40v-44zM892 -374v111
h16v-111h-16zM1342 -374v111h14v-111h-14zM1182 231v112h16v-112h-16zM1404 396v31h28v-31h-28zM633 294h8t9 2q6 2 7 8t1 12q-1 14 -7.5 15.5t-17.5 1.5v-39zM622 -173q10 0 17.5 3t7.5 16t-7 15.5t-18 2.5v-37zM1220 -309q11 0 18 2.5t7 15.5q0 11 -7 14.5t-18 3.5v-36z
M766 -309q10 0 16.5 2.5t6.5 15.5q0 11 -6.5 14.5t-16.5 3.5v-36zM941 -335h19l-9 51zM1213 -196h20l-10 50zM808 271h20l-8 51zM347 61l-41 115h-31v-239h37v117l42 -117h30v239h-37v-115zM1356 176h-52v-239h40v104h10l16 -104h40l-19 115q8 8 12.5 19t6.5 23q2 15 0 29.5
t-8 26t-17.5 19t-28.5 7.5zM1502 61l-41 115h-31v-239h37v117l42 -117h30v239h-37v-115zM1098 42h40v-105h40v239h-40v-99h-40v99h-40v-239h40v105zM1595 176l-44 -239h40l9 56h26l8 -56h40l-42 239h-37zM1239 42h38v35h-38v64h48v35h-88v-239h88v35h-48v70zM873 42h37v35
h-37v64h46v35h-87v-239h87v35h-46v70zM1008 141h37v35h-112v-35h36v-204h39v204zM1727 176h-40v-239h88v35h-48v204zM1344 141q5 0 12.5 0.5t11.5 -4.5q3 -4 4 -11.5t1 -16t-1.5 -16t-4.5 -11.5q-5 -5 -11.5 -5h-11.5v64zM1606 29l7 47l7 -47h-14z" />
    <glyph glyph-name="eight" unicode="8" horiz-adv-x="1844" 
d="M202 176l-28 -150l-27 150h-39l-3 -239h36l1 97l19 -97h28l19 98l2 -98h35l-2 239h-41zM997 642q-49 0 -57 48q-2 10 -2 20v21q0 23 -1 48t5 47q5 19 19.5 27.5t32.5 9.5t34.5 -6t22.5 -26q8 -20 7.5 -46t-0.5 -48q0 -14 -0.5 -26.5t-3.5 -24.5q-9 -44 -57 -44zM941 394
q-49 0 -58 46q-2 11 -1.5 22t0.5 23q0 21 -1 46t4 46q5 20 19 28.5t33 8.5q20 1 35.5 -6t22.5 -25q8 -22 6 -47t-2 -47q0 -14 0.5 -26t-2.5 -25q-4 -22 -18.5 -33t-37.5 -11zM648 26h24v-15.5t-1.5 -20t-7 -16t-15.5 -2.5q-6 2 -9 8.5t-4 14t-0.5 15.5t0.5 13v57
q0 11 -0.5 25.5t2.5 26.5q8 11 19 10q12 -4 13 -15q2 -8 1.5 -17t-0.5 -19h40q0 10 -0.5 21.5t-2.5 22.5t-7.5 20.5t-15.5 15.5q-11 7 -26 7.5t-28 -3.5q-17 -5 -24.5 -19t-10.5 -30q-2 -17 -1.5 -34.5t0.5 -34.5t-0.5 -33t1.5 -33q2 -14 7.5 -28.5t17.5 -21.5
q12 -8 29.5 -8t28.5 11l1 -7h32v124h-63v-35zM676 644v218q20 0 43.5 0.5t41.5 -9.5q12 -7 18 -22t6 -30.5t-6.5 -29t-19.5 -18.5l29 -109h-29l-29 103h-23v-103h-31zM548 61l-20 22l-12 12t-9 16q-2 4 -2 9.5t1.5 10.5t5 8t9.5 3q6 -1 9.5 -6.5t4.5 -12.5t1.5 -14.5
t0.5 -12.5l37 2q0 22 -5 44.5t-26 31.5q-13 6 -26 5t-23.5 -7t-17.5 -16.5t-8 -24.5q-2 -14 0.5 -29t10.5 -26q3 -7 9 -12t11 -11q11 -14 24.5 -27.5t13.5 -33.5q0 -7 -1.5 -13t-8.5 -7q-5 -2 -9 0.5t-6 7.5q-5 10 -6 21l-2 22l-37 -3q0 -15 1.5 -29t7.5 -28
q8 -17 24.5 -24.5t33.5 -3.5q19 3 29.5 17t12.5 30q4 45 -28 79zM438 644v218h46q17 0 31.5 -3.5t22.5 -20.5q10 -19 8.5 -43.5t-18.5 -38.5q-12 -10 -29 -10h-31v-102h-30zM1030 396v217h20l62 -145v145h27v-217h-21l-63 148v-148h-25zM1088 644v218h20l61 -145v145h26
v-218h-20l-63 148v-148h-24zM521 397q-10 -4 -21 -4t-21.5 3.5t-19 10.5t-12.5 19q-5 11 -6 24t-1 28v135h29v-145q0 -12 2 -27.5t16 -23.5q12 -4 19.5 -0.5t12 11t6.5 17.5t2 19q1 18 0.5 35t-0.5 35v79h30v-100q0 -14 0.5 -31.5t-2 -34.5t-10 -30.5t-24.5 -19.5zM1217 644
l46 218h29l46 -218h-28l-11 54h-44l-10 -54h-28zM639 394q-28 0 -42 18t-15 45l28 7q1 -10 2.5 -20.5t8.5 -17.5q7 -8 17 -9t18 6q9 8 8 21t-7 21q-5 6 -10.5 12.5t-13.5 11.5q-10 10 -22.5 20t-19.5 22q-7 10 -8.5 23t1.5 25t11 21t20 13q12 3 27 2t26 -9t14.5 -21t4.5 -26
l-24 -8q-1 12 -5.5 25t-18.5 16q-10 2 -18 -3.5t-10 -16.5q-5 -17 8.5 -29.5t25.5 -22.5q14 -13 27 -26.5t17 -33.5q6 -25 -8 -45.5t-42 -20.5zM866 642q-27 0 -42 18t-16 44l28 8q1 -11 3 -21.5t9 -17.5t17.5 -8t17.5 6q8 8 7.5 20.5t-6.5 22.5q-4 6 -10 11.5t-14 12.5
q-10 9 -22 19t-19 21t-9 24t1 25t10.5 21.5t20.5 12.5q12 3 27 2t25 -9q11 -8 15 -21t5 -26l-24 -7q-1 11 -5.5 24t-18.5 17q-10 1 -18.5 -4.5t-10.5 -14.5q-3 -19 10 -32t26 -22q14 -13 26.5 -26.5t17.5 -31.5q5 -27 -9 -47.5t-42 -20.5zM719 -93h34l68 299h-38zM568 644
v218h83v-23h-54v-71h44v-22h-44v-81h55v-21h-84zM715 396v217h84v-23h-54v-71h44v-22h-44v-81h54v-20h-84zM985 667q13 -5 27 0q9 5 11.5 12.5t3.5 15.5v25v76q0 9 -0.5 19t-8.5 17q-10 12 -26 7q-16 -1 -21 -19q-5 -15 -3 -34t2 -35v-40q0 -11 1 -24.5t14 -19.5zM926 419
q6 -3 14.5 -3t13.5 3q8 5 11.5 13t4.5 16q1 5 0.5 11.5t-0.5 11.5v77q0 9 -0.5 19t-8.5 17q-5 6 -12.5 8t-14.5 0q-15 -4 -21 -21q-3 -15 -2 -33.5t1 -35.5v-39q0 -11 1.5 -24t12.5 -20zM1311 396v45q0 8 1 16.5t-1 15.5q-4 22 -15 42l-31 98h28l33 -104l31 104h30
q-14 -45 -30 -90l-14 -45q-3 -8 -2.5 -15t0.5 -13v-54h-30zM1361 644v218h30v-197h56v-21h-86zM1172 396v217h30v-197h55v-20h-85zM561 -237q-13 0 -19.5 6t-9 15t-2.5 20v20t0.5 19t3.5 17.5t10 12t20 3.5q11 -1 17 -6.5t8.5 -14t2.5 -18v-18.5t-0.5 -18.5t-3 -18t-9 -14
t-18.5 -5.5zM1338 -235v110q11 0 24.5 0.5t23.5 -7.5t9.5 -23t-0.5 -26v-26.5t-12 -22.5q-9 -7 -22 -6t-23 1zM1403 -375q-13 0 -19.5 6t-9 15t-2.5 19.5v19.5q0 10 0.5 20t4 17.5t10.5 12t20 3.5q12 -1 17 -6.5t7 -14t1.5 -18t-0.5 -18.5v-18.5t-2.5 -18t-8.5 -14t-18 -5.5
zM467 -375q-14 0 -20.5 6t-8.5 15t-2 19.5v19.5q0 10 0.5 20t3.5 17.5t10 12t20 3.5q12 -1 17.5 -6.5t8 -14t2.5 -18v-18.5v-18.5t-3 -18t-9.5 -14t-18.5 -5.5zM748 -374v111q11 0 22.5 1t20.5 -4q6 -4 9.5 -11.5t3.5 -15.5t-3.5 -15t-10.5 -10l16 -56h-15l-13 53h-12v-53
h-18zM512 -374l2 111h16l20 -89l19 89h14l2 -111h-12l-1 82l-18 -82h-11l-17 82l-1 -82h-13zM602 -374l2 111h16l19 -89l20 89h16l1 -111h-11l-2 82l-19 -82h-10l-17 82l-2 -82h-13zM1204 -374v111q11 0 22 1t21 -4q6 -4 9.5 -11.5t3.5 -15.5t-3 -15t-10 -10l14 -56h-14
l-14 53h-13v-53h-16zM607 -235v110q10 0 21 1t20 -4q6 -3 10 -11t4.5 -16.5t-3 -15.5t-11.5 -10l16 -54h-15l-16 51h-11v-51h-15zM618 231v112q6 0 13 0.5t14.5 -0.5t14 -3t10.5 -8q4 -10 3 -23t-9 -20q-7 -5 -15 -5.5t-16 -0.5v-52h-15zM1265 -235v110h10l32 -73v73h12
v-110h-9l-32 74v-74h-13zM765 -235v110h14v-48h29v48h16v-110h-16v51h-29v-51h-14zM1450 -374v111h10l32 -74v74h12v-111h-10l-32 76v-76h-12zM788 231l24 112h15l24 -112h-16l-5 29h-23l-5 -29h-14zM919 -374l24 111h15l24 -111h-14l-5 29h-24l-5 -29h-15zM1193 -235
l21 110h17l23 -110h-15l-5 27h-23l-6 -27h-12zM1412 443l-8 170h28l-9 -170h-11zM1024 -235q-16 -5 -27.5 2t-14.5 23q-2 7 -1 13.5t1 12.5v59h14v-49q0 -5 -0.5 -13.5t0.5 -17t4 -15t10 -6.5q8 0 11.5 6.5t5 15t1 17t-0.5 13.5v49h13v-50q0 -7 0.5 -16t-0.5 -18t-4.5 -16
t-11.5 -10zM468 768q8 0 15.5 -0.5t16.5 1.5q11 3 14 11.5t3 19.5q1 12 -1.5 23t-15.5 15q-9 2 -16.5 1.5t-15.5 -0.5v-71zM707 768h15t16 2q10 5 13.5 15t1.5 21q0 10 -2.5 18t-12.5 12q-8 4 -16 3.5t-15 -0.5v-71zM395 -375q-14 0 -20.5 8t-8.5 20t-1.5 25.5t0.5 23.5
q0 15 7.5 26.5t26.5 9.5q17 -2 20.5 -14t3.5 -25h-14v10t-2 10q-2 8 -10.5 8.5t-12.5 -6.5q-5 -6 -3.5 -19t1.5 -21q0 -7 -1.5 -19t4.5 -19q3 -7 11.5 -6t10.5 9q2 5 2 10.5v10.5h14q0 -14 -4 -28t-24 -14zM848 -375q-15 0 -21 8t-7.5 20t-0.5 25.5t1 23.5q0 15 7 26.5
t25 9.5t21.5 -14t3.5 -25h-16q0 5 0.5 10t-1.5 10q-2 8 -10 8.5t-13 -6.5q-5 -6 -4 -19t1 -21q0 -7 -1 -19t5 -19q4 -7 12 -6t10 9q2 5 1.5 10.5t-0.5 10.5h16q0 -14 -4.5 -28t-24.5 -14zM1143 230q-15 0 -21.5 9t-7.5 23l15 5q0 -6 2 -13.5t8 -10.5q7 -2 11.5 2t4.5 11
q1 11 -8.5 19.5t-17.5 16.5q-11 8 -15 22t8 25q15 8 31 3q8 -3 11 -11t4 -16l-13 -3q-1 5 -2.5 10.5t-6.5 10.5q-4 2 -9.5 0t-6.5 -9q-5 -8 2.5 -15.5l12.5 -12.5q7 -6 14 -12.5t9 -17.5q4 -14 -3 -25t-22 -11zM888 230q-14 0 -21.5 9t-8.5 23l15 5q0 -6 2 -13.5t7 -10.5
q8 -2 13 2t5 11q0 11 -10 19.5t-17 16.5q-11 8 -14.5 22t8.5 25q7 4 15.5 4.5t14.5 -1.5q8 -3 11.5 -11t4.5 -16l-13 -3q-1 5 -2.5 10.5t-6.5 10.5q-5 2 -10 0t-7 -9q-3 -8 3.5 -15.5t11.5 -12.5q8 -6 15 -12.5t9 -17.5q4 -14 -3.5 -25t-21.5 -11zM1303 -375q-15 0 -22 10
t-9 23l15 3q0 -5 2 -12t7 -9q8 -5 13 -0.5t5 10.5q0 11 -10 20t-17 15q-10 10 -14 24.5t9 23.5q6 5 15 5.5t15 -2.5q8 -2 11 -10t4 -15l-13 -5q-1 5 -2 11t-6 10q-6 2 -11 0t-7 -8q-4 -8 3 -15t13 -12q7 -8 14 -14.5t9 -17.5q4 -13 -3 -24t-21 -11zM1033 231l-25 112h16
l16 -82l18 82h12l-23 -112h-14zM1099 -374l-25 111h14l18 -81l15 81h16l-26 -111h-12zM926 231v112h44v-10h-28v-38h23v-11h-23v-42h29v-11h-45zM841 -235v110h43v-11h-27v-37h23v-11h-23v-42h27v-9h-43zM1148 -374v111h45v-10h-29v-36h23v-12h-23v-42h29v-11h-45zM693 -374
v111h44v-10h-28v-36h23v-12h-23v-42h28v-11h-44zM738 231v112h43v-10h-29v-38h24v-11h-24v-42h29v-11h-43zM554 -224q9 -4 13.5 -0.5t6 10.5t1.5 15v14q0 4 0.5 11t0.5 14.5t-1.5 14t-5.5 8.5q-11 6 -17.5 -1.5t-6.5 -16.5v-18q0 -4 -0.5 -11.5t0 -16t2.5 -15t7 -8.5z
M1396 -359q9 -5 14 -2.5t7 9.5t2 15v14q0 4 0.5 11t-0.5 14.5t-3 13.5t-6 8q-11 7 -15.5 -0.5t-4.5 -15.5v-17q0 -4 -1 -12t-1 -16t1.5 -14.5t6.5 -7.5zM459 -359q9 -5 13.5 -2.5t6.5 9.5t2 15v14q0 4 0.5 11t0.5 14.5t-1.5 13.5t-5.5 8q-12 7 -17.5 -0.5t-5.5 -15.5
q-1 -5 -0.5 -9t0.5 -8t-0.5 -12t-0.5 -16t1.5 -14.5t6.5 -7.5zM478 -235v110h43v-11h-26v-37h21v-11h-21v-51h-17zM930 -235v110h42v-11h-29v-37h22v-11h-22v-51h-13zM1353 -226q10 0 17 2t9 14v29v29q-1 12 -8 14t-18 2v-90zM721 -235v99h-20v11h56v-11h-20v-99h-16z
M1229 231v102h-21v10h54v-10h-19v-102h-14zM994 -374v111h14v-100h29v-11h-43zM1058 -235v110h15v-101h28v-9h-43zM1111 -235v110h16v-101h28v-9h-44zM684 231v112h14v-101h29v-11h-43zM1084 231v112h15v-112h-15zM1259 720h37l-19 99zM410 -63h40v44h-40v-44zM892 -374v111
h16v-111h-16zM1342 -374v111h14v-111h-14zM1182 231v112h16v-112h-16zM1404 396v31h28v-31h-28zM633 294h8t9 2q6 2 7 8t1 12q-1 14 -7.5 15.5t-17.5 1.5v-39zM622 -173q10 0 17.5 3t7.5 16t-7 15.5t-18 2.5v-37zM1220 -309q11 0 18 2.5t7 15.5q0 11 -7 14.5t-18 3.5v-36z
M766 -309q10 0 16.5 2.5t6.5 15.5q0 11 -6.5 14.5t-16.5 3.5v-36zM941 -335h19l-9 51zM1213 -196h20l-10 50zM808 271h20l-8 51zM347 61l-41 115h-31v-239h37v117l42 -117h30v239h-37v-115zM1356 176h-52v-239h40v104h10l16 -104h40l-19 115q8 8 12.5 19t6.5 23q2 15 0 29.5
t-8 26t-17.5 19t-28.5 7.5zM1502 61l-41 115h-31v-239h37v117l42 -117h30v239h-37v-115zM1098 42h40v-105h40v239h-40v-99h-40v99h-40v-239h40v105zM1595 176l-44 -239h40l9 56h26l8 -56h40l-42 239h-37zM1239 42h38v35h-38v64h48v35h-88v-239h88v35h-48v70zM873 42h37v35
h-37v64h46v35h-87v-239h87v35h-46v70zM1008 141h37v35h-112v-35h36v-204h39v204zM1727 176h-40v-239h88v35h-48v204zM1344 141q5 0 12.5 0.5t11.5 -4.5q3 -4 4 -11.5t1 -16t-1.5 -16t-4.5 -11.5q-5 -5 -11.5 -5h-11.5v64zM1606 29l7 47l7 -47h-14z" />
    <glyph glyph-name="nine" unicode="9" horiz-adv-x="1844" 
d="M202 176l-28 -150l-27 150h-39l-3 -239h36l1 97l19 -97h28l19 98l2 -98h35l-2 239h-41zM997 642q-49 0 -57 48q-2 10 -2 20v21q0 23 -1 48t5 47q5 19 19.5 27.5t32.5 9.5t34.5 -6t22.5 -26q8 -20 7.5 -46t-0.5 -48q0 -14 -0.5 -26.5t-3.5 -24.5q-9 -44 -57 -44zM941 394
q-49 0 -58 46q-2 11 -1.5 22t0.5 23q0 21 -1 46t4 46q5 20 19 28.5t33 8.5q20 1 35.5 -6t22.5 -25q8 -22 6 -47t-2 -47q0 -14 0.5 -26t-2.5 -25q-4 -22 -18.5 -33t-37.5 -11zM648 26h24v-15.5t-1.5 -20t-7 -16t-15.5 -2.5q-6 2 -9 8.5t-4 14t-0.5 15.5t0.5 13v57
q0 11 -0.5 25.5t2.5 26.5q8 11 19 10q12 -4 13 -15q2 -8 1.5 -17t-0.5 -19h40q0 10 -0.5 21.5t-2.5 22.5t-7.5 20.5t-15.5 15.5q-11 7 -26 7.5t-28 -3.5q-17 -5 -24.5 -19t-10.5 -30q-2 -17 -1.5 -34.5t0.5 -34.5t-0.5 -33t1.5 -33q2 -14 7.5 -28.5t17.5 -21.5
q12 -8 29.5 -8t28.5 11l1 -7h32v124h-63v-35zM676 644v218q20 0 43.5 0.5t41.5 -9.5q12 -7 18 -22t6 -30.5t-6.5 -29t-19.5 -18.5l29 -109h-29l-29 103h-23v-103h-31zM548 61l-20 22l-12 12t-9 16q-2 4 -2 9.5t1.5 10.5t5 8t9.5 3q6 -1 9.5 -6.5t4.5 -12.5t1.5 -14.5
t0.5 -12.5l37 2q0 22 -5 44.5t-26 31.5q-13 6 -26 5t-23.5 -7t-17.5 -16.5t-8 -24.5q-2 -14 0.5 -29t10.5 -26q3 -7 9 -12t11 -11q11 -14 24.5 -27.5t13.5 -33.5q0 -7 -1.5 -13t-8.5 -7q-5 -2 -9 0.5t-6 7.5q-5 10 -6 21l-2 22l-37 -3q0 -15 1.5 -29t7.5 -28
q8 -17 24.5 -24.5t33.5 -3.5q19 3 29.5 17t12.5 30q4 45 -28 79zM438 644v218h46q17 0 31.5 -3.5t22.5 -20.5q10 -19 8.5 -43.5t-18.5 -38.5q-12 -10 -29 -10h-31v-102h-30zM1030 396v217h20l62 -145v145h27v-217h-21l-63 148v-148h-25zM1088 644v218h20l61 -145v145h26
v-218h-20l-63 148v-148h-24zM521 397q-10 -4 -21 -4t-21.5 3.5t-19 10.5t-12.5 19q-5 11 -6 24t-1 28v135h29v-145q0 -12 2 -27.5t16 -23.5q12 -4 19.5 -0.5t12 11t6.5 17.5t2 19q1 18 0.5 35t-0.5 35v79h30v-100q0 -14 0.5 -31.5t-2 -34.5t-10 -30.5t-24.5 -19.5zM1217 644
l46 218h29l46 -218h-28l-11 54h-44l-10 -54h-28zM639 394q-28 0 -42 18t-15 45l28 7q1 -10 2.5 -20.5t8.5 -17.5q7 -8 17 -9t18 6q9 8 8 21t-7 21q-5 6 -10.5 12.5t-13.5 11.5q-10 10 -22.5 20t-19.5 22q-7 10 -8.5 23t1.5 25t11 21t20 13q12 3 27 2t26 -9t14.5 -21t4.5 -26
l-24 -8q-1 12 -5.5 25t-18.5 16q-10 2 -18 -3.5t-10 -16.5q-5 -17 8.5 -29.5t25.5 -22.5q14 -13 27 -26.5t17 -33.5q6 -25 -8 -45.5t-42 -20.5zM866 642q-27 0 -42 18t-16 44l28 8q1 -11 3 -21.5t9 -17.5t17.5 -8t17.5 6q8 8 7.5 20.5t-6.5 22.5q-4 6 -10 11.5t-14 12.5
q-10 9 -22 19t-19 21t-9 24t1 25t10.5 21.5t20.5 12.5q12 3 27 2t25 -9q11 -8 15 -21t5 -26l-24 -7q-1 11 -5.5 24t-18.5 17q-10 1 -18.5 -4.5t-10.5 -14.5q-3 -19 10 -32t26 -22q14 -13 26.5 -26.5t17.5 -31.5q5 -27 -9 -47.5t-42 -20.5zM719 -93h34l68 299h-38zM568 644
v218h83v-23h-54v-71h44v-22h-44v-81h55v-21h-84zM715 396v217h84v-23h-54v-71h44v-22h-44v-81h54v-20h-84zM985 667q13 -5 27 0q9 5 11.5 12.5t3.5 15.5v25v76q0 9 -0.5 19t-8.5 17q-10 12 -26 7q-16 -1 -21 -19q-5 -15 -3 -34t2 -35v-40q0 -11 1 -24.5t14 -19.5zM926 419
q6 -3 14.5 -3t13.5 3q8 5 11.5 13t4.5 16q1 5 0.5 11.5t-0.5 11.5v77q0 9 -0.5 19t-8.5 17q-5 6 -12.5 8t-14.5 0q-15 -4 -21 -21q-3 -15 -2 -33.5t1 -35.5v-39q0 -11 1.5 -24t12.5 -20zM1311 396v45q0 8 1 16.5t-1 15.5q-4 22 -15 42l-31 98h28l33 -104l31 104h30
q-14 -45 -30 -90l-14 -45q-3 -8 -2.5 -15t0.5 -13v-54h-30zM1361 644v218h30v-197h56v-21h-86zM1172 396v217h30v-197h55v-20h-85zM561 -237q-13 0 -19.5 6t-9 15t-2.5 20v20t0.5 19t3.5 17.5t10 12t20 3.5q11 -1 17 -6.5t8.5 -14t2.5 -18v-18.5t-0.5 -18.5t-3 -18t-9 -14
t-18.5 -5.5zM1338 -235v110q11 0 24.5 0.5t23.5 -7.5t9.5 -23t-0.5 -26v-26.5t-12 -22.5q-9 -7 -22 -6t-23 1zM1403 -375q-13 0 -19.5 6t-9 15t-2.5 19.5v19.5q0 10 0.5 20t4 17.5t10.5 12t20 3.5q12 -1 17 -6.5t7 -14t1.5 -18t-0.5 -18.5v-18.5t-2.5 -18t-8.5 -14t-18 -5.5
zM467 -375q-14 0 -20.5 6t-8.5 15t-2 19.5v19.5q0 10 0.5 20t3.5 17.5t10 12t20 3.5q12 -1 17.5 -6.5t8 -14t2.5 -18v-18.5v-18.5t-3 -18t-9.5 -14t-18.5 -5.5zM748 -374v111q11 0 22.5 1t20.5 -4q6 -4 9.5 -11.5t3.5 -15.5t-3.5 -15t-10.5 -10l16 -56h-15l-13 53h-12v-53
h-18zM512 -374l2 111h16l20 -89l19 89h14l2 -111h-12l-1 82l-18 -82h-11l-17 82l-1 -82h-13zM602 -374l2 111h16l19 -89l20 89h16l1 -111h-11l-2 82l-19 -82h-10l-17 82l-2 -82h-13zM1204 -374v111q11 0 22 1t21 -4q6 -4 9.5 -11.5t3.5 -15.5t-3 -15t-10 -10l14 -56h-14
l-14 53h-13v-53h-16zM607 -235v110q10 0 21 1t20 -4q6 -3 10 -11t4.5 -16.5t-3 -15.5t-11.5 -10l16 -54h-15l-16 51h-11v-51h-15zM618 231v112q6 0 13 0.5t14.5 -0.5t14 -3t10.5 -8q4 -10 3 -23t-9 -20q-7 -5 -15 -5.5t-16 -0.5v-52h-15zM1265 -235v110h10l32 -73v73h12
v-110h-9l-32 74v-74h-13zM765 -235v110h14v-48h29v48h16v-110h-16v51h-29v-51h-14zM1450 -374v111h10l32 -74v74h12v-111h-10l-32 76v-76h-12zM788 231l24 112h15l24 -112h-16l-5 29h-23l-5 -29h-14zM919 -374l24 111h15l24 -111h-14l-5 29h-24l-5 -29h-15zM1193 -235
l21 110h17l23 -110h-15l-5 27h-23l-6 -27h-12zM1412 443l-8 170h28l-9 -170h-11zM1024 -235q-16 -5 -27.5 2t-14.5 23q-2 7 -1 13.5t1 12.5v59h14v-49q0 -5 -0.5 -13.5t0.5 -17t4 -15t10 -6.5q8 0 11.5 6.5t5 15t1 17t-0.5 13.5v49h13v-50q0 -7 0.5 -16t-0.5 -18t-4.5 -16
t-11.5 -10zM468 768q8 0 15.5 -0.5t16.5 1.5q11 3 14 11.5t3 19.5q1 12 -1.5 23t-15.5 15q-9 2 -16.5 1.5t-15.5 -0.5v-71zM707 768h15t16 2q10 5 13.5 15t1.5 21q0 10 -2.5 18t-12.5 12q-8 4 -16 3.5t-15 -0.5v-71zM395 -375q-14 0 -20.5 8t-8.5 20t-1.5 25.5t0.5 23.5
q0 15 7.5 26.5t26.5 9.5q17 -2 20.5 -14t3.5 -25h-14v10t-2 10q-2 8 -10.5 8.5t-12.5 -6.5q-5 -6 -3.5 -19t1.5 -21q0 -7 -1.5 -19t4.5 -19q3 -7 11.5 -6t10.5 9q2 5 2 10.5v10.5h14q0 -14 -4 -28t-24 -14zM848 -375q-15 0 -21 8t-7.5 20t-0.5 25.5t1 23.5q0 15 7 26.5
t25 9.5t21.5 -14t3.5 -25h-16q0 5 0.5 10t-1.5 10q-2 8 -10 8.5t-13 -6.5q-5 -6 -4 -19t1 -21q0 -7 -1 -19t5 -19q4 -7 12 -6t10 9q2 5 1.5 10.5t-0.5 10.5h16q0 -14 -4.5 -28t-24.5 -14zM1143 230q-15 0 -21.5 9t-7.5 23l15 5q0 -6 2 -13.5t8 -10.5q7 -2 11.5 2t4.5 11
q1 11 -8.5 19.5t-17.5 16.5q-11 8 -15 22t8 25q15 8 31 3q8 -3 11 -11t4 -16l-13 -3q-1 5 -2.5 10.5t-6.5 10.5q-4 2 -9.5 0t-6.5 -9q-5 -8 2.5 -15.5l12.5 -12.5q7 -6 14 -12.5t9 -17.5q4 -14 -3 -25t-22 -11zM888 230q-14 0 -21.5 9t-8.5 23l15 5q0 -6 2 -13.5t7 -10.5
q8 -2 13 2t5 11q0 11 -10 19.5t-17 16.5q-11 8 -14.5 22t8.5 25q7 4 15.5 4.5t14.5 -1.5q8 -3 11.5 -11t4.5 -16l-13 -3q-1 5 -2.5 10.5t-6.5 10.5q-5 2 -10 0t-7 -9q-3 -8 3.5 -15.5t11.5 -12.5q8 -6 15 -12.5t9 -17.5q4 -14 -3.5 -25t-21.5 -11zM1303 -375q-15 0 -22 10
t-9 23l15 3q0 -5 2 -12t7 -9q8 -5 13 -0.5t5 10.5q0 11 -10 20t-17 15q-10 10 -14 24.5t9 23.5q6 5 15 5.5t15 -2.5q8 -2 11 -10t4 -15l-13 -5q-1 5 -2 11t-6 10q-6 2 -11 0t-7 -8q-4 -8 3 -15t13 -12q7 -8 14 -14.5t9 -17.5q4 -13 -3 -24t-21 -11zM1033 231l-25 112h16
l16 -82l18 82h12l-23 -112h-14zM1099 -374l-25 111h14l18 -81l15 81h16l-26 -111h-12zM926 231v112h44v-10h-28v-38h23v-11h-23v-42h29v-11h-45zM841 -235v110h43v-11h-27v-37h23v-11h-23v-42h27v-9h-43zM1148 -374v111h45v-10h-29v-36h23v-12h-23v-42h29v-11h-45zM693 -374
v111h44v-10h-28v-36h23v-12h-23v-42h28v-11h-44zM738 231v112h43v-10h-29v-38h24v-11h-24v-42h29v-11h-43zM554 -224q9 -4 13.5 -0.5t6 10.5t1.5 15v14q0 4 0.5 11t0.5 14.5t-1.5 14t-5.5 8.5q-11 6 -17.5 -1.5t-6.5 -16.5v-18q0 -4 -0.5 -11.5t0 -16t2.5 -15t7 -8.5z
M1396 -359q9 -5 14 -2.5t7 9.5t2 15v14q0 4 0.5 11t-0.5 14.5t-3 13.5t-6 8q-11 7 -15.5 -0.5t-4.5 -15.5v-17q0 -4 -1 -12t-1 -16t1.5 -14.5t6.5 -7.5zM459 -359q9 -5 13.5 -2.5t6.5 9.5t2 15v14q0 4 0.5 11t0.5 14.5t-1.5 13.5t-5.5 8q-12 7 -17.5 -0.5t-5.5 -15.5
q-1 -5 -0.5 -9t0.5 -8t-0.5 -12t-0.5 -16t1.5 -14.5t6.5 -7.5zM478 -235v110h43v-11h-26v-37h21v-11h-21v-51h-17zM930 -235v110h42v-11h-29v-37h22v-11h-22v-51h-13zM1353 -226q10 0 17 2t9 14v29v29q-1 12 -8 14t-18 2v-90zM721 -235v99h-20v11h56v-11h-20v-99h-16z
M1229 231v102h-21v10h54v-10h-19v-102h-14zM994 -374v111h14v-100h29v-11h-43zM1058 -235v110h15v-101h28v-9h-43zM1111 -235v110h16v-101h28v-9h-44zM684 231v112h14v-101h29v-11h-43zM1084 231v112h15v-112h-15zM1259 720h37l-19 99zM410 -63h40v44h-40v-44zM892 -374v111
h16v-111h-16zM1342 -374v111h14v-111h-14zM1182 231v112h16v-112h-16zM1404 396v31h28v-31h-28zM633 294h8t9 2q6 2 7 8t1 12q-1 14 -7.5 15.5t-17.5 1.5v-39zM622 -173q10 0 17.5 3t7.5 16t-7 15.5t-18 2.5v-37zM1220 -309q11 0 18 2.5t7 15.5q0 11 -7 14.5t-18 3.5v-36z
M766 -309q10 0 16.5 2.5t6.5 15.5q0 11 -6.5 14.5t-16.5 3.5v-36zM941 -335h19l-9 51zM1213 -196h20l-10 50zM808 271h20l-8 51zM347 61l-41 115h-31v-239h37v117l42 -117h30v239h-37v-115zM1356 176h-52v-239h40v104h10l16 -104h40l-19 115q8 8 12.5 19t6.5 23q2 15 0 29.5
t-8 26t-17.5 19t-28.5 7.5zM1502 61l-41 115h-31v-239h37v117l42 -117h30v239h-37v-115zM1098 42h40v-105h40v239h-40v-99h-40v99h-40v-239h40v105zM1595 176l-44 -239h40l9 56h26l8 -56h40l-42 239h-37zM1239 42h38v35h-38v64h48v35h-88v-239h88v35h-48v70zM873 42h37v35
h-37v64h46v35h-87v-239h87v35h-46v70zM1008 141h37v35h-112v-35h36v-204h39v204zM1727 176h-40v-239h88v35h-48v204zM1344 141q5 0 12.5 0.5t11.5 -4.5q3 -4 4 -11.5t1 -16t-1.5 -16t-4.5 -11.5q-5 -5 -11.5 -5h-11.5v64zM1606 29l7 47l7 -47h-14z" />
    <glyph glyph-name="colon" unicode=":" horiz-adv-x="202" 
d="M36 -4q-19 0 -31.5 12t-12.5 31q0 18 13 30.5t31 12.5t30.5 -12.5t12.5 -30.5q0 -19 -12 -31t-31 -12zM146 295q-18 0 -30.5 12t-12.5 30q0 19 12 31t31 12t31.5 -12t12.5 -31t-13 -30.5t-31 -11.5z" />
    <glyph glyph-name="semicolon" unicode=";" horiz-adv-x="220" 
d="M89 62q0 -16 -13.5 -43t-32.5 -53t-40 -45t-36 -19q-7 0 -11 5t-4 11q0 9 6.5 16t11.5 13q25 30 42 60t31 66q3 9 6.5 17t15.5 8q14 0 19 -12.5t5 -23.5zM170 295q-17 0 -30 12t-13 30t12.5 30.5t30.5 12.5q19 0 31.5 -12t12.5 -31t-13 -30.5t-31 -11.5z" />
    <glyph glyph-name="less" unicode="&#x3c;" horiz-adv-x="424" 
d="M241 75q0 -7 -5 -11.5t-12 -4.5q-14 0 -33.5 19t-37.5 44.5t-30.5 52t-12.5 41.5q0 7 1 10v4q0 5 2 9q2 5 8.5 8t11.5 5q14 6 46.5 23.5t67 37t62.5 34.5t34 15q7 0 12 -5.5t5 -12.5q0 -15 -23 -34t-55 -37t-67.5 -32.5t-59.5 -21.5q7 -11 15 -24.5t14.5 -26t12.5 -23.5
t9 -16q2 -4 8 -11.5t12 -16t10.5 -16t4.5 -10.5z" />
    <glyph glyph-name="equal" unicode="=" horiz-adv-x="556" 
d="M415 309q7 0 22.5 0.5t31.5 0t28.5 -4.5t12.5 -13q0 -11 -7.5 -14.5t-17.5 -4.5q-78 -8 -158 -15.5t-158 -7.5h-17t-21.5 2t-18.5 7t-8 14q0 10 20.5 17t51.5 11t68.5 5.5t72 2t61.5 0.5h37zM343 199q7 0 22.5 0.5t31.5 -0.5t28.5 -4.5t12.5 -12.5q0 -12 -6.5 -15.5
t-17.5 -4.5q-77 -8 -155.5 -15t-156.5 -7h-18t-23 2t-19.5 6.5t-8.5 13.5q0 12 11 17q10 4 32 7.5t51 5.5t61.5 3.5t62.5 2t54.5 1t37.5 0.5z" />
    <glyph glyph-name="greater" unicode="&#x3e;" horiz-adv-x="418" 
d="M170 348q0 8 5.5 12t13.5 4q17 0 37 -13t37 -32t28.5 -40.5t11.5 -38.5q0 -4 -2 -10q1 -1 1 -4q0 -10 -8 -16t-25.5 -19.5t-40 -30.5t-47.5 -34.5t-47.5 -32t-39.5 -24t-23 -9.5q-8 0 -13 5.5t-5 13.5q0 10 23.5 31t56.5 44.5t68 45.5t59 33q-7 9 -14 20t-13.5 21.5
t-12.5 19.5t-10 14q-3 4 -10 9t-13.5 10.5t-11.5 10.5t-5 10z" />
    <glyph glyph-name="question" unicode="?" horiz-adv-x="422" 
d="M157 461q0 31 13 63t35.5 58t51.5 42.5t62 16.5q28 0 50.5 -12.5t38 -32.5t23.5 -45.5t8 -51.5q0 -42 -14 -71.5t-36.5 -51t-51.5 -38.5t-59 -32.5t-59 -32.5t-51 -40q-4 -4 -9.5 -11t-11.5 -14t-12 -12t-11 -5q-7 0 -12 4.5t-5 11.5q0 5 1.5 9t3.5 8q15 38 41 61.5
t57 39.5t62.5 28.5t57.5 30t42.5 43.5t16.5 68q0 18 -5.5 36.5t-16 32.5t-26 23t-35.5 9q-22 0 -40.5 -9.5t-32 -25t-21 -35t-7.5 -40.5q0 -19 5.5 -37t5.5 -36q0 -8 -5.5 -13t-13.5 -5q-11 0 -18.5 7t-12.5 17.5t-7 21.5t-2 20zM65 -4q-19 0 -31 12t-12 31q0 18 12.5 30.5
t30.5 12.5t30.5 -12.5t12.5 -30.5q0 -19 -12 -31t-31 -12z" />
    <glyph glyph-name="at" unicode="@" horiz-adv-x="787" 
d="M715 397q0 45 -15.5 78.5t-42 55t-62.5 32.5t-78 11q-62 0 -124.5 -23.5t-120.5 -63.5t-108.5 -94t-87.5 -114.5t-58.5 -125t-21.5 -126.5q0 -42 12.5 -78.5t36.5 -63.5t58.5 -42.5t79.5 -15.5q40 0 78 13.5t67.5 30t48.5 30t22 13.5q6 0 11.5 -4.5t5.5 -10.5
q0 -9 -8 -17t-14 -13q-45 -40 -101.5 -65.5t-117.5 -25.5q-51 0 -92.5 18t-71 50t-45.5 75t-16 93q0 66 23.5 135.5t64 135.5t95.5 124.5t118.5 103t132 70t135.5 25.5q48 0 90 -13.5t73 -39.5t49 -65.5t18 -90.5q0 -11 -4.5 -37.5t-12 -57.5t-17.5 -60t-21 -43
q-2 -5 -7 -12t-7 -10q-15 -23 -38.5 -53.5t-52 -57.5t-60 -46t-61.5 -19q-35 0 -51.5 24t-16.5 56q0 15 3 32q-20 -22 -41.5 -41.5t-43 -34.5t-43 -23.5t-42.5 -8.5q-40 0 -61.5 26.5t-21.5 63.5q0 32 13.5 66t36 67t52 63t62 52.5t66 35.5t63.5 13q8 0 21 -2t27 -6
t26 -10.5t18 -15.5l4 4q0 1 1 2v-1q12 10 19 10q5 0 9 -5t4 -10q0 -2 -4 -12h1l-5 -7l-22 -38q-15 -26 -31.5 -56.5t-30 -60.5t-22 -58t-8.5 -47q0 -8 2 -15t8 -12l-1 1q10 -7 24 -7q26 0 52 18.5t49.5 44.5t43 52.5t32.5 43.5v1q0 4 8.5 23.5t19 46.5t19 58.5t8.5 60.5z
M441 342q-26 0 -53.5 -10.5t-54.5 -28t-51 -40.5t-42.5 -49.5t-29 -54t-10.5 -53.5q0 -11 2 -22.5t11 -19.5q11 -11 30 -11q24 0 50 13.5t52 36t51 51.5t48 60q14 29 30 58.5t33 52.5q-17 3 -32.5 10t-33.5 7z" />
    <glyph glyph-name="A" unicode="A" horiz-adv-x="1053" 
d="M253 223q-17 0 -34 7t-35 7q-28 0 -52.5 -11.5t-43 -31t-29.5 -45t-11 -52.5q0 -32 12.5 -56.5t33 -41.5t47.5 -26t57 -9q41 0 88 15.5t96 42t98 60.5t95 70q-23 15 -37 34t-14 44q0 15 7 26t17.5 18.5t24 11.5t26.5 4q25 0 49 -9t44 -23l4 -3l63 62q36 37 69 76t66.5 78
t67.5 76.5t72 72.5q18 17 41 31.5t49 14.5q32 0 32 -30q0 -1 -8 -12.5t-17.5 -26t-18.5 -27.5t-11 -17q-60 -103 -110.5 -211.5t-98.5 -218.5q26 2 51 5.5t51 8.5q2 0 6.5 1t9.5 2t9 2t5 1q19 0 19 -17q0 -9 -17.5 -15.5t-43 -11t-54.5 -7.5t-51 -4l-48 -108q-3 -7 -7 -17.5
t-9.5 -20.5t-12.5 -17.5t-16 -7.5q-24 0 -24 26q0 19 3.5 37.5t3.5 38.5q0 33 -17 76q-32 5 -67 13.5t-66 21.5q-45 -37 -98 -75.5t-108 -69.5t-109.5 -51t-102.5 -20q-39 0 -74.5 11t-62.5 33t-43 54t-16 73q0 38 14 74.5t38.5 65t58.5 46t73 17.5q9 0 24.5 -2t30.5 -6.5
t26 -13t11 -20.5q0 -11 -8 -17t-18 -6zM837 121h2q25 55 54.5 118t59 124.5t58 117.5t51.5 98q-21 -19 -45.5 -44t-46.5 -49t-39.5 -44.5t-25.5 -29.5q-43 -48 -86.5 -95t-90.5 -91q38 -44 56 -103q14 -1 27.5 -1.5t25.5 -0.5zM659 221q-16 12 -32.5 19t-33.5 7
q-16 0 -28 -9q-4 -8 -4 -12q0 -10 6.5 -18.5t13.5 -14.5q5 -5 11 -9t12 -9q14 12 28 23.5t27 22.5zM690 192q-20 -19 -44 -38q20 -8 42 -14t45 -10q-9 17 -19.5 32.5t-23.5 29.5zM793 89q3 -12 5 -24t4 -25l22 47z" />
    <glyph glyph-name="B" unicode="B" horiz-adv-x="833" 
d="M114 -84q-29 0 -50.5 13t-35 34t-20 46.5t-6.5 50.5q0 45 11.5 91t31 90t44 85t51.5 76q44 58 99 107t118 83.5t133 54t145 19.5q38 0 77.5 -8t71.5 -27t52 -50t20 -77q0 -36 -15.5 -70t-41.5 -64t-60 -54t-70 -40q25 -20 40 -49t15 -64q0 -47 -25.5 -90.5t-65.5 -77
t-88.5 -53.5t-93.5 -20q-16 0 -32 4.5t-28.5 14t-20.5 23t-8 31.5q0 12 5.5 25.5t20.5 13.5q9 0 13 -8.5t0 -16.5q13 -26 29 -33.5t44 -7.5q38 0 74 15t64.5 40.5t45.5 60.5t17 74q0 54 -43 84h1l-27 13q-11 -2 -22 -3t-22 -1q-13 0 -24 6.5t-11 21.5q0 18 16 24.5t30 6.5
q31 0 58 -12q33 10 65 30t57 46.5t40.5 58.5t15.5 65q0 36 -17.5 59t-44 36t-58.5 18t-60 5q-101 0 -194 -38.5t-169 -104t-130 -152t-75 -182.5q-4 -17 -6.5 -35t-2.5 -36q0 -19 3 -37t11 -32t22 -23t36 -10q37 -1 72.5 25t70 69t68 99t66 114t64 114t62.5 99.5t60.5 70.5
t58.5 27q2 0 5.5 -1t5.5 -2q7 -6 7 -15q0 -3 -13 -18t-29.5 -33t-32 -34.5t-20.5 -22.5q-44 -56 -83 -123t-79.5 -134.5t-84.5 -129.5t-96 -108q-25 -22 -52 -34.5t-60 -12.5zM560 291q1 -1 2 -1q-1 1 -2 1z" />
    <glyph glyph-name="C" unicode="C" horiz-adv-x="640" 
d="M463 455q-16 0 -30 -10t-24 -24.5t-15.5 -31t-5.5 -30.5q0 -30 17.5 -38.5t43.5 -8.5q37 0 72 20t62 50.5t43.5 68.5t16.5 74q0 27 -10.5 45t-27.5 28t-39 14t-45 4q-57 0 -113.5 -18.5t-109 -50.5t-97.5 -76.5t-78.5 -95.5t-52.5 -107.5t-19 -113.5q0 -44 14.5 -78.5
t41 -59.5t62.5 -38t79 -13q37 0 73 12t67.5 33t56.5 49.5t42 61.5q6 12 11 25.5t16 21.5q4 3 11 3q12 0 16 -9.5t4 -19.5q0 -29 -17 -57t-45 -52.5t-63 -45.5t-71 -35.5t-70 -23t-59 -8.5q-48 0 -87.5 17.5t-68.5 48t-45 71.5t-16 88q0 61 21 124t57.5 121t86 108.5
t106.5 88t119.5 59t124.5 21.5q32 0 62.5 -6.5t54.5 -22t39 -40.5t15 -62q0 -44 -23 -91.5t-59 -88t-81 -66.5t-90 -26q-40 0 -68.5 21t-28.5 64q0 25 10.5 50t28.5 44.5t41.5 32t49.5 12.5q11 0 15 -4.5t4 -15.5q0 -10 -9.5 -11.5t-15.5 -1.5z" />
    <glyph glyph-name="D" unicode="D" horiz-adv-x="826" 
d="M113 -86q-29 0 -49.5 12t-34 31t-20 43.5t-6.5 50.5q0 65 23.5 135.5t65 139t97.5 129.5t120.5 107.5t135 74t139.5 27.5q109 0 166.5 -58.5t57.5 -167.5q0 -51 -12.5 -100.5t-35.5 -95.5q-16 -32 -39.5 -68.5t-53 -73.5t-64 -71t-72 -60t-76.5 -42t-78 -16
q-9 0 -25.5 2.5t-32.5 8.5t-27.5 15t-11.5 22q0 11 6 14.5t15 3.5q19 0 36 -8t37 -8q49 0 97 21.5t91.5 57t80.5 82.5t64 98t42 103.5t15 98.5q0 88 -42.5 140t-134.5 52q-65 0 -130 -24t-124 -65.5t-110 -97t-88.5 -118t-59 -129t-21.5 -129.5q0 -18 3 -33.5t11 -27.5
t21.5 -19t33.5 -7q29 0 60 25t62.5 66.5t63 94.5t62 108t60 108.5t56 95t50 67.5t43.5 27l8 7h5q5 0 10 -4t5 -10q0 -7 -10.5 -22.5t-24.5 -33.5t-27 -34.5t-19 -24.5q-64 -94 -120.5 -192t-121.5 -192q-21 -31 -44.5 -60.5t-54.5 -51.5q-16 -11 -34.5 -17.5t-38.5 -6.5z
" />
    <glyph glyph-name="E" unicode="E" horiz-adv-x="687" 
d="M651 553q0 19 -11 31t-27.5 18.5t-35 8.5t-33.5 2q-19 0 -45 -4.5t-50 -15t-40.5 -27t-16.5 -41.5q0 -18 9 -33t23 -26q8 0 16.5 0.5t16.5 0.5q10 0 21 -1t21.5 -4t18 -10t9.5 -19q-5 -30 -33 -30q-27 0 -52 12q-59 -2 -116 -16.5t-107.5 -43t-90 -71t-62.5 -99.5
q-6 -15 -11 -36t-5 -38q0 -40 19 -68.5t48 -47t65 -27t70 -8.5q48 0 106 19.5t107.5 53.5t83 79.5t33.5 98.5q0 22 -9 38.5t-23.5 28t-33.5 17t-39 5.5q-26 0 -54 -11t-51.5 -30t-38.5 -44t-15 -53q0 -13 4 -20.5t9.5 -12.5t9.5 -8.5t4 -8.5q0 -6 -3.5 -12.5t-11.5 -6.5
q-11 0 -19 7t-13 17.5t-8 22t-3 20.5q0 37 18.5 70.5t48 59.5t65.5 41.5t71 15.5q27 0 52 -9.5t44.5 -26t31.5 -40.5t12 -52q0 -29 -12 -58t-31 -55t-42 -49t-44 -41q-56 -45 -124 -73t-141 -28q-42 0 -83.5 11.5t-75 34.5t-54 58t-20.5 83q0 47 18.5 90t44.5 81
q55 81 138 127.5t177 60.5q-14 17 -22 35.5t-8 38.5q0 34 21.5 58.5t52 40t65.5 22.5t62 7q22 0 47 -4.5t46 -15.5t35 -29.5t14 -45.5q0 -6 -1.5 -15t-5 -17.5t-9 -14.5t-12.5 -6q-8 0 -11.5 4t-4 10t0 12.5t0.5 11.5z" />
    <glyph glyph-name="F" unicode="F" horiz-adv-x="725" 
d="M490 300q8 0 14.5 -0.5t14.5 -0.5q36 73 69.5 141.5t68.5 116.5q-36 6 -75.5 16.5t-81 20t-84 17t-84.5 7.5t-91.5 -12.5t-92 -37.5t-71 -62.5t-28.5 -87.5q0 -31 11 -53.5t30 -37.5t44 -22.5t53 -7.5q27 0 58.5 7t60 21.5t48.5 36.5t23 53q-2 27 -20 47t-47 20
q-21 0 -37.5 -10.5t-29 -22.5t-21 -22.5t-13.5 -10.5q-8 0 -13 4.5t-5 12.5q0 19 12.5 37t31 32t39.5 22.5t38 8.5q45 0 75 -29.5t30 -74.5q0 -42 -25 -75t-62 -56.5t-79.5 -35.5t-78.5 -12t-67 11t-53.5 32t-35.5 51t-13 67q0 61 31.5 108t79.5 79t105.5 48.5t110.5 16.5
q81 0 159 -16t156 -33q13 -3 27 -6t28 -5q30 25 61 25q11 0 23 -6t12 -20q0 -15 -7.5 -24.5t-19 -15.5t-25 -8.5t-25.5 -2.5h-6q-17 -18 -34 -45t-35.5 -60.5t-38 -72t-40.5 -78.5q25 -3 51 -3q16 0 31 5t29 5q8 0 12.5 -5.5t4.5 -12.5q0 -12 -12 -15q-3 -1 -15.5 -3
t-32 -4.5t-43.5 -5t-48 -4.5q-34 -62 -72.5 -121.5t-84 -106t-98 -75t-113.5 -28.5q-18 0 -39.5 5t-39.5 15t-30.5 26t-12.5 38q0 9 4.5 19t15.5 10q7 0 13 -5t4 -13q4 -14 17.5 -23.5t30.5 -15t35 -8t30 -2.5q48 0 89 23t76.5 62t66.5 89.5t59 105.5q-29 -3 -49.5 -4.5
t-25.5 -1.5q-8 0 -12.5 5.5t-4.5 12.5q0 12 10.5 20t25 12.5t29.5 6.5t24 2zM748 608v2l-2 -3q1 0 1 0.5t1 0.5z" />
    <glyph glyph-name="G" unicode="G" 
d="M224 489q0 -25 12 -41.5t30.5 -26.5t41.5 -15t44 -6q12 31 36 62.5t55 61t66.5 55t71.5 45t69.5 30.5t60.5 11q14 0 28 -3.5t25.5 -11t18.5 -19t7 -27.5q0 -30 -27.5 -62.5t-65.5 -62t-78 -52.5t-65 -34q-39 -17 -80.5 -29t-84.5 -15q1 -19 11 -31t24 -18.5t31.5 -8.5
t34.5 -2q38 0 80 8t79 28q20 30 37 48.5t35 18.5q13 0 22 -9t9 -23t-16 -28t-42 -27l-7 -10.5l-5 -7.5q-46 -65 -97 -131t-112 -119t-133.5 -86.5t-161.5 -33.5q-28 0 -59 6t-56.5 20.5t-42.5 37.5t-17 58q0 8 3 16t14 8q7 0 11.5 -6t8 -14.5t7 -17.5t8.5 -14
q12 -14 28.5 -22.5t35 -13.5t38 -7t36.5 -2q87 0 153 30.5t116.5 76.5t88 100t66.5 101q-45 -14 -86.5 -22.5t-59.5 -8.5q-26 0 -49.5 5.5t-41.5 18t-28.5 32.5t-10.5 49v2q-29 2 -58 10.5t-53 24t-39 39.5t-15 57q0 15 6 34t17 35t25.5 27t32.5 11q8 0 13.5 -5t5.5 -13
q0 -7 -8 -12.5t-18 -13.5t-18 -21t-8 -34zM723 561q2 3 5.5 9.5t6.5 13.5t4 13.5t-1 10.5l2 -1q-5 5 -11 6t-13 1q-33 0 -80 -19.5t-94 -50t-86.5 -69t-56.5 -76.5q44 2 90.5 14t90 32.5t81 49.5t62.5 66z" />
    <glyph glyph-name="H" unicode="H" horiz-adv-x="954" 
d="M746 84h1q-3 -12 -5 -24t-2 -24q0 -36 19 -57t57 -21q37 0 63.5 16t44 34.5t28 34.5t16.5 16q7 0 12 -4.5t5 -11.5q0 -11 -7 -19.5t-13 -16.5q-15 -19 -34.5 -35.5t-42 -28.5t-46.5 -19t-48 -7q-50 0 -77 32.5t-27 80.5q0 41 20.5 100.5t55.5 126.5q-32 2 -62.5 4.5
t-62.5 2.5h-13q-39 -71 -95.5 -134t-123.5 -110t-140 -75t-143 -28q-12 0 -32.5 3t-41 10t-35.5 18.5t-15 27.5q0 7 5 11.5t12 4.5q9 0 23 -4t31 -8.5t35.5 -8.5t36.5 -4q65 0 128.5 23t120.5 62.5t104.5 92.5t80.5 113q-23 -3 -45 -3q-9 0 -17 3.5t-8 14.5q0 12 11 19.5
t26.5 12t32 7t27.5 2.5q17 42 26.5 84.5t9.5 85.5q0 54 -25.5 89.5t-83.5 37.5q-48 0 -103 -20t-101.5 -54.5t-77 -81t-30.5 -99.5q0 -18 3.5 -29.5t10 -20t16.5 -15.5t23 -16l-1 1q19 -9 42 -9q28 0 55 14.5t48 37.5t33.5 51.5t12.5 56.5q0 10 -3.5 19t-3.5 19q0 7 5 11.5
t12 4.5q8 0 12.5 -7t6.5 -16.5t2.5 -19t0.5 -15.5q0 -36 -14.5 -72.5t-39.5 -66t-59 -48t-72 -18.5q-29 0 -54.5 9.5t-44 26.5t-29.5 41.5t-11 54.5q0 59 35 115t88 99.5t115 70t117 26.5q83 0 123.5 -48.5t40.5 -127.5q0 -43 -10.5 -86.5t-28.5 -86.5q34 -3 67.5 -9
t67.5 -9q38 67 85 132.5t97.5 117t100.5 83t93 31.5q11 0 23.5 -2.5t12.5 -16.5q0 -9 -10 -16q-26 -16 -56.5 -26t-59.5 -30q-63 -44 -124.5 -117t-110.5 -156q8 2 17 4t18 2q7 0 12 -4.5t5 -11.5q0 -8 -8 -13t-19 -8t-23.5 -4.5t-22.5 -1.5q-25 -45 -43 -89t-28 -84z" />
    <glyph glyph-name="I" unicode="I" horiz-adv-x="535" 
d="M29 -29q15 0 30 -3t31 -3q39 0 71 15.5t59 41t48.5 58.5t39.5 68h-8q-33 0 -64.5 9t-55.5 27t-39 45.5t-15 64.5q0 63 35.5 122t88.5 106.5t116 81t117 46.5q26 6 52 8.5t52 2.5q7 0 20 -1.5t26.5 -5.5t23.5 -10.5t10 -15.5q0 -8 -7 -12t-15 -2l-10 -3l-7 -3
q-33 -14 -63.5 -55.5t-61 -99.5t-62 -125.5t-65.5 -133.5q27 7 53 19t38 30q5 7 8 15t14 8q7 0 12 -4.5t5 -12.5q0 -18 -14.5 -32.5t-36.5 -26.5t-49 -21t-51 -14q-27 -50 -57.5 -93.5t-64.5 -76t-72.5 -51.5t-81.5 -19q-7 0 -20 2t-25.5 6.5t-21.5 11t-9 16.5q0 12 7.5 16
t18.5 4zM366 283q15 37 33.5 78.5t40 81.5t46.5 77t53 67q5 5 10.5 11t11.5 11q-38 -3 -81.5 -15t-86.5 -32.5t-82.5 -47.5t-70 -60t-48.5 -71t-18 -80q0 -26 9 -43t27 -35h-1q24 -19 53.5 -28t60.5 -9h4q11 25 21 49t18 46z" />
    <glyph glyph-name="J" unicode="J" horiz-adv-x="696" 
d="M472 -5q-22 0 -45 5q-33 -51 -69 -95t-75 -76t-81 -50.5t-88 -18.5q-11 0 -29.5 3t-37 9.5t-32 16.5t-13.5 24q0 8 5 12t12 4q26 0 53 -10t56 -10q31 0 59 9.5t53.5 25t48 36t41.5 43.5v-1q14 17 29.5 39t30.5 49q-55 22 -87 70.5t-32 116.5q0 52 19 106.5t52.5 106.5
t78 98t95 81t105 55t106.5 20q6 0 19 -1t26.5 -4t24 -8.5t10.5 -14.5q0 -6 -4 -10q-4 -5 -9.5 -7.5t-10.5 -4.5q-23 -12 -41 -36.5t-32 -45.5q-26 -42 -55 -100.5t-61.5 -125t-68 -136.5t-75.5 -135q22 -5 41 -5q29 0 56.5 13t38.5 41q2 5 5.5 12t10.5 7q8 0 14 -4.5
t6 -12.5q0 -4 -2 -8q-8 -22 -24 -38t-36.5 -26t-43.5 -14.5t-44 -4.5zM728 619q-47 -5 -95.5 -25t-94 -50.5t-85.5 -69.5t-70 -83t-47.5 -91t-17.5 -93q0 -50 26 -92t68 -65q37 69 75.5 152.5t78 164t80.5 148t82 104.5z" />
    <glyph glyph-name="K" unicode="K" horiz-adv-x="785" 
d="M1052 614q-32 0 -68.5 -19t-75.5 -49.5t-80 -69t-83 -78t-84 -77t-83 -64.5q17 -26 27 -60q5 -19 13.5 -49t20 -63.5t26.5 -68t33 -62t39 -45t45 -17.5q18 0 35 7.5t33 7.5q8 0 13 -5t5 -13q0 -9 -11.5 -17t-27 -14t-31 -9.5t-22.5 -3.5q-34 0 -60 17t-46.5 44.5
t-35.5 62.5t-25.5 71t-18.5 70t-14 59q-5 17 -10.5 36t-15.5 34q-17 -9 -33 -16t-32 -11q-31 -59 -71.5 -112.5t-88 -94.5t-100 -65t-108.5 -24q-13 0 -32.5 4t-38 12.5t-31.5 21t-13 29.5q0 6 4 11.5t11 5.5q4 0 15.5 -5.5t26.5 -11.5t33.5 -11.5t38.5 -5.5q49 0 93.5 19
t84 52t72.5 76.5t59 92.5q-19 1 -35.5 10t-16.5 32q0 16 10 28t24.5 20t31 12.5t29.5 4.5h3q17 48 26 94.5t9 87.5q0 52 -22 85.5t-79 33.5t-110.5 -27t-95.5 -70.5t-67 -98.5t-25 -111q0 -17 2.5 -33.5t9.5 -30.5t20 -22.5t33 -8.5t38.5 8.5t33.5 22.5t25.5 32t14.5 37
q3 14 1.5 26.5t-1.5 26.5q0 19 17 19q7 0 11 -4t5 -10t1 -12.5v-11.5q0 -31 -12 -63t-33 -58t-50 -42.5t-63 -16.5q-27 0 -46.5 11.5t-32 30.5t-18.5 42.5t-6 47.5q0 63 30 128.5t78.5 118.5t111 86.5t128.5 33.5q39 0 67 -12.5t46 -34.5t27 -53t9 -67q0 -43 -11 -92.5
t-31 -101.5q13 -7 23 -15q42 24 85.5 61.5t86.5 79t85.5 83.5t84 76t81 55t76.5 21q6 0 16 -2t19 -6t15.5 -10t6.5 -14q0 -11 -6 -15.5t-14.5 -5.5t-17.5 0.5t-16 1.5zM452 257q3 0 6.5 0.5t7.5 0.5l3 8q-10 -3 -17 -9z" />
    <glyph glyph-name="L" unicode="L" 
d="M142 37q2 0 4 -0.5t4 -0.5q2 2 4.5 2t4.5 2q12 6 23.5 19.5t21.5 29.5t18 32.5t14 28.5q22 45 44.5 101t48.5 113.5t57 111.5t70.5 96.5t89 68t111.5 25.5q34 0 64.5 -10.5t54 -30.5t37 -48.5t13.5 -64.5q0 -37 -19 -80.5t-50 -80.5t-70 -61.5t-79 -24.5q-30 0 -56 18
t-26 51q0 7 2.5 17t7 19t11 15.5t14.5 6.5q6 0 12 -4t6 -10q0 -9 -3 -17t-3 -17q0 -17 13 -23.5t28 -6.5q31 0 61.5 17.5t55 44.5t39.5 60t15 63q0 27 -11 48.5t-29 36.5t-41.5 23t-49.5 8q-63 0 -113 -35t-91 -90t-74.5 -122.5t-62.5 -132.5t-55.5 -120t-54.5 -85
q50 -11 101 -32.5t100 -43t95 -38t88 -16.5q16 0 30 6t28 6q8 0 12 -6t4 -13q0 -10 -12 -17.5t-27.5 -12.5t-31 -7.5t-22.5 -2.5q-53 0 -104.5 21.5t-103 48t-103.5 50.5t-105 29h-3q-5 0 -9.5 0.5t-9.5 0.5q-23 0 -41.5 -6t-33 -13.5t-23.5 -13.5t-13 -6q-7 0 -11.5 5
t-4.5 12q0 14 18 24.5t41.5 17.5t46.5 10.5t33 3.5z" />
    <glyph glyph-name="M" unicode="M" horiz-adv-x="965" 
d="M120 -32q58 0 116 34t113 88.5t103.5 123.5t87.5 138.5t65 134t36 110.5q2 8 2.5 20t2.5 23v1q2 11 7.5 18.5t17.5 7.5q14 0 20 -9.5t6 -20.5q0 -33 -3 -64q-6 -81 -20 -161.5t-34 -159.5q-3 -12 -9 -34t-14 -49q45 66 90 134t95.5 131.5t108 118.5t127.5 96
q10 5 21.5 11.5t22.5 6.5q9 0 16 -7t7 -17q0 -5 -10.5 -18t-24 -28t-26.5 -28.5t-18 -19.5q-35 -43 -75 -107.5t-73.5 -136t-55.5 -141.5t-22 -125q0 -17 3 -34.5t16 -29.5q6 -6 15.5 -9.5t18.5 -6.5t15.5 -7.5t6.5 -11.5q0 -11 -9 -15t-19 -4q-26 0 -44.5 10t-30.5 27
t-17.5 39t-5.5 45q0 56 21 123.5t54.5 137t75.5 137.5t84 125q-56 -37 -104 -88t-90.5 -108t-79.5 -117t-70 -114q-22 -36 -43.5 -72t-47.5 -70q-14 -23 -28 -38t-28 -15q-10 0 -17 7t-7 17q0 7 14.5 25.5t30.5 37.5q15 26 29.5 61.5t26 71t20 67t13.5 50.5q11 45 19.5 90.5
t14.5 92.5q-28 -61 -63.5 -124t-74.5 -120.5t-77.5 -106.5t-72.5 -81q-23 -22 -49.5 -42.5t-55.5 -36.5t-60.5 -25.5t-64.5 -9.5q-20 0 -41 5.5t-38 16.5t-27.5 28t-10.5 41q0 8 5.5 13.5t13.5 5.5q7 0 12.5 -9t15 -20.5t26 -20.5t45.5 -9z" />
    <glyph glyph-name="N" unicode="N" horiz-adv-x="809" 
d="M93 -36q50 0 96.5 28t87.5 73.5t75.5 103t61 117t44 116t23.5 98.5q4 26 5 52t1 52q-1 10 -1 19v18q0 11 7 19t18 8q14 0 20.5 -9t6.5 -22v-4q13 -120 33 -236.5t44 -234.5q13 44 31 89t37.5 87t39.5 79.5t38 67.5q32 52 73 97.5t98 68.5q33 14 67 14q26 0 52 -10
t46.5 -27t33 -41t12.5 -52q0 -6 -4.5 -12t-11.5 -6t-16 15.5t-23.5 33.5t-36 33.5t-53.5 15.5q-40 0 -81 -27.5t-79.5 -72.5t-73 -102.5t-61.5 -117t-45.5 -116t-24.5 -100.5l6 -27q5 -25 12 -52t7 -52q0 -12 -8 -21.5t-21 -9.5q-14 0 -22.5 10t-13 23.5t-5.5 28.5t-1 26v17
t2 18l-14 56q-17 71 -35.5 155.5t-32.5 169.5q-13 -43 -35.5 -97t-53.5 -110t-69 -110t-80 -96.5t-88 -68t-93 -25.5q-13 0 -28 4t-27.5 12.5t-21 20.5t-8.5 27q0 8 5 13.5t13 5.5t13 -6q13 -14 26 -20.5t33 -6.5z" />
    <glyph glyph-name="O" unicode="O" 
d="M743 339q7 7 13 20.5t11.5 26.5t10 23t7.5 10q21 0 21 -19q0 -29 -15.5 -54.5t-41 -46.5t-57 -37.5t-62.5 -26.5q-39 -63 -89.5 -120.5t-107.5 -101t-117.5 -69t-120.5 -25.5q-92 0 -142.5 53.5t-50.5 144.5q0 51 19 111t52 121t78 117t96.5 100t107 70t110.5 26
q6 0 14.5 -0.5t16.5 -3t13.5 -7t5.5 -12.5q0 -1 -0.5 -1.5t-0.5 -1.5q20 11 42 17.5t46 6.5q32 0 54.5 -12.5t37 -33.5t21.5 -47.5t7 -54.5q0 -53 -17.5 -111.5t-48.5 -117.5q25 9 47 22.5t40 33.5zM51 123q0 -12 2 -27.5t5.5 -31t10 -29t15.5 -22.5v1q24 -24 54.5 -35
t63.5 -11q54 0 107.5 20t102 54.5t91.5 81t76 99.5q-20 -3 -35 -3q-80 0 -124 47.5t-44 125.5q0 29 8 60t22 60.5t34.5 56t45.5 46.5q-12 -3 -23.5 -4t-18.5 -3q-57 -13 -103 -39.5t-89 -64.5q-39 -35 -75.5 -78.5t-64.5 -93t-44.5 -102.5t-16.5 -108zM673 506
q0 19 -3.5 38.5t-12.5 34.5t-24.5 24.5t-38.5 9.5q-37 0 -69.5 -18.5t-57 -47.5t-38.5 -65t-14 -71q0 -70 39 -107t110 -37q20 0 43 3q31 59 48.5 119.5t17.5 116.5z" />
    <glyph glyph-name="P" unicode="P" horiz-adv-x="772" 
d="M134 -83q-35 0 -59.5 12.5t-40.5 34t-23.5 50t-7.5 59.5q0 64 22 133t60.5 135t91 125t113.5 103t128 70t134 26q48 0 87.5 -14t68.5 -40t45 -64.5t16 -87.5q0 -44 -17.5 -96.5t-48 -97.5t-73 -75t-92.5 -30q-11 0 -25 4t-27 11t-21.5 17.5t-8.5 23.5q0 7 4.5 12.5
t11.5 5.5q6 0 14 -3.5t17.5 -8t21 -8t24.5 -3.5q41 0 74 22.5t56 56.5t35.5 74t12.5 76q0 78 -45 125.5t-125 47.5q-37 0 -73 -6t-71 -20q-68 -27 -133 -82t-116 -125t-82 -148.5t-31 -153.5q0 -50 22 -80.5t75 -30.5q42 0 78 24.5t67.5 65t59.5 91.5t53.5 105t49.5 105
t47.5 91.5t47 65t49.5 24.5q9 0 16.5 -3.5t7.5 -14.5t-12 -16q-10 -5 -19 -14.5t-17.5 -21t-15.5 -24t-13 -21.5q-20 -35 -45.5 -86t-56 -107.5t-66 -112.5t-74.5 -100.5t-82 -72.5t-89 -28z" />
    <glyph glyph-name="Q" unicode="Q" horiz-adv-x="699" 
d="M507 402q0 -42 -23 -82.5t-59 -73t-79.5 -52.5t-83.5 -20q-35 0 -65 10.5t-52 31t-34 49.5t-12 65q0 70 33 131t85.5 106.5t119 72t132.5 26.5q47 0 86 -14t67.5 -40t44 -64t15.5 -86q0 -68 -31.5 -138.5t-83 -135.5t-118.5 -120.5t-138 -92.5q41 -14 84.5 -28.5t86 -26
t82 -18.5t73.5 -7q10 0 19.5 2t18.5 2q6 0 13.5 -2.5t7.5 -10.5q0 -12 -10.5 -19.5t-25.5 -12t-30.5 -6t-24.5 -1.5q-42 0 -86 10t-87.5 25.5t-86 34t-82.5 35.5q-42 -18 -82.5 -28t-77.5 -10q-14 0 -31 3.5t-32.5 11t-26 19.5t-10.5 29q0 18 9 29.5t23 18t30.5 9.5t30.5 3
q27 0 52.5 -6.5t51.5 -15.5l41 -15q67 27 136.5 72t126.5 104t93 129.5t36 148.5q0 82 -46.5 122.5t-126.5 40.5q-57 0 -112.5 -21.5t-100 -59t-72 -88.5t-27.5 -111q0 -57 35.5 -87t90.5 -30q33 0 68.5 15.5t65 41t48 58.5t18.5 68q0 12 -3.5 20.5t-7 14.5t-7 10.5
t-3.5 9.5q0 7 4.5 12t11.5 5q9 0 16 -8.5t12 -20.5t7.5 -24.5t2.5 -19.5zM90 2q-5 0 -12.5 -0.5t-15 -2.5t-13.5 -5.5t-7 -9.5l4 -6q11 -8 28 -10t31 -2q21 0 42 4t42 11q-28 10 -52.5 15.5t-46.5 5.5z" />
    <glyph glyph-name="R" unicode="R" horiz-adv-x="753" 
d="M107 -82q-31 0 -51 14.5t-32 37t-16.5 50t-4.5 52.5q0 72 23 144t64 138t96.5 122.5t120.5 98t137 65.5t145 24q38 0 71 -11t57 -32.5t37.5 -52.5t13.5 -71q0 -54 -27 -110t-70.5 -101.5t-98.5 -74.5t-111 -29q-16 0 -36 7q9 -47 22.5 -91t33.5 -87q23 -52 53 -95.5
t80 -73.5q4 -3 12 -6t15 -7t12.5 -8.5t5.5 -10.5q0 -10 -7.5 -14t-16.5 -4q-39 0 -70 19.5t-55.5 50.5t-43 71t-32 81.5t-23 80.5t-15.5 68l-5 23q-32 -51 -67 -99.5t-71 -86t-73 -60t-73 -22.5zM342 259q0 9 6.5 15.5t15.5 6.5q15 0 27 -10q29 54 55.5 106t52 92.5t49.5 65
t48 24.5q7 0 12 -5t5 -12q-19 -27 -35 -49q-14 -19 -26 -35.5t-15 -21.5q-20 -32 -48.5 -84t-63.5 -111q18 -8 38 -8q48 0 95 20.5t84.5 54.5t60.5 79t23 94q0 63 -38 97.5t-99 34.5q-69 0 -135.5 -20.5t-126 -57.5t-110 -87.5t-87 -110.5t-57 -126.5t-20.5 -135.5
q0 -15 2 -34t8 -35t18 -27t32 -11q36 0 70 21t65 56t60.5 80.5t56.5 95.5q-23 18 -23 38z" />
    <glyph glyph-name="S" unicode="S" horiz-adv-x="715" 
d="M233 297q-30 0 -54 -12.5t-41.5 -33.5t-27 -48t-9.5 -55q0 -29 11 -55.5t31 -48.5q40 31 83.5 62t81.5 58t68 47t43 29q32 22 64 43t64 44q7 51 15.5 100.5t23 92t39 75.5t64.5 53q15 8 31.5 13t33.5 5q36 0 57.5 -23t21.5 -58q0 -25 -9 -48t-24 -44t-33 -39t-36 -33
q-32 -26 -65 -50l-66 -48l-12 -8q-10 -66 -22.5 -131.5t-37.5 -120.5t-68 -93.5t-113 -50.5q-20 -3 -38 -3q-47 0 -90 17t-77 47l-33 -29q-6 -5 -18.5 -15.5t-26.5 -21.5t-27 -19.5t-20 -8.5q-5 0 -9.5 4.5t-4.5 9.5q0 17 30 48.5t75 68.5q-20 26 -31 58t-11 68q0 34 12 70
t34 66t53 49t69 19q18 0 35.5 -4.5t31.5 -14t22.5 -24.5t8.5 -35q0 -9 -5 -19.5t-16 -10.5q-12 0 -14.5 9t-7 20t-15.5 20t-41 9zM312 -33q36 0 73.5 15.5t60.5 43.5q21 25 36.5 55t26 62t17.5 66.5t13 69.5q-91 -66 -180.5 -132t-177.5 -137q29 -20 63.5 -31.5t67.5 -11.5z
M686 430q16 13 33 29.5t31.5 36t24 41t9.5 42.5q0 15 -7 25.5t-23 10.5q-20 0 -40 -10.5t-34 -23.5q-37 -35 -55 -93t-29 -127q45 33 90 69z" />
    <glyph glyph-name="T" unicode="T" horiz-adv-x="700" 
d="M184 452q0 25 11 45t28.5 34t40 21.5t45.5 7.5q51 0 83.5 -32t32.5 -83q0 -45 -18.5 -81.5t-49.5 -62t-71 -39.5t-82 -14q-39 0 -75 12.5t-64 35.5t-45 56t-17 75q0 62 27.5 112t72 85t101 54t114.5 19q56 0 105.5 -18t97.5 -40t96 -42.5t101 -24.5q39 28 80 28
q12 0 24.5 -5t12.5 -20q0 -12 -10 -19.5t-25 -12t-31 -6.5t-28 -2q-35 -32 -72 -90t-77 -126.5t-83 -140t-90.5 -129.5t-99.5 -95t-109 -37q-12 0 -28.5 4t-31.5 11.5t-25.5 19t-10.5 26.5q0 6 4.5 10.5t11.5 4.5q1 0 9 -4t20.5 -8.5t27.5 -8.5t30 -4q52 0 96 31t83 81.5
t74 113t69 126t68.5 121t72.5 97.5q-52 7 -98.5 26t-92.5 38t-93 34t-99 15q-45 0 -90 -13.5t-81.5 -40t-59.5 -65t-23 -88.5q0 -38 16 -66.5t42.5 -47t59.5 -28t67 -9.5q31 0 59.5 10t50.5 28t35.5 44t13.5 59q0 35 -20.5 56t-56.5 21q-27 0 -45 -12t-30 -26t-19.5 -26
t-14.5 -12q-17 0 -17 17z" />
    <glyph glyph-name="U" unicode="U" horiz-adv-x="877" 
d="M337 418q0 -39 -17.5 -81t-47 -76.5t-68 -57t-79.5 -22.5q-31 0 -54 11t-38.5 30t-23 44t-7.5 54q0 64 25.5 125.5t69 110t102 78t123.5 29.5q46 0 81 -15t59 -41.5t36 -63.5t12 -81q0 -50 -14 -99t-35 -94.5t-46 -87.5t-46 -76.5t-35 -61t-14 -42.5q0 -21 14 -28.5
t31 -7.5q39 0 80.5 22.5t83 59t80.5 82t72 90.5q15 33 39 81.5t49 97.5t48 89.5t36 58.5q6 8 15 15t20 7q12 0 20 -8t8 -20q0 -17 -11.5 -44t-31 -61t-46 -73t-56.5 -79q-19 -38 -37 -76t-31.5 -73.5t-22 -66.5t-8.5 -55q0 -20 5 -30t11.5 -16t11.5 -11t5 -13q0 -7 -6 -10.5
t-12 -3.5q-16 0 -28 10t-20.5 24t-12.5 30.5t-4 29.5q0 22 5 46.5t13 49.5q-43 -51 -78.5 -88.5t-55.5 -54.5q-30 -24 -66 -41.5t-76 -17.5q-38 0 -66.5 21.5t-28.5 63.5q0 23 14 51t35.5 60.5t46 70t46 80t35.5 90.5t14 101q0 78 -38.5 120.5t-117.5 42.5
q-56 0 -102.5 -23.5t-80 -62.5t-52.5 -89.5t-19 -103.5q0 -21 4 -41t14 -36.5t26.5 -26.5t40.5 -10q35 0 63.5 16.5t48.5 42.5t30.5 58.5t10.5 64.5q0 26 -10 48.5t-10 40.5q0 8 5 13t13 5q15 0 24.5 -11t15.5 -26t8.5 -31.5t2.5 -26.5z" />
    <glyph glyph-name="V" unicode="V" horiz-adv-x="753" 
d="M308 402q0 -34 -17.5 -67.5t-45.5 -60.5t-62.5 -43.5t-68.5 -16.5q-26 0 -47 10.5t-35.5 28t-22 40.5t-7.5 48q0 54 23.5 106t62.5 93.5t90 67t105 25.5q44 0 75.5 -14t52 -38.5t30.5 -59t10 -75.5q0 -56 -17.5 -117.5t-45.5 -122.5t-63.5 -119t-71.5 -107q31 15 60 35
t57 40q33 25 76.5 62.5t89 83.5t89.5 98t79 105t56 104.5t21 97.5q0 17 -6 32l-4 9l-4 5h1q-2 2 -3.5 4.5t-2.5 5.5q-4 -4 -11 -4t-12.5 4.5t-5.5 11.5q0 13 12 19.5t23 6.5q16 0 28.5 -9.5t20 -24t11.5 -31t4 -30.5q0 -52 -28.5 -115t-74.5 -129t-105 -131.5t-119.5 -122.5
t-118 -101t-101.5 -67q-7 -4 -17 -9t-20.5 -9.5t-21 -7.5t-17.5 -3q-6 0 -12 2q-8 -2 -14.5 3t-6.5 14q0 1 1 4t2 5q1 3 7.5 11t14.5 18t16 19t11 14q33 48 64.5 101.5t56 110.5t39 116.5t14.5 118.5q0 54 -21 89t-77 46l1 -1q-15 3 -31 3q-45 0 -85.5 -20t-70.5 -53
t-48 -75t-18 -86q0 -20 6 -40t23 -34l-2 2q27 -19 57 -19q29 0 51.5 13.5t38 35t23.5 48t8 52.5q0 14 -3.5 28t-3.5 28q0 8 5 13t13 5t13 -6q27 -31 27 -74z" />
    <glyph glyph-name="W" unicode="W" horiz-adv-x="1044" 
d="M353 423q0 -40 -21.5 -84.5t-56 -82t-76.5 -62.5t-83 -25q-27 0 -48.5 10.5t-35.5 28.5t-21.5 41.5t-7.5 49.5q0 37 13.5 76t37.5 76t55.5 70t68 57.5t75 39t76.5 14.5q44 0 75.5 -13t51 -37t28.5 -58t9 -75q0 -43 -10 -90.5t-27.5 -96.5t-40.5 -98t-49 -94
q34 33 66.5 66t64.5 68.5t63 74t62 83.5q26 38 51 79.5t39 86.5q2 6 4 16t4 19.5t5.5 18t8.5 12.5t13 4q11 0 18.5 -7.5t7.5 -18.5q0 -31 -7.5 -73.5t-20.5 -93t-30 -105t-35.5 -108t-37.5 -103.5t-35 -91q33 29 79 70t96 89.5t99 104t87.5 113.5t62.5 117t24 116
q0 14 -2 25t-10 23l-8 -2q-2 -2 -3 -2l-3 3q2 -4 2 -6q0 -8 -5.5 -12t-12.5 -4q-9 0 -14 7.5t-5 15.5q0 19 16.5 33t34.5 14q19 0 31.5 -10.5t19 -25.5t9 -33t2.5 -33q0 -55 -26.5 -117.5t-69.5 -126.5t-97.5 -127t-111 -119.5t-109.5 -104t-93 -80.5q-7 -5 -14.5 -10
t-16.5 -5q-3 -2 -6 -3.5t-7 -1.5q-7 0 -11 4.5t-4 10.5q0 3 8.5 27t20 53.5t21.5 56.5t13 35q27 80 50 159.5t40 161.5q-73 -125 -169 -236t-200 -210q-5 -5 -16.5 -15t-24 -20.5t-24 -18.5t-17.5 -8q-10 0 -13 6.5t-3 14.5q0 4 8 12.5t11 11.5q20 23 36.5 48.5t32.5 51.5
q24 40 47.5 89t41.5 100.5t29.5 104t11.5 99.5q0 22 -4 45t-14 42t-27 32t-43 16h2q-6 2 -12 2h-12q-50 0 -100.5 -24t-91 -63t-65.5 -88.5t-25 -100.5q0 -36 18 -63.5t59 -27.5q40 0 72 22.5t54.5 56t34.5 73.5t12 75q0 10 -1 20t-1 20q0 8 5.5 12.5t12.5 4.5q10 0 14 -7
q20 -31 20 -68z" />
    <glyph glyph-name="X" unicode="X" horiz-adv-x="839" 
d="M964 617q-27 0 -64.5 -28t-84 -75t-99.5 -107.5t-110 -124.5q2 -78 5.5 -147t19.5 -114q6 -18 17.5 -36t34.5 -18q22 0 37.5 13t26.5 29t18.5 29t14.5 13q8 0 12.5 -6t4.5 -14q0 -21 -10.5 -41t-27 -36t-37 -26t-40.5 -10q-32 0 -53 16.5t-33.5 43.5t-18.5 61.5
t-7.5 70.5t-0.5 70t1 61q-60 -68 -122.5 -132t-123 -113.5t-117.5 -80t-107 -30.5q-12 0 -28.5 4.5t-31.5 13t-26 20.5t-11 26q0 20 18 20q4 0 11 -5t16.5 -11.5t22.5 -11.5t29 -5q49 0 106 32.5t117 85t122 119.5t123 137q-3 63 -13 126t-38 120q-13 26 -37 39t-52 13
q-31 0 -60 -12.5t-51 -34t-35 -50t-13 -59.5q0 -15 3 -31t10.5 -29.5t20 -22t30.5 -8.5q37 0 57 26t20 60q0 8 4 14t12 6q7 0 11.5 -5t6.5 -11.5t2.5 -14t0.5 -13.5q0 -24 -9.5 -44.5t-25.5 -35.5t-37 -23.5t-44 -8.5q-26 0 -45.5 10t-32.5 26.5t-19.5 38t-6.5 45.5
q0 41 17.5 81.5t47 72t68.5 51t81 19.5q48 0 78.5 -25.5t48 -68t25.5 -97.5t11 -114q54 62 105 119t97 101t85.5 70.5t70.5 26.5q14 0 28 -6t25 -15.5t18 -23t7 -28.5q0 -2 -1 -5t-2 -5q-5 -6 -13 -6t-14 7q-4 12 -19 22t-27 10z" />
    <glyph glyph-name="Y" unicode="Y" horiz-adv-x="813" 
d="M872 509q0 -5 -8 -18.5t-18.5 -30t-20 -31t-13.5 -20.5q-85 -132 -170 -264.5t-158 -271.5q-14 -25 -26 -51t-26 -50q4 -6 4 -11q0 -7 -5 -13t-13 -6q-11 0 -17 11.5t-6 20.5q0 15 6 35t15 40t18.5 38.5t17.5 32.5q5 9 19 34t35 60.5t47 79t54 90.5q-32 -33 -66 -62.5
t-67.5 -52t-65 -36t-58.5 -13.5q-33 0 -56 18t-23 53q0 34 20 71.5t49.5 77.5t64.5 81.5t64.5 83t49.5 83t20 81.5q0 27 -12.5 44.5t-32 27.5t-43.5 14t-46 4q-29 0 -66.5 -8t-77.5 -23t-78.5 -36t-69 -48t-49 -58.5t-18.5 -67.5q0 -28 11.5 -46t34.5 -32q29 -16 60 -16
q19 0 42 9.5t43 25.5t33.5 36t13.5 40q0 11 -5 19.5t-5 19.5q0 6 6 10.5t11 4.5q10 0 18 -6t14 -14.5t9 -18.5t3 -18q0 -33 -22.5 -60.5t-55 -47t-69 -30t-64.5 -10.5q-26 0 -48 8.5t-38.5 24t-26 37t-9.5 47.5q0 42 20 81t53.5 73t77 62t89.5 48t91 31t82 11
q31 0 62.5 -7.5t56.5 -23.5t40.5 -41.5t15.5 -61.5q0 -42 -20 -86t-49.5 -87t-64.5 -85.5t-64.5 -81.5t-49.5 -74.5t-20 -65.5q0 -15 10.5 -19t22.5 -4q39 0 83 23t88.5 59.5t87 82t80.5 91.5q26 42 50 79.5t43.5 65.5t33.5 45t19 18l7 1q10 0 17.5 -8t7.5 -18z" />
    <glyph glyph-name="Z" unicode="Z" horiz-adv-x="702" 
d="M383 468q0 -34 -18 -62.5t-45.5 -49.5t-61 -32.5t-64.5 -11.5t-59 9.5t-49 27.5t-33.5 44t-12.5 59q0 53 24.5 100.5t64.5 83t89.5 56.5t100.5 21q58 0 110.5 -21.5t102.5 -47.5t99 -47.5t99 -21.5q11 0 23.5 3t24 6.5t21.5 7t16 3.5q10 5 15 5q6 0 11 -6t5 -11
q0 -8 -8 -15.5t-20 -14.5l-26 -19q-80 -62 -154.5 -131.5t-148.5 -138.5q-22 -21 -51 -49t-62 -60t-67.5 -65t-68.5 -63q38 -5 75 -14t72 -20q13 -4 35.5 -11.5t47.5 -14.5t48.5 -12.5t38.5 -5.5q16 0 25 6.5t15 14t10.5 14t11.5 6.5q18 0 18 -19q0 -17 -8.5 -30.5
t-21 -22.5t-28 -14t-30.5 -5q-35 0 -76.5 12.5t-86 28.5t-91.5 31.5t-93 22.5q-23 -20 -43.5 -35.5t-37.5 -26.5q-14 -8 -29.5 -14t-32.5 -6q-20 0 -38 11.5t-18 34.5q0 22 18 37t42.5 23.5t50.5 12t43 3.5q8 0 16 -0.5t16 -0.5q31 25 63 55.5t60.5 59t52 53t37.5 38.5
q73 75 146.5 149.5t158.5 137.5q-36 1 -69.5 12.5t-66 28t-64 35.5t-64 35t-66 26.5t-70.5 10.5q-41 0 -80.5 -16.5t-70.5 -44.5t-50 -65.5t-19 -79.5q0 -27 10 -48.5t27 -36.5t40.5 -23.5t49.5 -8.5q25 0 46.5 10t37.5 27.5t25.5 40t9.5 47.5q0 14 -6 24t-6 21q0 7 5.5 12
t13.5 5q10 0 18 -8t13.5 -19t8.5 -23t3 -20zM50 -36l1 -4v5l14 -3l2 1q14 1 33.5 10t42.5 25q-11 0 -26.5 -2t-30.5 -5.5t-25.5 -10t-10.5 -16.5z" />
    <glyph glyph-name="bracketleft" unicode="[" horiz-adv-x="432" 
d="M228 255q-32 13 -60 10.5t-53 -14.5t-47 -30t-43 -35q-7 -5 -16.5 -10t-11.5 1q-6 7 -4 17.5t7 15.5q20 20 45 39.5t53.5 33t59 19t60.5 -2.5q45 -12 72.5 -45t37 -77t0 -93.5t-37.5 -94.5q-45 -71 -109 -111.5t-137.5 -61t-151 -26t-149.5 -5.5q-99 0 -212 7.5
t-233.5 17.5t-244 20t-243.5 14t-233 0t-211 -21t-178 -50.5t-134 -87.5q-20 -20 -41.5 -25t-35 2.5t-13.5 26.5t23 46q46 54 129 86t191 48t235.5 18t261.5 -3.5t269 -16.5t258 -22t228.5 -19t181.5 -7q71 1 144 6t141 24t127 56t102 101q24 35 32 74.5t3.5 74.5t-21 62
t-41.5 38z" />
    <glyph glyph-name="backslash" unicode="\" horiz-adv-x="421" 
d="M334 -133q0 -1 -1.5 -4.5t-2.5 -5.5q-5 -6 -13 -6q-2 0 -5.5 1.5t-5.5 2.5q-3 3 -9 13.5t-12 22.5l-11.5 23t-7.5 16q-16 35 -34.5 81t-36.5 98t-34.5 107.5t-29.5 109.5t-20.5 103t-7.5 88v15t1.5 17.5t6 14.5t13.5 6q10 0 17 -11q3 -5 7.5 -25t9.5 -48.5t10 -61.5
t10 -63.5t9 -55.5t7 -37q17 -79 41.5 -156t56.5 -152q3 -6 9.5 -19.5t14 -28.5t13 -28t5.5 -17z" />
    <glyph glyph-name="bracketright" unicode="]" horiz-adv-x="432" 
d="M228 255q-32 13 -60 10.5t-53 -14.5t-47 -30t-43 -35q-7 -5 -16.5 -10t-11.5 1q-6 7 -4 17.5t7 15.5q20 20 45 39.5t53.5 33t59 19t60.5 -2.5q45 -12 72.5 -45t37 -77t0 -93.5t-37.5 -94.5q-30 -47 -66.5 -81.5t-78.5 -58.5t-88.5 -39.5t-94.5 -23.5q-90 -15 -187.5 -11
t-195 13.5t-190.5 18t-175 2.5t-149 -33.5t-111 -90.5q-17 -23 -38 -28.5t-35 3t-15.5 28.5t21.5 47q58 68 135.5 97t167 33.5t188 -8t198.5 -25.5t198 -19.5t187 9.5q85 15 161 56.5t132 125.5q24 35 32 75t3.5 75.5t-20.5 62.5t-41 38z" />
    <glyph glyph-name="asciicircum" unicode="^" horiz-adv-x="446" 
d="M392 599q1 0 4 -1t4 -2q7 -3 7.5 -15t1.5 -18l4 -48l4 -48q2 -17 6 -34.5t4 -34.5q0 -7 -6 -11t-11 -4q-9 0 -14 7q-3 4 -6 21t-5.5 39.5t-5 47.5l-4.5 45q-23 -21 -54.5 -48.5t-64.5 -51.5t-63.5 -40.5t-51.5 -16.5q-8 0 -13.5 4.5t-5.5 12.5q0 9 8 15q4 3 24.5 18
t49 35t60.5 42.5t60 41.5t47 31.5t21 12.5z" />
    <glyph glyph-name="underscore" unicode="_" horiz-adv-x="408" 
d="M141 -3h65t65 -5q15 -3 15 -17q0 -15 -15 -17q-29 -5 -60.5 -5t-61.5 -2q-44 -2 -88 -7t-89 -5h-12.5t-12.5 1.5t-10 6t-4 12.5q0 16 28 24t64 11t70 3h46z" />
    <glyph glyph-name="grave" unicode="`" horiz-adv-x="86" 
d="M83 441q0 -7 -5.5 -12t-12.5 -5q-8 0 -13 7q-3 4 -11 27t-16.5 50.5t-15 51.5t-6.5 29q0 9 5.5 16.5t15.5 7.5q15 0 26 -22.5t18.5 -52t11 -57.5t3.5 -40z" />
    <glyph glyph-name="a" unicode="a" horiz-adv-x="469" 
d="M351 362q9 9 16 9q1 0 4.5 -1t5.5 -2q6 -5 6 -14q0 -3 -2.5 -8.5t-6.5 -11.5t-7.5 -12t-6.5 -10q-15 -26 -35 -60t-37 -68.5t-29 -65.5t-12 -50q0 -9 4 -15t13 -6q17 0 39 13t45 32t45.5 42t42 42t34.5 32t21 13t10.5 -5.5t4.5 -11.5q0 -7 -15 -24.5t-38.5 -40t-53 -47
t-57.5 -45t-51.5 -33.5t-36.5 -13q-26 0 -41.5 21.5t-15.5 45.5q0 11 5 31q-38 -42 -78.5 -69.5t-78.5 -27.5q-40 0 -62.5 28t-22.5 66q0 31 13.5 65t36 66.5t52 62t62.5 52t67 35.5t65 13q8 0 21 -2t26.5 -5.5t25 -10t17.5 -15.5zM252 339q-39 0 -81.5 -22.5t-78 -57
t-58.5 -76.5t-23 -81q0 -11 2.5 -22t10.5 -19h-1q12 -11 31 -11q23 0 47 12t48 32t47.5 46t45.5 55q17 34 37 67t38 59q-16 3 -31.5 10.5t-33.5 7.5z" />
    <glyph glyph-name="b" unicode="b" horiz-adv-x="409" 
d="M37 126q0 -33 15.5 -55.5t52.5 -22.5q20 0 39.5 10t37.5 27.5t34 40t30 47.5q-19 24 -27.5 55.5t-8.5 60.5q0 16 3.5 34t11.5 33t22 24.5t34 9.5q16 0 27.5 -7t18 -18.5t9.5 -25.5t3 -28q0 -29 -12 -64.5t-32 -72.5q13 -9 32 -9t35 8.5t29 19t23 19.5t17 9q6 0 11 -5
t5 -11q0 -12 -14.5 -25t-34.5 -24t-40 -18t-31 -7q-28 0 -50 14q-19 -29 -41 -55t-46.5 -45.5t-49.5 -31t-50 -11.5q-26 0 -45.5 10t-32 27t-19 39t-6.5 45q0 45 13 90.5t30 85.5q8 20 28 60.5t47 89.5t59 100.5t66 94t67 70t61 27.5q22 0 34 -16t12 -36q0 -26 -19.5 -67.5
t-51 -89.5t-70.5 -99.5t-79 -98.5t-77 -85t-63 -60q-4 -17 -5.5 -33t-1.5 -30zM299 646q-30 -31 -64 -75t-65.5 -95t-59.5 -106.5t-46 -108.5q71 78 137.5 160t117.5 176q3 7 9 19t12 25.5t10 26t3 21.5q-6 -2 -14 -7.5t-15.5 -12t-14 -13zM292 319q0 4 -0.5 9.5t-2 10.5
t-5 9t-8.5 4q-10 0 -16.5 -7t-10 -17t-4.5 -21t-1 -18q0 -18 4.5 -39t14.5 -40q14 31 21.5 59.5t7.5 49.5z" />
    <glyph glyph-name="c" unicode="c" horiz-adv-x="336" 
d="M261 330h1q-13 8 -32 8q-34 0 -71 -22t-68 -55t-51.5 -71.5t-20.5 -71.5q0 -30 18.5 -50t48.5 -20q27 0 56 13t57.5 32t55 41.5t47.5 41.5t35 32t19 13q8 0 12.5 -5.5t4.5 -11.5t-10.5 -18t-27 -27t-36 -32t-38 -31.5t-33 -26t-20.5 -15.5q-29 -20 -61.5 -37t-68.5 -17
q-23 0 -43 9t-34.5 24t-23 35.5t-8.5 43.5q0 41 25.5 89.5t64.5 90t86 69t89 27.5q13 0 29.5 -4.5t31 -13.5t24.5 -21.5t10 -28.5q0 -8 -4.5 -18.5t-11 -20t-15 -16.5t-16.5 -7t-13.5 5t-5.5 13q0 5 6.5 18.5t9.5 22.5q-4 4 -8.5 7t-9.5 6z" />
    <glyph glyph-name="d" unicode="d" horiz-adv-x="486" 
d="M582 677q0 -11 -13.5 -38.5t-36 -67t-51.5 -87t-58.5 -97.5t-58.5 -99t-51.5 -92t-36 -76t-13.5 -51q0 -6 4 -14q6 -5 18 -5q19 0 41 12.5t44 31.5t44 41.5t40 41.5t32 31.5t21 12.5q5 0 10 -5.5t5 -10.5q0 -6 -14 -23t-36.5 -40t-50.5 -47.5t-55 -45.5t-50 -34.5
t-37 -13.5q-32 0 -49.5 20t-17.5 50q0 16 9 43q-43 -47 -88.5 -80t-88.5 -33q-40 0 -63.5 26t-23.5 65q0 32 14 66.5t37.5 67.5t55 62.5t65.5 52t69.5 35.5t67.5 13q14 0 38 -4.5t42 -15.5q26 46 52.5 90.5t50 83.5t42.5 70t30 50q6 10 15 24t23 14q11 0 17 -7t6 -17z
M264 338q-41 0 -86.5 -22t-83.5 -57.5t-63 -79t-25 -85.5q0 -45 46 -45q28 0 56.5 15t55.5 38.5t52 52t45 54.5q13 27 28 56t32 59q-14 5 -28 9.5t-29 4.5z" />
    <glyph glyph-name="e" unicode="e" horiz-adv-x="396" 
d="M26 115q0 -39 24.5 -56t60.5 -17q32 0 66.5 13t66.5 33t61.5 43t52.5 43t38 33t19 13q7 0 12.5 -4t5.5 -12q0 -5 -4.5 -11t-10.5 -12.5t-12.5 -12t-10.5 -8.5q-26 -24 -63 -52.5t-78 -53t-83 -41t-79 -16.5q-53 0 -85 33.5t-32 85.5q0 41 16.5 79t43.5 70t61 57.5
t69 42.5q20 10 42.5 18.5t45.5 8.5q31 0 48.5 -18.5t17.5 -49.5q0 -38 -27.5 -72.5t-67.5 -61t-84 -42.5t-78 -16h-17t-17 4q-1 -5 -1.5 -10.5t-0.5 -10.5zM78 171q28 0 61.5 12t62 33t48 48.5t19.5 59.5l-1 9q-5 10 -13 13t-18 3q-30 0 -60.5 -15t-57.5 -40t-48 -56
t-33 -62q9 0 19 -2.5t21 -2.5z" />
    <glyph glyph-name="f" unicode="f" horiz-adv-x="207" 
d="M467 657q-12 3 -19.5 9t-15 11.5t-17 9.5t-25.5 4q-26 0 -50 -12.5t-45 -32t-39 -42t-30 -41.5q-28 -44 -52 -89t-46 -93q18 2 33.5 2.5t23.5 0.5q15 0 15 -15q0 -13 -9.5 -21t-22.5 -12.5t-27.5 -6t-23.5 -1.5h-14q-35 -77 -69 -153t-76 -149q44 30 88 58.5t87 60.5
q22 17 43 39t44 35q4 2 8 2q7 0 11 -5.5t4 -11.5q0 -10 -20 -28.5t-50.5 -42t-67.5 -49t-71 -48.5t-61 -41t-38 -26q-7 -5 -13.5 -11t-13.5 -12l-7 -10q-5 -7 -13.5 -19t-19 -23.5t-21 -20t-19.5 -8.5q-11 0 -18 7.5t-7 17.5q0 13 9.5 21.5t17.5 16.5l13 11q28 31 55 75
t53 95.5t52 108.5l52 114q-5 1 -9 1h-9q-20 0 -27 -7t-15 -7q-7 0 -12 5.5t-5 12.5t8 13.5t21.5 11t31 8t36.5 6.5q33 72 68.5 138t73.5 116.5t80.5 80.5t90.5 30q13 0 31 -4.5t34.5 -12.5t28 -20t11.5 -28q0 -8 -6 -14t-14 -6h-6q-1 0 -1 1h1z" />
    <glyph glyph-name="g" unicode="g" horiz-adv-x="468" 
d="M370 362q6 0 11 -4.5t5 -10.5q0 -9 -9 -24t-14 -23l-4 -6q-13 -26 -33.5 -65t-44 -83.5t-49 -91.5t-49.5 -90q76 57 147 120t143 129q2 2 5.5 4.5t6.5 2.5q8 0 13.5 -3.5t5.5 -12.5q0 -3 -1.5 -6.5t-3.5 -5.5q-74 -82 -166.5 -159.5t-191.5 -144.5l-45 -81
q-20 -32 -43.5 -61.5t-53.5 -52.5q-17 -12 -36 -19.5t-39 -7.5q-13 0 -25.5 4.5t-23 12t-17 18.5t-6.5 25l1 8q3 13 27 32t54.5 37.5t60.5 34.5t44 25q17 11 33.5 22t32.5 22q20 38 40 80t40 85q-36 -33 -73.5 -53.5t-72.5 -20.5q-37 0 -61.5 24.5t-24.5 61.5q0 31 14 65.5
t37 68.5t53.5 64.5t63.5 54t67 37.5t64 14q8 0 21.5 -2t28 -6t27 -11t18.5 -16q4 3 8 3h2q6 6 13 6zM248 337q-40 0 -83 -24.5t-79 -62t-59.5 -81t-23.5 -82.5q0 -17 8 -26q8 -8 19 -11.5t22 -3.5q23 0 46.5 10t46.5 27t45 39.5t42 47.5q23 46 43.5 84t37.5 64
q-14 5 -29.5 12t-35.5 7zM-69 -284q24 0 45 11t38 28q12 12 26.5 35t31.5 53q-22 -14 -43 -26.5t-42 -24.5q-8 -5 -21 -12t-26 -16t-24 -18t-16 -18l1 -1q5 -7 13.5 -9t16.5 -2z" />
    <glyph glyph-name="h" unicode="h" horiz-adv-x="465" 
d="M82 215q28 34 57.5 65.5t57.5 56t54.5 39t48.5 14.5q29 0 46.5 -16.5t17.5 -45.5q0 -33 -18.5 -71.5t-40.5 -75.5t-40.5 -68.5t-18.5 -50.5q0 -4 2 -10q7 -5 15 -5q16 0 37 13t43.5 32t45 42t42 42t34 32t20.5 13t11.5 -5t5.5 -11q0 -5 -11 -17.5t-27.5 -29.5t-37 -35.5
t-39 -35.5t-33.5 -30t-21 -18q-16 -14 -35.5 -27.5t-42.5 -13.5q-27 0 -43.5 20t-16.5 46q0 31 20.5 68.5t44 75t41.5 71.5t13 58h1l-1 1q-8 6 -18 6q-23 0 -52 -20t-61 -51.5t-64 -70.5t-60.5 -77t-50.5 -70.5t-34 -51.5q-3 -5 -7.5 -11t-12.5 -6q-9 0 -16.5 5t-7.5 15
q0 6 3 12t6 11q22 40 43.5 80t41.5 81q-5 -4 -8 -4q-6 0 -13 3t-7 11q0 2 19.5 22.5t51.5 52.5q23 45 46.5 90t48.5 90q9 17 24 45t34 60.5t40.5 65.5t44 59.5t45.5 43.5t44 17q22 0 36 -17t14 -38q0 -15 -5 -30.5t-13 -30.5t-17.5 -29t-18.5 -25q-9 -12 -39 -46t-70 -77.5
t-84.5 -91.5t-83.5 -87zM394 690l-3 4q-15 -2 -38.5 -28.5t-53 -69.5t-62 -98t-65.5 -115q39 42 78 86.5t70.5 85.5t51.5 76.5t22 58.5z" />
    <glyph glyph-name="i" unicode="i" horiz-adv-x="214" 
d="M151 364q0 -8 -12.5 -29.5t-31 -50.5t-40.5 -62t-40.5 -63.5t-31 -55t-12.5 -36.5q0 -10 4.5 -17t15.5 -7q17 0 39.5 13t46.5 33t47.5 43t43.5 43t34 33t19 13q7 0 12.5 -4.5t5.5 -12.5q0 -5 -14.5 -22t-37.5 -39.5t-51.5 -47.5t-56.5 -46t-52.5 -34.5t-38.5 -13.5
q-29 0 -45 19t-16 46q0 16 12 45t30 64t39 72t40.5 67.5t34 50.5t18.5 22q3 2 10 2q10 0 19 -7t9 -18zM200 501q-14 0 -25 10t-11 25t10.5 25.5t25.5 10.5t25.5 -10.5t10.5 -25.5t-11 -25t-25 -10z" />
    <glyph glyph-name="j" unicode="j" horiz-adv-x="211" 
d="M121 387q10 0 16.5 -7.5t6.5 -17.5q0 -1 -10.5 -21.5t-28 -53.5t-40.5 -74.5t-46.5 -85.5t-47 -86.5t-42.5 -77.5q72 53 140 111.5t131 122.5q4 5 13 14t15 9q8 0 14 -2.5t6 -13.5q0 -7 -5 -12q-70 -78 -162.5 -154.5t-189.5 -143.5l-10 -18q-20 -34 -40 -67.5t-46 -63.5
q-12 -14 -25.5 -28.5t-29 -25.5t-33 -18t-37.5 -7q-12 0 -25 3.5t-24 11t-18 17.5t-7 24q0 18 12 31.5t28.5 25t35 20t31.5 16.5q38 22 75 45t73 48q25 48 51.5 102t52 107.5t50.5 102t46.5 86t39.5 59.5t30 22zM-358 -274l1 2q1 0 1.5 -1.5t1.5 -2.5q14 -8 31 -8
q20 0 38.5 9t32.5 21t32 38t38 62q-26 -17 -51 -32.5t-50 -29.5q-5 -3 -17.5 -10t-25.5 -16t-22.5 -18t-9.5 -14zM183 501q-14 0 -25 10t-11 25t10.5 25.5t25.5 10.5t25.5 -10.5t10.5 -25.5t-11 -25t-25 -10z" />
    <glyph glyph-name="k" unicode="k" horiz-adv-x="466" 
d="M74 203q29 36 60 70t61.5 60.5t59 43t53.5 16.5q30 0 49.5 -20t19.5 -49q0 -32 -16.5 -60t-42.5 -49.5t-57.5 -34t-61.5 -12.5q-11 0 -16 1q-15 -29 -15 -62q0 -29 16.5 -46t45.5 -17q24 0 51 13t53.5 33t51 42.5t45 42.5t35 33t20.5 13t11.5 -4.5t5.5 -10.5
q0 -8 -20.5 -29.5t-47.5 -45.5t-52 -44.5t-34 -27.5q-29 -21 -62 -39.5t-70 -18.5q-23 0 -41 8.5t-31.5 23t-20.5 34t-7 41.5q0 9 4.5 27.5t12 37t17.5 32t22 13.5q5 0 8 -2.5t6.5 -5t8.5 -5t14 -2.5q21 0 42 11t37.5 28.5t27 39t10.5 42.5q0 12 -9.5 16t-19.5 4
q-22 0 -49 -15.5t-55 -41t-56 -56.5t-52.5 -62.5t-44.5 -59t-32 -45.5q-3 -5 -8 -13.5t-10.5 -18t-11 -17.5t-8.5 -10q-5 -3 -10 -3q-9 0 -16 7t-7 16l2 4q2 4 4 7h-1l1 1l76 150l-6 -3t-4 -1t-4 1l-4 2q-7 5 -7 12q0 3 18.5 22.5t49.5 50.5l29 58q10 21 29.5 60t44 85
t53 94.5t57.5 88t57 64.5t52 25q23 0 37 -16.5t14 -38.5q0 -17 -6.5 -34t-14.5 -32q-8 -14 -26 -38t-43.5 -54.5t-55.5 -65.5t-62 -70.5t-63.5 -69.5t-58.5 -62zM387 688l-4 7q-16 -3 -40.5 -30.5t-53.5 -71.5t-61 -100.5t-64 -116.5q39 42 78.5 87t71.5 87t52 78t21 60z
" />
    <glyph glyph-name="l" unicode="l" horiz-adv-x="281" 
d="M33 149q-6 -26 -6 -51q0 -11 2 -25.5t13 -20.5h-1q5 -2 9.5 -3t9.5 -1q21 0 45.5 13t49.5 32t48.5 41.5t43 41.5t33.5 32t20 13q7 0 12 -5t5 -11q0 -7 -14 -22.5t-35.5 -36t-47.5 -42.5t-50 -41t-43.5 -33t-27.5 -18q-11 -5 -22.5 -8.5t-24.5 -3.5q-20 0 -34.5 8
t-24 21.5t-14 30.5t-4.5 35q0 25 11 65.5t30 90.5t44.5 105.5t54.5 109.5t60 103.5t61 87t57.5 60t49.5 22.5q20 0 30.5 -14.5t10.5 -32.5q0 -13 -3 -23q-7 -34 -28.5 -69.5t-40.5 -64.5q-7 -10 -25.5 -36t-43.5 -60t-53.5 -72t-56 -72t-51.5 -61t-38 -39q-3 -11 -6 -23
t-5 -23zM157 447q-23 -40 -43.5 -80t-37.5 -82q29 34 58.5 67.5t56.5 72.5q6 9 18.5 28t27.5 43t31 51.5t29.5 53.5t23 47.5t11.5 35.5q-12 -7 -28.5 -24t-34 -40.5t-35.5 -49.5t-33.5 -50.5t-27 -44t-16.5 -28.5z" />
    <glyph glyph-name="m" unicode="m" horiz-adv-x="705" 
d="M193 370q17 0 26.5 -9.5t9.5 -26.5q0 -12 -7.5 -31.5t-19.5 -43.5q24 27 47.5 50.5t45 41t40 28t32.5 10.5q27 0 41 -18t14 -43q0 -17 -6 -37t-17 -43q25 28 50 54t48.5 45t44 30.5t36.5 11.5q26 0 42 -16.5t16 -42.5q0 -30 -21.5 -65.5t-48 -72t-48 -71t-21.5 -62.5
q0 -2 1 -4l2 -4q5 -5 12 -5q14 0 34 13t42 32.5t44.5 42t41 42t32 32.5t17.5 13q19 0 19 -20q0 -2 -11.5 -14.5t-30 -32t-40.5 -41.5t-43 -42.5t-37.5 -36t-24.5 -20.5q-11 -8 -23.5 -12.5t-25.5 -4.5q-25 0 -41.5 17.5t-16.5 42.5q0 20 11 44t26.5 49.5t34 51.5t33.5 50.5
t24.5 46t6.5 37.5h1q0 2 -2.5 3t-4.5 0q-25 -7 -54 -27t-59.5 -48.5t-60 -62.5t-56.5 -67t-49.5 -63.5t-37.5 -51.5q-4 -5 -8.5 -11.5t-11.5 -6.5q-5 0 -11.5 4t-6.5 10q0 10 11 32.5t27.5 52t36 62.5t36 64t27.5 57.5t11 42.5q0 8 -5 14.5t-13 6.5q-13 0 -33.5 -15
t-45 -39.5t-51.5 -56t-53.5 -64.5t-51 -64.5t-44.5 -55.5q-8 -12 -15 -21.5t-12 -15.5q-1 -1 -2.5 -3.5t-2.5 -2.5q-2 0 -3 1q-11 -12 -14 -12q-8 0 -12 5t-4 12q0 9 12 31.5t31 52t41.5 63.5t42.5 66.5t35 60.5t20 46q-20 -7 -47 -32t-54 -52.5t-49.5 -49t-31.5 -21.5
q-6 0 -10.5 6t-4.5 11q0 4 12 18.5t31 34t42.5 40.5t45.5 39t40 29.5t27 11.5z" />
    <glyph glyph-name="n" unicode="n" horiz-adv-x="519" 
d="M205 388q16 0 24.5 -11t8.5 -26t-10 -40t-26 -55q25 27 51 51.5t50 43t46.5 29t41.5 10.5q26 0 44.5 -15t18.5 -42q0 -19 -10.5 -40.5t-25.5 -45.5t-33.5 -48.5t-33.5 -48t-25.5 -46t-10.5 -41.5q0 -13 16 -13t35.5 12.5t40.5 31.5t41.5 41.5t38.5 41.5t31.5 31.5
t20.5 12.5q8 0 12 -5t4 -13q0 -1 -1 -4.5t-2 -5.5q-8 -10 -30.5 -34t-49 -51t-51 -51t-36.5 -33q-12 -10 -26 -17t-31 -7q-26 0 -44.5 16.5t-18.5 42.5q0 18 10.5 41.5t26 49.5t33.5 52.5t33.5 51.5t25.5 46t9 35l-3 2q-6 3 -13 3q-25 0 -55.5 -19t-63.5 -49t-66.5 -67
t-63 -73.5t-53.5 -68t-38 -50.5q-3 -5 -8 -8.5t-10 -3.5q-6 0 -11 4.5t-5 10.5q0 4 4 11l-1 1l3 4q8 16 24 42.5t36 58.5t40.5 65.5t38 64t29 53.5t12.5 34q-9 -3 -25 -16.5t-34.5 -32t-39 -40t-38 -39t-31 -29.5t-18.5 -12q-7 0 -12.5 4.5t-5.5 12.5q0 4 13 19.5t33.5 36.5
t45 45t48 43.5t42.5 32.5t28 13z" />
    <glyph glyph-name="o" unicode="o" horiz-adv-x="430" 
d="M334 155q20 0 38 10t33 22.5t26.5 22.5t19.5 10q7 0 11 -5.5t4 -11.5q0 -3 -2 -9q-9 -12 -25 -25t-34.5 -23.5t-38 -17.5t-34.5 -7q-33 0 -58 20q-20 -29 -44.5 -55.5t-51.5 -46.5t-55 -32t-55 -12q-23 0 -41 9t-30.5 24t-19 34.5t-6.5 40.5q0 43 21.5 93t57 92.5
t79.5 70.5t89 28q9 0 21 -2.5t24 -7.5t23 -12t17 -16q14 -11 20 -28.5t6 -34.5q0 -26 -9 -55t-26 -58q16 -18 40 -18zM220 350q-39 0 -74.5 -25.5t-63 -63.5t-44 -81.5t-16.5 -78.5q0 -27 13.5 -43.5t42.5 -16.5q25 0 49.5 10.5t46.5 28t41 40.5t33 49q-15 23 -22.5 50
t-7.5 53q0 19 6.5 40t21.5 33q-12 5 -26 5zM280 280q0 5 -0.5 11.5t-2.5 11.5q-7 -10 -9 -21.5t-2 -22.5q0 -8 1 -17.5t3 -19.5q10 29 10 58z" />
    <glyph glyph-name="p" unicode="p" horiz-adv-x="486" 
d="M508 220q6 0 11 -5t5 -11q0 -11 -22 -30.5t-56.5 -42.5t-76.5 -46.5t-81.5 -42.5t-71.5 -31t-46 -12h-2q-9 -2 -17.5 -3.5t-17.5 -1.5q-11 0 -22.5 2t-21.5 7.5t-16.5 14t-6.5 21.5q0 16 10.5 28t27.5 12q32 0 32 -32v-1h4h9.5t9.5 2q3 2 12 4q3 0 7 2q31 12 58 39.5
t47 61.5t32 70t12 65q0 19 -8 35.5t-30 16.5q-21 0 -46 -16t-52.5 -44t-56.5 -65t-57 -79q-19 -39 -33 -68.5t-21 -42.5q-28 -57 -56 -111.5t-58 -109.5q-7 -13 -15.5 -26.5t-22.5 -18.5l-3 -1l1 -1h-5q-2 0 -5 0.5t-5 0.5q-7 1 -12 10t-5 15q0 17 14.5 49.5t37.5 73.5
t52 87.5t59 90.5q21 42 41.5 83.5t40.5 81.5l-37 -42q-6 -7 -14 -18t-18 -11q-7 0 -12.5 5.5t-5.5 12.5q0 3 1.5 6t3.5 5q37 47 73 90.5t68 94.5l61 103q8 15 15 28t10 13q6 11 9 11q8 0 14.5 -3.5t6.5 -12.5q0 -2 -3 -8h1l-1 -1q-4 -11 -13.5 -34t-23.5 -54t-31.5 -67.5
t-35.5 -75.5q20 23 41 43t47 35q13 8 27 13t30 5q40 0 61 -29t21 -66q0 -23 -6.5 -49.5t-18 -53.5t-28 -54t-35.5 -51q51 19 98.5 46t87.5 65q7 6 14.5 14.5t18.5 8.5zM111 32q4 0 6 6h-14q-1 -3 2.5 -4.5t5.5 -1.5z" />
    <glyph glyph-name="q" unicode="q" horiz-adv-x="474" 
d="M196 -28q16 12 30.5 22t26.5 20q55 43 107.5 88t102.5 95l13.5 13.5t15.5 8.5q6 0 11.5 -3.5t5.5 -10.5q0 -8 -20 -29.5t-52 -51.5t-72.5 -65t-81.5 -70t-78.5 -67t-64.5 -55q-35 -66 -63 -108t-42 -42q-15 0 -20.5 11.5t-5.5 24.5q0 14 4 28t10 26q10 21 28.5 42.5
t42.5 43.5l4 6l96 175q-38 -34 -75.5 -56t-70.5 -22q-41 0 -66 25.5t-25 66.5q0 33 14 68.5t37.5 69.5t55 64t66 52.5t70 36t67.5 13.5q17 0 44 -7.5t46 -21.5q6 10 12.5 19.5t14.5 17.5q5 5 10 8.5t12 3.5q10 0 14.5 -7t4.5 -16q0 -10 -6 -24.5t-15 -29.5t-18 -29t-15 -23
q-21 -30 -52 -72q-29 -55 -60.5 -117t-62.5 -122zM259 341q-41 0 -85 -23.5t-81.5 -60t-61.5 -80.5t-24 -84q0 -49 52 -49q23 0 48 12t50.5 31.5t51 45.5t48.5 54q18 33 37 65.5t38 65.5q-14 7 -31 15t-42 8z" />
    <glyph glyph-name="r" unicode="r" horiz-adv-x="365" 
d="M248 382q7 0 12.5 3t7.5 3q10 0 17 -7t7 -17q0 -7 -11.5 -26t-28.5 -45.5t-36.5 -58t-36.5 -63t-28.5 -60.5t-11.5 -51q0 -11 12 -11q18 0 41.5 12.5t47.5 31.5t48 41t43.5 41t33.5 31.5t19 12.5q7 0 12.5 -4t5.5 -12q0 -4 -12.5 -18t-31.5 -32.5t-42 -40t-44.5 -40
t-38 -32.5t-22.5 -18q-14 -9 -29 -16t-32 -7q-26 0 -44 15t-18 43q0 22 16 60t38.5 80.5t47 84t41.5 71.5q-15 6 -31 11t-30 13q-20 -33 -44 -67.5t-46.5 -63.5t-41 -47.5t-26.5 -18.5t-12.5 5t-4.5 12q0 3 1.5 6.5t3.5 5.5q41 41 78.5 90t63.5 103q-11 19 -11 47
q0 20 12.5 38.5t35.5 18.5q14 0 24.5 -9t10.5 -24q0 -17 -22 -58q9 -14 23.5 -23.5t32.5 -9.5zM167 471q0 -3 1 -5q0 4 -1 5z" />
    <glyph glyph-name="s" unicode="s" horiz-adv-x="359" 
d="M350 199q6 6 13 13.5t16 7.5q6 0 11.5 -5t5.5 -11q0 -8 -13.5 -22.5t-35 -32t-49 -36.5t-55 -36.5t-53.5 -31.5t-44 -22q-37 -23 -81 -23q-19 0 -37 6t-32 17t-22.5 27t-8.5 37q0 17 9 32.5t29 15.5q13 0 24 -9t11 -23q0 -11 -6.5 -17t-14.5 -8q5 -17 22.5 -24.5
t33.5 -7.5q27 0 49.5 13t38 33.5t24 45.5t8.5 50q0 41 -14.5 77t-27.5 71q-20 -29 -41.5 -56.5t-40.5 -49.5t-34 -35.5t-22 -13.5q-8 0 -13 4.5t-5 11.5q0 3 14.5 21t36.5 44t47.5 56t46.5 58q-3 13 -3 29q0 12 3.5 26t11 26t18 19.5t25.5 7.5q11 0 19.5 -5.5t8.5 -17.5
q0 -8 -9.5 -26.5t-24.5 -41.5q3 -14 9 -26.5t11 -25.5q14 -36 21.5 -74.5t7.5 -77.5q0 -24 -6.5 -47.5t-17.5 -44.5q37 21 73.5 48.5t62.5 53.5zM184 458v-4l1 -2q0 4 -1 6z" />
    <glyph glyph-name="t" unicode="t" horiz-adv-x="249" 
d="M95 543q24 0 48 2.5t49 4.5q15 28 30.5 55.5t31.5 55.5q6 11 14 26t22 17h6q9 0 15.5 -7.5t6.5 -15.5q0 -9 -18 -42.5t-47 -82.5q7 1 14 1h14t21 -1t28 -4t24.5 -8.5t10.5 -15.5t-12 -14.5t-28 -6t-31 -1.5h-21h-24.5t-25.5 -1q-35 -59 -74.5 -125.5t-72.5 -126.5
t-55 -106t-22 -64q0 -11 5.5 -23.5t19.5 -12.5q24 0 49.5 13t50.5 32t48 41.5t42.5 41.5t33 32t19.5 13q7 0 12 -5t5 -11t-16 -23.5t-36 -37.5t-39.5 -37.5t-25.5 -23.5q-26 -23 -54 -46t-63 -33q-7 -2 -13.5 -3t-13.5 -1q-35 0 -55.5 25.5t-20.5 58.5q0 29 12.5 54.5
t26.5 49.5q47 78 91.5 157.5t89.5 159.5q-28 0 -55 2t-52 7q-7 2 -14 6t-7 12q0 7 4.5 12.5t12.5 5.5q9 0 19 -3t20 -3z" />
    <glyph glyph-name="u" unicode="u" horiz-adv-x="407" 
d="M136 363q0 -7 -10.5 -25t-26 -43t-33.5 -55t-33.5 -60.5t-26 -58.5t-10.5 -50q0 -5 1 -12t7 -9h8q28 0 57.5 18.5t59 48.5t57 66.5t50.5 72.5q19 37 37 67.5t31 47.5q0 2 2 4v-1q7 10 13 12q2 1 8 1q9 0 16 -6.5t7 -16.5q0 -6 -5.5 -17.5t-14.5 -26.5
q-16 -30 -39.5 -68.5t-44.5 -77t-34.5 -72t-9.5 -51.5h-1l1 -1l2 -1q16 -1 37 11.5t44 31.5t46 41.5t42.5 41.5t33 32t18.5 13q7 0 12 -5t5 -12q0 -3 -9.5 -14t-24.5 -27t-32.5 -34t-33.5 -34l-28.5 -28.5l-16.5 -16.5q-18 -17 -41.5 -34t-49.5 -17q-24 0 -39.5 14.5
t-15.5 38.5q0 8 5.5 26t16.5 42q-26 -29 -45.5 -50t-29.5 -29q-18 -15 -41 -27.5t-48 -12.5q-32 0 -47.5 20t-15.5 50q0 14 2.5 28t7.5 28q1 4 12 25t26 49.5t32 61t32 60t25 45.5t11 19q4 3 10 3q9 0 16.5 -5t12.5 -12l2 -2h-1q2 -4 2 -7z" />
    <glyph glyph-name="v" unicode="v" horiz-adv-x="429" 
d="M123 391q10 0 16 -7t9 -17t4 -21t1 -18q0 -29 -4 -64t-12 -71t-19 -71.5t-25 -65.5q38 23 70.5 53t61.5 63q8 9 21 26t27 38q-6 18 -8.5 36t-2.5 34t3 35t11 35.5t21.5 27.5t33.5 11q23 0 36.5 -14t13.5 -37q0 -29 -17.5 -64.5t-45.5 -72.5q7 -21 18.5 -36t31.5 -15
q15 0 26.5 7t21.5 15t18 15t14 7q7 0 12 -4.5t5 -12.5q0 -10 -11 -20.5t-26.5 -19.5t-31 -14.5t-24.5 -5.5q-28 0 -48 14t-33 36q-22 -26 -45.5 -49.5t-46.5 -44.5t-44 -37.5t-37 -27.5q-5 -3 -14 -9t-19.5 -12.5t-19.5 -11t-14 -4.5q-8 0 -12 6t-4 13l5 14.5t11.5 33t12 36
t7.5 23.5q11 42 17.5 85t11.5 86q-11 -20 -23.5 -40t-24 -37t-22 -27.5t-17.5 -10.5q-8 0 -13 5t-5 13q0 3 1.5 6.5t3.5 5.5q26 32 49.5 62t40.5 70q4 9 7 20t8 19q7 11 18 11zM330 363q-6 -2 -10.5 -10t-7 -18.5t-3.5 -21.5t-1 -18q11 20 17 38t5 30z" />
    <glyph glyph-name="w" unicode="w" horiz-adv-x="624" 
d="M171 394q14 0 19.5 -8.5t5.5 -20.5q0 -13 -18.5 -44.5t-40.5 -72.5t-40.5 -87t-18.5 -86q0 -7 1.5 -17.5t11.5 -10.5q13 0 30 10t35.5 27t38 39.5t37.5 46.5q6 30 16 63.5t22.5 62t28 47t32.5 18.5q13 0 20.5 -8.5t7.5 -20.5q0 -22 -22 -63.5t-54 -89.5q-5 -23 -7 -43
t-2 -34v-14.5t1.5 -18.5t5.5 -16t12 -7q18 0 39 15t43 39.5t42 55.5t37 63q-11 22 -17.5 45.5t-6.5 45.5q0 16 4.5 31t13 27t21.5 19.5t31 7.5q22 0 33.5 -13t11.5 -34q0 -20 -12.5 -54t-32.5 -72q11 -19 26 -31.5t35 -12.5q15 0 27.5 6.5t23 14.5t18.5 14.5t13 6.5
q7 0 12 -5t5 -13q0 -10 -12 -20t-28.5 -18.5t-33 -13.5t-25.5 -5q-25 0 -45 11t-37 28q-21 -35 -45 -69t-49.5 -60.5t-49.5 -43t-45 -16.5t-34 10t-20.5 25.5t-10 33.5t-2.5 35v3q-38 -45 -75 -75t-62 -30q-30 0 -44 23t-14 49q0 29 16.5 78t39.5 100q-26 -27 -46 -46.5
t-25 -19.5q-7 0 -12.5 4.5t-5.5 12.5q0 2 1.5 5.5t3.5 5.5q31 40 68 73.5t65 76.5q7 10 13.5 21.5t20.5 13.5h4zM495 343q-11 -5 -13 -18.5t-2 -24.5v-10t1 -10q14 39 14 63z" />
    <glyph glyph-name="x" unicode="x" horiz-adv-x="401" 
d="M-117 -68q-8 0 -14 4t-6 12q0 5 10.5 14t24 18.5t26 18t17.5 12.5q59 45 112.5 96.5t103.5 107.5q-2 40 -5.5 74t-13.5 54q-10 -18 -27 -45.5t-35.5 -54t-35.5 -45t-27 -18.5q-8 0 -13 5t-5 12q0 3 1.5 6.5t3.5 5.5q23 29 46 54.5t41 57.5q3 6 7.5 14.5t9 18t8.5 17.5
t8 12q6 8 16 8q13 0 22.5 -10t17 -27.5t12.5 -41t10 -49.5q21 25 47.5 56.5t55.5 59.5t58 46.5t53 18.5q8 0 14.5 -4.5t6.5 -13.5q0 -13 -12 -17.5t-20 -11.5q-53 -42 -100 -91t-92 -98l-3 -3l6 -48t6.5 -44.5t7.5 -37t9 -26.5l4 -1q11 0 26.5 12.5t33 32t35.5 41.5
t34.5 41.5t30 32t21.5 12.5q6 0 11.5 -5t5.5 -11q0 -3 -14.5 -20.5t-33 -38.5t-35.5 -40t-22 -25q-9 -11 -19 -24.5t-21 -25.5t-24 -21t-29 -10h-4q-21 0 -34 13t-21.5 34.5t-12.5 49.5t-6 58q-30 -33 -66.5 -72t-74.5 -72t-74 -55.5t-63 -22.5z" />
    <glyph glyph-name="y" unicode="y" horiz-adv-x="450" 
d="M140 366q0 -12 -10.5 -31t-26 -42.5t-33.5 -50.5t-33.5 -55.5t-26 -57t-10.5 -54.5q0 -6 1.5 -13.5t6.5 -11.5h7q27 0 57.5 19t61.5 48.5t61 65.5t55 71q29 60 53.5 97.5t41.5 37.5q11 0 17 -7t6 -17q0 -2 -7 -16.5t-18 -36t-24 -46.5t-24.5 -47.5t-21 -40.5t-12.5 -24
q-15 -30 -38.5 -80.5t-53.5 -108.5q73 53 141 111t131 123q4 4 12 12.5t14 8.5q19 0 19 -17q0 -3 -1.5 -6.5t-3.5 -5.5q-71 -78 -163 -154t-185 -141q-25 -45 -52.5 -86.5t-56.5 -73.5t-59 -51.5t-59 -19.5q-11 0 -24 4.5t-24 12t-18 18t-7 23.5q0 16 14 30.5t33.5 27.5
t40 23t33.5 18q67 39 134 85q26 53 53 111.5t53 116.5q-24 -27 -48 -51.5t-48 -43t-46 -29.5t-41 -11q-32 0 -47 23.5t-15 51.5q0 23 6.5 44t16.5 41q4 8 14 27.5t23.5 44t29 50.5t29.5 48.5t25 38t17 18.5q6 2 9 2q10 0 15.5 -7t5.5 -16zM-117 -275q2 -2 4.5 -3.5t4.5 -2.5
q9 -5 22 -5q21 0 39.5 9t33.5 23t32 39t36 59l-9 -6q-11 -7 -36 -21.5t-52 -31t-49 -32.5t-27 -26z" />
    <glyph glyph-name="z" unicode="z" horiz-adv-x="428" 
d="M230 391q42 0 65 -25t23 -67q0 -33 -12 -65.5t-32 -62.5t-46 -55.5t-53 -44.5q5 -9 8 -17q21 6 51 21.5t60 34t55.5 35.5t36.5 26q4 3 12.5 11.5t17.5 16.5t17.5 14.5t12.5 6.5q7 0 12.5 -5t5.5 -12q0 -10 -15.5 -25t-39.5 -32.5t-52.5 -36t-56 -34t-49.5 -27t-32 -15.5
l-30 -11q1 -4 1 -11q0 -28 -10.5 -65t-28.5 -75.5t-42.5 -76.5t-53 -67.5t-60 -47.5t-62.5 -18q-28 0 -46.5 15.5t-18.5 44.5q0 38 25 83.5t62 88t78 77.5t73 53l30 16q-2 4 -4 7q-8 -5 -17.5 -8t-17.5 -3q-11 0 -19.5 7t-8.5 18q0 10 6 17.5t15 12.5t19 7.5t18 2.5
q4 0 12 -2q26 14 49.5 37t41 50.5t27.5 57t10 56.5q0 25 -11 34t-34 9q-24 0 -47 -12t-43.5 -30t-39 -39t-34 -39t-27.5 -30t-20 -12q-16 0 -16 16q0 4 11.5 18.5t26.5 31.5t29 32t19 20l52.5 52.5t62.5 36.5q15 4 34 4zM102 -20q-24 -16 -55.5 -46.5t-60.5 -66.5t-49 -73
t-20 -67q0 -3 1 -6l2 -6h-2l2 -1q7 -3 16 -3q37 0 73 32.5t65 78t47 95t20 83.5q-12 -6 -23 -11t-16 -9z" />
    <glyph glyph-name="braceleft" unicode="{" horiz-adv-x="334" 
d="M169 306q-19 -12 -39.5 -28.5t-39.5 -33.5t-36 -32.5t-29 -25.5q-7 -5 -16.5 -10t-11.5 1q-6 7 -4 17.5t7 15.5q22 22 58.5 55.5t77.5 59.5q-38 21 -72 48t-60.5 57.5t-44.5 62.5t-24 63q-4 20 4.5 31.5t20.5 14t22.5 -4.5t9.5 -24q-2 -34 13.5 -68t41 -64t59 -55
t68.5 -40l8 4q20 8 39 12.5t35 -2.5q13 -6 15.5 -18.5t-8 -24t-34 -16.5t-60.5 5z" />
    <glyph glyph-name="bar" unicode="|" horiz-adv-x="433" 
d="M20 -223q-7 0 -12 4.5t-5 11.5q0 1 12.5 28t33.5 70.5t48 100t56 116.5t57.5 119.5t53 109.5t42.5 87t25 51q4 8 14.5 29.5t23 44.5t24.5 41t19 18q5 0 11.5 -4t6.5 -10q0 -14 -16.5 -55.5t-42 -96.5t-56 -117.5t-59 -119.5t-51.5 -101t-32 -62q-4 -8 -15.5 -29.5
t-26.5 -50t-31.5 -60t-31.5 -58t-25.5 -44.5t-12.5 -20q-5 -3 -10 -3z" />
    <glyph glyph-name="braceright" unicode="}" horiz-adv-x="504" 
d="M120 353q-10 37 -5 60.5t16.5 34t24 8t18.5 -15.5q7 -16 2.5 -35t-12.5 -39l-4 -8q15 -35 40 -68.5t55 -59t64 -41t68 -13.5q17 1 24 -9.5t4.5 -22.5t-14 -20.5t-31.5 -4.5q-31 6 -63 24t-62.5 44.5t-57.5 60.5t-48 72q-26 -41 -59.5 -77.5t-55.5 -58.5q-7 -7 -15 -8.5
t-13.5 2t-5 11.5t9.5 20q10 12 25.5 29t32.5 36t33.5 39.5t28.5 39.5z" />
    <glyph glyph-name="asciitilde" unicode="~" horiz-adv-x="424" 
d="M167 272q21 0 37 -14t28.5 -31t22.5 -31t19 -14q12 0 21.5 12t17.5 26.5t15.5 26.5t16.5 12q8 0 12 -5t4 -12q0 -11 -10 -28t-25 -33t-31.5 -27t-28.5 -11q-22 0 -38 14t-28.5 30.5t-22 30.5t-18.5 14q-12 0 -21.5 -11.5t-17 -26t-15 -26t-14.5 -11.5q-8 0 -13 4.5
t-5 12.5q0 11 10 28t24 32.5t30.5 26.5t29.5 11z" />
    <glyph glyph-name="uni00A0" unicode="&#xa0;" horiz-adv-x="319" 
 />
    <glyph glyph-name="exclamdown" unicode="&#xa1;" horiz-adv-x="284" 
d="M279 429q6 0 11 -4.5t5 -11.5q0 -12 -17 -47t-44 -81t-60.5 -96.5t-67.5 -92.5t-64.5 -69.5t-50.5 -27.5q-7 0 -12 5t-5 12q0 4 2 6.5t4 5.5q81 87 150.5 184t128.5 200q3 6 7.5 11.5t12.5 5.5zM353 644q18 0 30.5 -12.5t12.5 -30.5t-12.5 -30.5t-30.5 -12.5t-31 12.5
t-13 30.5q0 19 12.5 31t31.5 12z" />
    <glyph glyph-name="cent" unicode="&#xa2;" horiz-adv-x="445" 
d="M32 -99q-8 0 -12 5.5t-4 12.5q0 5 17 38.5t46 84.5q-35 18 -56 53t-21 77q0 58 29 116.5t75.5 105.5t104.5 76.5t115 29.5h9t9 -1q14 23 23.5 38.5t14.5 22.5q3 4 8 12t11 16t12.5 14t11.5 6q7 0 12.5 -4.5t5.5 -12.5t-13.5 -36.5t-36.5 -68.5q20 -10 33 -28t13 -46
q0 -27 -15 -58t-39 -57.5t-53.5 -43.5t-57.5 -17q-13 0 -25 3q-33 -55 -60.5 -99.5t-41.5 -67.5q5 -1 10.5 -1h10.5q39 0 64.5 18.5t43 41t30 41.5t25.5 19q11 0 15.5 -9t4.5 -18q0 -26 -24.5 -50.5t-58 -43.5t-69.5 -30.5t-58 -11.5h-9.5t-9.5 1q-11 -18 -24.5 -40
t-26.5 -41.5t-23.5 -33t-15.5 -13.5zM51 179q0 -33 14.5 -56.5t38.5 -36.5q24 43 51.5 91t55.5 96q-4 9 -4 24q0 14 5.5 28t15.5 26.5t22.5 21.5t26.5 13q18 33 37 62q-48 -3 -95.5 -27t-84.5 -61.5t-60 -84.5t-23 -96zM288 284q21 0 40 11t33.5 28t23 37.5t8.5 40.5
q0 16 -7 25.5t-18 14.5q-21 -37 -44.5 -77t-47.5 -80h12z" />
    <glyph glyph-name="sterling" unicode="&#xa3;" horiz-adv-x="614" 
d="M290 233q7 0 20 0.5t26 -1t22.5 -5.5t9.5 -14q0 -12 -12 -15q-5 -2 -19 -4t-33 -4.5t-41.5 -4.5t-44.5 -4q-14 -31 -29 -56.5t-29 -43.5q37 -8 74 -23.5t71.5 -30.5t66.5 -26.5t59 -11.5q11 0 21.5 3.5t21.5 3.5q8 0 12 -5.5t4 -11.5q0 -9 -8.5 -16t-20.5 -11.5t-24.5 -7
t-19.5 -2.5q-38 0 -75.5 15.5t-74 35t-73.5 37t-74 22.5h-6q-6 0 -9 2h-5q-17 0 -30 -4.5t-23 -10t-17 -10t-11 -4.5q-7 0 -12 5t-5 12q0 11 13.5 19.5t31 14.5t34.5 9t25 3h7q10 8 21 18t16 18q8 12 15 25.5t14 28.5q-20 -2 -35.5 -2.5t-22.5 -0.5h-15.5t-18.5 2.5t-15.5 7
t-6.5 13.5t12.5 15t32 9.5t44 6t48.5 3.5q22 53 46 109t56 101.5t75.5 75t103.5 29.5q25 0 48.5 -8t41.5 -23t28.5 -36.5t10.5 -48.5q0 -29 -14.5 -62t-37.5 -61t-53 -47t-60 -19q-26 0 -46 14.5t-20 42.5q0 14 8.5 30t25.5 16q8 0 11 -4t3.5 -10t-0.5 -12t-1 -10
q0 -11 8.5 -14.5t16.5 -3.5q21 0 42 11.5t38 29.5t27.5 39.5t10.5 42.5q0 39 -26.5 61t-64.5 22q-16 0 -32.5 -4t-30.5 -11h-1q-28 -15 -52 -42t-45 -60.5t-40 -71.5t-37 -75h48z" />
    <glyph glyph-name="currency" unicode="&#xa4;" horiz-adv-x="490" 
d="M488 386q0 -12 -11 -27t-27 -29.5t-34 -26.5t-32 -18q1 -5 1.5 -10.5t0.5 -10.5q0 -8 -4 -23t-10 -32t-14.5 -33t-17.5 -24q-5 -15 -22 -31q12 -18 20.5 -39.5t8.5 -32.5t-7 -18t-18 -7q-6 0 -12.5 6t-11.5 16t-10 22t-8 23q-25 -17 -50.5 -27.5t-41.5 -10.5
q-26 0 -44.5 12.5t-28.5 33.5q-12 -12 -26.5 -26t-28 -26t-23.5 -19.5t-13 -7.5q-10 0 -15.5 7t-5.5 17t11 24.5t26.5 29t33.5 26.5t33 17q1 37 22 78t54 73q-8 7 -15 19t-12.5 25t-9 24.5t-3.5 18.5q0 11 7 17.5t18 6.5q7 0 14 -9t13.5 -22t11 -28t7.5 -27q21 15 43.5 24
t45.5 9q20 0 36.5 -7.5t27.5 -21.5q12 12 27.5 27t30.5 28t26.5 22t14.5 9q8 0 15 -6.5t7 -14.5zM353 264q0 22 -14 37t-36 15q-27 0 -53.5 -15.5t-48.5 -39t-35.5 -52t-13.5 -53.5q0 -23 9.5 -39t34.5 -16q23 0 42 9.5t36 22.5q3 8 12 10l24 24q3 6 10 16t14.5 23.5t13 28
t5.5 29.5z" />
    <glyph glyph-name="yen" unicode="&#xa5;" horiz-adv-x="566" 
d="M564 422q-46 -82 -96.5 -159.5t-100.5 -157.5h1q7 0 23 0.5t33 -0.5t30 -4.5t13 -12.5q0 -4 -1 -7q-4 -11 -13 -12l-18 -2l-97 -10q-5 -8 -9.5 -16.5t-9.5 -17.5q17 -1 31.5 -5t14.5 -15q0 -3 -2 -7q-2 -5 -22 -9.5t-47 -7.5l-4 -8q3 -5 3 -10q0 -7 -5 -12.5t-13 -5.5
q-12 0 -17 10t-5 21q-34 -4 -62.5 -5.5t-37.5 -1.5q-11 0 -26 4t-15 18q0 13 20 20t46 10t51 3.5t36 0.5l13 28q-17 -1 -33 -1.5t-32 -0.5h-17t-21.5 2t-18.5 6.5t-8 13.5q0 10 15 16.5t38.5 10t51 5.5t52.5 2q17 33 41 71q-15 -14 -26.5 -23.5t-17.5 -13.5
q-15 -10 -32.5 -16.5t-36.5 -6.5q-23 0 -41 13t-18 38q0 21 12.5 46t30.5 51.5t40 54.5t40 55.5t30.5 52.5t12.5 47q0 11 -10.5 25t-23.5 15q-23 6 -45 6q-28 0 -64 -12t-68.5 -32.5t-54.5 -48.5t-22 -60q0 -14 9.5 -25.5t9.5 -22.5q0 -7 -5.5 -14.5t-13.5 -7.5
q-13 0 -22.5 7t-15.5 17.5t-9 22.5t-3 23q0 42 30 77.5t72.5 60.5t90.5 39t84 14q21 0 40.5 -5.5t35 -16.5t25 -28t9.5 -41q0 -29 -12.5 -56.5t-31 -54t-40.5 -52t-40.5 -48.5t-31 -44t-13.5 -40l4 -5h-1q0 -1 3.5 -1h4.5q10 0 19 4l18 8q40 17 75 42.5t65 57.5
q24 38 44 67.5t31 45.5q3 4 9 14t13 20t14 17.5t12 7.5q8 0 16 -5t13 -12q4 -8 4 -11z" />
    <glyph glyph-name="brokenbar" unicode="&#xa6;" horiz-adv-x="433" 
d="M20 -223q-7 0 -12 4.5t-5 11.5q0 4 11.5 29.5t28.5 61.5t38 78t40 79.5t34 66t20 37.5q5 8 11 19t16 11q6 0 12.5 -4.5t6.5 -11.5q0 -9 -13 -39.5t-32.5 -71t-42.5 -86t-44.5 -84.5t-37.5 -66.5t-21 -31.5q-5 -3 -10 -3zM248 245q-7 0 -12 4.5t-5 11.5q0 4 10 26.5t25 55
t33 69.5t35 70.5t30 59t17 33.5q5 8 11 19t16 11q7 0 13 -5t6 -12q0 -9 -11 -36.5t-28 -64t-38 -77t-39.5 -75.5t-33 -59t-19.5 -28q-5 -3 -10 -3z" />
    <glyph glyph-name="section" unicode="&#xa7;" horiz-adv-x="566" 
d="M104 103q-30 0 -45.5 -22.5t-15.5 -49.5q0 -26 11 -47.5t29 -37.5t41.5 -24.5t47.5 -8.5q19 0 38.5 7t35 19t25.5 29.5t10 38.5q0 31 -16.5 65t-36 70t-36 72.5t-16.5 71.5q0 17 7.5 40.5t20.5 44.5t30.5 36t36.5 15h1q0 32 14 63.5t37 56t53.5 39.5t63.5 15q54 0 89 -34
t35 -88q0 -24 -7.5 -50.5t-22 -48t-35.5 -35.5t-49 -14q-20 0 -38 12t-18 34q0 9 6.5 16t15.5 7q10 0 15 -10q0 -3 4 -4.5t9 -3t10 -2t8 -0.5q30 0 45.5 23t15.5 51q0 39 -23.5 68.5t-65.5 29.5q-22 0 -42.5 -9.5t-36 -25.5t-25 -36.5t-9.5 -42.5q0 -33 13 -65.5t28 -64.5
t28 -63.5t13 -61.5q0 -14 -5.5 -32.5t-15 -36t-23 -29.5t-29.5 -12q-7 0 -11 3q5 -12 7.5 -24.5t2.5 -26.5q0 -33 -14.5 -61.5t-38 -48.5t-53.5 -31.5t-62 -11.5q-30 0 -59 10t-51 28.5t-35.5 44.5t-13.5 58q0 23 7.5 48.5t22 47t35.5 35.5t47 14q20 0 38.5 -12t18.5 -35
q0 -9 -3.5 -19t-14.5 -10q-16 0 -18 15v-1q-2 8 -13.5 10t-17.5 2zM359 191q0 27 -9.5 50.5t-23 46t-27 44.5t-20.5 46q-8 -9 -18.5 -19t-20 -22.5t-16 -28t-6.5 -36.5q0 -27 9.5 -50.5t24 -45t30 -42t27.5 -42.5q1 10 9 19t17 19.5t16.5 25t7.5 35.5z" />
    <glyph glyph-name="dieresis" unicode="&#xa8;" horiz-adv-x="221" 
d="M38 501q-14 0 -25 10t-11 25t10.5 25.5t25.5 10.5t25.5 -10.5t10.5 -25.5t-11 -25t-25 -10zM183 501q-15 0 -25 10t-10 25q0 14 10 25t25 11t25.5 -10.5t10.5 -25.5t-10.5 -25t-25.5 -10z" />
    <glyph glyph-name="copyright" unicode="&#xa9;" horiz-adv-x="784" 
d="M217 -211q-50 0 -90 17.5t-67.5 48t-42.5 72.5t-15 90q0 62 23 130.5t63 135t93.5 126.5t115 105.5t128 72.5t131.5 27q49 0 90.5 -17t71.5 -47.5t46.5 -72t16.5 -90.5q0 -42 -11 -84t-29 -82t-41 -77.5t-47 -71.5q-2 -2 -4 -5.5t-4 -5.5q-32 -48 -80.5 -96.5
t-105.5 -87.5t-119.5 -63.5t-122.5 -24.5zM747 389q0 42 -14 77t-39.5 60.5t-60.5 39.5t-77 14q-60 0 -121 -24.5t-117 -66t-105.5 -96.5t-85.5 -116t-57 -124t-21 -121q0 -41 11 -76.5t32.5 -61.5t54 -41t76.5 -15q50 0 95.5 14t85 36t73.5 49.5t61.5 54t47 49t31.5 34.5
q5 11 26 42.5t44 75.5t41.5 95t18.5 101zM470 299q-8 0 -15 -5t-11.5 -12.5t-7 -16t-2.5 -15.5l1 -8l5 -9q5 -3 12 -4t13 -1q21 0 40.5 11t34 28t23.5 38t9 41q0 29 -21 38t-45 9q-50 0 -99.5 -23t-89 -61t-64 -86.5t-24.5 -98.5q0 -26 9.5 -46t25.5 -33.5t38 -21t46 -7.5
q39 0 64 18.5t42 41t29.5 41t26.5 18.5q10 0 14.5 -8.5t4.5 -17.5q0 -27 -24.5 -51.5t-58 -43.5t-69.5 -30.5t-59 -11.5q-30 0 -55 11.5t-43 31t-28.5 46t-10.5 55.5q0 57 29 115.5t75.5 106t104 77.5t114.5 30q21 0 41.5 -5t36 -15.5t25.5 -27t10 -40.5q0 -27 -15 -58.5
t-39 -57.5t-53.5 -43.5t-57.5 -17.5q-27 0 -47 15.5t-20 44.5q0 16 7.5 32.5t19.5 30t28 22t33 8.5q8 0 14.5 -3.5t6.5 -13.5q0 -12 -7.5 -14.5t-16.5 -2.5z" />
    <glyph glyph-name="ordfeminine" unicode="&#xaa;" horiz-adv-x="469" 
d="M461 562q9 9 16 9q1 0 4.5 -1t5.5 -2q6 -5 6 -14q0 -3 -2.5 -8.5t-6.5 -11.5t-7.5 -12t-6.5 -10q-15 -26 -35 -60t-37 -68.5t-29 -65.5t-12 -50q0 -9 4 -15t13 -6q17 0 39 13t45 32t45.5 42t42 42t34 32t21.5 13q6 0 10.5 -5.5t4.5 -11.5q0 -7 -15 -24.5t-38.5 -40
t-53 -47t-57.5 -45t-51.5 -33.5t-36.5 -13q-26 0 -41.5 21.5t-15.5 45.5q0 11 5 31q-38 -42 -78.5 -69.5t-78.5 -27.5q-40 0 -62.5 28t-22.5 66q0 31 13.5 65t36 66.5t52 62t62.5 52t67 35.5t65 13q8 0 21 -2t26.5 -5.5t25 -10t17.5 -15.5zM362 539q-39 0 -81.5 -22.5
t-78 -57t-58.5 -76.5t-23 -81q0 -11 2.5 -22t10.5 -19h-1q12 -11 31 -11q23 0 47 12t48 32t47.5 46t45.5 55q17 34 37 67t38 59q-16 3 -31.5 10.5t-33.5 7.5z" />
    <glyph glyph-name="guillemotleft" unicode="&#xab;" horiz-adv-x="615" 
d="M241 75q0 -7 -5 -11.5t-12 -4.5q-14 0 -33.5 19t-37.5 44.5t-30.5 52t-12.5 41.5q0 7 1 10v4q0 5 2 9q2 5 8.5 8t11.5 5q14 6 46.5 23.5t67 37t62.5 34.5t34 15q7 0 12 -5.5t5 -12.5q0 -15 -23 -34t-55 -37t-67.5 -32.5t-59.5 -21.5q7 -11 15 -24.5t14.5 -26t12.5 -23.5
t9 -16q2 -4 8 -11.5t12 -16t10.5 -16t4.5 -10.5zM421 75q0 -7 -5 -11.5t-12 -4.5q-14 0 -33.5 19t-37.5 44.5t-30.5 52t-12.5 41.5q0 7 1 10v4q0 5 2 9q2 5 8.5 8t11.5 5q14 6 46.5 23.5t67 37t62.5 34.5t34 15q7 0 12 -5.5t5 -12.5q0 -15 -23 -34t-55 -37t-67.5 -32.5
t-59.5 -21.5q7 -11 15 -24.5t14.5 -26t12.5 -23.5t9 -16q2 -4 8 -11.5t12 -16t10.5 -16t4.5 -10.5z" />
    <glyph glyph-name="logicalnot" unicode="&#xac;" horiz-adv-x="478" 
d="M363 296q9 0 24.5 1t31.5 0t27.5 -6t11.5 -16q0 -8 -6 -11q-7 -13 -22.5 -40.5t-33 -55.5t-33 -49.5t-23.5 -21.5q-6 0 -11.5 4t-5.5 11q0 3 8 20.5t19.5 40t23 45.5l18.5 37q-68 -8 -136 -13t-137 -5h-17.5t-22 1.5t-18.5 6.5t-8 14q0 10 20.5 17t51.5 11t68.5 6t72 2.5
t61 0.5h36.5z" />
    <glyph glyph-name="uni00AD" unicode="&#xad;" horiz-adv-x="427" 
d="M216 226q9 0 30.5 0.5t44.5 -1t40.5 -6.5t17.5 -16q0 -8 -6 -12q-2 -2 -19.5 -4.5t-43 -5t-55 -5t-56 -4.5t-45.5 -3t-24 -1q-10 0 -19 3t-9 16q0 14 19 22t43.5 11.5t48 4.5t33.5 1z" />
    <glyph glyph-name="registered" unicode="&#xae;" horiz-adv-x="784" 
d="M547 -66q5 -5 5 -13q0 -9 -7.5 -14t-16.5 -5q-16 0 -29 6q-64 -51 -137.5 -85t-145.5 -34q-51 0 -90.5 17.5t-67 48.5t-42 73t-14.5 91q0 62 23 130.5t63 134.5t94 126t115.5 105t127.5 72t131 27q49 0 90 -17t71 -47.5t47 -72t17 -89.5q0 -42 -11.5 -84t-30 -82.5
t-41.5 -78t-46 -71.5l-9 -13q-42 -60 -104 -118zM746 389q0 42 -14 77t-39.5 60.5t-60.5 39.5t-77 14q-60 0 -121 -24.5t-117 -66t-105.5 -96.5t-85.5 -116t-57 -124t-21 -121q0 -41 11 -76.5t32.5 -61.5t54 -41t76.5 -15q63 0 126 25.5t118 66.5q-13 13 -24 29.5t-19 34.5
t-14.5 36t-10.5 33q-5 17 -8.5 34.5t-7.5 35.5q-20 -30 -41.5 -58t-43 -49.5t-44 -34.5t-43.5 -13q-20 0 -34 9.5t-22.5 24t-12.5 32.5t-4 35q0 44 14.5 89.5t40.5 87t61 77.5t75 63t84.5 42.5t88.5 15.5q53 0 88.5 -28t35.5 -84q0 -34 -18 -70t-46.5 -65.5t-64 -48.5
t-70.5 -19h-8q2 -12 4.5 -22.5t4.5 -17.5q11 -32 25.5 -62.5t36.5 -56.5q5 -5 9.5 -9t9.5 -8q22 19 41.5 38.5t36.5 40.5q8 10 15.5 20.5t15.5 19.5l5 4q10 17 31 49.5t41.5 73.5t36 88t15.5 92zM346 195q0 11 7.5 16.5t16.5 5.5q6 0 11 -3q16 33 31.5 63.5t30.5 54.5
t30.5 38.5t32.5 14.5q8 0 13 -5.5t5 -12.5q0 -2 -5 -10.5t-11 -18t-11.5 -18t-7.5 -11.5q-13 -20 -31 -51.5t-39 -66.5q4 -1 15 -1q45 0 82.5 27.5t56.5 66.5v-1q5 10 7 21.5t2 22.5q0 38 -20.5 56t-56.5 20q-61 -3 -118 -28.5t-101.5 -68t-71.5 -98.5t-27 -119
q0 -8 0.5 -18t3.5 -20t8.5 -16.5t15.5 -6.5q22 0 41.5 11.5t37 31t33.5 45t31 53.5q-12 14 -12 26z" />
    <glyph glyph-name="macron" unicode="&#xaf;" horiz-adv-x="307" 
d="M178 544q8 0 29 0.5t42.5 -1t38 -6.5t16.5 -15t-6.5 -13.5t-14.5 -4.5q-60 -7 -129 -12.5t-129 -5.5q-8 0 -15.5 4.5t-7.5 14.5t11 17t28 11.5t38 6.5t40.5 3t35.5 1h23z" />
    <glyph glyph-name="degree" unicode="&#xb0;" horiz-adv-x="319" 
d="M127 197q-35 0 -54.5 24.5t-19.5 57.5q0 28 16 60.5t41.5 60.5t56.5 46t61 18q33 0 55.5 -21.5t22.5 -55.5q0 -7 -3.5 -21t-9.5 -29.5t-13.5 -29.5t-15.5 -22q-6 -14 -23.5 -29.5t-38.5 -28.5t-41.5 -21.5t-33.5 -8.5zM272 387q0 19 -12 31.5t-31 12.5q-23 0 -46.5 -13.5
t-42 -34.5t-30 -46t-11.5 -47q0 -17 8 -31t28 -14q16 0 31 6t27.5 14.5t22.5 18t18 17.5q2 6 8.5 15t13 20.5t11.5 24.5t5 26z" />
    <glyph glyph-name="plusminus" unicode="&#xb1;" horiz-adv-x="491" 
d="M347 388q0 -14 -17 -50.5t-41 -81.5h64q9 0 24.5 1t31.5 0t27.5 -6t11.5 -16q0 -9 -8.5 -11.5t-15.5 -3.5q-42 -5 -82 -9t-82 -8q-26 -46 -49 -84.5t-32 -53.5q-4 -7 -8.5 -13.5t-13.5 -6.5q-7 0 -11.5 4.5t-4.5 10.5q0 10 17 49.5t43 89.5q-23 -1 -46 -1.5t-46 -0.5
h-17.5t-22 1.5t-18.5 6.5t-8 14t17 15.5t44 11t60 6.5t66 3q16 30 31.5 58t29 49t23.5 34t15 13q9 0 13.5 -6.5t4.5 -14.5zM243 -14q9 0 24.5 1t31.5 0t27.5 -6t11.5 -16q0 -9 -8.5 -11.5t-15.5 -3.5q-78 -9 -157 -16t-158 -7h-17.5t-22 1.5t-18.5 6.5t-8 14q0 10 20.5 17
t51.5 11t68.5 6t72 2.5t61 0.5h36.5z" />
    <glyph glyph-name="twosuperior" unicode="&#xb2;" horiz-adv-x="379" 
d="M91 299q0 22 25 51.5t59.5 55.5t70 44t57.5 18q32 0 48 -19t16 -51q0 -30 -20.5 -64t-53 -68t-72.5 -64t-78 -52q16 -5 31.5 -8t32.5 -3t32.5 5.5t30.5 5.5q6 0 11.5 -4.5t5.5 -10.5q0 -14 -10 -23t-24 -15t-28.5 -8.5t-24.5 -2.5q-37 0 -66.5 11t-58.5 22q-20 -7 -37 -7
q-18 0 -31.5 11.5t-13.5 31.5q0 16 9.5 24t24.5 8q14 0 31.5 -5.5t37.5 -13.5q22 8 46.5 23t49.5 35t47.5 43t39.5 46t27.5 45.5t10.5 40.5v6t-2 6q-5 2 -8.5 3.5t-8.5 1.5q-35 0 -64 -22t-52.5 -48.5t-40.5 -48.5t-29 -22q-9 0 -15 6.5t-6 15.5z" />
    <glyph glyph-name="threesuperior" unicode="&#xb3;" horiz-adv-x="363" 
d="M206 454q19 0 39 3t39.5 7t36.5 7t31 3q7 0 12.5 -4t5.5 -12q0 -5 -14 -16v-1l-3 -2q-11 -8 -26.5 -18.5t-33.5 -21t-37 -21.5t-37 -20q27 -9 43 -31.5t16 -56.5q0 -29 -14.5 -61t-38 -59t-53.5 -45t-61 -18q-21 0 -39 8.5t-31 23t-20.5 33.5t-7.5 40q0 6 1 16.5t4 20.5
t8.5 17.5t13.5 7.5q9 0 12.5 -5t5 -11.5t1 -14t-0.5 -13.5q0 -29 17 -53.5t49 -24.5q21 0 40.5 11.5t34.5 29.5t24.5 39t9.5 41q0 12 -4.5 26t-12.5 25.5t-19.5 19t-25.5 7.5q-7 0 -13 -2.5t-12 -2.5q-7 0 -11.5 5.5t-4.5 11.5q0 11 24 27t57 33h-11q-9 0 -22.5 2t-26.5 6.5
t-22 12.5t-9 21q0 8 6.5 14t14.5 6q2 0 3.5 -1t3.5 -1h1l7 -3q2 -1 8 -1q8 -1 16 -3t16 -2h10z" />
    <glyph glyph-name="acute" unicode="&#xb4;" horiz-adv-x="215" 
d="M194 608q8 0 13 -5.5t5 -13.5q0 -17 -24 -40t-56 -44t-64 -35.5t-48 -14.5q-8 0 -12.5 5t-4.5 12q0 5 2 9q5 5 21 15.5t35.5 23.5t38.5 25.5t29 20.5q14 11 27 22.5t29 17.5q6 2 9 2z" />
    <glyph glyph-name="mu" unicode="&#xb5;" horiz-adv-x="407" 
d="M104 389q8 0 20 -8t12 -18q0 -6 -10.5 -24t-26 -43.5t-34 -56t-34 -61t-26 -59t-10.5 -50.5q0 -12 4.5 -16.5t16.5 -4.5q20 0 38 12.5t34 23.5q49 36 87 84q14 18 29 37t26 39q6 10 18 32.5t25.5 46t26 42.5t19.5 21q2 1 8 1q9 0 16 -6.5t7 -16.5q0 -2 -1.5 -7t-3.5 -6
q-10 -26 -34 -65t-48.5 -81t-43 -82t-18.5 -67l1 -6l2 -1q16 -1 37 11.5t44 31.5t46 41.5t42 41.5t33 32t19 13q7 0 12 -5t5 -12q0 -3 -9.5 -14t-24 -27t-32 -34t-34 -34t-29 -28.5l-16.5 -16.5q-18 -17 -41.5 -34t-49.5 -17q-24 0 -39.5 14.5t-15.5 38.5q0 14 4 27.5
t9 26.5q-14 -15 -31.5 -33.5t-38 -34t-42 -26.5t-43.5 -11q-20 0 -36 9.5t-23 29.5q-3 -9 -14 -31l-25.5 -51t-31.5 -60t-32.5 -57t-27.5 -43t-18 -17q-5 0 -10 4t-5 9q0 10 16 45t40 82t53.5 101t56.5 102.5t48 86t28 52.5q14 27 27.5 54t27.5 53q4 7 8 13.5t13 6.5z" />
    <glyph glyph-name="paragraph" unicode="&#xb6;" horiz-adv-x="692" 
d="M161 -95q-8 0 -12 5.5t-4 12.5q0 4 14 31t37.5 69.5t53.5 96t62.5 110t64.5 111.5t59.5 101t47 78t26.5 43l18 27q-26 -3 -52.5 -6.5t-51.5 -8.5q-10 -23 -33.5 -66.5t-54 -95.5t-64 -108t-63 -105.5t-52 -86t-30.5 -50.5q-5 -9 -20.5 -34.5t-32.5 -53t-33 -49t-22 -21.5
q-8 0 -12 5.5t-4 12.5q0 4 13 29.5t35 65t50.5 90t59 104t62 107t58.5 99.5q-7 10 -12.5 23.5t-9.5 27t-6 25t-2 18.5q0 23 9 43.5t29 34.5q14 10 42.5 17.5t64.5 13t76.5 9.5t78 6.5t69 3.5t50.5 1q8 0 13.5 -4.5t5.5 -12.5q0 -7 -4.5 -11.5t-10.5 -5.5q-12 -2 -40 -4.5
t-63 -7.5v-1q0 -10 -20 -48.5t-50.5 -92.5t-67 -116t-70.5 -117.5t-60 -98.5t-35 -58q-5 -9 -20.5 -34.5t-32.5 -53t-32.5 -49t-21.5 -21.5zM301 510q0 -11 2.5 -22t5.5 -22q22 36 37.5 61.5t22.5 35.5q1 1 1 2q-23 -5 -39.5 -11.5t-21.5 -13.5t-6.5 -14.5t-1.5 -15.5z" />
    <glyph glyph-name="periodcentered" unicode="&#xb7;" horiz-adv-x="258" 
d="M145 196q-18 0 -30.5 12.5t-12.5 30.5t12.5 30.5t30.5 12.5t31 -12.5t13 -30.5q0 -19 -12.5 -31t-31.5 -12z" />
    <glyph glyph-name="cedilla" unicode="&#xb8;" horiz-adv-x="284" 
d="M281 -102q0 -26 -20.5 -45.5t-49.5 -32.5t-59.5 -19.5t-51.5 -6.5q-11 0 -27.5 3t-32.5 9t-27 16t-11 24q0 17 19 17q7 0 19.5 -3.5t28 -7t32 -7t31.5 -3.5q11 0 28.5 2t34 7t28.5 15t12 25v5q-4 10 -17 15.5t-28 7.5t-30 2h-24q-8 0 -14.5 4t-6.5 14v3q0 3 11 12
q0 1 2 1q12 10 31 25.5t37.5 29t32.5 23.5t17 10q7 0 12 -5.5t5 -12.5t-20.5 -24t-44.5 -35q15 -1 30 -5.5t26.5 -12.5t19 -20.5t7.5 -29.5z" />
    <glyph glyph-name="onesuperior" unicode="&#xb9;" horiz-adv-x="262" 
d="M50 325q15 10 33.5 20t38 20.5t38.5 22t34 25.5l17 23q2 2 7 10t7 8q3 8 7 13.5t15 5.5t16 -7t5 -17q0 -5 -0.5 -9.5t-1.5 -9.5l-3 -8h1q-1 0 -1 -0.5t-1 -0.5q-6 -10 -16.5 -22.5t-15.5 -19.5q-36 -49 -69.5 -99.5t-59.5 -105.5q-3 -6 -7.5 -18.5t-10 -25t-12.5 -21.5
t-16 -9q-8 0 -10 13t-2 19q0 12 7 32t19 44t27.5 51t31.5 53q-32 -21 -61 -21q-9 0 -16.5 4.5t-7.5 15.5q0 10 7 14z" />
    <glyph glyph-name="ordmasculine" unicode="&#xba;" horiz-adv-x="369" 
d="M304 453q12 0 20.5 -5.5t14 -14.5t8 -19.5t2.5 -20.5q0 -22 -10.5 -53t-29 -64t-42.5 -65.5t-50 -58.5t-53.5 -42t-51.5 -16q-38 0 -59 24.5t-21 61.5q0 38 20 87t52.5 93t73.5 74t83 30q9 0 18 -2t11 -12q3 1 6.5 2t7.5 1zM83 185q0 -19 8 -32q2 -2 4.5 -5t6.5 -3
q10 -2 16 -2q22 0 44 12.5t42 33.5t37.5 47t30 53.5t20 53t7.5 45.5q0 11 -4.5 17t-10.5 10t-12.5 6.5t-10.5 6.5q-33 -2 -64.5 -29t-57 -65t-41 -79t-15.5 -70z" />
    <glyph glyph-name="guillemotright" unicode="&#xbb;" horiz-adv-x="582" 
d="M170 348q0 8 5.5 12t13.5 4q17 0 37 -13t37 -32t28.5 -40.5t11.5 -38.5q0 -4 -2 -10q1 -1 1 -4q0 -10 -8 -16t-25.5 -19.5t-40 -30.5t-47.5 -34.5t-47.5 -32t-39.5 -24t-23 -9.5q-8 0 -13 5.5t-5 13.5q0 10 23.5 31t56.5 44.5t68 45.5t59 33q-7 9 -14 20t-13.5 21.5
t-12.5 19.5t-10 14q-3 4 -10 9t-13.5 10.5t-11.5 10.5t-5 10zM320 348q0 8 5.5 12t13.5 4q17 0 37 -13t37 -32t28.5 -40.5t11.5 -38.5q0 -4 -2 -10q1 -1 1 -4q0 -10 -8 -16t-25.5 -19.5t-40 -30.5t-47.5 -34.5t-47.5 -32t-39 -24t-23.5 -9.5q-8 0 -13 5.5t-5 13.5
q0 10 23.5 31t56.5 44.5t68 45.5t59 33q-7 9 -14 20t-13.5 21.5t-12.5 19.5t-10 14q-3 4 -10 9t-13.5 10.5t-11.5 10.5t-5 10z" />
    <glyph glyph-name="onequarter" unicode="&#xbc;" horiz-adv-x="635" 
d="M428 262q0 -9 -11.5 -27.5t-29.5 -41t-38.5 -47t-38.5 -45.5q26 4 51 7t45 5q13 37 30 75t34 69t33.5 50.5t28.5 19.5q10 0 16 -7.5t6 -16.5q0 -8 -9.5 -25.5t-24.5 -42.5t-32.5 -56t-33.5 -64q14 -2 28 -7.5t14 -19.5l-3 -9q-7 -6 -15.5 -10.5t-18.5 -4.5h-13.5t-13.5 1
q-11 -29 -17.5 -56.5t-6.5 -53.5q0 -17 -19 -17q-6 0 -9.5 5.5t-5.5 12.5t-2.5 14.5t-0.5 11.5q0 13 5.5 35.5t14.5 51.5q-5 1 -9 1h-8q-6 0 -18 -1.5t-26.5 -3.5t-30.5 -5t-31 -7q-11 -11 -24 -20t-29 -9q-13 0 -25 8t-12 22q0 11 8 18t17 11q4 2 15.5 4t27.5 4
q27 20 50.5 52.5t43.5 64t36.5 54t30.5 22.5q9 0 15 -6.5t6 -15.5zM18 -49q-8 0 -11.5 6t-3.5 12q0 4 3 8t5 7q10 14 19 27.5t20 27.5q98 125 215 230q12 11 33 29.5t47.5 40.5t55.5 44.5t56.5 41t50.5 30t37 11.5q7 0 11 -6.5t4 -12.5l-3 -10q-2 -4 -18 -16.5t-39.5 -30.5
t-52 -39t-54 -40t-46 -34t-28.5 -21q-76 -63 -144.5 -132.5t-127.5 -148.5l-12 -16t-17 -8zM59 325q13 10 32 20t39.5 21t40 22.5t34.5 25.5q8 12 15.5 22l13.5 18q3 8 7 13.5t15 5.5q10 0 15 -7.5t5 -15.5q0 -5 -0.5 -10t-1.5 -10q0 -4 -3 -8h1l-1 -1q-6 -10 -16.5 -22.5
t-15.5 -19.5q-36 -49 -70 -99.5t-60 -105.5q-3 -7 -7 -19.5t-9.5 -24.5t-12.5 -21t-17 -9q-4 0 -6 4t-3 9.5t-1.5 10.5t-0.5 8q0 12 7 31.5t18.5 43.5t27 50.5t32.5 53.5q-15 -9 -30.5 -14.5t-31.5 -5.5q-9 0 -16.5 4t-7.5 15q0 10 8 15z" />
    <glyph glyph-name="onehalf" unicode="&#xbd;" horiz-adv-x="652" 
d="M280 143q0 23 25.5 52t60 55t71 44t58.5 18q31 0 46 -19.5t15 -48.5q0 -30 -20.5 -64.5t-53 -68.5t-72 -64.5t-77.5 -52.5q16 -5 31.5 -8t31.5 -3q17 0 32.5 5t29.5 5q7 0 13 -3.5t6 -11.5q0 -13 -9.5 -22.5t-23 -15.5t-28.5 -8.5t-25 -2.5q-36 0 -66.5 11t-61.5 23
q-10 -3 -18 -5t-16 -2q-19 0 -32.5 11t-13.5 31q0 33 34 33q14 0 31 -6t37 -14q33 12 71.5 39.5t72 61t55.5 69t22 62.5l-1 11q-2 7 -13 7q-39 0 -69 -22t-53 -48t-39.5 -48t-28.5 -22q-9 0 -15.5 6t-6.5 16zM18 -49q-8 0 -11.5 6t-3.5 12q0 4 3 8t5 7q10 14 19 27.5
t20 27.5q48 62 102.5 120t112.5 110q11 10 32.5 28.5t48 40.5t56 45t56.5 41.5t50 30t37 11.5q7 0 11.5 -6t4.5 -12q0 -5 -4 -11t-20.5 -19t-39.5 -30.5t-50 -37t-52 -38t-45.5 -33.5t-30.5 -23q-75 -62 -144.5 -132t-127.5 -149l-12 -16t-17 -8zM65 325q13 10 31.5 20
t38 20.5t39 21.5t34.5 24q10 15 18.5 26t13.5 17q2 8 5.5 13.5t15.5 5.5q11 0 16 -7.5t5 -16.5q0 -5 -0.5 -9.5t-1.5 -9.5q0 -4 -3 -8h1q-1 0 -1 -0.5t-1 -0.5q-6 -10 -16.5 -23t-14.5 -19q-36 -50 -70 -99.5t-60 -105.5q-3 -7 -7.5 -19.5t-10 -24.5t-12.5 -21t-16 -9
q-6 0 -9 10.5t-3 15.5q0 13 7 34t19 45.5t27 52t32 54.5q-32 -21 -61 -21q-9 0 -16.5 4t-7.5 15q0 9 8 15z" />
    <glyph glyph-name="threequarters" unicode="&#xbe;" horiz-adv-x="737" 
d="M529 262q0 -9 -11.5 -28t-29.5 -41.5t-38.5 -47t-38.5 -44.5q26 4 50.5 7t44.5 5q14 37 30.5 75t34 69t33.5 50.5t29 19.5q10 0 16 -8t6 -16t-9.5 -25.5t-24.5 -42.5t-32.5 -56t-33.5 -64q14 -2 28 -8t14 -19l-3 -9q-8 -6 -15.5 -10.5t-18.5 -4.5h-13.5t-13.5 1
q-11 -29 -17.5 -56.5t-6.5 -53.5q0 -17 -19 -17q-6 0 -10 5.5t-5.5 12.5t-2 14.5t-0.5 11.5q0 13 5 35.5t14 51.5q-4 1 -8 1h-9q-6 0 -18 -1.5t-26.5 -3.5t-31 -5.5t-31.5 -6.5q-10 -11 -23 -20t-29 -9q-13 0 -24.5 8t-11.5 22q0 11 8 18t17 11q4 2 15.5 4t28.5 5
q27 20 50 52.5t42.5 63.5t36 53.5t31.5 22.5q9 0 15 -6.5t6 -15.5zM196 454q19 0 39 3t39.5 7t36.5 7t31 3q7 0 12.5 -4t5.5 -12q0 -5 -13 -16q0 -1 1 -1l-7 -3q-22 -17 -59.5 -39t-72.5 -41q27 -9 43 -31.5t16 -56.5q0 -29 -14.5 -61t-38 -59t-53.5 -45t-61 -18
q-21 0 -39 8.5t-31 23t-20.5 33.5t-7.5 40q0 6 1 16.5t4 20.5t8.5 17.5t13.5 7.5q9 0 12.5 -5t5 -12t1 -14.5t-0.5 -12.5q0 -14 4.5 -28t13 -25t20.5 -18t28 -7q30 0 54 21t40 45h-1q7 13 11.5 26.5t4.5 28.5q0 12 -4.5 26t-13 25.5t-20 19t-24.5 7.5q-7 0 -13 -2.5
t-12 -2.5q-7 0 -11.5 5.5t-4.5 11.5q0 11 24 27t57 33h-11q-9 0 -22.5 1.5t-26 6t-21.5 12.5t-9 21q0 8 6 14.5t14 6.5q2 0 4 -1t4 -1l7 -3q2 -1 8 -1q8 -1 16 -3t16 -2h10zM658 437q-12 -15 -43.5 -39t-68 -50t-71.5 -51t-55 -41q-62 -51 -119 -106t-108 -117
q-5 -6 -15 -19.5t-21 -27.5t-21.5 -24.5t-16.5 -10.5q-8 0 -11.5 6t-3.5 12q0 5 2.5 8t5.5 7q11 14 19.5 27.5t19.5 27.5q98 125 215 230q12 10 33.5 29t47.5 41t55.5 44.5t56.5 41t49.5 30t36.5 11.5q7 0 11.5 -6t4.5 -13q0 -1 -1 -4.5t-2 -5.5z" />
    <glyph glyph-name="questiondown" unicode="&#xbf;" horiz-adv-x="422" 
d="M317 186q0 -31 -13 -63t-35.5 -58t-51.5 -42.5t-62 -16.5q-29 0 -51 12.5t-37.5 32.5t-23.5 45.5t-8 51.5q0 41 14 71t36.5 51.5t51.5 38.5t59 32.5t59 32.5t51 40q4 4 9.5 11t11.5 14t12 12t11 5q7 0 12 -4.5t5 -11.5q0 -5 -1.5 -9t-3.5 -8q-15 -38 -41 -61.5t-57 -39.5
t-62.5 -28.5t-57.5 -30t-42.5 -43.5t-16.5 -68q0 -18 5.5 -36.5t16 -32.5t26 -23t35.5 -9q22 0 40.5 9.5t32 25t21 35t7.5 40.5q0 19 -5.5 37t-5.5 36q0 8 5.5 13t13.5 5q11 0 18.5 -7t12.5 -17.5t7 -21.5t2 -20zM409 651q19 0 31 -12t12 -31q0 -18 -12.5 -30.5t-30.5 -12.5
t-30.5 12.5t-12.5 30.5q0 19 12 31t31 12z" />
    <glyph glyph-name="Agrave" unicode="&#xc0;" horiz-adv-x="1053" 
d="M253 223q-17 0 -34 7t-35 7q-28 0 -52.5 -11.5t-43 -31t-29.5 -45t-11 -52.5q0 -32 12.5 -56.5t33 -41.5t47.5 -26t57 -9q41 0 88 15.5t96 42t98 60.5t95 70q-23 15 -37 34t-14 44q0 15 7 26t17.5 18.5t24 11.5t26.5 4q25 0 49 -9t44 -23l4 -3l63 62q36 37 69 76t66.5 78
t67.5 76.5t72 72.5q18 17 41 31.5t49 14.5q32 0 32 -30q0 -1 -8 -12.5t-17.5 -26t-18.5 -27.5t-11 -17q-60 -103 -110.5 -211.5t-98.5 -218.5q26 2 51 5.5t51 8.5q2 0 6.5 1t9.5 2t9 2t5 1q19 0 19 -17q0 -9 -17.5 -15.5t-43 -11t-54.5 -7.5t-51 -4l-48 -108q-3 -7 -7 -17.5
t-9.5 -20.5t-12.5 -17.5t-16 -7.5q-24 0 -24 26q0 19 3.5 37.5t3.5 38.5q0 33 -17 76q-32 5 -67 13.5t-66 21.5q-45 -37 -98 -75.5t-108 -69.5t-109.5 -51t-102.5 -20q-39 0 -74.5 11t-62.5 33t-43 54t-16 73q0 38 14 74.5t38.5 65t58.5 46t73 17.5q9 0 24.5 -2t30.5 -6.5
t26 -13t11 -20.5q0 -11 -8 -17t-18 -6zM837 121h2q25 55 54.5 118t59 124.5t58 117.5t51.5 98q-21 -19 -45.5 -44t-46.5 -49t-39.5 -44.5t-25.5 -29.5q-43 -48 -86.5 -95t-90.5 -91q38 -44 56 -103q14 -1 27.5 -1.5t25.5 -0.5zM659 221q-16 12 -32.5 19t-33.5 7
q-16 0 -28 -9q-4 -8 -4 -12q0 -10 6.5 -18.5t13.5 -14.5q5 -5 11 -9t12 -9q14 12 28 23.5t27 22.5zM690 192q-20 -19 -44 -38q20 -8 42 -14t45 -10q-9 17 -19.5 32.5t-23.5 29.5zM793 89q3 -12 5 -24t4 -25l22 47zM1183 711q0 -7 -5.5 -12t-12.5 -5q-8 0 -13 7q-3 4 -11 27
t-16.5 50.5t-15 51.5t-6.5 29q0 9 5.5 16.5t15.5 7.5q15 0 26 -22.5t18.5 -52t11 -57.5t3.5 -40z" />
    <glyph glyph-name="Aacute" unicode="&#xc1;" horiz-adv-x="1053" 
d="M253 223q-17 0 -34 7t-35 7q-28 0 -52.5 -11.5t-43 -31t-29.5 -45t-11 -52.5q0 -32 12.5 -56.5t33 -41.5t47.5 -26t57 -9q41 0 88 15.5t96 42t98 60.5t95 70q-23 15 -37 34t-14 44q0 15 7 26t17.5 18.5t24 11.5t26.5 4q25 0 49 -9t44 -23l4 -3l63 62q36 37 69 76t66.5 78
t67.5 76.5t72 72.5q18 17 41 31.5t49 14.5q32 0 32 -30q0 -1 -8 -12.5t-17.5 -26t-18.5 -27.5t-11 -17q-60 -103 -110.5 -211.5t-98.5 -218.5q26 2 51 5.5t51 8.5q2 0 6.5 1t9.5 2t9 2t5 1q19 0 19 -17q0 -9 -17.5 -15.5t-43 -11t-54.5 -7.5t-51 -4l-48 -108q-3 -7 -7 -17.5
t-9.5 -20.5t-12.5 -17.5t-16 -7.5q-24 0 -24 26q0 19 3.5 37.5t3.5 38.5q0 33 -17 76q-32 5 -67 13.5t-66 21.5q-45 -37 -98 -75.5t-108 -69.5t-109.5 -51t-102.5 -20q-39 0 -74.5 11t-62.5 33t-43 54t-16 73q0 38 14 74.5t38.5 65t58.5 46t73 17.5q9 0 24.5 -2t30.5 -6.5
t26 -13t11 -20.5q0 -11 -8 -17t-18 -6zM837 121h2q25 55 54.5 118t59 124.5t58 117.5t51.5 98q-21 -19 -45.5 -44t-46.5 -49t-39.5 -44.5t-25.5 -29.5q-43 -48 -86.5 -95t-90.5 -91q38 -44 56 -103q14 -1 27.5 -1.5t25.5 -0.5zM659 221q-16 12 -32.5 19t-33.5 7
q-16 0 -28 -9q-4 -8 -4 -12q0 -10 6.5 -18.5t13.5 -14.5q5 -5 11 -9t12 -9q14 12 28 23.5t27 22.5zM690 192q-20 -19 -44 -38q20 -8 42 -14t45 -10q-9 17 -19.5 32.5t-23.5 29.5zM793 89q3 -12 5 -24t4 -25l22 47zM1260 858q8 0 13 -5.5t5 -13.5q0 -17 -24 -40t-56 -44
t-64 -35.5t-48 -14.5q-8 0 -12.5 5t-4.5 12q0 5 2 9q5 5 21 15.5t35.5 23.5t38.5 25.5t29 20.5q14 11 27 22.5t29 17.5q6 2 9 2z" />
    <glyph glyph-name="Acircumflex" unicode="&#xc2;" horiz-adv-x="1053" 
d="M253 223q-17 0 -34 7t-35 7q-28 0 -52.5 -11.5t-43 -31t-29.5 -45t-11 -52.5q0 -32 12.5 -56.5t33 -41.5t47.5 -26t57 -9q41 0 88 15.5t96 42t98 60.5t95 70q-23 15 -37 34t-14 44q0 15 7 26t17.5 18.5t24 11.5t26.5 4q25 0 49 -9t44 -23l4 -3l63 62q36 37 69 76t66.5 78
t67.5 76.5t72 72.5q18 17 41 31.5t49 14.5q32 0 32 -30q0 -1 -8 -12.5t-17.5 -26t-18.5 -27.5t-11 -17q-60 -103 -110.5 -211.5t-98.5 -218.5q26 2 51 5.5t51 8.5q2 0 6.5 1t9.5 2t9 2t5 1q19 0 19 -17q0 -9 -17.5 -15.5t-43 -11t-54.5 -7.5t-51 -4l-48 -108q-3 -7 -7 -17.5
t-9.5 -20.5t-12.5 -17.5t-16 -7.5q-24 0 -24 26q0 19 3.5 37.5t3.5 38.5q0 33 -17 76q-32 5 -67 13.5t-66 21.5q-45 -37 -98 -75.5t-108 -69.5t-109.5 -51t-102.5 -20q-39 0 -74.5 11t-62.5 33t-43 54t-16 73q0 38 14 74.5t38.5 65t58.5 46t73 17.5q9 0 24.5 -2t30.5 -6.5
t26 -13t11 -20.5q0 -11 -8 -17t-18 -6zM837 121h2q25 55 54.5 118t59 124.5t58 117.5t51.5 98q-21 -19 -45.5 -44t-46.5 -49t-39.5 -44.5t-25.5 -29.5q-43 -48 -86.5 -95t-90.5 -91q38 -44 56 -103q14 -1 27.5 -1.5t25.5 -0.5zM659 221q-16 12 -32.5 19t-33.5 7
q-16 0 -28 -9q-4 -8 -4 -12q0 -10 6.5 -18.5t13.5 -14.5q5 -5 11 -9t12 -9q14 12 28 23.5t27 22.5zM690 192q-20 -19 -44 -38q20 -8 42 -14t45 -10q-9 17 -19.5 32.5t-23.5 29.5zM793 89q3 -12 5 -24t4 -25l22 47zM1195 860q8 0 12 -6.5t5.5 -15.5t1.5 -18.5v-14.5
q2 -23 6.5 -47t4.5 -47q0 -8 -5 -13t-13 -5q-7 0 -12 10.5t-8.5 27t-5.5 35.5t-3 36q-17 -17 -38.5 -35.5t-44 -34t-43.5 -26t-37 -10.5q-8 0 -13.5 5t-5.5 13q0 4 13.5 16.5t34.5 28.5t46 34t47 33t38 24.5t20 9.5z" />
    <glyph glyph-name="Atilde" unicode="&#xc3;" horiz-adv-x="1053" 
d="M253 223q-17 0 -34 7t-35 7q-28 0 -52.5 -11.5t-43 -31t-29.5 -45t-11 -52.5q0 -32 12.5 -56.5t33 -41.5t47.5 -26t57 -9q41 0 88 15.5t96 42t98 60.5t95 70q-23 15 -37 34t-14 44q0 15 7 26t17.5 18.5t24 11.5t26.5 4q25 0 49 -9t44 -23l4 -3l63 62q36 37 69 76t66.5 78
t67.5 76.5t72 72.5q18 17 41 31.5t49 14.5q32 0 32 -30q0 -1 -8 -12.5t-17.5 -26t-18.5 -27.5t-11 -17q-60 -103 -110.5 -211.5t-98.5 -218.5q26 2 51 5.5t51 8.5q2 0 6.5 1t9.5 2t9 2t5 1q19 0 19 -17q0 -9 -17.5 -15.5t-43 -11t-54.5 -7.5t-51 -4l-48 -108q-3 -7 -7 -17.5
t-9.5 -20.5t-12.5 -17.5t-16 -7.5q-24 0 -24 26q0 19 3.5 37.5t3.5 38.5q0 33 -17 76q-32 5 -67 13.5t-66 21.5q-45 -37 -98 -75.5t-108 -69.5t-109.5 -51t-102.5 -20q-39 0 -74.5 11t-62.5 33t-43 54t-16 73q0 38 14 74.5t38.5 65t58.5 46t73 17.5q9 0 24.5 -2t30.5 -6.5
t26 -13t11 -20.5q0 -11 -8 -17t-18 -6zM837 121h2q25 55 54.5 118t59 124.5t58 117.5t51.5 98q-21 -19 -45.5 -44t-46.5 -49t-39.5 -44.5t-25.5 -29.5q-43 -48 -86.5 -95t-90.5 -91q38 -44 56 -103q14 -1 27.5 -1.5t25.5 -0.5zM659 221q-16 12 -32.5 19t-33.5 7
q-16 0 -28 -9q-4 -8 -4 -12q0 -10 6.5 -18.5t13.5 -14.5q5 -5 11 -9t12 -9q14 12 28 23.5t27 22.5zM690 192q-20 -19 -44 -38q20 -8 42 -14t45 -10q-9 17 -19.5 32.5t-23.5 29.5zM793 89q3 -12 5 -24t4 -25l22 47zM1095 820q19 0 35 -11t28.5 -24t22.5 -24t19 -11
q12 0 21.5 9t17 20.5t14.5 20.5t15 9q6 0 12 -4t6 -11q0 -10 -11 -24.5t-26 -27.5t-31 -22.5t-27 -9.5q-21 0 -36.5 11t-27.5 23.5t-22 23.5t-19 11q-12 0 -21.5 -9t-17 -19.5t-14 -19.5t-13.5 -9q-8 0 -13.5 5t-5.5 12q0 10 10.5 23.5t25.5 26.5t31 22t27 9z" />
    <glyph glyph-name="Adieresis" unicode="&#xc4;" horiz-adv-x="1053" 
d="M253 223q-17 0 -34 7t-35 7q-28 0 -52.5 -11.5t-43 -31t-29.5 -45t-11 -52.5q0 -32 12.5 -56.5t33 -41.5t47.5 -26t57 -9q41 0 88 15.5t96 42t98 60.5t95 70q-23 15 -37 34t-14 44q0 15 7 26t17.5 18.5t24 11.5t26.5 4q25 0 49 -9t44 -23l4 -3l63 62q36 37 69 76t66.5 78
t67.5 76.5t72 72.5q18 17 41 31.5t49 14.5q32 0 32 -30q0 -1 -8 -12.5t-17.5 -26t-18.5 -27.5t-11 -17q-60 -103 -110.5 -211.5t-98.5 -218.5q26 2 51 5.5t51 8.5q2 0 6.5 1t9.5 2t9 2t5 1q19 0 19 -17q0 -9 -17.5 -15.5t-43 -11t-54.5 -7.5t-51 -4l-48 -108q-3 -7 -7 -17.5
t-9.5 -20.5t-12.5 -17.5t-16 -7.5q-24 0 -24 26q0 19 3.5 37.5t3.5 38.5q0 33 -17 76q-32 5 -67 13.5t-66 21.5q-45 -37 -98 -75.5t-108 -69.5t-109.5 -51t-102.5 -20q-39 0 -74.5 11t-62.5 33t-43 54t-16 73q0 38 14 74.5t38.5 65t58.5 46t73 17.5q9 0 24.5 -2t30.5 -6.5
t26 -13t11 -20.5q0 -11 -8 -17t-18 -6zM837 121h2q25 55 54.5 118t59 124.5t58 117.5t51.5 98q-21 -19 -45.5 -44t-46.5 -49t-39.5 -44.5t-25.5 -29.5q-43 -48 -86.5 -95t-90.5 -91q38 -44 56 -103q14 -1 27.5 -1.5t25.5 -0.5zM659 221q-16 12 -32.5 19t-33.5 7
q-16 0 -28 -9q-4 -8 -4 -12q0 -10 6.5 -18.5t13.5 -14.5q5 -5 11 -9t12 -9q14 12 28 23.5t27 22.5zM690 192q-20 -19 -44 -38q20 -8 42 -14t45 -10q-9 17 -19.5 32.5t-23.5 29.5zM793 89q3 -12 5 -24t4 -25l22 47zM1067 731q-14 0 -25 10t-11 25t10.5 25.5t25.5 10.5
t25.5 -10.5t10.5 -25.5t-11 -25t-25 -10zM1212 731q-15 0 -25 10t-10 25q0 14 10 25t25 11t25.5 -10.5t10.5 -25.5t-10.5 -25t-25.5 -10z" />
    <glyph glyph-name="Aring" unicode="&#xc5;" horiz-adv-x="1053" 
d="M253 223q-17 0 -34 7t-35 7q-28 0 -52.5 -11.5t-43 -31t-29.5 -45t-11 -52.5q0 -32 12.5 -56.5t33 -41.5t47.5 -26t57 -9q41 0 88 15.5t96 42t98 60.5t95 70q-23 15 -37 34t-14 44q0 15 7 26t17.5 18.5t24 11.5t26.5 4q25 0 49 -9t44 -23l4 -3l63 62q36 37 69 76t66.5 78
t67.5 76.5t72 72.5q8 8 17 15t19 13q-15 18 -15 47q0 21 8.5 41.5t23.5 36.5t34.5 26t41.5 10q32 0 51.5 -21t19.5 -52q0 -17 -6.5 -33.5t-17.5 -31t-26 -25t-32 -16.5l-51 -77q-60 -103 -110.5 -211.5t-98.5 -218.5q26 2 51 5.5t51 8.5q2 0 6.5 1t9.5 2t9 2t5 1
q19 0 19 -17q0 -9 -17.5 -15.5t-43 -11t-54.5 -7.5t-51 -4l-48 -108q-3 -7 -7 -17.5t-9.5 -20.5t-12.5 -17.5t-16 -7.5q-24 0 -24 26q0 19 3.5 37.5t3.5 38.5q0 33 -17 76q-32 5 -67 13.5t-66 21.5q-45 -37 -98 -75.5t-108 -69.5t-109.5 -51t-102.5 -20q-39 0 -74.5 11
t-62.5 33t-43 54t-16 73q0 38 14 74.5t38.5 65t58.5 46t73 17.5q9 0 24.5 -2t30.5 -6.5t26 -13t11 -20.5q0 -11 -8 -17t-18 -6zM837 121h2q25 55 54.5 118t59 124.5t58 117.5t51.5 98q-21 -19 -45.5 -44t-46.5 -49t-39.5 -44.5t-25.5 -29.5q-43 -48 -86.5 -95t-90.5 -91
q38 -44 56 -103q14 -1 27.5 -1.5t25.5 -0.5zM1165 771q-12 0 -23 -5.5t-20 -14.5t-14.5 -20t-5.5 -22q0 -17 10.5 -28.5t27.5 -11.5q12 0 23 6t19.5 15.5t13 21t4.5 23.5q0 16 -10 26t-25 10zM659 221q-16 12 -32.5 19t-33.5 7q-16 0 -28 -9q-4 -8 -4 -12q0 -10 6.5 -18.5
t13.5 -14.5q5 -5 11 -9t12 -9q14 12 28 23.5t27 22.5zM690 192q-20 -19 -44 -38q20 -8 42 -14t45 -10q-9 17 -19.5 32.5t-23.5 29.5zM793 89q3 -12 5 -24t4 -25l22 47z" />
    <glyph glyph-name="AE" unicode="&#xc6;" horiz-adv-x="1527" 
d="M1488 556q0 19 -11 31t-26.5 18.5t-34 9t-33.5 2.5q-21 0 -46.5 -3.5t-48.5 -13t-40.5 -25.5t-21.5 -41q2 -20 13.5 -36.5t27.5 -27.5q8 0 15 0.5t15 0.5q6 0 18.5 -1t24 -5t19.5 -10.5t6 -16.5q-2 -19 -13 -27t-28 -8q-30 0 -58 17q-62 -2 -121.5 -20.5t-110 -52.5
t-87.5 -83t-53 -112q-2 -6 -3 -12.5t-2 -12.5q15 2 30.5 3.5t30.5 3.5q18 2 39.5 7.5t38.5 5.5q7 0 14 -3t7 -12t-14.5 -16t-37 -12t-51 -9t-55.5 -7q6 -33 25 -57t46 -40t58.5 -23.5t63.5 -7.5q52 0 100.5 17.5t90.5 46.5q20 14 46 37.5t49 50.5t38.5 56.5t15.5 55.5
q0 21 -9 37.5t-24 27.5t-33.5 16.5t-37.5 5.5q-11 0 -21 -3t-20 -3q-6 0 -11 5.5t-5 11.5q0 8 6.5 12.5t15 6.5t17.5 2.5t15 0.5q29 0 55.5 -9t46.5 -26t31.5 -41t11.5 -55q0 -43 -18.5 -81.5t-49 -70.5t-70 -57t-82.5 -42.5t-85.5 -27t-79.5 -9.5q-39 0 -79 9.5t-73 29
t-56 49.5t-29 71q-17 -2 -29 -2h-17q-18 0 -41 2t-47.5 6t-49 11t-46.5 17q-55 -45 -114 -82.5t-123 -66.5q-42 -20 -86.5 -33t-91.5 -13q-37 0 -71 11t-60.5 32t-42 52t-15.5 71q0 37 13.5 73t38 65t57.5 47t72 18q9 0 25.5 -3.5t33.5 -9.5t29.5 -14.5t12.5 -19.5t-7 -14
t-15 -3q-16 0 -34 6.5t-37 6.5q-29 0 -55.5 -12t-46.5 -32.5t-32 -47t-12 -55.5q0 -32 14.5 -55t37 -38t50.5 -22t56 -7q46 0 91 13t90 36.5t89.5 55t88.5 69.5q-18 15 -28.5 35.5t-10.5 46.5q0 11 5 22t18 11q10 0 15 -7.5t10.5 -18.5t12.5 -25.5t21 -27.5q83 75 163.5 157
t158.5 151t153.5 114t147.5 45q7 0 19.5 -0.5t21.5 -5.5q29 13 59.5 19t56.5 6q22 0 47 -4.5t46 -15.5t35 -29.5t14 -45.5q0 -6 -1.5 -15t-4.5 -17.5t-8.5 -14.5t-13.5 -6t-11 4t-4 9.5t-0.5 11.5t0.5 11zM826 125h12q4 66 39 123t89 101t120 73t131 41q-13 17 -20 36t-7 39
q0 23 10 42.5t27 33.5q-45 -3 -94.5 -31.5t-96.5 -66.5t-88.5 -79t-71.5 -71q-54 -54 -109 -107.5t-114 -104.5q41 -17 85 -23t88 -6z" />
    <glyph glyph-name="Ccedilla" unicode="&#xc7;" horiz-adv-x="640" 
d="M281 -186q0 -26 -20.5 -45.5t-49.5 -32.5t-59.5 -19.5t-51.5 -6.5q-11 0 -27.5 3t-32.5 9t-27 16t-11 24q0 17 19 17q7 0 19.5 -3.5t28 -7t32 -7t31.5 -3.5q11 0 28.5 2t34 7t28.5 15t12 25v5q-4 10 -17 15.5t-28 7.5t-30 2h-24q-8 0 -14.5 4t-6.5 14v3q0 3 11 12
q0 1 2 1q11 10 28.5 23.5t34.5 27.5q-42 5 -76.5 24.5t-59.5 49t-38.5 67.5t-13.5 82q0 61 21 124t57.5 121t86 108.5t106.5 88t119.5 59t124.5 21.5q32 0 62.5 -6.5t54.5 -22t39 -40.5t15 -62q0 -44 -23 -91.5t-59 -88t-81 -66.5t-90 -26q-40 0 -68.5 21t-28.5 64
q0 25 10.5 50t28.5 44.5t41.5 32t49.5 12.5q11 0 15 -4.5t4 -15.5q0 -10 -9.5 -11.5t-15.5 -1.5q-16 0 -30 -10t-24 -24.5t-15.5 -31t-5.5 -30.5q0 -30 17.5 -38.5t43.5 -8.5q37 0 72 20t62 50.5t43.5 68.5t16.5 74q0 27 -10.5 45t-27.5 28t-39 14t-45 4q-57 0 -113.5 -18.5
t-109 -50.5t-97.5 -76.5t-78.5 -95.5t-52.5 -107.5t-19 -113.5q0 -44 14.5 -78.5t41 -59.5t62.5 -38t79 -13q37 0 73 12t67.5 33t56.5 49.5t42 61.5q6 12 11 25.5t16 21.5q4 3 11 3q12 0 16 -9.5t4 -19.5q0 -40 -31 -77t-76.5 -67t-97 -50t-92.5 -26q-9 -8 -22.5 -18.5
t-27.5 -21.5q15 -1 30 -5.5t26.5 -12.5t19 -20.5t7.5 -29.5z" />
    <glyph glyph-name="Egrave" unicode="&#xc8;" horiz-adv-x="687" 
d="M651 553q0 19 -11 31t-27.5 18.5t-35 8.5t-33.5 2q-19 0 -45 -4.5t-50 -15t-40.5 -27t-16.5 -41.5q0 -18 9 -33t23 -26q8 0 16.5 0.5t16.5 0.5q10 0 21 -1t21.5 -4t18 -10t9.5 -19q-5 -30 -33 -30q-27 0 -52 12q-59 -2 -116 -16.5t-107.5 -43t-90 -71t-62.5 -99.5
q-6 -15 -11 -36t-5 -38q0 -40 19 -68.5t48 -47t65 -27t70 -8.5q48 0 106 19.5t107.5 53.5t83 79.5t33.5 98.5q0 22 -9 38.5t-23.5 28t-33.5 17t-39 5.5q-26 0 -54 -11t-51.5 -30t-38.5 -44t-15 -53q0 -13 4 -20.5t9.5 -12.5t9.5 -8.5t4 -8.5q0 -6 -3.5 -12.5t-11.5 -6.5
q-11 0 -19 7t-13 17.5t-8 22t-3 20.5q0 37 18.5 70.5t48 59.5t65.5 41.5t71 15.5q27 0 52 -9.5t44.5 -26t31.5 -40.5t12 -52q0 -29 -12 -58t-31 -55t-42 -49t-44 -41q-56 -45 -124 -73t-141 -28q-42 0 -83.5 11.5t-75 34.5t-54 58t-20.5 83q0 47 18.5 90t44.5 81
q55 81 138 127.5t177 60.5q-14 17 -22 35.5t-8 38.5q0 34 21.5 58.5t52 40t65.5 22.5t62 7q22 0 47 -4.5t46 -15.5t35 -29.5t14 -45.5q0 -6 -1.5 -15t-5 -17.5t-9 -14.5t-12.5 -6q-8 0 -11.5 4t-4 10t0 12.5t0.5 11.5zM641 714q0 -7 -5.5 -12t-12.5 -5q-8 0 -13 7
q-3 4 -11 27t-16.5 50.5t-15 51.5t-6.5 29q0 9 5.5 16.5t15.5 7.5q15 0 26 -22.5t18.5 -52t11 -57.5t3.5 -40z" />
    <glyph glyph-name="Eacute" unicode="&#xc9;" horiz-adv-x="687" 
d="M651 553q0 19 -11 31t-27.5 18.5t-35 8.5t-33.5 2q-19 0 -45 -4.5t-50 -15t-40.5 -27t-16.5 -41.5q0 -18 9 -33t23 -26q8 0 16.5 0.5t16.5 0.5q10 0 21 -1t21.5 -4t18 -10t9.5 -19q-5 -30 -33 -30q-27 0 -52 12q-59 -2 -116 -16.5t-107.5 -43t-90 -71t-62.5 -99.5
q-6 -15 -11 -36t-5 -38q0 -40 19 -68.5t48 -47t65 -27t70 -8.5q48 0 106 19.5t107.5 53.5t83 79.5t33.5 98.5q0 22 -9 38.5t-23.5 28t-33.5 17t-39 5.5q-26 0 -54 -11t-51.5 -30t-38.5 -44t-15 -53q0 -13 4 -20.5t9.5 -12.5t9.5 -8.5t4 -8.5q0 -6 -3.5 -12.5t-11.5 -6.5
q-11 0 -19 7t-13 17.5t-8 22t-3 20.5q0 37 18.5 70.5t48 59.5t65.5 41.5t71 15.5q27 0 52 -9.5t44.5 -26t31.5 -40.5t12 -52q0 -29 -12 -58t-31 -55t-42 -49t-44 -41q-56 -45 -124 -73t-141 -28q-42 0 -83.5 11.5t-75 34.5t-54 58t-20.5 83q0 47 18.5 90t44.5 81
q55 81 138 127.5t177 60.5q-14 17 -22 35.5t-8 38.5q0 34 21.5 58.5t52 40t65.5 22.5t62 7q22 0 47 -4.5t46 -15.5t35 -29.5t14 -45.5q0 -6 -1.5 -15t-5 -17.5t-9 -14.5t-12.5 -6q-8 0 -11.5 4t-4 10t0 12.5t0.5 11.5zM706 858q8 0 13 -5.5t5 -13.5q0 -17 -24 -40t-56 -44
t-64 -35.5t-48 -14.5q-8 0 -12.5 5t-4.5 12q0 5 2 9q5 5 21 15.5t35.5 23.5t38.5 25.5t29 20.5q14 11 27 22.5t29 17.5q6 2 9 2z" />
    <glyph glyph-name="Ecircumflex" unicode="&#xca;" horiz-adv-x="687" 
d="M651 553q0 19 -11 31t-27.5 18.5t-35 8.5t-33.5 2q-19 0 -45 -4.5t-50 -15t-40.5 -27t-16.5 -41.5q0 -18 9 -33t23 -26q8 0 16.5 0.5t16.5 0.5q10 0 21 -1t21.5 -4t18 -10t9.5 -19q-5 -30 -33 -30q-27 0 -52 12q-59 -2 -116 -16.5t-107.5 -43t-90 -71t-62.5 -99.5
q-6 -15 -11 -36t-5 -38q0 -40 19 -68.5t48 -47t65 -27t70 -8.5q48 0 106 19.5t107.5 53.5t83 79.5t33.5 98.5q0 22 -9 38.5t-23.5 28t-33.5 17t-39 5.5q-26 0 -54 -11t-51.5 -30t-38.5 -44t-15 -53q0 -13 4 -20.5t9.5 -12.5t9.5 -8.5t4 -8.5q0 -6 -3.5 -12.5t-11.5 -6.5
q-11 0 -19 7t-13 17.5t-8 22t-3 20.5q0 37 18.5 70.5t48 59.5t65.5 41.5t71 15.5q27 0 52 -9.5t44.5 -26t31.5 -40.5t12 -52q0 -29 -12 -58t-31 -55t-42 -49t-44 -41q-56 -45 -124 -73t-141 -28q-42 0 -83.5 11.5t-75 34.5t-54 58t-20.5 83q0 47 18.5 90t44.5 81
q55 81 138 127.5t177 60.5q-14 17 -22 35.5t-8 38.5q0 34 21.5 58.5t52 40t65.5 22.5t62 7q22 0 47 -4.5t46 -15.5t35 -29.5t14 -45.5q0 -6 -1.5 -15t-5 -17.5t-9 -14.5t-12.5 -6q-8 0 -11.5 4t-4 10t0 12.5t0.5 11.5zM659 868q8 0 12 -6.5t5.5 -15.5t1.5 -18.5v-14.5
q2 -23 6.5 -47t4.5 -47q0 -8 -5 -13t-13 -5q-7 0 -12 10.5t-8.5 27t-5.5 35.5t-3 36q-17 -17 -38.5 -35.5t-44 -34t-43.5 -26t-37 -10.5q-8 0 -13.5 5t-5.5 13q0 4 13.5 16.5t34.5 28.5t46 34t47 33t38 24.5t20 9.5z" />
    <glyph glyph-name="Edieresis" unicode="&#xcb;" horiz-adv-x="687" 
d="M651 553q0 19 -11 31t-27.5 18.5t-35 8.5t-33.5 2q-19 0 -45 -4.5t-50 -15t-40.5 -27t-16.5 -41.5q0 -18 9 -33t23 -26q8 0 16.5 0.5t16.5 0.5q10 0 21 -1t21.5 -4t18 -10t9.5 -19q-5 -30 -33 -30q-27 0 -52 12q-59 -2 -116 -16.5t-107.5 -43t-90 -71t-62.5 -99.5
q-6 -15 -11 -36t-5 -38q0 -40 19 -68.5t48 -47t65 -27t70 -8.5q48 0 106 19.5t107.5 53.5t83 79.5t33.5 98.5q0 22 -9 38.5t-23.5 28t-33.5 17t-39 5.5q-26 0 -54 -11t-51.5 -30t-38.5 -44t-15 -53q0 -13 4 -20.5t9.5 -12.5t9.5 -8.5t4 -8.5q0 -6 -3.5 -12.5t-11.5 -6.5
q-11 0 -19 7t-13 17.5t-8 22t-3 20.5q0 37 18.5 70.5t48 59.5t65.5 41.5t71 15.5q27 0 52 -9.5t44.5 -26t31.5 -40.5t12 -52q0 -29 -12 -58t-31 -55t-42 -49t-44 -41q-56 -45 -124 -73t-141 -28q-42 0 -83.5 11.5t-75 34.5t-54 58t-20.5 83q0 47 18.5 90t44.5 81
q55 81 138 127.5t177 60.5q-14 17 -22 35.5t-8 38.5q0 34 21.5 58.5t52 40t65.5 22.5t62 7q22 0 47 -4.5t46 -15.5t35 -29.5t14 -45.5q0 -6 -1.5 -15t-5 -17.5t-9 -14.5t-12.5 -6q-8 0 -11.5 4t-4 10t0 12.5t0.5 11.5zM514 731q-14 0 -25 10t-11 25t10.5 25.5t25.5 10.5
t25.5 -10.5t10.5 -25.5t-11 -25t-25 -10zM659 731q-15 0 -25 10t-10 25q0 14 10 25t25 11t25.5 -10.5t10.5 -25.5t-10.5 -25t-25.5 -10z" />
    <glyph glyph-name="Igrave" unicode="&#xcc;" horiz-adv-x="535" 
d="M29 -29q15 0 30 -3t31 -3q39 0 71 15.5t59 41t48.5 58.5t39.5 68h-8q-33 0 -64.5 9t-55.5 27t-39 45.5t-15 64.5q0 63 35.5 122t88.5 106.5t116 81t117 46.5q26 6 52 8.5t52 2.5q7 0 20 -1.5t26.5 -5.5t23.5 -10.5t10 -15.5q0 -8 -7 -12t-15 -2l-10 -3l-7 -3
q-33 -14 -63.5 -55.5t-61 -99.5t-62 -125.5t-65.5 -133.5q27 7 53 19t38 30q5 7 8 15t14 8q7 0 12 -4.5t5 -12.5q0 -18 -14.5 -32.5t-36.5 -26.5t-49 -21t-51 -14q-27 -50 -57.5 -93.5t-64.5 -76t-72.5 -51.5t-81.5 -19q-7 0 -20 2t-25.5 6.5t-21.5 11t-9 16.5q0 12 7.5 16
t18.5 4zM366 283q15 37 33.5 78.5t40 81.5t46.5 77t53 67q5 5 10.5 11t11.5 11q-38 -3 -81.5 -15t-86.5 -32.5t-82.5 -47.5t-70 -60t-48.5 -71t-18 -80q0 -26 9 -43t27 -35h-1q24 -19 53.5 -28t60.5 -9h4q11 25 21 49t18 46zM650 725q0 -7 -5.5 -12t-12.5 -5q-8 0 -13 7
q-3 4 -11 27t-16.5 50.5t-15 51.5t-6.5 29q0 9 5.5 16.5t15.5 7.5q15 0 26 -22.5t18.5 -52t11 -57.5t3.5 -40z" />
    <glyph glyph-name="Iacute" unicode="&#xcd;" horiz-adv-x="535" 
d="M29 -29q15 0 30 -3t31 -3q39 0 71 15.5t59 41t48.5 58.5t39.5 68h-8q-33 0 -64.5 9t-55.5 27t-39 45.5t-15 64.5q0 63 35.5 122t88.5 106.5t116 81t117 46.5q26 6 52 8.5t52 2.5q7 0 20 -1.5t26.5 -5.5t23.5 -10.5t10 -15.5q0 -8 -7 -12t-15 -2l-10 -3l-7 -3
q-33 -14 -63.5 -55.5t-61 -99.5t-62 -125.5t-65.5 -133.5q27 7 53 19t38 30q5 7 8 15t14 8q7 0 12 -4.5t5 -12.5q0 -18 -14.5 -32.5t-36.5 -26.5t-49 -21t-51 -14q-27 -50 -57.5 -93.5t-64.5 -76t-72.5 -51.5t-81.5 -19q-7 0 -20 2t-25.5 6.5t-21.5 11t-9 16.5q0 12 7.5 16
t18.5 4zM366 283q15 37 33.5 78.5t40 81.5t46.5 77t53 67q5 5 10.5 11t11.5 11q-38 -3 -81.5 -15t-86.5 -32.5t-82.5 -47.5t-70 -60t-48.5 -71t-18 -80q0 -26 9 -43t27 -35h-1q24 -19 53.5 -28t60.5 -9h4q11 25 21 49t18 46zM708 848q8 0 13 -5.5t5 -13.5q0 -17 -24 -40
t-56 -44t-64 -35.5t-48 -14.5q-8 0 -12.5 5t-4.5 12q0 5 2 9q5 5 21 15.5t35.5 23.5t38.5 25.5t29 20.5q14 11 27 22.5t29 17.5q6 2 9 2z" />
    <glyph glyph-name="Icircumflex" unicode="&#xce;" horiz-adv-x="535" 
d="M29 -29q15 0 30 -3t31 -3q39 0 71 15.5t59 41t48.5 58.5t39.5 68h-8q-33 0 -64.5 9t-55.5 27t-39 45.5t-15 64.5q0 63 35.5 122t88.5 106.5t116 81t117 46.5q26 6 52 8.5t52 2.5q7 0 20 -1.5t26.5 -5.5t23.5 -10.5t10 -15.5q0 -8 -7 -12t-15 -2l-10 -3l-7 -3
q-33 -14 -63.5 -55.5t-61 -99.5t-62 -125.5t-65.5 -133.5q27 7 53 19t38 30q5 7 8 15t14 8q7 0 12 -4.5t5 -12.5q0 -18 -14.5 -32.5t-36.5 -26.5t-49 -21t-51 -14q-27 -50 -57.5 -93.5t-64.5 -76t-72.5 -51.5t-81.5 -19q-7 0 -20 2t-25.5 6.5t-21.5 11t-9 16.5q0 12 7.5 16
t18.5 4zM366 283q15 37 33.5 78.5t40 81.5t46.5 77t53 67q5 5 10.5 11t11.5 11q-38 -3 -81.5 -15t-86.5 -32.5t-82.5 -47.5t-70 -60t-48.5 -71t-18 -80q0 -26 9 -43t27 -35h-1q24 -19 53.5 -28t60.5 -9h4q11 25 21 49t18 46zM672 870q8 0 12 -6.5t5.5 -15.5t1.5 -18.5v-14.5
q2 -23 6.5 -47t4.5 -47q0 -8 -5 -13t-13 -5q-7 0 -12 10.5t-8.5 27t-5.5 35.5t-3 36q-17 -17 -38.5 -35.5t-44 -34t-43.5 -26t-37 -10.5q-8 0 -13.5 5t-5.5 13q0 4 13.5 16.5t34.5 28.5t46 34t47 33t38 24.5t20 9.5z" />
    <glyph glyph-name="Idieresis" unicode="&#xcf;" horiz-adv-x="535" 
d="M29 -29q15 0 30 -3t31 -3q39 0 71 15.5t59 41t48.5 58.5t39.5 68h-8q-33 0 -64.5 9t-55.5 27t-39 45.5t-15 64.5q0 63 35.5 122t88.5 106.5t116 81t117 46.5q26 6 52 8.5t52 2.5q7 0 20 -1.5t26.5 -5.5t23.5 -10.5t10 -15.5q0 -8 -7 -12t-15 -2l-10 -3l-7 -3
q-33 -14 -63.5 -55.5t-61 -99.5t-62 -125.5t-65.5 -133.5q27 7 53 19t38 30q5 7 8 15t14 8q7 0 12 -4.5t5 -12.5q0 -18 -14.5 -32.5t-36.5 -26.5t-49 -21t-51 -14q-27 -50 -57.5 -93.5t-64.5 -76t-72.5 -51.5t-81.5 -19q-7 0 -20 2t-25.5 6.5t-21.5 11t-9 16.5q0 12 7.5 16
t18.5 4zM366 283q15 37 33.5 78.5t40 81.5t46.5 77t53 67q5 5 10.5 11t11.5 11q-38 -3 -81.5 -15t-86.5 -32.5t-82.5 -47.5t-70 -60t-48.5 -71t-18 -80q0 -26 9 -43t27 -35h-1q24 -19 53.5 -28t60.5 -9h4q11 25 21 49t18 46zM518 721q-14 0 -25 10t-11 25t10.5 25.5
t25.5 10.5t25.5 -10.5t10.5 -25.5t-11 -25t-25 -10zM663 721q-15 0 -25 10t-10 25q0 14 10 25t25 11t25.5 -10.5t10.5 -25.5t-10.5 -25t-25.5 -10z" />
    <glyph glyph-name="Eth" unicode="&#xd0;" horiz-adv-x="826" 
d="M113 -86q-29 0 -49.5 12t-34 31t-20 43.5t-6.5 50.5q0 65 23.5 135.5t65 139t97.5 129.5t120.5 107.5t135 74t139.5 27.5q109 0 166.5 -58.5t57.5 -167.5q0 -51 -12.5 -100.5t-35.5 -95.5q-16 -32 -39.5 -68.5t-53 -73.5t-64 -71t-72 -60t-76.5 -42t-78 -16
q-9 0 -25.5 2.5t-32.5 8.5t-27.5 15t-11.5 22q0 11 6 14.5t15 3.5q19 0 36 -8t37 -8q49 0 97 21.5t91.5 57t80.5 82.5t64 98t42 103.5t15 98.5q0 88 -42.5 140t-134.5 52q-65 0 -130 -24t-124 -65.5t-110 -97t-88.5 -118t-59 -129t-21.5 -129.5q0 -18 3 -33.5t11 -27.5
t21.5 -19t33.5 -7q25 0 51.5 19.5t54 52t55 75.5t54.5 90q-21 -2 -36 -2.5t-19 -0.5q-10 0 -19 3t-9 16q0 11 11.5 18t29 11t37 6t36.5 3q31 55 60.5 109t56.5 96t50.5 68.5t43.5 27.5l8 7h5q5 0 10 -4t5 -10q0 -7 -10.5 -22.5t-24.5 -33.5t-27 -34.5t-19 -24.5
q-30 -44 -57.5 -88.5t-54.5 -89.5h34t38.5 -2t31.5 -7t13 -14q0 -8 -6 -12q-2 -2 -15.5 -3.5t-33.5 -4t-44.5 -4.5t-48.5 -4q-24 -40 -48.5 -78.5t-50.5 -76.5q-21 -31 -44.5 -60.5t-54.5 -51.5q-16 -11 -34.5 -17.5t-38.5 -6.5z" />
    <glyph glyph-name="Ntilde" unicode="&#xd1;" horiz-adv-x="809" 
d="M93 -36q50 0 96.5 28t87.5 73.5t75.5 103t61 117t44 116t23.5 98.5q4 26 5 52t1 52q-1 10 -1 19v18q0 11 7 19t18 8q14 0 20.5 -9t6.5 -22v-4q13 -120 33 -236.5t44 -234.5q13 44 31 89t37.5 87t39.5 79.5t38 67.5q32 52 73 97.5t98 68.5q33 14 67 14q26 0 52 -10
t46.5 -27t33 -41t12.5 -52q0 -6 -4.5 -12t-11.5 -6t-16 15.5t-23.5 33.5t-36 33.5t-53.5 15.5q-40 0 -81 -27.5t-79.5 -72.5t-73 -102.5t-61.5 -117t-45.5 -116t-24.5 -100.5l6 -27q5 -25 12 -52t7 -52q0 -12 -8 -21.5t-21 -9.5q-14 0 -22.5 10t-13 23.5t-5.5 28.5t-1 26v17
t2 18l-14 56q-17 71 -35.5 155.5t-32.5 169.5q-13 -43 -35.5 -97t-53.5 -110t-69 -110t-80 -96.5t-88 -68t-93 -25.5q-13 0 -28 4t-27.5 12.5t-21 20.5t-8.5 27q0 8 5 13.5t13 5.5t13 -6q13 -14 26 -20.5t33 -6.5zM693 800q19 0 35 -11t28.5 -24t22.5 -24t19 -11
q12 0 21.5 9t17 20.5t14.5 20.5t15 9q6 0 12 -4t6 -11q0 -10 -11 -24.5t-26 -27.5t-31 -22.5t-27 -9.5q-21 0 -36.5 11t-27.5 23.5t-22 23.5t-19 11q-12 0 -21.5 -9t-17 -19.5t-14 -19.5t-13.5 -9q-8 0 -13.5 5t-5.5 12q0 10 10.5 23.5t25.5 26.5t31 22t27 9z" />
    <glyph glyph-name="Ograve" unicode="&#xd2;" 
d="M743 339q7 7 13 20.5t11.5 26.5t10 23t7.5 10q21 0 21 -19q0 -29 -15.5 -54.5t-41 -46.5t-57 -37.5t-62.5 -26.5q-39 -63 -89.5 -120.5t-107.5 -101t-117.5 -69t-120.5 -25.5q-92 0 -142.5 53.5t-50.5 144.5q0 51 19 111t52 121t78 117t96.5 100t107 70t110.5 26
q6 0 14.5 -0.5t16.5 -3t13.5 -7t5.5 -12.5q0 -1 -0.5 -1.5t-0.5 -1.5q20 11 42 17.5t46 6.5q32 0 54.5 -12.5t37 -33.5t21.5 -47.5t7 -54.5q0 -53 -17.5 -111.5t-48.5 -117.5q25 9 47 22.5t40 33.5zM51 123q0 -12 2 -27.5t5.5 -31t10 -29t15.5 -22.5v1q24 -24 54.5 -35
t63.5 -11q54 0 107.5 20t102 54.5t91.5 81t76 99.5q-20 -3 -35 -3q-80 0 -124 47.5t-44 125.5q0 29 8 60t22 60.5t34.5 56t45.5 46.5q-12 -3 -23.5 -4t-18.5 -3q-57 -13 -103 -39.5t-89 -64.5q-39 -35 -75.5 -78.5t-64.5 -93t-44.5 -102.5t-16.5 -108zM673 506
q0 19 -3.5 38.5t-12.5 34.5t-24.5 24.5t-38.5 9.5q-37 0 -69.5 -18.5t-57 -47.5t-38.5 -65t-14 -71q0 -70 39 -107t110 -37q20 0 43 3q31 59 48.5 119.5t17.5 116.5zM622 711q0 -7 -5.5 -12t-12.5 -5q-8 0 -13 7q-3 4 -11 27t-16.5 50.5t-15 51.5t-6.5 29q0 9 5.5 16.5
t15.5 7.5q15 0 26 -22.5t18.5 -52t11 -57.5t3.5 -40z" />
    </font>
</defs>
</svg>
