<?xml version="1.0" standalone="no"?>
<!DOCTYPE svg PUBLIC "-//W3C//DTD SVG 1.1//EN" "http://www.w3.org/Graphics/SVG/1.1/DTD/svg11.dtd" >
<svg xmlns="http://www.w3.org/2000/svg" xmlns:xlink="http://www.w3.org/1999/xlink" version="1.1">
<metadata></metadata>
<defs>
<font id="magbisregular" horiz-adv-x="1014" >
<font-face units-per-em="2048" ascent="1638" descent="-410" />
<missing-glyph horiz-adv-x="508" />
<glyph horiz-adv-x="0" />
<glyph unicode="&#xd;" horiz-adv-x="508" />
<glyph unicode=" "  horiz-adv-x="508" />
<glyph unicode="&#x09;" horiz-adv-x="508" />
<glyph unicode="&#xa0;" horiz-adv-x="508" />
<glyph unicode="!" horiz-adv-x="428" d="M42 191v27q20 99 98 99h20q166 0 166 -99v-9q0 -126 -137 -126h-29q-118 21 -118 108zM89 843v73q18 708 58 708q43 36 90 36h6q93 0 109 -98q-109 -605 -109 -1153q-33 -25 -58 -25h-19q-64 20 -64 103zM140 191q0 -54 59 -54q29 33 29 63v9q0 45 -39 54q-26 -6 -49 -45 v-27z" />
<glyph unicode="&#x22;" horiz-adv-x="672" d="M101 1500q0 37 20.5 57t59.5 20t60.5 -19.5t21.5 -56.5q0 -8 -4 -34l-62 -359h-30l-62 359q-4 23 -4 33zM413 1500q0 37 20.5 57t59.5 20t60.5 -19.5t21.5 -56.5q0 -8 -4 -34l-62 -359h-30l-62 359q-4 23 -4 33z" />
<glyph unicode="#" horiz-adv-x="1118" d="M0 703v8q11 70 74 70l157 -7l74 188h-8l-231 -7q-66 23 -66 78q0 79 214 79l173 8q207 448 256 448h25q74 -10 74 -71l-181 -377h148q206 448 256 448h24q75 0 75 -87l-190 -369q206 0 206 -71v-16q0 -47 -58 -70l-214 7h-8l-83 -196h8l289 15q66 -30 66 -78 q0 -79 -214 -79l-215 -8l-165 -424q-30 -24 -57 -24h-9q-62 0 -74 79l132 369h-140q-31 -45 -173 -424q-30 -24 -58 -24h-8q-63 0 -74 79l140 377q-165 0 -165 79zM526 746h135q11 0 95 204h-135q-19 -7 -95 -204z" />
<glyph unicode="$" d="M0 326v25q9 56 45 56l229 -18l6 313v169l-112 63q-162 92 -162 307v37q0 108 173 201l95 25l-5 31l-6 213q16 44 50 44h6q56 0 56 -144v-113l11 -12h11l84 6q0 282 45 282h22q51 -10 51 -50l-6 -207l-5 -25q318 0 318 -50l6 -6v-25q-9 -57 -45 -57l-279 19l-6 -201v-12 l6 -282q171 -50 274 -113q134 -76 134 -288v-13q0 -168 -308 -225l-56 -7l23 -231q-20 -38 -51 -38h-16q-46 0 -62 263h-151v-6q0 -226 -39 -226h-23q-50 10 -50 50l6 188h-6q-240 0 -263 57zM112 1260q0 -116 33 -163q91 -76 135 -88v232l-6 138q-162 -39 -162 -119z M380 382h129l-22 426l-101 32v-176zM380 1397l6 -137v-295l95 -25l-5 138v200l5 126l-5 6l-6 -6h-78l-6 -7h-6zM593 783q15 -394 34 -394q263 33 263 125q0 143 -79 182q-108 62 -218 94v-7z" />
<glyph unicode="%" horiz-adv-x="1213" d="M0 73v8q113 243 679 980q345 419 401 454h24q74 -11 74 -73v-8q0 -41 -254 -316q-546 -687 -793 -1102l-49 -16h-8q-74 11 -74 73zM0 1296v16q0 121 147 179q311 0 311 -187q-31 -218 -196 -218h-74q-162 0 -188 210zM155 1288q0 -95 74 -113q74 30 74 137q0 39 -49 73 h-33l-66 -56v-41zM720 243v8q0 132 147 178h49q214 0 254 -129l8 -41v-16q0 -191 -229 -219q-229 26 -229 219zM875 259q10 -137 74 -137q74 31 74 113v8q0 64 -50 89h-8q-41 0 -90 -73z" />
<glyph unicode="&#x26;" horiz-adv-x="1059" d="M0 374v13q0 259 290 426q-109 161 -109 259q0 204 206 284l54 6h19q190 0 266 -239v-51q0 -162 -248 -284l-18 -20q141 -222 241 -355q26 149 79 149h6q54 -9 54 -59q0 -49 -60 -206q144 -163 175 -168l37 13q54 -8 54 -58v-7q0 -60 -85 -71h-6q-84 0 -242 188 q-133 -194 -368 -194h-25q-201 0 -308 252zM115 361q0 -167 157 -225l48 -13h13q204 0 308 167l-284 420q-242 -131 -242 -323v-26zM296 1065q0 -52 97 -187q218 107 218 200v13q0 111 -151 148h-19q-122 0 -145 -174z" />
<glyph unicode="'" horiz-adv-x="346" d="M101 1500q0 37 20.5 57t59.5 20t60.5 -19.5t21.5 -56.5q0 -8 -4 -34l-62 -359h-30l-62 359q-4 23 -4 33z" />
<glyph unicode="(" horiz-adv-x="437" d="M0 466q0 396 167 896q91 184 131 184h6q53 -11 53 -75v-9q0 -27 -89 -176q-155 -452 -155 -829q0 -498 250 -762l6 -33v-9q-8 -75 -54 -75h-6q-159 92 -267 477q-42 222 -42 411z" />
<glyph unicode=")" horiz-adv-x="502" d="M76 -317q0 41 114 157q158 254 158 646q0 309 -146 761l-113 199v25q8 74 57 74h6q118 -50 234 -472q82 -386 82 -612q0 -573 -316 -861h-19q-57 11 -57 74v9z" />
<glyph unicode="*" horiz-adv-x="1024" d="M218 1333q0 17 6 36q11 35 36 53q17 12 34 12q9 0 18 -3q20 -6 74 -62q47 -49 112 -75q-4 71 -37 130q-37 66 -37 84q0 32 23.5 51.5t62.5 19.5q37 0 61.5 -18t24.5 -47q0 -21 -36 -89q-33 -61 -37 -130q66 25 113 75q51 55 69 61q11 3 21 3q18 0 35 -10q26 -17 38 -53 q6 -19 6 -36q0 -15 -4 -28q-10 -30 -38 -38q-6 -2 -19 -2q-25 0 -76 9q-28 5 -55 5q-41 0 -81 -11q44 -55 105 -83q68 -32 79 -47q13 -18 13 -38q0 -9 -2 -17q-8 -30 -39 -53q-29 -22 -59 -22q-1 0 -1 1q-31 0 -48 23q-12 17 -22 94q-10 67 -47 125q-38 -58 -46 -124 q-9 -75 -20 -90q-19 -25 -49 -27h-5q-28 0 -57 21q-30 21 -39 51q-4 10 -4 20q0 17 11 32q13 17 83 51q61 29 105 82q-41 11 -80 11q-27 0 -53 -5q-54 -11 -78 -11q-9 0 -14 2q-30 9 -41 38q-6 13 -6 29z" />
<glyph unicode="+" horiz-adv-x="1097" d="M0 832v7q0 74 188 74q79 20 261 20h20v7q15 404 53 452q11 27 47 27h20q36 -15 47 -61q-33 -158 -33 -418l27 -7q448 -16 448 -60l7 -34v-7q-10 -61 -54 -61q-254 34 -408 34h-27q0 -159 40 -418q-11 -46 -47 -61h-20q-80 0 -80 216l-27 263q-137 0 -415 -34 q-47 20 -47 61z" />
<glyph unicode="," horiz-adv-x="452" d="M72 210l102 78q120 -4 158.5 -82.5t38.5 -164.5q0 -109 -71 -226.5t-139 -117.5v43q73 43 87 190q25 141 -154 118z" />
<glyph unicode="-" horiz-adv-x="799" d="M10 827q0 43 24 77l180 9h372l176 -9q28 -25 28 -77t-28 -77l-364 9l-360 -9q-28 25 -28 77z" />
<glyph unicode="." horiz-adv-x="208" d="M0 68q5 31 19 71l52 24q11 9 20 9t21 -10l54 -33q8 -32 8 -40q0 -10 -14 -34l-24 -21q-16 -31 -45 -34q-39 3 -20 9l-57 21q-9 52 -14 38z" />
<glyph unicode="/" horiz-adv-x="844" d="M0 56v6q0 31 112 205l632 1082h16q36 -8 36 -56v-6q0 -30 -120 -230l-468 -802q-147 -255 -164 -255h-8q-36 8 -36 56z" />
<glyph unicode="0" horiz-adv-x="904" d="M0 488v41q0 349 265 773q102 122 186 122h43q146 0 293 -293q72 -189 72 -366v-57q0 -306 -208 -586q-113 -122 -250 -122h-29q-200 0 -343 285q-29 115 -29 203zM136 488q0 -220 165 -309q36 -24 71 -24h22q237 0 329 512v82q0 385 -236 520h-22q-138 0 -308 -561 q-21 -94 -21 -195v-25z" />
<glyph unicode="1" horiz-adv-x="769" d="M0 70v7q0 72 183 86l96 7q-29 123 -29 372v100q-86 -54 -154 -54q-77 20 -77 70v8q0 50 116 93q77 67 134 286q27 379 68 379l48 8h9q87 -10 87 -70q-48 -578 -48 -874q6 -310 38 -310q260 0 260 -85v-8q-12 -70 -87 -70l-202 16l-375 -31q-67 23 -67 70z" />
<glyph unicode="2" d="M0 79v27q0 335 463 653q303 253 303 380v26q-82 106 -207 106h-8q-158 0 -375 -256l-32 -9q-72 18 -72 80v18q33 123 295 291q96 44 176 44h24q201 0 327 -185q24 -46 24 -89v-53q0 -226 -607 -679q-136 -160 -143 -239q265 71 495 71q287 0 287 -80v-53q-31 -53 -56 -53 l-239 18q-205 0 -591 -97q-52 0 -64 79z" />
<glyph unicode="3" d="M0 362v35l52 53h61q39 -27 131 -203q84 -79 157 -79h9q261 0 409 344l17 71v17q0 124 -200 186q-145 -150 -226 -150h-35l-53 53v35q0 63 122 106q183 159 183 256q0 142 -200 185h-35q-110 0 -174 -159l-52 -17h-9q-79 11 -79 79q0 126 192 239q58 26 122 26h35 q272 0 366 -318v-35q0 -52 -44 -168h9q244 -117 244 -291v-44q0 -224 -261 -459q-171 -124 -323 -124h-26q-253 0 -392 362z" />
<glyph unicode="4" horiz-adv-x="995" d="M0 550v8q0 42 232 299q221 297 404 582l37 8h8q37 0 67 -49l8 -363v-364h89q105 -10 105 -81v-16q0 -78 -120 -97q-28 0 -67 40h-7l-8 -56v-24l-7 -372q-20 -65 -68 -65h-7q-41 0 -68 49l8 460h-8l-546 -32q-52 24 -52 73zM247 647h7l359 24v461z" />
<glyph unicode="5" d="M0 380v7q0 72 85 72q60 0 77 -174q92 -135 216 -135q356 0 432 538v8q0 166 -193 166q-164 0 -470 -103q-70 25 -70 79q0 254 224 593l39 8q501 -48 501 -87l16 -47q-18 -72 -70 -72l-409 48q-102 -172 -139 -332q235 63 386 63q253 0 324 -221l8 -87v-40 q-101 -664 -594 -664q-196 0 -332 221q-31 85 -31 159z" />
<glyph unicode="6" horiz-adv-x="904" d="M0 576v43q0 367 405 712q124 93 235 93h33q121 0 121 -85v-17q0 -64 -81 -76l-65 17h-8q-187 0 -437 -424l-25 -85h8q152 144 292 144h16q290 0 373 -423v-77q0 -267 -292 -390l-73 -8h-40q-265 0 -446 432zM162 500q116 -339 324 -339q192 0 227 254v34 q-45 288 -219 288h-16q-122 0 -308 -237h-8z" />
<glyph unicode="7" horiz-adv-x="972" d="M0 1263v55q0 86 550 121h117q275 0 275 -102v-9q-157 -325 -275 -632q177 -9 177 -55v-28q-31 -56 -128 -56l-49 28h-19q-41 0 -89 -418v-74q-13 -93 -88 -93h-10q-88 12 -88 84v46q0 129 49 399h-10l-78 -18q-69 0 -69 46q0 39 196 102q98 301 246 604h-89 q-255 0 -530 -65q-66 16 -88 65z" />
<glyph unicode="8" d="M0 443v31q0 221 253 411q-114 100 -114 221v40q0 214 279 308h79q232 0 331 -261v-87q0 -139 -131 -229v-16q253 -139 253 -387v-31q0 -310 -366 -435l-96 -8h-26q-324 0 -453 356zM166 427q62 -277 305 -277h8q264 0 305 308q-41 309 -305 309h-8q-192 0 -192 -159v-126 q-31 -55 -87 -55l-26 8v-8zM305 1114q32 -166 183 -166q157 53 157 127l-35 102l26 56q-76 71 -148 71h-9q-174 -31 -174 -158v-32z" />
<glyph unicode="9" horiz-adv-x="874" d="M0 1020v40q0 245 339 386l87 8h26q267 0 392 -345v-16q-157 -460 -218 -1061q-36 -32 -69 -32h-9q-78 13 -78 72q0 185 96 659q-103 -72 -209 -72q-200 0 -340 241zM165 1028q33 -217 209 -217q197 75 287 233l9 57q-76 200 -218 200h-34q-135 0 -244 -192l-9 -73v-8z " />
<glyph unicode=":" horiz-adv-x="557" d="M129 136q0 15 16 31l82 84q15 14 29 14q13 0 31 -16l80 -86q12 -16 12 -29q0 -15 -14 -31l-80 -88q-20 -20 -29 -20q-16 0 -29 14l-88 101q-10 13 -10 26zM129 829q0 15 16 31l82 84q15 14 29 14q13 0 31 -16l80 -86q12 -16 12 -29q0 -15 -14 -31l-80 -88 q-20 -20 -29 -20q-16 0 -29 14l-88 101q-10 13 -10 26z" />
<glyph unicode=";" horiz-adv-x="557" d="M119 91v42l119 125q44 0 88.5 -65.5t44.5 -151.5q0 -109 -71 -226.5t-139 -117.5v43q73 43 87 190q0 119 -129 161zM129 828q0 15 16 31l82 84q15 14 29 14q13 0 31 -16l80 -86q12 -16 12 -29q0 -15 -14 -31l-80 -88q-20 -20 -29 -20q-16 0 -29 14l-88 101q-10 13 -10 26 z" />
<glyph unicode="&#x3c;" d="M0 854v4q0 43 165 101q288 134 804 260h9q30 -13 30 -41v-5q0 -45 -117 -59q-444 -123 -739 -251v-9q583 -259 795 -425l5 -23q-6 -41 -40 -41h-4q-11 0 -208 123q-276 156 -687 334q-13 16 -13 32z" />
<glyph unicode="=" horiz-adv-x="924" d="M0 688v7q11 59 55 59l407 -13h41l345 13q55 -20 55 -66q0 -65 -179 -65l-214 -7h-62q-441 0 -441 39zM0 964q0 65 179 65l290 7h48q379 0 379 -46l7 -26v-7q-11 -59 -55 -59l-345 13h-41l-407 -13q-55 20 -55 66z" />
<glyph unicode="&#x3e;" d="M0 1164v5q6 41 39 41q516 -126 847 -275q127 -49 127 -87v-5q0 -38 -100 -69q-438 -190 -804 -422h-13q-39 0 -39 50q0 29 157 115q306 182 646 326v9q-348 152 -825 271q-28 0 -35 41z" />
<glyph unicode="?" horiz-adv-x="837" d="M0 1215v31q0 243 288 426q59 24 108 24h13q185 0 345 -260q45 -140 45 -221v-24q0 -273 -332 -331h-20l-6 -71q11 -220 51 -473q-10 -36 -38 -56h-45q-59 0 -89 537q0 221 121 221l45 -8q192 53 192 181v16q0 240 -243 339h-32q-153 0 -269 -237l-13 -71v-15 q0 -42 58 -166v-8q-20 -71 -64 -71q-82 0 -115 237zM306 76q0 61 84 115h48q156 0 156 -115q0 -146 -132 -146h-24q-110 0 -132 146zM426 55l12 -52h24l12 52v42l-24 21z" />
<glyph unicode="@" horiz-adv-x="1682" d="M0 821v79q0 447 425 721q232 101 389 101h59q336 0 531 -360q106 -201 106 -439q0 -344 -247 -609h-24q-153 39 -153 214h-24q-121 -76 -212 -78h-95q-158 0 -307 168q-59 123 -59 248v11q0 254 272 440l118 22h106q145 0 260 -146l47 -203l-12 -360q25 -190 59 -192 q153 266 153 451v90q0 361 -318 585q-118 45 -201 45h-82q-269 0 -496 -236q-177 -213 -177 -439v-158q0 -239 295 -484q199 -101 460 -101h130q360 0 496 315q53 180 82 180h36l35 -34q0 -277 -342 -518q-200 -56 -366 -56h-59q-681 0 -873 586zM507 844q0 -219 213 -282 l82 -11q260 33 260 236v237q0 214 -224 214q-222 0 -319 -259l-12 -102v-33z" />
<glyph unicode="A" horiz-adv-x="999" d="M26 67q108 319 108 356q25 20 203 564l178 499q26 29 63 29h6q210 0 362 -1448q-35 -36 -76 -36q-51 0 -51 128q-39 341 -51 357q-97 36 -177 36h-32q-177 0 -305 -129q-114 -363 -133 -363q-32 -22 -63 -22q-29 14 -32 29zM341 621h5q113 61 251 61h5l123 -12 q-79 477 -149 625q-15 -17 -235 -674z" />
<glyph unicode="B" horiz-adv-x="1032" d="M21 1401q64 -556 64 -1107v-203l7 -7q187 -70 354 -70q258 0 411 140q163 175 163 336q0 284 -397 386v7q184 103 184 266l-14 91q-113 273 -396 273q-204 0 -376 -112zM156 1380q114 56 212 56h21q227 0 291 -294q0 -111 -128 -203q-70 -63 -354 -63zM205 785v7l347 14 q333 -81 333 -295v-28q0 -59 -14 -91q-100 -301 -397 -301h-14q-118 0 -248 42l7 56z" />
<glyph unicode="C" horiz-adv-x="1085" d="M40 664v44q0 583 339 752q152 59 273 59h15q241 0 391 -243v-15q0 -24 -74 -37q-47 0 -148 140q-113 74 -191 74q-258 0 -391 -280q-74 -189 -74 -465v-15q0 -409 273 -545q111 -52 206 -52q148 0 288 229l37 7h29q40 0 52 -29q0 -95 -229 -251q-111 -37 -177 -37h-22 q-388 0 -553 376q-44 138 -44 288z" />
<glyph unicode="D" horiz-adv-x="1025" d="M40 144q41 276 41 617v431q0 134 -34 201q39 104 266 129h41q274 0 519 -330q109 -224 109 -417v-43q0 -475 -355 -696q-108 -36 -205 -36h-34q-331 34 -341 115zM149 165q148 -36 246 -36q370 0 478 496q13 60 13 158v14q0 462 -450 589l-82 7q-87 0 -184 -50l7 -216 v-402q0 -259 -28 -560z" />
<glyph unicode="E" horiz-adv-x="980" d="M-112 499v15q0 36 78 107q0 289 157 750q188 136 542 136h93q142 0 142 -64v-22q0 -26 -28 -57l-86 7h-114q-492 -25 -492 -157q-107 -349 -107 -522q234 129 549 129q171 0 171 -43l7 -28v-22q0 -30 -28 -50l-143 7h-14q-305 0 -549 -150q0 -313 200 -386 q46 -21 114 -21h50q147 0 470 128h7q36 -37 36 -64v-21q0 -63 -228 -122q-142 -57 -285 -57h-43q-325 0 -406 422l-7 35l-22 -14h-7q-57 0 -57 64z" />
<glyph unicode="F" horiz-adv-x="1191" d="M93 582v7q0 47 133 136q35 351 126 654q164 136 433 136h42q329 0 329 -93v-8q-9 -64 -63 -64q-151 29 -266 29h-21q-219 0 -342 -87q-70 -275 -98 -509q163 57 349 57q336 0 336 -100q-9 -65 -63 -65l-280 29q-224 0 -363 -87l-7 -193q0 -128 42 -367v-14l-42 -43h-42 q-81 0 -91 474v57h-7l-42 -14q-63 9 -63 65z" />
<glyph unicode="G" horiz-adv-x="1191" d="M50 747v33q0 358 301 648q100 74 187 74h28q208 0 366 -262v-9q-30 -33 -57 -33q-62 0 -136 124q-95 82 -151 82h-14q-180 0 -352 -419q-36 -112 -36 -197v-82q0 -313 287 -467l129 -17h15q310 0 373 493v32l-15 17l-409 -17h-243q-86 0 -86 74q26 25 50 25h236l431 16 q172 -27 172 -139q0 -247 -308 -911l-36 -8h-22q-64 16 -64 41v8l122 304h-8q-84 -33 -150 -33h-58q-391 0 -530 459q-22 60 -22 164z" />
<glyph unicode="H" horiz-adv-x="1048" d="M24 786v101q0 593 79 593q0 14 32 14q49 0 79 -57q-40 -305 -40 -572v-136l8 -107q192 43 387 43l174 -7l-8 271q0 587 48 587l23 14h48q35 -13 55 -57q-24 -254 -24 -515l8 -322q71 0 71 -78q0 -27 -55 -50q0 -123 87 -444q-10 -64 -71 -64h-8q-85 0 -119 243l-47 272 l-190 14q-165 -2 -371 -43q32 -198 87 -400q-13 -33 -48 -50h-55q-118 46 -150 750z" />
<glyph unicode="I" horiz-adv-x="867" d="M27 1372v14q59 98 503 129h34q183 0 255 -71q-30 -65 -103 -65q-100 50 -214 50h-48q-21 -239 -21 -657v-50q0 -360 28 -636h27q165 0 324 35l14 -28q-46 -93 -386 -93h-82q-305 0 -324 36v14q13 36 89 57l214 -21q-21 150 -28 629q10 707 35 707h-7l-282 -64h-14z" />
<glyph unicode="J" horiz-adv-x="1123" d="M63 419v42q0 267 97 300l39 7l13 -21q-39 -140 -39 -272q0 -384 368 -384h58q193 0 259 216q32 115 32 203q0 415 20 907l6 7h-6q-276 -84 -608 -84l-6 7v21q0 53 148 56q231 0 550 98h19l13 -14l-19 -579v-301q0 -457 -298 -586q-72 -35 -168 -35h-77q-334 0 -395 314z " />
<glyph unicode="K" horiz-adv-x="1153" d="M68 1465q23 50 69 50h8q85 0 85 -236q31 -201 46 -464q175 245 470 529q152 142 200 142q42 0 69 -42v-50q-434 -384 -516 -529v-7q37 0 200 -243q174 -226 424 -493v-22q-10 -64 -69 -64h-8q-52 0 -293 279l-338 443l-124 -179l8 -86v-379q0 -121 -77 -121h-23 q-35 13 -54 57l8 50v236q0 350 -85 1129z" />
<glyph unicode="L" horiz-adv-x="964" d="M78 564v128q0 487 31 796q50 43 84 43h15l23 -21q-23 -445 -23 -797v-100q0 -476 39 -476q80 -21 161 -21h15q207 0 498 49l31 -21v-7q0 -88 -330 -107l-237 -14h-54q-238 0 -238 128z" />
<glyph unicode="M" horiz-adv-x="1281" d="M75 29q24 655 24 1232v149l-6 64q15 42 54 42h18q50 0 91 -177q138 -361 253 -496h12q361 379 512 631l49 14q54 0 54 -64q0 -811 54 -1410q-25 -28 -48 -28h-18q-61 0 -61 163q-42 619 -42 1119v7h-6q-256 -358 -452 -524l-48 -21h-18q-95 0 -277 411h-6v-22 q0 -399 -24 -1090q-26 -29 -49 -29h-24q-32 0 -42 29z" />
<glyph unicode="N" horiz-adv-x="1107" d="M76 42q0 622 40 1444l41 14h20q72 0 127 -203q257 -594 530 -1010l47 -56l-6 35v246q0 418 60 974l40 14h7q53 0 74 -42q-54 -614 -54 -946v-190l20 -287l-40 -21q-153 0 -577 799l-168 372h-7q-26 -567 -26 -1171l-27 -21h-27q-74 9 -74 49z" />
<glyph unicode="O" horiz-adv-x="1199" d="M49 802v49q0 400 274 642q25 21 47 21h20q54 0 54 -49q66 28 133 28q389 0 522 -370q47 -129 47 -265v-56q0 -552 -368 -753q-85 -42 -167 -42h-47q-296 0 -455 405q-60 197 -60 390zM176 809q21 -596 341 -711l54 -7h33q217 0 355 349q60 174 60 376v14q0 404 -281 558 q-91 21 -167 21q-150 0 -301 -314q-74 0 -74 -55q-20 -106 -20 -203v-28z" />
<glyph unicode="P" horiz-adv-x="972" d="M42 1401q171 114 402 114h31q335 0 458 -363q13 -28 13 -78v-21q0 -268 -414 -392l-339 -7v-618q-14 -36 -63 -36h-13q-33 0 -44 28v534q0 486 -31 839zM161 1373q32 -320 32 -640h6q452 7 452 64q176 101 176 234v29q0 199 -220 341q-84 36 -176 36q-120 0 -270 -64z " />
<glyph unicode="Q" horiz-adv-x="1160" d="M65 611v41q0 454 329 750q153 107 265 107h28q297 0 399 -569l7 -107v-33q0 -264 -161 -445q49 -227 49 -585q-36 -41 -63 -41h-21q-49 0 -49 41q0 212 -28 478q-205 -148 -370 -148h-7q-247 0 -364 371zM198 603q0 -212 175 -371q47 -33 98 -33q169 0 391 247 q98 155 98 346v25q0 274 -161 519q-71 74 -133 74q-232 0 -412 -412q-56 -188 -56 -338v-57z" />
<glyph unicode="R" horiz-adv-x="1018" d="M34 1401q168 113 389 113h25q359 0 470 -396v-92q0 -191 -316 -333l-18 -7v-7q120 -46 241 -248q105 -249 105 -404q-26 -28 -62 -28h-12q-50 0 -50 106q-77 354 -228 467q-106 77 -210 92l-186 -7v-616q0 -21 -55 -35h-19q-43 0 -43 50v502q0 479 -31 843zM151 1372 q31 -351 31 -637q39 14 118 14l111 -7q287 0 389 255l6 57q-70 382 -383 382q-130 0 -272 -64z" />
<glyph unicode="S" horiz-adv-x="1123" d="M23 425q17 35 54 35h41q27 0 67 -141q103 -226 419 -226q284 0 330 303q14 31 14 113v29q0 212 -250 296l-61 7l-108 -7q-445 0 -445 311q0 241 405 367l47 7h27q223 0 223 -297q-18 -35 -54 -35h-41q-33 0 -47 155q-34 92 -101 92q-331 -90 -331 -296q0 -212 270 -212 h189q190 0 358 -205q47 -102 47 -183v-29q0 -159 -94 -346q-160 -155 -372 -155h-47q-380 0 -513 318z" />
<glyph unicode="T" horiz-adv-x="1292" d="M90 1253q0 123 682 255l142 7h35q279 -9 279 -64q-25 -63 -77 -63q-136 35 -249 35h-36l-160 -7v-319q0 -478 18 -1047q-42 -50 -71 -50h-12l-18 21q-17 515 -17 977v397q-98 0 -486 -156h-18z" />
<glyph unicode="U" horiz-adv-x="1176" d="M72 922v71q11 507 56 507l25 7h12q48 0 56 -28q-31 -298 -31 -507v-42q0 -846 398 -846q285 0 366 479q25 188 25 367v42q0 195 -31 514q24 21 56 21h12q62 0 62 -162q19 -169 19 -352v-71q0 -699 -304 -873q-92 -35 -149 -35h-119q-344 0 -434 599q-19 136 -19 309z" />
<glyph unicode="V" horiz-adv-x="1153" d="M83 1459v7q14 35 45 35h17q51 0 95 -210q310 -963 310 -1017h5q0 75 231 785q89 236 202 442l28 7h17q31 0 45 -35v-21q-203 -356 -405 -1136q-69 -309 -84 -309q0 -14 -28 -14h-17q-51 0 -67 161q-180 623 -394 1305z" />
<glyph unicode="W" horiz-adv-x="1884" d="M34 1310v20q22 33 62 33l412 -7h7q86 -10 86 -33q-39 -247 -39 -416v-20q0 -375 179 -489q94 0 163 344q21 350 39 350l46 13h8q60 0 78 -33l-8 -231q0 -567 233 -733l54 -14h8q188 0 279 615q31 233 31 522v258q0 17 63 26h23q62 0 62 -53v-264q0 -1183 -450 -1183h-24 q-276 0 -380 396v27h-16q-72 -119 -194 -119h-8q-242 0 -318 370l-16 185v46q0 172 32 357h-101q-311 0 -311 33z" />
<glyph unicode="X" horiz-adv-x="1116" d="M65 1459v21q0 18 49 28h19q46 0 172 -258l276 -468q371 521 400 538h43q33 0 43 -28v-14l-418 -593q126 -223 381 -510v-14q0 -17 -55 -34q-83 0 -387 446v14q-283 -416 -283 -558q-23 -21 -43 -21h-19q-33 0 -49 35v35q17 141 326 607q-201 319 -455 774z" />
<glyph unicode="Y" horiz-adv-x="1138" d="M68 1436v14q25 43 83 43q192 -81 472 -469l62 -93h7q284 569 319 569q0 12 48 14h7q42 -4 42 -21l-229 -434q-444 -848 -444 -1024q-37 -28 -62 -28h-21q-36 0 -41 21v7q0 143 298 747q-120 313 -541 654z" />
<glyph unicode="Z" horiz-adv-x="1153" d="M0 93q82 241 402 703q364 452 533 557v7q-208 39 -389 39q-191 0 -468 -77q-36 0 -36 54q0 107 521 139h42q502 -31 510 -93v-15q0 -54 -144 -147q-207 -169 -515 -557q-324 -508 -324 -556q149 -31 324 -31q292 0 617 93q37 -16 42 -39v-8q0 -87 -210 -108 q-210 -54 -449 -54h-42q-408 14 -408 70z" />
<glyph unicode="[" horiz-adv-x="392" d="M0 557v87q0 459 28 837q36 34 128 34h24q164 0 164 -53v-10q-6 -43 -32 -43l-140 14h-12q-64 0 -64 -14q-20 -450 -20 -746v-121q0 -234 16 -445l40 -5h60l104 14q26 0 32 -43v-5q0 -58 -128 -58h-28q-148 0 -148 34q-24 176 -24 523z" />
<glyph unicode="\" horiz-adv-x="837" d="M0 1282v19q5 56 37 56h4q24 0 128 -194l491 -819q161 -254 161 -275v-13q-5 -56 -37 -56h-4q-26 0 -128 188q-417 669 -652 1094z" />
<glyph unicode="]" horiz-adv-x="384" d="M0 1459v5q0 53 112 53l52 5h24q132 0 132 -63q24 -435 24 -812v-88q0 -549 -40 -549q-48 -10 -132 -10h-28q-128 0 -128 58v5q5 44 36 44l100 -15h60l40 5q16 211 16 448v121q0 288 -20 754q-17 10 -64 10h-12l-144 -15q-28 14 -28 44z" />
<glyph unicode="^" horiz-adv-x="953" d="M39 722v6q0 27 157 176q67 66 215 260l35 6h8q35 0 143 -130q312 -308 314 -331v-13q-9 -59 -64 -59h-7q-45 0 -215 195q-164 153 -164 169h-15q-51 -94 -314 -338h-29q-64 8 -64 59z" />
<glyph unicode="_" horiz-adv-x="1024" d="M0 -100h1024v-60h-1024v60z" />
<glyph unicode="`" horiz-adv-x="1024" d="M212 1363q0 31 20.5 51t53.5 20q20 0 40.5 -12t55.5 -47l291 -296h-69l-330 202q-31 20 -46.5 40t-15.5 42z" />
<glyph unicode="a" horiz-adv-x="641" d="M0 24l76 208l232 588l32 12h24q44 -19 92 -144q56 -164 100 -460l24 -208q-23 -20 -40 -20h-20q-19 0 -36 196l-16 76q-64 20 -116 20h-8q-119 0 -200 -72q-71 -204 -84 -204q-17 -12 -40 -12q-20 7 -20 20zM176 300h4q86 40 176 40h8l96 -8v4q-49 279 -96 380 q-8 1 -12 24q-12 -6 -168 -428z" />
<glyph unicode="b" horiz-adv-x="603" d="M0 796q102 60 208 60h16q160 0 220 -180v-44q0 -64 -100 -140q220 -64 220 -204v-20q0 -131 -152 -232q-74 -36 -160 -36h-24q-103 0 -192 44v64q0 332 -36 688zM76 780q16 -102 24 -288q176 10 176 24q92 54 92 116v24q0 78 -104 144q-34 12 -64 12q-50 0 -124 -32z M104 444l8 -324v-52q75 -24 144 -24q173 0 228 188l4 40v8q0 121 -184 172z" />
<glyph unicode="c" horiz-adv-x="588" d="M0 360v24q0 316 184 408q82 32 148 32h8q131 0 212 -132v-8q0 -13 -40 -20q-25 0 -80 76q-61 40 -104 40q-140 0 -212 -152q-40 -102 -40 -252v-8q0 -222 148 -296q60 -28 112 -28q80 0 156 124l20 4h16q22 0 28 -16q0 -51 -124 -136q-60 -20 -96 -20h-12 q-211 0 -300 204q-24 75 -24 156z" />
<glyph unicode="d" horiz-adv-x="580" d="M0 80q24 154 24 344v240q0 75 -20 112q23 58 156 72h24q161 0 304 -184q64 -125 64 -232v-24q0 -265 -208 -388q-63 -20 -120 -20h-20q-194 19 -200 64zM64 92q86 -20 144 -20q217 0 280 276q8 34 8 88v8q0 257 -264 328l-48 4q-51 0 -108 -28l4 -120v-224 q0 -144 -16 -312z" />
<glyph unicode="e" horiz-adv-x="626" d="M0 284v8q0 20 44 60q0 162 88 420q106 76 304 76h52q80 0 80 -36v-12q0 -14 -16 -32l-48 4h-64q-276 -14 -276 -88q-60 -195 -60 -292q131 72 308 72q96 0 96 -24l4 -16v-12q0 -17 -16 -28l-80 4h-8q-171 0 -308 -84q0 -175 112 -216q26 -12 64 -12h28q83 0 264 72h4 q20 -21 20 -36v-12q0 -35 -128 -68q-80 -32 -160 -32h-24q-183 0 -228 236l-4 20l-12 -8h-4q-32 0 -32 36z" />
<glyph unicode="f" horiz-adv-x="626" d="M0 324v4q0 26 76 76q20 196 72 364q94 76 248 76h24q188 0 188 -52v-4q-5 -36 -36 -36q-87 16 -152 16h-12q-125 0 -196 -48q-40 -153 -56 -284q93 32 200 32q192 0 192 -56q-5 -36 -36 -36l-160 16q-128 0 -208 -48l-4 -108q0 -71 24 -204v-8l-24 -24h-24q-46 0 -52 264 v32h-4l-24 -8q-36 5 -36 36z" />
<glyph unicode="g" horiz-adv-x="648" d="M0 460v16q0 174 168 316q56 36 104 36h16q116 0 204 -128v-4q-17 -16 -32 -16q-35 0 -76 60q-53 40 -84 40h-8q-100 0 -196 -204q-20 -55 -20 -96v-40q0 -153 160 -228l72 -8h8q173 0 208 240v16l-8 8l-228 -8h-136q-48 0 -48 36q15 12 28 12h132l240 8q96 -13 96 -68 q0 -120 -172 -444l-20 -4h-12q-36 8 -36 20v4l68 148h-4q-47 -16 -84 -16h-32q-218 0 -296 224q-12 29 -12 80z" />
<glyph unicode="h" horiz-adv-x="528" d="M0 440v56q0 332 40 332q0 8 16 8q25 0 40 -32q-20 -171 -20 -320v-76l4 -60q97 24 196 24l88 -4l-4 152q0 328 24 328l12 8h24q18 -7 28 -32q-12 -142 -12 -288l4 -180q36 0 36 -44q0 -15 -28 -28q0 -69 44 -248q-5 -36 -36 -36h-4q-43 0 -60 136l-24 152l-96 8 q-84 -1 -188 -24q16 -111 44 -224q-7 -18 -24 -28h-28q-60 26 -76 420z" />
<glyph unicode="i" horiz-adv-x="199" d="M0 794v17q17 55 60 55h15q99 0 99 -64v-12q0 -54 -85 -64h-9q-80 10 -80 68zM20 267v13q0 429 40 429l25 4h4q32 0 45 -34q-20 -180 -20 -352v-94q0 -121 10 -199q-13 -34 -44 -34h-5q-50 0 -50 98zM45 807q0 -56 44 -56h5q35 22 35 47q-3 43 -49 43z" />
<glyph unicode="j" horiz-adv-x="618" d="M0 228v23q0 147 60 166l24 3l8 -11q-24 -77 -24 -151q0 -212 228 -212h36q119 0 160 120q20 63 20 112q0 229 12 501l4 4h-4q-171 -46 -376 -46l-4 4v11q0 29 92 31q143 0 340 54h12l8 -8l-12 -320v-166q0 -252 -184 -324q-45 -19 -104 -19h-48q-206 0 -244 174z" />
<glyph unicode="k" horiz-adv-x="573" d="M0 824q12 28 36 28h4q44 0 44 -132q16 -113 24 -260q91 137 244 296q79 80 104 80q22 0 36 -24v-28q-225 -215 -268 -296v-4q19 0 104 -136q90 -126 220 -276v-12q-5 -36 -36 -36h-4q-27 0 -152 156l-176 248l-64 -100l4 -48v-212q0 -68 -40 -68h-12q-18 7 -28 32l4 28 v132q0 196 -44 632z" />
<glyph unicode="l" horiz-adv-x="520" d="M0 308v72q0 274 17 448q28 24 46 24h9l13 -12q-13 -250 -13 -448v-56q0 -268 21 -268q44 -12 89 -12h8q114 0 275 28l17 -12v-4q0 -49 -182 -60l-131 -8h-29q-132 0 -132 72z" />
<glyph unicode="m" horiz-adv-x="806" d="M0 23q16 359 16 675v81l-4 35q10 23 36 23h12q33 0 60 -97q91 -197 168 -271h8q240 207 340 345l32 8q36 0 36 -35q0 -444 36 -771q-17 -16 -32 -16h-12q-40 0 -40 89q-28 339 -28 612v4h-4q-170 -196 -300 -286l-32 -12h-12q-63 0 -184 225h-4v-12q0 -219 -16 -597 q-17 -15 -32 -15h-16q-21 0 -28 15z" />
<glyph unicode="n" horiz-adv-x="641" d="M0 28q0 355 24 824l24 8h12q43 0 76 -116q153 -339 316 -576l28 -32l-4 20v140q0 239 36 556l24 8h4q31 0 44 -24q-32 -350 -32 -540v-108l12 -164l-24 -12q-91 0 -344 456l-100 212h-4q-16 -323 -16 -668l-16 -12h-16q-44 5 -44 28z" />
<glyph unicode="o" horiz-adv-x="686" d="M0 456v28q0 229 164 368q15 12 28 12h12q32 0 32 -28q40 16 80 16q232 0 312 -212q28 -74 28 -152v-32q0 -317 -220 -432q-51 -24 -100 -24h-28q-177 0 -272 232q-36 113 -36 224zM76 460q13 -342 204 -408l32 -4h20q130 0 212 200q36 100 36 216v8q0 232 -168 320 q-55 12 -100 12q-90 0 -180 -180q-44 0 -44 -32q-12 -61 -12 -116v-16z" />
<glyph unicode="p" horiz-adv-x="603" d="M0 788q109 64 256 64h20q213 0 292 -204q8 -16 8 -44v-12q0 -150 -264 -220l-216 -4v-348q-9 -20 -40 -20h-8q-21 0 -28 16v300q0 273 -20 472zM76 772q20 -180 20 -360h4q288 4 288 36q112 57 112 132v16q0 112 -140 192q-53 20 -112 20q-77 0 -172 -36z" />
<glyph unicode="q" horiz-adv-x="626" d="M0 395v22q0 241 188 397q88 57 152 57h16q170 0 228 -301l4 -57v-17q0 -140 -92 -236q28 -121 28 -310q-21 -22 -36 -22h-12q-28 0 -28 22q0 112 -16 253q-117 -79 -212 -79h-4q-141 0 -208 197zM76 388q0 -103 100 -180q27 -16 56 -16q97 0 224 120q56 75 56 168v12 q0 133 -92 252q-41 36 -76 36q-133 0 -236 -200q-32 -91 -32 -164v-28z" />
<glyph unicode="r" horiz-adv-x="641" d="M0 792q109 64 252 64h16q232 0 304 -224v-52q0 -108 -204 -188l-12 -4v-4q78 -26 156 -140q68 -140 68 -228q-17 -16 -40 -16h-8q-32 0 -32 60q-50 200 -148 264q-68 43 -136 52l-120 -4v-348q0 -12 -36 -20h-12q-28 0 -28 28v284q0 270 -20 476zM76 776q20 -198 20 -360 q25 8 76 8l72 -4q186 0 252 144l4 32q-46 216 -248 216q-84 0 -176 -36z" />
<glyph unicode="s" horiz-adv-x="663" d="M0 236q10 20 32 20h24q16 0 40 -80q61 -128 248 -128q169 0 196 172q8 17 8 64v16q0 120 -148 168l-36 4l-64 -4q-264 0 -264 176q0 136 240 208l28 4h16q132 0 132 -168q-10 -20 -32 -20h-24q-20 0 -28 88q-20 52 -60 52q-196 -51 -196 -168q0 -120 160 -120h112 q113 0 212 -116q28 -58 28 -104v-16q0 -90 -56 -196q-94 -88 -220 -88h-28q-225 0 -304 180z" />
<glyph unicode="t" horiz-adv-x="799" d="M0 708q0 69 460 144l96 4h24q188 -5 188 -36q-17 -36 -52 -36q-92 20 -168 20h-24l-108 -4v-180q0 -270 12 -592q-29 -28 -48 -28h-8l-12 12q-12 291 -12 552v224q-66 0 -328 -88h-12z" />
<glyph unicode="u" horiz-adv-x="686" d="M0 516v40q7 288 36 288l16 4h8q31 0 36 -16q-20 -169 -20 -288v-24q0 -480 256 -480q184 0 236 272q16 107 16 208v24q0 111 -20 292q15 12 36 12h8q40 0 40 -92q12 -96 12 -200v-40q0 -398 -196 -496q-59 -20 -96 -20h-76q-222 0 -280 340q-12 78 -12 176z" />
<glyph unicode="v" horiz-adv-x="739" d="M0 836v4q10 20 32 20h12q37 0 68 -120q220 -549 220 -580h4q0 43 164 448q63 134 144 252l20 4h12q22 0 32 -20v-12q-145 -203 -288 -648q-49 -176 -60 -176q0 -8 -20 -8h-12q-36 0 -48 92q-128 355 -280 744z" />
<glyph unicode="w" horiz-adv-x="957" d="M0 762v12q11 20 32 20l212 -4h4q44 -6 44 -20q-20 -146 -20 -245v-12q0 -220 92 -287q49 0 84 202q11 206 20 206l24 8h4q31 0 40 -20l-4 -136q0 -334 120 -432l28 -7h4q97 0 144 361q16 137 16 308v151q0 11 32 16h12q32 0 32 -31v-156q0 -696 -232 -696h-12 q-142 0 -196 233v16h-8q-37 -70 -100 -70h-4q-125 0 -164 218l-8 109v27q0 101 16 210h-52q-160 0 -160 19z" />
<glyph unicode="x" horiz-adv-x="678" d="M0 832v12q0 10 32 16h12q30 0 112 -148l180 -268q241 298 260 308h28q22 0 28 -16v-8l-272 -340q82 -128 248 -292v-8q0 -10 -36 -20q-54 0 -252 256v8q-184 -239 -184 -320q-15 -12 -28 -12h-12q-22 0 -32 20v20q11 81 212 348q-131 183 -296 444z" />
<glyph unicode="y" horiz-adv-x="626" d="M0 804v8q14 24 48 24q111 -45 272 -264l36 -52h4q164 320 184 320q0 7 28 8h4q24 -2 24 -12l-132 -244q-256 -477 -256 -576q-21 -16 -36 -16h-12q-21 0 -24 12v4q0 80 172 420q-69 176 -312 368z" />
<glyph unicode="z" horiz-adv-x="769" d="M0 53q55 139 268 405q243 259 356 320v4q-139 22 -260 22q-127 0 -312 -44q-24 0 -24 31q0 62 348 80h28q335 -18 340 -53v-9q0 -31 -96 -85q-138 -97 -344 -320q-216 -292 -216 -320q99 -17 216 -17q195 0 412 53q25 -9 28 -22v-5q0 -50 -140 -62q-141 -31 -300 -31h-28 q-272 8 -272 40z" />
<glyph unicode="{" horiz-adv-x="538" d="M0 886v5q0 44 92 61q38 40 46 112l-5 145v100q0 321 178 429q67 22 104 22h35q51 -7 51 -50v-6q0 -50 -92 -50q-128 0 -161 -256l-6 -95v-94l6 -140q0 -95 -69 -183q80 -91 80 -190l-5 -145v-94q0 -293 138 -346q121 0 121 -55v-6q-7 -50 -52 -50h-34q-235 0 -277 368 l-6 100v83l6 140q0 133 -110 133q-40 29 -40 62z" />
<glyph unicode="|" d="M427 -418v1995h160v-1995h-160z" />
<glyph unicode="}" horiz-adv-x="424" d="M0 50v5q0 50 72 50q99 0 125 255l4 94v94l-4 138q0 105 62 194q-53 89 -53 177l4 143v94q0 291 -107 343q-94 0 -94 56v5q6 50 40 50h27q155 0 206 -277q13 -84 13 -171v-100l-4 -138q12 -127 67 -127q40 -11 40 -50v-5q0 -57 -80 -78q-27 -28 -36 -111l4 -143v-83 q0 -341 -138 -443q-52 -22 -81 -22h-27q-40 7 -40 50z" />
<glyph unicode="~" horiz-adv-x="1072" d="M0 691q127 421 306 421h14q132 0 171 -199q93 -194 184 -194h29q199 0 199 262v46q0 62 64 62h28q43 -20 43 -51v-68q0 -248 -192 -336q-71 -23 -121 -23h-64q-214 0 -341 393h-7q-75 -34 -164 -273q-27 -92 -64 -92h-21q-64 8 -64 52z" />
<glyph unicode="&#xa1;" horiz-adv-x="672" />
<glyph unicode="&#xa2;" horiz-adv-x="996" d="M0 657v38q0 483 345 626q155 44 247 44l92 -6q78 164 130 164h6q59 -10 59 -57l-78 -152q43 0 175 -151v-19q0 -17 -52 -25h-26q-30 0 -110 101l-33 19q-228 -455 -423 -1005q155 -70 254 -70q160 0 299 196l46 7q34 0 52 -32q-52 -137 -260 -221q-82 -19 -144 -19 q-112 0 -280 57q-42 -152 -78 -152h-39l-39 38v25l46 158q-189 146 -189 436zM124 651q0 -209 110 -329q197 543 404 967h-78q-262 0 -384 -272q-52 -163 -52 -328v-38z" />
<glyph unicode="&#xa3;" d="M76 673v60h135q-58 143 -58 253q0 226 123.5 347t306.5 121h4q75 0 185.5 -14t110.5 -34v-161h-58q-5 61 -77 102q-72 31 -160 31h-2q-100 0 -190 -101q-84 -93 -84 -241q0 -15 1 -30q0 -135 53 -273h360v-60h-334q14 -30 31 -60q35 -63 35 -138q0 -161 -162 -375h402 q130 0 189 132l49 -1l-103 -231h-719l1 50q187 238 187 418q0 77 -34 143q-17 32 -31 62h-161z" />
<glyph unicode="&#xa4;" d="M122 413l118 117q-32 46 -48 103q-12 42 -12 84q0 44 13 87q16 55 47 99l-118 118l80 81l118 -118q44 30 99 46q44 14 89 14q41 0 83 -12q57 -17 102 -48l118 118l80 -81l-117 -117q31 -46 48 -102q12 -42 12 -85q0 -42 -12 -85q-17 -56 -48 -102l117 -117l-80 -81 l-118 118q-45 -32 -101 -48q-42 -12 -85 -12q-42 0 -85 12q-57 16 -102 48l-118 -118zM284 716q0 -28 9 -56q16 -59 57 -100q41 -40 99 -57q29 -8 58 -8t58 8q58 17 99 57q40 41 57 99q9 29 9 58t-9 58q-17 58 -57 99q-41 40 -100 57q-29 8 -58 8t-58 -9q-58 -17 -98 -56 q-39 -40 -56 -98q-10 -30 -10 -60z" />
<glyph unicode="&#xa5;" horiz-adv-x="1262" d="M8 1176q0 19 10.5 27.5t32.5 8.5q27 0 123 -8t164 -8h57h31q33 0 41 -6.5t8 -26.5q0 -8 -15 -14t-38 -6q-6 0 -18.5 2t-18.5 2q-24 0 -37.5 -9.5t-13.5 -25.5q0 -18 16.5 -52t46.5 -77l158 -221q13 -19 33 -53q41 -70 71 -70q9 0 16.5 5t14.5 15l277 396q8 12 13 26.5 t5 24.5q0 18 -10 27t-37 14q-15 2 -41 4q-47 3 -47 25q0 15 8 22.5t25 7.5q3 0 15 -1q56 -7 108 -7h139q30 0 65 1t37 1q11 0 18.5 -4.5t8.5 -11.5q0 -28 -38 -34q-18 -3 -27 -5q-63 -15 -147 -117q-7 -9 -12 -15l-169 -206h323q15 0 24 -6t9 -17q0 -15 -6 -20.5t-23 -5.5 h-366q-46 -57 -96.5 -112.5t-52.5 -59.5h511q18 0 25.5 -5.5t7.5 -17.5q0 -14 -7 -21t-22 -7h-530q0 -11 -1 -30.5t-1 -29.5l2 -215q0 -114 5.5 -150t20.5 -44q30 -17 107.5 -19t77.5 -31q0 -12 -10 -20t-25 -8q-2 0 -35.5 4t-64.5 4q-91 0 -208.5 -4t-142.5 -4q-31 0 -40 4 t-9 16t8 18.5t37 12.5q9 2 25 5q74 16 92 32q17 13 24 47t7 102l-2 242q0 19 -1.5 35t-4.5 32l-484 1q-14 0 -21 6.5t-7 19.5t6.5 19t21.5 6h467l-121 172h-344q-17 0 -23.5 5.5t-6.5 18.5q0 14 6 19.5t22 5.5h307q-43 57 -108 155q-131 197 -227 197q-7 0 -13 5.5t-6 11.5z " />
<glyph unicode="&#xa6;" d="M427 371h160v-789h-160v789zM427 789v789h160v-789h-160z" />
<glyph unicode="&#xa7;" d="M170 1130q0 148 89 237q82 79 216 86q8 1 17 1h3q66 0 163 -16.5t97 -41.5v-194h-51q-5 81 -80 132q-70 47 -149 51h-15q-78 0 -125 -44.5t-47 -117.5q0 -132 287 -269q149 -67 204.5 -143.5t55.5 -187.5q0 -171 -101 -282q-47 -39 -99 -64q108 -56 154 -118 q55 -77 55 -187q0 -171 -101 -283q-124 -102 -277 -105v1q-6 -1 -13 -1h-3q-66 0 -163 16.5t-97 41.5v194h51q5 -81 80 -132q68 -45 145 -50q113 6 185 69q72 64 72 165q0 125 -316 276q-123 64 -175.5 137t-52.5 177q0 148 89 237q67 65 170 82l-40 19q-123 64 -175.5 137 t-52.5 177zM297 571q0 -123 248 -250q56 16 97 53q73 65 73 166q0 5 -1 10h-2q-1 14 -4 27q-22 61 -113 127q-59 29 -126 29q-78 0 -125 -44.5t-47 -117.5z" />
<glyph unicode="&#xa8;" horiz-adv-x="1024" d="M209 1263q0 13 14 26l71 72q13 12 25 12q11 0 27 -14l69 -73q10 -14 10 -25q0 -13 -12 -27l-69 -75q-17 -17 -25 -17q-14 0 -25 12l-76 86q-9 12 -9 23zM574 1263q0 13 14 26l71 72q13 12 25 12q11 0 27 -13l69 -74q10 -14 10 -25q0 -13 -12 -26l-69 -76q-17 -17 -25 -17 q-14 0 -25 12l-76 87q-9 11 -9 22z" />
<glyph unicode="&#xa9;" horiz-adv-x="1674" d="M100 718q0 148 55.5 283t159.5 238q102 104 238.5 160.5t286.5 56.5q145 0 280 -56.5t239 -160.5q102 -101 158.5 -238t56.5 -283q0 -147 -56.5 -282t-162.5 -240q-105 -105 -239 -159.5t-283 -54.5q-146 0 -278 55.5t-238 160.5q-106 104 -161.5 237.5t-55.5 282.5z M160 718q0 -137 51 -259t148 -219q98 -96 219 -147t256 -51q137 0 259.5 50.5t219.5 145.5q97 98 149 221.5t52 258.5q0 134 -52 259.5t-145 219.5q-96 96 -220 147.5t-258 51.5q-137 0 -262 -51.5t-220 -147.5t-146 -219.5t-51 -259.5zM351 719q0 126 65.5 244t187.5 184.5 t254 66.5q38 0 75 -6.5t76 -20.5q5 -1 9 -1q19 0 26 30h42l72 -198h-44q-52 94 -131 124q-72 26 -147 26h-15q-86 -8 -166.5 -71t-121.5 -177q-33 -90 -33 -184q0 -25 2 -50q11 -121 69.5 -224t149.5 -152q72 -40 166 -42q124 0 194 56t70 126h53v-100q0 -46 -96.5 -86.5 t-242.5 -40.5q-142 0 -264 68t-186 185t-64 243z" />
<glyph unicode="&#xaa;" horiz-adv-x="648" d="M0 788v29q15 37 66 37h122l123 10l132 -10h122q51 0 66 -37v-29l-28 -28l-292 9l-292 -9zM104 1053v28q0 140 254 161h9q0 72 -37 85h-76q-25 -11 -66 -85h-37l-19 19v28q0 95 151 123h28q141 0 141 -208v-9l-9 -123q0 -104 66 -104l9 -10v-37l-19 -19h-38q-75 11 -75 56 l-141 -37q-141 37 -141 132zM179 1062q22 -56 66 -56l122 37v114h-47q-109 0 -141 -95z" />
<glyph unicode="&#xab;" horiz-adv-x="944" d="M174 479l342 303h14v-37l-205 -266l205 -266v-37h-14zM487 479l342 303h14v-37l-205 -266l205 -266v-37h-14z" />
<glyph unicode="&#xac;" d="M87 667v100h840v-491l-1 -1h-98v392h-741z" />
<glyph unicode="&#xad;" horiz-adv-x="799" d="M10 827q0 43 24 77l180 9h372l176 -9q28 -25 28 -77t-28 -77l-364 9l-360 -9q-28 25 -28 77z" />
<glyph unicode="&#xae;" horiz-adv-x="1674" d="M100 718q0 148 55.5 283t159.5 238q102 104 238.5 160.5t286.5 56.5q145 0 280 -56.5t239 -160.5q102 -101 158.5 -238t56.5 -283q0 -147 -56.5 -282t-162.5 -240q-105 -105 -239 -159.5t-283 -54.5q-146 0 -278 55.5t-238 160.5q-106 104 -161.5 237.5t-55.5 282.5z M160 718q0 -137 51 -259t148 -219q98 -96 219 -147t256 -51q137 0 259.5 50.5t219.5 145.5q97 98 149 221.5t52 258.5q0 134 -52 259.5t-145 219.5q-96 96 -220 147.5t-258 51.5q-137 0 -262 -51.5t-220 -147.5t-146 -219.5t-51 -259.5zM524 269v50h43q37 0 37 121v538 q0 121 -37 121h-43v70h356q64 -1 125 -42q60 -41 92.5 -114t32.5 -152q0 -78 -32 -150.5t-114 -134.5l82 -116q100 -141 150 -141h34v-50h-346v50h45q30 0 30 22q0 29 -69 114l-75 102q-42 0 -84 42v-159q0 -121 36 -121h53v-50h-316zM751 725l3 -8q23 -56 56 -81 q29 -22 56 -22h6q31 4 61.5 38.5t46.5 97.5q13 50 13 103q0 13 -1 27q-4 67 -28 124.5t-56.5 76t-63.5 18.5h-93v-374z" />
<glyph unicode="&#xaf;" horiz-adv-x="670" />
<glyph unicode="&#xb0;" horiz-adv-x="674" d="M60 1164q0 116 81.5 197t197.5 81q115 0 196 -81.5t81 -196.5q0 -114 -82 -196t-197 -82q-117 0 -197 81t-80 197zM130 1163q0 -87 61 -147t148 -60t147 60t60 147t-60.5 148t-146.5 61t-147.5 -61t-61.5 -148z" />
<glyph unicode="&#xb1;" horiz-adv-x="1055" d="M0 371v6q0 60 153 60l413 12h60q387 0 387 -54v-24q-10 -54 -53 -54q-206 18 -360 18h-14l-539 -18q-47 18 -47 54zM0 953v6q0 60 153 60l280 12v42q0 348 60 348h27q60 -9 60 -48q-20 -180 -20 -324v-18h73q380 0 380 -60v-18q-10 -54 -53 -54q-183 18 -354 18h-46 l20 -366q-20 -42 -60 -42h-7q-66 0 -66 156l-14 252l-386 -18q-47 18 -47 54z" />
<glyph unicode="&#xb2;" />
<glyph unicode="&#xb3;" />
<glyph unicode="&#xb4;" horiz-adv-x="1024" d="M316 1078l291 297q35 35 55.5 47t40.5 12q33 0 53.5 -20t20.5 -51q0 -22 -15.5 -42t-46.5 -40l-330 -203h-69z" />
<glyph unicode="&#xb5;" horiz-adv-x="1180" />
<glyph unicode="&#xb6;" horiz-adv-x="1024" d="M93 1086q0 157 107.5 253t285.5 96h443v-70h-127v-1365h-82v1365h-166v-1365h-84v738q-174 8 -275.5 102.5t-101.5 245.5z" />
<glyph unicode="&#xb7;" horiz-adv-x="508" d="M129 709q0 15 16 31l82 84q15 14 29 14q13 0 31 -16l80 -86q12 -16 12 -29q0 -15 -14 -31l-80 -88q-20 -20 -29 -20q-16 0 -29 14l-88 101q-10 13 -10 26z" />
<glyph unicode="&#xb8;" horiz-adv-x="1024" d="M360 -290q85 -52 152 -52q66 0 94.5 21.5t28.5 66.5t-49 64q-40 16 -102 16q-16 0 -34 -2l48 176h63l-37 -104q32 4 62 5q86 0 134 -40.5t48 -113.5q0 -76 -58.5 -120.5t-160.5 -44.5q-109 0 -189 32v96z" />
<glyph unicode="&#xb9;" />
<glyph unicode="&#xba;" horiz-adv-x="718" />
<glyph unicode="&#xbb;" horiz-adv-x="944" d="M101 176v37l205 266l-205 266v37h14l342 -303l-342 -303h-14zM414 176v37l205 266l-205 266v37h14l342 -303l-342 -303h-14z" />
<glyph unicode="&#xbc;" horiz-adv-x="1708" />
<glyph unicode="&#xbd;" horiz-adv-x="1964" />
<glyph unicode="&#xbe;" horiz-adv-x="1708" />
<glyph unicode="&#xbf;" horiz-adv-x="748" />
<glyph unicode="&#xc0;" horiz-adv-x="1157" d="M0 43q134 315 134 352q40 36 442 1020q36 86 118 86q226 0 418 -1199l32 -266q-45 -36 -79 -36h-39q-37 0 -71 352l-32 136q-120 36 -237 36h-23q-220 0 -379 -129q-141 -366 -166 -366q-33 -22 -79 -22q-39 12 -39 36zM347 539h8q162 71 339 71h56l157 -14v7 q0 152 -181 668q-13 2 -32 58q-23 -26 -347 -790zM410 1767q32 57 87 57h32q113 -111 260 -201v-22q-39 -50 -87 -50h-8q-188 73 -284 216z" />
<glyph unicode="&#xc1;" horiz-adv-x="1213" d="M0 43q139 311 139 348q40 36 456 1010q37 86 122 86q234 0 432 -1188l33 -263q-47 -36 -82 -36h-40q-39 0 -74 349l-32 135q-125 35 -245 35h-24q-227 0 -392 -128q-145 -363 -171 -363q-34 -21 -81 -21q-41 12 -41 36zM359 534h8q168 71 350 71h57l163 -15v8 q0 150 -187 661q-13 2 -33 57q-24 -26 -358 -782zM620 1558q0 39 154 121q133 128 180 128h32l25 -21v-15q-224 -221 -343 -234h-24z" />
<glyph unicode="&#xc2;" horiz-adv-x="1213" d="M0 42q138 304 138 345q56 69 356 780l138 274q31 21 72 21h8q266 0 462 -1413v-14q-47 -35 -81 -35h-40q-38 0 -73 345l-33 133q-129 35 -235 35h-24q-373 -29 -413 -176q-125 -293 -154 -309q-33 -21 -81 -21q-40 12 -40 35zM356 527h8q175 71 357 71h16l194 -14v7 q-99 494 -194 668q-16 2 -25 42q-16 -9 -356 -774zM429 1561v14l251 183q0 38 97 49h16q32 -18 154 -169l65 -56q0 -37 -105 -63q-35 0 -186 154q-185 -133 -251 -133h-17z" />
<glyph unicode="&#xc3;" horiz-adv-x="1213" d="M0 43l154 375q25 11 325 723l155 319l81 21q234 0 431 -1183l32 -263q-47 -35 -81 -35h-41q-38 0 -73 347l-32 135q-126 35 -228 35h-41q-226 0 -390 -127q-145 -362 -170 -362q-34 -21 -81 -21q-41 12 -41 36zM357 531h9q167 71 349 71h57l162 -14v7q0 150 -187 659 q-13 2 -32 57q-22 -19 -358 -780zM455 1552v14q59 241 195 241q109 0 154 -170h25q28 0 73 149q31 21 73 21q65 -29 65 -64q-43 -248 -219 -248q-125 0 -179 135h-8q-24 -128 -114 -128q-47 14 -65 50z" />
<glyph unicode="&#xc4;" horiz-adv-x="1540" />
<glyph unicode="&#xc5;" horiz-adv-x="1540" />
<glyph unicode="&#xc6;" horiz-adv-x="1601" d="M0 34l101 393l354 1197q37 26 72 26h7q116 0 224 -598h8q69 470 144 470q184 111 455 111q181 0 181 -60l7 -34q0 -77 -36 -77l-145 8q-392 -26 -440 -128q-101 -418 -101 -547h7q211 128 440 128q181 0 181 -60l7 -34v-8q0 -47 -36 -69l-130 9q-253 0 -477 -154 q0 -402 282 -402q179 0 433 137q51 -26 51 -86v-17q-16 -122 -448 -196h-29q-140 0 -245 111l7 -43v-60q-29 -51 -72 -51h-15q-58 0 -58 154q-27 376 -57 376q0 34 -130 43h-51q-138 0 -253 -128q-86 -332 -122 -411q-37 -25 -73 -25q-43 8 -43 25zM289 616h14 q133 68 246 68l130 -17q-67 492 -152 761h-7z" />
<glyph unicode="&#xc7;" horiz-adv-x="919" d="M0 716v31q0 488 279 629q135 56 248 56h12q199 0 337 -198v-18q0 -20 -64 -31q-40 0 -127 117q-95 62 -165 62q-302 0 -380 -395q-19 -101 -19 -216v-25q0 -401 323 -487l83 -13q132 0 247 186l51 18q39 0 57 -31q-50 -139 -235 -222l-133 -19q-259 0 -425 217 q-89 138 -89 339zM165 25q62 56 266 105l102 6q144 0 228 -99v-6q0 -22 -69 -31h-32q-84 80 -171 80h-19q-56 0 -254 -74h-32z" />
<glyph unicode="&#xc8;" horiz-adv-x="957" d="M0 403v12q0 29 69 85q4 236 138 602q183 102 444 102h151q87 0 87 -57v-11q0 -27 -31 -45l-31 5h-163q-244 0 -395 -85q-106 -310 -106 -454q208 102 457 102h25q150 0 150 -34l7 -23v-28l-25 -29l-107 6h-37q-285 0 -476 -125v-6q0 -231 175 -295q41 -17 100 -17h32 q145 0 425 102h7q31 -29 31 -51v-17q0 -50 -200 -97q-125 -45 -251 -45h-38q-268 0 -350 301l-13 63l-19 -12h-6q-50 0 -50 51zM445 1414q30 40 69 40h25q98 -97 206 -159v-17q-27 -40 -81 -40h-13q-187 110 -206 176z" />
<glyph unicode="&#xc9;" horiz-adv-x="919" d="M0 399v11q0 30 68 85q4 234 135 595q180 102 438 102h148q86 0 86 -57v-11q0 -27 -31 -45l-31 6h-160q-240 0 -388 -84q-105 -307 -105 -450q205 101 450 101h25q148 0 148 -34l6 -22v-28l-25 -28l-105 5h-37q-279 0 -468 -123v-6q0 -229 173 -292q40 -17 98 -17h31 q143 0 419 101h6q31 -29 31 -51v-16q0 -50 -197 -96q-123 -45 -247 -45h-37q-263 0 -345 298l-12 62l-19 -11h-6q-49 0 -49 50zM438 1242v12l160 118q45 67 104 67h13l18 -17v-11q-129 -142 -246 -186h-31z" />
<glyph unicode="&#xca;" horiz-adv-x="987" d="M0 405v11q0 30 68 86q0 211 131 593q155 114 472 114h118q93 0 93 -57v-12q0 -27 -31 -45l-44 5h-143q-409 -24 -409 -119q-94 -289 -94 -422q209 102 460 102h19q149 0 149 -34l6 -23v-28l-25 -29l-124 6h-19q-276 0 -472 -125v-6q0 -234 174 -297q40 -17 99 -17h32 q146 0 422 103h6q31 -30 31 -51v-17q0 -50 -199 -97q-123 -46 -248 -46h-37q-284 0 -354 336l-6 29l-19 -11h-6q-50 0 -50 51zM335 1283l131 125l43 46h19l192 -171v-17l-18 -17h-7q-28 0 -149 114l-24 17q-135 -126 -156 -126q-16 0 -31 29z" />
<glyph unicode="&#xcb;" horiz-adv-x="1151" />
<glyph unicode="&#xcc;" horiz-adv-x="856" d="M0 1341v22q0 77 509 126h72q173 0 255 -70q-35 -63 -109 -63q-105 49 -204 49h-72q-22 -236 -22 -646v-50q0 -354 29 -625h29q174 0 341 35l15 -28q-49 -91 -407 -91h-87q-322 0 -342 35v14q14 35 95 56l225 -21q-22 148 -29 618q10 696 36 696h-7l-320 -64zM276 1728v7 q10 63 80 63h29q118 -127 240 -197v-14q-26 -56 -94 -56q-120 40 -255 197z" />
<glyph unicode="&#xcd;" horiz-adv-x="657" d="M0 1310v13q48 94 410 123h28q149 0 208 -68q-24 -61 -84 -61q-81 47 -174 47h-40q-16 -228 -16 -627v-48q0 -344 22 -607h23q134 0 264 34l11 -27q-38 -89 -315 -89h-67q-249 0 -264 34v14q11 34 73 54l174 -20q-17 143 -23 600q8 675 29 675h-6l-231 -61h-11zM281 1555 q0 37 107 116q91 123 123 123h23q17 0 17 -27q-87 -157 -236 -232h-17z" />
<glyph unicode="&#xce;" horiz-adv-x="657" d="M0 1267v13q44 89 413 119h23q154 0 215 -66q-28 -59 -73 -59q-111 46 -187 46h-40q-17 -221 -17 -607v-46q0 -333 23 -588h34q121 0 255 33l11 -26q-38 -86 -317 -86h-68q-251 0 -266 33v13q11 33 73 53l176 -20q-17 139 -23 581q8 653 29 653h-6l-232 -59h-12zM108 1538 q106 210 204 244h11q56 0 181 -211l6 -27q0 -29 -40 -52h-40l-101 145l-23 20q-35 -30 -113 -152l-34 -13h-23q-28 19 -28 46z" />
<glyph unicode="&#xcf;" horiz-adv-x="657" d="M0 1284q0 82 427 127q141 0 219 -67q-26 -60 -67 -60h-11q-105 47 -203 47h-17q-16 -223 -16 -612v-33q0 -365 22 -606h34q125 0 253 33l11 -26q-38 -87 -315 -87h-56q-275 4 -275 33v14q9 28 67 53l180 -20q-17 140 -23 586l17 638l17 20l-236 -59h-17q-11 0 -11 19z M45 1664q20 113 90 113q69 0 84 -106v-7q-12 -107 -90 -107q-62 0 -84 107zM388 1671q15 106 79 106h16q59 0 79 -106q-20 -107 -79 -107h-22q-73 20 -73 107z" />
<glyph unicode="&#xd0;" horiz-adv-x="1518" />
<glyph unicode="&#xd1;" horiz-adv-x="1030" d="M0 45q19 1323 56 1323l6 7h42q75 0 132 -186q281 -580 590 -972h7l-7 32v224q0 382 62 889l42 13h7q54 0 76 -39q-56 -559 -56 -863v-172l21 -263l-41 -19q-179 0 -666 857l-104 211h-7q-28 -517 -28 -1068l-28 -19h-28q-76 8 -76 45zM139 1503q51 249 187 249h14 q87 0 257 -185l41 -20q51 167 97 167h14q51 0 63 -64q-50 -211 -132 -211q0 -13 -42 -13q-96 0 -277 192l-21 13h-7q-34 -17 -69 -167q-37 -25 -63 -25q-47 0 -62 64z" />
<glyph unicode="&#xd2;" horiz-adv-x="1198" d="M0 747v45q0 398 309 616l28 6h29q49 0 49 -45q57 26 133 26h29q399 0 541 -380q35 -109 35 -229v-39q0 -507 -373 -701q-96 -46 -189 -46h-50q-316 0 -478 386q-63 174 -63 361zM134 773q0 -570 379 -694h71q228 0 372 327q63 167 63 354v13q0 392 -309 530l-169 13 q-150 0 -309 -294q-77 0 -77 -53q-21 -99 -21 -190v-6zM352 1631v19q34 46 77 46h28q110 -112 232 -183v-20q-30 -46 -91 -46h-14q-122 64 -232 184z" />
<glyph unicode="&#xd3;" horiz-adv-x="1274" d="M0 777v48q0 388 298 627q26 20 51 20h21q58 0 58 -47q73 27 146 27h7q410 0 559 -361q51 -127 51 -259v-55q0 -540 -399 -736q-93 -41 -182 -41h-51q-321 0 -494 395q-65 193 -65 382zM138 784q23 -583 370 -695l58 -7h37q236 0 385 341q65 170 65 368v13q0 395 -305 546 q-99 20 -182 20q-162 0 -326 -307l-58 -13l-8 6q-36 -111 -36 -245v-27zM479 1547q1 20 175 137q81 95 130 95h29l15 -14v-6q0 -76 -283 -239h-37q-29 7 -29 27z" />
<glyph unicode="&#xd4;" horiz-adv-x="1197" d="M0 762v47q0 403 317 636l36 6q73 0 73 -47q92 27 158 27q407 0 556 -374q43 -116 43 -254v-47q-23 -542 -382 -709q-99 -47 -195 -47h-51q-324 0 -490 395q-65 180 -65 367zM137 776q23 -579 368 -689l43 -7h51q253 0 404 388q43 168 43 308v20q0 406 -332 542l-144 13 q-165 0 -325 -294l-79 -27q-29 -128 -29 -241v-13zM353 1545v20q158 104 239 187q0 18 57 27h29q16 -2 108 -134l80 -73q0 -55 -94 -67q-64 18 -152 147h-7q-174 -127 -216 -127h-22z" />
<glyph unicode="&#xd5;" horiz-adv-x="1221" d="M0 746v46q0 389 304 616l57 13q57 -7 57 -46q60 20 155 26q396 0 546 -367q42 -117 42 -248v-46q-23 -531 -375 -694q-97 -46 -191 -46h-50q-318 0 -481 386q-64 174 -64 360zM135 760q22 -568 361 -675l42 -6h50q248 0 396 379q42 164 42 302v19q0 396 -325 530l-142 14 q-162 0 -318 -289q-21 -19 -71 -19q-35 -94 -35 -242v-13zM290 1526q84 268 206 268h14q90 0 134 -170l29 -46h14q80 0 113 177q0 27 57 39q70 -17 70 -59q0 -157 -134 -255q-52 -26 -113 -26q-129 0 -184 196q-28 -17 -78 -164q-32 -26 -64 -26q-64 22 -64 66z" />
<glyph unicode="&#xd6;" horiz-adv-x="1614" />
<glyph unicode="&#xd7;" d="M161 470l247 247l-247 248l99 98l247 -247l248 247l98 -99l-247 -247l247 -247l-99 -99l-247 247l-247 -247z" />
<glyph unicode="&#xd8;" horiz-adv-x="1614" />
<glyph unicode="&#xd9;" horiz-adv-x="1213" d="M0 906v71q12 524 64 524h58q38 0 50 -28q-36 -303 -36 -496v-64q0 -704 337 -828l122 -14q360 0 429 559q22 102 22 283v64q0 183 -36 503q26 21 50 21h36q65 0 65 -177q21 -131 21 -347v-71q0 -693 -351 -871q-106 -35 -172 -35h-136q-320 0 -459 411q-64 217 -64 495z M344 1685v7q22 64 71 64h15q136 -43 294 -234l7 -7v-7q-23 -64 -72 -64h-14q-34 0 -122 107q-172 115 -172 127z" />
<glyph unicode="&#xda;" horiz-adv-x="1213" d="M0 908v71q12 525 64 525l43 7q45 0 65 -36q-36 -296 -36 -503v-57q0 -718 344 -830q31 -14 115 -14q360 0 429 560q22 103 22 284v57q0 200 -36 510q33 28 65 29q71 0 71 -78q36 -182 36 -454v-71q0 -695 -351 -873q-106 -35 -172 -35h-136q-320 0 -459 411 q-64 218 -64 497zM501 1468v36q176 210 316 248h7q42 0 57 -43q0 -49 -122 -106l-179 -163h-28q-39 0 -51 28z" />
<glyph unicode="&#xdb;" horiz-adv-x="1213" d="M0 819v57q12 470 64 470h56q39 0 50 -26q-35 -271 -35 -444v-57q0 -632 333 -743l120 -13q356 0 425 502q21 92 21 254v57q0 164 -35 451q26 19 50 19h35q64 0 64 -159q21 -117 21 -311v-57q0 -631 -347 -787q-105 -32 -170 -32h-135q-405 0 -503 578zM326 1504v7 q66 144 241 241h42q174 -113 220 -229q-27 -50 -71 -50h-28l-149 158h-14q-30 -16 -142 -152l-35 -6h-29z" />
<glyph unicode="&#xdc;" horiz-adv-x="1213" d="M0 866v68q17 488 51 488q0 20 64 20q58 -12 58 -27q-36 -287 -36 -488v-40q0 -650 303 -792q64 -27 130 -27l22 6l36 -6q283 0 390 433q36 182 36 386v40q0 188 -36 495q35 20 79 20q72 0 72 -156q22 -170 22 -352v-68q0 -647 -339 -825q-111 -41 -188 -41h-137 q-322 0 -462 393q-65 207 -65 473zM253 1631v34q0 77 115 95q101 -27 101 -95v-34q0 -76 -115 -94q-101 27 -101 94zM686 1652q21 108 101 108h21q82 0 101 -115q-29 -102 -93 -102h-36q-73 0 -94 109z" />
<glyph unicode="&#xdd;" horiz-adv-x="1233" />
<glyph unicode="&#xde;" horiz-adv-x="1120" />
<glyph unicode="&#xdf;" horiz-adv-x="1251" />
<glyph unicode="&#xe0;" horiz-adv-x="589" d="M0 24q68 175 68 196q20 20 224 568q18 48 60 48q115 0 212 -668l16 -148q-23 -20 -40 -20h-20q-19 0 -36 196l-16 76q-61 20 -120 20h-12q-111 0 -192 -72q-71 -204 -84 -204q-17 -12 -40 -12q-20 7 -20 20zM176 300h4q82 40 172 40h28l80 -8v4q0 84 -92 372q-6 1 -16 32 q-12 -14 -176 -440zM208 984q16 32 44 32h16q58 -62 132 -112v-12q-20 -28 -44 -28h-4q-95 40 -144 120z" />
<glyph unicode="&#xe1;" horiz-adv-x="593" d="M0 24q68 175 68 196q20 20 224 568q18 48 60 48q115 0 212 -668l16 -148q-23 -20 -40 -20h-20q-19 0 -36 196l-16 76q-61 20 -120 20h-12q-111 0 -192 -72q-71 -204 -84 -204q-17 -12 -40 -12q-20 7 -20 20zM176 300h4q82 40 172 40h28l80 -8v4q0 84 -92 372q-6 1 -16 32 q-12 -14 -176 -440zM304 876q0 22 76 68q65 72 88 72h16l12 -12v-8q-110 -124 -168 -132h-12z" />
<glyph unicode="&#xe2;" horiz-adv-x="633" d="M0 24q68 173 68 196q28 39 176 444l68 156q15 12 36 12h4q131 0 228 -804v-8q-23 -20 -40 -20h-20q-19 0 -36 196l-16 76q-64 20 -116 20h-12q-185 -16 -204 -100q-62 -167 -76 -176q-17 -12 -40 -12q-20 7 -20 20zM176 300h4q86 40 176 40h8l96 -8v4q-49 281 -96 380 q-8 1 -12 24q-8 -5 -176 -440zM212 888v8l124 104q0 22 48 28h8q16 -10 76 -96l32 -32q0 -21 -52 -36q-17 0 -92 88q-91 -76 -124 -76h-8z" />
<glyph unicode="&#xe3;" horiz-adv-x="633" d="M0 24l76 212q12 6 160 408l76 180l40 12q115 0 212 -668l16 -148q-23 -20 -40 -20h-20q-19 0 -36 196l-16 76q-62 20 -112 20h-20q-111 0 -192 -72q-71 -204 -84 -204q-17 -12 -40 -12q-20 7 -20 20zM176 300h4q82 40 172 40h28l80 -8v4q0 84 -92 372q-6 1 -16 32 q-11 -11 -176 -440zM224 876v8q29 136 96 136q54 0 76 -96h12q14 0 36 84q15 12 36 12q32 -17 32 -36q-21 -140 -108 -140q-61 0 -88 76h-4q-12 -72 -56 -72q-23 8 -32 28z" />
<glyph unicode="&#xe4;" horiz-adv-x="922" />
<glyph unicode="&#xe5;" horiz-adv-x="922" />
<glyph unicode="&#xe6;" horiz-adv-x="902" d="M0 16l56 184l196 560q21 12 40 12h4q64 0 124 -280h4q39 220 80 220q102 52 252 52q100 0 100 -28l4 -16q0 -36 -20 -36l-80 4q-217 -12 -244 -60q-56 -196 -56 -256h4q117 60 244 60q100 0 100 -28l4 -16v-4q0 -22 -20 -32l-72 4q-140 0 -264 -72q0 -188 156 -188 q99 0 240 64q28 -12 28 -40v-8q-9 -57 -248 -92h-16q-77 0 -136 52l4 -20v-28q-16 -24 -40 -24h-8q-32 0 -32 72q-15 176 -32 176q0 16 -72 20h-28q-77 0 -140 -60q-48 -155 -68 -192q-20 -12 -40 -12q-24 4 -24 12zM160 288h8q73 32 136 32l72 -8q-37 230 -84 356h-4z" />
<glyph unicode="&#xe7;" horiz-adv-x="595" d="M0 464v20q0 316 176 408q85 36 156 36h8q125 0 212 -128v-12q0 -13 -40 -20q-25 0 -80 76q-60 40 -104 40q-191 0 -240 -256q-12 -65 -12 -140v-16q0 -260 204 -316l52 -8q83 0 156 120l32 12q25 0 36 -20q-32 -90 -148 -144l-84 -12q-163 0 -268 140q-56 89 -56 220z M104 16q39 36 168 68l64 4q91 0 144 -64v-4q0 -14 -44 -20h-20q-53 52 -108 52h-12q-35 0 -160 -48h-20z" />
<glyph unicode="&#xe8;" horiz-adv-x="618" d="M0 284v8q0 21 44 60q3 166 88 424q117 72 284 72h96q56 0 56 -40v-8q0 -19 -20 -32l-20 4h-104q-156 0 -252 -60q-68 -218 -68 -320q133 72 292 72h16q96 0 96 -24l4 -16v-20l-16 -20l-68 4h-24q-182 0 -304 -88v-4q0 -163 112 -208q26 -12 64 -12h20q93 0 272 72h4 q20 -21 20 -36v-12q0 -35 -128 -68q-80 -32 -160 -32h-24q-171 0 -224 212l-8 44l-12 -8h-4q-32 0 -32 36zM284 996q20 28 44 28h16q63 -69 132 -112v-12q-17 -28 -52 -28h-8q-120 77 -132 124z" />
<glyph unicode="&#xe9;" horiz-adv-x="626" d="M0 284v8q0 21 44 60q3 166 88 424q117 72 284 72h96q56 0 56 -40v-8q0 -19 -20 -32l-20 4h-104q-156 0 -252 -60q-68 -218 -68 -320q133 72 292 72h16q96 0 96 -24l4 -16v-20l-16 -20l-68 4h-24q-182 0 -304 -88v-4q0 -163 112 -208q26 -12 64 -12h20q93 0 272 72h4 q20 -21 20 -36v-12q0 -35 -128 -68q-80 -32 -160 -32h-24q-171 0 -224 212l-8 44l-12 -8h-4q-32 0 -32 36zM284 884v8l104 84q29 48 68 48h8l12 -12v-8q-84 -101 -160 -132h-20z" />
<glyph unicode="&#xea;" horiz-adv-x="603" d="M0 284v8q0 21 44 60q0 148 84 416q100 80 304 80h76q60 0 60 -40v-8q0 -19 -20 -32l-28 4h-92q-264 -17 -264 -84q-60 -203 -60 -296q134 72 296 72h12q96 0 96 -24l4 -16v-20l-16 -20l-80 4h-12q-178 0 -304 -88v-4q0 -164 112 -208q26 -12 64 -12h20q94 0 272 72h4 q20 -21 20 -36v-12q0 -35 -128 -68q-80 -32 -160 -32h-24q-183 0 -228 236l-4 20l-12 -8h-4q-32 0 -32 36zM216 900l84 88l28 32h12l124 -120v-12l-12 -12h-4q-19 0 -96 80l-16 12q-87 -88 -100 -88q-11 0 -20 20z" />
<glyph unicode="&#xeb;" horiz-adv-x="909" />
<glyph unicode="&#xec;" horiz-adv-x="284" d="M0 860v8q20 28 44 28h16q51 -58 132 -116v-4q0 -20 -48 -32h-4q-70 25 -140 116zM100 264q0 408 36 408l20 4q27 -7 36 -28q-16 -243 -16 -388l8 -232q-12 -28 -36 -28h-4q-36 0 -36 72q-8 72 -8 192z" />
<glyph unicode="&#xed;" horiz-adv-x="250" d="M0 236v56q0 380 36 380l20 4q19 0 36 -32q-16 -185 -16 -340v-80l8 -192q-10 -32 -36 -32h-4q-40 0 -40 92zM32 760q0 8 108 92q28 44 64 44h8l12 -12v-8q-112 -132 -176 -132q-16 4 -16 16z" />
<glyph unicode="&#xee;" horiz-adv-x="207" d="M0 736v8q18 56 80 92h16q36 0 80 -80v-4q0 -30 -40 -36q-18 0 -52 40q-27 -40 -52 -40q-22 0 -32 20zM36 212v128q0 288 24 288l28 8q32 -12 32 -32l-8 -276v-112l8 -188q-12 -28 -36 -28h-4q-40 0 -40 104z" />
<glyph unicode="&#xef;" horiz-adv-x="284" d="M0 788v4q0 44 48 56h12q40 0 48 -56v-12q-10 -48 -48 -48h-12q-41 0 -48 56zM80 272q0 356 28 356l20 8q24 0 40 -32q-12 -163 -12 -344q0 -126 12 -224q-8 -36 -36 -36h-4q-44 0 -44 120zM160 780v16q0 41 56 52q52 -13 52 -52v-16q-13 -52 -52 -52h-4q-52 13 -52 52z " />
<glyph unicode="&#xf0;" horiz-adv-x="1139" />
<glyph unicode="&#xf1;" horiz-adv-x="1108" />
<glyph unicode="&#xf2;" horiz-adv-x="678" d="M0 456v28q0 243 176 376l16 4h16q28 0 28 -28q33 16 76 16h16q227 0 308 -232q20 -66 20 -140v-24q0 -309 -212 -428q-55 -28 -108 -28h-28q-180 0 -272 236q-36 106 -36 220zM76 472q0 -348 216 -424h40q130 0 212 200q36 102 36 216v8q0 239 -176 324l-96 8 q-86 0 -176 -180q-44 0 -44 -32q-12 -61 -12 -116v-4zM200 996v12q20 28 44 28h16q63 -69 132 -112v-12q-17 -28 -52 -28h-8q-69 39 -132 112z" />
<glyph unicode="&#xf3;" horiz-adv-x="671" d="M0 456v28q0 228 164 368q15 12 28 12h12q32 0 32 -28q40 16 80 16h4q226 0 308 -212q28 -74 28 -152v-32q0 -317 -220 -432q-51 -24 -100 -24h-28q-177 0 -272 232q-36 113 -36 224zM76 460q13 -342 204 -408l32 -4h20q130 0 212 200q36 100 36 216v8q0 232 -168 320 q-55 12 -100 12q-90 0 -180 -180l-32 -8l-4 4q-20 -65 -20 -144v-16zM264 908q1 11 96 80q45 56 72 56h16l8 -8v-4q0 -44 -156 -140h-20q-16 4 -16 16z" />
<glyph unicode="&#xf4;" horiz-adv-x="678" d="M0 456v28q0 241 176 380l20 4q40 0 40 -28q51 16 88 16q226 0 308 -224q24 -69 24 -152v-28q-13 -324 -212 -424q-55 -28 -108 -28h-28q-180 0 -272 236q-36 108 -36 220zM76 464q13 -346 204 -412l24 -4h28q140 0 224 232q24 100 24 184v12q0 243 -184 324l-80 8 q-91 0 -180 -176l-44 -16q-16 -76 -16 -144v-8zM196 924v12q87 62 132 112q0 10 32 16h16q9 -1 60 -80l44 -44q0 -32 -52 -40q-35 11 -84 88h-4q-96 -76 -120 -76h-12z" />
<glyph unicode="&#xf5;" horiz-adv-x="678" d="M0 456v28q0 238 172 376l32 8q32 -4 32 -28q34 12 88 16q223 0 308 -224q24 -72 24 -152v-28q-13 -324 -212 -424q-55 -28 -108 -28h-28q-180 0 -272 236q-36 106 -36 220zM76 464q13 -346 204 -412l24 -4h28q140 0 224 232q24 100 24 184v12q0 242 -184 324l-80 8 q-91 0 -180 -176q-12 -12 -40 -12q-20 -57 -20 -148v-8zM164 932q47 164 116 164h8q51 0 76 -104l16 -28h8q46 0 64 108q0 17 32 24q40 -10 40 -36q0 -96 -76 -156q-29 -16 -64 -16q-73 0 -104 120q-15 -11 -44 -100q-18 -16 -36 -16q-36 14 -36 40z" />
<glyph unicode="&#xf6;" horiz-adv-x="1010" />
<glyph unicode="&#xf7;" d="M87 647v140h839l1 -1v-139h-840zM382 377q0 15 16 31l82 84q15 14 29 14q13 0 31 -16l80 -86q12 -16 12 -29q0 -15 -14 -31l-80 -88q-20 -20 -29 -20q-16 0 -29 14l-88 101q-10 13 -10 26zM382 1070q0 15 16 31l82 84q15 14 29 14q13 0 31 -16l80 -86q12 -16 12 -29 q0 -15 -14 -31l-80 -88q-20 -20 -29 -20q-16 0 -29 14l-88 101q-10 13 -10 26z" />
<glyph unicode="&#xf8;" horiz-adv-x="1010" />
<glyph unicode="&#xf9;" horiz-adv-x="678" d="M0 512v40q7 296 36 296h32q22 0 28 -16q-20 -171 -20 -280v-36q0 -398 188 -468l68 -8q201 0 240 316q12 58 12 160v36q0 103 -20 284q15 12 28 12h20q36 0 36 -100q12 -74 12 -196v-40q0 -392 -196 -492q-59 -20 -96 -20h-76q-179 0 -256 232q-36 123 -36 280zM192 952 v4q13 36 40 36h8q76 -24 164 -132l4 -4v-4q-12 -36 -40 -36h-8q-19 0 -68 60q-96 65 -96 72z" />
<glyph unicode="&#xfa;" horiz-adv-x="665" d="M0 512v40q7 296 36 296l24 4q25 0 36 -20q-20 -167 -20 -284v-32q0 -405 192 -468q17 -8 64 -8q201 0 240 316q12 58 12 160v32q0 113 -20 288q18 16 36 16q40 0 40 -44q20 -103 20 -256v-40q0 -392 -196 -492q-59 -20 -96 -20h-76q-179 0 -256 232q-36 123 -36 280z M280 828v20q98 119 176 140h4q24 0 32 -24q0 -28 -68 -60l-100 -92h-16q-21 0 -28 16z" />
<glyph unicode="&#xfb;" horiz-adv-x="699" d="M0 512v40q7 296 36 296l24 4q25 0 36 -20q-20 -167 -20 -284v-32q0 -405 192 -468q17 -8 64 -8q201 0 240 316q12 58 12 160v32q0 113 -20 288q18 16 36 16q40 0 40 -44q20 -103 20 -256v-40q0 -392 -196 -492q-59 -20 -96 -20h-76q-179 0 -256 232q-36 123 -36 280z M280 828v20q98 119 176 140h4q24 0 32 -24q0 -28 -68 -60l-100 -92h-16q-21 0 -28 16z" />
<glyph unicode="&#xfc;" horiz-adv-x="682" d="M0 512v40q9 288 28 288q0 12 36 12q32 -7 32 -16q-20 -169 -20 -288v-24q0 -384 168 -468q35 -16 72 -16l12 4l20 -4q157 0 216 256q20 108 20 228v24q0 111 -20 292q19 12 44 12q40 0 40 -92q12 -101 12 -208v-40q0 -382 -188 -488q-61 -24 -104 -24h-76 q-179 0 -256 232q-36 123 -36 280zM140 964v20q0 45 64 56q56 -16 56 -56v-20q0 -45 -64 -56q-56 16 -56 56zM380 976q12 64 56 64h12q45 0 56 -68q-16 -60 -52 -60h-20q-40 0 -52 64z" />
<glyph unicode="&#xfd;" horiz-adv-x="868" />
<glyph unicode="&#xfe;" horiz-adv-x="1010" />
<glyph unicode="&#xff;" horiz-adv-x="868" />
<glyph unicode="&#x2c6;" horiz-adv-x="1024" d="M221 1079l232 355h118l232 -355h-58l-233 216l-233 -216h-58z" />
<glyph unicode="&#x2dc;" horiz-adv-x="1024" d="M234 1132q19 106 68 158.5t129 52.5q46 -1 113 -24q64 -23 112 -23h4q36 0 58 20t36 66h54q-20 -103 -68.5 -154t-126.5 -51h-4q-50 0 -113 23q-66 24 -114 24q-39 0 -60.5 -20.5t-33.5 -71.5h-54z" />
<glyph unicode="&#x2000;" horiz-adv-x="912" />
<glyph unicode="&#x2001;" horiz-adv-x="1824" />
<glyph unicode="&#x2002;" horiz-adv-x="912" />
<glyph unicode="&#x2003;" horiz-adv-x="1824" />
<glyph unicode="&#x2004;" horiz-adv-x="608" />
<glyph unicode="&#x2005;" horiz-adv-x="456" />
<glyph unicode="&#x2006;" horiz-adv-x="304" />
<glyph unicode="&#x2007;" horiz-adv-x="304" />
<glyph unicode="&#x2008;" horiz-adv-x="228" />
<glyph unicode="&#x2009;" horiz-adv-x="364" />
<glyph unicode="&#x200a;" horiz-adv-x="101" />
<glyph unicode="&#x2010;" horiz-adv-x="799" d="M10 827q0 43 24 77l180 9h372l176 -9q28 -25 28 -77t-28 -77l-364 9l-360 -9q-28 25 -28 77z" />
<glyph unicode="&#x2011;" horiz-adv-x="799" d="M10 827q0 43 24 77l180 9h372l176 -9q28 -25 28 -77t-28 -77l-364 9l-360 -9q-28 25 -28 77z" />
<glyph unicode="&#x2012;" horiz-adv-x="799" d="M10 827q0 43 24 77l180 9h372l176 -9q28 -25 28 -77t-28 -77l-364 9l-360 -9q-28 25 -28 77z" />
<glyph unicode="&#x2013;" horiz-adv-x="1108" d="M56 419v120h996v-120h-996z" />
<glyph unicode="&#x2014;" horiz-adv-x="2048" d="M0 419v120h2048v-120h-2048z" />
<glyph unicode="&#x2018;" horiz-adv-x="557" d="M186 1233q0 109 71 226.5t139 117.5v-43q-73 -43 -87 -190q0 -119 129 -161v-42l-119 -125q-44 0 -88.5 65.5t-44.5 151.5z" />
<glyph unicode="&#x2019;" horiz-adv-x="557" d="M119 1410v42l119 125q44 0 88.5 -65.5t44.5 -151.5q0 -109 -71 -226.5t-139 -117.5v43q73 43 87 190q0 119 -129 161z" />
<glyph unicode="&#x201a;" horiz-adv-x="557" d="M119 114v42l119 125q44 0 88.5 -65.5t44.5 -151.5q0 -109 -71 -226.5t-139 -117.5v43q73 43 87 190q0 119 -129 161z" />
<glyph unicode="&#x201c;" horiz-adv-x="910" d="M186 1233q0 109 71 226.5t139 117.5v-43q-73 -43 -87 -190q0 -119 129 -161v-42l-119 -125q-44 0 -88.5 65.5t-44.5 151.5zM539 1233q0 109 71 226.5t139 117.5v-43q-73 -43 -87 -190q0 -119 129 -161v-42l-119 -125q-44 0 -88.5 65.5t-44.5 151.5z" />
<glyph unicode="&#x201d;" horiz-adv-x="910" d="M119 1410v42l119 125q44 0 88.5 -65.5t44.5 -151.5q0 -109 -71 -226.5t-139 -117.5v43q73 43 87 190q0 119 -129 161zM472 1410v42l119 125q44 0 88.5 -65.5t44.5 -151.5q0 -109 -71 -226.5t-139 -117.5v43q73 43 87 190q0 119 -129 161z" />
<glyph unicode="&#x201e;" horiz-adv-x="910" d="M119 114v42l119 125q44 0 88.5 -65.5t44.5 -151.5q0 -109 -71 -226.5t-139 -117.5v43q73 43 87 190q0 119 -129 161zM472 114v42l119 125q44 0 88.5 -65.5t44.5 -151.5q0 -109 -71 -226.5t-139 -117.5v43q73 43 87 190q0 119 -129 161z" />
<glyph unicode="&#x2022;" horiz-adv-x="1024" d="M216 718q0 123 87 209t210 86q122 0 208.5 -86.5t86.5 -208.5t-87.5 -209.5t-209.5 -87.5q-123 0 -209 87t-86 210z" />
<glyph unicode="&#x2026;" horiz-adv-x="2048" d="M129 136q0 15 16 31l82 84q15 14 29 14q13 0 31 -16l80 -86q12 -16 12 -29q0 -15 -14 -31l-80 -88q-20 -20 -29 -20q-16 0 -29 14l-88 101q-10 13 -10 26zM812 136q0 15 16 31l82 84q15 14 29 14q13 0 31 -16l80 -86q12 -16 12 -29q0 -15 -14 -31l-80 -88 q-20 -20 -29 -20q-16 0 -29 14l-88 101q-10 13 -10 26zM1495 136q0 15 16 31l82 84q15 14 29 14q13 0 31 -16l80 -86q12 -16 12 -29q0 -15 -14 -31l-80 -88q-20 -20 -29 -20q-16 0 -29 14l-88 101q-10 13 -10 26z" />
<glyph unicode="&#x202f;" horiz-adv-x="364" />
<glyph unicode="&#x2039;" horiz-adv-x="936" d="M0 428v4q0 38 152 88q265 118 740 228h8q28 -12 28 -36v-4q0 -40 -108 -52q-408 -108 -680 -220v-8q537 -226 732 -372l4 -20q-5 -36 -36 -36h-4q-10 0 -192 108q-253 136 -632 292q-12 15 -12 28z" />
<glyph unicode="&#x203a;" horiz-adv-x="928" d="M0 708v4q5 36 36 36q473 -110 776 -240q116 -42 116 -76v-4q0 -33 -92 -60q-401 -166 -736 -368h-12q-36 0 -36 44q0 25 144 100q281 158 592 284v8q-319 132 -756 236q-26 0 -32 36z" />
<glyph unicode="&#x205f;" horiz-adv-x="456" />
<glyph unicode="&#x20ac;" d="M-44 653l17 60h87v29q0 16 1 31h-71l17 60h58q14 145 76 281q81 178 226 274t298 96q43 0 87 -8q40 -10 82 -29q8 -6 16 -6q20 0 34 45h41l84 -281l-40 -1q-49 134 -138 178q-43 22 -81 32v3q-50 16 -101 16q-17 0 -34 -2q-120 -12 -226 -113.5t-157 -273.5 q-32 -104 -39 -211h706l-17 -60h-692q0 -30 2 -60h674l-17 -60h-652q17 -158 83 -298q74 -157 193 -236q102 -68 216 -69q186 3 256 91q74 91 74 185h48v-143q0 -70 -111 -127q-105 -54 -267 -56q-181 0 -325.5 98t-223.5 274q-62 135 -76 281h-108z" />
<glyph unicode="&#x2122;" horiz-adv-x="957" d="M0 1064v12q0 24 236 24h32q152 0 152 -24v-12q0 -12 -16 -12l-120 8h-52l-8 -176q0 -130 12 -296l-16 -12h-8l-16 16l-12 292l8 176h-4l-180 -8zM480 592l8 336v152l12 12h16q15 -11 60 -128q44 -78 76 -104q100 90 212 224h12l16 -16v-36q0 -256 20 -448l-12 -8h-16 q-23 0 -28 332l-4 108v4h-4q-160 -192 -204 -192h-4q-90 82 -108 152h-4v-16l-8 -372l-16 -12h-12z" />
<glyph unicode="&#x25fc;" horiz-adv-x="860" d="M0 0v860h860v-860h-860z" />
<glyph unicode="&#xfb01;" horiz-adv-x="631" d="M0 773v31q13 43 85 43h143l85 10l95 -10h143q72 0 85 -43v-31l-28 -32l-295 11l-294 -11zM85 1195q42 201 143 201l47 -11l10 11h9q238 -31 238 -201v-10q-26 -254 -228 -254h-10q-191 0 -209 264zM180 1164q20 -169 124 -169q133 0 133 211q-33 116 -105 116h-57 q-76 -84 -95 -84v-74z" />
</font>
</defs>
</svg>
