<?xml version="1.0" standalone="no"?>
<!DOCTYPE svg PUBLIC "-//W3C//DTD SVG 1.1//EN" "http://www.w3.org/Graphics/SVG/1.1/DTD/svg11.dtd" >
<svg xmlns="http://www.w3.org/2000/svg" xmlns:xlink="http://www.w3.org/1999/xlink" version="1.1">
<metadata>
Created by FontForge 20170731 at Wed Oct 21 17:58:17 2009
 By ,,,
LEVEL computer fonts v1.0 (c)2003 Harold Lohner  HLohner@aol.com  www.haroldsfonts.com
</metadata>
<defs>
<font id="Level" horiz-adv-x="574" >
  <font-face 
    font-family="Level"
    font-weight="400"
    font-stretch="normal"
    units-per-em="1000"
    panose-1="0 0 4 0 0 0 0 0 0 0"
    ascent="800"
    descent="-200"
    x-height="535"
    cap-height="710"
    bbox="-60 -200 1781 835"
    underline-thickness="20"
    underline-position="-163"
    unicode-range="U+0020-F002"
  />
<missing-glyph horiz-adv-x="500" 
d="M63 0v835h375v-835h-375zM125 63h250v710h-250v-710z" />
    <glyph glyph-name=".notdef" horiz-adv-x="500" 
d="M63 0v835h375v-835h-375zM125 63h250v710h-250v-710z" />
    <glyph glyph-name=".null" horiz-adv-x="0" 
 />
    <glyph glyph-name="nonmarkingreturn" horiz-adv-x="289" 
 />
    <glyph glyph-name="space" unicode=" " horiz-adv-x="289" 
 />
    <glyph glyph-name="exclam" unicode="!" horiz-adv-x="298" 
d="M318 -200h-318v394h69l-21 177l-11 88v161h21v21h21v21h22v21h21v21h140v-160l-11 -97l-23 -192h-18l-3 -21h-18l-2 -16h72v-24h59v-394zM251 545v147h-118v-9h108v-160l-10 -86l-20 -171h7l22 186zM230 523v148h-118v-9h108v-160l-10 -86l-20 -171h7l22 186zM208 502
v148h-117v-9h108v-160l-10 -86l-20 -171h7l22 186zM187 481v148h-117v-9h108v-161l-10 -85l-20 -171h7l21 186zM166 460v148h-117v-148l11 -93l22 -185h51l22 185zM247 99v107h-80l-1 -9h72v-98h9zM226 78v107h-80l-1 -9h72v-98h9zM205 57v107h-111v-9h102v-98h9zM184 35
v108h-111v-10h102v-98h9zM163 14v108h-111v-108h111z" />
    <glyph glyph-name="quotedbl" unicode="&#x22;" horiz-adv-x="422" 
d="M400 706l-20 -262h-20l-1 -22h-20l-1 -21h-20l-1 -21h-20l-1 -21h-86l-6 85v0l-2 -22h-19l-2 -21h-19l-2 -21h-19l-2 -21h-85l-20 263h23l-1 21h22l-1 21h22l-1 21h22l-1 21h125l-3 -42h15l-2 21h23l-2 21h125zM442 -200h-442v394h442v-394zM388 695h-100v-10h91
l-18 -230h8zM366 673h-99v-9h91l-18 -230h8zM231 695h-100l1 -10h91l-3 -42h7zM345 652h-99v-9h91l-18 -230h8zM210 673h-100l1 -9h91l-3 -42h7zM324 631h-100l1 -9h91l-18 -230h8zM303 610h-100l18 -239h64zM198 521q0 1 -4 50l-10 -137h7zM189 652h-100l1 -9h91l-18 -230
h7zM168 631h-100l1 -9h91l-18 -230h7zM147 610h-100l18 -239h63z" />
    <glyph glyph-name="numbersign" unicode="#" horiz-adv-x="530" 
d="M550 -200h-550v394h30v54h15v22h16l1 21h14v21h15v21h22v24h-84v81h15v21h15v21h16v21h15v21h22l1 82h15v21h15v21h15v21h16l-1 22h96l1 -85h9v21h15v21h16l-1 21h16v22h93q0 3 0 -167h83v-81h-15l-1 -21h-14v-21h-15v-21h-16v-21h-22v-24h84l1 -81h-16l1 -21h-16v-21
h-15v-16h93v-394zM489 511h-82q0 -3 0 166h-71l1 -10h66q0 4 0 -166h83v-48h3v58zM474 432v58h-83q0 -3 0 166h-70v-10h67q0 3 0 -166h82l1 -48h3zM459 411v57h-83q0 -2 0 167h-70v-10h66q1 -39 1 -166h82v-48h4zM443 447h-82q0 -3 0 166h-70v-9h66q0 3 0 -166h83l-1 -48h4
v57zM262 501v10h-6v166h-71v-10h67l1 -166h9zM263 480v10h-22v166h-71v-10h68l-1 -166h26zM491 264v57h-84v36h-4v-45h84v-48h4zM263 459v9h-37l-1 167h-70v-10h66l1 -166h41zM476 300h-85v57h-3v-66h85l-1 -49h4v58zM263 438v9h-52v166h-72v-9h68l1 -166h55zM460 221v58
h-84v78h-3l-1 -87h84l1 -49h3zM445 200v58h-84v99h-4v-109h84v-48h4zM113 501v10h-11v-10h11zM113 480v10h-27l1 -10h26zM113 459v9h-42v-9h42zM408 167h-4l-1 -68h4zM430 179l-1 58h-84v132h84l-1 57h-83q-1 40 0 166h-70q0 -172 0 -166h-81v166h-70l1 -166h-84v-57h84
v-132h-83v-58h84v-165h70v165h79l1 -165h71l-1 165h84zM113 438v9h-57v-9h57zM393 78l-1 89h-4l1 -89h4zM377 167h-4v-110h3zM361 167h-3l-1 -132h4v132zM113 312v9h-10v-9h10zM114 291l-1 9h-25v-9h26zM258 99v68h-4v-68h4zM114 270v9h-42v-9h42zM242 167h-3v-89h2z
M114 248v10h-57v-10h57zM227 57v110h-4v-110h4zM212 35v132h-4v-132h4zM275 369v-132h-79v132h79zM264 321h-7v36h-4l1 -45h10v9zM264 300h-22v57h-4v-66h25zM263 279h-36v78h-3l-1 -87h40v9zM263 258h-52v99h-4l1 -109h55v10z" />
    <glyph glyph-name="dollar" unicode="$" horiz-adv-x="557" 
d="M577 -200h-577v394h20v2h22v15v6h21v15v6h21v15v6h21v15v6h34q-105 46 -105 154q0 39 13 72q15 37 81 102t104 78v4l21 2v19h21v21h21v21h51v-56q175 -17 178 -187h-22l1 -21h-22l1 -21h-23l2 -21h-23l2 -22h-33q65 -26 93 -59q34 -39 34 -103q0 -38 -10 -69h53v-394z
M512 522q-7 153 -178 164v56h-27v-10h18v-56q72 -7 119.5 -46t56.5 -108h11zM491 501q-8 153 -178 164v55h-27v-9h18v-56q72 -7 119.5 -46t55.5 -108h12zM469 479q-7 154 -177 165v55h-27v-9h18v-56q72 -7 117 -45q49 -40 58 -110h11zM448 458q-7 153 -177 165v55h-27v-9h18
v-56q72 -7 117 -45q49 -40 58 -110h11zM232 671v3l-12 -5h2zM211 650v3q-9 -3 -15 -7zM211 632v6q-19 -4 -37 -13q14 4 37 7zM211 613v7q-35 -4 -58 -16q21 6 58 9zM522 263q0 68 -42 107q-30 27 -105 55h-44q92 -32 127 -60q55 -44 55 -123q0 -35 -10 -66q19 37 19 87z
M501 242q0 77 -59 120q-33 25 -129 57q0 4 1 14v15q0 25 -10 40v-82q95 -33 130 -60q57 -45 57 -126q0 -34 -9 -65q19 37 19 87zM480 220q0 78 -59 121q-34 25 -129 57v102l-9 5v-120q95 -33 130 -60q57 -45 57 -126q0 -34 -9 -65q19 37 19 86zM459 199q0 78 -59 121
q-34 25 -129 57v132l-9 2v-147q95 -33 130 -60q57 -45 57 -126q0 -34 -9 -65q19 37 19 86zM438 178q0 78 -59 121q-34 25 -129 57v167q73 -3 80 -86h97q-7 153 -177 165v55h-27v-54q-177 -13 -177 -169q0 -77 53 -117q34 -26 124 -52v-188q-50 8 -69 33q-16 21 -22 74h-100
q1 -94 50 -137q44 -39 141 -49v-81h28v82q86 6 134 49q53 47 53 130zM211 224v32l-5 1q2 -19 5 -33zM200 259q-31 9 -30 9h-53v-9h83zM211 154v29q-10 18 -15 64h-100v-9h89q4 -34 6 -45q6 -27 20 -39zM335 1v4l-9 -3v-1h9zM211 119v20q-28 19 -36 87h-100v-9h89
q4 -43 9 -57q10 -29 38 -41zM314 -20v18l-9 -3v-15h9zM211 91v16q-32 12 -45 39q-8 17 -13 59h-100l1 -9h89q5 -51 13 -67q14 -29 55 -38zM293 -41v34l-9 -2v-32h9zM272 -62v51l-9 -1v-50h9zM223 364q-83 25 -83 83q0 74 83 75v-158zM335 166q0 -44 -20 -63t-65 -24v176
q43 -15 60 -30q25 -21 25 -59zM211 446v31q-7 14 -7 32l-7 -1q-3 -10 -3 -19q0 -26 17 -43zM211 410v20q-28 16 -28 60q0 7 1 14l-3 -2q-8 -14 -8 -34q0 -40 38 -58zM211 380v17q-50 22 -50 70q0 10 2 20q-11 -16 -11 -40q0 -47 59 -67zM321 143l-8 -1v62q-4 6 -9 11v-80
l16 3zM316 125q-10 -2 -24 -4v103l-9 5v-115q20 3 32 8zM299 105q-10 -3 -28 -5v134l-9 4v-146q26 4 37 13z" />
    <glyph glyph-name="percent" unicode="%" horiz-adv-x="661" 
d="M494 702l-6 -7q-36 30 -76 34q-46 33 -118 44l1 9q71 -11 121 -44q41 -5 78 -36zM533 662l-5 -7q-115 77 -280 109l2 8q164 -31 283 -110zM568 617l-5 -7q-70 49 -159 88q-101 43 -174 48v9q153 -9 338 -138zM590 582l-5 -7q-81 60 -187 104q-118 48 -206 51v9
q94 -3 209 -51q101 -42 189 -106zM611 526l-4 -8q-16 7 -70 53l-19 2q-25 24 -92 53q-56 24 -103 36q-104 27 -180 27v9q88 0 182 -27q146 -43 197 -90h4q-20 22 -67 48q-105 57 -281 84l1 9q237 -36 341 -123q6 -7 21 -20l25 -3q12 -6 36 -21l-6 -7q-10 8 -33 19l-9 2
q18 -17 57 -43zM610 486l-4 -8q-26 13 -71.5 44.5t-69.5 44.5q-111 59 -257 83l1 9q148 -24 260 -84q24 -13 71 -45q44 -31 70 -44zM627 491l-6 -7q-94 80 -225 133q-141 56 -254 52l-1 9l10 1q151 4 326 -89q88 -47 150 -99zM631 409l-7 -5q-33 43 -76 80h-2l-1 2
q-143 124 -278 126l-1 -1l-3 1h-1q-12 13 -48 10l-1 9q9 1 18 0q-12 4 -21 2l-2 9q4 1 7 1q21 0 51 -22q139 0 284 -127q1 0 3 1q26 0 62 -36l-6 -7q-30 31 -50 34q44 -40 72 -77zM637 371l-8 -5q-67 99 -178 167q-120 73 -232 69l-1 9h5q153 4 297 -115q72 -60 117 -125z
M636 270l-8 -3l-8 22l9 3zM632 353l-7 -5q-117 154 -212 193q113 -63 214 -214l-8 -5q-47 73 -112 135q-77 74 -144 96v1q-66 27 -138 29v9q76 -2 144 -31q28 0 70 -23q89 -48 193 -185zM620 215l-9 -3l-7 24l9 3zM194 639q-7 -6 -16 -6q-6 0 -16 4l-1 -1l-2 1l-31 -7l-2 9
l32 7q4 5 9 9l-41 -6l-2 9l44 6l1 -8q7 4 18 8l3 -9q-15 -5 -22 -11q8 -2 12 -2q3 0 8 4zM624 304l-8 -5q-123 186 -259 236q-19 6 -57.5 18.5t-67.5 11.5q-46 0 -91 -21q-28 -12 -82 -47l-5 8q90 58 119 62q20 3 58 8q32 0 71 -13q49 -16 67 -23q37 -14 64 -31
q96 -60 191 -204zM201 627l-2 -9q-15 2 -30 2q-33 -1 -59 -13l-4 8q28 13 65 14q16 0 30 -2zM212 610l-2 -9q-10 2 -21 2q-37 -1 -90 -19l-3 8q54 19 92 20q13 0 24 -2zM620 268l-9 -3q-16 55 -39 69q34 -59 39 -94l-9 -1q-6 37 -42 99v0l-4 6v0q-33 61 -90.5 109.5
t-122.5 70.5q-14 5 -51 12l-18 6q-22 6 -47 6q-28 -1 -71 -17q-49 -18 -60 -37v0l-10 -9l-6 7l6 5q-15 -1 -31 -29l-8 5q19 33 39 33q5 0 9 -1q62 51 132 52q25 0 50 -6l18 -6q21 -4 64 -16q132 -50 206 -182q31 -2 55 -79zM221 588l-34 -7q-5 -14 -26 -15q-17 0 -36 -11
l-5 8q20 12 45 12q9 1 13 8q-6 3 -15 3q-26 0 -70 -27l-5 8q45 27 75 27q13 1 22 -4l34 7zM121 550q-14 0 -34 -17l-6 7q23 19 35 19l5 1v-10zM578 94q-12 -28 -25 -38l-5 7q-17 -24 -49 -42l-4 8q51 28 60 72l9 -2q-4 -18 -14 -34q8 6 19 32zM518 97q-24 -34 -48 -34
q-28 -1 -52 40q-12 20 -34 59q-32 54 -82 139l-3 4l8 5l2 -4q49 -82 81 -136q11 -21 35 -63q23 -35 43 -35q21 1 43 31zM557 52q-19 -27 -38 -34l-4 8q17 7 34 31zM611 197l-9 -2q-3 30 -20 51q-23 106 -119 192q-69 62 -179 86q-32 7 -55 6q-51 -1 -102 -41
q-10 -17 -27 -30q5 2 11 4q21 26 47 33q22 22 69 23q56 1 118 -23q119 -45 180 -137q37 -57 51 -108q29 -39 32 -98l-9 -1q-2 35 -15 67q7 -34 7 -61q1 -31 -8 -47l-8 4q8 15 7 42q0 31 -11 78.5t-25 71.5q-20 33 -30 49q-18 26 -35 45q-50 52 -139 87q-61 23 -116 22
q-42 -1 -62 -21q28 15 65 16q68 1 139 -39h4q26 1 82 -45t99 -146q21 -49 22 -113q0 -25 -4 -50l-9 2q4 23 3 53q-1 81 -51 165.5t-121 118.5q64 -44 109 -118t56 -151l1 -1l-1 -1q2 -14 2 -26q1 -51 -29 -87q-18 -20 -26 -28q-15 -15 -32 -21q-25 -27 -52 -28
q-42 -1 -79 54q-25 36 -58 115t-44 96q6 -56 63 -168q54 -104 119 -103q39 1 80 39l7 -7q-19 -17 -36 -26q30 12 65 31l5 -8q-91 -50 -144 -51q-9 0 -15 1q-7 -2 -14 -2q-46 -1 -81.5 49t-42.5 60q-23 36 -34 65v4q0 13 -8 25q9 -55 35 -98q42 -66 56 -80q35 -36 88 -35h22
q17 1 42 14q37 19 84 33l4 1l3 -9l-5 -1q-46 -14 -81 -32q-28 -15 -47 -15q-56 -1 -86 14.5t-60 62.5q-59 90 -65 155l-2 1l1 2q-19 57 -20 103q0 30 8 54l8 -3q-7 -22 -6 -50q0 -45 19 -102q20 -16 19 -42q25 -66 82 -131q33 -37 66 -36q8 0 15 2q6 -1 15 -1q14 0 32 4h-8
q-76 -1 -128 109q-61 130 -64 172q-1 6 -2 18h1q-2 13 -3 25q0 55 37 64q12 2 34 7q-11 5 -21 5q-13 0 -25 -10l-6 7q15 12 33 13q10 0 28 -9q56 -26 102 -102q9 -14 39 -77q14 -27 39 -83q3 -6 4 -15q2 5 2 12q-1 5 -2 13l-3 4l2 1q-5 17 -16 39q-3 4 -6 11q-5 15 -17 46
q-49 115 -130 157q-26 14 -58 13q-64 -1 -64 -62h-9q0 70 70 71q37 1 65 -14q84 -43 134 -161q6 -15 17 -46q2 -4 7 -13q12 -23 16 -43q5 -6 7 -6q4 1 4 10q-65 181 -122 226q-37 30 -52 38q-21 11 -61 18l1 9q42 -7 64 -19q15 -8 54 -38q58 -48 125 -232q-1 -21 -11 -22
q-3 0 -7 3v-3q1 -31 -25 -32q-26 0 -51 49q-51 101 -55 108q-48 85 -70 84h-2q-4 -11 -3 -20q0 -16 17 -43q18 -30 79 -138q37 -68 73 -67q10 0 18 6l1 1q44 31 43 61q-1 37 -43 124q-40 84 -69 114q-56 58 -127 79q-5 -6 -37 -8q-36 -3 -58 -17q-34 -22 -51 -76l-9 2
q29 91 122 100q11 1 26 5v-2v-1l3 4q-4 -1 -10 -1q-8 2 -23 3q-21 0 -46 -10q-90 -36 -88 -176q1 -32 5 -56q14 -76 42 -148q40 -100 83 -119q3 -3 9 -3t16 4q10 -18 55 -17v-9h-4q-32 -1 -49 9l1 -3q-10 -3 -20 -3q-20 -1 -40 9l4 8q18 -9 35 -8q10 0 15 1l-1 2
q-6 -2 -12 -2t-15 5q-16 10 -25 18q-37 37 -68 119q-26 71 -35 135q-5 36 -5 58q-2 135 80 178q-95 -37 -93 -151q0 -21 4 -65q20 -192 125 -283l-6 -7q-81 69 -113 204q-12 50 -19 137q-1 -22 -1 -44q4 -185 106 -275l-6 -7q-62 56 -87 130q-20 60 -22 156q-2 134 45 197
q-32 -33 -50 -107q-14 -62 -13 -120q0 -22 3 -46l-9 -1q-3 25 -3 46q-1 51 11 112q15 69 40 105l-11 -15l1 -3h-3q-41 -66 -44 -155h-9q2 83 39 147q-26 -22 -39 -100l-9 1q9 55 26 87l-7 3q11 32 28 44l6 -8q-14 -9 -23 -32q11 17 27 21q33 51 80 78q-23 -6 -42 -28l1 -1
q-2 -2 -5 -4q-11 -11 -24 -30l-8 6q6 8 10 13q-7 -6 -13 -16l-8 5q6 10 13 17l-10 -5v-1q-34 -24 -36 -74l-9 1q3 52 37 79v1l1 1q3 24 53 45l1 2h1q49 40 109 41q100 2 219 -79q49 -33 87.5 -92t52.5 -118q16 -23 20 -53zM83 482l-25 -32v1l-16 -27l-7 4l16 29l1 -1l23 32z
M375 -20l-3 -9q-32 13 -54 39t-42 52h-1v1q-83 101 -85 234v22l10 -1q-1 -10 -1 -20q2 -119 77 -221q-6 29 -45 111q-25 54 -26 113q-2 84 64 93l2 -9q-58 -8 -57 -83q1 -55 26 -110q47 -105 44 -126q20 -25 39 -50q23 -25 52 -36zM394 -71q-25 -4 -47 -5q-43 0 -62 10
q-32 19 -70 81q-34 55 -46 98q-26 89 -27 168q-1 45 21 91q8 15 10 19q6 10 14 14l4 -8q-11 -6 -21 -33l-4 2l3 -3q-19 -21 -18 -81q1 -78 26 -167q12 -41 45 -95q37 -61 68 -78q17 -9 56 -9q21 1 47 5zM333 -53l-1 -9l-4 1q-18 1 -43 21q-86 68 -120 249q-5 28 -6 59
q-3 154 99 155h14l-1 -9h-10q-95 -2 -92 -143q0 -31 5 -60q12 -76 52 -157q50 -102 107 -107zM513 -64l-47 -20l-4 9l48 19zM541 -28q-91 -61 -209 -68v9q112 6 204 67zM458 -85q-11 -7 -46 -21l-3 9q15 5 43 19zM261 -56l-6 -6q-63 53 -98 156q-30 88 -31 185q-1 29 2 55
l9 -1q-4 -35 -3 -69q3 -176 102 -293q15 -18 25 -27zM407 -104q-18 -8 -77 -14l-1 9q26 1 74 13zM404 -123q-35 -15 -86 -16h-8v10h9q48 0 81 15zM128 8l-8 -6q-58 69 -60 222q-1 16 0 31l9 -1q-1 -16 0 -32q2 -145 59 -214zM327 -120l-57 -4l-1 9l57 4zM290 -97
q-15 -4 -29 -5q-16 0 -32 4l2 9q16 -4 30 -4q12 1 26 5zM172 -44l-5 -8q-29 21 -39 40l8 5q8 -17 36 -37zM367 456l-2 1l2 -1v0zM365 457l-3 2v0zM387 409q-13 17 -30 21q8 -10 30 -21zM534 149q0 19 -9 38t-17 37q-3 9 -9 26q-24 61 -61 103q-13 16 -42 45v-2
q-41 16 -51 36q-14 11 -49 22q-2 -5 -8 -8q79 -23 132 -81q61 -67 113 -231q1 7 1 15zM545 205q-18 83 -72 154q-55 75 -129 109q-61 29 -114 28q-63 -2 -117 -60q49 51 121 52q18 1 67 -10q11 -1 32 -7q42 -17 100 -76.5t75 -101.5q22 -57 37 -88zM551 156q0 11 -1 22
q-11 14 -28 54q-22 55 -23 57q-6 14 -32 49q-71 98 -137 124q-9 3 -30 7q-52 10 -66 10q-9 0 -18 -1q28 0 70 -11.5t63 -26.5l2 1v-1q31 -2 48 -33q9 -6 46 -48q31 -36 59 -100q4 -10 12 -31q3 -5 8 -14q19 -35 19 -64q1 -20 -9 -36q-4 -34 -43 -61q-5 -24 -38 -24
q-43 -1 -105 98q6 -24 37 -59l-7 -6q-40 45 -40 70q0 5 1 9q-72 120 -73 165q0 24 15 25q6 0 12 -3q3 1 6 1q27 1 77 -84q31 -53 57 -114q20 -43 43 -42q-6 4 -12 14q-1 1 -28 52q-22 42 -69 127q-36 62 -78 62q-33 -1 -33 -34q0 -16 10 -36h-1q46 -113 63 -145
q53 -107 95 -116l-1 -9q-61 13 -128 175q-15 36 -44 109v1q-3 11 -3 21q-1 42 42 43q47 1 86 -66q10 -18 69 -128q9 -18 28 -52q6 -9 10 -12q1 6 -3 16l-18 40q-41 91 -60 121q-42 69 -93 94q-6 -6 -18.5 -8t-23.5 -4q-32 -8 -31 -52q0 -15 6 -33q10 -11 48 -99
q30 -73 50 -104q41 -67 81 -67q18 1 35 14h-6q-38 -1 -64 39l7 5q24 -36 58 -35q9 0 17 3l4 4l2 -2q25 12 56 53q23 30 22 76zM287 457q-39 12 -71 12q-84 -2 -115 -97q20 41 59.5 64.5t85.5 22.5h5v-4q11 -3 22 -3q10 0 14 5zM110 480q-24 -13 -31 -24q19 10 31 24zM477 46
q-6 -2 -13 -3q-48 0 -91 90q-18 38 -69 119q-18 30 -19 48q0 9 3 20q-3 1 -6 1q-7 0 -7 -12q1 -48 67 -157q70 -115 112 -114q16 0 23 8zM349 142v0l-1 1z" />
    <glyph glyph-name="ampersand" unicode="&#x26;" horiz-adv-x="681" 
d="M701 -200h-701v394h18q6 46 44 92q11 14 73 73q-44 57 -44 114q0 50 27 87q7 9 64 65q13 14 40 41q46 38 119 38q65 0 110 -38.5t45 -102.5q0 -50 -27 -89q-15 -23 -64 -69l45 -55h9l1 21h20l1 21h20l1 21h116q-4 -103 -68 -187l27 -32h124v-394zM484 563q0 59 -41.5 94
t-101.5 35q-48 0 -85 -18q30 9 64 9q65 0 110 -39t45 -102q0 -27 -7 -49q16 29 16 70zM463 542q0 59 -41.5 94t-101.5 35q-49 0 -85 -18q29 9 64 9q65 0 108 -38q47 -40 47 -103q0 -27 -7 -49q16 29 16 70zM606 401h-93v-9h84q-2 -51 -19 -99q24 49 28 108zM442 521
q0 58 -43 95q-40 34 -100 34q-49 0 -85 -18q29 9 64 9q64 0 109.5 -39t45.5 -103q0 -26 -7 -49q16 30 16 71zM585 380h-93l-1 -9h85q-2 -51 -19 -99q24 48 28 108zM421 499q0 59 -43 96q-40 34 -100 34q-49 0 -85 -18q29 9 63 9q65 0 110 -39t45 -103q0 -26 -6 -49
q16 29 16 70zM564 359h-93l-1 -9h85q-2 -51 -19 -100q24 49 28 109zM542 338h-92l-1 -9h85q-2 -51 -19 -100q23 49 27 109zM439 345l-43 52l-12 -13l45 -55h9zM641 99l-101 121l-11 -15l88 -106h24zM418 324l-43 52l-13 -13l53 -65q2 13 3 26zM620 78l-101 121l-11 -15
l88 -106h24zM412 283l-58 73l-14 -12l66 -82q4 9 6 21zM599 57l-101 120l-11 -15l88 -105h24zM401 250l-71 88l-15 -10l76 -95q6 9 10 17zM577 35l-100 121l-11 -15l88 -106h23zM556 14l-105 127q64 82 70 176h-92q-2 -55 -37 -104l-95 118q52 30 74 59q29 36 29 88
q0 59 -43 96q-41 34 -101 34q-66 0 -108 -33q-46 -37 -46 -102q0 -62 59 -126q-66 -41 -93 -71q-39 -45 -39 -107q0 -76 58 -124q54 -46 132 -46q93 0 166 70l44 -55h127zM310 477q0 -41 -63 -85q-48 59 -48 85q0 24 15.5 39.5t39.5 15.5q25 0 40.5 -15t15.5 -40zM331 135
q-46 -49 -104 -49q-37 0 -65 25t-28 61q0 57 80 109zM296 493q-4 11 -13 19q3 -7 13 -19zM298 471q-13 15 -32 48l-12 1l-1 -1q0 -21 38 -69q6 10 7 21zM285 440q-23 28 -29 36q-15 23 -15 42l-6 -2q-4 -8 -4 -18q0 -21 39 -69zM264 419q-46 56 -44 87q-10 -11 -10 -29
q0 -21 39 -69zM270 193l-37 45q8 -29 37 -45zM295 162l-10 12q-28 8 -47 31t-20 51l-5 6q-4 -13 -4 -26q0 -31 23.5 -53.5t53.5 -21.5zM307 147l-3 4q-17 -2 -20 -2q-36 0 -61 26t-25 62q0 10 2 20h-1q-11 -20 -11 -42q0 -32 24.5 -53.5t56.5 -21.5q19 0 38 7zM303 133
q-17 -5 -34 -5q-38 0 -65.5 25.5t-27.5 62.5q0 11 3 22q-12 -21 -12 -44q0 -32 24.5 -53.5t56.5 -21.5q31 0 55 14zM281 112q-16 -5 -33 -5q-38 0 -65.5 25.5t-27.5 62.5q0 10 3 21q-12 -20 -12 -44q0 -31 24.5 -52.5t56.5 -21.5q31 0 54 14z" />
    <glyph glyph-name="quotesingle" unicode="'" horiz-adv-x="265" 
d="M244 706l-22 -262h-19l-2 -22h-19l-2 -21h-19l-2 -21h-19l-2 -21h-82l-22 263h23l-2 21h23l-2 21h23l-2 21h23l-1 21h125zM285 -200h-285v394h285v-394zM231 695h-100l1 -10h91l-19 -230h7zM210 673h-100l1 -9h91l-19 -230h7zM189 652h-100l1 -9h91l-19 -230h7zM168 631
h-100l1 -9h90l-18 -230h7zM147 610h-100l20 -239h60z" />
    <glyph glyph-name="parenleft" unicode="(" horiz-adv-x="340" 
d="M360 -200h-360v394h27q-2 38 -2 44q0 178 119 351q8 13 16 25q12 17 21 18q6 10 8 13q6 7 13 8q6 10 8 13q6 7 13 8q6 10 8 13q6 8 13 8l16 21l80 -1q-64 -116 -87 -190q-29 -92 -29 -208q0 -65 9 -123h127v-394zM320 704h-54l-7 -9l56 -1zM299 683h-55l-6 -9l56 -1z
M278 662h-55l-7 -9l57 -1zM257 640l-55 1l-7 -9l57 -1zM319 -72q-57 103 -81 188q-26 92 -26 201q0 138 39 242q-48 -114 -48 -263q0 -191 96 -368h20zM298 -93q-57 103 -81 188q-26 92 -26 201q0 137 39 242q-48 -114 -48 -263q0 -191 96 -368h20zM276 -114
q-56 103 -80 187q-26 93 -26 202q0 137 39 242q-48 -114 -48 -263q0 -191 96 -368h19zM255 -135q-56 103 -80 187q-26 92 -26 202q0 137 39 242q-48 -115 -48 -263q0 -192 96 -368h19zM236 619l-55 1q-144 -197 -144 -394q0 -189 141 -382h56q-56 102 -80 187
q-26 92 -26 202q0 112 26 201q23 77 82 185z" />
    <glyph glyph-name="parenright" unicode=")" horiz-adv-x="387" 
d="M407 -200h-407v394h142q1 47 1 57q0 105 -31 198q-23 72 -84 183h33l-12 21h33l-12 21h33l-12 21h33l-11 21h101q146 -202 146 -393q0 -64 -15 -129h62v-394zM349 323q0 184 -141 381h-76l5 -9h56q146 -202 146 -393q0 -105 -41 -214q51 120 51 235zM328 302
q0 184 -141 381h-76l5 -9h56q146 -202 146 -393q0 -105 -41 -214q51 120 51 235zM306 281q0 184 -140 381h-76l5 -9h56q146 -202 146 -393q0 -105 -41 -215q50 120 50 236zM285 260q0 184 -140 381h-76l5 -9h56q146 -202 146 -394q0 -105 -41 -214q50 120 50 236zM264 238
q0 185 -140 382h-76q56 -103 80 -187q26 -92 26 -202q0 -109 -27 -201q-24 -82 -81 -186h74q144 198 144 394z" />
    <glyph glyph-name="asterisk" unicode="*" horiz-adv-x="420" 
d="M406 568l-25 -8l4 -14l-26 -7l5 -14l-26 -8q1 -3 38 -56l-24 -17l3 -4l-24 -17l3 -4l-24 -17l3 -5l-24 -17l3 -4l-63 -44l-48 66l-2 -3l-3 3l-18 -24l-3 3l-18 -24l-3 3l-18 -24l-62 44l56 81l-86 26l23 73l13 -4l8 25l13 -4l8 25l14 -4l8 25l13 -4l8 25l20 -7v14h22v21
h21v21h21v21h83v-97l84 27zM440 -200h-440v394h440v-394zM391 575l-16 50l-88 -28v101h-59v-9h50v-97l84 27l15 -48zM370 554l-16 50l-88 -28v101h-60v-9h51v-97l84 27l15 -48zM349 533l-16 50l-88 -29v102h-60v-9h50v-97l85 27l15 -48zM328 512l-16 50l-88 -29v102h-60v-9
h50v-98l84 28l16 -48zM360 464l-27 37l-16 -5q1 -3 28 -43zM339 442l-27 38l-17 -5l29 -43zM318 421l-35 50l-18 -5l38 -55zM131 584v16l-13 4l-4 -14zM297 400l-44 62l-17 -5l46 -67zM131 556v16l-34 11l-4 -14zM307 491l-16 50l-88 -29v102h-60v-102l-88 29l-16 -50
l90 -28l-59 -84l43 -31l61 79l58 -79l43 31l-58 84zM131 528v16l-55 18l-4 -14z" />
    <glyph glyph-name="plus" unicode="+" horiz-adv-x="573" 
d="M593 -200h-593v394h14v86h21v21h21v21h21v21h21v21h85v85h21v21h21v21h21v21h21v21h120v-169h169v-119h-21v-21h-21v-21h-21v-9h100v-394zM545 257v96h-169v169h-97v-10h87v-169h169v-86h10zM524 236v96h-169v169h-97v-10h87v-169h169v-86h10zM502 215v95h-169v169h-96
v-9h87v-169h169v-86h9zM481 193v96h-169v169h-96v-9h87v-169h169v-87h9zM376 87v74h-10v-74h10zM183 343v10h-73v-10h73zM355 66v95h-10v-95h10zM460 172v96h-169v169h-96v-169h-169v-96h169v-169h96v169h169zM183 322v10h-94v-10h94zM333 45v116h-9v-116h9zM183 301v9h-115
v-9h115zM312 24v137h-9v-137h9zM183 280v9h-136v-9h136z" />
    <glyph glyph-name="comma" unicode="," horiz-adv-x="295" 
d="M315 -200h-315v394h97v6h21v22h139v-28h58v-394zM245 109v101h-115v-10h106v-112q0 -37 -9 -64q18 33 18 85zM224 88v101h-115v-10h106v-112q0 -38 -10 -65q19 34 19 86zM203 67v101h-115v-10h105v-112q0 -38 -9 -65q19 34 19 86zM182 46v101h-116v-10h106v-112
q0 -38 -9 -65q19 34 19 86zM161 25v100h-116v-111h72q-4 -87 -72 -107v-35q116 23 116 153z" />
    <glyph glyph-name="hyphen" unicode="-" horiz-adv-x="409" 
d="M429 -200h-429v394h35v100h21v21h21v21h21v21h21v21h249v-123h-22v-21h-21v-21h-21v-19h125v-394zM356 267v99h-225v-9h215v-90h10zM335 246v99h-225v-9h215v-90h10zM314 224v100h-225v-9h215v-91h10zM293 203v100h-225v-9h215v-91h10zM271 182v100h-224v-100h224z" />
    <glyph glyph-name="hyphen" unicode="&#x2010;" horiz-adv-x="409" 
d="M429 -200h-429v394h35v100h21v21h21v21h21v21h21v21h249v-123h-22v-21h-21v-21h-21v-19h125v-394zM356 267v99h-225v-9h215v-90h10zM335 246v99h-225v-9h215v-90h10zM314 224v100h-225v-9h215v-91h10zM293 203v100h-225v-9h215v-91h10zM271 182v100h-224v-100h224z" />
    <glyph glyph-name="period" unicode="." horiz-adv-x="298" 
d="M318 -200h-318v394h99v6h21v22h136v-28h62v-394zM245 99v111h-114v-10h104v-101h10zM224 78v111h-114v-10h104v-101h10zM202 57v111h-113v-10h104v-101h9zM181 35v112h-113v-10h104v-102h9zM160 14v111h-113v-111h113z" />
    <glyph glyph-name="slash" unicode="/" horiz-adv-x="411" 
d="M440 725l-200 -531h191v-394h-431v394h78l168 446h13l8 21h13l8 22h13l8 21h13l8 21h110zM423 713h-85l-3 -9h85zM402 692h-85l-4 -9h86zM381 671h-85l-4 -10h86zM360 650h-85l-4 -10h86zM339 629h-85l-231 -615h84z" />
    <glyph glyph-name="zero" unicode="0" horiz-adv-x="562" 
d="M582 -200h-582v394h36q-8 49 -8 107q0 154 47 232q12 19 79 85q50 50 75 63q35 19 96 19q124 0 175 -101q37 -74 37 -213q0 -116 -29 -192h74v-394zM525 386q0 134 -34 204q-47 99 -166 99q-54 0 -94 -20q34 10 73 10q124 0 175 -101q37 -74 37 -213q0 -110 -26 -185
q35 77 35 206zM504 365q0 133 -34 204q-47 99 -166 99q-54 0 -94 -20q34 10 73 10q124 0 175 -102q37 -74 37 -212q0 -111 -26 -185q35 77 35 206zM483 344q0 133 -34 204q-47 99 -166 99q-54 0 -94 -20q34 10 73 10q124 0 175 -102q36 -74 36 -212q0 -111 -25 -185
q35 77 35 206zM462 323q0 133 -34 204q-48 98 -166 98q-54 0 -94 -19q34 10 72 10q125 0 176 -102q36 -74 36 -213q0 -110 -26 -184q36 77 36 206zM441 301q0 134 -34 205q-48 98 -167 98t-166 -98q-34 -71 -34 -205q0 -133 34 -203q47 -99 166 -99t167 99q34 70 34 203z
M331 330v-50q0 -197 -91 -197q-92 0 -92 193v58q0 185 92 185q91 0 91 -189zM320 326q0 171 -67 181q-8 -48 -8 -121q0 -158 38 -192h30q7 46 7 132zM309 169q-76 13 -76 202q0 88 8 136h-1h-4q-13 -51 -13 -134v-44q0 -174 76 -171l8 1zM304 147q-92 0 -92 199
q0 107 12 160l-4 -1q-18 -41 -18 -155v-42q0 -171 81 -171q9 0 18 3zM296 127q-7 -1 -13 -1q-92 0 -92 199q0 120 15 173q-25 -42 -25 -170v-40q0 -172 81 -172q18 0 32 8zM278 106q-8 -2 -16 -2q-92 0 -92 200q0 120 15 173q-25 -42 -25 -170v-40q0 -172 80 -172
q22 0 38 11z" />
    <glyph glyph-name="one" unicode="1" horiz-adv-x="426" 
d="M446 -200h-446v394h169v221h-140v91l21 1v20l21 1v20l21 1v20l21 2v20q26 1 78 6q1 9 1 15h18q3 10 3 21h19q2 11 2 21h19q2 11 2 21h19q2 11 2 21h110v-502h60v-394zM188 585q-22 -4 -63 -6v-8q21 1 61 10zM374 99v586h-87l-1 -10h79v-576h9zM181 567q-18 -6 -77 -9v-8
q52 4 77 16v1zM353 78v586h-87l-1 -10h78v-576h10zM164 547q-23 -7 -81 -10v-8q56 4 81 18zM332 57v585h-87l-2 -9h79v-576h10zM143 526q-23 -7 -82 -10v-8q57 4 82 18zM311 35v586h-87l-2 -9h79v-577h10zM289 14v586h-86q-8 -62 -57 -85q-33 -17 -106 -20v-69h141v-412h108
z" />
    <glyph glyph-name="two" unicode="2" horiz-adv-x="569" 
d="M589 -200h-589v394h108q16 16 111 88q78 59 92 92q11 26 11 47q0 35 -18 58t-51 25l-2 -29h-20l-2 -21h-19l-2 -21h-20l-1 -21h-20l-1 -22h-126q3 84 29 132q15 29 48 62q28 27 57 54q63 61 151 61q94 0 152 -51q61 -54 61 -146q0 -67 -41 -122q-65 -87 -194 -178h236v-8
h50v-394zM526 502q0 87 -57 138q-55 48 -144 48q-54 0 -93 -20q33 10 72 10q94 0 152 -51q61 -54 61 -146q0 -32 -9 -62q18 39 18 83zM505 481q0 87 -57 138q-55 47 -144 47q-54 0 -93 -19q32 10 72 10q94 0 152 -51q61 -54 61 -146q0 -32 -9 -62q18 38 18 83zM484 460
q0 87 -56 136t-145 49q-54 0 -93 -19q32 10 72 10q94 0 152 -51q61 -54 61 -147q0 -31 -10 -61q19 38 19 83zM463 438q0 88 -56 137t-145 49q-54 0 -94 -19q33 10 73 10q94 0 152 -51q61 -54 61 -147q0 -32 -10 -61q19 38 19 82zM241 503h-7l-2 -16h7zM222 501l-4 -1
q-5 -14 -7 -35h7q1 20 4 36zM204 494h-1q-10 -17 -13 -50h7q2 30 7 50zM183 474q-11 -18 -15 -51h8q2 30 7 51zM443 14v92h-265q27 47 101 97q89 60 111 83q52 55 52 131q0 88 -58 138q-54 48 -143 48q-179 0 -188 -201h102q5 114 92 114q40 0 63.5 -26.5t23.5 -68.5
q0 -62 -72 -120q-69 -53 -137 -107q-74 -75 -79 -180h397zM528 99v91h-241l-13 -9h244v-82h10zM507 78v91h-249l-13 -9h252v-82h10zM485 57v91h-256q-4 -3 -8 -9h255v-82h9zM464 35v92h-257l-7 -9h255v-83h9z" />
    <glyph glyph-name="three" unicode="3" horiz-adv-x="562" 
d="M582 -200h-582v394h27v4h22l-1 21h22l-1 21h23l-2 21h23l-2 21h74v79h21v21h21v21l21 1v20l21 1v20q19 0 34 2q-6 54 -59 60v-12h-21q-1 -10 0 -21h-21q-1 -10 0 -21h-21q-1 -10 0 -21h-21q-1 -10 -1 -21h-121q2 56 16 93.5t81.5 103.5t106.5 80q32 11 80 11
q83 0 137 -42q59 -46 59 -127q0 -38 -15 -67q-13 -22 -44 -53q78 -41 78 -141q0 -40 -14 -75h59v-394zM506 530q0 76 -55 119q-51 39 -129 39q-58 0 -96 -20q32 10 74 10q84 0 138 -42q59 -46 59 -127q0 -22 -6 -42q15 28 15 63zM485 509q0 76 -55 119q-51 38 -130 38
q-57 0 -95 -19q32 10 74 10q84 0 138 -42q59 -46 59 -127q0 -22 -6 -43q15 29 15 64zM464 488q0 76 -56 119q-50 38 -129 38q-57 0 -95 -19q32 10 74 10q84 0 138 -42q59 -46 59 -127q0 -22 -6 -43q15 29 15 64zM443 467q0 76 -56 119q-50 38 -129 38q-57 0 -95 -19
q32 10 74 10q84 0 138 -42q59 -46 59 -127q0 -22 -6 -43q15 28 15 64zM525 269q0 42 -19.5 79.5t-55.5 53.5l-12 -13q78 -41 78 -141q0 -32 -10 -61q19 38 19 82zM504 248q0 42 -19.5 79.5t-55.5 53.5l-13 -13q79 -41 79 -141q0 -32 -10 -61q19 38 19 82zM304 435l-23 -1v-9
q11 1 22 3zM213 505l-4 -1q-4 -9 -5 -18h7q0 8 2 19zM483 227q0 42 -19.5 79t-56.5 54l-12 -13q78 -41 78 -141q0 -32 -9 -61q19 38 19 82zM302 416q-19 -3 -42 -3v-9q25 2 41 7zM194 498q-8 -14 -12 -33h8q0 17 4 33zM296 397q-23 -5 -57 -5v-9q39 3 56 13zM462 206
q0 42 -19 77q-20 39 -57 55l-15 -11q39 -18 60 -57.5t21 -85.5q0 -31 -9 -61q19 39 19 83zM173 477q-9 -14 -12 -34h8q0 18 4 34zM277 377q-22 -6 -60 -7v-8q39 3 60 15zM441 184q0 69 -43 110q-26 24 -43 26l-2 11q33 13 52 47q17 31 17 68q0 76 -56 119q-50 38 -129 38
q-177 0 -187 -181h98q1 97 85 97q38 0 60 -22.5t22 -60.5q0 -52 -35 -71q-26 -15 -84 -16v-72q62 -1 92 -17q42 -22 42 -79q0 -42 -25 -70t-67 -28q-93 0 -95 103h-104q11 -187 199 -187q88 0 145.5 49.5t57.5 135.5zM318 194q-6 60 -78 68q3 -48 31 -68h47zM317 168
q-84 3 -89 96q-17 1 -43 1v5h-61v-9h94q0 -103 83 -103q7 0 15 2zM313 148q-16 -2 -21 -2q-83 0 -86 103h-103v-9h94q0 -103 83 -103q17 0 32 7zM302 128q-11 -2 -22 -2q-92 0 -95 102h-103v-9h93q0 -103 84 -103q24 0 43 12zM281 107q-11 -3 -22 -3q-92 0 -95 103h-104
l1 -9h93q0 -103 84 -103q24 0 43 12z" />
    <glyph glyph-name="four" unicode="4" horiz-adv-x="562" 
d="M582 -200h-582v394h19q0 47 1 49l221 365h8l13 21h8l13 21h9l12 22h9l12 21h141v-374h68v-103h-21v-22h-21v0h90v-394zM522 227v81h-67v373h-123l-6 -9h119v-374h68v-71h9zM501 206v80h-67v374h-123l-6 -10h119v-373h68v-71h9zM480 185v80h-67v374h-123l-6 -10h119v-373
h68v-71h9zM459 164v80h-68v374h-122l-6 -10h119v-373h68v-71h9zM455 99v53h-5v-21h-5v-32h10zM438 143v80h-68v374h-122l-218 -359v-95h237v-129h103v129h68zM434 78v53h-10v-53h10zM413 57v74h-10v-74h10zM391 35v96h-9v-96h9zM267 223h-166l166 286v-286zM255 319v85
l-49 -85h49zM255 298v10h-64l-6 -10h70zM255 277v9h-86l-5 -9h91zM255 256v9h-107l-5 -9h112zM255 235v9h-128l-5 -9h133z" />
    <glyph glyph-name="five" unicode="5" horiz-adv-x="560" 
d="M580 -200h-580v394h49v1h23l-2 21h23l-2 22h23q-2 21 -2 22l-66 3l43 341h19l3 21h18l3 21h18l3 21h18l3 22h340v-112h-21v-21h-21v-21h-21v-21h-21v-21h-175l-5 -29q44 27 97 27q87 0 139 -56.5t52 -144.5q0 -51 -20 -96h62v-394zM502 589v88h-318l-1 -10h310v-78h9z
M481 568v88h-318l-1 -10h310v-78h9zM460 547v88h-318l-1 -10h310v-78h9zM439 525v88h-318l-1 -9h310v-79h9zM526 290q0 83 -48.5 136t-130.5 53q-45 0 -74 -15q24 6 53 6q87 0 139 -56.5t52 -144.5q0 -38 -12 -74q21 45 21 95zM243 493h-6l-8 -50l7 4zM505 269
q0 83 -48.5 136t-130.5 53q-45 0 -74 -16q23 7 53 7q87 0 140 -58q50 -55 50 -143q0 -38 -11 -74q21 45 21 95zM226 493h-6l-12 -71l7 4zM484 248q0 83 -48.5 136t-130.5 53q-45 0 -75 -16q24 7 54 7q87 0 138.5 -56.5t51.5 -144.5q0 -38 -11 -74q21 45 21 95zM208 493h-6
l-15 -92l6 4zM190 493h-6l-18 -113l6 4zM463 227q0 83 -48.5 136t-130.5 53q-45 0 -75 -16q24 7 54 7q87 0 138.5 -56.5t51.5 -144.5q0 -38 -11 -74q21 45 21 95zM442 206q0 83 -48.5 136t-130.5 53q-36 0 -60 -10q-18 -7 -53 -29l25 148h243v88h-318l-41 -318l96 -5
q24 42 82 42q47 0 72 -35q22 -30 22 -80q0 -48 -23 -79q-26 -34 -72 -34q-73 0 -90 80h-105q7 -79 62 -123q51 -41 132 -41q93 0 150 57t57 150zM319 196q1 103 -82 103q-30 0 -49 -11l-5 -10l-6 1q-9 -9 -15 -20h78q8 -45 30 -65h49v2zM316 167q-69 2 -85 80h-106l1 -9h93
q14 -80 80 -80q7 0 16 1zM311 147q-16 -1 -20 -1q-64 0 -81 80h-106l1 -10h93q14 -80 80 -80q17 0 30 6zM301 127q-12 -2 -23 -2q-73 0 -89 80h-106l1 -10h93q14 -80 80 -80q36 0 44 12zM280 106q-11 -2 -23 -2q-73 0 -89 80h-106l1 -10h93q14 -80 80 -80q26 0 44 12z" />
    <glyph glyph-name="six" unicode="6" horiz-adv-x="565" 
d="M585 -200h-585v394h34q-6 39 -6 84q0 163 46 241q14 22 87 95q50 50 74 65q38 23 95 23q83 0 135.5 -43t58.5 -125h-23l2 -21h-23l2 -21h-23l2 -21h-23v-6q99 -51 99 -176q0 -51 -18 -95h66v-394zM511 546q-8 71 -60 109q-48 35 -121 35q-47 0 -84 -18q29 9 63 9
q71 0 121 -32q54 -36 69 -103h12zM490 525q-8 71 -60 109q-48 35 -121 35q-48 0 -84 -18q29 9 62 9q72 0 122 -33q54 -35 68 -102h13zM469 504q-8 71 -60 109q-48 35 -122 35q-47 0 -83 -18q29 9 62 9q72 0 122 -33q54 -35 68 -102h13zM448 483q-8 70 -60 109
q-48 35 -122 35q-47 0 -83 -18q29 9 62 9q72 0 121 -33q55 -35 69 -102h13zM525 289q0 112 -85 162v-1h-34q53 -23 81.5 -72.5t28.5 -109.5q0 -41 -13 -79q22 46 22 100zM309 464l-1 6q-16 -4 -32 -11q14 4 33 5zM303 481q-15 28 -53 28q-7 -26 -10 -62q26 25 63 34z
M237 509l-3 -1q-10 -30 -15 -82l8 7q3 44 10 76zM504 268q0 81 -49 134q-44 46 -87 48h-57v3q-32 -3 -56 -16q24 7 52 7q84 0 137 -57q50 -56 50 -141q0 -41 -12 -78q22 46 22 100zM221 505l-1 -1q-16 -32 -22 -99l8 7q4 58 15 93zM483 246q0 80 -48.5 133.5t-127.5 53.5
q-42 0 -73 -17q24 7 52 7q84 0 137 -57q50 -56 50 -141q0 -41 -12 -78q22 46 22 99zM200 485q-17 -33 -23 -101l8 7q4 59 15 94zM462 225q0 80 -48.5 133.5t-127.5 53.5q-42 0 -74 -17q25 7 53 7q84 0 137 -57q50 -56 50 -141q0 -41 -12 -78q22 46 22 99zM179 464
q-17 -33 -23 -101l8 7q4 59 15 94zM441 204q0 80 -48.5 133t-127.5 53q-74 0 -124 -61q6 84 20 122q25 70 87 70q28 0 49 -16t25 -43h105q-8 70 -60 109q-48 35 -122 35q-206 0 -206 -328q0 -118 42 -190q52 -89 161 -89q92 0 145.5 56t53.5 149zM333 194q0 -46 -21 -76
q-25 -35 -69 -35q-45 0 -71.5 34t-26.5 81q0 46 24.5 78t69.5 32q46 0 71 -35q23 -31 23 -79zM321 194q0 42 -18 69q-21 32 -61 33q-1 -17 -1 -20q0 -53 39 -82h41v0zM319 168q-46 3 -71 44q-22 36 -17 84l-7 -1q-4 -16 -4 -34q0 -40 20 -70q22 -34 60 -34q5 0 17 1z
M314 146h-15q-44 0 -68 37q-22 33 -22 78q0 16 3 31l-3 -2q-10 -21 -10 -50q0 -42 22 -71q24 -33 64 -33q14 0 26 5zM304 126q-9 -1 -19 -1q-45 0 -71 34t-26 81q0 21 4 40q-14 -24 -14 -61q0 -42 22 -71q24 -33 64 -33q32 0 40 11zM284 106q-10 -2 -20 -2q-45 0 -73 35
q-24 33 -24 80q0 21 5 40q-15 -24 -15 -61q0 -42 23 -73t63 -31q24 0 41 12z" />
    <glyph glyph-name="seven" unicode="7" horiz-adv-x="493" 
d="M528 588q-27 -26 -74 -93q-94 -134 -130 -301h189v-394h-513v394h128q26 75 72 155q48 84 98 138h-288q-1 30 0 91v26h22l-1 15v6h21v21h21v21h21v22h434v-101zM516 593v84h-410v-10h401v-84zM495 572v84h-410v-10h401v-84zM474 551v84h-410v-10h401v-84zM453 530v83
h-410v-9h401v-84zM350 328q-50 -117 -59 -229h8q2 98 51 229zM432 509v83h-411l1 -93h304q-89 -87 -152.5 -224.5t-69.5 -260.5h110q3 122 67 266q63 139 151 229zM329 307q-50 -117 -60 -229h9q2 98 51 229zM308 286q-50 -117 -60 -229h9q2 98 51 229zM287 265
q-50 -117 -60 -230h9q2 99 51 230z" />
    <glyph glyph-name="eight" unicode="8" horiz-adv-x="564" 
d="M564 -200h-564v394h28q8 78 79 137q-59 45 -59 121q0 54 47 112q22 28 88 88q53 47 143 47q80 0 134 -40q59 -45 59 -123q0 -66 -60 -123q80 -52 80 -154q0 -35 -12 -65h37v-394zM508 536q0 73 -56 114q-51 38 -126 38q-58 0 -99 -21q35 11 78 11q80 0 134 -40
q59 -45 59 -123q0 -23 -8 -50q18 33 18 71zM486 515q0 73 -56 114q-50 37 -125 37q-58 0 -99 -20q35 11 78 11q80 0 134 -40q59 -45 59 -123q0 -23 -8 -50q17 33 17 71zM465 494q0 73 -56 114q-50 37 -125 37q-58 0 -99 -20q35 11 78 11q80 0 134 -40q59 -45 59 -123
q0 -23 -8 -50q17 33 17 71zM444 473q0 73 -56 114q-50 37 -125 37q-58 0 -99 -20q35 11 78 11q80 0 133 -41q60 -44 60 -122q0 -24 -8 -50q17 33 17 71zM527 259q0 97 -77 146l-12 -13q80 -53 80 -155q0 -27 -8 -53q17 35 17 75zM506 237q0 98 -78 147l-11 -13
q79 -53 79 -155q0 -27 -7 -53q17 35 17 74zM485 216q0 98 -78 147l-12 -13q80 -53 80 -155q0 -27 -7 -53q17 35 17 74zM464 195q0 98 -78 147l-15 -11q83 -52 83 -157q0 -27 -7 -53q17 34 17 74zM443 174q0 105 -95 157q75 41 75 121q0 73 -56 114q-50 37 -125 37
q-76 0 -126 -37q-56 -41 -56 -114q0 -77 75 -126q-96 -44 -96 -152q0 -84 58 -131q54 -44 140 -44t143 43q63 49 63 132zM322 439q0 -37 -22 -58.5t-58 -21.5q-37 0 -59.5 22t-22.5 58q0 37 22 59t60 22q37 0 58.5 -22t21.5 -59zM334 182q0 -45 -24 -72t-68 -27
q-45 0 -68.5 27t-23.5 72q0 99 92 99t92 -99zM309 457q-8 43 -51 50q8 -42 51 -50zM311 439l-1 6q-55 8 -64 63h-4h-6q-1 -8 -1 -12q0 -28 18.5 -45.5t45.5 -16.5l11 1zM309 423l-9 -1q-36 -1 -57 23.5t-19 61.5l-7 -2q-3 -11 -3 -24q0 -31 19 -49.5t51 -18.5q12 0 24 3z
M302 403q-9 -2 -18 -2q-37 0 -59.5 22.5t-22.5 57.5q0 9 2 19l-1 -1q-10 -16 -10 -39q0 -31 19 -49.5t51 -18.5q22 0 38 9zM284 382q-10 -2 -21 -2q-36 0 -59 22t-23 57q0 11 3 23q-12 -18 -12 -43q0 -32 19 -50t51 -18q25 0 42 11zM321 194q-5 73 -75 75v-7q-2 -42 30 -68
h45zM321 168q-43 2 -66 30t-21 71l-7 -1q-2 -12 -2 -23q0 -87 80 -87q7 0 15 2zM317 147q-16 -1 -20 -1q-41 0 -64 30q-20 27 -20 68q0 11 1 22l-4 -2q-7 -18 -7 -40q0 -87 81 -87q17 0 32 6zM309 128q-13 -2 -25 -2q-44 0 -68 27t-24 71q0 18 3 33q-13 -21 -13 -54
q0 -87 81 -87q38 0 46 12zM288 107q-12 -3 -25 -3q-44 0 -68 27t-24 72q0 18 4 34q-14 -21 -14 -55q0 -87 81 -87q27 0 46 12z" />
    <glyph glyph-name="nine" unicode="9" horiz-adv-x="567" 
d="M587 -200h-587v394h81v1h24l-3 21h24l-1 5q-98 52 -98 175q0 96 57 159q64 71 102 100q64 46 131 46q222 0 222 -306q0 -123 -35 -201h83v-394zM527 395q0 295 -210 295q-47 0 -87 -19q31 9 66 9q222 0 222 -307q0 -104 -26 -176q35 76 35 198zM506 373q0 295 -210 295
q-48 0 -87 -18q31 9 66 9q222 0 222 -307q0 -104 -26 -176q35 76 35 197zM485 352q0 295 -210 295q-48 0 -87 -18q31 9 66 9q222 0 222 -307q0 -104 -26 -176q35 76 35 197zM464 331q0 295 -210 295q-48 0 -87 -19q31 10 66 10q222 0 222 -307q0 -104 -26 -176q35 76 35 197
zM443 310q0 295 -210 295q-89 0 -141.5 -59.5t-52.5 -149.5q0 -80 48.5 -133t127.5 -53q42 0 69 14.5t53 48.5q-3 -83 -17 -122q-24 -69 -87 -69t-75 59h-106q9 -66 58 -105t117 -39q216 0 216 313zM324 239q-25 -25 -61 -34q4 -7 9 -11h47q3 20 5 45zM313 166q-43 2 -62 36
l-17 -2q14 -43 62 -43q7 0 14 1zM305 146q-12 -1 -14 -1q-54 0 -68 54h-11q-8 -1 -22 2t-21 3h-54l2 -9h93q8 -59 65 -59q15 0 28 5zM295 126q-10 -2 -20 -2q-62 0 -75 59h-106l2 -9h92q9 -59 66 -59q23 0 41 11zM274 105q-10 -2 -20 -2q-63 0 -75 59h-106l2 -9h92
q9 -60 66 -60q23 0 41 12zM332 403q0 -45 -22 -75q-26 -34 -69 -34q-94 0 -94 113q0 48 20 78q24 34 71 34t72 -36q22 -31 22 -80zM321 409q1 39 -19 67.5t-58 30.5q-2 -21 -2 -26q0 -88 78 -90zM319 379q-98 4 -87 128l-7 -1q-3 -17 -3 -36q0 -101 82 -101q6 0 13 2z
M314 358q-14 -1 -19 -1q-44 0 -66 33q-20 29 -20 74q0 19 4 39l-3 -1q-9 -22 -9 -53q0 -101 82 -101q15 0 29 7zM302 339q-10 -2 -19 -2q-94 0 -94 112q0 24 5 43q-15 -24 -15 -64q0 -101 83 -101q21 0 40 12zM280 318q-9 -3 -18 -3q-94 0 -94 113q0 24 5 44
q-15 -25 -15 -65q0 -101 83 -101q20 0 39 12z" />
    <glyph glyph-name="colon" unicode=":" horiz-adv-x="294" 
d="M256 384h-21v-21h-21v-21h-21v-21h-21v-21h-137v134h21v21h22v21h21v22h21v21h136v-135zM314 -200h-314v394h120v16h136v-16h58v-394zM245 396v111h-113v-9h103v-102h10zM224 375v111h-114v-10h104v-101h10zM202 354v111h-113v-10h104v-101h9zM181 333v111h-113v-10h104
v-101h9zM160 311v112h-113v-112h113zM245 87v111h-113v-9h103v-102h10zM224 66v111h-114v-9h104v-102h10zM202 45v111h-113v-10h104v-101h9zM181 24v111h-113v-10h104v-101h9zM160 2v112h-113v-112h113z" />
    <glyph glyph-name="semicolon" unicode=";" horiz-adv-x="290" 
d="M255 384h-21v-21h-21v-21h-21v-21h-21v-21h-137v134h21v21h21v21h21v22h22v21h136v-135zM310 -200h-310v394h119v15h138v-15h53v-394zM243 396v111h-113v-9h104v-102h9zM222 375v111h-113v-10h104v-101h9zM201 354v111h-113v-10h104v-101h9zM180 333v111h-113v-10h104
v-101h9zM159 311v112h-113v-112h113zM246 97v101h-116v-10h106v-112q0 -36 -9 -64q19 33 19 85zM224 76v101h-115v-10h106v-112q0 -36 -9 -65q18 34 18 86zM203 55v101h-115v-10h106v-112q0 -38 -9 -65q18 34 18 86zM182 34v100h-115v-9h106v-112q0 -36 -9 -65q18 34 18 86z
M161 13v100h-115v-111h72q-5 -87 -72 -107v-35q115 23 115 153z" />
    <glyph glyph-name="less" unicode="&#x3c;" horiz-adv-x="495" 
d="M515 -200h-515l395 394h120v-394z" />
    <glyph glyph-name="equal" unicode="=" horiz-adv-x="1209" 
d="M1042 454q0 -34 -13 -64q-16 -38 -44 -42q42 42 42 91q0 6 -2.5 17.5t-2.5 17.5t6 6q14 0 14 -26zM1202 -114l-9 -10l1 -14q-15 4 -15 27q-2 2 -6 5q0 10 5 10h14q2 0 10 -7v-11zM1048 13q0 -6 -12 -8q-7 2 -7 7q0 8 5 12q9 0 13 -4q1 -4 1 -7zM1021 5q-3 -7 -8 -7
q-9 0 -9 15q0 8 7 11q10 0 10 -12v-7zM1042 -71q0 -6 -6 -9q-8 1 -16 8q1 3 3 7q-12 15 -12 24q0 7 6 14q0 3 -1.5 8t-1.5 7l4 6q10 -2 12 -6v-13q0 -8 6 -23t6 -23zM1205 -2q0 -15 -14 -15q3 0 -20 17t-42 17l-4 -1l-1 -7l-5 -1q-1 11 -12.5 28.5t-20.5 17.5l-6 -3
q-10 -18 -9 -57q1 -42 -7 -59l1 -7l3 -1q2 0 8 3t21 3q10 0 10 14q0 6 -6 9q-7 -5 -12 -10q-10 0 -10 6q0 39 16 76q5 -11 5 -39q0 -18 8 -18q5 0 15 1.5t14 1.5t7.5 10.5t7.5 10.5q7 0 9.5 -13t12.5 -15q0 -6 -5.5 -14t-11.5 -8q-4 0 -8.5 6.5t-4.5 7.5l-5 1l-7 -6
q-3 -6 -14 -14q1 -19 14 -19q6 0 15 7.5t15 7.5t12 -6v-10h-12l-14 -10q-7 -4 -17 0q-7 -3 -7 -8t7 -8q5 0 13 7q26 -6 26 -20q-4 -11 -18 -11q-5 0 -5 -1q0 -14 24 -14q9 0 28 -13q-19 -11 -44 -11q-17 0 -37 5l-3 6q4 5 11 15l-4 2l-21 -12l-1 -5q0 -3 12 -9h-39v13
q0 20 -15 20q-5 0 -5 -8q0 -6 1 -12l-10 1q-7 0 -9 -3q-3 -4 0 -11h-31q16 11 16 24q-3 3 -7 3t-12.5 -5t-12.5 -5q-10 0 -10 11q0 6 16 10.5t19 8.5q11 11 27 34q14 0 14 -5q0 -8 -12 -19t-12 -14l6 -5q3 1 10.5 6t13.5 5t14 -11t15 -11q12 0 16 10q-23 5 -46 28q3 4 7 13
q-10 15 -10 33q0 9 3.5 28t3.5 29q0 89 -27 89q-3 0 -9 -2t-9 -2q-7 0 -9 6q-1 5 0 13l2 12q0 4 -3 6q-11 11 -34 28v-3q-1 -15 9.5 -43.5t10.5 -42.5q0 -50 -3 -74q5 -7 10 -12q0 -5 -3 -8t-8 -2h-11q0 12 1 35t1 35q0 68 -29 102q-15 -23 -45 -58q-34 -41 -49 -49
q-2 -6 -12 -18t-10 -19q0 -3 1 -5q24 13 50 50l40 60q-8 -36 -49 -89q-45 -58 -76 -58q-4 0 -10 3.5t-10 4.5q-3 -2 -4 -11.5t-5 -12.5q-7 -4 -20 -10q-71 -21 -96 -20q-8 -8 -54.5 -19t-63.5 -11q-4 0 -9 7l-11 -7q24 -18 52 -18t73 21q66 29 71 31q-15 -21 -58 -39
t-71 -18q-6 -10 -21 -10q-10 0 -29 -4.5t-29 -4.5q-18 0 -43 23t-38 23q-7 0 -8 -16q-2 -21 -3 -23l-5 -1q-3 3 -10 11q0 10 5.5 27.5t5.5 26.5q0 10 -7.5 23.5t-16.5 13.5q-15 -4 -33 -50q-22 -58 -28 -65q5 50 38 116l-4 3q-6 -5 -10 -16q-7 -16 -8.5 -19t-17.5 -15
q-12 -10 -12 -21h3q2 1 4 1q6 0 6 -4l-3 -5q-3 -2 -8 -7l-2 9q-31 -8 -31 -23q0 -8 25 -8v-5l-33 -1q-48 -1 -48 22q0 6 4 14l-2 2q-8 -4 -22.5 -22t-26.5 -18q-17 0 -27.5 21.5t-17.5 21.5q-4 0 -4 -6q0 -17 16 -34q-43 0 -141 -1v961h309l-16 -50q-13 -42 -18 -42
q-6 0 -15 4q-14 -5 -14 -21q0 -11 16 -50t16 -56q0 -41 26 -41q0 -20 8 -20q15 0 44 5q33 6 42 13q-6 4 -12.5 8.5t-5.5 14.5q-2 0 29 0q9 0 31 -7q16 -6 32 -11q10 -2 28 -21q15 -15 49 -15q30 0 86 33t84 33q1 -1 7 -20q59 -7 61 -7l14 1q17 12 42 12q3 0 14.5 -5t20.5 -5
q38 0 38 49q0 54 -33 101q-4 5 -1 17q-14 6 -21.5 20.5t-14.5 28.5q-2 2 -7 5l-7 6q0 7 -4 20h207q-3 -5 -21 -104.5t-18 -108.5l3 -10q-1 0 19 0q27 0 37 -57q-11 13 -19 13q-6 0 -17 -3.5t-18 -3.5q3 10 14 16t11 10q0 13 -10 13q-17 0 -32 -8q-18 -10 -18 -27
q0 -20 20 -15l-13 -24l4 -7q15 -8 15 -13t-6.5 -9t-11.5 -8q13 -4 13 -13q0 -4 -12.5 -13.5t-12.5 -19.5q0 -17 10 -17q5 0 15 10q7 -3 7 -7l-1 -4q-23 -13 -23 -38q0 -8 2.5 -22.5t2.5 -23.5t3 -9q16 0 43 62q23 55 28 83l4 -1q-5 -51 -31 -99q-8 -15 -45 -68
q-22 -33 -22 -52q0 -25 60 -79q42 -34 84 -69q17 -15 47 -32q44 -24 49.5 -27.5t5.5 -9.5zM367 552q-4 0 -13 -2t-14 -2q-2 0 -10 3l6 6l1 4q5 -2 9 0q5 2 8 2q5 0 13 -11zM956 67q0 -95 -122 -190l-4 3l64 60q37 39 37 75q0 6 -2.5 16t-2.5 15q5 5 14 16q-2 6 -2 12
q0 16 11 37q7 -21 7 -44zM905 -11q-2 -6 -5 -9q-9 0 -14 4q0 11 8 11q11 0 11 -6zM1001 -84q-7 -21 -10 -24l-22 -14q0 19 -7 19q-8 0 -14 -12q-7 -15 -11 -18l3 -3l9 -3q2 4 10 10q5 0 5 -13q-7 -5 -14 -16q4 -4 12 -4v-5q-24 0 -108 -1q32 27 65 54q35 33 47 67q6 6 10 6
q2 0 5 -2q-1 1 -1 -31v-4h3q2 0 6 -2t6 -2q1 1 3 1q4 0 3 -3zM825 502q0 26 -40 32q-30 3 -60 5q-2 0 -7.5 3t-8.5 3q-17 0 -53 -18.5t-36 -33.5q0 -7 4.5 -17t4.5 -12q0 -4 -3 -9q6 -3 32 -33q14 -16 46 -16q30 0 64 9q45 13 45 34q0 17 -17 17q-5 0 -15 -12q-6 -8 -13 -17
q-2 5 -9 6t-7 5q0 3 10 16.5t10 20.5q0 6 -5 10q-17 -34 -34 -34q-21 0 -32 34q-16 -5 -16 -17l2 -8q2 -2 15 -7q10 -5 10 -11q0 -13 -10 -13t-14 4h-3q-7 -6 -17 -13l9 25q0 5 -6 7q-15 8 -19 11t-13 16q53 35 79 35q5 0 18 -3t18 -2q22 2 18 2q14 0 42 -35l9 3q2 7 2 13z
M952 347q0 12 -6.5 28t-6.5 17q0 3 3.5 8t3.5 8q-2 5 -6 16q0 6 2 16.5t2 16.5q0 20 -10 43q-12 29 -28 29q-15 -5 -33 -10q4 1 -27 1q-8 0 -8 -12q0 -6 6.5 -17t6.5 -18q0 -5 -3 -13.5t-4 -11.5q-6 -39 -34 -52q-16 -7 -68 -14q-4 0 -7.5 -6.5t-9.5 -6.5q-8 0 -30 6t-30 7
t-22.5 13t-20.5 14q-17 0 -17 -12q0 -7 5.5 -13.5t5.5 -7.5q0 -4 -5 -8q11 -33 11 -35q1 -5 1 -38q0 -19 15 -19q19 0 19 16q0 7 -8.5 19t-8.5 21l1 8q30 -31 30 -38q0 -13 -5 -25q-7 -16 -18 -16q-2 0 -10.5 3t-13.5 3q-15 0 -32 -14t-23 -14q-3 0 -10 2t-10 2l-6 -2
q9 -8 9 -19q0 -8 -7 -22.5t-7 -20.5q0 -13 21 -13q15 0 25 7q-1 4 -5 16q-4 9 -4 15q0 15 11 26t26 11q7 0 9.5 -7t7.5 -7l6 5l1 3l7 6q10 -2 23 -13q18 -16 21 -18l5 2q11 14 20 12q3 1 10.5 10.5t11.5 9.5q13 0 30.5 -25.5t17.5 -40.5q0 -25 -26 -25q0 -6 9.5 -16t9.5 -14
q0 -6 -10 -9t-11 -4q-4 -8 -4 -14q0 -16 13 -16q9 0 28.5 18t19.5 26q0 -3 -17 31q6 -1 10 -1q8 0 15.5 10.5t11.5 10.5q2 0 5.5 -2t5.5 -2q6 0 7 10q1 7 0 20l-1 16q0 6 3 15q11 -7 11.5 -23t7.5 -16q23 0 36 26q-6 1 -14 3t-8 7l3 7q1 2 3 2q1 0 8 -4q9 6 9 16
q0 19 -24 19q0 12 9 12q4 0 11 -3t11 -3q13 0 26 30q12 27 12 42zM873 155q-1 1 -5 1h-2l-2 -4l6 -4zM1115 -86l-2 7q-3 2 -5 2q-11 0 -11 -14q0 -8 8 -8q10 0 10 13zM843 158l-7 5q-6 -5 -6 -11l3 -8q7 3 7 8zM861 135l-1 5l-4 -1q-2 -4 -5 -11l7 -1q3 2 3 8zM513 465
q0 29 -9 38q-2 0 -5 -5q9 -8 9 -40l3 -2q2 4 2 9zM852 99l-1 4q-4 -1 -7 -8l3 -1zM830 107l-2 6h-5q-2 -2 -2 -5q0 -2 2 -4zM621 304q0 9 -18 48t-16 60q2 31 2 26q0 55 -31 55q-34 0 -34 -49q0 -7 1 -19.5t1 -17.5q0 -7 -2.5 -20t-2.5 -19q0 -3 2 -7t2 -7q-14 -28 -35 -50
q-8 -8 -8 -14q0 -12 9 -12q1 0 5 8t9 8q3 0 20.5 -18t32.5 -20q3 -4 7 -4q9 0 32.5 21t23.5 31zM722 184q-22 10 -23 10q-4 0 -4 -9l7 -4q6 0 16 -3zM397 509q0 12 -19 12q-51 0 -51 -23l4 -8q2 -2 5 -2q4 0 19 11q7 6 14 5q20 -2 16 -2q12 0 12 7zM491 456q0 8 -5.5 15
t-13.5 7q0 -29 -30 -29q2 3 12 30.5t10 29.5q0 5 -7 11t-12 6q-18 0 -18 -14q0 -4 10.5 -16.5t11.5 -15.5q-9 -3 -18 -19.5t-26 -16.5q-15 0 -20.5 12t-10.5 24l-9 -3v-2q0 -9 10 -19.5t10 -17.5q0 -8 -15 -10q-19 -2 -22 -4v-11q-3 -1 -6 -1q-12 0 -15 15q-1 12 -3 24
q-1 7 -3 7q-10 0 -10 -30q0 -29 28 -37q11 -3 52 -3q62 0 99 65zM820 48l-8 1q-7 0 -8 -9l5 -2q11 0 11 10zM647 183q-1 6 -4 13h-3q-7 -8 -7 -15l4 -7l2 -1q3 0 8 10zM611 184q0 6 -5.5 14.5t-10.5 8.5q-7 0 -7 -12q0 -11 18 -18l4 3zM526 203h-1q-2 -1 -3 -4l2 -1z
M750 128q-2 13 -13.5 22.5t-24.5 9.5q-38 0 -115.5 -7t-115.5 -7q-5 0 -13 3.5t-12 3.5q-6 -7 -13 -14q-5 0 -10 4q-4 -2 -7.5 -9.5t-5.5 -7.5h-2q-23 5 -23 62q0 6 2 12q5 1 14 7q8 11 17.5 22.5t26.5 11.5q11 0 11 -6q-4 -9 -9 -12q-15 -5 -15 -18q3 -5 7 -5h2
q12 13 23 26q18 19 24 19q4 0 10.5 -2t9.5 -2q6 0 6 9q0 16 -18 16q-3 0 -9.5 -2t-9.5 -2q-22 0 -22 27q0 30 36 54q6 11 6 45q0 3 -2 26q-1 16 1 26l-3 2q-6 -4 -15 -27.5t-22 -34.5q-21 -18 -61 -18q-15 0 -41 9t-31 9q-4 0 -8 -3l-6 -1q-38 18 -51 50h-3v-14
q-1 -21 3 -60t4 -57q0 -9 12 -10.5t12 -5.5l-5 -9q-13 -7 -13 -19q0 -8 8.5 -25t15.5 -17q4 0 9.5 6t8.5 6t5 -2q19 -23 47 -76q-16 -4 -16 -22q0 -16 9.5 -27.5t18.5 -22.5l8 -3q6 3 6 9l-1 3q-3 3 -13 3l-1 9q4 6 10 6q-3 0 12 -10q5 3 19 24q11 15 25 15q6 0 6 -14
q-22 -8 -22 -27l2 -10q6 -6 10 -6t5 3l-2 9v8q25 13 25 27q15 0 15 -6q-12 -27 -33 -83l2 -7l6 1q5 12 2 19q15 0 24.5 11t18.5 22q18 -1 27 11.5t16 12.5q4 0 11.5 -4t11.5 -4q21 0 32.5 7t22.5 14q6 -2 13 -14t9 -14q-4 0 -10 2t-9 2l-4 -3q-6 -20 -20 -56q-1 -2 -17 -7
v-6q-1 -14 15 -43q4 2 7 2q11 0 15 -11l6 4q23 47 23 40q0 10 -32 17q2 2 5 23q2 14 14 14q9 0 11 -16q3 -19 6 -21l11 -3q6 3 8 9q2 3 1 10q-1 10 -1 12q0 6 9 6q6 -3 7 -14q38 2 38 59q0 10 -1 18q1 0 4 -1.5t4 -1.5q3 2 9 10zM513 217l-3 2q-7 -3 -10 -13q-4 -13 -5 -15
l3 -4q7 9 15 30zM693 12q0 9 -9 9q-10 0 -10 -14q0 -13 9 -13q7 0 7 11zM706 -30l-2 3l-2 1q-2 0 -15 -7l3 -6l8 3q4 5 8 6zM240 454q0 7 -11.5 26t-15.5 19q-10 0 -16 -12t-6 -23q0 -17 37 -91l6 -3l1 8q0 2 -4.5 12t-4.5 15q0 3 7 20t7 29zM682 -24l-3 7h-4q-11 0 -11 -12
l1 -2q0 -3 2 -3q15 0 15 10zM665 -57q0 6 -9 10q-8 0 -8 -11q0 -5 8 -5l6 1q3 2 3 5zM546 60l-2 7q-2 1 -4 1q-14 0 -14 -16q0 -2 1 -4h5q14 0 14 12zM596 62l-2 8l-7 1q-18 1 -22 -11v-27q-6 7 -19 14l-5 -3q-1 -3 -1 -6q0 -14 13 -22q-7 -7 -12 -14q8 -39 21 -38h2l2 4
q-6 9 -6 18q0 23 18 47t18 29zM593 -39l-4 11l-6 4q-12 -4 -12 -24q0 -5 7 -8q9 5 15 17zM515 31l-2 7l-4 2q-2 -1 -11 -6v-8q4 -7 8 -7t8 5zM523 9l-2 4q-13 -3 -13 -14q0 -8 11 -8l4 2v16zM327 192l-3 6l-6 5q-10 -2 -10 -16q0 -11 10 -11q9 0 9 16zM349 159l-4 7h-2
q-11 0 -11 -13q0 -10 8 -10q9 0 9 16zM484 21q0 2 -2 5q-19 -6 -19 -27q0 -24 15 -24q6 0 5 17q-1 10 -3 20zM518 -33q0 2 -1 4q-19 -1 -19 -14v-1l6 -2q14 11 14 13zM514 -144q0 9 -19 22t-29 13q-8 0 -8 -9q0 -12 16 -20q13 -5 26 -11l7 -1l7 3v3zM321 -8l-3 8l-4 1
q-8 0 -16 -11.5t-8 -20.5v-3q0 1 18 12q13 9 13 14zM325 -45q0 2 -1 2q-1 6 -6 6q-12 0 -19 -16l2 -9q3 -1 13.5 6t10.5 11zM282 -16l-4 9h-2q-4 0 -11 -15q0 -10 8 -10q9 4 9 16zM300 -84l-2 8q-5 3 -11 3q-14 0 -31.5 -30t-17.5 -46q0 -3 3 -3q1 0 8.5 3t10.5 3
q1 12 14 29q2 19 10 21q12 3 16 12zM277 -48l-8 4q-48 0 -77 -86l4 -2q8 4 21 22t25 24q4 6 0 18l7 -1q22 0 28 21zM195 -43q0 10 -10 10l-7 -3q2 -18 8 -18q9 0 9 11zM245 -114l-1 1l-5 3q-7 0 -7 -10l4 -2q9 4 9 8zM166 -70q0 6 -13 6l-8 -5v-3q0 -10 11 -10q10 7 10 12z
M190 -98q-1 4 -7 4q-2 0 -8 -3t-6 -5t13 -4q8 0 8 8zM180 -145q-2 5 -10 5l-5 -2q1 -10 8 -10t7 7zM91 -142q0 12 -11 12h-3q-5 -3 -5 -11q0 -12 10 -12q9 0 9 11zM625 -1q0 -9 -9 -9q-12 0 -12 14q0 11 9 11q12 0 12 -16zM309 243l-1 -6l-5 -5q-6 5 -6 15t-3 13l4 3
q11 -11 11 -20z" />
    <glyph glyph-name="greater" unicode="&#x3e;" horiz-adv-x="415" 
d="M415 194l-395 -394h-20v394h415z" />
    <glyph glyph-name="question" unicode="?" horiz-adv-x="552" 
d="M552 -200h-552v394h173q3 63 9 80q9 24 50 63q26 22 52 43q27 26 27 59q0 76 -76 77l-1 -13h-20l-1 -21h-20l-1 -21h-20l-1 -21h-20l-1 -22h-131q3 102 68 165q86 86 96 93q51 36 128 36q95 0 154 -42q68 -49 68 -140q0 -49 -21 -82q-11 -18 -57 -64q-23 -24 -70 -69
q-5 -16 -5 -52h-21v-22h-21l-1 -21h-20v-2h71v-24h164v-394zM521 530q0 86 -64 131q-57 40 -146 40q-57 0 -99 -21q35 11 78 11q94 0 154 -42q68 -49 68 -140q0 -27 -7 -50q16 31 16 71zM500 509q0 86 -64 131q-57 40 -146 40q-57 0 -99 -21q35 11 78 11q94 0 154 -42
q68 -49 68 -140q0 -27 -7 -50q16 31 16 71zM479 488q0 86 -64 131q-57 40 -146 40q-57 0 -99 -21q35 11 78 11q94 0 154 -43q68 -48 68 -139q0 -27 -7 -50q16 31 16 71zM458 467q0 86 -65 131q-56 39 -145 39q-57 0 -100 -20q36 11 78 11q95 0 155 -43q68 -48 68 -139
q0 -27 -7 -50q16 30 16 71zM223 516l-6 -1v0h6v1zM205 513l-2 -1q-5 -10 -7 -19h6q0 9 3 20zM185 499q-7 -13 -10 -27h6q0 14 4 27zM370 303l-4 -4q-4 -10 -6 -25h8q1 16 2 29zM437 446q0 86 -65 131q-56 39 -146 39q-88 0 -138.5 -48.5t-56.5 -137.5h108q2 44 26 71t67 27
q91 0 91 -89q0 -33 -23 -59q-25 -22 -50 -43q-44 -39 -54 -64q-9 -20 -12 -83h100q1 53 41 92q36 31 73 62q39 41 39 102zM164 478q-7 -13 -10 -27h6q0 14 4 27zM350 287l-2 -2q-7 -13 -9 -32h8q1 20 3 34zM329 268q-9 -15 -11 -36h8q1 22 3 36zM308 247q-8 -13 -10 -29h7
q1 17 3 29zM377 99v107h-61v-7h-20v-2h71v-98h10zM356 78v107h-61v-7h-51v-2h102v-98h10zM334 57v107h-111v-9h102v-98h9zM313 35v108h-111v-10h102v-98h9zM292 14v108h-111v-108h111z" />
    <glyph glyph-name="at" unicode="@" horiz-adv-x="797" 
d="M797 -200h-797v394h39q-19 53 -19 113q0 99 55 179q29 43 128 139q105 101 266 101q129 0 215 -67q96 -73 96 -198q0 -68 -27 -116q-20 -37 -76 -93q-19 -19 -59 -58h31q15 9 44 29l19 -29h85v-394zM768 461q0 120 -92 190q-83 63 -207 63q-87 0 -158 -31q63 22 137 22
q129 0 215 -67q96 -73 96 -198q0 -44 -13 -83q22 48 22 104zM551 524q-6 5 -13 9l-2 -9h15zM576 503q-4 5 -10 10h-48l-3 -10h61zM747 440q0 120 -92 190q-83 63 -207 63q-87 0 -159 -31q63 21 138 21q128 0 215 -66q95 -73 95 -198q0 -44 -12 -83q22 48 22 104zM525 529
q-5 9 -12 16q-50 23 -83 23q-18 0 -45 -14q21 6 43 6q54 0 80 -37l1 1h15zM726 419q0 120 -92 190q-84 63 -207 63q-87 0 -159 -32q63 22 138 22q128 0 215 -66q95 -73 95 -198q0 -44 -13 -83q23 47 23 104zM620 382q0 40 -12 72q-33 -112 -33 -123q0 -30 29 -28h4
q12 35 12 79zM504 508q-23 40 -76 40q-34 0 -64 -16q21 7 43 7q54 0 80 -37l1 1h15zM603 291q-40 1 -40 40q0 13 37 139l-1 3l-34 -114q-11 -38 -11 -49q0 -28 29 -28q8 0 17 3zM705 398q0 120 -92 190q-84 63 -207 63q-87 0 -159 -32q63 22 137 22q129 0 216 -66
q95 -73 95 -198q0 -44 -13 -84q23 48 23 105zM591 271q-5 -1 -8 -1q-41 0 -41 40q0 21 24 99q12 39 24 77l-2 3l-44 -151q-11 -38 -11 -49q0 -28 28 -28q14 0 30 8v2zM483 487q-23 40 -76 40q-34 0 -65 -16q22 7 44 7q54 0 80 -37l1 1h15zM579 500l-2 2l-54 -185
q-11 -39 -11 -49q0 -29 28 -29q16 0 32 11q-6 -1 -11 -1q-40 0 -40 40q0 12 12 52zM562 491h-65l-3 -9h63l-55 -186q-12 -39 -12 -49q0 -29 29 -29q16 0 32 11q-6 -1 -11 -1q-40 0 -40 40q0 12 12 52zM713 170l-24 37l-14 -10l24 -37zM462 466q-23 40 -76 40q-35 0 -65 -16
q22 7 44 7q65 0 90 -54zM692 149l-24 36l-14 -9l24 -37q5 3 14 10zM671 128l-24 36l-14 -10l24 -36q4 3 14 10zM650 107l-24 36l-14 -10l24 -36q4 3 14 10zM393 570h-2q-95 3 -171 -45q-40 -61 -40 -136q0 -33 7 -63q11 56 49 103q24 31 74 77q57 54 83 64zM684 377
q0 120 -92 189q-84 63 -208 63q-146 0 -247 -87q-106 -91 -106 -235q0 -142 99 -228q94 -82 238 -82t261 89l-24 36q-107 -77 -231 -77q-122 0 -203 68q-87 72 -87 191q0 126 93 204q87 74 214 74q102 0 168 -48q73 -54 73 -152q0 -79 -37.5 -127t-75.5 -48q-40 0 -40 40
q0 12 11 52l51 171h-66l-19 -68q-10 43 -29 61q-21 22 -62 22q-72 0 -122 -65q-48 -61 -48 -134q0 -55 27 -91q30 -39 84 -39q74 0 114 76l11 -4q-1 -8 -1 -13q0 -27 22.5 -43.5t50.5 -16.5q79 0 132 74q49 66 49 148zM566 130q-61 -21 -129 -21q-73 0 -129 23q-10 6 -29 15
q-28 11 -33 13q-16 8 -28 22q-4 5 -21 33q-29 49 -38 72q-12 33 -12 81q0 45 14 86q-23 -50 -23 -107q0 -115 83 -184q78 -64 195 -64q84 0 150 31zM545 109q-61 -21 -129 -21q-122 0 -203 67q-87 72 -87 192q0 45 14 86q-23 -50 -23 -108q0 -114 83 -183q78 -64 195 -64
q85 0 150 31zM587 152q-61 -22 -129 -22q-62 0 -115 19q-15 -4 -32 -5q57 -24 126 -24q84 0 150 32zM524 88q-61 -21 -129 -21q-122 0 -203 67q-87 72 -87 191q0 46 14 87q-23 -50 -23 -108q0 -114 83 -183q78 -64 195 -64q85 0 150 31zM186 252q-3 22 -2 45q-16 42 -16 92
q0 45 14 87q-23 -51 -23 -108q0 -65 27 -116zM439 383q0 -51 -29 -110q-34 -68 -78 -68q-59 0 -59 73q0 51 30 103q34 59 81 59q24 0 39.5 -16.5t15.5 -40.5zM427 383q0 20 -12 33.5t-31 11.5h-1q-13 -35 -13 -66q0 -54 38 -60q19 50 19 81zM404 291q-46 9 -46 71
q0 28 10 59q-20 -42 -20 -80q0 -65 47 -61h4zM394 268q-57 1 -57 73q0 28 10 59q-20 -42 -20 -80q0 -62 47 -62q8 0 16 3zM382 247h-8q-58 0 -58 73q0 28 10 59q-20 -42 -20 -80q0 -62 47 -62q14 0 28 9zM362 226h-9q-58 0 -58 73q0 28 10 59q-20 -42 -20 -80q0 -62 47 -62
q16 0 30 10z" />
    <glyph glyph-name="A" unicode="A" 
d="M584 -200h-584v394h42q10 22 36 48l44 42q9 8 22 22h-100q4 68 34 107q11 13 42.5 41.5t42.5 42.5q45 62 164 62q194 0 194 -146v-219h63v-394zM535 99v8q-21 11 -25 44v56v206q0 134 -183 134q-67 0 -111 -22q39 13 90 13q194 0 194 -146v-206q0 -48 0 -47q2 -32 15 -40
h20zM514 78v8q-21 11 -25 44v56v206q0 134 -183 134q-67 0 -111 -22q39 12 90 12q194 0 194 -145v-206q0 -48 0 -47q2 -32 14 -40h21zM493 57v7q-21 12 -25 45q-1 3 -1 56v206q0 134 -182 134q-67 0 -111 -22q39 12 90 12q194 0 194 -145v-206q0 -48 0 -47q2 -32 14 -40h21z
M273 365q-15 3 -34 3q-14 0 -25 -2q-2 -7 -3 -15q25 8 62 14zM301 350l-6 6q-67 -8 -102 -25q33 10 108 19zM471 35v8q-21 12 -24 45q-1 3 -1 56v206q0 134 -182 134q-68 0 -111 -22q39 12 90 12q194 0 194 -145v-206q0 -48 0 -47q2 -32 14 -41h20zM307 334l-1 5
q-55 -7 -68 -9q-39 -7 -66 -20q28 9 69 14q53 7 66 10zM308 322l-80 -12q-47 -7 -77 -21q44 14 112 20q27 2 44 9zM296 303q-13 -4 -84 -13q-51 -7 -82 -22q44 14 112 20q37 3 54 15zM450 14v8q-21 11 -25 45v56v206q0 134 -182 134q-174 0 -187 -145h102q13 62 81 62
q81 0 81 -55q0 -37 -72 -48q-111 -18 -135 -28q-72 -33 -72 -121q0 -60 37 -94t98 -34q78 0 146 75q2 -21 11 -61h117zM319 183q0 -51 -28.5 -80t-79.5 -29q-64 0 -64 63q0 47 53 64q44 10 89 20q11 4 30 17v-55zM308 194v23q-19 -10 -61 -18l3 -4zM306 159l-11 -1
q-47 -2 -59 39l-13 -3q3 -45 51 -45q15 0 30 4zM301 140q-15 -3 -27 -3q-58 0 -63 55l-9 -3q-1 -5 -1 -10q0 -51 52 -51q24 0 47 10zM286 121q-16 -5 -33 -5q-31 0 -48.5 19t-14.5 50l-4 -2q-6 -11 -6 -25q0 -51 52 -51q29 0 54 14zM266 100q-18 -5 -34 -5q-64 0 -64 61
q0 6 1 13q-10 -13 -10 -32q0 -51 52 -51q29 0 55 14z" />
    <glyph glyph-name="B" unicode="B" horiz-adv-x="582" 
d="M592 -200h-592v394h26v428h22v21h21v21h21v21h21v21h129v-204l1 1q52 55 123 55q95 0 147 -71q47 -64 47 -163q0 -73 -24 -130h58v-394zM546 324q0 94 -43 154q-49 69 -139 69q-41 0 -70 -16q22 6 48 6q96 0 148 -71q47 -64 47 -163q0 -62 -18 -113q27 57 27 134z
M228 490v204h-105v-9h96v-205q3 4 9 10zM525 303q0 94 -43 154q-49 69 -140 69q-40 0 -69 -16q22 6 48 6q96 0 148 -72q47 -63 47 -162q0 -62 -18 -113q27 57 27 134zM207 469v204h-106v-9h96v-205zM504 282q0 94 -43 154q-49 69 -140 69q-40 0 -69 -16q22 6 48 6
q96 0 148 -72q47 -64 47 -162q0 -63 -18 -113q27 57 27 134zM186 448v204h-106v-9h96v-205q3 4 10 10zM483 261q0 93 -43 154q-49 68 -140 68q-40 0 -69 -15q22 6 48 6q96 0 148 -72q47 -64 47 -163q0 -62 -18 -113q27 58 27 135zM165 427v204h-106v-9h96v-205zM462 239
q0 94 -43 155q-50 68 -140 68q-47 0 -79 -20q-26 -18 -57 -61v229h-105v-595h103v69q33 -47 57 -62q30 -19 82 -19q91 0 140 76q42 64 42 160zM163 36v1l-10 11v-12h10zM351 226q0 -58 -24 -95q-28 -44 -83 -44q-105 0 -105 143q0 59 23 97q27 45 82 45q56 0 84 -48
q23 -38 23 -98zM340 226q0 55 -20 91q-25 45 -76 43h-4q-5 -22 -5 -45q0 -93 49 -121h54q2 13 2 32zM332 172h-4q-56 -3 -83 44q-22 38 -22 99q0 22 4 44l-3 -1q-10 -30 -10 -64q0 -131 93 -131q11 0 23 2zM325 152q-10 -1 -18 -1q-105 0 -105 143q0 32 8 60v0
q-17 -35 -17 -82q0 -131 93 -131q21 0 37 8zM313 133q-13 -3 -27 -3q-105 0 -105 142q0 35 9 64q-18 -35 -18 -85q0 -131 93 -131q28 0 48 13zM292 112q-13 -3 -27 -3q-105 0 -105 142q0 35 9 65q-18 -36 -18 -86q0 -131 93 -131q28 0 48 13z" />
    <glyph glyph-name="C" unicode="C" horiz-adv-x="564" 
d="M574 -200h-574v394h28q-1 14 -1 30q0 117 57 184q21 20 62 61q49 50 80 67q41 22 103 22q190 0 209 -183h-24q2 -12 2 -21h-23q1 -12 2 -21h-23q1 -12 2 -22h-24q2 -11 3 -21h-132q-9 72 -71 73q-4 -24 -4 -52q0 -89 39 -117h56v4h18q2 9 3 21h18q2 9 3 21h18q2 10 4 21
h131q-3 -36 -15 -67h53v-394zM524 387q-19 160 -195 160q-54 0 -95 -20q34 10 74 10q176 0 204 -150h12zM503 365q-19 161 -195 161q-54 0 -95 -21q34 11 74 11q176 0 204 -151h12zM482 344q-19 160 -195 160q-54 0 -96 -20q35 11 75 11q176 0 204 -151h12zM461 323
q-19 160 -195 160q-54 0 -96 -20q35 11 75 11q176 0 204 -151h12zM523 250h-108l-2 -10h102q-2 -28 -9 -50q14 29 17 60zM502 228h-108l-2 -9h102q-2 -28 -9 -50q14 29 17 59zM481 207h-108l-2 -9h102q-2 -28 -9 -50q14 29 17 59zM460 186h-108l-2 -9h102q-2 -28 -10 -51
q14 29 18 60zM319 170q-85 9 -85 141q0 28 4 51h-5q-9 -30 -9 -72q0 -136 85 -130l9 1zM315 149l-6 -1q-96 -5 -96 142q0 39 7 69l-2 -1q-15 -31 -15 -89q0 -130 85 -130q14 0 25 3zM308 129q-11 -2 -20 -2q-96 0 -96 142q0 45 8 75q-18 -33 -18 -96q0 -130 85 -130
q23 0 39 8zM440 302q-20 160 -195 160q-104 0 -158 -69q-49 -63 -49 -169q0 -105 50 -163q53 -63 155 -63q77 0 132 45.5t64 121.5h-109q-10 -80 -84 -80q-97 0 -97 142q0 148 99 148q71 0 83 -73h109zM291 109q-11 -3 -24 -3q-97 0 -97 142q0 44 9 75q-18 -33 -18 -96
q0 -130 85 -130q29 0 45 12z" />
    <glyph glyph-name="D" unicode="D" horiz-adv-x="597" 
d="M607 -200h-607v394h25q-1 13 -1 28q0 117 54 184l68 68q48 48 71 62q38 23 92 23q17 0 34 -4v66h21v21h21v21h21v21h21v21h131v-511h49v-394zM546 99v595h-107v-10h98v-585h9zM525 78v595h-107v-10h98v-585h9zM343 528v15q-17 4 -34 4q-45 0 -81 -18q28 9 60 9
q29 0 55 -10zM504 57v594h-107v-9h98v-585h9zM343 497v18q-26 11 -55 11q-45 0 -81 -18q28 8 60 8q50 0 76 -19zM483 35v595h-107v-9h98v-586h9zM343 461v22q-31 22 -76 22t-81 -18q28 8 60 8q56 0 97 -34zM343 419v27q-39 38 -97 38q-45 0 -81 -18q28 8 60 8q74 0 118 -55z
M462 14v595h-107v-229q-51 83 -130 83q-96 0 -146 -76q-43 -65 -43 -165q0 -88 45 -151q51 -71 135 -71q53 0 86 23q27 19 57 68v-77h103zM358 226q0 -58 -24 -95q-29 -44 -84 -44q-105 0 -105 143q0 59 23 97q28 45 83 45q56 0 84 -48q23 -38 23 -98zM346 226q0 55 -20 91
q-25 45 -75 43h-5q-5 -22 -5 -45q0 -93 49 -121h54q2 16 2 32zM339 172h-4q-56 -3 -83 44q-22 38 -22 99q0 22 4 44l-3 -1q-11 -30 -11 -64q0 -131 93 -131q12 0 24 2zM332 152q-10 -1 -19 -1q-104 0 -104 143q0 32 8 60h-1q-17 -35 -17 -82q0 -131 93 -131q21 0 38 8z
M319 133q-13 -3 -27 -3q-104 0 -104 142q0 35 8 64q-18 -35 -18 -85q0 -131 93 -131q28 0 48 13zM299 112q-14 -3 -28 -3q-105 0 -105 142q0 35 10 65q-19 -36 -19 -86q0 -131 93 -131q29 0 49 13z" />
    <glyph glyph-name="E" unicode="E" horiz-adv-x="578" 
d="M588 -200h-588v394h28q-1 17 -1 35q0 118 60 182q20 19 59 58q46 49 81 68q42 23 103 23q114 0 170 -75q50 -67 49 -183v-23h-21l-1 -21h-20l-1 -21h-21v-6h59q-3 -21 -9 -37h53v-394zM537 302q1 246 -207 246q-52 0 -94 -20q34 11 73 11q110 0 166 -71q51 -64 53 -177h9
v11zM516 281q1 246 -207 246q-52 0 -94 -20q34 11 72 11q110 0 167 -71q51 -65 52 -177h10v11zM495 260q1 246 -208 246q-51 0 -93 -20q34 11 72 11q110 0 167 -71q51 -65 52 -177h10v11zM530 219h-45v-3h-21v-6h58q-1 -14 -4 -24q9 17 12 33zM474 239q1 246 -208 246
q-51 0 -93 -20q34 11 72 11q110 0 167 -71q51 -65 52 -178h10v12zM509 198h-45v-3h-66l-4 -7h107q-1 -14 -4 -23q9 17 12 33zM488 177h-110l-5 -10h107q-1 -14 -4 -23q9 17 12 33zM467 156h-110l-5 -10h107q-1 -14 -4 -23q9 17 12 33zM384 195zM453 218q1 246 -208 246
q-101 0 -156 -69q-51 -63 -51 -166q0 -104 53 -165q56 -65 158 -65q68 0 123 35q62 38 74 100h-110q-26 -51 -84 -51q-104 0 -107 123h308v12zM361 170q-12 -3 -25 -3q-45 0 -73 28h-23q24 -37 75 -37q18 0 33 6l2 3h5zM340 149q-12 -3 -25 -3q-62 0 -89 49h-18
q21 -58 86 -58q18 0 33 6l2 3h5zM318 128q-11 -3 -24 -3q-76 0 -98 70h-15q15 -79 92 -79q26 0 45 12zM297 107q-12 -3 -24 -3q-88 0 -104 91h-12q7 -100 95 -100q26 0 45 12zM343 272h-196q13 107 98 107q92 0 98 -107zM301 347q-6 6 -13 10h-57q1 3 2 9h-4q-3 -11 -5 -19
h77zM318 326q-3 5 -6 9h-102q2 16 5 27h-1q-8 -16 -11 -36h115zM326 305l-3 9h-134q3 19 7 33q-10 -18 -14 -42h144zM330 284l-1 9h-161q3 20 6 33q-9 -18 -13 -42h169z" />
    <glyph glyph-name="F" unicode="F" horiz-adv-x="406" 
d="M416 -200h-416v394h92v171h-65v94h21v22h21v21h21v21h4q4 38 23 62q24 22 63 63q8 7 21 21q33 43 128 43q12 0 51 -2v-108q-11 1 -21 2v-23q-12 1 -21 2v-23q-12 1 -22 2v-18h67v-95h-21v-21h-22v-21h-21v-21h-13v-192h110v-394zM368 615v84q-27 2 -39 2q-64 0 -96 -18
q30 8 75 8q12 0 51 -3v-72zM347 594v84q-27 2 -39 2q-65 0 -96 -18q30 8 75 8q12 0 51 -3v-73h9zM326 573v83q-27 3 -39 3q-65 0 -97 -19q31 9 76 9q12 0 50 -3v-73h10zM305 552v83q-27 2 -39 2q-65 0 -97 -18q31 9 76 9q12 0 50 -3v-73h10zM371 461v71h-76v-9h67v-62h9z
M350 440v71h-77v8l-10 1v-18h77v-62h10zM329 419v71h-77v30q-5 0 -9 -1l-1 -6v-32h77v-62h10zM308 398v71h-77v45q-10 -7 -10 -22v-33h77v-61h10zM117 586q0 -1 -1 -1zM91 490h-10v-9h10v9zM91 459v10h-31v-10h31zM294 99v266h-10v-266h10zM273 78v287h-10v-287h10zM287 377
v71h-78v6q0 48 7 61q9 17 43 17q10 0 25 -1v83q-27 2 -39 2q-94 0 -121 -40q-21 -30 -21 -128h-64v-71h65v-363h105v363h78zM252 57v308h-10v-308h10zM231 35v330h-10v-330h10z" />
    <glyph glyph-name="G" unicode="G" horiz-adv-x="602" 
d="M612 -200h-612v394h33q-2 18 -2 38q0 102 51 172q6 8 51 53q65 64 77 73q41 29 102 29q62 0 101 -38v6h22v21h125v-354h52v-394zM413 506q-38 41 -101 41q-45 0 -80 -18q28 9 59 9q62 0 101 -38v6h21zM391 485q-37 41 -100 41q-45 0 -81 -18q29 8 60 8q62 0 101 -37v6h20
zM549 116v420h-103v-9h93v-432q0 -56 -12 -96q22 42 22 117zM370 464q-37 41 -100 41q-45 0 -81 -18q29 8 60 8q62 0 101 -37v6h20zM528 95v420h-103v-9h93v-432q0 -56 -12 -96q22 42 22 117zM350 413v29q-38 42 -101 42q-45 0 -81 -18q28 8 60 8q79 0 122 -61zM507 74v420
h-103v-9h93v-432q0 -57 -12 -96q22 42 22 117zM485 53v420h-102v-9h93v-432q0 -57 -12 -96q21 42 21 117zM464 32v420h-102v-82q-27 49 -52 69q-32 24 -82 24q-91 0 -142 -73q-44 -63 -44 -158q0 -94 45 -153q49 -67 140 -67q50 0 80 21q26 18 53 65v-22q0 -86 -12 -115
q-21 -53 -93 -53q-71 0 -84 46h-117q15 -124 194 -124q112 0 164 46t52 156zM344 -8h-5q-40 -2 -63 15q-11 -3 -22 -5q17 -19 64 -19q12 0 25 2zM340 -27q-12 -2 -22 -2q-61 0 -77 30q-12 -1 -17 0q10 -39 73 -39q24 0 42 6zM332 -46q-17 -4 -35 -4q-71 0 -84 46h-117l2 -10
h103q6 -28 27 -38q15 -7 48 -7q48 0 56 13zM172 7q-15 5 -27 10h-28l2 -10h53zM312 -67q-17 -4 -36 -4q-71 0 -84 46h-117l2 -10h103q6 -28 27 -38q15 -7 48 -7q35 0 57 13zM361 235q0 -57 -22 -93q-28 -43 -82 -43q-53 0 -81 41q-24 36 -24 91q0 141 104 141q55 0 82 -43
q23 -36 23 -94zM349 235q0 54 -19 87q-25 41 -74 38h-4q-4 -21 -4 -44q0 -52 21 -85q25 -39 73 -36h4q3 19 3 40zM344 184l-2 -1q-53 -2 -81 40q-24 36 -24 93q0 21 3 43l-4 -1q-9 -28 -9 -63q0 -51 21 -83q24 -38 72 -38q11 0 22 3zM337 164q-9 -2 -17 -2q-53 0 -80 41
q-24 36 -24 92q0 32 7 59h-2q-15 -29 -15 -80t21 -83q24 -38 72 -38q20 0 37 8zM323 144q-12 -3 -24 -3q-53 0 -81 41q-23 36 -23 92q0 37 8 65q-18 -32 -18 -86q0 -51 21 -83q24 -38 72 -38q25 0 45 12zM302 123q-12 -3 -24 -3q-53 0 -81 41q-24 36 -24 92q0 36 9 65
q-18 -32 -18 -87q0 -51 21 -82q24 -38 72 -38q25 0 45 12z" />
    <glyph glyph-name="H" unicode="H" horiz-adv-x="560" 
d="M570 -200h-570v394h31v426h21v21h21v21h21v21h21v21h129v-201l4 3q34 29 55 40q28 14 65 14q58 0 102 -29q49 -32 58 -87q4 -25 4 -87v-163h38v-394zM232 492v200h-105v-9h96v-201q1 1 9 10zM520 99v264q0 55 -4 80q-8 50 -53 79q-41 26 -95 26q-45 0 -72 -17q25 7 51 7
q58 0 102 -28q49 -32 58 -87q4 -25 4 -87v-237h9zM211 471v200h-105v-9h96v-201q1 1 9 10zM499 78v264q0 55 -4 79q-8 51 -54 80q-40 26 -94 26q-45 0 -72 -18q25 8 51 8q58 0 102 -28q49 -32 58 -87q4 -26 4 -88v-236h9zM190 449v201h-105v-9h96v-201q1 0 9 9zM478 57v264
q0 55 -4 79q-8 51 -54 80q-40 26 -94 26q-45 0 -73 -18q26 8 52 8q58 0 102 -28q49 -32 58 -87q4 -26 4 -88v-236h9zM169 428v201h-105v-9h96v-203q4 7 9 11zM457 35v265q0 55 -4 79q-8 51 -54 80q-40 25 -94 25q-45 0 -73 -17q26 8 52 8q58 0 102 -28q48 -32 57 -87
q5 -26 5 -88v-237h9zM316 194v88q0 86 -63 84h-7q-2 -16 -2 -30v-142h72zM436 14v265q0 55 -4 79q-9 51 -54 80q-40 25 -94 25q-49 0 -81 -21q-27 -19 -55 -63v229h-106v-594h106v238q0 125 100 125q80 0 80 -95v-268h108zM234 365l-5 -1q-6 -22 -6 -46v-219h9v237
q0 14 2 29zM216 361l-2 -1q-12 -27 -12 -66v-216h9v237q0 24 5 46zM197 348q-16 -29 -16 -75v-216h9v237q0 30 7 54zM176 327q-16 -29 -16 -75v-217h9v238q0 30 7 54z" />
    <glyph glyph-name="I" unicode="I" horiz-adv-x="293" 
d="M303 -200h-303v394h39v267h21v21h21v21h21v9h-63v114h21v21h21v21h21v21h21v21h131v-113h-21v-22h-21v-21h-21v-9h63v-351h49v-394zM242 608v90h-107v-9h98v-81h9zM221 587v90h-107v-9h98v-81h9zM200 566v90h-108v-9h99v-81h9zM179 545v90h-108v-9h98v-81h10zM158 524v90
h-108v-90h108zM242 99v435h-51v-1h-22v-9h64v-425h9zM221 78v434h-52v0h-55v-9h98v-425h9zM200 57v434h-108v-9h99v-425h9zM179 35v435h-108v-9h98v-426h10zM158 14v435h-108v-435h108z" />
    <glyph glyph-name="J" unicode="J" horiz-adv-x="344" 
d="M354 -200h-354v394h90v268h22v21h21v21h21v9h-64v113h22v21h21v21h21v21h21v21h129v-113h-21v-21h-21v-21h-21v-9h63v-352h50v-394zM292 609v89h-105v-9h96v-80h9zM271 588v89h-105v-9h96v-80h9zM250 567v89h-106v-9h97v-80h9zM229 546v89h-106v-9h97v-80h9zM208 525v89
h-106v-89h106zM292 45v489h-51v0h-21v-9h63v-501q0 -36 -8 -63q17 30 17 84zM271 24v489h-51v0h-54v-9h96v-502q0 -36 -8 -63q17 31 17 85zM250 2v490h-106v-9h97v-502q0 -36 -8 -63q17 31 17 84zM229 -19v490h-106v-9h97v-502q0 -36 -8 -63q17 31 17 84zM208 -40v490h-106
v-488q0 -30 -13 -39t-43 -7v-82q34 -1 36 -1q70 0 98 28.5t28 98.5zM90 -42h-2v-10l2 1v9zM86 -63q-6 -1 -19 0v-10q13 2 19 10z" />
    <glyph glyph-name="K" unicode="K" horiz-adv-x="547" 
d="M557 -200h-557v394h26v426h21v21h21v21h21v21h22v21h127v-315l158 157h158l-180 -179l103 -173h80v-394zM526 534h-128l-10 -9h128zM504 513h-128l-9 -9h129zM484 492h-129l-9 -9h129zM463 471h-129l-9 -9h128zM226 376v316h-104v-9h95v-316zM520 99l-154 259l-13 -12
l147 -247h20zM205 355v316h-104v-9h94v-317zM498 78l-153 259l-13 -12l146 -247h20zM184 333v317h-104v-9h94v-318zM477 57l-154 259l-12 -12l146 -247h20zM163 311v318h-104v-9h94v-319zM442 450h-129l-171 -178v336h-104v-594h104v138l55 58l110 -196h128l-160 271z
M456 35l-154 260l-12 -12l146 -248h20zM226 99v36l-9 17v-53h9zM205 78v95l-10 17v-112h10zM184 57v121l-10 -9v-112h10zM163 35v122l-10 -10v-112h10z" />
    <glyph glyph-name="L" unicode="L" horiz-adv-x="292" 
d="M312 -200h-312v394h38v428h22v21h21v21h21v21h21v21h129v-512h60v-394zM240 99v596h-105v-10h96v-586h9zM219 78v595h-106v-9h97v-586h9zM198 57v595h-106v-9h97v-586h9zM177 35v596h-106v-9h97v-587h9zM156 14v596h-106v-596h106z" />
    <glyph glyph-name="M" unicode="M" horiz-adv-x="815" 
d="M835 -200h-835v394h37v269h21v21h21v21h21v21h21v21h126v-47q32 32 55 44q27 14 69 14q87 0 121 -67q35 37 62 50q31 17 77 17q54 0 93.5 -31t49.5 -84q4 -22 4 -67l-1 -182h58v-394zM766 99v277q0 44 -4 65q-9 48 -45 76.5t-86 28.5q-54 0 -78 -18q28 9 57 9
q54 0 93 -31.5t49 -83.5q5 -22 5 -67v-256h9zM745 78v277q0 44 -4 65q-9 48 -45 76.5t-86 28.5q-54 0 -78 -18q28 9 57 9q54 0 93 -31.5t49 -83.5q5 -22 5 -67v-256h9zM484 482q-31 64 -113 64q-41 0 -70 -16q22 7 49 7q87 0 121 -67q6 6 13 12zM724 57v277q0 44 -4 65
q-9 48 -45.5 76.5t-85.5 28.5q-54 0 -78 -18q27 9 57 9q54 0 93 -31.5t49 -83.5q4 -22 4 -67l1 -256h9zM463 460q-31 65 -113 65q-41 0 -70 -16q22 7 49 7q87 0 121 -67q6 6 13 11zM703 35v278q0 44 -4 65q-9 48 -45.5 76.5t-85.5 28.5q-55 0 -79 -18q28 8 58 8q54 0 93 -31
t49 -83q4 -22 4 -67l1 -257h9zM442 439q-31 65 -113 65q-41 0 -70 -16q22 7 49 7q86 0 121 -67q6 6 13 11zM560 194v100q0 60 -46 67v-1v-166h46zM421 418q-31 65 -113 65q-41 0 -70 -16q22 6 49 6q88 0 123 -70q5 8 11 15zM502 362h-2h-5q-2 -12 -2 -21v-242h9v263z
M483 360l-5 -1q-6 -18 -6 -39v-242h9v261q0 10 2 21zM236 487v48h-103v-9h93v-47zM464 354v-1q-13 -21 -13 -54v-242h9v261q0 19 4 36zM214 466v48h-102v-9h93v-48q4 5 9 9zM443 334q-13 -22 -13 -56v-243h9v262q0 20 4 37zM193 445v48h-102v-9h93v-48q4 5 9 9zM682 14v278
q0 44 -4 65q-10 48 -46 76.5t-85 28.5q-90 0 -139 -84q-18 46 -45 65t-76 19q-52 0 -82 -24q-22 -17 -54 -67v80h-102v-437h107v265q0 93 83 93q72 0 72 -96v-262h107v262q0 98 82 98q72 0 72 -80v-280h110zM172 423v49h-102v-9h93v-52zM300 276q0 77 -48 84v-166h48v82z
M241 99v262h-2l-7 -1q-1 -9 -1 -15v-246h10zM220 359l-6 -1q-4 -15 -4 -35v-245h9v264q0 8 1 17zM201 354l-3 -2q-9 -17 -9 -52v-243h9v264q0 18 3 33zM181 338q-13 -17 -13 -56v-247h9v265q0 22 4 38z" />
    <glyph glyph-name="N" unicode="N" horiz-adv-x="578" 
d="M588 -200h-588v394h37v269h21v21h21v21h21v21h21v21h126v-49q34 35 56 46q29 15 72 15q165 0 165 -164v-201h48v-394zM528 99v296q0 152 -153 152q-41 0 -72 -16q23 7 51 7q164 0 164 -164v-275h10zM507 78v296q0 152 -153 152q-42 0 -72 -16q23 6 51 6q164 0 164 -163
v-275h10zM235 486v49h-102v-9h92v-49q5 4 10 9zM486 57v296q0 152 -153 152q-42 0 -73 -16q24 6 52 6q164 0 164 -163v-275h10zM214 464v50h-102v-9h92v-49zM465 35v297q0 152 -153 152q-42 0 -73 -17q24 7 52 7q164 0 164 -163v-276h10zM193 443v50h-102v-9h92v-49z
M323 194v88q0 85 -64 83h-7q-2 -15 -2 -29v-142h73zM171 422v50h-101v-9h92v-53zM443 14v297q0 152 -152 152q-53 0 -84 -24q-24 -17 -57 -67v79h-101v-437h105v238q0 125 100 125q81 0 81 -95v-268h108zM240 364l-5 -1q-6 -21 -6 -45v-219h10v237q0 14 1 28zM222 360l-3 -1
q-11 -26 -11 -65v-216h9v237q0 24 5 45zM203 348q-16 -27 -16 -72v-219h9v237q0 30 7 54zM182 327q-16 -27 -16 -72v-220h9v238q0 30 7 54z" />
    <glyph glyph-name="O" unicode="O" horiz-adv-x="609" 
d="M619 -200h-619v394h28q-2 19 -2 38q0 102 58 172q1 2 45 46q68 69 93 84q47 28 123 28q110 0 173 -67.5t63 -177.5q0 -68 -27 -123h65v-394zM569 317q0 105 -59.5 169.5t-164.5 64.5q-63 0 -108 -23q39 13 87 13q110 0 173 -67.5t63 -177.5q0 -49 -14 -92q23 51 23 113z
M548 296q0 105 -59.5 169.5t-164.5 64.5q-63 0 -108 -23q39 13 87 13q110 0 173 -67.5t63 -178.5q0 -48 -14 -91q23 51 23 113zM527 274q0 106 -59.5 170t-164.5 64q-63 0 -109 -22q40 13 88 13q109 0 172.5 -67.5t63.5 -178.5q0 -48 -15 -91q24 51 24 112zM506 253
q0 106 -59.5 170t-164.5 64q-63 0 -109 -22q40 13 88 13q109 0 172 -67.5t63 -178.5q0 -49 -14 -91q24 51 24 112zM485 232q0 106 -60 170t-164 64t-164 -64t-60 -170t59.5 -169.5t164.5 -63.5t164.5 63.5t59.5 169.5zM373 232q0 -147 -112 -147q-113 0 -113 147t113 147
q112 0 112 -147zM361 232q0 139 -100 135l-12 -1q-5 -23 -5 -49q0 -94 52 -124l62 1q3 21 3 38zM354 170h-9q-59 -4 -89 43q-24 40 -24 104q0 25 4 48l-3 -1q-10 -30 -10 -68q0 -136 101 -136q15 0 28 4zM347 151q-13 -2 -23 -2q-113 0 -113 147q0 35 8 63h-1
q-17 -33 -17 -85q0 -135 102 -135q23 0 42 9zM333 131q-15 -3 -30 -3q-113 0 -113 146q0 37 8 66q-18 -34 -18 -87q0 -135 102 -135q30 0 51 13zM312 110q-15 -3 -30 -3q-113 0 -113 146q0 37 8 66q-18 -33 -18 -87q0 -135 102 -135q30 0 51 13z" />
    <glyph glyph-name="P" unicode="P" horiz-adv-x="581" 
d="M601 -200h-601v394h24v270h22v21h21v21h21v21h21v21h124v-51q37 34 57 45q29 16 71 16q95 0 147 -72q47 -64 47 -163q0 -74 -22 -129h68v-394zM543 323q0 94 -43 154q-49 69 -139 69q-39 0 -70 -16q23 7 49 7q95 0 147 -72q47 -64 47 -163q0 -65 -17 -115q26 55 26 136z
M522 302q0 94 -43 154q-49 69 -139 69q-39 0 -70 -16q23 7 49 7q95 0 147 -72q46 -64 46 -163q0 -65 -16 -115q26 55 26 136zM501 281q0 94 -43 154q-49 69 -139 69q-39 0 -70 -16q23 7 48 7q96 0 148 -73q46 -63 46 -162q0 -65 -16 -115q26 55 26 136zM221 485v51h-100v-9
h91v-51zM480 260q0 94 -43 154q-49 69 -140 69q-38 0 -70 -17q24 7 49 7q96 0 148 -72q46 -64 46 -162q0 -65 -17 -115q27 54 27 136zM200 464v51h-101v-9h92v-51q3 2 9 9zM179 443v51h-101v-9h92v-51q3 2 9 9zM158 421v52h-101v-9h92v-54zM458 239q0 94 -42 154
q-49 69 -140 69q-49 0 -83 -24q-26 -19 -56 -66v80h-101v-615h105v248q29 -45 53 -62q31 -21 79 -21q95 0 144 74q41 63 41 163zM225 -78v74l-9 3v-77h9zM204 -99v103l-9 5v-108h9zM183 -120v136q-3 3 -9 8v-144h9zM162 -141v177l-10 11v-188h10zM349 233q0 -60 -23 -98
q-28 -47 -83 -47t-83 42q-23 35 -23 93q0 148 106 148q54 0 82 -44q24 -36 24 -94zM337 233q0 53 -21 88q-25 41 -73 38h-6q-4 -24 -4 -52q0 -87 51 -113h50q3 20 3 39zM330 173h-3q-55 -3 -83 40q-23 36 -23 94q0 27 4 51l-4 -1q-9 -32 -9 -71q0 -123 94 -123q10 0 21 3z
M322 153q-8 -1 -16 -1q-55 0 -83 41q-23 35 -23 93q0 37 8 67l-2 -1q-15 -31 -15 -87q0 -123 94 -123q19 0 35 7zM310 133q-12 -2 -25 -2q-55 0 -83 41q-23 35 -23 93q0 41 9 72q-19 -33 -19 -93q0 -123 95 -123q26 0 46 12zM289 112q-12 -3 -25 -3q-55 0 -83 42
q-23 35 -23 93q0 41 9 72q-19 -33 -19 -93q0 -123 95 -123q27 0 46 12z" />
    <glyph glyph-name="Q" unicode="Q" horiz-adv-x="600" 
d="M646 -200h-620v394h28q-2 14 -2 29q0 90 31 143q19 33 94 109q47 47 69 61q37 24 88 24q68 0 105 -39v5h21v21h125v-353h61v-394zM437 505q-36 43 -103 43q-40 0 -73 -17q25 7 52 7q67 0 104 -38v5h20zM416 484q-36 43 -103 43q-40 0 -73 -17q25 7 51 7q68 0 105 -38v5
h20zM395 463q-36 43 -104 43q-39 0 -73 -18q26 8 52 8q68 0 105 -38v5h20zM573 -79v614h-102v-9h93v-605h9zM375 410v30q-36 44 -105 44q-39 0 -73 -17q26 8 52 8q82 0 126 -65zM552 -100v614h-102v-9h92v-605h10zM531 -122v615h-102v-9h92v-606h10zM510 -143v615h-102v-9
h92v-606h10zM489 -164v615h-102v-82q-30 52 -54 70q-31 24 -84 24q-90 0 -141 -78q-44 -67 -44 -162q0 -89 45 -152q51 -71 137 -71q95 0 127 67l11 -3v-228h105zM387 233q0 -144 -108 -144q-104 0 -104 139q0 144 104 144q55 0 84 -44q24 -36 24 -95zM376 233q0 54 -22 88
q-25 41 -75 39h-4q-4 -22 -4 -48q0 -92 47 -118h55q3 18 3 39zM368 174q-57 -5 -85 41q-24 37 -24 97q0 25 4 47l-4 -1q-9 -29 -9 -67q0 -127 92 -127q12 0 25 3zM362 154q-13 -2 -24 -2q-51 0 -78 43q-22 36 -22 96q0 35 8 63l-2 -1q-15 -32 -15 -83q0 -127 92 -127
q22 0 39 8zM350 135q-14 -4 -29 -4q-104 0 -104 139q0 38 8 67q-17 -33 -17 -88q0 -127 92 -127q29 0 50 13zM329 114q-14 -4 -29 -4q-104 0 -104 139q0 38 8 67q-17 -33 -17 -88q0 -127 92 -127q29 0 50 13z" />
    <glyph glyph-name="R" unicode="R" horiz-adv-x="409" 
d="M429 -200h-429v394h26v258h21v21h21v21h21v21h22v21h123v-56q57 67 128 67l21 -1v-133l-21 2v-23l-21 2v-23l-21 2v-23l-21 2v-23q-25 3 -40 3q-8 0 -16 -1q-2 -16 -2 -137h188v-394zM371 426v109h-16q-31 0 -59 -15q21 6 45 6q-1 0 21 -1v-98zM350 405v109h-16
q-31 0 -59 -15q21 6 44 6l22 -1v-98zM329 384v109h-16q-32 0 -59 -15q21 6 44 6l22 -1v-98zM308 363v108q-13 1 -16 1q-32 0 -60 -15q21 6 45 6l22 -2v-97zM223 469v56h-101v-10h91v-56zM202 448v55h-101v-9h91v-56zM180 427v55h-100v-9h91v-56q5 5 9 10zM159 402v59h-100
v-9h91v-64zM231 329l-6 -1q-5 -22 -5 -47l-1 -194h10v209q0 18 2 33zM212 325l-4 -2q-10 -25 -10 -65v-192h10v209q0 28 4 50zM287 342v108q-14 1 -19 1q-48 0 -80 -32q-16 -16 -50 -72v93h-100v-437h106v208q0 69 27 100.5t87 31.5q14 0 29 -1zM193 314q-16 -23 -16 -77
v-192h10v209q0 36 6 60zM172 293q-16 -23 -16 -77v-192h10v209q0 36 6 60z" />
    <glyph glyph-name="S" unicode="S" horiz-adv-x="562" 
d="M582 -200h-582v394h90v15v0q-50 32 -50 98q0 77 135 196q53 46 142 46q190 0 204 -161h-24l3 -21h-24l3 -22h-24l2 -12q76 -39 76 -116q0 -11 -2 -23h51v-394zM508 399q-17 138 -191 138q-58 0 -99 -20q35 11 78 11q173 0 199 -129h13zM487 378q-17 138 -191 138
q-58 0 -99 -20q35 11 78 11q173 0 199 -129h13zM466 357q-17 138 -191 138q-58 0 -99 -20q35 11 77 11q174 0 200 -129h13zM521 217q0 72 -73 107h-14l2 -12q76 -39 76 -116q0 -22 -6 -43q15 29 15 64zM445 336q-17 138 -192 138q-57 0 -98 -20q34 11 77 11q173 0 200 -129
h13zM500 196q0 72 -73 107h-41q105 -38 105 -128q0 -22 -6 -43q15 29 15 64zM304 325q-3 9 -8 16q-30 7 -33 8q-18 6 -30 14q-10 0 -20 -1q5 -17 91 -37zM479 175q0 63 -56 98q-48 30 -116 30l-1 9q-52 12 -59 14q-40 13 -45 34l-11 -3l-1 -7q0 -25 73 -42q102 -23 134 -40
q73 -38 73 -114q0 -22 -6 -43q15 29 15 64zM458 154q0 72 -72 107q-22 10 -134 37q-73 18 -73 50q-10 -8 -10 -19q0 -25 72 -42q103 -23 135 -40q72 -38 72 -114q0 -23 -6 -44q16 30 16 65zM437 133q0 73 -73 107q-20 9 -134 38q-73 18 -73 51q0 46 77 46q75 0 84 -60h106
q-17 138 -192 138q-73 0 -123 -35q-57 -40 -57 -111q0 -70 72 -103q13 -6 134 -36q72 -19 72 -55q0 -47 -82 -47q-92 0 -101 68h-108q2 -78 65 -116q52 -31 135 -31q84 0 135 31q63 37 63 115zM297 142q-16 6 -58 17q19 -15 58 -17zM317 122l-4 8l-11 -1q-60 -1 -82 35
l-18 5q11 -49 89 -49q13 0 26 2zM318 111q-14 -3 -27 -3q-90 0 -101 64q-20 4 -19 4h-90l1 -9h96q5 -42 29 -57q18 -11 63 -11q28 0 47 8zM134 188l-22 10h-10l1 -10h31zM306 91q-16 -4 -36 -4q-45 0 -67 12q-29 15 -35 56h-108v-9h97q4 -42 29 -57q18 -11 62 -11
q39 0 58 13z" />
    <glyph glyph-name="T" unicode="T" horiz-adv-x="408" 
d="M428 -200h-428v394h93v158h-63v96h21v21h21v21h21v83h21v21h21v21h21v21h21v21h128v-125h73v-95h-21v-21h-21v-21h-21v-22h-10v-179h123v-394zM366 448v72h-73v126h-104v-10h95v-125h73v-63h9zM345 427v72h-73v126h-104v-10h95v-125h73v-63h9zM324 406v72h-73v126h-104
v-10h95v-125h73v-63h9zM303 385v72h-73v125h-104v-9h95v-125h73v-63h9zM93 469v9h-9v-9h9zM366 83v76q-24 -1 -30 -1q-27 0 -35 10t-8 37v147h-9v-170q0 -20 5 -28q13 -9 68 -4v-68zM93 448v9h-30v-9h30zM345 62v76q-25 -1 -30 -1q-28 0 -35.5 10t-7.5 37v168h-9v-191
q0 -21 5 -28q13 -9 68 -4v-68zM324 40v76h-30q-28 0 -35.5 10t-7.5 37v189h-9v-212q0 -21 5 -28q13 -9 68 -4v-68h9zM303 19v76h-30q-28 0 -35.5 10t-7.5 37v210h-9v-233q0 -21 5 -28q13 -9 68 -4v-68h9zM282 -2v76q-25 -1 -30 -1q-28 0 -36 12q-7 9 -7 36v243h73v72h-73
v125h-105v-125h-62v-72h62v-282q0 -86 114 -86q8 0 64 2z" />
    <glyph glyph-name="U" unicode="U" horiz-adv-x="582" 
d="M602 -200h-602v394h36v258h21v21h21v21h21v21h21v21h132v-276q0 -45 15 -66h55v258h21v21h21v21h22v21h21v21h131v-342h64v-394zM526 87v438h-108v-10h98v-428h10zM505 66v437h-108v-9h98v-428h10zM484 45v437h-108v-9h98v-428h10zM462 24v437h-107v-9h98v-428h9z
M319 162h-6q-72 -2 -72 98v265h-109v-10h99v-277q0 -86 66 -86q10 0 20 2zM314 142q-9 -1 -17 -1q-78 0 -78 97v265h-108v-9h99v-277q0 -86 66 -86q20 0 36 7zM305 123q-14 -3 -29 -3q-78 0 -78 97v265h-108v-9h99v-277q0 -86 66 -86q30 0 50 13zM441 3v437h-107v-238
q0 -125 -100 -125q-78 0 -78 98v265h-108v-265q0 -88 28 -131q35 -51 119 -51q52 0 84 21q21 14 60 63v-74h102zM284 102q-14 -3 -29 -3q-78 0 -78 97v265h-108v-9h99v-277q0 -86 66 -86q30 0 50 13z" />
    <glyph glyph-name="V" unicode="V" horiz-adv-x="487" 
d="M507 -200h-507v394h84l-59 258h26l-5 21h26l-4 21h25l-4 21h26l-5 21h135l22 -118l6 34h17l4 21h17l4 21h17l4 21h17l4 21h130l-78 -342h98v-394zM473 525h-106l-2 -10h101l-98 -428h4zM451 503h-105l-2 -9h101l-98 -428h4zM430 482h-105l-2 -9h101l-98 -428h4zM261 386
l-25 139h-112l3 -10h97l30 -164zM409 461h-105l-2 -9h101l-98 -428h4zM248 318l-33 185h-112l2 -9h98l38 -211zM235 250l-42 232h-111l2 -9h98l47 -258zM223 182l-51 279h-111l2 -9h98l55 -305zM388 440h-105l-61 -326h-12l-59 326h-111l99 -437h149z" />
    <glyph glyph-name="W" unicode="W" horiz-adv-x="735" 
d="M755 -200h-755v394h87l-63 258h26l-5 21h27l-6 21h27l-5 21h26l-5 21h121l30 -138l11 54h17l4 21h17l4 21h17l4 21h17l4 21h129l31 -147l14 63h16l5 21h16l5 21h16l5 21h16l5 21h126l-86 -342h102v-394zM724 525h-102l-2 -10h98l-108 -428h4zM703 503h-102l-2 -9h98
l-108 -428h4zM682 482h-102l-2 -9h98l-108 -428h4zM509 361l-35 164h-109l-2 -10h100l39 -185zM661 461h-102l-2 -9h98l-108 -428h3zM496 302l-43 201h-109l-2 -9h100l47 -224zM483 242l-51 240h-109l-2 -9h100l55 -263zM470 182l-59 279h-109l-2 -9h100l63 -302zM254 369
l-33 156h-97l2 -10h83l39 -178zM242 308l-42 195h-98l3 -9h83l47 -219zM640 440h-102l-69 -319h-11l-68 319h-109l-64 -317l-12 -1l-69 318h-97l107 -437h112l71 322h11l69 -322h120zM230 247l-52 235h-97l3 -9h83l56 -259zM361 172l-2 10l-21 -95h5zM353 210l-2 10
l-34 -154h5zM345 248l-3 10l-46 -213h4zM336 286l-2 10l-59 -272h4zM217 185l-60 276h-97l3 -9h83l65 -300z" />
    <glyph glyph-name="X" unicode="X" horiz-adv-x="593" 
d="M593 -200h-593v394h160l20 30l-151 227h36l-15 21h36l-14 21h35l-14 21h35l-14 21h149l65 -100l10 16h8l13 21h8l13 21h8l13 21h8l13 21h146l-152 -224l78 -117h99v-394zM546 524h-117l-6 -10h116zM525 503h-117l-6 -10h116zM503 482h-117l-5 -10h116zM482 460h-117
l-6 -9h117zM321 424l-64 100h-121l6 -10h100l69 -106zM551 87l-145 218l-11 -15l135 -203h21zM304 397l-68 106h-121l6 -10h100l72 -113zM530 66l-145 218l-11 -16l135 -202h21zM287 369l-72 113h-122l7 -10h100l76 -119zM509 45l-146 218l-10 -16l135 -202h21zM269 342
l-75 118h-122l7 -9h100l80 -125zM488 24l-146 218l-10 -16l135 -202h21zM467 3l-149 223l143 213h-117l-85 -135l-86 135h-122l143 -215l-149 -221h120l89 139l89 -139h124z" />
    <glyph glyph-name="Y" unicode="Y" horiz-adv-x="519" 
d="M539 -200h-539v394h101l-81 258h27l-6 21h27l-6 21h28l-7 21h28l-7 21h135l34 -148l12 64h17l4 21h17l4 21h17l5 21h16l5 21h128l-86 -342h127v-394zM483 525h-104l-2 -10h100l-114 -449q-10 -41 -35 -122q17 36 45 146zM268 359l-38 166h-110l3 -10h95l44 -189zM462 503
h-104l-2 -9h100l-114 -449q-10 -41 -35 -123q18 38 45 147zM256 297l-48 206h-109l3 -9h95l53 -230zM441 482h-104l-2 -9h100l-114 -449q-10 -41 -35 -123q17 36 45 147zM420 461h-104l-2 -9h100q-40 -149 -114 -449q-15 -67 -35 -123q17 38 45 147zM245 235l-58 247h-109
l3 -9h95q1 -5 63 -265zM234 180l-68 281h-109l3 -9h94q1 -4 75 -298zM399 440h-104l-60 -314h-11l-79 314h-109l145 -463q0 -80 -100 -73v-82q21 -1 48 -1q82 0 107 28q18 21 53 157zM169 -21l-3 10h-1v-10h4zM168 -33q-9 0 -24 1v-10q7 0 22 1zM161 -53q-18 -2 -38 0v-10
q23 0 36 5zM148 -73q-6 0 -21.5 -1t-24.5 -1v-9q33 0 46 11z" />
    <glyph glyph-name="Z" unicode="Z" horiz-adv-x="555" 
d="M575 -200h-575v394h128l132 150h-208v108h21v21h21v21h21v21h22v21h376v-106l-212 -236h274v-394zM501 435v90h-353v-10h344v-91zM480 414v89h-353v-9h343v-91zM459 393v89h-353v-9h343v-91zM438 372v89h-353v-9h343v-91zM509 87v85h-230l-8 -10h228v-75h10zM488 66v85
h-230l-8 -10h228v-75h10zM424 3v84h-243l235 264v89h-352v-84h222l-238 -270v-83h376zM467 45v85h-230l-8 -10h228v-75h10zM445 24v84h-229l-8 -9h228v-75h9z" />
    <glyph glyph-name="bracketleft" unicode="[" horiz-adv-x="342" 
d="M362 -200h-362v394h39v422h21v21h21v21h21v21h21v21h219v-97h-21v-21h-21v-21h-21v-21h-22v-22h-11v-324h116v-394zM330 615v74h-195v-10h186v-64h9zM309 593v74h-195v-9h186v-65h9zM288 572v74h-195v-9h186v-65h9zM267 551v74h-195v-9h185v-65h10zM330 -75v74h-95v519
h-10v-528h96v-65h9zM309 -97v75h-96v540h-9v-549h96v-66h9zM288 -118v75h-96v561h-9v-571h96v-65h9zM267 -139v75h-96v582h-9v-592h95v-65h10zM246 -160v75h-96v615h96v74h-195v-764h195z" />
    <glyph glyph-name="backslash" unicode="\" horiz-adv-x="843" 
d="M863 -200h-863v394h73q-23 58 -23 122q0 83 35 148q28 51 95 118q80 80 125 107q68 41 159 41q136 0 232.5 -96.5t96.5 -233.5q0 -116 -72 -206h142v-394zM782 400q0 132 -93 225t-225 93q-68 0 -130 -28q53 19 109 19q136 0 232.5 -96.5t96.5 -233.5q0 -55 -18 -108
q28 62 28 129zM761 379q0 132 -93.5 225t-224.5 93q-68 0 -130 -28q53 19 109 19q136 0 232.5 -96.5t96.5 -233.5q0 -55 -18 -108q28 62 28 129zM740 358q0 132 -93.5 225t-224.5 93q-68 0 -130 -28q53 19 109 19q136 0 232.5 -96.5t96.5 -233.5q0 -55 -18 -108
q28 62 28 129zM719 337q0 132 -93.5 225t-224.5 93q-68 0 -130 -28q53 19 109 19q136 0 232.5 -96.5t96.5 -233.5q0 -55 -18 -108q28 62 28 129zM698 316q0 132 -93.5 225t-224.5 93q-132 0 -225 -93t-93 -225t93 -225t225 -93q131 0 224.5 93t93.5 225zM628 316
q0 -80 -50 -148l-163 164v229q92 -14 152.5 -83t60.5 -162zM529 119q-51 -38 -114 -48v162zM345 332l-164 -164q-49 68 -49 148q0 94 60 162.5t153 83.5v-230zM345 71q-63 10 -115 48l115 114v-162zM616 316q2 58 -27 112q-28 51 -78 85v-92l105 -105v0zM615 300l-116 116
v104l-9 5v-125l122 -123q2 12 3 23zM610 263l-132 132v136l-9 4v-156l135 -136q4 11 6 20zM600 231l-143 143v165l-9 3v-184l144 -145zM586 203l-150 150v192l-9 2v-210l150 -150q5 8 9 16zM333 337v210q-39 -7 -73 -27q-32 -55 -32 -120q0 -70 39 -129zM496 135l-2 2
l-16 -3v19l-9 10v-36q12 3 27 8zM501 124q-19 -7 -44 -11v61l-9 10v-78q28 6 53 18zM480 103q-19 -7 -44 -11v103l-9 10v-120q28 6 53 18zM258 262q-42 63 -42 138q0 40 13 79q-22 -47 -22 -100q0 -70 39 -129zM237 241q-42 63 -42 138q0 40 13 79q-22 -47 -22 -100
q0 -70 39 -129zM216 220q-42 63 -42 138q0 40 13 79q-22 -48 -22 -100q0 -70 39 -129zM333 171v19l-9 6l-12 -13q8 -6 21 -12zM195 199q-42 63 -42 138q0 41 13 79q-23 -48 -23 -100q0 -70 40 -129zM333 140v18q-17 8 -30 17l-13 -13q20 -13 43 -22zM333 112v15
q-28 11 -51 27l-13 -13q29 -19 64 -29zM333 85v14q-39 11 -72 34l-13 -13q39 -26 85 -35z" />
    <glyph glyph-name="bracketright" unicode="]" horiz-adv-x="384" 
d="M404 -200h-404v394h134v326h-95v96h21v21h21v21h21v21h21v21h219v-506h62v-394zM330 -75v764h-195v-10h186v-754h9zM309 -97v764h-195v-9h186v-755h9zM288 -118v764h-195v-9h186v-755h9zM267 -139v764h-195v-9h186v-755h9zM246 -160v764h-195v-72h95v-617h-95v-75h195z
M134 -31v9h-20v-9h20zM134 -53v10h-41v-10h41zM134 -74v10h-62v-10h62z" />
    <glyph glyph-name="asciicircum" unicode="^" horiz-adv-x="1792" 
d="M1753 715q-11 -2 -21 -13t-10 -22v-140h-32v175q0 11 -7 17l19 23q18 -6 20 -30q23 30 31 30v-40zM1676 693q0 -57 -46 -69q0 -17 7 -32q8 -19 24 -19q5 0 14 4v-36q-8 -3 -18 -3q-61 0 -61 108v24q0 85 40 85t40 -62zM1580 540h-32v175q0 9 -8 9q-5 0 -8 -5v-179h-32
v175q0 13 -7 17l21 24q9 -3 16 -15q11 15 24 15q26 0 26 -38v-178zM1482 540h-31v173q0 11 -9 11q-5 -2 -9 -7v-177h-31v277h32v-74q10 13 22 13q26 0 26 -41v-175zM1388 646q0 -108 -39 -108q-41 0 -41 108q0 109 39 109q41 0 41 -109zM1300 540h-60v277h38v-240h22v-37z
M1621 191h-32v173q0 11 -8 11q-5 -2 -8 -7v-177h-32v173q0 11 -8 11q-5 -2 -8 -7v-177h-32v180q0 9 -5 13l18 23q13 -4 17 -16q11 16 25 16t22 -15q13 15 26 15q25 0 25 -39v-177zM1188 565l-19 -28q-13 4 -17 19q-11 -18 -21 -18q-31 0 -31 81v38q0 99 49 99v61h31v-226
q0 -19 8 -26zM1091 561l-25 -23q-17 5 -17 28v251h32v-234q0 -17 10 -22zM1476 298q0 -109 -38 -109q-42 0 -42 109t40 109t40 -109zM1781 -157h-31v172q0 11 -8 11q-5 -2 -9 -6v-177h-32v173q0 10 -7 10q-6 -2 -9 -6v-177h-32v180q0 8 -5 13l19 22q13 -4 17 -16
q10 17 24 17q15 0 23 -16q12 16 25 16q25 0 25 -40v-176zM1388 195q-9 -7 -16 -7q-45 0 -45 97v31q0 91 46 91q7 0 14 -3v-32q-6 3 -8 3q-19 0 -19 -59v-32q0 -63 17 -63q7 0 11 5v-31zM1033 646q0 -108 -39 -108q-42 0 -42 108q0 109 40 109q41 0 41 -109zM1274 213
l-25 -24q-17 6 -17 29v251h32v-234q0 -18 10 -22zM944 715q-10 -2 -20 -13t-10 -22v-140h-32v175q0 11 -7 17l19 23q17 -6 20 -30q23 30 30 30v-40zM1637 -51q0 -109 -39 -109q-41 0 -41 109t40 109t40 -109zM1319 209q0 -20 -20 -20q-21 0 -21 20q0 21 21 21q20 0 20 -21z
M1216 298q0 -109 -39 -109q-42 0 -42 109t40 109q41 0 41 -109zM871 566l-19 -28q-9 2 -17 18q-8 -18 -22 -18q-31 0 -31 95v26q0 96 66 96h15v-159q0 -24 8 -30zM1548 -154q-8 -6 -16 -6q-44 0 -44 97v31q0 90 45 90q7 0 15 -2v-33q-6 3 -8 3q-20 0 -20 -58v-32
q0 -63 17 -63q8 0 11 4v-31zM764 540h-37v117h-20v-117h-37v277h37v-124h20v124h37v-277zM1130 217l-18 -28q-10 3 -17 19q-9 -19 -22 -19q-32 0 -32 96v25q0 97 66 97h15v-159q0 -25 8 -31zM1432 -111q0 -49 -37 -49q-12 0 -21 6v32q5 -6 12 -6q17 0 17 16q0 21 -14.5 60.5
t-14.5 61.5q0 48 33 48q9 0 22 -7v-29q-7 5 -12 5q-13 0 -13 -16q0 -20 14 -60t14 -62zM1480 -139q0 -21 -21 -21q-20 0 -20 21q0 20 20 20q21 0 21 -20zM1365 -153q-9 -6 -17 -6q-31 0 -31 37v151h-16v9q11 12 39 53h9v-35h16v-27h-16v-146q0 -11 9 -11q2 0 7 2v-27z
M617 619q0 -77 -71 -81v38q32 3 32 44q0 43 -32 43v31h3q28 -1 28 52q0 36 -21 36q-4 0 -10 -2v35q8 4 18 4q51 0 51 -74q0 -46 -26 -63q28 -20 28 -63zM1014 343q0 -31 -12 -60q-15 -37 -41 -37q-19 0 -24 21q-12 -21 -30 -21q-35 0 -35 60q0 28 12 54q15 34 39 34
q16 0 24 -17l2 11h28q-6 -25 -11 -49q-7 -30 -7 -49q0 -4 2 -9l4 -2q13 0 20 28q6 20 6 38q0 77 -61 77q-38 0 -60 -37q-18 -31 -18 -72q0 -39 17 -67q20 -34 57 -34q32 0 64 36l11 -26q-35 -41 -77 -41q-48 0 -74 45q-22 37 -22 88q0 52 24 92q28 47 76 47q42 0 66 -35
q20 -31 20 -75zM1289 -157h-32v175q0 9 -8 9q-5 0 -8 -6v-178h-32v175q0 12 -7 17l20 23q10 -2 16 -15q12 15 25 15q26 0 26 -37v-178zM534 676q0 -138 -48 -138q-51 0 -51 140q0 141 49 141q50 0 50 -143zM1195 -51q0 -109 -39 -109q-42 0 -42 109t40 109q41 0 41 -109z
M806 367q-10 -2 -20 -13.5t-10 -22.5v-140h-32v175q0 11 -7 17l19 24q17 -7 20 -31q23 31 30 31v-40zM422 676q0 -138 -48 -138q-52 0 -52 140q0 141 49 141q51 0 51 -143zM1106 91q-12 -1 -15 -13q-1 -2 -1 -22h15v-27h-15v-170q0 -57 -45 -57v35q14 0 14 27v165h-14v27h14
q0 67 42 66h5v-31zM730 344q0 -57 -46 -68q-1 -18 6 -33q9 -19 25 -19q4 0 13 4v-36q-7 -3 -17 -3q-61 0 -61 108v25q0 85 40 85t40 -63zM1037 -111q0 -49 -37 -49q-12 0 -22 6v32q5 -6 13 -6q16 0 16 16q0 21 -14 60.5t-14 61.5q0 48 33 48q9 0 21 -7v-29q-6 5 -12 5
q-13 0 -13 -16q0 -20 14.5 -60t14.5 -62zM308 540h-77q36 127 36 205q0 32 -18 32q-10 0 -17 -9v37q16 14 31 14q43 0 43 -67q0 -54 -27 -176h29v-36zM973 -132l-19 -28q-13 4 -17 19q-11 -18 -21 -18q-32 0 -32 81v38q0 98 49 98v62h32v-226q0 -19 8 -26zM633 191h-32v175
q0 9 -8 9q-4 0 -8 -5v-179h-31v176q0 12 -7 17l20 23q9 -2 16 -15q12 15 25 15q25 0 25 -38v-178zM875 -136l-24 -23q-17 5 -17 28v251h31v-234q0 -17 10 -22zM536 191h-32v174q0 10 -8 10q-5 -2 -9 -6v-178h-32v278h32v-75q11 13 23 13q26 0 26 -40v-176zM213 665
q0 -45 -20 -83q-24 -46 -65 -46q-42 0 -66 46q-20 38 -20 83q0 46 20 83q24 46 66 46q41 0 65 -46q20 -37 20 -83zM817 -51q0 -109 -38 -109q-42 0 -42 109t40 109t40 -109zM441 298q0 -109 -38 -109q-42 0 -42 109t40 109t40 -109zM353 191h-59v278h37v-241h22v-37zM729 18
q-11 -2 -21 -13t-10 -22v-140h-31v175q0 10 -8 17l20 23q17 -6 19 -30q23 30 31 30v-40zM656 -132l-19 -27q-10 2 -17 18q-9 -18 -22 -18q-31 0 -31 95v26q0 96 65 96h15v-159q0 -24 9 -31zM274 191h-37v117h-19v-117h-38v278h38v-125h19v125h37v-278zM549 -157h-32v173
q0 11 -8 11q-5 -3 -9 -7v-177h-31v277h32v-74q10 13 22 13q26 0 26 -41v-175zM457 -139q0 -21 -20 -21q-21 0 -21 21q0 20 21 20q20 0 20 -20zM409 56l-25 -216h-25l-13 137l-13 -137h-25l-25 216h32l6 -146l10 146h29l11 -144l7 144h31zM275 56l-25 -216h-26l-12 137
l-13 -137h-25l-26 216h32l7 -146l10 146h29l11 -144l7 144h31zM141 56l-25 -216h-26l-12 137l-13 -137h-25l-26 216h32l7 -146l10 146h29l10 -144l7 144h32zM1644 692q0 21 -7 30q-8 -15 -8 -35v-27q15 5 15 32zM1356 646q0 67 -8 72q-8 -5 -8 -68q0 -68 8 -75q8 8 8 71z
M1149 573v143q-17 -4 -17 -48v-45q0 -54 11 -54q3 0 6 4zM1444 297q0 67 -7 73q-8 -6 -8 -69q0 -68 8 -75q7 9 7 71zM1001 646q0 67 -8 72q-8 -5 -8 -68q0 -68 8 -75q8 8 8 71zM1605 -52q0 68 -8 73q-7 -6 -7 -69q0 -67 7 -75q8 9 8 71zM1184 297q0 67 -8 73q-8 -6 -8 -69
q0 -68 8 -75q8 9 8 71zM831 571v144q-17 -5 -17 -54v-39q0 -53 11 -53q3 0 6 2zM1090 223v144q-16 -5 -16 -55v-39q0 -52 11 -52q3 0 5 2zM938 346q0 18 -10 18q-11 0 -19 -26q-6 -20 -6 -36q0 -24 11 -24q10 0 18 29q6 23 6 39zM495 674q0 85 -11 102q-10 -14 -10 -93
q0 -89 11 -103q10 16 10 94zM1163 -52q0 68 -8 73q-8 -6 -8 -69q0 -67 8 -75q8 9 8 71zM383 674q0 85 -11 102q-11 -14 -11 -93q0 -89 12 -103q10 16 10 94zM698 343q0 21 -7 30q-9 -14 -9 -34v-28q16 6 16 32zM933 -125v144q-16 -5 -16 -49v-44q0 -54 11 -54q3 0 5 3z
M190 665q0 35 -14 64q-17 37 -48 37t-49 -37q-14 -29 -14 -64t14 -64q18 -37 49 -37t48 37q14 29 14 64zM785 -52q0 68 -7 73q-8 -6 -8 -69q0 -67 8 -75q7 9 7 71zM409 297q0 67 -7 73q-8 -6 -8 -69q0 -68 8 -75q7 9 7 71zM616 -126v144q-17 -5 -17 -54v-39q0 -53 11 -53
q3 0 6 2zM173 681h-27q-3 26 -17 26q-17 0 -17 -43q0 -41 18 -41q13 0 16 24h27q-7 -60 -43 -60q-25 0 -39 28q-11 22 -11 50t10 50q13 28 38 28q38 0 45 -62z" />
    <glyph glyph-name="underscore" unicode="_" horiz-adv-x="289" 
d="M309 -200h-309v394h309v-394z" />
    <glyph glyph-name="grave" unicode="`" horiz-adv-x="375" 
d="M422 647h-35l13 -21h-34l13 -21h-34l13 -21h-34l13 -22h-98l-137 135h43l-22 21h43l-21 22h42l-21 21h42l-21 21h148zM400 659l-71 111h-114l10 -9h89l65 -102h21zM379 637l-72 112h-113l10 -9h89l65 -103h21zM358 616l-72 112h-113l10 -10h89l65 -102h21zM337 595
l-72 112h-113l10 -10h89l65 -102h21zM316 574l-72 112h-113l113 -112h72z" />
    <glyph glyph-name="a" unicode="a" 
d="M584 -200h-584v394h42q10 22 36 48l44 42q9 8 22 22h-100q4 68 34 107q11 13 42.5 41.5t42.5 42.5q45 62 164 62q194 0 194 -146v-219h63v-394zM535 99v8q-21 11 -25 44v56v206q0 134 -183 134q-67 0 -111 -22q39 13 90 13q194 0 194 -146v-206q0 -48 0 -47q2 -32 15 -40
h20zM514 78v8q-21 11 -25 44v56v206q0 134 -183 134q-67 0 -111 -22q39 12 90 12q194 0 194 -145v-206q0 -48 0 -47q2 -32 14 -40h21zM493 57v7q-21 12 -25 45q-1 3 -1 56v206q0 134 -182 134q-67 0 -111 -22q39 12 90 12q194 0 194 -145v-206q0 -48 0 -47q2 -32 14 -40h21z
M273 365q-15 3 -34 3q-14 0 -25 -2q-2 -7 -3 -15q25 8 62 14zM301 350l-6 6q-67 -8 -102 -25q33 10 108 19zM471 35v8q-21 12 -24 45q-1 3 -1 56v206q0 134 -182 134q-68 0 -111 -22q39 12 90 12q194 0 194 -145v-206q0 -48 0 -47q2 -32 14 -41h20zM307 334l-1 5
q-55 -7 -68 -9q-39 -7 -66 -20q28 9 69 14q53 7 66 10zM308 322l-80 -12q-47 -7 -77 -21q44 14 112 20q27 2 44 9zM296 303q-13 -4 -84 -13q-51 -7 -82 -22q44 14 112 20q37 3 54 15zM450 14v8q-21 11 -25 45v56v206q0 134 -182 134q-174 0 -187 -145h102q13 62 81 62
q81 0 81 -55q0 -37 -72 -48q-111 -18 -135 -28q-72 -33 -72 -121q0 -60 37 -94t98 -34q78 0 146 75q2 -21 11 -61h117zM319 183q0 -51 -28.5 -80t-79.5 -29q-64 0 -64 63q0 47 53 64q44 10 89 20q11 4 30 17v-55zM308 194v23q-19 -10 -61 -18l3 -4zM306 159l-11 -1
q-47 -2 -59 39l-13 -3q3 -45 51 -45q15 0 30 4zM301 140q-15 -3 -27 -3q-58 0 -63 55l-9 -3q-1 -5 -1 -10q0 -51 52 -51q24 0 47 10zM286 121q-16 -5 -33 -5q-31 0 -48.5 19t-14.5 50l-4 -2q-6 -11 -6 -25q0 -51 52 -51q29 0 54 14zM266 100q-18 -5 -34 -5q-64 0 -64 61
q0 6 1 13q-10 -13 -10 -32q0 -51 52 -51q29 0 55 14z" />
    <glyph glyph-name="b" unicode="b" horiz-adv-x="582" 
d="M592 -200h-592v394h26v428h22v21h21v21h21v21h21v21h129v-204l1 1q52 55 123 55q95 0 147 -71q47 -64 47 -163q0 -73 -24 -130h58v-394zM546 324q0 94 -43 154q-49 69 -139 69q-41 0 -70 -16q22 6 48 6q96 0 148 -71q47 -64 47 -163q0 -62 -18 -113q27 57 27 134z
M228 490v204h-105v-9h96v-205q3 4 9 10zM525 303q0 94 -43 154q-49 69 -140 69q-40 0 -69 -16q22 6 48 6q96 0 148 -72q47 -63 47 -162q0 -62 -18 -113q27 57 27 134zM207 469v204h-106v-9h96v-205zM504 282q0 94 -43 154q-49 69 -140 69q-40 0 -69 -16q22 6 48 6
q96 0 148 -72q47 -64 47 -162q0 -63 -18 -113q27 57 27 134zM186 448v204h-106v-9h96v-205q3 4 10 10zM483 261q0 93 -43 154q-49 68 -140 68q-40 0 -69 -15q22 6 48 6q96 0 148 -72q47 -64 47 -163q0 -62 -18 -113q27 58 27 135zM165 427v204h-106v-9h96v-205zM462 239
q0 94 -43 155q-50 68 -140 68q-47 0 -79 -20q-26 -18 -57 -61v229h-105v-595h103v69q33 -47 57 -62q30 -19 82 -19q91 0 140 76q42 64 42 160zM163 36v1l-10 11v-12h10zM351 226q0 -58 -24 -95q-28 -44 -83 -44q-105 0 -105 143q0 59 23 97q27 45 82 45q56 0 84 -48
q23 -38 23 -98zM340 226q0 55 -20 91q-25 45 -76 43h-4q-5 -22 -5 -45q0 -93 49 -121h54q2 13 2 32zM332 172h-4q-56 -3 -83 44q-22 38 -22 99q0 22 4 44l-3 -1q-10 -30 -10 -64q0 -131 93 -131q11 0 23 2zM325 152q-10 -1 -18 -1q-105 0 -105 143q0 32 8 60v0
q-17 -35 -17 -82q0 -131 93 -131q21 0 37 8zM313 133q-13 -3 -27 -3q-105 0 -105 142q0 35 9 64q-18 -35 -18 -85q0 -131 93 -131q28 0 48 13zM292 112q-13 -3 -27 -3q-105 0 -105 142q0 35 9 65q-18 -36 -18 -86q0 -131 93 -131q28 0 48 13z" />
    <glyph glyph-name="c" unicode="c" horiz-adv-x="564" 
d="M574 -200h-574v394h28q-1 14 -1 30q0 117 57 184q21 20 62 61q49 50 80 67q41 22 103 22q190 0 209 -183h-24q2 -12 2 -21h-23q1 -12 2 -21h-23q1 -12 2 -22h-24q2 -11 3 -21h-132q-9 72 -71 73q-4 -24 -4 -52q0 -89 39 -117h56v4h18q2 9 3 21h18q2 9 3 21h18q2 10 4 21
h131q-3 -36 -15 -67h53v-394zM524 387q-19 160 -195 160q-54 0 -95 -20q34 10 74 10q176 0 204 -150h12zM503 365q-19 161 -195 161q-54 0 -95 -21q34 11 74 11q176 0 204 -151h12zM482 344q-19 160 -195 160q-54 0 -96 -20q35 11 75 11q176 0 204 -151h12zM461 323
q-19 160 -195 160q-54 0 -96 -20q35 11 75 11q176 0 204 -151h12zM523 250h-108l-2 -10h102q-2 -28 -9 -50q14 29 17 60zM502 228h-108l-2 -9h102q-2 -28 -9 -50q14 29 17 59zM481 207h-108l-2 -9h102q-2 -28 -9 -50q14 29 17 59zM460 186h-108l-2 -9h102q-2 -28 -10 -51
q14 29 18 60zM319 170q-85 9 -85 141q0 28 4 51h-5q-9 -30 -9 -72q0 -136 85 -130l9 1zM315 149l-6 -1q-96 -5 -96 142q0 39 7 69l-2 -1q-15 -31 -15 -89q0 -130 85 -130q14 0 25 3zM308 129q-11 -2 -20 -2q-96 0 -96 142q0 45 8 75q-18 -33 -18 -96q0 -130 85 -130
q23 0 39 8zM440 302q-20 160 -195 160q-104 0 -158 -69q-49 -63 -49 -169q0 -105 50 -163q53 -63 155 -63q77 0 132 45.5t64 121.5h-109q-10 -80 -84 -80q-97 0 -97 142q0 148 99 148q71 0 83 -73h109zM291 109q-11 -3 -24 -3q-97 0 -97 142q0 44 9 75q-18 -33 -18 -96
q0 -130 85 -130q29 0 45 12z" />
    <glyph glyph-name="d" unicode="d" horiz-adv-x="597" 
d="M607 -200h-607v394h25q-1 13 -1 28q0 117 54 184l68 68q48 48 71 62q38 23 92 23q17 0 34 -4v66h21v21h21v21h21v21h21v21h131v-511h49v-394zM546 99v595h-107v-10h98v-585h9zM525 78v595h-107v-10h98v-585h9zM343 528v15q-17 4 -34 4q-45 0 -81 -18q28 9 60 9
q29 0 55 -10zM504 57v594h-107v-9h98v-585h9zM343 497v18q-26 11 -55 11q-45 0 -81 -18q28 8 60 8q50 0 76 -19zM483 35v595h-107v-9h98v-586h9zM343 461v22q-31 22 -76 22t-81 -18q28 8 60 8q56 0 97 -34zM343 419v27q-39 38 -97 38q-45 0 -81 -18q28 8 60 8q74 0 118 -55z
M462 14v595h-107v-229q-51 83 -130 83q-96 0 -146 -76q-43 -65 -43 -165q0 -88 45 -151q51 -71 135 -71q53 0 86 23q27 19 57 68v-77h103zM358 226q0 -58 -24 -95q-29 -44 -84 -44q-105 0 -105 143q0 59 23 97q28 45 83 45q56 0 84 -48q23 -38 23 -98zM346 226q0 55 -20 91
q-25 45 -75 43h-5q-5 -22 -5 -45q0 -93 49 -121h54q2 16 2 32zM339 172h-4q-56 -3 -83 44q-22 38 -22 99q0 22 4 44l-3 -1q-11 -30 -11 -64q0 -131 93 -131q12 0 24 2zM332 152q-10 -1 -19 -1q-104 0 -104 143q0 32 8 60h-1q-17 -35 -17 -82q0 -131 93 -131q21 0 38 8z
M319 133q-13 -3 -27 -3q-104 0 -104 142q0 35 8 64q-18 -35 -18 -85q0 -131 93 -131q28 0 48 13zM299 112q-14 -3 -28 -3q-105 0 -105 142q0 35 10 65q-19 -36 -19 -86q0 -131 93 -131q29 0 49 13z" />
    <glyph glyph-name="e" unicode="e" horiz-adv-x="578" 
d="M588 -200h-588v394h28q-1 17 -1 35q0 118 60 182q20 19 59 58q46 49 81 68q42 23 103 23q114 0 170 -75q50 -67 49 -183v-23h-21l-1 -21h-20l-1 -21h-21v-6h59q-3 -21 -9 -37h53v-394zM537 302q1 246 -207 246q-52 0 -94 -20q34 11 73 11q110 0 166 -71q51 -64 53 -177h9
v11zM516 281q1 246 -207 246q-52 0 -94 -20q34 11 72 11q110 0 167 -71q51 -65 52 -177h10v11zM495 260q1 246 -208 246q-51 0 -93 -20q34 11 72 11q110 0 167 -71q51 -65 52 -177h10v11zM530 219h-45v-3h-21v-6h58q-1 -14 -4 -24q9 17 12 33zM474 239q1 246 -208 246
q-51 0 -93 -20q34 11 72 11q110 0 167 -71q51 -65 52 -178h10v12zM509 198h-45v-3h-66l-4 -7h107q-1 -14 -4 -23q9 17 12 33zM488 177h-110l-5 -10h107q-1 -14 -4 -23q9 17 12 33zM467 156h-110l-5 -10h107q-1 -14 -4 -23q9 17 12 33zM384 195zM453 218q1 246 -208 246
q-101 0 -156 -69q-51 -63 -51 -166q0 -104 53 -165q56 -65 158 -65q68 0 123 35q62 38 74 100h-110q-26 -51 -84 -51q-104 0 -107 123h308v12zM361 170q-12 -3 -25 -3q-45 0 -73 28h-23q24 -37 75 -37q18 0 33 6l2 3h5zM340 149q-12 -3 -25 -3q-62 0 -89 49h-18
q21 -58 86 -58q18 0 33 6l2 3h5zM318 128q-11 -3 -24 -3q-76 0 -98 70h-15q15 -79 92 -79q26 0 45 12zM297 107q-12 -3 -24 -3q-88 0 -104 91h-12q7 -100 95 -100q26 0 45 12zM343 272h-196q13 107 98 107q92 0 98 -107zM301 347q-6 6 -13 10h-57q1 3 2 9h-4q-3 -11 -5 -19
h77zM318 326q-3 5 -6 9h-102q2 16 5 27h-1q-8 -16 -11 -36h115zM326 305l-3 9h-134q3 19 7 33q-10 -18 -14 -42h144zM330 284l-1 9h-161q3 20 6 33q-9 -18 -13 -42h169z" />
    <glyph glyph-name="f" unicode="f" horiz-adv-x="406" 
d="M416 -200h-416v394h92v171h-65v94h21v22h21v21h21v21h4q4 38 23 62q24 22 63 63q8 7 21 21q33 43 128 43q12 0 51 -2v-108q-11 1 -21 2v-23q-12 1 -21 2v-23q-12 1 -22 2v-18h67v-95h-21v-21h-22v-21h-21v-21h-13v-192h110v-394zM368 615v84q-27 2 -39 2q-64 0 -96 -18
q30 8 75 8q12 0 51 -3v-72zM347 594v84q-27 2 -39 2q-65 0 -96 -18q30 8 75 8q12 0 51 -3v-73h9zM326 573v83q-27 3 -39 3q-65 0 -97 -19q31 9 76 9q12 0 50 -3v-73h10zM305 552v83q-27 2 -39 2q-65 0 -97 -18q31 9 76 9q12 0 50 -3v-73h10zM371 461v71h-76v-9h67v-62h9z
M350 440v71h-77v8l-10 1v-18h77v-62h10zM329 419v71h-77v30q-5 0 -9 -1l-1 -6v-32h77v-62h10zM308 398v71h-77v45q-10 -7 -10 -22v-33h77v-61h10zM117 586q0 -1 -1 -1zM91 490h-10v-9h10v9zM91 459v10h-31v-10h31zM294 99v266h-10v-266h10zM273 78v287h-10v-287h10zM287 377
v71h-78v6q0 48 7 61q9 17 43 17q10 0 25 -1v83q-27 2 -39 2q-94 0 -121 -40q-21 -30 -21 -128h-64v-71h65v-363h105v363h78zM252 57v308h-10v-308h10zM231 35v330h-10v-330h10z" />
    <glyph glyph-name="g" unicode="g" horiz-adv-x="602" 
d="M612 -200h-612v394h33q-2 18 -2 38q0 102 51 172q6 8 51 53q65 64 77 73q41 29 102 29q62 0 101 -38v6h22v21h125v-354h52v-394zM413 506q-38 41 -101 41q-45 0 -80 -18q28 9 59 9q62 0 101 -38v6h21zM391 485q-37 41 -100 41q-45 0 -81 -18q29 8 60 8q62 0 101 -37v6h20
zM549 116v420h-103v-9h93v-432q0 -56 -12 -96q22 42 22 117zM370 464q-37 41 -100 41q-45 0 -81 -18q29 8 60 8q62 0 101 -37v6h20zM528 95v420h-103v-9h93v-432q0 -56 -12 -96q22 42 22 117zM350 413v29q-38 42 -101 42q-45 0 -81 -18q28 8 60 8q79 0 122 -61zM507 74v420
h-103v-9h93v-432q0 -57 -12 -96q22 42 22 117zM485 53v420h-102v-9h93v-432q0 -57 -12 -96q21 42 21 117zM464 32v420h-102v-82q-27 49 -52 69q-32 24 -82 24q-91 0 -142 -73q-44 -63 -44 -158q0 -94 45 -153q49 -67 140 -67q50 0 80 21q26 18 53 65v-22q0 -86 -12 -115
q-21 -53 -93 -53q-71 0 -84 46h-117q15 -124 194 -124q112 0 164 46t52 156zM344 -8h-5q-40 -2 -63 15q-11 -3 -22 -5q17 -19 64 -19q12 0 25 2zM340 -27q-12 -2 -22 -2q-61 0 -77 30q-12 -1 -17 0q10 -39 73 -39q24 0 42 6zM332 -46q-17 -4 -35 -4q-71 0 -84 46h-117l2 -10
h103q6 -28 27 -38q15 -7 48 -7q48 0 56 13zM172 7q-15 5 -27 10h-28l2 -10h53zM312 -67q-17 -4 -36 -4q-71 0 -84 46h-117l2 -10h103q6 -28 27 -38q15 -7 48 -7q35 0 57 13zM361 235q0 -57 -22 -93q-28 -43 -82 -43q-53 0 -81 41q-24 36 -24 91q0 141 104 141q55 0 82 -43
q23 -36 23 -94zM349 235q0 54 -19 87q-25 41 -74 38h-4q-4 -21 -4 -44q0 -52 21 -85q25 -39 73 -36h4q3 19 3 40zM344 184l-2 -1q-53 -2 -81 40q-24 36 -24 93q0 21 3 43l-4 -1q-9 -28 -9 -63q0 -51 21 -83q24 -38 72 -38q11 0 22 3zM337 164q-9 -2 -17 -2q-53 0 -80 41
q-24 36 -24 92q0 32 7 59h-2q-15 -29 -15 -80t21 -83q24 -38 72 -38q20 0 37 8zM323 144q-12 -3 -24 -3q-53 0 -81 41q-23 36 -23 92q0 37 8 65q-18 -32 -18 -86q0 -51 21 -83q24 -38 72 -38q25 0 45 12zM302 123q-12 -3 -24 -3q-53 0 -81 41q-24 36 -24 92q0 36 9 65
q-18 -32 -18 -87q0 -51 21 -82q24 -38 72 -38q25 0 45 12z" />
    <glyph glyph-name="h" unicode="h" horiz-adv-x="560" 
d="M570 -200h-570v394h31v426h21v21h21v21h21v21h21v21h129v-201l4 3q34 29 55 40q28 14 65 14q58 0 102 -29q49 -32 58 -87q4 -25 4 -87v-163h38v-394zM232 492v200h-105v-9h96v-201q1 1 9 10zM520 99v264q0 55 -4 80q-8 50 -53 79q-41 26 -95 26q-45 0 -72 -17q25 7 51 7
q58 0 102 -28q49 -32 58 -87q4 -25 4 -87v-237h9zM211 471v200h-105v-9h96v-201q1 1 9 10zM499 78v264q0 55 -4 79q-8 51 -54 80q-40 26 -94 26q-45 0 -72 -18q25 8 51 8q58 0 102 -28q49 -32 58 -87q4 -26 4 -88v-236h9zM190 449v201h-105v-9h96v-201q1 0 9 9zM478 57v264
q0 55 -4 79q-8 51 -54 80q-40 26 -94 26q-45 0 -73 -18q26 8 52 8q58 0 102 -28q49 -32 58 -87q4 -26 4 -88v-236h9zM169 428v201h-105v-9h96v-203q4 7 9 11zM457 35v265q0 55 -4 79q-8 51 -54 80q-40 25 -94 25q-45 0 -73 -17q26 8 52 8q58 0 102 -28q48 -32 57 -87
q5 -26 5 -88v-237h9zM316 194v88q0 86 -63 84h-7q-2 -16 -2 -30v-142h72zM436 14v265q0 55 -4 79q-9 51 -54 80q-40 25 -94 25q-49 0 -81 -21q-27 -19 -55 -63v229h-106v-594h106v238q0 125 100 125q80 0 80 -95v-268h108zM234 365l-5 -1q-6 -22 -6 -46v-219h9v237
q0 14 2 29zM216 361l-2 -1q-12 -27 -12 -66v-216h9v237q0 24 5 46zM197 348q-16 -29 -16 -75v-216h9v237q0 30 7 54zM176 327q-16 -29 -16 -75v-217h9v238q0 30 7 54z" />
    <glyph glyph-name="i" unicode="i" horiz-adv-x="293" 
d="M303 -200h-303v394h39v267h21v21h21v21h21v9h-63v114h21v21h21v21h21v21h21v21h131v-113h-21v-22h-21v-21h-21v-9h63v-351h49v-394zM242 608v90h-107v-9h98v-81h9zM221 587v90h-107v-9h98v-81h9zM200 566v90h-108v-9h99v-81h9zM179 545v90h-108v-9h98v-81h10zM158 524v90
h-108v-90h108zM242 99v435h-51v-1h-22v-9h64v-425h9zM221 78v434h-52v0h-55v-9h98v-425h9zM200 57v434h-108v-9h99v-425h9zM179 35v435h-108v-9h98v-426h10zM158 14v435h-108v-435h108z" />
    <glyph glyph-name="j" unicode="j" horiz-adv-x="344" 
d="M354 -200h-354v394h90v268h22v21h21v21h21v9h-64v113h22v21h21v21h21v21h21v21h129v-113h-21v-21h-21v-21h-21v-9h63v-352h50v-394zM292 609v89h-105v-9h96v-80h9zM271 588v89h-105v-9h96v-80h9zM250 567v89h-106v-9h97v-80h9zM229 546v89h-106v-9h97v-80h9zM208 525v89
h-106v-89h106zM292 45v489h-51v0h-21v-9h63v-501q0 -36 -8 -63q17 30 17 84zM271 24v489h-51v0h-54v-9h96v-502q0 -36 -8 -63q17 31 17 85zM250 2v490h-106v-9h97v-502q0 -36 -8 -63q17 31 17 84zM229 -19v490h-106v-9h97v-502q0 -36 -8 -63q17 31 17 84zM208 -40v490h-106
v-488q0 -30 -13 -39t-43 -7v-82q34 -1 36 -1q70 0 98 28.5t28 98.5zM90 -42h-2v-10l2 1v9zM86 -63q-6 -1 -19 0v-10q13 2 19 10z" />
    <glyph glyph-name="k" unicode="k" horiz-adv-x="547" 
d="M557 -200h-557v394h26v426h21v21h21v21h21v21h22v21h127v-315l158 157h158l-180 -179l103 -173h80v-394zM526 534h-128l-10 -9h128zM504 513h-128l-9 -9h129zM484 492h-129l-9 -9h129zM463 471h-129l-9 -9h128zM226 376v316h-104v-9h95v-316zM520 99l-154 259l-13 -12
l147 -247h20zM205 355v316h-104v-9h94v-317zM498 78l-153 259l-13 -12l146 -247h20zM184 333v317h-104v-9h94v-318zM477 57l-154 259l-12 -12l146 -247h20zM163 311v318h-104v-9h94v-319zM442 450h-129l-171 -178v336h-104v-594h104v138l55 58l110 -196h128l-160 271z
M456 35l-154 260l-12 -12l146 -248h20zM226 99v36l-9 17v-53h9zM205 78v95l-10 17v-112h10zM184 57v121l-10 -9v-112h10zM163 35v122l-10 -10v-112h10z" />
    <glyph glyph-name="l" unicode="l" horiz-adv-x="292" 
d="M312 -200h-312v394h38v428h22v21h21v21h21v21h21v21h129v-512h60v-394zM240 99v596h-105v-10h96v-586h9zM219 78v595h-106v-9h97v-586h9zM198 57v595h-106v-9h97v-586h9zM177 35v596h-106v-9h97v-587h9zM156 14v596h-106v-596h106z" />
    <glyph glyph-name="m" unicode="m" horiz-adv-x="815" 
d="M835 -200h-835v394h37v269h21v21h21v21h21v21h21v21h126v-47q32 32 55 44q27 14 69 14q87 0 121 -67q35 37 62 50q31 17 77 17q54 0 93.5 -31t49.5 -84q4 -22 4 -67l-1 -182h58v-394zM766 99v277q0 44 -4 65q-9 48 -45 76.5t-86 28.5q-54 0 -78 -18q28 9 57 9
q54 0 93 -31.5t49 -83.5q5 -22 5 -67v-256h9zM745 78v277q0 44 -4 65q-9 48 -45 76.5t-86 28.5q-54 0 -78 -18q28 9 57 9q54 0 93 -31.5t49 -83.5q5 -22 5 -67v-256h9zM484 482q-31 64 -113 64q-41 0 -70 -16q22 7 49 7q87 0 121 -67q6 6 13 12zM724 57v277q0 44 -4 65
q-9 48 -45.5 76.5t-85.5 28.5q-54 0 -78 -18q27 9 57 9q54 0 93 -31.5t49 -83.5q4 -22 4 -67l1 -256h9zM463 460q-31 65 -113 65q-41 0 -70 -16q22 7 49 7q87 0 121 -67q6 6 13 11zM703 35v278q0 44 -4 65q-9 48 -45.5 76.5t-85.5 28.5q-55 0 -79 -18q28 8 58 8q54 0 93 -31
t49 -83q4 -22 4 -67l1 -257h9zM442 439q-31 65 -113 65q-41 0 -70 -16q22 7 49 7q86 0 121 -67q6 6 13 11zM560 194v100q0 60 -46 67v-1v-166h46zM421 418q-31 65 -113 65q-41 0 -70 -16q22 6 49 6q88 0 123 -70q5 8 11 15zM502 362h-2h-5q-2 -12 -2 -21v-242h9v263z
M483 360l-5 -1q-6 -18 -6 -39v-242h9v261q0 10 2 21zM236 487v48h-103v-9h93v-47zM464 354v-1q-13 -21 -13 -54v-242h9v261q0 19 4 36zM214 466v48h-102v-9h93v-48q4 5 9 9zM443 334q-13 -22 -13 -56v-243h9v262q0 20 4 37zM193 445v48h-102v-9h93v-48q4 5 9 9zM682 14v278
q0 44 -4 65q-10 48 -46 76.5t-85 28.5q-90 0 -139 -84q-18 46 -45 65t-76 19q-52 0 -82 -24q-22 -17 -54 -67v80h-102v-437h107v265q0 93 83 93q72 0 72 -96v-262h107v262q0 98 82 98q72 0 72 -80v-280h110zM172 423v49h-102v-9h93v-52zM300 276q0 77 -48 84v-166h48v82z
M241 99v262h-2l-7 -1q-1 -9 -1 -15v-246h10zM220 359l-6 -1q-4 -15 -4 -35v-245h9v264q0 8 1 17zM201 354l-3 -2q-9 -17 -9 -52v-243h9v264q0 18 3 33zM181 338q-13 -17 -13 -56v-247h9v265q0 22 4 38z" />
    <glyph glyph-name="n" unicode="n" horiz-adv-x="578" 
d="M588 -200h-588v394h37v269h21v21h21v21h21v21h21v21h126v-49q34 35 56 46q29 15 72 15q165 0 165 -164v-201h48v-394zM528 99v296q0 152 -153 152q-41 0 -72 -16q23 7 51 7q164 0 164 -164v-275h10zM507 78v296q0 152 -153 152q-42 0 -72 -16q23 6 51 6q164 0 164 -163
v-275h10zM235 486v49h-102v-9h92v-49q5 4 10 9zM486 57v296q0 152 -153 152q-42 0 -73 -16q24 6 52 6q164 0 164 -163v-275h10zM214 464v50h-102v-9h92v-49zM465 35v297q0 152 -153 152q-42 0 -73 -17q24 7 52 7q164 0 164 -163v-276h10zM193 443v50h-102v-9h92v-49z
M323 194v88q0 85 -64 83h-7q-2 -15 -2 -29v-142h73zM171 422v50h-101v-9h92v-53zM443 14v297q0 152 -152 152q-53 0 -84 -24q-24 -17 -57 -67v79h-101v-437h105v238q0 125 100 125q81 0 81 -95v-268h108zM240 364l-5 -1q-6 -21 -6 -45v-219h10v237q0 14 1 28zM222 360l-3 -1
q-11 -26 -11 -65v-216h9v237q0 24 5 45zM203 348q-16 -27 -16 -72v-219h9v237q0 30 7 54zM182 327q-16 -27 -16 -72v-220h9v238q0 30 7 54z" />
    <glyph glyph-name="o" unicode="o" horiz-adv-x="609" 
d="M619 -200h-619v394h28q-2 19 -2 38q0 102 58 172q1 2 45 46q68 69 93 84q47 28 123 28q110 0 173 -67.5t63 -177.5q0 -68 -27 -123h65v-394zM569 317q0 105 -59.5 169.5t-164.5 64.5q-63 0 -108 -23q39 13 87 13q110 0 173 -67.5t63 -177.5q0 -49 -14 -92q23 51 23 113z
M548 296q0 105 -59.5 169.5t-164.5 64.5q-63 0 -108 -23q39 13 87 13q110 0 173 -67.5t63 -178.5q0 -48 -14 -91q23 51 23 113zM527 274q0 106 -59.5 170t-164.5 64q-63 0 -109 -22q40 13 88 13q109 0 172.5 -67.5t63.5 -178.5q0 -48 -15 -91q24 51 24 112zM506 253
q0 106 -59.5 170t-164.5 64q-63 0 -109 -22q40 13 88 13q109 0 172 -67.5t63 -178.5q0 -49 -14 -91q24 51 24 112zM485 232q0 106 -60 170t-164 64t-164 -64t-60 -170t59.5 -169.5t164.5 -63.5t164.5 63.5t59.5 169.5zM373 232q0 -147 -112 -147q-113 0 -113 147t113 147
q112 0 112 -147zM361 232q0 139 -100 135l-12 -1q-5 -23 -5 -49q0 -94 52 -124l62 1q3 21 3 38zM354 170h-9q-59 -4 -89 43q-24 40 -24 104q0 25 4 48l-3 -1q-10 -30 -10 -68q0 -136 101 -136q15 0 28 4zM347 151q-13 -2 -23 -2q-113 0 -113 147q0 35 8 63h-1
q-17 -33 -17 -85q0 -135 102 -135q23 0 42 9zM333 131q-15 -3 -30 -3q-113 0 -113 146q0 37 8 66q-18 -34 -18 -87q0 -135 102 -135q30 0 51 13zM312 110q-15 -3 -30 -3q-113 0 -113 146q0 37 8 66q-18 -33 -18 -87q0 -135 102 -135q30 0 51 13z" />
    <glyph glyph-name="p" unicode="p" horiz-adv-x="581" 
d="M601 -200h-601v394h24v270h22v21h21v21h21v21h21v21h124v-51q37 34 57 45q29 16 71 16q95 0 147 -72q47 -64 47 -163q0 -74 -22 -129h68v-394zM543 323q0 94 -43 154q-49 69 -139 69q-39 0 -70 -16q23 7 49 7q95 0 147 -72q47 -64 47 -163q0 -65 -17 -115q26 55 26 136z
M522 302q0 94 -43 154q-49 69 -139 69q-39 0 -70 -16q23 7 49 7q95 0 147 -72q46 -64 46 -163q0 -65 -16 -115q26 55 26 136zM501 281q0 94 -43 154q-49 69 -139 69q-39 0 -70 -16q23 7 48 7q96 0 148 -73q46 -63 46 -162q0 -65 -16 -115q26 55 26 136zM221 485v51h-100v-9
h91v-51zM480 260q0 94 -43 154q-49 69 -140 69q-38 0 -70 -17q24 7 49 7q96 0 148 -72q46 -64 46 -162q0 -65 -17 -115q27 54 27 136zM200 464v51h-101v-9h92v-51q3 2 9 9zM179 443v51h-101v-9h92v-51q3 2 9 9zM158 421v52h-101v-9h92v-54zM458 239q0 94 -42 154
q-49 69 -140 69q-49 0 -83 -24q-26 -19 -56 -66v80h-101v-615h105v248q29 -45 53 -62q31 -21 79 -21q95 0 144 74q41 63 41 163zM225 -78v74l-9 3v-77h9zM204 -99v103l-9 5v-108h9zM183 -120v136q-3 3 -9 8v-144h9zM162 -141v177l-10 11v-188h10zM349 233q0 -60 -23 -98
q-28 -47 -83 -47t-83 42q-23 35 -23 93q0 148 106 148q54 0 82 -44q24 -36 24 -94zM337 233q0 53 -21 88q-25 41 -73 38h-6q-4 -24 -4 -52q0 -87 51 -113h50q3 20 3 39zM330 173h-3q-55 -3 -83 40q-23 36 -23 94q0 27 4 51l-4 -1q-9 -32 -9 -71q0 -123 94 -123q10 0 21 3z
M322 153q-8 -1 -16 -1q-55 0 -83 41q-23 35 -23 93q0 37 8 67l-2 -1q-15 -31 -15 -87q0 -123 94 -123q19 0 35 7zM310 133q-12 -2 -25 -2q-55 0 -83 41q-23 35 -23 93q0 41 9 72q-19 -33 -19 -93q0 -123 95 -123q26 0 46 12zM289 112q-12 -3 -25 -3q-55 0 -83 42
q-23 35 -23 93q0 41 9 72q-19 -33 -19 -93q0 -123 95 -123q27 0 46 12z" />
    <glyph glyph-name="q" unicode="q" horiz-adv-x="600" 
d="M620 -200h-620v394h28q-2 14 -2 29q0 90 31 143q19 33 94 109q47 47 69 61q37 24 88 24q68 0 105 -39v5h21v21h125v-353h61v-394zM411 505q-36 43 -103 43q-40 0 -73 -17q25 7 52 7q67 0 104 -38v5h20zM390 484q-36 43 -103 43q-40 0 -73 -17q25 7 51 7q68 0 105 -38v5
h20zM369 463q-36 43 -104 43q-39 0 -73 -18q26 8 52 8q68 0 105 -38v5h20zM547 -79v614h-102v-9h93v-605h9zM349 410v30q-36 44 -105 44q-39 0 -73 -17q26 8 52 8q82 0 126 -65zM526 -100v614h-102v-9h92v-605h10zM505 -122v615h-102v-9h92v-606h10zM484 -143v615h-102v-9
h92v-606h10zM463 -164v615h-102v-82q-30 52 -54 70q-31 24 -84 24q-90 0 -141 -78q-44 -67 -44 -162q0 -89 45 -152q51 -71 137 -71q95 0 127 67l11 -3v-228h105zM361 233q0 -144 -108 -144q-104 0 -104 139q0 144 104 144q55 0 84 -44q24 -36 24 -95zM350 233q0 54 -22 88
q-25 41 -75 39h-4q-4 -22 -4 -48q0 -92 47 -118h55q3 18 3 39zM342 174q-57 -5 -85 41q-24 37 -24 97q0 25 4 47l-4 -1q-9 -29 -9 -67q0 -127 92 -127q12 0 25 3zM336 154q-13 -2 -24 -2q-51 0 -78 43q-22 36 -22 96q0 35 8 63l-2 -1q-15 -32 -15 -83q0 -127 92 -127
q22 0 39 8zM324 135q-14 -4 -29 -4q-104 0 -104 139q0 38 8 67q-17 -33 -17 -88q0 -127 92 -127q29 0 50 13zM303 114q-14 -4 -29 -4q-104 0 -104 139q0 38 8 67q-17 -33 -17 -88q0 -127 92 -127q29 0 50 13z" />
    <glyph glyph-name="r" unicode="r" horiz-adv-x="409" 
d="M429 -200h-429v394h26v258h21v21h21v21h21v21h22v21h123v-56q57 67 128 67l21 -1v-133l-21 2v-23l-21 2v-23l-21 2v-23l-21 2v-23q-25 3 -40 3q-8 0 -16 -1q-2 -16 -2 -137h188v-394zM371 426v109h-16q-31 0 -59 -15q21 6 45 6q-1 0 21 -1v-98zM350 405v109h-16
q-31 0 -59 -15q21 6 44 6l22 -1v-98zM329 384v109h-16q-32 0 -59 -15q21 6 44 6l22 -1v-98zM308 363v108q-13 1 -16 1q-32 0 -60 -15q21 6 45 6l22 -2v-97zM223 469v56h-101v-10h91v-56zM202 448v55h-101v-9h91v-56zM180 427v55h-100v-9h91v-56q5 5 9 10zM159 402v59h-100
v-9h91v-64zM231 329l-6 -1q-5 -22 -5 -47l-1 -194h10v209q0 18 2 33zM212 325l-4 -2q-10 -25 -10 -65v-192h10v209q0 28 4 50zM287 342v108q-14 1 -19 1q-48 0 -80 -32q-16 -16 -50 -72v93h-100v-437h106v208q0 69 27 100.5t87 31.5q14 0 29 -1zM193 314q-16 -23 -16 -77
v-192h10v209q0 36 6 60zM172 293q-16 -23 -16 -77v-192h10v209q0 36 6 60z" />
    <glyph glyph-name="s" unicode="s" horiz-adv-x="562" 
d="M582 -200h-582v394h90v15v0q-50 32 -50 98q0 77 135 196q53 46 142 46q190 0 204 -161h-24l3 -21h-24l3 -22h-24l2 -12q76 -39 76 -116q0 -11 -2 -23h51v-394zM508 399q-17 138 -191 138q-58 0 -99 -20q35 11 78 11q173 0 199 -129h13zM487 378q-17 138 -191 138
q-58 0 -99 -20q35 11 78 11q173 0 199 -129h13zM466 357q-17 138 -191 138q-58 0 -99 -20q35 11 77 11q174 0 200 -129h13zM521 217q0 72 -73 107h-14l2 -12q76 -39 76 -116q0 -22 -6 -43q15 29 15 64zM445 336q-17 138 -192 138q-57 0 -98 -20q34 11 77 11q173 0 200 -129
h13zM500 196q0 72 -73 107h-41q105 -38 105 -128q0 -22 -6 -43q15 29 15 64zM304 325q-3 9 -8 16q-30 7 -33 8q-18 6 -30 14q-10 0 -20 -1q5 -17 91 -37zM479 175q0 63 -56 98q-48 30 -116 30l-1 9q-52 12 -59 14q-40 13 -45 34l-11 -3l-1 -7q0 -25 73 -42q102 -23 134 -40
q73 -38 73 -114q0 -22 -6 -43q15 29 15 64zM458 154q0 72 -72 107q-22 10 -134 37q-73 18 -73 50q-10 -8 -10 -19q0 -25 72 -42q103 -23 135 -40q72 -38 72 -114q0 -23 -6 -44q16 30 16 65zM437 133q0 73 -73 107q-20 9 -134 38q-73 18 -73 51q0 46 77 46q75 0 84 -60h106
q-17 138 -192 138q-73 0 -123 -35q-57 -40 -57 -111q0 -70 72 -103q13 -6 134 -36q72 -19 72 -55q0 -47 -82 -47q-92 0 -101 68h-108q2 -78 65 -116q52 -31 135 -31q84 0 135 31q63 37 63 115zM297 142q-16 6 -58 17q19 -15 58 -17zM317 122l-4 8l-11 -1q-60 -1 -82 35
l-18 5q11 -49 89 -49q13 0 26 2zM318 111q-14 -3 -27 -3q-90 0 -101 64q-20 4 -19 4h-90l1 -9h96q5 -42 29 -57q18 -11 63 -11q28 0 47 8zM134 188l-22 10h-10l1 -10h31zM306 91q-16 -4 -36 -4q-45 0 -67 12q-29 15 -35 56h-108v-9h97q4 -42 29 -57q18 -11 62 -11
q39 0 58 13z" />
    <glyph glyph-name="t" unicode="t" horiz-adv-x="408" 
d="M428 -200h-428v394h93v158h-63v96h21v21h21v21h21v83h21v21h21v21h21v21h21v21h128v-125h73v-95h-21v-21h-21v-21h-21v-22h-10v-179h123v-394zM366 448v72h-73v126h-104v-10h95v-125h73v-63h9zM345 427v72h-73v126h-104v-10h95v-125h73v-63h9zM324 406v72h-73v126h-104
v-10h95v-125h73v-63h9zM303 385v72h-73v125h-104v-9h95v-125h73v-63h9zM93 469v9h-9v-9h9zM366 83v76q-24 -1 -30 -1q-27 0 -35 10t-8 37v147h-9v-170q0 -20 5 -28q13 -9 68 -4v-68zM93 448v9h-30v-9h30zM345 62v76q-25 -1 -30 -1q-28 0 -35.5 10t-7.5 37v168h-9v-191
q0 -21 5 -28q13 -9 68 -4v-68zM324 40v76h-30q-28 0 -35.5 10t-7.5 37v189h-9v-212q0 -21 5 -28q13 -9 68 -4v-68h9zM303 19v76h-30q-28 0 -35.5 10t-7.5 37v210h-9v-233q0 -21 5 -28q13 -9 68 -4v-68h9zM282 -2v76q-25 -1 -30 -1q-28 0 -36 12q-7 9 -7 36v243h73v72h-73
v125h-105v-125h-62v-72h62v-282q0 -86 114 -86q8 0 64 2z" />
    <glyph glyph-name="u" unicode="u" horiz-adv-x="582" 
d="M602 -200h-602v394h36v258h21v21h21v21h21v21h21v21h132v-276q0 -45 15 -66h55v258h21v21h21v21h22v21h21v21h131v-342h64v-394zM526 87v438h-108v-10h98v-428h10zM505 66v437h-108v-9h98v-428h10zM484 45v437h-108v-9h98v-428h10zM462 24v437h-107v-9h98v-428h9z
M319 162h-6q-72 -2 -72 98v265h-109v-10h99v-277q0 -86 66 -86q10 0 20 2zM314 142q-9 -1 -17 -1q-78 0 -78 97v265h-108v-9h99v-277q0 -86 66 -86q20 0 36 7zM305 123q-14 -3 -29 -3q-78 0 -78 97v265h-108v-9h99v-277q0 -86 66 -86q30 0 50 13zM441 3v437h-107v-238
q0 -125 -100 -125q-78 0 -78 98v265h-108v-265q0 -88 28 -131q35 -51 119 -51q52 0 84 21q21 14 60 63v-74h102zM284 102q-14 -3 -29 -3q-78 0 -78 97v265h-108v-9h99v-277q0 -86 66 -86q30 0 50 13z" />
    <glyph glyph-name="v" unicode="v" horiz-adv-x="487" 
d="M507 -200h-507v394h84l-59 258h26l-5 21h26l-4 21h25l-4 21h26l-5 21h135l22 -118l6 34h17l4 21h17l4 21h17l4 21h17l4 21h130l-78 -342h98v-394zM473 525h-106l-2 -10h101l-98 -428h4zM451 503h-105l-2 -9h101l-98 -428h4zM430 482h-105l-2 -9h101l-98 -428h4zM261 386
l-25 139h-112l3 -10h97l30 -164zM409 461h-105l-2 -9h101l-98 -428h4zM248 318l-33 185h-112l2 -9h98l38 -211zM235 250l-42 232h-111l2 -9h98l47 -258zM223 182l-51 279h-111l2 -9h98l55 -305zM388 440h-105l-61 -326h-12l-59 326h-111l99 -437h149z" />
    <glyph glyph-name="w" unicode="w" horiz-adv-x="735" 
d="M755 -200h-755v394h87l-63 258h26l-5 21h27l-6 21h27l-5 21h26l-5 21h121l30 -138l11 54h17l4 21h17l4 21h17l4 21h17l4 21h129l31 -147l14 63h16l5 21h16l5 21h16l5 21h16l5 21h126l-86 -342h102v-394zM724 525h-102l-2 -10h98l-108 -428h4zM703 503h-102l-2 -9h98
l-108 -428h4zM682 482h-102l-2 -9h98l-108 -428h4zM509 361l-35 164h-109l-2 -10h100l39 -185zM661 461h-102l-2 -9h98l-108 -428h3zM496 302l-43 201h-109l-2 -9h100l47 -224zM483 242l-51 240h-109l-2 -9h100l55 -263zM470 182l-59 279h-109l-2 -9h100l63 -302zM254 369
l-33 156h-97l2 -10h83l39 -178zM242 308l-42 195h-98l3 -9h83l47 -219zM640 440h-102l-69 -319h-11l-68 319h-109l-64 -317l-12 -1l-69 318h-97l107 -437h112l71 322h11l69 -322h120zM230 247l-52 235h-97l3 -9h83l56 -259zM361 172l-2 10l-21 -95h5zM353 210l-2 10
l-34 -154h5zM345 248l-3 10l-46 -213h4zM336 286l-2 10l-59 -272h4zM217 185l-60 276h-97l3 -9h83l65 -300z" />
    <glyph glyph-name="x" unicode="x" horiz-adv-x="593" 
d="M593 -200h-593v394h160l20 30l-151 227h36l-15 21h36l-14 21h35l-14 21h35l-14 21h149l65 -100l10 16h8l13 21h8l13 21h8l13 21h8l13 21h146l-152 -224l78 -117h99v-394zM546 524h-117l-6 -10h116zM525 503h-117l-6 -10h116zM503 482h-117l-5 -10h116zM482 460h-117
l-6 -9h117zM321 424l-64 100h-121l6 -10h100l69 -106zM551 87l-145 218l-11 -15l135 -203h21zM304 397l-68 106h-121l6 -10h100l72 -113zM530 66l-145 218l-11 -16l135 -202h21zM287 369l-72 113h-122l7 -10h100l76 -119zM509 45l-146 218l-10 -16l135 -202h21zM269 342
l-75 118h-122l7 -9h100l80 -125zM488 24l-146 218l-10 -16l135 -202h21zM467 3l-149 223l143 213h-117l-85 -135l-86 135h-122l143 -215l-149 -221h120l89 139l89 -139h124z" />
    <glyph glyph-name="y" unicode="y" horiz-adv-x="519" 
d="M539 -200h-539v394h101l-81 258h27l-6 21h27l-6 21h28l-7 21h28l-7 21h135l34 -148l12 64h17l4 21h17l4 21h17l5 21h16l5 21h128l-86 -342h127v-394zM483 525h-104l-2 -10h100l-114 -449q-10 -41 -35 -122q17 36 45 146zM268 359l-38 166h-110l3 -10h95l44 -189zM462 503
h-104l-2 -9h100l-114 -449q-10 -41 -35 -123q18 38 45 147zM256 297l-48 206h-109l3 -9h95l53 -230zM441 482h-104l-2 -9h100l-114 -449q-10 -41 -35 -123q17 36 45 147zM420 461h-104l-2 -9h100q-40 -149 -114 -449q-15 -67 -35 -123q17 38 45 147zM245 235l-58 247h-109
l3 -9h95q1 -5 63 -265zM234 180l-68 281h-109l3 -9h94q1 -4 75 -298zM399 440h-104l-60 -314h-11l-79 314h-109l145 -463q0 -80 -100 -73v-82q21 -1 48 -1q82 0 107 28q18 21 53 157zM169 -21l-3 10h-1v-10h4zM168 -33q-9 0 -24 1v-10q7 0 22 1zM161 -53q-18 -2 -38 0v-10
q23 0 36 5zM148 -73q-6 0 -21.5 -1t-24.5 -1v-9q33 0 46 11z" />
    <glyph glyph-name="z" unicode="z" horiz-adv-x="555" 
d="M575 -200h-575v394h128l132 150h-208v108h21v21h21v21h21v21h22v21h376v-106l-212 -236h274v-394zM501 435v90h-353v-10h344v-91zM480 414v89h-353v-9h343v-91zM459 393v89h-353v-9h343v-91zM438 372v89h-353v-9h343v-91zM509 87v85h-230l-8 -10h228v-75h10zM488 66v85
h-230l-8 -10h228v-75h10zM424 3v84h-243l235 264v89h-352v-84h222l-238 -270v-83h376zM467 45v85h-230l-8 -10h228v-75h10zM445 24v84h-229l-8 -9h228v-75h9z" />
    <glyph glyph-name="braceleft" unicode="{" horiz-adv-x="495" 
d="M515 -200h-515l395 394h120v-394z" />
    <glyph glyph-name="bar" unicode="|" horiz-adv-x="843" 
d="M913 -200h-863v394h73q-23 58 -23 122q0 83 35 148q28 51 95 118q80 80 125 107q68 41 159 41q136 0 232.5 -96.5t96.5 -233.5q0 -116 -72 -206h142v-394zM832 400q0 132 -93 225t-225 93q-68 0 -130 -28q53 19 109 19q136 0 232.5 -96.5t96.5 -233.5q0 -55 -18 -108
q28 62 28 129zM811 379q0 132 -93.5 225t-224.5 93q-68 0 -130 -28q53 19 109 19q136 0 232.5 -96.5t96.5 -233.5q0 -55 -18 -108q28 62 28 129zM790 358q0 132 -93.5 225t-224.5 93q-68 0 -130 -28q53 19 109 19q136 0 232.5 -96.5t96.5 -233.5q0 -55 -18 -108
q28 62 28 129zM769 337q0 132 -93.5 225t-224.5 93q-68 0 -130 -28q53 19 109 19q136 0 232.5 -96.5t96.5 -233.5q0 -55 -18 -108q28 62 28 129zM748 316q0 132 -93.5 225t-224.5 93q-132 0 -225 -93t-93 -225t93 -225t225 -93q131 0 224.5 93t93.5 225zM678 316
q0 -80 -50 -148l-163 164v229q92 -14 152.5 -83t60.5 -162zM579 119q-51 -38 -114 -48v162zM395 332l-164 -164q-49 68 -49 148q0 94 60 162.5t153 83.5v-230zM395 71q-63 10 -115 48l115 114v-162zM666 316q2 58 -27 112q-28 51 -78 85v-92l105 -105v0zM665 300l-116 116
v104l-9 5v-125l122 -123q2 12 3 23zM660 263l-132 132v136l-9 4v-156l135 -136q4 11 6 20zM650 231l-143 143v165l-9 3v-184l144 -145zM636 203l-150 150v192l-9 2v-210l150 -150q5 8 9 16zM383 337v210q-39 -7 -73 -27q-32 -55 -32 -120q0 -70 39 -129zM546 135l-2 2
l-16 -3v19l-9 10v-36q12 3 27 8zM551 124q-19 -7 -44 -11v61l-9 10v-78q28 6 53 18zM530 103q-19 -7 -44 -11v103l-9 10v-120q28 6 53 18zM308 262q-42 63 -42 138q0 40 13 79q-22 -47 -22 -100q0 -70 39 -129zM287 241q-42 63 -42 138q0 40 13 79q-22 -47 -22 -100
q0 -70 39 -129zM266 220q-42 63 -42 138q0 40 13 79q-22 -48 -22 -100q0 -70 39 -129zM383 171v19l-9 6l-12 -13q8 -6 21 -12zM245 199q-42 63 -42 138q0 41 13 79q-23 -48 -23 -100q0 -70 40 -129zM383 140v18q-17 8 -30 17l-13 -13q20 -13 43 -22zM383 112v15
q-28 11 -51 27l-13 -13q29 -19 64 -29zM383 85v14q-39 11 -72 34l-13 -13q39 -26 85 -35z" />
    <glyph glyph-name="braceright" unicode="}" horiz-adv-x="415" 
d="M415 194l-395 -394h-20v394h415z" />
    <glyph glyph-name="asciitilde" unicode="~" horiz-adv-x="615" 
d="M635 -200h-415l395 394h20v-394zM415 194l-395 -394h-20v394h415z" />
    <glyph glyph-name="exclamdown" unicode="&#xa1;" horiz-adv-x="294" 
d="M314 -200h-314v394h59l12 102h18l3 21h19l1 17h-72v130h21v21h21v22h21v21h22v21h134v-131h-21v-21h-21v-16h11l22 -187h64v-394zM247 430v107h-111v-9h102v-98h9zM226 409v107h-111v-9h102v-98h9zM205 387v108h-111v-10h102v-98h9zM184 366v108h-111v-10h102v-98h9z
M163 345v108h-111v-108h111zM251 -57v148l-12 93l-22 185h-21v-9h10l12 -97q25 -209 25 -267q0 -28 -2 -53h10zM230 -78v148l-12 93l-22 185h-21v-10h10l12 -96q25 -209 25 -267q0 -28 -2 -53h10zM208 -99v148l-11 93l-22 185h-52l-1 -10h42l12 -96q25 -209 25 -267
q0 -28 -2 -53h9zM187 -120v148l-11 93l-22 185h-52l-1 -10h42l12 -96q25 -209 25 -268q0 -27 -2 -52h9zM166 -141v148l-11 92l-22 186h-52l-21 -186l-11 -92v-148h117z" />
    <glyph glyph-name="cent" unicode="&#xa2;" horiz-adv-x="552" 
d="M572 -200h-572v394h19q-2 16 -2 32q0 84 31 137q20 35 91 105q54 54 74 67q38 23 97 24l2 7h16l5 21h16l6 21h15l6 21h56l-25 -85q109 -41 122 -169h-24l3 -21h-24l3 -21h-24l3 -21h-24l3 -21h-109l-27 -97h24v4h17l4 21h17l4 21h17l4 22h132q-3 -39 -14 -68h58v-394z
M516 387q-15 113 -124 149l24 81h-31l-3 -9h29l-25 -86q96 -35 117 -135h13zM495 366q-15 113 -124 149l24 81h-32l-2 -9h28l-25 -86q97 -35 118 -135h13zM474 345q-15 113 -124 149l24 81h-32l-2 -9h28l-25 -86q97 -35 118 -135h13zM453 324q-16 113 -124 149l24 81h-32
l-2 -9h28l-25 -86q96 -35 118 -135h13zM307 547q-43 -1 -78 -19q28 9 60 10l2 7h16v2zM286 526q-43 -2 -78 -19q31 10 75 9zM280 505h-9q-45 0 -84 -19q50 16 90 8zM274 483q-8 1 -16 1h-12q-42 0 -80 -19q30 10 65 10q20 0 40 -4zM515 250h-109l-2 -10h103q-3 -34 -12 -60
q15 31 20 70zM494 229h-109l-2 -10h103q-3 -34 -12 -60q15 31 20 70zM473 208h-109l-2 -10h103q-3 -34 -12 -60q15 31 20 70zM452 186h-109l-2 -9h102q-3 -34 -11 -61q15 32 20 70zM324 291h-3l-36 -130q7 -1 15 -1h9l2 10q-2 0 -19 3zM311 300l-1 6l-46 -166q7 -1 15 -1
q13 0 25 4l2 5h-9q-4 0 -27 4zM303 325l-2 4l-58 -210q7 -2 15 -2q20 0 38 12q-9 -2 -17 -2t-30 4zM292 342l-2 3l-68 -247q7 -2 15 -2q20 0 38 12q-9 -2 -17 -2t-30 4zM432 302q-16 114 -124 150l24 81h-32l-21 -76q-24 6 -50 6q-96 0 -151 -73q-49 -65 -49 -164
q0 -73 28 -129q33 -63 96 -86l-29 -98h33l25 88q30 -4 44 -4q185 0 204 168h-108q-14 -80 -85 -80q-10 0 -30 4l76 276q31 -20 40 -63h109zM223 -14h-3l-2 -9h3zM208 -14l-3 1l-9 -31h4zM193 -12h-3l-15 -54h3zM255 373l-75 -269q-40 37 -40 124q0 54 20 95q25 52 73 52
q9 0 22 -2zM230 363l-3 -1q-12 -35 -12 -66l1 -21q3 27 14 88zM213 360v0q-19 -39 -19 -90q0 -32 5 -55l8 28q-3 21 -3 48q0 37 9 69zM193 193q-11 28 -11 77q0 38 10 69q-19 -39 -19 -90q0 -50 13 -81zM181 150q-20 37 -20 99q0 38 11 70q-20 -39 -20 -91q0 -66 23 -101z
" />
    <glyph glyph-name="sterling" unicode="&#xa3;" horiz-adv-x="568" 
d="M568 -200h-568v394h118v8q2 23 -17 71h-75v58h21v21h13q-24 53 -24 99q0 45 24 82q13 19 58 63q19 20 57 58q55 51 154 51t152.5 -53.5t56.5 -153.5h-23q1 -13 2 -21h-23q1 -13 2 -21h-23q1 -13 2 -21h-23q1 -13 1 -21h-42v-57h-21v-21h-21v-21h-21v-21h-21v-21h-20
q-11 -33 -58 -79h3q5 0 30 6t39 6q13 0 38.5 -6t29.5 -6h78q17 7 46 24l9 -24h46v-394zM525 510q-4 89 -55 136.5t-141 47.5q-62 0 -106 -22q38 12 84 12q88 0 143 -44.5t65 -129.5h10zM504 489q-4 89 -55 136.5t-142 47.5q-61 0 -105 -22q38 12 84 12q88 0 143 -45t64 -129
h11zM483 467q-4 90 -55.5 137t-141.5 47q-61 0 -105 -21q38 12 84 12q87 0 142.5 -45t64.5 -130h11zM462 446q-4 89 -55.5 136.5t-141.5 47.5q-61 0 -105 -21q37 12 84 12q87 0 142.5 -45t64.5 -130h11zM400 369v35h-116l-26 54q-16 36 -18 56h-10l-1 -9q-1 -20 15 -56
q13 -28 26 -55h120v-25h10zM330 415q-9 95 -78 99q2 -21 39 -99h39zM379 348v34h-116q-48 102 -45 129l-5 -1q-5 -12 -5 -26q0 -24 41 -111h120v-25h10zM358 327v34h-117q-44 95 -44 125q0 9 1 16q-11 -18 -11 -39q0 -25 41 -111h120v-25h10zM537 120l-30 81l-13 -8l29 -81
q8 4 14 8zM336 306v34h-116q-44 95 -44 125q0 8 1 16q-11 -18 -11 -39q0 -25 41 -111h120v-25h9zM516 99l-30 81l-14 -8l30 -81q9 4 14 8zM495 78l-30 80l-14 -7l30 -81q9 4 14 8zM295 273h-3q-2 -8 -3 -14q3 6 6 14zM453 35l-30 81q-49 -27 -79 -27q-9 0 -50 11
q-33 10 -58 10q-35 0 -95 -22l-6 10q43 40 57 58q26 35 26 75q0 10 -4 54h101v34h-116q-45 95 -45 123q0 37 26 60.5t63 23.5q85 0 98 -101h100q-5 89 -56 136.5t-141 47.5q-78 0 -134 -39q-62 -44 -62 -119q0 -52 40 -132h-50v-34h71q21 -54 21 -83q0 -33 -31 -71
q-26 -32 -60 -52l39 -73q62 29 89 29q29 0 82 -18t82 -18q63 0 122 36zM474 56l-30 81l-14 -7l30 -81zM280 273h-8q2 -13 -4 -35q8 16 12 35zM460 179q-17 -5 -31 -5q-10 0 -26.5 5.5t-24.5 5.5q-29 9 -57 9q-35 0 -93 -21l-2 -2q41 14 74 14q12 0 42 -5t36 -10q17 -6 30 -6
q21 0 52 15zM261 273h-11q1 -11 1 -21q0 -18 -5 -35q17 31 15 56zM439 158q-18 -6 -31 -6q-10 0 -26.5 5.5t-24.5 6.5q-29 9 -57 9q-35 0 -93 -21l-2 -2q41 14 74 14q12 0 40 -5q32 -5 38 -10q17 -6 29 -6q22 0 53 15zM240 252q0 11 -1 21h-12q3 -31 3 -42q0 -18 -5 -35
q15 26 15 56zM418 137q-18 -6 -32 -6q-9 0 -25.5 5.5t-24.5 6.5q-29 9 -57 9q-35 0 -93 -21l-2 -2q41 14 73 14q13 0 41 -5q32 -6 38 -11q17 -5 29 -5q22 0 53 15zM69 331l-4 9h-6v-9h10zM397 116q-18 -6 -32 -6q-9 0 -25.5 5.5t-24.5 6.5q-29 9 -58 9q-34 0 -92 -21l-2 -2
q41 13 73 13q13 0 41 -4q32 -6 37 -11q18 -5 30 -5q22 0 53 15z" />
    <glyph glyph-name="currency" unicode="&#xa4;" horiz-adv-x="706" 
d="M726 -200h-726v394h18l52 90h9l12 21h9l5 9h-92l57 99h9l12 22h9l12 21h9l12 21h9l12 21h26q20 35 59 76q35 33 69 67q78 77 193 77q119 0 192 -62l-70 -125l-5 9l-16 -30l-5 9l-12 -21h19l-57 -99h-9l-12 -21h-9l-5 -9h18l-58 -99h-8l-13 -21h-9l-12 -21h-9l-1 -4
q34 -30 88 -30q40 0 64 13l4 6l2 -3q9 5 19 24l3 -5q8 8 18 26l34 -61h74v-394zM678 653q-67 53 -177 53q-62 0 -114 -24q44 15 93 15q120 0 189 -59zM656 632q-66 53 -176 53q-62 0 -114 -24q44 15 93 15q120 0 189 -60zM635 611q-66 53 -176 53q-62 0 -114 -24
q44 14 93 14q120 0 189 -59zM614 590q-67 53 -176 53q-63 0 -114 -24q44 14 93 14q120 0 188 -59zM584 486h-14l-6 -9h14zM563 465h-15l-5 -9h14zM492 498q-29 15 -70 15q-21 0 -40 -5l-3 -10h113zM519 477l-10 9h-147l-5 -9h162zM533 456l-5 9h-187l-5 -9h197zM542 444
h-222l-5 -9h221zM509 357h-4v0h-9l-5 -9h13zM521 423h-222l-5 -10h221zM671 137l-53 95q-5 -7 -12 -14l51 -92zM488 336h-4v0h-9l-5 -9h13zM650 116l-54 95q-4 -7 -11 -14l51 -92zM629 95l-54 95q-4 -7 -11 -14l51 -92zM467 315h-4v-1h-163v-9h162zM608 73l-54 96
q-4 -7 -11 -14l51 -92zM551 186q-21 -6 -45 -6q-53 0 -93 34l-4 -8h-9l-2 -3q37 -33 87 -33q13 0 35 4q28 5 31 12zM446 294h-157l-1 20h-9l-1 -9v-3l1 -18h162zM174 486h-13l-5 -9h13zM530 165q-21 -6 -45 -6q-53 0 -93 34l-4 -8h-14q37 -36 90 -36q13 0 35 4q27 5 31 12z
M593 569q-67 53 -176 53q-102 0 -170 -59.5t-90 -160.5h-80l-44 -76h116q-1 -26 1 -53h-73l-44 -76h129q25 -96 93 -148t169 -52q97 0 162 55l-53 95q-37 -52 -111 -52q-98 0 -139 102h98l44 76h-157q-1 17 -1 27v26h189l43 76h-221q36 123 144 123q81 0 116 -54zM164 465
h-24l-6 -9h27zM510 144q-22 -6 -46 -6q-64 0 -107 47h-23q40 -57 109 -57q39 0 67 16zM157 444h-38l-6 -9h41zM489 123q-22 -7 -46 -7q-81 0 -123 69h-19q37 -78 121 -78q39 0 67 16zM150 423h-52l-6 -10h56zM137 314h-18l-6 -9h24v9zM137 284v10h-39l-6 -10h45z" />
    <glyph glyph-name="currency" unicode="&#x20ac;" horiz-adv-x="706" 
d="M726 -200h-726v394h18l52 90h9l12 21h9l5 9h-92l57 99h9l12 22h9l12 21h9l12 21h9l12 21h26q20 35 59 76q35 33 69 67q78 77 193 77q119 0 192 -62l-70 -125l-5 9l-16 -30l-5 9l-12 -21h19l-57 -99h-9l-12 -21h-9l-5 -9h18l-58 -99h-8l-13 -21h-9l-12 -21h-9l-1 -4
q34 -30 88 -30q40 0 64 13l4 6l2 -3q9 5 19 24l3 -5q8 8 18 26l34 -61h74v-394zM678 653q-67 53 -177 53q-62 0 -114 -24q44 15 93 15q120 0 189 -59zM656 632q-66 53 -176 53q-62 0 -114 -24q44 15 93 15q120 0 189 -60zM635 611q-66 53 -176 53q-62 0 -114 -24
q44 14 93 14q120 0 189 -59zM614 590q-67 53 -176 53q-63 0 -114 -24q44 14 93 14q120 0 188 -59zM584 486h-14l-6 -9h14zM563 465h-15l-5 -9h14zM492 498q-29 15 -70 15q-21 0 -40 -5l-3 -10h113zM519 477l-10 9h-147l-5 -9h162zM533 456l-5 9h-187l-5 -9h197zM542 444
h-222l-5 -9h221zM509 357h-4v0h-9l-5 -9h13zM521 423h-222l-5 -10h221zM671 137l-53 95q-5 -7 -12 -14l51 -92zM488 336h-4v0h-9l-5 -9h13zM650 116l-54 95q-4 -7 -11 -14l51 -92zM629 95l-54 95q-4 -7 -11 -14l51 -92zM467 315h-4v-1h-163v-9h162zM608 73l-54 96
q-4 -7 -11 -14l51 -92zM551 186q-21 -6 -45 -6q-53 0 -93 34l-4 -8h-9l-2 -3q37 -33 87 -33q13 0 35 4q28 5 31 12zM446 294h-157l-1 20h-9l-1 -9v-3l1 -18h162zM174 486h-13l-5 -9h13zM530 165q-21 -6 -45 -6q-53 0 -93 34l-4 -8h-14q37 -36 90 -36q13 0 35 4q27 5 31 12z
M593 569q-67 53 -176 53q-102 0 -170 -59.5t-90 -160.5h-80l-44 -76h116q-1 -26 1 -53h-73l-44 -76h129q25 -96 93 -148t169 -52q97 0 162 55l-53 95q-37 -52 -111 -52q-98 0 -139 102h98l44 76h-157q-1 17 -1 27v26h189l43 76h-221q36 123 144 123q81 0 116 -54zM164 465
h-24l-6 -9h27zM510 144q-22 -6 -46 -6q-64 0 -107 47h-23q40 -57 109 -57q39 0 67 16zM157 444h-38l-6 -9h41zM489 123q-22 -7 -46 -7q-81 0 -123 69h-19q37 -78 121 -78q39 0 67 16zM150 423h-52l-6 -10h56zM137 314h-18l-6 -9h24v9zM137 284v10h-39l-6 -10h45z" />
    <glyph glyph-name="yen" unicode="&#xa5;" horiz-adv-x="596" 
d="M616 -200h-616v394h211v3h-131v67h21v21h21v21h21v21h17l-7 15h-90v68h21v21h21v8l-84 165h31l-10 21h31l-10 21h32l-11 21h32l-11 22h153l80 -188l42 103h12l9 21h12l9 21h13l8 21h13l8 22h147l-94 -195h56v-67h-21v-21h-21v-22h-21v-21h-21v-15h70v-67h-21v-21h-21v-21
h-21v-21h-22v-21h-47v-3h189v-394zM593 677h-121l-4 -10h120zM572 656h-121l-4 -10h120zM551 635h-121l-4 -10h120zM529 613h-120l-4 -9h120zM561 438v45h-60l-5 -10h56v-35h9zM540 417v45h-60l-5 -10h56v-35h9zM519 396v44h-60l-5 -9h56v-35h9zM498 375v44h-60l-5 -9h56
v-35h9zM547 293v44h-117l-5 -10h113v-34h9zM332 486l-82 191h-126l5 -10h108l86 -202zM526 272v44h-117l-5 -10h113v-34h9zM317 450l-88 206h-126l5 -10h108l93 -217zM505 251v44h-117l-5 -10h113v-34h9zM302 414l-94 221h-126l5 -10h108l99 -232zM484 230v43h-118l-4 -9
h112v-34h10zM288 378l-101 235h-126l5 -9h108l105 -247zM508 592h-120l-108 -266l-114 266h-126l99 -194h-65v-44h86l51 -102h-119v-44h131v-194h108v194h132v44h-120l50 102h84v44h-63zM415 99v98h-9v-98h9zM394 78v119h-9v-119h9zM119 410l-4 9h-20v-9h24zM373 57v140h-9
v-140h9zM171 306l-5 10h-11v-10h16zM352 35v162h-9v-162h9zM181 285l-5 10h-42v-10h47zM192 264l-5 9h-74v-9h79z" />
    <glyph glyph-name="dieresis" unicode="&#xa8;" horiz-adv-x="431" 
d="M464 655h-22v-21h-21v-22h-21v-21h-21v-21h-119v42h-9v-21h-22v-21h-119v110h21v21h21v21h21v21h22v21h119v-42h9v21h21v21h120v-109zM452 666v86h-96v-9h86v-77h10zM431 645v86h-96v-9h86v-77h10zM410 624v86h-96v-9h86v-77h10zM388 603v86h-95v-9h86v-77h9zM302 722v30
h-96v-9h87v-42h9v21v0zM367 582v86h-95v-86h95zM281 701v30h-96v-9h87v-42h9v21v0zM260 680v30h-96v-9h87v-77h9v56v0zM239 603v86h-96v-9h86v-77h10zM218 582v86h-96v-86h96z" />
    <glyph glyph-name="guillemotleft" unicode="&#xab;" horiz-adv-x="508" 
d="M528 -200h-528v394h27l2 100l252 214v-114l-81 -69l28 -24l244 207v-114l-81 -69l82 -68l-1 -63h56v-394zM461 400v82l-14 -11v-83zM435 379v82l-13 -11v-83zM410 358v82l-14 -12v-82zM385 336v83l-14 -12v-82zM270 400v82l-14 -11v-83zM461 168v82l-79 68l-16 -14
l81 -67v-58zM244 379v82l-13 -11v-83zM435 147v82l-78 67l-16 -13l81 -68v-57zM219 358v82l-14 -12v-82zM410 126v82l-79 67l-16 -13l81 -68v-57zM194 336v82l-14 -11v-82zM359 83v83l-87 74l87 75v83l-129 -111v-93zM385 105v82l-79 67l-16 -13l81 -68v-57zM219 293l-28 25
l-16 -14l43 -37zM218 224v27l-52 45l-16 -13zM244 147v20l-13 11v-20zM219 126l-1 83l-78 66l-16 -13l79 -68l2 -57zM194 147v40l-79 67l-16 -13l79 -68l2 -14zM168 83v83l-87 74l87 75v83l-129 -111v-93zM194 105v27l-14 12v-28z" />
    <glyph glyph-name="degree" unicode="&#xb0;" horiz-adv-x="314" 
d="M310 668q0 -40 -28 -68q-18 -17 -54 -52l-42 -42q-25 -19 -56 -19q-40 0 -68 28t-28 68t28 68q18 17 54 52l42 42q25 18 56 18q40 0 68 -28t28 -67zM334 -200h-334v394h334v-394zM298 668q0 35 -24.5 59.5t-59.5 24.5q-24 0 -43 -12q11 2 22 2q40 0 68 -28t28 -67
q0 -12 -3 -23q12 20 12 44zM277 647q0 34 -24.5 59t-59.5 25q-24 0 -43 -12q11 2 22 2q40 0 68 -28t28 -68q0 -11 -3 -22q12 20 12 44zM256 625q0 35 -24.5 59.5t-59.5 24.5q-24 0 -43 -11q11 2 22 2q40 0 68 -28t28 -68q0 -11 -3 -22q12 19 12 43zM235 604q0 35 -24.5 59.5
t-59.5 24.5q-24 0 -43 -12q11 3 22 3q39 0 67 -28t28 -68q0 -11 -2 -22q12 19 12 43zM214 583q0 35 -24.5 59.5t-59.5 24.5t-59.5 -24.5t-24.5 -59.5t24.5 -59.5t59.5 -24.5t59.5 24.5t24.5 59.5zM184 583q0 -22 -16 -38t-38 -16q-23 0 -39 16t-16 38q0 23 16 39t39 16
q22 0 38 -16t16 -39zM173 583q0 7 -3 14q-19 8 -27 27q-7 2 -13 2q-1 0 -1 -1q0 -17 12.5 -29.5t30.5 -12.5h1zM171 571q-22 0 -37.5 15.5t-16.5 37.5l-5 -1q-4 -9 -4 -19q0 -18 12.5 -30t30.5 -12q9 0 18 4zM157 550q-25 -3 -44 13.5t-17 40.5v6q-9 -12 -9 -27
q0 -18 12.5 -30.5t30.5 -12.5q15 0 27 10z" />
    <glyph glyph-name="acute" unicode="&#xb4;" horiz-adv-x="316" 
d="M413 782l-222 -220h-98l86 135h8l14 21h8l13 22h8l13 21h8l14 21h148zM385 770h-114l-6 -9h110zM363 749h-113l-6 -9h110zM342 728h-113l-6 -10h110zM321 707h-114l-6 -10h110zM299 686h-113l-72 -112h72z" />
    <glyph glyph-name="periodcentered" unicode="&#xb7;" horiz-adv-x="282" 
d="M264 392q0 -40 -33 -62q-8 -13 -21 -21q-8 -13 -21 -21q-9 -13 -21 -21q-23 -34 -63 -34q-31 0 -53 21.5t-22 52.5q0 40 34 62q8 13 21 21q8 13 21 21q8 13 21 22q23 33 62 33q31 0 53 -21.5t22 -52.5zM302 -200h-302v394h302v-394zM253 392q0 26 -19 44t-45 18
q-20 0 -35 -10q7 1 14 1q30 0 52.5 -21.5t22.5 -52.5q0 -7 -1 -14q11 15 11 35zM231 371q0 26 -18.5 44t-44.5 18q-20 0 -35 -10q7 1 14 1q30 0 52.5 -21.5t22.5 -53.5q0 -6 -1 -13q10 15 10 35zM210 349q0 27 -18.5 45t-44.5 18q-20 0 -35 -11q7 2 13 2q31 0 53.5 -21.5
t22.5 -53.5q0 -7 -1 -13q10 15 10 34zM189 328q0 27 -18.5 45t-45.5 18q-19 0 -34 -11q7 2 13 2q31 0 53.5 -21.5t22.5 -53.5q0 -7 -1 -14q10 16 10 35zM168 307q0 26 -18.5 44.5t-45.5 18.5q-25 0 -43.5 -18.5t-18.5 -44.5t18.5 -44t44.5 -18t44.5 18t18.5 44z" />
    <glyph glyph-name="periodcentered" unicode="&#x2219;" horiz-adv-x="282" 
d="M264 392q0 -40 -33 -62q-8 -13 -21 -21q-8 -13 -21 -21q-9 -13 -21 -21q-23 -34 -63 -34q-31 0 -53 21.5t-22 52.5q0 40 34 62q8 13 21 21q8 13 21 21q8 13 21 22q23 33 62 33q31 0 53 -21.5t22 -52.5zM302 -200h-302v394h302v-394zM253 392q0 26 -19 44t-45 18
q-20 0 -35 -10q7 1 14 1q30 0 52.5 -21.5t22.5 -52.5q0 -7 -1 -14q11 15 11 35zM231 371q0 26 -18.5 44t-44.5 18q-20 0 -35 -10q7 1 14 1q30 0 52.5 -21.5t22.5 -53.5q0 -6 -1 -13q10 15 10 35zM210 349q0 27 -18.5 45t-44.5 18q-20 0 -35 -11q7 2 13 2q31 0 53.5 -21.5
t22.5 -53.5q0 -7 -1 -13q10 15 10 34zM189 328q0 27 -18.5 45t-45.5 18q-19 0 -34 -11q7 2 13 2q31 0 53.5 -21.5t22.5 -53.5q0 -7 -1 -14q10 16 10 35zM168 307q0 26 -18.5 44.5t-45.5 18.5q-25 0 -43.5 -18.5t-18.5 -44.5t18.5 -44t44.5 -18t44.5 18t18.5 44z" />
    <glyph glyph-name="guillemotright" unicode="&#xbb;" horiz-adv-x="499" 
d="M519 -200h-519v394h54l54 47l-81 69v113l26 -21v43l25 -22v43l25 -22v43l26 -22v43l115 -99v36l25 -22v43l25 -22v43l26 -22v43l152 -131v-104l-92 -79h139v-394zM461 279v92l-130 111v-27l116 -98v-90zM435 257v93l-129 111v-27l116 -98v-90zM410 236v93l-129 111v-27
l115 -98v-90zM385 215v93l-130 111v-27l116 -98v-90zM218 388v27l-78 67v-27zM218 345v27l-103 89v-27zM359 194v93l-129 111v-83l87 -75l-87 -74v-83zM262 272l-6 6v-11zM244 257v31l-13 11v-53zM219 236l-1 94l-128 110v-27l115 -98v-90zM299 241l-28 24l-82 -71h56z
M194 215v93l-130 111v-27l116 -98v-90zM168 194v93l-129 111v-83l87 -75l-87 -74v-83z" />
    <glyph glyph-name="questiondown" unicode="&#xbf;" horiz-adv-x="542" 
d="M562 -200h-562v394h138q25 25 30.5 41t5.5 53h21v21h21v22h21v3h-72v130h21v21h21v22h21v21h21v21h135v-131h-21v-21h-21v-21h-21v-3h61q-3 -77 -13.5 -100t-66.5 -79h260v-394zM373 430v107h-112v-9h102v-98h10zM351 409v107h-111v-9h102v-98h9zM330 387v108h-111v-10
h102v-98h9zM309 373v101h-111v-10h102v-91h9zM369 361h-48v-6h-21v-3h61q-2 -59 -10 -89q15 26 18 98zM288 345v108h-111v-108h111zM348 340h-48v-6h-51l-1 -3h91q-2 -60 -9 -89q15 26 18 98zM327 319h-99l-1 -10h91q-2 -59 -9 -88q15 26 18 98zM523 121h-108l-1 -10h100
q-2 -50 -13 -85q18 38 22 95zM306 298h-99l-1 -10h91q-2 -59 -9 -88q15 26 18 98zM501 100h-107l-1 -10h100q-2 -50 -13 -85q18 38 21 95zM480 79h-107l-1 -10h100q-2 -50 -13 -85q18 38 21 95zM459 57h-107l-1 -9h100q-2 -50 -13 -86q18 39 21 95zM318 23q-40 0 -63.5 24
t-23.5 62q0 8 1 16l-4 -3q-7 -11 -7 -32q0 -35 21 -55.5t56 -20.5q9 0 18 2zM313 3q-8 -1 -15 -1q-39 0 -64 23.5t-25 62.5q0 10 3 21l-2 -1q-10 -18 -10 -39q0 -35 20.5 -55.5t55.5 -20.5q19 0 35 6zM438 36h-107q-2 -44 -27.5 -70.5t-69.5 -26.5q-40 0 -64 24t-24 64
q0 33 23 60q13 14 50 43q43 33 55 63q9 22 11 84h-99q-2 -54 -42 -92q-36 -31 -73 -62q-39 -41 -39 -102q0 -86 65 -131q57 -39 146 -39q185 0 195 185zM303 -16q-13 -3 -27 -3q-38 0 -63 23.5t-25 62.5q0 11 3 23q-12 -18 -12 -42q0 -35 20.5 -55.5t55.5 -20.5q29 0 48 12z
M282 -37q-13 -3 -27 -3q-38 0 -63 23.5t-25 61.5q0 12 3 24q-12 -19 -12 -42q0 -35 20.5 -56t55.5 -21q29 0 48 13z" />
    <glyph glyph-name="Agrave" unicode="&#xc0;" 
d="M584 -200h-584v394h42q10 22 36 48l44 42q9 8 22 22h-100q4 68 34 107q11 13 42.5 41.5t42.5 42.5q45 62 164 62q194 0 194 -146v-219h63v-394zM535 99v8q-21 11 -25 44v56v206q0 134 -183 134q-67 0 -111 -22q39 13 90 13q194 0 194 -146v-206q0 -48 0 -47q2 -32 15 -40
h20zM514 78v8q-21 11 -25 44v56v206q0 134 -183 134q-67 0 -111 -22q39 12 90 12q194 0 194 -145v-206q0 -48 0 -47q2 -32 14 -40h21zM493 57v7q-21 12 -25 45q-1 3 -1 56v206q0 134 -182 134q-67 0 -111 -22q39 12 90 12q194 0 194 -145v-206q0 -48 0 -47q2 -32 14 -40h21z
M273 365q-15 3 -34 3q-14 0 -25 -2q-2 -7 -3 -15q25 8 62 14zM301 350l-6 6q-67 -8 -102 -25q33 10 108 19zM471 35v8q-21 12 -24 45q-1 3 -1 56v206q0 134 -182 134q-68 0 -111 -22q39 12 90 12q194 0 194 -145v-206q0 -48 0 -47q2 -32 14 -41h20zM307 334l-1 5
q-55 -7 -68 -9q-39 -7 -66 -20q28 9 69 14q53 7 66 10zM308 322l-80 -12q-47 -7 -77 -21q44 14 112 20q27 2 44 9zM296 303q-13 -4 -84 -13q-51 -7 -82 -22q44 14 112 20q37 3 54 15zM450 14v8q-21 11 -25 45v56v206q0 134 -182 134q-174 0 -187 -145h102q13 62 81 62
q81 0 81 -55q0 -37 -72 -48q-111 -18 -135 -28q-72 -33 -72 -121q0 -60 37 -94t98 -34q78 0 146 75q2 -21 11 -61h117zM319 183q0 -51 -28.5 -80t-79.5 -29q-64 0 -64 63q0 47 53 64q44 10 89 20q11 4 30 17v-55zM308 194v23q-19 -10 -61 -18l3 -4zM306 159l-11 -1
q-47 -2 -59 39l-13 -3q3 -45 51 -45q15 0 30 4zM301 140q-15 -3 -27 -3q-58 0 -63 55l-9 -3q-1 -5 -1 -10q0 -51 52 -51q24 0 47 10zM286 121q-16 -5 -33 -5q-31 0 -48.5 19t-14.5 50l-4 -2q-6 -11 -6 -25q0 -51 52 -51q29 0 54 14zM266 100q-18 -5 -34 -5q-64 0 -64 61
q0 6 1 13q-10 -13 -10 -32q0 -51 52 -51q29 0 55 14zM432 647h-35l13 -21h-34l13 -21h-34l13 -21h-34l13 -22h-98l-137 135h43l-22 21h43l-21 22h42l-21 21h42l-21 21h148zM410 659l-71 111h-114l10 -9h89l65 -102h21zM389 637l-72 112h-113l10 -9h89l65 -103h21zM368 616
l-72 112h-113l10 -10h89l65 -102h21zM347 595l-72 112h-113l10 -10h89l65 -102h21zM326 574l-72 112h-113l113 -112h72z" />
    <glyph glyph-name="Aacute" unicode="&#xc1;" 
d="M584 -200h-584v394h42q10 22 36 48l44 42q9 8 22 22h-100q4 68 34 107q11 13 42.5 41.5t42.5 42.5q45 62 164 62q194 0 194 -146v-219h63v-394zM535 99v8q-21 11 -25 44v56v206q0 134 -183 134q-67 0 -111 -22q39 13 90 13q194 0 194 -146v-206q0 -48 0 -47q2 -32 15 -40
h20zM514 78v8q-21 11 -25 44v56v206q0 134 -183 134q-67 0 -111 -22q39 12 90 12q194 0 194 -145v-206q0 -48 0 -47q2 -32 14 -40h21zM493 57v7q-21 12 -25 45q-1 3 -1 56v206q0 134 -182 134q-67 0 -111 -22q39 12 90 12q194 0 194 -145v-206q0 -48 0 -47q2 -32 14 -40h21z
M273 365q-15 3 -34 3q-14 0 -25 -2q-2 -7 -3 -15q25 8 62 14zM301 350l-6 6q-67 -8 -102 -25q33 10 108 19zM471 35v8q-21 12 -24 45q-1 3 -1 56v206q0 134 -182 134q-68 0 -111 -22q39 12 90 12q194 0 194 -145v-206q0 -48 0 -47q2 -32 14 -41h20zM307 334l-1 5
q-55 -7 -68 -9q-39 -7 -66 -20q28 9 69 14q53 7 66 10zM308 322l-80 -12q-47 -7 -77 -21q44 14 112 20q27 2 44 9zM296 303q-13 -4 -84 -13q-51 -7 -82 -22q44 14 112 20q37 3 54 15zM450 14v8q-21 11 -25 45v56v206q0 134 -182 134q-174 0 -187 -145h102q13 62 81 62
q81 0 81 -55q0 -37 -72 -48q-111 -18 -135 -28q-72 -33 -72 -121q0 -60 37 -94t98 -34q78 0 146 75q2 -21 11 -61h117zM319 183q0 -51 -28.5 -80t-79.5 -29q-64 0 -64 63q0 47 53 64q44 10 89 20q11 4 30 17v-55zM308 194v23q-19 -10 -61 -18l3 -4zM306 159l-11 -1
q-47 -2 -59 39l-13 -3q3 -45 51 -45q15 0 30 4zM301 140q-15 -3 -27 -3q-58 0 -63 55l-9 -3q-1 -5 -1 -10q0 -51 52 -51q24 0 47 10zM286 121q-16 -5 -33 -5q-31 0 -48.5 19t-14.5 50l-4 -2q-6 -11 -6 -25q0 -51 52 -51q29 0 54 14zM266 100q-18 -5 -34 -5q-64 0 -64 61
q0 6 1 13q-10 -13 -10 -32q0 -51 52 -51q29 0 55 14zM463 782l-222 -220h-98l86 135h8l14 21h8l13 22h8l13 21h8l14 21h148zM435 770h-114l-6 -9h110zM413 749h-113l-6 -9h110zM392 728h-113l-6 -10h110zM371 707h-114l-6 -10h110zM349 686h-113l-72 -112h72z" />
    <glyph glyph-name="Acircumflex" unicode="&#xc2;" 
d="M584 -200h-584v394h42q10 22 36 48l44 42q9 8 22 22h-100q4 68 34 107q11 13 42.5 41.5t42.5 42.5q45 62 164 62q194 0 194 -146v-219h63v-394zM535 99v8q-21 11 -25 44v56v206q0 134 -183 134q-67 0 -111 -22q39 13 90 13q194 0 194 -146v-206q0 -48 0 -47q2 -32 15 -40
h20zM514 78v8q-21 11 -25 44v56v206q0 134 -183 134q-67 0 -111 -22q39 12 90 12q194 0 194 -145v-206q0 -48 0 -47q2 -32 14 -40h21zM493 57v7q-21 12 -25 45q-1 3 -1 56v206q0 134 -182 134q-67 0 -111 -22q39 12 90 12q194 0 194 -145v-206q0 -48 0 -47q2 -32 14 -40h21z
M273 365q-15 3 -34 3q-14 0 -25 -2q-2 -7 -3 -15q25 8 62 14zM301 350l-6 6q-67 -8 -102 -25q33 10 108 19zM471 35v8q-21 12 -24 45q-1 3 -1 56v206q0 134 -182 134q-68 0 -111 -22q39 12 90 12q194 0 194 -145v-206q0 -48 0 -47q2 -32 14 -41h20zM307 334l-1 5
q-55 -7 -68 -9q-39 -7 -66 -20q28 9 69 14q53 7 66 10zM308 322l-80 -12q-47 -7 -77 -21q44 14 112 20q27 2 44 9zM296 303q-13 -4 -84 -13q-51 -7 -82 -22q44 14 112 20q37 3 54 15zM450 14v8q-21 11 -25 45v56v206q0 134 -182 134q-174 0 -187 -145h102q13 62 81 62
q81 0 81 -55q0 -37 -72 -48q-111 -18 -135 -28q-72 -33 -72 -121q0 -60 37 -94t98 -34q78 0 146 75q2 -21 11 -61h117zM319 183q0 -51 -28.5 -80t-79.5 -29q-64 0 -64 63q0 47 53 64q44 10 89 20q11 4 30 17v-55zM308 194v23q-19 -10 -61 -18l3 -4zM306 159l-11 -1
q-47 -2 -59 39l-13 -3q3 -45 51 -45q15 0 30 4zM301 140q-15 -3 -27 -3q-58 0 -63 55l-9 -3q-1 -5 -1 -10q0 -51 52 -51q24 0 47 10zM286 121q-16 -5 -33 -5q-31 0 -48.5 19t-14.5 50l-4 -2q-6 -11 -6 -25q0 -51 52 -51q29 0 54 14zM266 100q-18 -5 -34 -5q-64 0 -64 61
q0 6 1 13q-10 -13 -10 -32q0 -51 52 -51q29 0 55 14zM470 647h-33l16 -21h-33l16 -21h-33l17 -21h-34l17 -22h-111l-50 65q0 -1 -1 -1l-17 -21v0l-17 -21v0l-17 -22h-110l106 135v0l17 21v0l17 22v0l17 21v0l16 21h112zM446 659l-87 111h-100l-7 -9h96l80 -102h18zM429 637
l-87 112h-100l-7 -9h96l80 -103h18zM412 616l-87 112h-100l-7 -10h96l80 -102h18zM396 595l-88 112h-100l-7 -10h96l80 -102h19zM379 574l-88 112h-99l-88 -112h81l56 73l57 -73h81z" />
    <glyph glyph-name="Atilde" unicode="&#xc3;" 
d="M584 -200h-584v394h42q10 22 36 48l44 42q9 8 22 22h-100q4 68 34 107q11 13 42.5 41.5t42.5 42.5q45 62 164 62q194 0 194 -146v-219h63v-394zM535 99v8q-21 11 -25 44v56v206q0 134 -183 134q-67 0 -111 -22q39 13 90 13q194 0 194 -146v-206q0 -48 0 -47q2 -32 15 -40
h20zM514 78v8q-21 11 -25 44v56v206q0 134 -183 134q-67 0 -111 -22q39 12 90 12q194 0 194 -145v-206q0 -48 0 -47q2 -32 14 -40h21zM493 57v7q-21 12 -25 45q-1 3 -1 56v206q0 134 -182 134q-67 0 -111 -22q39 12 90 12q194 0 194 -145v-206q0 -48 0 -47q2 -32 14 -40h21z
M273 365q-15 3 -34 3q-14 0 -25 -2q-2 -7 -3 -15q25 8 62 14zM301 350l-6 6q-67 -8 -102 -25q33 10 108 19zM471 35v8q-21 12 -24 45q-1 3 -1 56v206q0 134 -182 134q-68 0 -111 -22q39 12 90 12q194 0 194 -145v-206q0 -48 0 -47q2 -32 14 -41h20zM307 334l-1 5
q-55 -7 -68 -9q-39 -7 -66 -20q28 9 69 14q53 7 66 10zM308 322l-80 -12q-47 -7 -77 -21q44 14 112 20q27 2 44 9zM296 303q-13 -4 -84 -13q-51 -7 -82 -22q44 14 112 20q37 3 54 15zM450 14v8q-21 11 -25 45v56v206q0 134 -182 134q-174 0 -187 -145h102q13 62 81 62
q81 0 81 -55q0 -37 -72 -48q-111 -18 -135 -28q-72 -33 -72 -121q0 -60 37 -94t98 -34q78 0 146 75q2 -21 11 -61h117zM319 183q0 -51 -28.5 -80t-79.5 -29q-64 0 -64 63q0 47 53 64q44 10 89 20q11 4 30 17v-55zM308 194v23q-19 -10 -61 -18l3 -4zM306 159l-11 -1
q-47 -2 -59 39l-13 -3q3 -45 51 -45q15 0 30 4zM301 140q-15 -3 -27 -3q-58 0 -63 55l-9 -3q-1 -5 -1 -10q0 -51 52 -51q24 0 47 10zM286 121q-16 -5 -33 -5q-31 0 -48.5 19t-14.5 50l-4 -2q-6 -11 -6 -25q0 -51 52 -51q29 0 54 14zM266 100q-18 -5 -34 -5q-64 0 -64 61
q0 6 1 13q-10 -13 -10 -32q0 -51 52 -51q29 0 55 14zM487 772q-12 -74 -50 -100q-8 -12 -21 -21q-8 -12 -21 -21q-8 -12 -22 -21q-21 -35 -71 -35q-22 0 -62 14.5t-60 14.5q-6 0 -10 -1q-2 -4 -4 -13h-13q-5 -7 -8 -21h-66q11 51 26 74q10 14 41 44q43 40 46 43q37 39 81 39
q18 0 45 -11t35 -12q24 -9 33 -9q5 0 10 1l4 14h13q5 9 8 21h66zM473 760h-43q-2 -4 -4 -9h40q-3 -19 -7 -33q9 19 14 42zM452 739h-43q-2 -4 -4 -9h40q-3 -19 -7 -33q9 19 14 42zM431 718h-44q-1 -4 -3 -9h40q-3 -19 -8 -33q10 19 15 42zM410 697h-44q-1 -4 -3 -9h40
q-3 -19 -8 -34q10 20 15 43zM378 725q-26 6 -66 23l-2 1q-17 7 -37 7q-29 0 -49 -12q13 3 28 3t47.5 -11.5l32.5 -11.5q24 -9 33 -9q5 0 8 2t5 8zM357 704q-19 4 -66 23q-1 0 -2 1q-20 7 -37 7q-29 0 -49 -13q13 4 27 4q16 0 48.5 -11.5l32.5 -11.5q24 -9 33 -9q5 0 8 2t5 8
zM335 683q-25 6 -65 23h-2q-17 8 -38 8q-28 0 -48 -13q13 3 27 3q16 0 48.5 -11l32.5 -11q23 -9 33 -9q5 0 8 2t4 8zM326 662q-9 -1 -43.5 10t-35.5 13q-20 8 -38 8q-28 0 -48 -13q13 3 27 3q19 0 49.5 -11t31.5 -11q23 -9 33 -9q19 0 24 10zM389 676h-44q-11 -36 -43 -36
q-8 0 -41 11t-35 13q-20 8 -38 8q-73 0 -94 -92h42q11 35 44 35q13 0 31 -6q25 -9 31 -10q51 -13 60 -13q68 0 87 90z" />
    <glyph glyph-name="Adieresis" unicode="&#xc4;" 
d="M584 -200h-584v394h42q10 22 36 48l44 42q9 8 22 22h-100q4 68 34 107q11 13 42.5 41.5t42.5 42.5q45 62 164 62q194 0 194 -146v-219h63v-394zM535 99v8q-21 11 -25 44v56v206q0 134 -183 134q-67 0 -111 -22q39 13 90 13q194 0 194 -146v-206q0 -48 0 -47q2 -32 15 -40
h20zM514 78v8q-21 11 -25 44v56v206q0 134 -183 134q-67 0 -111 -22q39 12 90 12q194 0 194 -145v-206q0 -48 0 -47q2 -32 14 -40h21zM493 57v7q-21 12 -25 45q-1 3 -1 56v206q0 134 -182 134q-67 0 -111 -22q39 12 90 12q194 0 194 -145v-206q0 -48 0 -47q2 -32 14 -40h21z
M273 365q-15 3 -34 3q-14 0 -25 -2q-2 -7 -3 -15q25 8 62 14zM301 350l-6 6q-67 -8 -102 -25q33 10 108 19zM471 35v8q-21 12 -24 45q-1 3 -1 56v206q0 134 -182 134q-68 0 -111 -22q39 12 90 12q194 0 194 -145v-206q0 -48 0 -47q2 -32 14 -41h20zM307 334l-1 5
q-55 -7 -68 -9q-39 -7 -66 -20q28 9 69 14q53 7 66 10zM308 322l-80 -12q-47 -7 -77 -21q44 14 112 20q27 2 44 9zM296 303q-13 -4 -84 -13q-51 -7 -82 -22q44 14 112 20q37 3 54 15zM450 14v8q-21 11 -25 45v56v206q0 134 -182 134q-174 0 -187 -145h102q13 62 81 62
q81 0 81 -55q0 -37 -72 -48q-111 -18 -135 -28q-72 -33 -72 -121q0 -60 37 -94t98 -34q78 0 146 75q2 -21 11 -61h117zM319 183q0 -51 -28.5 -80t-79.5 -29q-64 0 -64 63q0 47 53 64q44 10 89 20q11 4 30 17v-55zM308 194v23q-19 -10 -61 -18l3 -4zM306 159l-11 -1
q-47 -2 -59 39l-13 -3q3 -45 51 -45q15 0 30 4zM301 140q-15 -3 -27 -3q-58 0 -63 55l-9 -3q-1 -5 -1 -10q0 -51 52 -51q24 0 47 10zM286 121q-16 -5 -33 -5q-31 0 -48.5 19t-14.5 50l-4 -2q-6 -11 -6 -25q0 -51 52 -51q29 0 54 14zM266 100q-18 -5 -34 -5q-64 0 -64 61
q0 6 1 13q-10 -13 -10 -32q0 -51 52 -51q29 0 55 14z" />
    <glyph glyph-name="Aring" unicode="&#xc5;" 
d="M584 -200h-584v394h42q10 22 36 48l44 42q9 8 22 22h-100q4 68 34 107q11 13 42.5 41.5t42.5 42.5q45 62 164 62q194 0 194 -146v-219h63v-394zM535 99v8q-21 11 -25 44v56v206q0 134 -183 134q-67 0 -111 -22q39 13 90 13q194 0 194 -146v-206q0 -48 0 -47q2 -32 15 -40
h20zM514 78v8q-21 11 -25 44v56v206q0 134 -183 134q-67 0 -111 -22q39 12 90 12q194 0 194 -145v-206q0 -48 0 -47q2 -32 14 -40h21zM493 57v7q-21 12 -25 45q-1 3 -1 56v206q0 134 -182 134q-67 0 -111 -22q39 12 90 12q194 0 194 -145v-206q0 -48 0 -47q2 -32 14 -40h21z
M273 365q-15 3 -34 3q-14 0 -25 -2q-2 -7 -3 -15q25 8 62 14zM301 350l-6 6q-67 -8 -102 -25q33 10 108 19zM471 35v8q-21 12 -24 45q-1 3 -1 56v206q0 134 -182 134q-68 0 -111 -22q39 12 90 12q194 0 194 -145v-206q0 -48 0 -47q2 -32 14 -41h20zM307 334l-1 5
q-55 -7 -68 -9q-39 -7 -66 -20q28 9 69 14q53 7 66 10zM308 322l-80 -12q-47 -7 -77 -21q44 14 112 20q27 2 44 9zM296 303q-13 -4 -84 -13q-51 -7 -82 -22q44 14 112 20q37 3 54 15zM450 14v8q-21 11 -25 45v56v206q0 134 -182 134q-174 0 -187 -145h102q13 62 81 62
q81 0 81 -55q0 -37 -72 -48q-111 -18 -135 -28q-72 -33 -72 -121q0 -60 37 -94t98 -34q78 0 146 75q2 -21 11 -61h117zM319 183q0 -51 -28.5 -80t-79.5 -29q-64 0 -64 63q0 47 53 64q44 10 89 20q11 4 30 17v-55zM308 194v23q-19 -10 -61 -18l3 -4zM306 159l-11 -1
q-47 -2 -59 39l-13 -3q3 -45 51 -45q15 0 30 4zM301 140q-15 -3 -27 -3q-58 0 -63 55l-9 -3q-1 -5 -1 -10q0 -51 52 -51q24 0 47 10zM286 121q-16 -5 -33 -5q-31 0 -48.5 19t-14.5 50l-4 -2q-6 -11 -6 -25q0 -51 52 -51q29 0 54 14zM266 100q-18 -5 -34 -5q-64 0 -64 61
q0 6 1 13q-10 -13 -10 -32q0 -51 52 -51q29 0 55 14zM430 728q0 -40 -28 -68q-18 -17 -54 -52l-42 -42q-25 -19 -56 -19q-40 0 -68 28t-28 68t28 68q18 17 54 52l42 42q25 18 56 18q40 0 68 -28t28 -67zM418 728q0 35 -24.5 59.5t-59.5 24.5q-24 0 -43 -12q11 2 22 2
q40 0 68 -28t28 -67q0 -12 -3 -23q12 20 12 44zM397 707q0 34 -24.5 59t-59.5 25q-24 0 -43 -12q11 2 22 2q40 0 68 -28t28 -68q0 -11 -3 -22q12 20 12 44zM376 685q0 35 -24.5 59.5t-59.5 24.5q-24 0 -43 -11q11 2 22 2q40 0 68 -28t28 -68q0 -11 -3 -22q12 19 12 43z
M355 664q0 35 -24.5 59.5t-59.5 24.5q-24 0 -43 -12q11 3 22 3q39 0 67 -28t28 -68q0 -11 -2 -22q12 19 12 43zM334 643q0 35 -24.5 59.5t-59.5 24.5t-59.5 -24.5t-24.5 -59.5t24.5 -59.5t59.5 -24.5t59.5 24.5t24.5 59.5zM304 643q0 -22 -16 -38t-38 -16q-23 0 -39 16
t-16 38q0 23 16 39t39 16q22 0 38 -16t16 -39zM293 643q0 7 -3 14q-19 8 -27 27q-7 2 -13 2q-1 0 -1 -1q0 -17 12.5 -29.5t30.5 -12.5h1zM291 631q-22 0 -37.5 15.5t-16.5 37.5l-5 -1q-4 -9 -4 -19q0 -18 12.5 -30t30.5 -12q9 0 18 4zM277 610q-25 -3 -44 13.5t-17 40.5v6
q-9 -12 -9 -27q0 -18 12.5 -30.5t30.5 -12.5q15 0 27 10z" />
    <glyph glyph-name="AE" unicode="&#xc6;" horiz-adv-x="856" 
d="M876 -200h-876v394h39q12 28 48 60q46 41 56 54h-100q3 52 21 83q11 19 56 64q67 66 93 81q43 25 121 25q82 0 141 -47q58 47 133 47q111 0 166 -72q50 -64 49 -177v-27h-21l-1 -21h-20l-1 -21h-21v-7h60q-3 -23 -11 -42h68v-394zM811 304q2 245 -203 245q-48 0 -86 -19
q30 10 65 10q209 0 215 -243h9v7zM790 283q2 245 -203 245q-48 0 -86 -19q30 10 65 10q208 0 214 -243h10v7zM769 262q1 245 -203 245q-48 0 -86 -19q30 9 65 9q208 0 214 -242h10v7zM805 225h-46v-3h-21v-7h59q-1 -15 -4 -25q9 18 12 35zM748 241q1 245 -203 245
q-48 0 -87 -19q31 9 66 9q208 0 214 -242h10v7zM784 204h-46v-3h-63l-3 -7h104q-1 -15 -4 -25q9 18 12 35zM763 182h-108l-5 -9h105q-2 -15 -4 -25q9 18 12 34zM469 504q-56 45 -135 45q-69 0 -116 -23q41 14 95 14q82 0 141 -47zM742 161h-108l-5 -9h105q-2 -15 -5 -25
q10 18 13 34zM448 483q-56 45 -135 45q-70 0 -116 -23q41 14 95 14q82 0 141 -47zM661 201h-120l8 -7h97v0h12zM427 462q-57 45 -135 45q-70 0 -116 -23q41 13 94 13q83 0 142 -46zM616 152v0v0v0zM625 171q-14 -2 -25 -2q-50 0 -75 32h-20q19 -42 74 -42q24 0 44 7z
M406 441q-57 45 -136 45q-69 0 -115 -23q41 13 94 13q83 0 142 -46zM603 150q-13 -2 -24 -2q-70 0 -87 53h-15q13 -63 80 -63q25 0 44 7zM595 131q-18 -5 -38 -5q-78 0 -92 75h-12q8 -84 83 -84q53 0 59 14zM576 110q-19 -5 -40 -5q-86 0 -95 96h-10q2 -105 84 -105
q40 0 61 14zM727 220q1 245 -203 245q-76 0 -133 -50q-60 50 -142 50q-182 0 -193 -145h103q5 64 79 64q86 0 86 -57q0 -39 -74 -51q-117 -19 -137 -27q-73 -31 -73 -116q0 -66 44 -100q40 -31 107 -31q111 0 172 80q51 -80 156 -80q71 0 127 35q63 38 75 103h-109
q-21 -56 -97 -56q-96 0 -96 129h308v7zM284 366q-14 7 -41 6h-10v-1q-9 0 -19 -2q-2 -7 -2 -18q26 8 72 15zM305 351l-4 5q-110 -16 -110 -27q29 9 114 22zM312 334l-1 6q-64 -10 -77 -12q-64 -11 -64 -20q28 9 70 15q36 6 72 11zM202 366l-4 -2l-2 -2h5zM210 350h-17l-1 -7
zM312 322q-43 -6 -86 -13q-51 -7 -83 -23q45 15 135 25q18 2 33 8zM181 351q-2 -2 -6 -10h5zM190 329h-2l-3 -1zM300 303q-12 -3 -90 -14q-55 -8 -88 -24q50 16 135 25q29 3 43 13zM169 308h-2l-3 -1zM617 277h-197q5 106 100 106q91 0 97 -106zM323 181q0 -105 -108 -105
q-70 0 -70 59q0 39 35 58q19 10 74 21q50 10 69 23v-56zM577 352q-5 5 -12 9h-60v10l-6 -1q-2 -10 -3 -18h81zM592 331l-5 9h-103q1 15 3 27l-4 -1q-6 -16 -8 -35h117zM600 309l-3 10h-134q1 24 5 40q-11 -19 -14 -50h146zM604 288l-1 10h-161q1 24 5 40q-11 -19 -14 -50
h171zM312 194v21q-13 -6 -65 -16l2 -5h63zM310 161q-14 -1 -17 -1q-43 0 -58 36l-14 -2q4 -43 57 -43q16 0 31 3zM306 142q-15 -3 -28 -3q-62 0 -69 52l-9 -3q-1 -9 -1 -11q0 -48 58 -48q27 0 47 9zM295 122q-18 -4 -38 -4q-33 0 -51 16q-21 18 -18 50l-5 -2q-5 -11 -5 -26
q0 -48 58 -48q40 0 59 14zM274 102q-18 -5 -38 -5q-69 0 -69 60q0 6 1 13q-11 -13 -11 -35q0 -48 58 -48q39 0 59 15z" />
    <glyph glyph-name="Ccedilla" unicode="&#xc7;" horiz-adv-x="557" 
d="M557 -200h-557v394h22q-1 15 -1 30q0 118 58 184q21 20 62 61q48 50 80 67q41 23 103 23q190 0 208 -184h-24q2 -12 3 -21h-24q2 -12 3 -21h-24q2 -12 3 -21h-24q2 -12 3 -21h-132q-9 71 -72 72q-4 -23 -4 -52q0 -89 40 -117h55l1 4h18q2 10 3 21h18q2 10 3 21h18
q2 10 3 22h132q-3 -38 -16 -68h42v-394zM519 387q-20 160 -195 160q-54 0 -96 -20q35 11 75 11q176 0 204 -151h12zM498 366q-20 160 -195 160q-54 0 -96 -20q35 10 74 10q177 0 204 -150h13zM477 345q-20 160 -196 160q-53 0 -95 -20q34 10 74 10q177 0 204 -150h13z
M456 324q-20 160 -196 160q-53 0 -95 -21q34 11 74 11q176 0 204 -150h13zM518 250h-109l-1 -10h102q-2 -28 -10 -50q14 29 18 60zM497 229h-109l-1 -10h102q-3 -28 -10 -50q14 29 18 60zM476 208h-109l-2 -10h102q-2 -28 -9 -50q14 29 18 60zM455 186h-109l-2 -9h102
q-2 -28 -9 -50q14 29 18 59zM314 171q-86 8 -86 140q0 28 4 52l-5 -1q-8 -29 -8 -72q0 -135 85 -130l9 1zM310 149h-6q-97 -6 -97 141q0 40 7 69l-2 -1q-14 -31 -14 -89q0 -130 85 -130q13 0 25 3zM302 129q-10 -1 -19 -1q-97 0 -97 141q0 45 9 75q-18 -33 -18 -96
q0 -130 85 -130q23 0 38 8zM286 109q-12 -2 -24 -2q-97 0 -97 141q0 45 9 75q-18 -33 -18 -96q0 -130 85 -130q29 0 45 12zM435 302q-20 161 -196 161q-103 0 -157 -70q-49 -63 -49 -169q0 -95 44 -156q50 -69 141 -69l-44 -67l11 -11q21 6 33 6q44 0 44 -37q0 -38 -52 -38
q-18 0 -61 13l-11 -25q53 -20 81 -20q41 0 70 17q34 21 34 59q0 58 -67 58q-8 0 -45 -8l36 53q73 0 125.5 47t60.5 119h-108q-11 -80 -84 -80q-97 0 -97 142q0 148 99 148q70 0 83 -73h109zM408 -19q0 37 -33 51q-6 -6 -15 -12q38 -16 38 -59q0 -9 -1 -18q11 16 11 38z
M387 -40q0 41 -39 53q-9 -6 -18 -10q47 -14 47 -64q0 -8 -1 -17q11 16 11 38zM365 -61q0 51 -57 56q-22 -6 -47 -8l-3 -3q11 2 19 2q35 0 57 -17.5t22 -49.5q0 -9 -2 -18q11 16 11 38zM344 -83q0 58 -67 58q-8 0 -36 -6l-4 -6q11 2 19 2q35 0 57 -18t22 -49q0 -9 -2 -18
q11 16 11 37zM245 -94q-11 10 -27 10q-5 0 -12 -2q25 -7 39 -8zM250 -110v4q-18 1 -59 13l-6 -14q31 -8 46 -8q10 0 18 2zM242 -126q-6 -1 -11 -1q-18 0 -61 13l-6 -14q31 -9 46 -9q24 0 32 11z" />
    <glyph glyph-name="Egrave" unicode="&#xc8;" horiz-adv-x="578" 
d="M588 -200h-588v394h28q-1 17 -1 35q0 118 60 182q20 19 59 58q46 49 81 68q42 23 103 23q114 0 170 -75q50 -67 49 -183v-23h-21l-1 -21h-20l-1 -21h-21v-6h59q-3 -21 -9 -37h53v-394zM537 302q1 246 -207 246q-52 0 -94 -20q34 11 73 11q110 0 166 -71q51 -64 53 -177h9
v11zM516 281q1 246 -207 246q-52 0 -94 -20q34 11 72 11q110 0 167 -71q51 -65 52 -177h10v11zM495 260q1 246 -208 246q-51 0 -93 -20q34 11 72 11q110 0 167 -71q51 -65 52 -177h10v11zM530 219h-45v-3h-21v-6h58q-1 -14 -4 -24q9 17 12 33zM474 239q1 246 -208 246
q-51 0 -93 -20q34 11 72 11q110 0 167 -71q51 -65 52 -178h10v12zM509 198h-45v-3h-66l-4 -7h107q-1 -14 -4 -23q9 17 12 33zM488 177h-110l-5 -10h107q-1 -14 -4 -23q9 17 12 33zM467 156h-110l-5 -10h107q-1 -14 -4 -23q9 17 12 33zM384 195zM453 218q1 246 -208 246
q-101 0 -156 -69q-51 -63 -51 -166q0 -104 53 -165q56 -65 158 -65q68 0 123 35q62 38 74 100h-110q-26 -51 -84 -51q-104 0 -107 123h308v12zM361 170q-12 -3 -25 -3q-45 0 -73 28h-23q24 -37 75 -37q18 0 33 6l2 3h5zM340 149q-12 -3 -25 -3q-62 0 -89 49h-18
q21 -58 86 -58q18 0 33 6l2 3h5zM318 128q-11 -3 -24 -3q-76 0 -98 70h-15q15 -79 92 -79q26 0 45 12zM297 107q-12 -3 -24 -3q-88 0 -104 91h-12q7 -100 95 -100q26 0 45 12zM343 272h-196q13 107 98 107q92 0 98 -107zM301 347q-6 6 -13 10h-57q1 3 2 9h-4q-3 -11 -5 -19
h77zM318 326q-3 5 -6 9h-102q2 16 5 27h-1q-8 -16 -11 -36h115zM326 305l-3 9h-134q3 19 7 33q-10 -18 -14 -42h144zM330 284l-1 9h-161q3 20 6 33q-9 -18 -13 -42h169zM422 647h-35l13 -21h-34l13 -21h-34l13 -21h-34l13 -22h-98l-137 135h43l-22 21h43l-21 22h42l-21 21
h42l-21 21h148zM400 659l-71 111h-114l10 -9h89l65 -102h21zM379 637l-72 112h-113l10 -9h89l65 -103h21zM358 616l-72 112h-113l10 -10h89l65 -102h21zM337 595l-72 112h-113l10 -10h89l65 -102h21zM316 574l-72 112h-113l113 -112h72z" />
    <glyph glyph-name="Eacute" unicode="&#xc9;" horiz-adv-x="578" 
d="M588 -200h-588v394h28q-1 17 -1 35q0 118 60 182q20 19 59 58q46 49 81 68q42 23 103 23q114 0 170 -75q50 -67 49 -183v-23h-21l-1 -21h-20l-1 -21h-21v-6h59q-3 -21 -9 -37h53v-394zM537 302q1 246 -207 246q-52 0 -94 -20q34 11 73 11q110 0 166 -71q51 -64 53 -177h9
v11zM516 281q1 246 -207 246q-52 0 -94 -20q34 11 72 11q110 0 167 -71q51 -65 52 -177h10v11zM495 260q1 246 -208 246q-51 0 -93 -20q34 11 72 11q110 0 167 -71q51 -65 52 -177h10v11zM530 219h-45v-3h-21v-6h58q-1 -14 -4 -24q9 17 12 33zM474 239q1 246 -208 246
q-51 0 -93 -20q34 11 72 11q110 0 167 -71q51 -65 52 -178h10v12zM509 198h-45v-3h-66l-4 -7h107q-1 -14 -4 -23q9 17 12 33zM488 177h-110l-5 -10h107q-1 -14 -4 -23q9 17 12 33zM467 156h-110l-5 -10h107q-1 -14 -4 -23q9 17 12 33zM384 195zM453 218q1 246 -208 246
q-101 0 -156 -69q-51 -63 -51 -166q0 -104 53 -165q56 -65 158 -65q68 0 123 35q62 38 74 100h-110q-26 -51 -84 -51q-104 0 -107 123h308v12zM361 170q-12 -3 -25 -3q-45 0 -73 28h-23q24 -37 75 -37q18 0 33 6l2 3h5zM340 149q-12 -3 -25 -3q-62 0 -89 49h-18
q21 -58 86 -58q18 0 33 6l2 3h5zM318 128q-11 -3 -24 -3q-76 0 -98 70h-15q15 -79 92 -79q26 0 45 12zM297 107q-12 -3 -24 -3q-88 0 -104 91h-12q7 -100 95 -100q26 0 45 12zM343 272h-196q13 107 98 107q92 0 98 -107zM301 347q-6 6 -13 10h-57q1 3 2 9h-4q-3 -11 -5 -19
h77zM318 326q-3 5 -6 9h-102q2 16 5 27h-1q-8 -16 -11 -36h115zM326 305l-3 9h-134q3 19 7 33q-10 -18 -14 -42h144zM330 284l-1 9h-161q3 20 6 33q-9 -18 -13 -42h169zM463 782l-222 -220h-98l86 135h8l14 21h8l13 22h8l13 21h8l14 21h148zM435 770h-114l-6 -9h110z
M413 749h-113l-6 -9h110zM392 728h-113l-6 -10h110zM371 707h-114l-6 -10h110zM349 686h-113l-72 -112h72z" />
    <glyph glyph-name="Ecircumflex" unicode="&#xca;" horiz-adv-x="578" 
d="M588 -200h-588v394h28q-1 17 -1 35q0 118 60 182q20 19 59 58q46 49 81 68q42 23 103 23q114 0 170 -75q50 -67 49 -183v-23h-21l-1 -21h-20l-1 -21h-21v-6h59q-3 -21 -9 -37h53v-394zM537 302q1 246 -207 246q-52 0 -94 -20q34 11 73 11q110 0 166 -71q51 -64 53 -177h9
v11zM516 281q1 246 -207 246q-52 0 -94 -20q34 11 72 11q110 0 167 -71q51 -65 52 -177h10v11zM495 260q1 246 -208 246q-51 0 -93 -20q34 11 72 11q110 0 167 -71q51 -65 52 -177h10v11zM530 219h-45v-3h-21v-6h58q-1 -14 -4 -24q9 17 12 33zM474 239q1 246 -208 246
q-51 0 -93 -20q34 11 72 11q110 0 167 -71q51 -65 52 -178h10v12zM509 198h-45v-3h-66l-4 -7h107q-1 -14 -4 -23q9 17 12 33zM488 177h-110l-5 -10h107q-1 -14 -4 -23q9 17 12 33zM467 156h-110l-5 -10h107q-1 -14 -4 -23q9 17 12 33zM384 195zM453 218q1 246 -208 246
q-101 0 -156 -69q-51 -63 -51 -166q0 -104 53 -165q56 -65 158 -65q68 0 123 35q62 38 74 100h-110q-26 -51 -84 -51q-104 0 -107 123h308v12zM361 170q-12 -3 -25 -3q-45 0 -73 28h-23q24 -37 75 -37q18 0 33 6l2 3h5zM340 149q-12 -3 -25 -3q-62 0 -89 49h-18
q21 -58 86 -58q18 0 33 6l2 3h5zM318 128q-11 -3 -24 -3q-76 0 -98 70h-15q15 -79 92 -79q26 0 45 12zM297 107q-12 -3 -24 -3q-88 0 -104 91h-12q7 -100 95 -100q26 0 45 12zM343 272h-196q13 107 98 107q92 0 98 -107zM301 347q-6 6 -13 10h-57q1 3 2 9h-4q-3 -11 -5 -19
h77zM318 326q-3 5 -6 9h-102q2 16 5 27h-1q-8 -16 -11 -36h115zM326 305l-3 9h-134q3 19 7 33q-10 -18 -14 -42h144zM330 284l-1 9h-161q3 20 6 33q-9 -18 -13 -42h169zM470 647h-33l16 -21h-33l16 -21h-33l17 -21h-34l17 -22h-111l-50 65q0 -1 -1 -1l-17 -21v0l-17 -21v0
l-17 -22h-110l106 135v0l17 21v0l17 22v0l17 21v0l16 21h112zM446 659l-87 111h-100l-7 -9h96l80 -102h18zM429 637l-87 112h-100l-7 -9h96l80 -103h18zM412 616l-87 112h-100l-7 -10h96l80 -102h18zM396 595l-88 112h-100l-7 -10h96l80 -102h19zM379 574l-88 112h-99
l-88 -112h81l56 73l57 -73h81z" />
    <glyph glyph-name="Edieresis" unicode="&#xcb;" horiz-adv-x="578" 
d="M588 -200h-588v394h28q-1 17 -1 35q0 118 60 182q20 19 59 58q46 49 81 68q42 23 103 23q114 0 170 -75q50 -67 49 -183v-23h-21l-1 -21h-20l-1 -21h-21v-6h59q-3 -21 -9 -37h53v-394zM537 302q1 246 -207 246q-52 0 -94 -20q34 11 73 11q110 0 166 -71q51 -64 53 -177h9
v11zM516 281q1 246 -207 246q-52 0 -94 -20q34 11 72 11q110 0 167 -71q51 -65 52 -177h10v11zM495 260q1 246 -208 246q-51 0 -93 -20q34 11 72 11q110 0 167 -71q51 -65 52 -177h10v11zM530 219h-45v-3h-21v-6h58q-1 -14 -4 -24q9 17 12 33zM474 239q1 246 -208 246
q-51 0 -93 -20q34 11 72 11q110 0 167 -71q51 -65 52 -178h10v12zM509 198h-45v-3h-66l-4 -7h107q-1 -14 -4 -23q9 17 12 33zM488 177h-110l-5 -10h107q-1 -14 -4 -23q9 17 12 33zM467 156h-110l-5 -10h107q-1 -14 -4 -23q9 17 12 33zM384 195zM453 218q1 246 -208 246
q-101 0 -156 -69q-51 -63 -51 -166q0 -104 53 -165q56 -65 158 -65q68 0 123 35q62 38 74 100h-110q-26 -51 -84 -51q-104 0 -107 123h308v12zM361 170q-12 -3 -25 -3q-45 0 -73 28h-23q24 -37 75 -37q18 0 33 6l2 3h5zM340 149q-12 -3 -25 -3q-62 0 -89 49h-18
q21 -58 86 -58q18 0 33 6l2 3h5zM318 128q-11 -3 -24 -3q-76 0 -98 70h-15q15 -79 92 -79q26 0 45 12zM297 107q-12 -3 -24 -3q-88 0 -104 91h-12q7 -100 95 -100q26 0 45 12zM343 272h-196q13 107 98 107q92 0 98 -107zM301 347q-6 6 -13 10h-57q1 3 2 9h-4q-3 -11 -5 -19
h77zM318 326q-3 5 -6 9h-102q2 16 5 27h-1q-8 -16 -11 -36h115zM326 305l-3 9h-134q3 19 7 33q-10 -18 -14 -42h144zM330 284l-1 9h-161q3 20 6 33q-9 -18 -13 -42h169z" />
    <glyph glyph-name="Igrave" unicode="&#xcc;" horiz-adv-x="292" 
d="M312 -200h-312v394h38v267h22v21h21v21h21v21h21v21h129v-351h60v-394zM240 99v435h-105v-10h96v-425h9zM219 78v434h-106v-9h97v-425h9zM198 57v434h-106v-9h97v-425h9zM177 35v435h-106v-9h97v-426h9zM156 14v435h-106v-435h106zM272 647h-35l13 -21h-34l13 -21h-34
l13 -21h-34l13 -22h-98l-137 135h43l-22 21h43l-21 22h42l-21 21h42l-21 21h148zM250 659l-71 111h-114l10 -9h89l65 -102h21zM229 637l-72 112h-113l10 -9h89l65 -103h21zM208 616l-72 112h-113l10 -10h89l65 -102h21zM187 595l-72 112h-113l10 -10h89l65 -102h21zM166 574
l-72 112h-113l113 -112h72z" />
    <glyph glyph-name="Iacute" unicode="&#xcd;" horiz-adv-x="292" 
d="M312 -200h-312v394h38v267h22v21h21v21h21v21h21v21h129v-351h60v-394zM240 99v435h-105v-10h96v-425h9zM219 78v434h-106v-9h97v-425h9zM198 57v434h-106v-9h97v-425h9zM177 35v435h-106v-9h97v-426h9zM156 14v435h-106v-435h106zM323 782l-222 -220h-98l86 135h8l14 21
h8l13 22h8l13 21h8l14 21h148zM295 770h-114l-6 -9h110zM273 749h-113l-6 -9h110zM252 728h-113l-6 -10h110zM231 707h-114l-6 -10h110zM209 686h-113l-72 -112h72z" />
    <glyph glyph-name="Icircumflex" unicode="&#xce;" horiz-adv-x="292" 
d="M312 -200h-312v394h38v267h22v21h21v21h21v21h21v21h129v-351h60v-394zM240 99v435h-105v-10h96v-425h9zM219 78v434h-106v-9h97v-425h9zM198 57v434h-106v-9h97v-425h9zM177 35v435h-106v-9h97v-426h9zM156 14v435h-106v-435h106zM330 647h-33l16 -21h-33l16 -21h-33
l17 -21h-34l17 -22h-111l-50 65q0 -1 -1 -1l-17 -21v0l-17 -21v0l-17 -22h-110l106 135v0l17 21v0l17 22v0l17 21v0l16 21h112zM306 659l-87 111h-100l-7 -9h96l80 -102h18zM289 637l-87 112h-100l-7 -9h96l80 -103h18zM272 616l-87 112h-100l-7 -10h96l80 -102h18zM256 595
l-88 112h-100l-7 -10h96l80 -102h19zM239 574l-88 112h-99l-88 -112h81l56 73l57 -73h81z" />
    <glyph glyph-name="Idieresis" unicode="&#xcf;" horiz-adv-x="292" 
d="M282 -200h-312v394h38v267h22v21h21v21h21v21h21v21h129v-351h60v-394zM210 99v435h-105v-10h96v-425h9zM189 78v434h-106v-9h97v-425h9zM168 57v434h-106v-9h97v-425h9zM147 35v435h-106v-9h97v-426h9zM126 14v435h-106v-435h106z" />
    <glyph glyph-name="Eth" unicode="&#xd0;" horiz-adv-x="579" 
d="M599 -200h-599v394h25q-1 26 -1 32q0 67 33 114q2 2 83 87q18 21 60 56l-4 4l-92 -41l-51 51l30 13l-9 8l30 13l-8 8l29 13q-7 7 -31 26l30 14l-9 7l30 14l-9 7l30 14l-9 8l30 13l-9 8l109 48l52 -38l75 33l51 -52l-30 -12l9 -9l-30 -12l9 -9l-14 -6q72 -76 104 -139
q41 -78 41 -168q0 -58 -22 -105h67v-394zM445 658l-33 34l-18 -8l33 -33zM424 637l-33 34l-18 -8l32 -33zM402 616l-33 34l-17 -8l32 -33zM336 660q-16 13 -51 37l-19 -8q17 -11 52 -37zM381 595l-33 33l-18 -7l33 -33zM315 639q-16 13 -51 37l-19 -8q17 -11 52 -37z
M294 618q-17 13 -51 37l-19 -8q17 -11 51 -37zM543 299q0 89 -42 166q-32 60 -104 136l-4 -1l9 -9l-14 -6q72 -76 104 -139q41 -78 41 -168q0 -42 -12 -80q22 46 22 101zM273 597q-17 12 -51 37l-19 -8q17 -11 51 -38zM522 278q0 89 -42 166q-32 60 -104 136l-4 -1l9 -9
l-14 -6q71 -76 104 -139q41 -79 41 -168q0 -42 -12 -80q22 46 22 101zM501 257q0 88 -42 166q-32 60 -104 136l-18 -7q77 -81 110 -143q44 -80 44 -173q0 -42 -12 -80q22 45 22 101zM479 236q0 91 -44 171q-33 59 -110 140l-18 -7q82 -86 116 -146q47 -83 47 -179
q0 -42 -12 -80q21 45 21 101zM218 467l-2 2l-11 -5zM235 450l-6 7q-25 -4 -45 -14q24 7 51 7zM258 426l-12 13h-7q-40 0 -76 -18q26 8 55 8q23 0 40 -3zM458 215q0 97 -50 182q-34 56 -121 147l73 30l-33 33l-74 -32q-17 13 -52 38l-85 -38q31 -25 53 -40l-95 -42l33 -33
l91 41q39 -34 96 -96q-47 13 -76 13q-82 0 -134 -62q-48 -58 -48 -142q0 -97 58.5 -154.5t155.5 -57.5q95 0 151.5 59t56.5 154zM354 218q0 -58 -24 -94q-28 -42 -83 -42q-53 0 -81 40q-24 34 -24 90q0 58 24 92q28 41 83 41q52 0 80 -39q25 -33 25 -88zM342 218
q0 48 -20 80q-23 37 -68 35h-13q-3 -18 -3 -37q0 -72 42 -102h61q1 12 1 24zM336 167l-11 -1q-50 -1 -76 40q-23 36 -23 90q0 18 3 35l-5 -1q-7 -24 -7 -55q0 -50 21 -82q25 -36 73 -36q11 0 23 3zM329 147q-10 -2 -18 -2q-53 0 -81 40q-25 35 -25 90q0 28 6 51l-2 -1
q-13 -28 -13 -71q0 -51 21 -82q24 -36 73 -36q21 0 38 7zM317 128q-13 -4 -27 -4q-54 0 -82 40q-24 35 -24 90q0 31 7 56q-16 -29 -16 -77q0 -51 21 -82q24 -36 72 -36q29 0 49 13zM296 107q-13 -4 -28 -4q-53 0 -81 40q-24 34 -24 90q0 31 7 57q-17 -30 -17 -78
q0 -51 22 -82q24 -36 72 -36q29 0 49 13z" />
    <glyph glyph-name="Ntilde" unicode="&#xd1;" horiz-adv-x="578" 
d="M588 -200h-588v394h37v269h21v21h21v21h21v21h21v21h126v-49q34 35 56 46q29 15 72 15q165 0 165 -164v-201h48v-394zM528 99v296q0 152 -153 152q-41 0 -72 -16q23 7 51 7q164 0 164 -164v-275h10zM507 78v296q0 152 -153 152q-42 0 -72 -16q23 6 51 6q164 0 164 -163
v-275h10zM235 486v49h-102v-9h92v-49q5 4 10 9zM486 57v296q0 152 -153 152q-42 0 -73 -16q24 6 52 6q164 0 164 -163v-275h10zM214 464v50h-102v-9h92v-49zM465 35v297q0 152 -153 152q-42 0 -73 -17q24 7 52 7q164 0 164 -163v-276h10zM193 443v50h-102v-9h92v-49z
M323 194v88q0 85 -64 83h-7q-2 -15 -2 -29v-142h73zM171 422v50h-101v-9h92v-53zM443 14v297q0 152 -152 152q-53 0 -84 -24q-24 -17 -57 -67v79h-101v-437h105v238q0 125 100 125q81 0 81 -95v-268h108zM240 364l-5 -1q-6 -21 -6 -45v-219h10v237q0 14 1 28zM222 360l-3 -1
q-11 -26 -11 -65v-216h9v237q0 24 5 45zM203 348q-16 -27 -16 -72v-219h9v237q0 30 7 54zM182 327q-16 -27 -16 -72v-220h9v238q0 30 7 54zM487 772q-12 -74 -50 -100q-8 -12 -21 -21q-8 -12 -21 -21q-8 -12 -22 -21q-21 -35 -71 -35q-22 0 -62 14.5t-60 14.5q-6 0 -10 -1
q-2 -4 -4 -13h-13q-5 -7 -8 -21h-66q11 51 26 74q10 14 41 44q43 40 46 43q37 39 81 39q18 0 45 -11t35 -12q24 -9 33 -9q5 0 10 1l4 14h13q5 9 8 21h66zM473 760h-43q-2 -4 -4 -9h40q-3 -19 -7 -33q9 19 14 42zM452 739h-43q-2 -4 -4 -9h40q-3 -19 -7 -33q9 19 14 42z
M431 718h-44q-1 -4 -3 -9h40q-3 -19 -8 -33q10 19 15 42zM410 697h-44q-1 -4 -3 -9h40q-3 -19 -8 -34q10 20 15 43zM378 725q-26 6 -66 23l-2 1q-17 7 -37 7q-29 0 -49 -12q13 3 28 3t47.5 -11.5l32.5 -11.5q24 -9 33 -9q5 0 8 2t5 8zM357 704q-19 4 -66 23q-1 0 -2 1
q-20 7 -37 7q-29 0 -49 -13q13 4 27 4q16 0 48.5 -11.5l32.5 -11.5q24 -9 33 -9q5 0 8 2t5 8zM335 683q-25 6 -65 23h-2q-17 8 -38 8q-28 0 -48 -13q13 3 27 3q16 0 48.5 -11l32.5 -11q23 -9 33 -9q5 0 8 2t4 8zM326 662q-9 -1 -43.5 10t-35.5 13q-20 8 -38 8q-28 0 -48 -13
q13 3 27 3q19 0 49.5 -11t31.5 -11q23 -9 33 -9q19 0 24 10zM389 676h-44q-11 -36 -43 -36q-8 0 -41 11t-35 13q-20 8 -38 8q-73 0 -94 -92h42q11 35 44 35q13 0 31 -6q25 -9 31 -10q51 -13 60 -13q68 0 87 90z" />
    <glyph glyph-name="Ograve" unicode="&#xd2;" horiz-adv-x="609" 
d="M619 -200h-619v394h28q-2 19 -2 38q0 102 58 172q1 2 45 46q68 69 93 84q47 28 123 28q110 0 173 -67.5t63 -177.5q0 -68 -27 -123h65v-394zM569 317q0 105 -59.5 169.5t-164.5 64.5q-63 0 -108 -23q39 13 87 13q110 0 173 -67.5t63 -177.5q0 -49 -14 -92q23 51 23 113z
M548 296q0 105 -59.5 169.5t-164.5 64.5q-63 0 -108 -23q39 13 87 13q110 0 173 -67.5t63 -178.5q0 -48 -14 -91q23 51 23 113zM527 274q0 106 -59.5 170t-164.5 64q-63 0 -109 -22q40 13 88 13q109 0 172.5 -67.5t63.5 -178.5q0 -48 -15 -91q24 51 24 112zM506 253
q0 106 -59.5 170t-164.5 64q-63 0 -109 -22q40 13 88 13q109 0 172 -67.5t63 -178.5q0 -49 -14 -91q24 51 24 112zM485 232q0 106 -60 170t-164 64t-164 -64t-60 -170t59.5 -169.5t164.5 -63.5t164.5 63.5t59.5 169.5zM373 232q0 -147 -112 -147q-113 0 -113 147t113 147
q112 0 112 -147zM361 232q0 139 -100 135l-12 -1q-5 -23 -5 -49q0 -94 52 -124l62 1q3 21 3 38zM354 170h-9q-59 -4 -89 43q-24 40 -24 104q0 25 4 48l-3 -1q-10 -30 -10 -68q0 -136 101 -136q15 0 28 4zM347 151q-13 -2 -23 -2q-113 0 -113 147q0 35 8 63h-1
q-17 -33 -17 -85q0 -135 102 -135q23 0 42 9zM333 131q-15 -3 -30 -3q-113 0 -113 146q0 37 8 66q-18 -34 -18 -87q0 -135 102 -135q30 0 51 13zM312 110q-15 -3 -30 -3q-113 0 -113 146q0 37 8 66q-18 -33 -18 -87q0 -135 102 -135q30 0 51 13zM422 647h-35l13 -21h-34
l13 -21h-34l13 -21h-34l13 -22h-98l-137 135h43l-22 21h43l-21 22h42l-21 21h42l-21 21h148zM400 659l-71 111h-114l10 -9h89l65 -102h21zM379 637l-72 112h-113l10 -9h89l65 -103h21zM358 616l-72 112h-113l10 -10h89l65 -102h21zM337 595l-72 112h-113l10 -10h89l65 -102
h21zM316 574l-72 112h-113l113 -112h72z" />
    <glyph glyph-name="Oacute" unicode="&#xd3;" horiz-adv-x="609" 
d="M619 -200h-619v394h28q-2 19 -2 38q0 102 58 172q1 2 45 46q68 69 93 84q47 28 123 28q110 0 173 -67.5t63 -177.5q0 -68 -27 -123h65v-394zM569 317q0 105 -59.5 169.5t-164.5 64.5q-63 0 -108 -23q39 13 87 13q110 0 173 -67.5t63 -177.5q0 -49 -14 -92q23 51 23 113z
M548 296q0 105 -59.5 169.5t-164.5 64.5q-63 0 -108 -23q39 13 87 13q110 0 173 -67.5t63 -178.5q0 -48 -14 -91q23 51 23 113zM527 274q0 106 -59.5 170t-164.5 64q-63 0 -109 -22q40 13 88 13q109 0 172.5 -67.5t63.5 -178.5q0 -48 -15 -91q24 51 24 112zM506 253
q0 106 -59.5 170t-164.5 64q-63 0 -109 -22q40 13 88 13q109 0 172 -67.5t63 -178.5q0 -49 -14 -91q24 51 24 112zM485 232q0 106 -60 170t-164 64t-164 -64t-60 -170t59.5 -169.5t164.5 -63.5t164.5 63.5t59.5 169.5zM373 232q0 -147 -112 -147q-113 0 -113 147t113 147
q112 0 112 -147zM361 232q0 139 -100 135l-12 -1q-5 -23 -5 -49q0 -94 52 -124l62 1q3 21 3 38zM354 170h-9q-59 -4 -89 43q-24 40 -24 104q0 25 4 48l-3 -1q-10 -30 -10 -68q0 -136 101 -136q15 0 28 4zM347 151q-13 -2 -23 -2q-113 0 -113 147q0 35 8 63h-1
q-17 -33 -17 -85q0 -135 102 -135q23 0 42 9zM333 131q-15 -3 -30 -3q-113 0 -113 146q0 37 8 66q-18 -34 -18 -87q0 -135 102 -135q30 0 51 13zM312 110q-15 -3 -30 -3q-113 0 -113 146q0 37 8 66q-18 -33 -18 -87q0 -135 102 -135q30 0 51 13zM488 782l-222 -220h-98
l86 135h8l14 21h8l13 22h8l13 21h8l14 21h148zM460 770h-114l-6 -9h110zM438 749h-113l-6 -9h110zM417 728h-113l-6 -10h110zM396 707h-114l-6 -10h110zM374 686h-113l-72 -112h72z" />
    <glyph glyph-name="Ocircumflex" unicode="&#xd4;" horiz-adv-x="609" 
d="M619 -200h-619v394h28q-2 19 -2 38q0 102 58 172q1 2 45 46q68 69 93 84q47 28 123 28q110 0 173 -67.5t63 -177.5q0 -68 -27 -123h65v-394zM569 317q0 105 -59.5 169.5t-164.5 64.5q-63 0 -108 -23q39 13 87 13q110 0 173 -67.5t63 -177.5q0 -49 -14 -92q23 51 23 113z
M548 296q0 105 -59.5 169.5t-164.5 64.5q-63 0 -108 -23q39 13 87 13q110 0 173 -67.5t63 -178.5q0 -48 -14 -91q23 51 23 113zM527 274q0 106 -59.5 170t-164.5 64q-63 0 -109 -22q40 13 88 13q109 0 172.5 -67.5t63.5 -178.5q0 -48 -15 -91q24 51 24 112zM506 253
q0 106 -59.5 170t-164.5 64q-63 0 -109 -22q40 13 88 13q109 0 172 -67.5t63 -178.5q0 -49 -14 -91q24 51 24 112zM485 232q0 106 -60 170t-164 64t-164 -64t-60 -170t59.5 -169.5t164.5 -63.5t164.5 63.5t59.5 169.5zM373 232q0 -147 -112 -147q-113 0 -113 147t113 147
q112 0 112 -147zM361 232q0 139 -100 135l-12 -1q-5 -23 -5 -49q0 -94 52 -124l62 1q3 21 3 38zM354 170h-9q-59 -4 -89 43q-24 40 -24 104q0 25 4 48l-3 -1q-10 -30 -10 -68q0 -136 101 -136q15 0 28 4zM347 151q-13 -2 -23 -2q-113 0 -113 147q0 35 8 63h-1
q-17 -33 -17 -85q0 -135 102 -135q23 0 42 9zM333 131q-15 -3 -30 -3q-113 0 -113 146q0 37 8 66q-18 -34 -18 -87q0 -135 102 -135q30 0 51 13zM312 110q-15 -3 -30 -3q-113 0 -113 146q0 37 8 66q-18 -33 -18 -87q0 -135 102 -135q30 0 51 13zM490 647h-33l16 -21h-33
l16 -21h-33l17 -21h-34l17 -22h-111l-50 65q0 -1 -1 -1l-17 -21v0l-17 -21v0l-17 -22h-110l106 135v0l17 21v0l17 22v0l17 21v0l16 21h112zM466 659l-87 111h-100l-7 -9h96l80 -102h18zM449 637l-87 112h-100l-7 -9h96l80 -103h18zM432 616l-87 112h-100l-7 -10h96l80 -102
h18zM416 595l-88 112h-100l-7 -10h96l80 -102h19zM399 574l-88 112h-99l-88 -112h81l56 73l57 -73h81z" />
    <glyph glyph-name="Otilde" unicode="&#xd5;" horiz-adv-x="609" 
d="M619 -200h-619v394h28q-2 19 -2 38q0 102 58 172q1 2 45 46q68 69 93 84q47 28 123 28q110 0 173 -67.5t63 -177.5q0 -68 -27 -123h65v-394zM569 317q0 105 -59.5 169.5t-164.5 64.5q-63 0 -108 -23q39 13 87 13q110 0 173 -67.5t63 -177.5q0 -49 -14 -92q23 51 23 113z
M548 296q0 105 -59.5 169.5t-164.5 64.5q-63 0 -108 -23q39 13 87 13q110 0 173 -67.5t63 -178.5q0 -48 -14 -91q23 51 23 113zM527 274q0 106 -59.5 170t-164.5 64q-63 0 -109 -22q40 13 88 13q109 0 172.5 -67.5t63.5 -178.5q0 -48 -15 -91q24 51 24 112zM506 253
q0 106 -59.5 170t-164.5 64q-63 0 -109 -22q40 13 88 13q109 0 172 -67.5t63 -178.5q0 -49 -14 -91q24 51 24 112zM485 232q0 106 -60 170t-164 64t-164 -64t-60 -170t59.5 -169.5t164.5 -63.5t164.5 63.5t59.5 169.5zM373 232q0 -147 -112 -147q-113 0 -113 147t113 147
q112 0 112 -147zM361 232q0 139 -100 135l-12 -1q-5 -23 -5 -49q0 -94 52 -124l62 1q3 21 3 38zM354 170h-9q-59 -4 -89 43q-24 40 -24 104q0 25 4 48l-3 -1q-10 -30 -10 -68q0 -136 101 -136q15 0 28 4zM347 151q-13 -2 -23 -2q-113 0 -113 147q0 35 8 63h-1
q-17 -33 -17 -85q0 -135 102 -135q23 0 42 9zM333 131q-15 -3 -30 -3q-113 0 -113 146q0 37 8 66q-18 -34 -18 -87q0 -135 102 -135q30 0 51 13zM312 110q-15 -3 -30 -3q-113 0 -113 146q0 37 8 66q-18 -33 -18 -87q0 -135 102 -135q30 0 51 13zM497 772q-12 -74 -50 -100
q-8 -12 -21 -21q-8 -12 -21 -21q-8 -12 -22 -21q-21 -35 -71 -35q-22 0 -62 14.5t-60 14.5q-6 0 -10 -1q-2 -4 -4 -13h-13q-5 -7 -8 -21h-66q11 51 26 74q10 14 41 44q43 40 46 43q37 39 81 39q18 0 45 -11t35 -12q24 -9 33 -9q5 0 10 1l4 14h13q5 9 8 21h66zM483 760h-43
q-2 -4 -4 -9h40q-3 -19 -7 -33q9 19 14 42zM462 739h-43q-2 -4 -4 -9h40q-3 -19 -7 -33q9 19 14 42zM441 718h-44q-1 -4 -3 -9h40q-3 -19 -8 -33q10 19 15 42zM420 697h-44q-1 -4 -3 -9h40q-3 -19 -8 -34q10 20 15 43zM388 725q-26 6 -66 23l-2 1q-17 7 -37 7q-29 0 -49 -12
q13 3 28 3t47.5 -11.5l32.5 -11.5q24 -9 33 -9q5 0 8 2t5 8zM367 704q-19 4 -66 23q-1 0 -2 1q-20 7 -37 7q-29 0 -49 -13q13 4 27 4q16 0 48.5 -11.5l32.5 -11.5q24 -9 33 -9q5 0 8 2t5 8zM345 683q-25 6 -65 23h-2q-17 8 -38 8q-28 0 -48 -13q13 3 27 3q16 0 48.5 -11
l32.5 -11q23 -9 33 -9q5 0 8 2t4 8zM336 662q-9 -1 -43.5 10t-35.5 13q-20 8 -38 8q-28 0 -48 -13q13 3 27 3q19 0 49.5 -11t31.5 -11q23 -9 33 -9q19 0 24 10zM399 676h-44q-11 -36 -43 -36q-8 0 -41 11t-35 13q-20 8 -38 8q-73 0 -94 -92h42q11 35 44 35q13 0 31 -6
q25 -9 31 -10q51 -13 60 -13q68 0 87 90z" />
    <glyph glyph-name="Odieresis" unicode="&#xd6;" horiz-adv-x="609" 
d="M619 -200h-619v394h28q-2 19 -2 38q0 102 58 172q1 2 45 46q68 69 93 84q47 28 123 28q110 0 173 -67.5t63 -177.5q0 -68 -27 -123h65v-394zM569 317q0 105 -59.5 169.5t-164.5 64.5q-63 0 -108 -23q39 13 87 13q110 0 173 -67.5t63 -177.5q0 -49 -14 -92q23 51 23 113z
M548 296q0 105 -59.5 169.5t-164.5 64.5q-63 0 -108 -23q39 13 87 13q110 0 173 -67.5t63 -178.5q0 -48 -14 -91q23 51 23 113zM527 274q0 106 -59.5 170t-164.5 64q-63 0 -109 -22q40 13 88 13q109 0 172.5 -67.5t63.5 -178.5q0 -48 -15 -91q24 51 24 112zM506 253
q0 106 -59.5 170t-164.5 64q-63 0 -109 -22q40 13 88 13q109 0 172 -67.5t63 -178.5q0 -49 -14 -91q24 51 24 112zM485 232q0 106 -60 170t-164 64t-164 -64t-60 -170t59.5 -169.5t164.5 -63.5t164.5 63.5t59.5 169.5zM373 232q0 -147 -112 -147q-113 0 -113 147t113 147
q112 0 112 -147zM361 232q0 139 -100 135l-12 -1q-5 -23 -5 -49q0 -94 52 -124l62 1q3 21 3 38zM354 170h-9q-59 -4 -89 43q-24 40 -24 104q0 25 4 48l-3 -1q-10 -30 -10 -68q0 -136 101 -136q15 0 28 4zM347 151q-13 -2 -23 -2q-113 0 -113 147q0 35 8 63h-1
q-17 -33 -17 -85q0 -135 102 -135q23 0 42 9zM333 131q-15 -3 -30 -3q-113 0 -113 146q0 37 8 66q-18 -34 -18 -87q0 -135 102 -135q30 0 51 13zM312 110q-15 -3 -30 -3q-113 0 -113 146q0 37 8 66q-18 -33 -18 -87q0 -135 102 -135q30 0 51 13z" />
    <glyph glyph-name="Oslash" unicode="&#xd8;" horiz-adv-x="625" 
d="M645 -200h-645v394h39q-3 21 -3 41q0 78 33 133q23 39 91 104q58 57 82 70q40 23 105 23q99 0 160 -48q21 22 60 61l37 -37l-60 -62q47 -65 47 -156q0 -73 -28 -129h82v-394zM587 541l-21 19l-12 -13l20 -19zM566 520l-21 19l-12 -13l20 -19zM545 498l-21 20l-12 -13
l20 -20zM524 477l-21 20l-13 -13l21 -20zM499 509q-58 45 -152 45q-52 0 -94 -21q34 11 73 11q99 0 160 -48zM580 323q0 86 -45 148l-12 -13q47 -65 47 -156q0 -52 -14 -96q24 52 24 117zM477 488q-57 44 -151 44q-52 0 -94 -20q34 11 73 11q99 0 160 -48zM558 302
q0 86 -44 148l-12 -13q47 -66 47 -156q0 -52 -15 -96q24 52 24 117zM457 467q-58 44 -152 44q-52 0 -95 -20q35 11 74 11q99 0 161 -48zM537 281q0 86 -44 148l-12 -13q47 -66 47 -156q0 -52 -15 -96q24 52 24 117zM436 445q-58 45 -152 45q-52 0 -95 -20q35 11 74 11
q99 0 161 -49zM516 260q0 86 -44 147l-13 -13q48 -65 48 -155q0 -52 -15 -96q24 52 24 117zM503 456l-21 20l-57 -60q-62 53 -162 53q-99 0 -159 -69q-56 -65 -56 -165q0 -98 50 -165l-57 -58l21 -18l55 58q66 -52 149 -52q107 0 168 66t61 173q0 91 -51 157zM355 344
l-180 -192q-17 37 -17 86q0 59 25 98q30 46 86 46t86 -38zM384 233q0 -59 -25 -98q-29 -48 -84 -48q-46 0 -85 39l182 193q12 -55 12 -86zM340 344q-26 26 -63 26q-4 0 -18 -1q-5 -22 -5 -47q0 -37 8 -60zM372 233q0 27 -6 58l-75 -80q12 -12 21 -17h57q3 19 3 39zM253 252
q-11 27 -11 70q0 24 5 46l-3 -1q-11 -30 -11 -66q0 -38 8 -62zM232 230q-11 27 -11 71q0 34 8 61v0q-17 -33 -17 -82q0 -38 8 -63zM363 172h-16q-31 -1 -65 31l-12 -13q29 -27 68 -27q11 0 23 2zM211 208q-11 27 -11 72q0 34 8 61q-17 -33 -17 -82q0 -39 8 -64zM356 152
q-10 -1 -18 -1q-44 0 -77 31l-12 -13q29 -28 68 -28q20 0 37 8zM190 186q-11 27 -11 73q0 34 9 62q-18 -33 -18 -83q0 -40 9 -65zM343 132q-13 -2 -26 -2q-44 0 -77 31l-13 -13q30 -28 69 -28q27 0 47 12zM322 112q-13 -3 -26 -3q-44 0 -77 31l-13 -13q29 -28 69 -28
q27 0 47 13z" />
    <glyph glyph-name="Ugrave" unicode="&#xd9;" horiz-adv-x="582" 
d="M602 -200h-602v394h36v258h21v21h21v21h21v21h21v21h132v-276q0 -45 15 -66h55v258h21v21h21v21h22v21h21v21h131v-342h64v-394zM526 87v438h-108v-10h98v-428h10zM505 66v437h-108v-9h98v-428h10zM484 45v437h-108v-9h98v-428h10zM462 24v437h-107v-9h98v-428h9z
M319 162h-6q-72 -2 -72 98v265h-109v-10h99v-277q0 -86 66 -86q10 0 20 2zM314 142q-9 -1 -17 -1q-78 0 -78 97v265h-108v-9h99v-277q0 -86 66 -86q20 0 36 7zM305 123q-14 -3 -29 -3q-78 0 -78 97v265h-108v-9h99v-277q0 -86 66 -86q30 0 50 13zM441 3v437h-107v-238
q0 -125 -100 -125q-78 0 -78 98v265h-108v-265q0 -88 28 -131q35 -51 119 -51q52 0 84 21q21 14 60 63v-74h102zM284 102q-14 -3 -29 -3q-78 0 -78 97v265h-108v-9h99v-277q0 -86 66 -86q30 0 50 13zM422 647h-35l13 -21h-34l13 -21h-34l13 -21h-34l13 -22h-98l-137 135h43
l-22 21h43l-21 22h42l-21 21h42l-21 21h148zM400 659l-71 111h-114l10 -9h89l65 -102h21zM379 637l-72 112h-113l10 -9h89l65 -103h21zM358 616l-72 112h-113l10 -10h89l65 -102h21zM337 595l-72 112h-113l10 -10h89l65 -102h21zM316 574l-72 112h-113l113 -112h72z" />
    <glyph glyph-name="Uacute" unicode="&#xda;" horiz-adv-x="582" 
d="M602 -200h-602v394h36v258h21v21h21v21h21v21h21v21h132v-276q0 -45 15 -66h55v258h21v21h21v21h22v21h21v21h131v-342h64v-394zM526 87v438h-108v-10h98v-428h10zM505 66v437h-108v-9h98v-428h10zM484 45v437h-108v-9h98v-428h10zM462 24v437h-107v-9h98v-428h9z
M319 162h-6q-72 -2 -72 98v265h-109v-10h99v-277q0 -86 66 -86q10 0 20 2zM314 142q-9 -1 -17 -1q-78 0 -78 97v265h-108v-9h99v-277q0 -86 66 -86q20 0 36 7zM305 123q-14 -3 -29 -3q-78 0 -78 97v265h-108v-9h99v-277q0 -86 66 -86q30 0 50 13zM441 3v437h-107v-238
q0 -125 -100 -125q-78 0 -78 98v265h-108v-265q0 -88 28 -131q35 -51 119 -51q52 0 84 21q21 14 60 63v-74h102zM284 102q-14 -3 -29 -3q-78 0 -78 97v265h-108v-9h99v-277q0 -86 66 -86q30 0 50 13zM473 782l-222 -220h-98l86 135h8l14 21h8l13 22h8l13 21h8l14 21h148z
M445 770h-114l-6 -9h110zM423 749h-113l-6 -9h110zM402 728h-113l-6 -10h110zM381 707h-114l-6 -10h110zM359 686h-113l-72 -112h72z" />
    <glyph glyph-name="Ucircumflex" unicode="&#xdb;" horiz-adv-x="582" 
d="M602 -200h-602v394h36v258h21v21h21v21h21v21h21v21h132v-276q0 -45 15 -66h55v258h21v21h21v21h22v21h21v21h131v-342h64v-394zM526 87v438h-108v-10h98v-428h10zM505 66v437h-108v-9h98v-428h10zM484 45v437h-108v-9h98v-428h10zM462 24v437h-107v-9h98v-428h9z
M319 162h-6q-72 -2 -72 98v265h-109v-10h99v-277q0 -86 66 -86q10 0 20 2zM314 142q-9 -1 -17 -1q-78 0 -78 97v265h-108v-9h99v-277q0 -86 66 -86q20 0 36 7zM305 123q-14 -3 -29 -3q-78 0 -78 97v265h-108v-9h99v-277q0 -86 66 -86q30 0 50 13zM441 3v437h-107v-238
q0 -125 -100 -125q-78 0 -78 98v265h-108v-265q0 -88 28 -131q35 -51 119 -51q52 0 84 21q21 14 60 63v-74h102zM284 102q-14 -3 -29 -3q-78 0 -78 97v265h-108v-9h99v-277q0 -86 66 -86q30 0 50 13zM470 647h-33l16 -21h-33l16 -21h-33l17 -21h-34l17 -22h-111l-50 65
q0 -1 -1 -1l-17 -21v0l-17 -21v0l-17 -22h-110l106 135v0l17 21v0l17 22v0l17 21v0l16 21h112zM446 659l-87 111h-100l-7 -9h96l80 -102h18zM429 637l-87 112h-100l-7 -9h96l80 -103h18zM412 616l-87 112h-100l-7 -10h96l80 -102h18zM396 595l-88 112h-100l-7 -10h96
l80 -102h19zM379 574l-88 112h-99l-88 -112h81l56 73l57 -73h81z" />
    <glyph glyph-name="Udieresis" unicode="&#xdc;" horiz-adv-x="582" 
d="M602 -200h-602v394h36v258h21v21h21v21h21v21h21v21h132v-276q0 -45 15 -66h55v258h21v21h21v21h22v21h21v21h131v-342h64v-394zM526 87v438h-108v-10h98v-428h10zM505 66v437h-108v-9h98v-428h10zM484 45v437h-108v-9h98v-428h10zM462 24v437h-107v-9h98v-428h9z
M319 162h-6q-72 -2 -72 98v265h-109v-10h99v-277q0 -86 66 -86q10 0 20 2zM314 142q-9 -1 -17 -1q-78 0 -78 97v265h-108v-9h99v-277q0 -86 66 -86q20 0 36 7zM305 123q-14 -3 -29 -3q-78 0 -78 97v265h-108v-9h99v-277q0 -86 66 -86q30 0 50 13zM441 3v437h-107v-238
q0 -125 -100 -125q-78 0 -78 98v265h-108v-265q0 -88 28 -131q35 -51 119 -51q52 0 84 21q21 14 60 63v-74h102zM284 102q-14 -3 -29 -3q-78 0 -78 97v265h-108v-9h99v-277q0 -86 66 -86q30 0 50 13z" />
    <glyph glyph-name="Yacute" unicode="&#xdd;" horiz-adv-x="519" 
d="M539 -200h-539v394h101l-81 258h27l-6 21h27l-6 21h28l-7 21h28l-7 21h135l34 -148l12 64h17l4 21h17l4 21h17l5 21h16l5 21h128l-86 -342h127v-394zM483 525h-104l-2 -10h100l-114 -449q-10 -41 -35 -122q17 36 45 146zM268 359l-38 166h-110l3 -10h95l44 -189zM462 503
h-104l-2 -9h100l-114 -449q-10 -41 -35 -123q18 38 45 147zM256 297l-48 206h-109l3 -9h95l53 -230zM441 482h-104l-2 -9h100l-114 -449q-10 -41 -35 -123q17 36 45 147zM420 461h-104l-2 -9h100q-40 -149 -114 -449q-15 -67 -35 -123q17 38 45 147zM245 235l-58 247h-109
l3 -9h95q1 -5 63 -265zM234 180l-68 281h-109l3 -9h94q1 -4 75 -298zM399 440h-104l-60 -314h-11l-79 314h-109l145 -463q0 -80 -100 -73v-82q21 -1 48 -1q82 0 107 28q18 21 53 157zM169 -21l-3 10h-1v-10h4zM168 -33q-9 0 -24 1v-10q7 0 22 1zM161 -53q-18 -2 -38 0v-10
q23 0 36 5zM148 -73q-6 0 -21.5 -1t-24.5 -1v-9q33 0 46 11zM463 782l-222 -220h-98l86 135h8l14 21h8l13 22h8l13 21h8l14 21h148zM435 770h-114l-6 -9h110zM413 749h-113l-6 -9h110zM392 728h-113l-6 -10h110zM371 707h-114l-6 -10h110zM349 686h-113l-72 -112h72z" />
    <glyph glyph-name="Thorn" unicode="&#xde;" 
d="M594 -200h-594v394h21v428h22v21h21v21h21v21h21v21h124v-209q28 22 57 45q26 16 71 16q95 0 147 -72q47 -64 47 -163q0 -75 -22 -129h64v-394zM540 323q0 94 -43 154q-49 69 -139 69q-39 0 -70 -16q23 7 49 7q95 0 147 -72q47 -64 47 -163q0 -65 -17 -115q26 55 26 136z
M218 485v209h-100v-9h91v-209q4 2 9 9zM519 302q0 94 -43 154q-49 69 -139 69q-39 0 -70 -16q23 7 49 7q95 0 147 -72q46 -64 46 -163q0 -65 -16 -115q26 55 26 136zM197 464v209h-101v-9h92v-209q3 2 9 9zM498 281q0 94 -43 154q-49 69 -139 69q-39 0 -70 -16q23 7 48 7
q96 0 148 -72q46 -64 46 -163q0 -65 -16 -115q26 55 26 136zM176 443v209h-101v-9h92v-209q3 2 9 9zM477 260q0 94 -44 154q-48 69 -139 69q-38 0 -70 -17q24 7 49 7q95 0 148 -72q46 -63 46 -162q0 -65 -17 -115q27 55 27 136zM155 421v210h-101v-9h92v-212zM455 239
q0 94 -43 154q-49 69 -139 69q-49 0 -82 -24q-28 -20 -57 -66v238h-101v-773h105v248q28 -45 53 -62q31 -21 79 -21q95 0 144 74q41 63 41 163zM222 -78v74l-9 3v-77h9zM201 -99v103l-9 5v-108h9zM180 -120v136q-1 1 -9 8v-144h9zM159 -141v177l-10 11v-188h10zM346 233
q0 -59 -23 -98q-28 -47 -83 -47t-83 42q-23 35 -23 93q0 148 106 148q54 0 82 -44q24 -37 24 -94zM334 233q0 51 -19 85q-23 43 -69 41h-12q-4 -24 -4 -52q0 -86 51 -113h50q3 21 3 39zM327 173h-9q-52 -2 -78 42q-22 36 -22 92q0 27 4 51l-4 -1q-9 -30 -9 -71
q0 -123 94 -123q10 0 21 3zM319 153q-8 -1 -16 -1q-55 0 -83 41q-23 35 -23 93q0 37 8 67l-2 -1q-16 -31 -16 -87q0 -123 95 -123q19 0 35 7zM307 133q-12 -2 -25 -2q-55 0 -83 41q-23 35 -23 93q0 41 9 72q-19 -33 -19 -93q0 -123 95 -123q26 0 46 12zM286 112
q-12 -3 -25 -3q-55 0 -83 42q-23 35 -23 93q0 41 9 72q-19 -33 -19 -93q0 -123 95 -123q27 0 46 12z" />
    <glyph glyph-name="germandbls" unicode="&#xdf;" horiz-adv-x="579" 
d="M599 -200h-599v394h30v241q0 75 22 113q12 22 77 85q51 51 83 66q37 17 105 17q85 0 140 -39q64 -44 64 -126q0 -8 -4 -25t-4 -26q0 -16 -18 -33q-14 -14 -29 -28q89 -44 89 -152q0 -49 -19 -93h63v-394zM509 551q0 77 -60 118q-52 35 -132 35q-68 0 -113 -21
q40 12 92 12q85 0 140 -39q64 -45 64 -126q0 -21 -5 -40q14 26 14 61zM488 530q0 76 -60 118q-52 35 -132 35q-69 0 -113 -22q40 13 92 13q85 0 140 -39q64 -45 64 -126q0 -21 -5 -40q14 26 14 61zM467 509q0 76 -60 117q-52 36 -132 36q-69 0 -113 -22q39 13 92 13
q85 0 140 -39q63 -45 63 -126q0 -21 -4 -40q14 26 14 61zM446 488q0 76 -60 117q-52 36 -132 36q-69 0 -113 -22q39 13 92 13q84 0 140 -39q63 -45 63 -126q0 -22 -4 -40q14 26 14 61zM543 287q0 103 -86 144l-12 -13q89 -44 89 -153q0 -38 -12 -74q21 46 21 96zM522 265
q0 104 -86 144l-12 -12q89 -44 89 -153q0 -38 -12 -74q21 46 21 95zM302 474q-8 44 -59 50q-1 -7 -1 -113h12v21h21v21h21v21h6zM303 442l-16 -1v-8l15 2zM501 244q0 104 -86 144l-12 -12q89 -44 89 -153q0 -38 -12 -74q21 46 21 95zM298 423q-14 -3 -33 -3v-8q20 2 31 7z
M231 525h-1h-7q-2 -17 -2 -32v-104l9 1q0 125 1 135zM480 223q0 104 -86 144l-14 -11q91 -44 91 -154q0 -38 -12 -74q21 46 21 95zM284 403q-16 -4 -40 -4v-8q26 2 40 12zM459 202q0 109 -104 152q70 41 70 113q0 76 -60 117q-53 36 -132 36q-99 0 -145.5 -43.5
t-46.5 -141.5v-421h105v407q0 58 13 82q18 34 71 34q85 0 85 -81q0 -47 -27 -64q-20 -14 -67 -14v-71q63 -4 92 -24q38 -26 38 -84q0 -116 -130 -109v-83q18 -4 35 -4q94 0 148.5 52.5t54.5 146.5zM340 204q1 45 -27 66q-22 17 -71 23v-99h98v10zM211 524l-6 -1
q-5 -21 -5 -52v-393l9 -1v408q0 21 2 39zM338 174q-17 -1 -36 0v-10q18 0 35 4zM192 518q-13 -1 -13 -74v-387h9v407q0 33 4 54zM333 156q-24 -5 -52 -3v-10q29 0 51 9zM172 502q-14 -23 -14 -72v-395h9v408q0 37 5 59zM230 101v193l-9 1v-194h9zM323 137q-28 -8 -63 -5v-10
q39 0 63 15zM302 116q-25 -7 -60 -5v-10q35 0 60 15z" />
    <glyph glyph-name="agrave" unicode="&#xe0;" 
d="M584 -200h-584v394h42q10 22 36 48l44 42q9 8 22 22h-100q4 68 34 107q11 13 42.5 41.5t42.5 42.5q45 62 164 62q194 0 194 -146v-219h63v-394zM535 99v8q-21 11 -25 44v56v206q0 134 -183 134q-67 0 -111 -22q39 13 90 13q194 0 194 -146v-206q0 -48 0 -47q2 -32 15 -40
h20zM514 78v8q-21 11 -25 44v56v206q0 134 -183 134q-67 0 -111 -22q39 12 90 12q194 0 194 -145v-206q0 -48 0 -47q2 -32 14 -40h21zM493 57v7q-21 12 -25 45q-1 3 -1 56v206q0 134 -182 134q-67 0 -111 -22q39 12 90 12q194 0 194 -145v-206q0 -48 0 -47q2 -32 14 -40h21z
M273 365q-15 3 -34 3q-14 0 -25 -2q-2 -7 -3 -15q25 8 62 14zM301 350l-6 6q-67 -8 -102 -25q33 10 108 19zM471 35v8q-21 12 -24 45q-1 3 -1 56v206q0 134 -182 134q-68 0 -111 -22q39 12 90 12q194 0 194 -145v-206q0 -48 0 -47q2 -32 14 -41h20zM307 334l-1 5
q-55 -7 -68 -9q-39 -7 -66 -20q28 9 69 14q53 7 66 10zM308 322l-80 -12q-47 -7 -77 -21q44 14 112 20q27 2 44 9zM296 303q-13 -4 -84 -13q-51 -7 -82 -22q44 14 112 20q37 3 54 15zM450 14v8q-21 11 -25 45v56v206q0 134 -182 134q-174 0 -187 -145h102q13 62 81 62
q81 0 81 -55q0 -37 -72 -48q-111 -18 -135 -28q-72 -33 -72 -121q0 -60 37 -94t98 -34q78 0 146 75q2 -21 11 -61h117zM319 183q0 -51 -28.5 -80t-79.5 -29q-64 0 -64 63q0 47 53 64q44 10 89 20q11 4 30 17v-55zM308 194v23q-19 -10 -61 -18l3 -4zM306 159l-11 -1
q-47 -2 -59 39l-13 -3q3 -45 51 -45q15 0 30 4zM301 140q-15 -3 -27 -3q-58 0 -63 55l-9 -3q-1 -5 -1 -10q0 -51 52 -51q24 0 47 10zM286 121q-16 -5 -33 -5q-31 0 -48.5 19t-14.5 50l-4 -2q-6 -11 -6 -25q0 -51 52 -51q29 0 54 14zM266 100q-18 -5 -34 -5q-64 0 -64 61
q0 6 1 13q-10 -13 -10 -32q0 -51 52 -51q29 0 55 14zM432 647h-35l13 -21h-34l13 -21h-34l13 -21h-34l13 -22h-98l-137 135h43l-22 21h43l-21 22h42l-21 21h42l-21 21h148zM410 659l-71 111h-114l10 -9h89l65 -102h21zM389 637l-72 112h-113l10 -9h89l65 -103h21zM368 616
l-72 112h-113l10 -10h89l65 -102h21zM347 595l-72 112h-113l10 -10h89l65 -102h21zM326 574l-72 112h-113l113 -112h72z" />
    <glyph glyph-name="aacute" unicode="&#xe1;" 
d="M584 -200h-584v394h42q10 22 36 48l44 42q9 8 22 22h-100q4 68 34 107q11 13 42.5 41.5t42.5 42.5q45 62 164 62q194 0 194 -146v-219h63v-394zM535 99v8q-21 11 -25 44v56v206q0 134 -183 134q-67 0 -111 -22q39 13 90 13q194 0 194 -146v-206q0 -48 0 -47q2 -32 15 -40
h20zM514 78v8q-21 11 -25 44v56v206q0 134 -183 134q-67 0 -111 -22q39 12 90 12q194 0 194 -145v-206q0 -48 0 -47q2 -32 14 -40h21zM493 57v7q-21 12 -25 45q-1 3 -1 56v206q0 134 -182 134q-67 0 -111 -22q39 12 90 12q194 0 194 -145v-206q0 -48 0 -47q2 -32 14 -40h21z
M273 365q-15 3 -34 3q-14 0 -25 -2q-2 -7 -3 -15q25 8 62 14zM301 350l-6 6q-67 -8 -102 -25q33 10 108 19zM471 35v8q-21 12 -24 45q-1 3 -1 56v206q0 134 -182 134q-68 0 -111 -22q39 12 90 12q194 0 194 -145v-206q0 -48 0 -47q2 -32 14 -41h20zM307 334l-1 5
q-55 -7 -68 -9q-39 -7 -66 -20q28 9 69 14q53 7 66 10zM308 322l-80 -12q-47 -7 -77 -21q44 14 112 20q27 2 44 9zM296 303q-13 -4 -84 -13q-51 -7 -82 -22q44 14 112 20q37 3 54 15zM450 14v8q-21 11 -25 45v56v206q0 134 -182 134q-174 0 -187 -145h102q13 62 81 62
q81 0 81 -55q0 -37 -72 -48q-111 -18 -135 -28q-72 -33 -72 -121q0 -60 37 -94t98 -34q78 0 146 75q2 -21 11 -61h117zM319 183q0 -51 -28.5 -80t-79.5 -29q-64 0 -64 63q0 47 53 64q44 10 89 20q11 4 30 17v-55zM308 194v23q-19 -10 -61 -18l3 -4zM306 159l-11 -1
q-47 -2 -59 39l-13 -3q3 -45 51 -45q15 0 30 4zM301 140q-15 -3 -27 -3q-58 0 -63 55l-9 -3q-1 -5 -1 -10q0 -51 52 -51q24 0 47 10zM286 121q-16 -5 -33 -5q-31 0 -48.5 19t-14.5 50l-4 -2q-6 -11 -6 -25q0 -51 52 -51q29 0 54 14zM266 100q-18 -5 -34 -5q-64 0 -64 61
q0 6 1 13q-10 -13 -10 -32q0 -51 52 -51q29 0 55 14zM463 782l-222 -220h-98l86 135h8l14 21h8l13 22h8l13 21h8l14 21h148zM435 770h-114l-6 -9h110zM413 749h-113l-6 -9h110zM392 728h-113l-6 -10h110zM371 707h-114l-6 -10h110zM349 686h-113l-72 -112h72z" />
    <glyph glyph-name="acircumflex" unicode="&#xe2;" 
d="M584 -200h-584v394h42q10 22 36 48l44 42q9 8 22 22h-100q4 68 34 107q11 13 42.5 41.5t42.5 42.5q45 62 164 62q194 0 194 -146v-219h63v-394zM535 99v8q-21 11 -25 44v56v206q0 134 -183 134q-67 0 -111 -22q39 13 90 13q194 0 194 -146v-206q0 -48 0 -47q2 -32 15 -40
h20zM514 78v8q-21 11 -25 44v56v206q0 134 -183 134q-67 0 -111 -22q39 12 90 12q194 0 194 -145v-206q0 -48 0 -47q2 -32 14 -40h21zM493 57v7q-21 12 -25 45q-1 3 -1 56v206q0 134 -182 134q-67 0 -111 -22q39 12 90 12q194 0 194 -145v-206q0 -48 0 -47q2 -32 14 -40h21z
M273 365q-15 3 -34 3q-14 0 -25 -2q-2 -7 -3 -15q25 8 62 14zM301 350l-6 6q-67 -8 -102 -25q33 10 108 19zM471 35v8q-21 12 -24 45q-1 3 -1 56v206q0 134 -182 134q-68 0 -111 -22q39 12 90 12q194 0 194 -145v-206q0 -48 0 -47q2 -32 14 -41h20zM307 334l-1 5
q-55 -7 -68 -9q-39 -7 -66 -20q28 9 69 14q53 7 66 10zM308 322l-80 -12q-47 -7 -77 -21q44 14 112 20q27 2 44 9zM296 303q-13 -4 -84 -13q-51 -7 -82 -22q44 14 112 20q37 3 54 15zM450 14v8q-21 11 -25 45v56v206q0 134 -182 134q-174 0 -187 -145h102q13 62 81 62
q81 0 81 -55q0 -37 -72 -48q-111 -18 -135 -28q-72 -33 -72 -121q0 -60 37 -94t98 -34q78 0 146 75q2 -21 11 -61h117zM319 183q0 -51 -28.5 -80t-79.5 -29q-64 0 -64 63q0 47 53 64q44 10 89 20q11 4 30 17v-55zM308 194v23q-19 -10 -61 -18l3 -4zM306 159l-11 -1
q-47 -2 -59 39l-13 -3q3 -45 51 -45q15 0 30 4zM301 140q-15 -3 -27 -3q-58 0 -63 55l-9 -3q-1 -5 -1 -10q0 -51 52 -51q24 0 47 10zM286 121q-16 -5 -33 -5q-31 0 -48.5 19t-14.5 50l-4 -2q-6 -11 -6 -25q0 -51 52 -51q29 0 54 14zM266 100q-18 -5 -34 -5q-64 0 -64 61
q0 6 1 13q-10 -13 -10 -32q0 -51 52 -51q29 0 55 14zM470 647h-33l16 -21h-33l16 -21h-33l17 -21h-34l17 -22h-111l-50 65q0 -1 -1 -1l-17 -21v0l-17 -21v0l-17 -22h-110l106 135v0l17 21v0l17 22v0l17 21v0l16 21h112zM446 659l-87 111h-100l-7 -9h96l80 -102h18zM429 637
l-87 112h-100l-7 -9h96l80 -103h18zM412 616l-87 112h-100l-7 -10h96l80 -102h18zM396 595l-88 112h-100l-7 -10h96l80 -102h19zM379 574l-88 112h-99l-88 -112h81l56 73l57 -73h81z" />
    <glyph glyph-name="atilde" unicode="&#xe3;" 
d="M584 -200h-584v394h42q10 22 36 48l44 42q9 8 22 22h-100q4 68 34 107q11 13 42.5 41.5t42.5 42.5q45 62 164 62q194 0 194 -146v-219h63v-394zM535 99v8q-21 11 -25 44v56v206q0 134 -183 134q-67 0 -111 -22q39 13 90 13q194 0 194 -146v-206q0 -48 0 -47q2 -32 15 -40
h20zM514 78v8q-21 11 -25 44v56v206q0 134 -183 134q-67 0 -111 -22q39 12 90 12q194 0 194 -145v-206q0 -48 0 -47q2 -32 14 -40h21zM493 57v7q-21 12 -25 45q-1 3 -1 56v206q0 134 -182 134q-67 0 -111 -22q39 12 90 12q194 0 194 -145v-206q0 -48 0 -47q2 -32 14 -40h21z
M273 365q-15 3 -34 3q-14 0 -25 -2q-2 -7 -3 -15q25 8 62 14zM301 350l-6 6q-67 -8 -102 -25q33 10 108 19zM471 35v8q-21 12 -24 45q-1 3 -1 56v206q0 134 -182 134q-68 0 -111 -22q39 12 90 12q194 0 194 -145v-206q0 -48 0 -47q2 -32 14 -41h20zM307 334l-1 5
q-55 -7 -68 -9q-39 -7 -66 -20q28 9 69 14q53 7 66 10zM308 322l-80 -12q-47 -7 -77 -21q44 14 112 20q27 2 44 9zM296 303q-13 -4 -84 -13q-51 -7 -82 -22q44 14 112 20q37 3 54 15zM450 14v8q-21 11 -25 45v56v206q0 134 -182 134q-174 0 -187 -145h102q13 62 81 62
q81 0 81 -55q0 -37 -72 -48q-111 -18 -135 -28q-72 -33 -72 -121q0 -60 37 -94t98 -34q78 0 146 75q2 -21 11 -61h117zM319 183q0 -51 -28.5 -80t-79.5 -29q-64 0 -64 63q0 47 53 64q44 10 89 20q11 4 30 17v-55zM308 194v23q-19 -10 -61 -18l3 -4zM306 159l-11 -1
q-47 -2 -59 39l-13 -3q3 -45 51 -45q15 0 30 4zM301 140q-15 -3 -27 -3q-58 0 -63 55l-9 -3q-1 -5 -1 -10q0 -51 52 -51q24 0 47 10zM286 121q-16 -5 -33 -5q-31 0 -48.5 19t-14.5 50l-4 -2q-6 -11 -6 -25q0 -51 52 -51q29 0 54 14zM266 100q-18 -5 -34 -5q-64 0 -64 61
q0 6 1 13q-10 -13 -10 -32q0 -51 52 -51q29 0 55 14zM487 772q-12 -74 -50 -100q-8 -12 -21 -21q-8 -12 -21 -21q-8 -12 -22 -21q-21 -35 -71 -35q-22 0 -62 14.5t-60 14.5q-6 0 -10 -1q-2 -4 -4 -13h-13q-5 -7 -8 -21h-66q11 51 26 74q10 14 41 44q43 40 46 43q37 39 81 39
q18 0 45 -11t35 -12q24 -9 33 -9q5 0 10 1l4 14h13q5 9 8 21h66zM473 760h-43q-2 -4 -4 -9h40q-3 -19 -7 -33q9 19 14 42zM452 739h-43q-2 -4 -4 -9h40q-3 -19 -7 -33q9 19 14 42zM431 718h-44q-1 -4 -3 -9h40q-3 -19 -8 -33q10 19 15 42zM410 697h-44q-1 -4 -3 -9h40
q-3 -19 -8 -34q10 20 15 43zM378 725q-26 6 -66 23l-2 1q-17 7 -37 7q-29 0 -49 -12q13 3 28 3t47.5 -11.5l32.5 -11.5q24 -9 33 -9q5 0 8 2t5 8zM357 704q-19 4 -66 23q-1 0 -2 1q-20 7 -37 7q-29 0 -49 -13q13 4 27 4q16 0 48.5 -11.5l32.5 -11.5q24 -9 33 -9q5 0 8 2t5 8
zM335 683q-25 6 -65 23h-2q-17 8 -38 8q-28 0 -48 -13q13 3 27 3q16 0 48.5 -11l32.5 -11q23 -9 33 -9q5 0 8 2t4 8zM326 662q-9 -1 -43.5 10t-35.5 13q-20 8 -38 8q-28 0 -48 -13q13 3 27 3q19 0 49.5 -11t31.5 -11q23 -9 33 -9q19 0 24 10zM389 676h-44q-11 -36 -43 -36
q-8 0 -41 11t-35 13q-20 8 -38 8q-73 0 -94 -92h42q11 35 44 35q13 0 31 -6q25 -9 31 -10q51 -13 60 -13q68 0 87 90z" />
    <glyph glyph-name="adieresis" unicode="&#xe4;" 
d="M584 -200h-584v394h42q10 22 36 48l44 42q9 8 22 22h-100q4 68 34 107q11 13 42.5 41.5t42.5 42.5q45 62 164 62q194 0 194 -146v-219h63v-394zM535 99v8q-21 11 -25 44v56v206q0 134 -183 134q-67 0 -111 -22q39 13 90 13q194 0 194 -146v-206q0 -48 0 -47q2 -32 15 -40
h20zM514 78v8q-21 11 -25 44v56v206q0 134 -183 134q-67 0 -111 -22q39 12 90 12q194 0 194 -145v-206q0 -48 0 -47q2 -32 14 -40h21zM493 57v7q-21 12 -25 45q-1 3 -1 56v206q0 134 -182 134q-67 0 -111 -22q39 12 90 12q194 0 194 -145v-206q0 -48 0 -47q2 -32 14 -40h21z
M273 365q-15 3 -34 3q-14 0 -25 -2q-2 -7 -3 -15q25 8 62 14zM301 350l-6 6q-67 -8 -102 -25q33 10 108 19zM471 35v8q-21 12 -24 45q-1 3 -1 56v206q0 134 -182 134q-68 0 -111 -22q39 12 90 12q194 0 194 -145v-206q0 -48 0 -47q2 -32 14 -41h20zM307 334l-1 5
q-55 -7 -68 -9q-39 -7 -66 -20q28 9 69 14q53 7 66 10zM308 322l-80 -12q-47 -7 -77 -21q44 14 112 20q27 2 44 9zM296 303q-13 -4 -84 -13q-51 -7 -82 -22q44 14 112 20q37 3 54 15zM450 14v8q-21 11 -25 45v56v206q0 134 -182 134q-174 0 -187 -145h102q13 62 81 62
q81 0 81 -55q0 -37 -72 -48q-111 -18 -135 -28q-72 -33 -72 -121q0 -60 37 -94t98 -34q78 0 146 75q2 -21 11 -61h117zM319 183q0 -51 -28.5 -80t-79.5 -29q-64 0 -64 63q0 47 53 64q44 10 89 20q11 4 30 17v-55zM308 194v23q-19 -10 -61 -18l3 -4zM306 159l-11 -1
q-47 -2 -59 39l-13 -3q3 -45 51 -45q15 0 30 4zM301 140q-15 -3 -27 -3q-58 0 -63 55l-9 -3q-1 -5 -1 -10q0 -51 52 -51q24 0 47 10zM286 121q-16 -5 -33 -5q-31 0 -48.5 19t-14.5 50l-4 -2q-6 -11 -6 -25q0 -51 52 -51q29 0 54 14zM266 100q-18 -5 -34 -5q-64 0 -64 61
q0 6 1 13q-10 -13 -10 -32q0 -51 52 -51q29 0 55 14z" />
    <glyph glyph-name="aring" unicode="&#xe5;" 
d="M584 -200h-584v394h42q10 22 36 48l44 42q9 8 22 22h-100q4 68 34 107q11 13 42.5 41.5t42.5 42.5q45 62 164 62q194 0 194 -146v-219h63v-394zM535 99v8q-21 11 -25 44v56v206q0 134 -183 134q-67 0 -111 -22q39 13 90 13q194 0 194 -146v-206q0 -48 0 -47q2 -32 15 -40
h20zM514 78v8q-21 11 -25 44v56v206q0 134 -183 134q-67 0 -111 -22q39 12 90 12q194 0 194 -145v-206q0 -48 0 -47q2 -32 14 -40h21zM493 57v7q-21 12 -25 45q-1 3 -1 56v206q0 134 -182 134q-67 0 -111 -22q39 12 90 12q194 0 194 -145v-206q0 -48 0 -47q2 -32 14 -40h21z
M273 365q-15 3 -34 3q-14 0 -25 -2q-2 -7 -3 -15q25 8 62 14zM301 350l-6 6q-67 -8 -102 -25q33 10 108 19zM471 35v8q-21 12 -24 45q-1 3 -1 56v206q0 134 -182 134q-68 0 -111 -22q39 12 90 12q194 0 194 -145v-206q0 -48 0 -47q2 -32 14 -41h20zM307 334l-1 5
q-55 -7 -68 -9q-39 -7 -66 -20q28 9 69 14q53 7 66 10zM308 322l-80 -12q-47 -7 -77 -21q44 14 112 20q27 2 44 9zM296 303q-13 -4 -84 -13q-51 -7 -82 -22q44 14 112 20q37 3 54 15zM450 14v8q-21 11 -25 45v56v206q0 134 -182 134q-174 0 -187 -145h102q13 62 81 62
q81 0 81 -55q0 -37 -72 -48q-111 -18 -135 -28q-72 -33 -72 -121q0 -60 37 -94t98 -34q78 0 146 75q2 -21 11 -61h117zM319 183q0 -51 -28.5 -80t-79.5 -29q-64 0 -64 63q0 47 53 64q44 10 89 20q11 4 30 17v-55zM308 194v23q-19 -10 -61 -18l3 -4zM306 159l-11 -1
q-47 -2 -59 39l-13 -3q3 -45 51 -45q15 0 30 4zM301 140q-15 -3 -27 -3q-58 0 -63 55l-9 -3q-1 -5 -1 -10q0 -51 52 -51q24 0 47 10zM286 121q-16 -5 -33 -5q-31 0 -48.5 19t-14.5 50l-4 -2q-6 -11 -6 -25q0 -51 52 -51q29 0 54 14zM266 100q-18 -5 -34 -5q-64 0 -64 61
q0 6 1 13q-10 -13 -10 -32q0 -51 52 -51q29 0 55 14zM430 728q0 -40 -28 -68q-18 -17 -54 -52l-42 -42q-25 -19 -56 -19q-40 0 -68 28t-28 68t28 68q18 17 54 52l42 42q25 18 56 18q40 0 68 -28t28 -67zM418 728q0 35 -24.5 59.5t-59.5 24.5q-24 0 -43 -12q11 2 22 2
q40 0 68 -28t28 -67q0 -12 -3 -23q12 20 12 44zM397 707q0 34 -24.5 59t-59.5 25q-24 0 -43 -12q11 2 22 2q40 0 68 -28t28 -68q0 -11 -3 -22q12 20 12 44zM376 685q0 35 -24.5 59.5t-59.5 24.5q-24 0 -43 -11q11 2 22 2q40 0 68 -28t28 -68q0 -11 -3 -22q12 19 12 43z
M355 664q0 35 -24.5 59.5t-59.5 24.5q-24 0 -43 -12q11 3 22 3q39 0 67 -28t28 -68q0 -11 -2 -22q12 19 12 43zM334 643q0 35 -24.5 59.5t-59.5 24.5t-59.5 -24.5t-24.5 -59.5t24.5 -59.5t59.5 -24.5t59.5 24.5t24.5 59.5zM304 643q0 -22 -16 -38t-38 -16q-23 0 -39 16
t-16 38q0 23 16 39t39 16q22 0 38 -16t16 -39zM293 643q0 7 -3 14q-19 8 -27 27q-7 2 -13 2q-1 0 -1 -1q0 -17 12.5 -29.5t30.5 -12.5h1zM291 631q-22 0 -37.5 15.5t-16.5 37.5l-5 -1q-4 -9 -4 -19q0 -18 12.5 -30t30.5 -12q9 0 18 4zM277 610q-25 -3 -44 13.5t-17 40.5v6
q-9 -12 -9 -27q0 -18 12.5 -30.5t30.5 -12.5q15 0 27 10z" />
    <glyph glyph-name="ae" unicode="&#xe6;" horiz-adv-x="856" 
d="M876 -200h-876v394h39q12 28 48 60q46 41 56 54h-100q3 52 21 83q11 19 56 64q67 66 93 81q43 25 121 25q82 0 141 -47q58 47 133 47q111 0 166 -72q50 -64 49 -177v-27h-21l-1 -21h-20l-1 -21h-21v-7h60q-3 -23 -11 -42h68v-394zM811 304q2 245 -203 245q-48 0 -86 -19
q30 10 65 10q209 0 215 -243h9v7zM790 283q2 245 -203 245q-48 0 -86 -19q30 10 65 10q208 0 214 -243h10v7zM769 262q1 245 -203 245q-48 0 -86 -19q30 9 65 9q208 0 214 -242h10v7zM805 225h-46v-3h-21v-7h59q-1 -15 -4 -25q9 18 12 35zM748 241q1 245 -203 245
q-48 0 -87 -19q31 9 66 9q208 0 214 -242h10v7zM784 204h-46v-3h-63l-3 -7h104q-1 -15 -4 -25q9 18 12 35zM763 182h-108l-5 -9h105q-2 -15 -4 -25q9 18 12 34zM469 504q-56 45 -135 45q-69 0 -116 -23q41 14 95 14q82 0 141 -47zM742 161h-108l-5 -9h105q-2 -15 -5 -25
q10 18 13 34zM448 483q-56 45 -135 45q-70 0 -116 -23q41 14 95 14q82 0 141 -47zM661 201h-120l8 -7h97v0h12zM427 462q-57 45 -135 45q-70 0 -116 -23q41 13 94 13q83 0 142 -46zM616 152v0v0v0zM625 171q-14 -2 -25 -2q-50 0 -75 32h-20q19 -42 74 -42q24 0 44 7z
M406 441q-57 45 -136 45q-69 0 -115 -23q41 13 94 13q83 0 142 -46zM603 150q-13 -2 -24 -2q-70 0 -87 53h-15q13 -63 80 -63q25 0 44 7zM595 131q-18 -5 -38 -5q-78 0 -92 75h-12q8 -84 83 -84q53 0 59 14zM576 110q-19 -5 -40 -5q-86 0 -95 96h-10q2 -105 84 -105
q40 0 61 14zM727 220q1 245 -203 245q-76 0 -133 -50q-60 50 -142 50q-182 0 -193 -145h103q5 64 79 64q86 0 86 -57q0 -39 -74 -51q-117 -19 -137 -27q-73 -31 -73 -116q0 -66 44 -100q40 -31 107 -31q111 0 172 80q51 -80 156 -80q71 0 127 35q63 38 75 103h-109
q-21 -56 -97 -56q-96 0 -96 129h308v7zM284 366q-14 7 -41 6h-10v-1q-9 0 -19 -2q-2 -7 -2 -18q26 8 72 15zM305 351l-4 5q-110 -16 -110 -27q29 9 114 22zM312 334l-1 6q-64 -10 -77 -12q-64 -11 -64 -20q28 9 70 15q36 6 72 11zM202 366l-4 -2l-2 -2h5zM210 350h-17l-1 -7
zM312 322q-43 -6 -86 -13q-51 -7 -83 -23q45 15 135 25q18 2 33 8zM181 351q-2 -2 -6 -10h5zM190 329h-2l-3 -1zM300 303q-12 -3 -90 -14q-55 -8 -88 -24q50 16 135 25q29 3 43 13zM169 308h-2l-3 -1zM617 277h-197q5 106 100 106q91 0 97 -106zM323 181q0 -105 -108 -105
q-70 0 -70 59q0 39 35 58q19 10 74 21q50 10 69 23v-56zM577 352q-5 5 -12 9h-60v10l-6 -1q-2 -10 -3 -18h81zM592 331l-5 9h-103q1 15 3 27l-4 -1q-6 -16 -8 -35h117zM600 309l-3 10h-134q1 24 5 40q-11 -19 -14 -50h146zM604 288l-1 10h-161q1 24 5 40q-11 -19 -14 -50
h171zM312 194v21q-13 -6 -65 -16l2 -5h63zM310 161q-14 -1 -17 -1q-43 0 -58 36l-14 -2q4 -43 57 -43q16 0 31 3zM306 142q-15 -3 -28 -3q-62 0 -69 52l-9 -3q-1 -9 -1 -11q0 -48 58 -48q27 0 47 9zM295 122q-18 -4 -38 -4q-33 0 -51 16q-21 18 -18 50l-5 -2q-5 -11 -5 -26
q0 -48 58 -48q40 0 59 14zM274 102q-18 -5 -38 -5q-69 0 -69 60q0 6 1 13q-11 -13 -11 -35q0 -48 58 -48q39 0 59 15z" />
    </font>
</defs>
</svg>
