<svg xmlns="http://www.w3.org/2000/svg">
<defs>
<font id="BienchenSAS-Regular" horiz-adv-x="479" >
  <font-face 
    font-family="Bienchen SAS"
    font-weight="400"
    font-stretch="normal"
    units-per-em="2100"
    panose-1="2 11 6 3 5 3 2 2 2 4"
    ascent="1680"
    descent="-420"
    x-height="631"
    cap-height="1136"
    bbox="-398 -557.119 2000 1574"
    underline-thickness="0"
    underline-position="0"
    unicode-range="U+0020-20AC"
  />
<missing-glyph horiz-adv-x="1343" 
d="M0 205q19 2 21.5 26t12.5 36q17 19 17.5 24t9.5 14q44 41 173 161.5t192 121.5q12 0 38 26q20 18 55.5 15.5t47.5 1.5l3 25q-12 0 -14 -3.5t-8 -2.5q-8 0 -12 3t-13 0q-15 -6 -57 -7t-67 -6q-24 -6 -63 -35.5t-48 -30.5q-23 -3 -28 -16t-23 17q7 12 63.5 56.5t80.5 41.5
q47 -6 51.5 -0.5t22.5 13.5q58 24 75 10t32 19q-6 3 -22.5 -2t-37.5 -1q-19 3 -29.5 28.5t4.5 41.5q45 48 13.5 41t-50.5 -25q-18 -18 -29.5 7t51.5 41q33 7 34.5 5.5t38.5 -8.5q13 16 -1 18t1 17q18 19 16.5 30.5t42.5 56.5q15 14 25 -3t-2 -25q-28 -21 -38 -58
q27 -1 39 13.5t42 -3.5q35 -21 26.5 -42t-13.5 -51q14 -4 20 16q2 7 12 15.5t15 14.5q21 27 15.5 31t-2.5 19q0 5 6 9t8 16q2 17 11 26q30 27 16.5 26.5t40.5 46.5q31 27 57.5 61t63.5 47q14 -15 7 -25q-11 -13 -54 -55.5t-56 -54.5q-38 -34 -28 -44.5t-6 -30.5
q-36 -43 -30 -52t-10 -36q-10 -16 -4.5 -52.5t23.5 -1.5l-1 1l8 7q-1 12 -6 20t10 21q6 6 4.5 11t3.5 11q21 30 23 45t38 43q13 10 17 18.5t9 14.5q68 67 162 143t164 125q16 11 26.5 6.5t12.5 11.5h18l1 -6q24 -7 32 -15.5t25 -26.5q12 -15 9 -42t9 -29v-70q-8 -4 -8 -10
q-2 -21 -22 -48q-24 -31 -17.5 -31.5t-8.5 -11.5q-16 -12 -10.5 -15t5.5 -15q-1 -3 -3.5 -7.5t-2.5 -9.5q-3 -34 6 -37.5t-16 -51.5q-25 -46 -59 -76q-24 -20 -22 -18.5t-18 1.5q-3 0 -26 -8.5t-25 -8.5q-27 -15 -40.5 -16t-41.5 -12q-14 -6 -33 -6.5t-22 -0.5l15 -25
q32 -10 49 3q9 6 37 1t43 -9q16 -6 18 0t13 3q7 -3 9.5 -11t12.5 -8q15 -1 49 9.5t44 19.5q32 24 46.5 5.5t-3.5 -30.5q-57 -41 -64 -35.5t-24 -0.5q-20 15 -31 6q-26 -21 -24 -19.5t-27 -6.5q-22 -6 -37.5 3t-33.5 11l-10 17q-27 -9 -28 3t-40 -9q7 -10 17.5 -11.5

<glyph glyph-name=".notdef" horiz-adv-x="1343" 
d="M0 205q19 2 21.5 26t12.5 36q17 19 17.5 24t9.5 14q44 41 173 161.5t192 121.5q12 0 38 26q20 18 55.5 15.5t47.5 1.5l3 25q-12 0 -14 -3.5t-8 -2.5q-8 0 -12 3t-13 0q-15 -6 -57 -7t-67 -6q-24 -6 -63 -35.5t-48 -30.5q-23 -3 -28 -16t-23 17q7 12 63.5 56.5t80.5 41.5
q47 -6 51.5 -0.5t22.5 13.5q58 24 75 10t32 19q-6 3 -22.5 -2t-37.5 -1q-19 3 -29.5 28.5t4.5 41.5q45 48 13.5 41t-50.5 -25q-18 -18 -29.5 7t51.5 41q33 7 34.5 5.5t38.5 -8.5q13 16 -1 18t1 17q18 19 16.5 30.5t42.5 56.5q15 14 25 -3t-2 -25q-28 -21 -38 -58
q27 -1 39 13.5t42 -3.5q35 -21 26.5 -42t-13.5 -51q14 -4 20 16q2 7 12 15.5t15 14.5q21 27 15.5 31t-2.5 19q0 5 6 9t8 16q2 17 11 26q30 27 16.5 26.5t40.5 46.5q31 27 57.5 61t63.5 47q14 -15 7 -25q-11 -13 -54 -55.5t-56 -54.5q-38 -34 -28 -44.5t-6 -30.5
q-36 -43 -30 -52t-10 -36q-10 -16 -4.5 -52.5t23.5 -1.5l-1 1l8 7q-1 12 -6 20t10 21q6 6 4.5 11t3.5 11q21 30 23 45t38 43q13 10 17 18.5t9 14.5q68 67 162 143t164 125q16 11 26.5 6.5t12.5 11.5h18l1 -6q24 -7 32 -15.5t25 -26.5q12 -15 9 -42t9 -29v-70q-8 -4 -8 -10
q-2 -21 -22 -48q-24 -31 -17.5 -31.5t-8.5 -11.5q-16 -12 -10.5 -15t5.5 -15q-1 -3 -3.5 -7.5t-2.5 -9.5q-3 -34 6 -37.5t-16 -51.5q-25 -46 -59 -76q-24 -20 -22 -18.5t-18 1.5q-3 0 -26 -8.5t-25 -8.5q-27 -15 -40.5 -16t-41.5 -12q-14 -6 -33 -6.5t-22 -0.5l15 -25
q32 -10 49 3q9 6 37 1t43 -9q16 -6 18 0t13 3q7 -3 9.5 -11t12.5 -8q15 -1 49 9.5t44 19.5q32 24 46.5 5.5t-3.5 -30.5q-57 -41 -64 -35.5t-24 -0.5q-20 15 -31 6q-26 -21 -24 -19.5t-27 -6.5q-22 -6 -37.5 3t-33.5 11l-10 17q-27 -9 -28 3t-40 -9q7 -10 17.5 -11.5
t17.5 -7.5q3 -4 42.5 -22.5t47.5 -20.5q9 -3 29 -25t29 -24q21 -5 19 -6.5t16 -10.5q29 -15 26 -21.5t-2 -23.5l3 -2q29 -20 52 -35.5t-10 -24.5l-49 18q-5 2 -8.5 9t-9.5 6t-10 -6.5t-11 -6.5q-27 6 -67 59t-61 68q-8 6 -51 30t-45 24l8 -27q19 -5 43 -38.5t32 -52.5
q3 -12 9.5 -13t10.5 -8q9 -21 29.5 -46.5t25.5 -42.5q4 -18 10.5 -24.5t10.5 -15.5q6 -15 0 -28t-7 -24q-6 -37 -4.5 -49.5t-28.5 -52.5q-8 -10 -34.5 -20t-38.5 -11q-38 -4 -75 15q-6 3 -10 9.5t-9 12.5q-9 6 -16.5 5.5t-14.5 5.5q-4 3 -17 19t-51 35q-12 6 -11.5 11.5
t-15.5 23.5q-15 16 -21 29.5t-21 30.5q-6 5 -13 31.5t-14 20.5q0 -20 5 -34l5 -14q-2 -11 -1.5 -38.5t4.5 -38.5q12 -36 52.5 -76t45.5 -71q1 -13 15.5 -17.5t8.5 -17.5q-4 -9 -10.5 -8.5t-8.5 -1.5q-4 -4 -1.5 -20t2.5 -20q-1 -9 -8.5 -13.5t-8.5 -10.5h-11q0 3 -6 11
q-8 12 -3 22.5t1 19.5q-7 14 -14.5 21t-16.5 18q-77 90 -72.5 134.5t-5.5 82.5q-8 29 -2 59t6 44h-20q-2 -11 -7 -29t-2 -25q6 -19 3 -33.5t-2 -33.5q3 -19 -6 -20.5t0 -15.5q7 -10 -4 -39q-9 -17 -5 -32.5t1 -30.5q-5 -21 2.5 -48t7.5 -34q-3 -18 -16 -35.5t-34 0.5
q-14 11 -7 42t9 33q12 12 6.5 23.5t2.5 26.5q0 1 -3 25q-2 15 5 27t-1 23q-26 31 -19 29t4 38q-2 15 5 16.5t10 16.5q10 55 12.5 50.5t-7.5 22.5q-9 23 -20 2t-15 -32q-7 -18 -12 -18.5t-20 -50.5q-3 -9 -10.5 -15t-7.5 -12q-6 -27 -11 -29t-40 -32q-8 -6 -42.5 -9.5
t-43.5 -9.5q-45 -30 -49 -26t-14 -3q-18 -12 -24 -6.5t-15 8.5l-24 -2q-21 8 -20 9q-14 -3 -21 -12t-19 -6q-13 1 -21 -10.5t-18 -5.5q-36 18 -29 22t-47 -2q-40 -4 -66 5t-28 9q-23 -6 -22.5 7t-16.5 17v11zM902 941q29 -3 31 -4.5t22 -17.5q18 -17 20 -18q-3 -2 -26 -13
q-31 -17 -35 22q-39 1 -49.5 -20t-24.5 -30q-13 -10 -6.5 -16.5t-5.5 -19.5q-10 -12 -12.5 -12t-3.5 -14q-1 -9 -13.5 -26t-0.5 -17q18 -1 43 42.5t27 44.5l28 7q6 -12 -4.5 -17.5t-11.5 -12.5q-3 -13 -35 -41l-1 -11q9 -1 12 5.5t12 6.5q8 -1 13.5 -4.5t11.5 9.5
q1 -1 24 16q3 3 5.5 15.5t8.5 13.5q7 1 6.5 -0.5t19.5 4.5q0 7 -3 14t-2 11q0 3 17.5 19.5t23.5 34.5q-25 12 -4 22t27 16q21 22 6 24.5t43 41.5q64 42 -2 26t-90 -37q-12 -11 -43 -27t-28 -37zM867 668q9 -14 30 -7.5t36 24.5q-6 5 -6 3.5t-14 14.5q1 2 5 7t9 13h-10l1 13
q20 14 21 16l37 4l-14 16q2 7 28.5 20.5t34.5 7.5q12 -9 26.5 0.5t21.5 18.5q3 6 38 4t36 14q0 11 -17 21t-25 -3q-12 -21 -68.5 -28t-89.5 -38q-8 -7 -7.5 -19.5t-25.5 -22.5q-66 -27 -49 -26.5t2 -47.5q-2 -4 0 -5zM363 419q5 -1 33 7.5t32 11.5q2 1 25 29.5t45 31.5
q12 1 13 2.5t10 30.5q-24 15 -41 3t-33 -24q-23 -20 -61.5 -41t-22.5 -51zM1184 1166q-18 -3 -33.5 -20t-27.5 -17q-18 -1 -28 -14.5t-25 -16.5q-12 -3 -18 -14.5t11 -8.5q15 2 25.5 -0.5t22.5 6.5q9 7 11.5 0.5t11.5 -3.5q4 1 36.5 24.5t41.5 32.5q12 13 -2 23t-26 8z
M502 404q1 14 33 38q12 10 7.5 12t-4.5 27q-1 16 -12 14q-11 -3 -22.5 -26t-36.5 -41q-7 -5 -39 -18.5t-34 -31.5q-4 -30 46.5 -6t61.5 32zM442 578q-10 -4 -17.5 -14t-28.5 -15q-2 0 -37.5 -28.5t-37.5 -29.5q-6 -7 -8 -33t28 2q14 13 49.5 44t57.5 37q15 5 27.5 20t2.5 17
h-36zM304 371q-11 6 -30.5 -8.5t-50.5 -26.5q-12 -4 -35.5 -33t-17.5 -38q13 -27 74.5 26t59.5 80zM1118 746q6 -1 23.5 1t20.5 5q10 9 9 25.5t6 17.5q36 4 53 29.5t-6 19.5q-4 -2 -8.5 -6.5t-8.5 -5.5q-13 -6 -29.5 -2.5t-38.5 -16.5q-25 -22 -35 -23t14 -44zM883 471
q-3 -37 -16 -28t-28 -15h-26q-6 -10 -2 -16t-11 -22q2 -17 23 -14q25 2 16.5 14.5t22.5 21.5q30 7 56.5 41.5t30.5 64.5q-17 9 -18 -16t-48 -31zM183 189q28 -34 78 31.5t5 54.5q-23 -6 -28.5 -19.5t-21.5 -28.5q-6 -6 -9.5 -2t-4.5 -5q-3 -10 -12 -14.5t-7 -16.5zM294 461
q-14 7 -51.5 -22t-49.5 -41q-9 -10 -14 -33.5t18 -4.5q17 13 34 24t28 27q8 12 22.5 20.5t12.5 29.5zM79 232q14 -11 53.5 35.5t32.5 56.5q-9 12 -40.5 -6t-31.5 -30q-1 -12 -7.5 -32.5t-6.5 -23.5zM940 272q-16 0 -26 -8q21 -3 21 -1t30 -5q2 2 1.5 9t3.5 13q9 13 19 16
t29 43q7 15 13 15.5t13 11.5q15 23 -12.5 7.5t-34.5 -27.5q-6 -12 -18 -7t-11 -13q0 -20 -10 -29t-18 -25zM944 194q11 -9 59 15t51 47q1 7 5.5 9.5t7.5 8.5q4 15 8 29t10 29q-9 0 -17.5 -24.5t-24.5 -37.5q-16 -12 -29 -25.5t-33 -17.5q-10 -3 -9.5 -7.5t-10.5 -7.5
q-19 -4 -17 -18zM442 295q-19 1 -54 -41t-14 -42q52 -2 60 40q3 15 11 20.5t-3 22.5zM757 494h-7q-5 -5 -9 -23.5t8 -14.5q15 4 22 0t23 5q6 3 11.5 0t11.5 3q3 3 6 20.5t7 20.5q2 2 6 8q6 10 19 11t13 13q0 18 -47 -25.5t-64 -17.5zM514 384q-23 0 -37 -19q-13 -18 -4 -58
t15 -19q3 14 17.5 32t8.5 33q-6 12 -3 16.5t3 14.5zM629 531q-10 7 -15 20q-54 4 -45 -38t24 -29q4 3 5 7.5t8 7.5q25 8 23 32zM975 415q-50 -31 -83 -74q16 -18 43 15q19 23 31 28.5t16 32.5q13 10 13 21q0 9 7.5 9.5t-2.5 9.5q-15 12 -20 -12t-5 -30zM1136 954
q18 4 53.5 14t49.5 24q20 21 -42 9.5t-61 -47.5zM526 412q-1 -13 12 -12t7 -16q-21 -60 7 -44t23 36q-3 11 -1.5 24.5t-1.5 32.5q-12 1 -21 -14q-4 -6 -25 -7zM334 305q17 3 37 42.5t2 39.5q-29 -1 -42 -40t3 -42zM670 509q-9 -3 -47 -38t-11 -44q18 -7 25 9.5t17 25.5
q12 9 10.5 19t8.5 20q3 3 2 6.5t-5 1.5zM967 722q5 -14 39 -20t35 12q1 22 -32 21t-42 -13zM596 599q-13 10 -34 -7q-7 -5 -24 -5t-10 -15q6 -15 38.5 -9.5t29.5 36.5zM612 666q5 0 26 14.5t19 22.5l-25 5l4 21l-17 4q-16 -16 -12 -33t5 -34zM997 842q9 -4 54.5 30.5
t-10.5 21.5q-28 -7 -36.5 -29.5t-7.5 -22.5zM557 316q-11 -5 -41 -40.5t-6 -26.5q13 5 44 42t3 25zM391 338q-18 -5 -13.5 -16t-4.5 -23q-32 -42 6.5 -13t29.5 42q-11 12 -18 10zM1240 1054q52 -3 50.5 20t-19.5 14q-3 -1 -17 -15t-14 -19zM1100 985q-8 -7 -23 -4.5
t-10 -18.5q4 -23 22.5 -9.5t21.5 25.5q2 17 -11 7zM1104 1014q15 0 23 15.5t40 15.5q22 0 17 7q-11 15 -45.5 -4t-34.5 -34zM1115 771q-17 21 5 21t25 -1q18 -12 -3 -16t-27 -4zM962 615q0 18 -26.5 14.5t-11.5 -11.5q21 -14 38 -3zM1177 880q24 -15 32 -3t-19 18
q-13 2 -13 -15zM901 853q-24 33 5.5 15t-5.5 -15zM894 785l-1 -1z" />
    <glyph glyph-name=".null" horiz-adv-x="0" 
 />
    <glyph glyph-name="nonmarkingreturn" horiz-adv-x="2000" 
 />
    <glyph glyph-name="space" unicode=" " horiz-adv-x="600" 
 />
    <glyph glyph-name="exclam" unicode="!" horiz-adv-x="559" 
d="M238 91q55 0 48 -72q-10 -68 -65 -68q-58 0 -48 68q8 72 65 72zM259 262l224 835q7 33 43 24q33 -9 24 -43l-224 -833q-8 -35 -43 -27q-36 15 -24 44z" />
    <glyph glyph-name="quotedbl" unicode="&#x22;" horiz-adv-x="261" 
d="M12 975l33 122q7 33 43 24q33 -9 24 -43l-33 -120q-8 -35 -43 -27q-36 15 -24 44zM152 975l33 122q7 33 43 24q33 -9 24 -43l-33 -120q-8 -35 -43 -27q-36 15 -24 44z" />
    <glyph glyph-name="numbersign" unicode="#" horiz-adv-x="536" 
d="M36 167h65l65 138h-96q-36 0 -36 36t36 36h130l53 112q16 30 48 16q31 -17 17 -48l-38 -80h98l53 112q16 30 48 16q31 -17 17 -48l-38 -80h42q36 0 36 -36t-36 -36h-76l-65 -138h107q36 0 36 -36t-36 -36h-141l-54 -114q-18 -32 -47 -17q-29 17 -17 49l38 82h-98
l-54 -114q-18 -32 -47 -17q-29 17 -17 49l38 82h-31q-36 0 -36 36t36 36zM181 167h98l65 138h-98z" />
    <glyph glyph-name="dollar" unicode="$" horiz-adv-x="659" 
d="M517 1092l-39 -139q71 0 147 -17q34 -8 26 -40q-9 -35 -43 -29q-82 18 -149 14l-74 -281q140 -51 170 -151q14 -52 -10 -106q-22 -48 -72 -86q-83 -63 -201 -72l-51 -194q-7 -32 -43 -24q-35 10 -26 43l48 172q-88 4 -166 32q-34 12 -22 45q9 33 44 22q69 -24 161 -29
l81 303q-131 47 -158 134q-18 46 2 99q14 36 65 84q78 58 197 76l43 161q9 34 43 27q34 -9 27 -44zM385 874q-79 -17 -132 -58q-28 -21 -46 -55q-9 -30 0 -50q16 -52 110 -87zM293 259q80 11 140 56q32 24 48 57q11 30 4 58q-15 60 -120 103z" />
    <glyph glyph-name="percent" unicode="%" horiz-adv-x="822" 
d="M599 384q19 0 31 -3q46 -15 67 -50q24 -34 24 -87q0 -26 -7 -52q-19 -75 -72 -123q-55 -53 -120 -53q-22 0 -31 3q-45 13 -70 50q-24 41 -24 87q0 25 7 52q17 68 72 123q57 53 123 53zM611 312q-3 2 -12 2q-37 0 -72 -34q-44 -44 -53 -88q-5 -20 -5 -36q0 -28 12 -48
q11 -17 26 -20q3 0 7 -1t8 -1q34 0 72 34q37 37 53 88q5 30 5 36q0 27 -12 48q-13 15 -29 20zM17 19l728 1102q21 26 50 10q27 -22 10 -51l-728 -1098q-22 -30 -50 -10q-27 16 -10 47zM345 1136q19 0 31 -3q46 -15 67 -50q24 -34 24 -87q0 -26 -7 -52q-19 -75 -72 -123
q-55 -53 -120 -53q-22 0 -31 3q-45 13 -70 50q-24 41 -24 87q0 25 7 52q17 68 72 123q57 53 123 53zM357 1064q-3 2 -12 2q-37 0 -72 -34q-44 -44 -53 -88q-5 -20 -5 -36q0 -28 12 -48q11 -17 26 -20q3 0 7 -1t8 -1q34 0 72 34q37 37 53 88q5 30 5 36q0 27 -12 48
q-13 15 -29 20z" />
    <glyph glyph-name="ampersand" unicode="&#x26;" horiz-adv-x="678" 
d="M608 315l-195 -178l-5 -3q35 -92 51 -103q14 -9 46 21.5t98 120.5q23 26 48 7q27 -20 9 -50q-88 -119 -143.5 -152t-100.5 -1q-37 25 -63 105q-36 -35 -79.5 -66t-86.5 -46h-2q-116 -38 -158 95v2q-27 86 58.5 184t157.5 164q-14 63 -17 125q-5 112 38 192q38 73 101 96
q24 8 41 8q33 0 62 -15q37 -22 48 -72q12 -40 -7 -101q-36 -115 -177 -249q-5 -5 -10 -8q9 -37 29 -88q9 -26 17.5 -49.5t15.5 -47.5l178 161q26 22 48 -2q26 -26 -2 -50zM327 154l-5 12q-8 27 -18 55t-20 58q-11 25 -20 57q-63 -58 -125 -128.5t-45 -121.5q21 -62 69 -50h3
q39 12 83.5 48.5t77.5 69.5zM408 766q-8 0 -19 -5q-37 -13 -62 -62q-32 -61 -29 -156q0 -37 7 -70q108 108 137 197q11 42 5 65q-5 20 -17 26q-9 5 -22 5z" />
    <glyph glyph-name="quotesingle" unicode="'" horiz-adv-x="121" 
d="M12 975l33 122q7 33 43 24q33 -9 24 -43l-33 -120q-8 -35 -43 -27q-36 15 -24 44z" />
    <glyph glyph-name="parenleft" unicode="(" horiz-adv-x="451" 
d="M429 1162q-117 -161 -191.5 -320.5t-113.5 -315.5q-73 -297 -34 -623q5 -37 -31 -41q-36 -5 -41 31q-18 161 -10.5 323t49.5 327q81 340 314 660q20 28 51 7q29 -22 7 -48z" />
    <glyph glyph-name="parenright" unicode=")" horiz-adv-x="451" 
d="M22 -74q117 161 191.5 320.5t113.5 315.5q73 297 34 623q-5 37 31 41q36 5 41 -31q18 -161 10.5 -323t-49.5 -327q-81 -340 -314 -660q-20 -28 -51 -7q-29 22 -7 48z" />
    <glyph glyph-name="asterisk" unicode="*" horiz-adv-x="1565" 
d="M373 -337q-11 -6 -31 -19q-34 -22 -54 1t-50 28q-38 8 -54 0.5t-65 19.5q-5 2 -13 13q-23 22 -21.5 22t-19.5 24q-19 22 -9 51.5t21 49.5q64 103 89 119.5t121 65.5q37 16 66 27.5t63 27.5q50 22 67 28t70 16q28 6 60 34q39 28 25 61q-50 8 -52 8.5t-39 -21.5
q-11 -7 -21 -9.5t-19 -4.5l-13 -13q-5 -5 -20 -12q-19 -12 -20.5 -10.5t-27.5 2.5q-34 0 -38 9q-10 16 15 31q13 6 49 -5q48 43 53.5 38.5t28.5 14.5q33 25 108 15q15 32 23.5 49t-17.5 20v-33q-63 14 -89 38.5t2 108.5q-27 -8 -77.5 -8.5t-51.5 44.5l31 10q13 0 26.5 -11.5
t39.5 -2.5l5 1h1q1 0 1 2q45 16 61.5 28.5t32.5 59.5q14 30 -5 71q27 22 39 24q14 -104 5.5 -97.5t-12.5 -40.5q61 18 110.5 -10.5t1.5 -112.5l-28 13l-3 -29q13 3 40 9t37 13q10 57 7.5 61.5t0.5 35.5q2 25 30.5 68.5t49.5 68.5q6 6 9.5 15t13.5 13q11 4 31 -13
q-13 -31 -32 -50t-42 -60t-21 -70q2 -24 -3.5 -42t-2.5 -33l21 -4l33 73q17 20 20 29q14 25 29.5 43.5t33.5 43.5q54 82 46 79.5t18 63.5q10 20 21 28.5t23 22.5q5 7 11.5 11.5t12.5 12.5l20 30q18 30 33 43t35 35q34 32 47 48q39 44 78.5 26.5t52.5 -68.5q4 -18 1.5 -26
t-1.5 -21l2 -18q8 -25 13 -53.5t18 -58.5q3 -9 7 -15.5t6 -14.5q8 -26 -26 -65l31 -87q-14 -49 -15 -48q3 -9 8.5 -19t8.5 -21q14 -43 -23 -81q-36 -43 -71 -44q-66 -11 -94 -18q-51 -12 -44 -13.5t-50 -1.5q-33 2 -47 -6t-41 -14q-23 -6 -51 -5t-30 -24l98 13
q42 -2 127 -22.5t132 -22.5q21 -3 24 0.5t24 -17.5l-3 -22h-64l-133 28q-35 6 -69.5 12.5t-69.5 6.5q-41 -1 -51 -13q34 -3 70.5 -6.5t64.5 -18.5q47 -20 100 -61q23 -18 43 -37t45 -35l56 -35q40 -25 55 -19q17 4 28.5 23t43.5 -7q31 -26 -0.5 -56t-106.5 6q-10 6 -22 9
t-25 9q-37 17 -40.5 26t-26.5 24q-60 41 -105 83t-120 54q-34 5 -38.5 2t-7.5 -11q37 -8 64.5 -16t54.5 -32q45 -41 37 -107q37 -19 63 -34t36 -61q6 -28 16 -33q7 -6 26 -22q32 -38 12 -93l16 -11q30 -27 22 -54t-12 -59q-13 -6 -33 -16t-33 -7q-41 1 -64 35l-57 -2
q-11 2 -45 27q-11 13 -11 20t-9 22q-83 12 -90 37t-21 61l-18 3q3 0 -19 6q-43 16 -51.5 36.5t-26.5 36.5l30 -64q15 -18 21 -28q3 -3 7 -18q7 -14 28.5 -54.5t28.5 -49.5q24 -43 47 -75.5t20 -57.5q-4 -89 -54 -41q-27 24 -11.5 35.5t21.5 18.5q-17 33 -37 64.5t-33 67.5
q-14 28 -14 26t-17 25l-13 25q-27 65 -40.5 63.5t-33.5 103.5q-2 15 -2 35q2 24 -2 31q-6 -43 -5.5 -46.5t2.5 -39.5q3 -25 3 -51t1 -47q4 -31 28.5 -99t-2.5 -73q0 -1 -24.5 2t-24.5 33l13 3q7 0 9 2q-13 39 -25 77t-14 85q-1 22 1 43.5t-4 47.5q-5 31 -3 48q8 29 -11 35
q-8 -14 -14 -30q-2 -12 -3 -21t-4 -19q-7 -20 -14 -76l-12 -39q-1 -14 1 -22.5t-1 -17.5q-1 -9 -4.5 -18.5t-6.5 -20.5q-6 -43 -11.5 -47.5t-14.5 -26.5q-8 -33 -7.5 -60t-37.5 -39q-40 -18 -78 -5.5t-79 -1.5q-46 -15 -63 7q-27 36 -47 45zM453 -359q24 6 41 12.5t47 3.5
l97 3l6 44q4 29 9.5 34.5t13.5 27.5q20 49 16 74t6 57q9 25 14.5 63t15.5 70l16 53l-20 13q-1 -3 -19 -30q-4 -9 -10.5 -16.5t-10.5 -14.5l-25 -88l-33 6q-22 -59 -10.5 -105t0.5 -71l-26 -45l13 -38q-16 1 -44 50q8 7 12.5 6.5t11.5 7.5q19 18 18 49.5t-2 56.5
q-3 -2 -9 -13l-24 -60q-24 -8 -23.5 -3.5t-12.5 -26.5l-44 -19l-8 -42q-17 3 -10 57l40 10q10 12 9 18t13 20q25 18 28.5 39t16.5 47q10 21 19 30.5t9 38.5q0 25 11 24q13 -3 12.5 -7.5t20.5 -4.5q6 22 7.5 39.5t15.5 37.5l41 65l-23 20q-28 -6 -47 -41q-8 -19 -11 -41
t-13 -36q-10 -21 -24 -21.5t-33 -6.5q-38 -15 -34 -56q7 -36 16.5 -42t-54.5 -75q-26 -29 -40 -56t-31 -61q-19 18 8 65q10 16 19 28q32 45 61.5 70.5t-0.5 60.5q-13 -26 -13 -34t-30 -32q-33 -27 -38 -67q-6 -35 -43 -44.5t-64 -12.5l-6 20q30 0 67 15q6 3 17.5 28t12.5 34
q1 13 22 27.5t28 21.5l52 95q-8 0 -38 -16.5t-37 -21.5q-13 -25 -9.5 -35t-37.5 -19q-27 -9 -30.5 -28t-23.5 -32l-134 -61q-3 25 26.5 25.5t100.5 70.5q10 9 12 13.5t8 13.5q7 6 60 26q4 15 37 59l-43 4q-10 -7 -12 -11.5t-17 -9.5q-35 -16 -34.5 -16t-31.5 -58
q-12 0 -19 6t-17 -6q-14 -29 -23 -34q-8 -4 -19 -7t-18 -6q0 -1 -24 -37q-14 6 -13 18q9 37 47 44q21 4 31 28l36 25q13 42 47 54q36 11 60 39l30 -16q45 9 67 19q37 -6 71 16q31 -14 38 7t14 49q9 44 50 64q19 10 16 17.5t-13 1.5q-26 -14 -39.5 -34t-64.5 -29
q-55 -8 -80 -19l-75 -33q-33 -16 -113.5 -49t-104.5 -60q-15 -20 -51.5 -70t-37.5 -74q-2 -18 17.5 -39t33.5 -29q35 -20 68 -10.5t67 -14.5q34 -22 36 -20q28 -2 42.5 20t68.5 -25zM1122 607q9 50 11 47t26 29q10 10 16.5 23.5t16.5 24.5q17 15 15 25t3 37q9 25 14 41.5
t29 29.5l10 8q7 1 26 3q-3 -21 -14.5 -23t-24.5 -11l-21 -59q30 -4 40.5 15t24.5 21l37 2q-4 -17 -21 -20q-10 -3 -26 -18l-57 -24q-1 -9 1 -12t-5 -13q-3 -9 -8 -10t-10 -8q-13 -16 -21.5 -31.5t-24.5 -28.5q-17 -20 -17 -40.5t-26 -29.5q-32 -15 -33 -45.5t-19 -52.5
q-24 -34 -70 -70q4 -2 50 20q33 15 38 44q6 22 23 60t36 48q11 6 13 4.5t12 10.5q19 19 23 20.5t11 26.5q9 16 17 25q23 23 30 51.5t32 22.5l12 -4l46 55q4 -11 -10 -33q-23 -40 -23 -40.5t-30 -0.5q-12 -3 -16.5 -23t-15.5 -31q-20 -24 -19 -22q-7 -10 -6.5 -16t-6.5 -13
q-17 -25 -38 -42t-40 -33q20 10 24.5 14.5t31.5 7.5q29 1 28 11.5t29 14.5q55 8 54.5 12t34.5 20l14 -17q-4 -3 -25 -15q-26 -14 -55 -17t-45 -15q-28 -25 -40.5 -15.5t-58.5 -37.5l-16 -10q-10 -66 -32 -70.5t-54 -21.5l-32 -26q27 4 62.5 20t63.5 25q10 1 39 19q3 1 21 6
q3 0 19 13q14 7 24.5 3t26.5 -2q30 6 50 18.5t60 17.5l-5 -19l-44 -12q-14 -16 -41 -21q-16 -6 -31 -3.5t-23 0.5q7 0 -20 -13q-6 -3 -11.5 -3.5t-12.5 -3.5q-12 -2 -19.5 -10t-24.5 -9q-30 -7 -47 -15q-18 -10 -46 -16t-43 -17l-24 -37q14 -6 20 0.5t21 12.5q13 3 24 4
t23 2q27 4 44.5 13.5t46.5 9.5q13 0 29 -0.5t26 2.5q31 4 62 16t74 15q27 1 41 14q5 3 17.5 16.5t15.5 17.5q12 19 -4.5 38.5t-16.5 49.5t15.5 42.5t-14.5 47.5q-31 36 -12.5 48t24.5 33q1 4 -10.5 38t-15.5 39q-3 14 -10 40l-3 19q-5 29 -4 56t-17 52q-20 34 -64 -14
q-3 -2 -13 -14q-7 -10 -11 -16q-9 -7 -14.5 -11.5t-15.5 -13.5q-17 -19 -26.5 -27t-22.5 -33q-12 -24 -24.5 -34.5t-26.5 -24.5q-31 -31 -44 -79q-9 -40 -11 -46q-6 -20 -11 -19.5t-14 -11.5q-11 -14 -23 -33t-22 -34q-16 -19 -53 -74t-34 -71q4 -19 28 9q16 16 30 23
q16 8 14.5 11.5t17.5 10.5q3 0 25 30q7 7 15 14.5t12 12.5q3 3 13 47q12 38 57 56zM678 224q6 -19 10 -25l13 -27q99 -143 209.5 -103t69.5 144q-19 50 -53 100q-43 69 -92 66q-67 -2 -110 -37q-16 -15 -36 -51.5t-11 -66.5zM1027 149q-5 -10 -20.5 -50.5t-65.5 -59.5
l-45 -14q-3 -21 14 -69q13 -31 43 -51q38 -27 72 -11t56 38q24 22 44 53.5t11 81.5q-12 76 -109 82zM1085 -212q74 -11 104 24l50 97q13 35 -16 60l-57 26q-18 -82 -112 -130q-19 -12 -19 -25q6 -45 50 -52zM645 352q12 12 14.5 21t19.5 23q6 5 11 7.5t12 10.5
q23 19 28.5 16.5t12.5 16.5q6 18 0 37q-9 26 -51 22q-40 -9 -57 -15q-22 -10 -38.5 -53t-11.5 -62q9 -21 60 -24zM1272 -125q-6 -11 -9 -23t-10 -23q-18 -34 -44.5 -47t-65.5 -34q16 -39 63 -31q26 3 57 33q100 90 9 125zM1321 -243q-2 -3 -13 -17t-34 -33l-17 -17
q29 -24 54.5 -7t26.5 43q2 24 -17 31z" />
    <glyph glyph-name="plus" unicode="+" horiz-adv-x="613" 
d="M447 519l-38 -142h168q36 0 36 -36t-36 -36h-188l-43 -163q-12 -34 -43 -24q-36 7 -26 43l38 144h-168q-36 0 -36 36t36 36h187l43 161q8 32 44 24q34 -10 26 -43z" />
    <glyph glyph-name="comma" unicode="," horiz-adv-x="372" 
d="M330 110q11 -5 24 -21q18 -34 0 -77q-11 -23 -45 -64q-50 -55 -118 -84q-32 -12 -46 22q-8 34 22 45q46 15 91 65q21 24 32 45q2 8 3 9q-27 19 -11 48q18 30 48 12z" />
    <glyph glyph-name="hyphen" unicode="-" horiz-adv-x="656" 
d="M190 377h430q36 0 36 -36t-36 -36h-430q-36 0 -36 36t36 36z" />
    <glyph glyph-name="period" unicode="." horiz-adv-x="338" 
d="M280 106q58 0 46 -70q-9 -71 -65 -71q-55 0 -46 71q9 70 65 70z" />
    <glyph glyph-name="slash" unicode="/" horiz-adv-x="822" 
d="M17 19l728 1102q21 26 50 10q27 -22 10 -51l-728 -1098q-22 -30 -50 -10q-27 16 -10 47z" />
    <glyph glyph-name="zero" unicode="0" horiz-adv-x="650" 
d="M436 838q166 0 200 -120q14 -51 3 -121t-35 -158q-21 -84 -52.5 -167.5t-74.5 -149.5q-45 -70 -107.5 -113.5t-149.5 -43.5q-40 0 -67 10q-82 21 -120 97q-33 61 -33 161t33 221q50 186 139 278q104 106 264 106zM566 701q-16 67 -130 67q-127 0 -213 -86
q-77 -80 -123 -247q-29 -107 -29 -202q0 -79 24 -130q27 -50 77 -62q25 -5 48 -5q115 0 200 125q39 60 67 138.5t50 159.5q47 171 29 242z" />
    <glyph glyph-name="one" unicode="1" horiz-adv-x="357" 
d="M31 672l269 161q29 18 48 -12q9 -12 4 -29l-228 -801q-9 -31 -43 -24q-34 9 -24 43l202 717l-190 -115q-28 -20 -50 12q-19 31 12 48z" />
    <glyph glyph-name="two" unicode="2" horiz-adv-x="742" 
d="M180 588q20 103 94 173q77 66 177 75q97 3 164 -51q56 -46 67 -120q11 -79 -34 -173q-45 -90 -155 -201.5t-306 -240.5q104 8 192 8q160 0 327 -22q36 -10 31 -40q-9 -34 -41 -31q-146 24 -317 24q-81 0 -165 -6.5t-168 -17.5q-38 -3 -41 31q-5 25 21 35
q249 149 379.5 272.5t177.5 219.5q37 71 29 130q-8 51 -43 77q-45 37 -113 34q-81 -6 -134 -56q-56 -51 -72 -134q-9 -33 -43 -29q-36 8 -27 43z" />
    <glyph glyph-name="three" unicode="3" horiz-adv-x="635" 
d="M186 675q38 76 96 115q60 46 127 46q102 0 156 -75q70 -95 5 -199q-49 -81 -158 -137q68 -14 113 -58q46 -47 50 -112q0 -64 -31 -121q-39 -69 -118 -119t-185 -50q-58 0 -101 12q-53 11 -110 42q-30 18 -13 48q19 29 49 12q46 -28 89 -33q38 -10 86 -10q84 0 147 39
t93 93q25 42 22 84q0 38 -29 67q-71 70 -281 32q3 -15 -6 -9.5t6 9.5h-2q-38 -10 -41 26q-9 31 24 41h2q146 33 224.5 81t109.5 99q38 65 -2 120q-37 48 -99 48q-44 -4 -86 -31q-48 -41 -75 -94q-18 -33 -48 -14q-32 17 -14 48z" />
    <glyph glyph-name="four" unicode="4" horiz-adv-x="691" 
d="M590 588l-84 -314h151q34 0 34 -34q0 -36 -34 -36h-170l-58 -213q-7 -31 -43 -24q-34 9 -24 43l53 194h-365q-10 0 -21 7q-29 21 -7 48l422 565q20 27 50 7q28 -23 7 -48l-381 -509h314l89 331q9 34 43 26q33 -8 24 -43z" />
    <glyph glyph-name="five" unicode="5" horiz-adv-x="681" 
d="M295 -35q-76 0 -147 42q-68 42 -128 123q-20 27 6 50q27 19 50 -7q48 -69 108 -103q55 -34 111 -34q75 0 132 62.5t86 146.5q33 90 22 173q-12 72 -65 93q-92 34 -279 -96q-29 -22 -50 10q-11 14 -2 34l151 357q10 22 34 22h321q36 0 36 -34q0 -36 -36 -36h-297
l-101 -235q153 78 247 43q89 -31 110 -146q14 -93 -24 -209q-34 -102 -109.5 -178t-175.5 -78z" />
    <glyph glyph-name="six" unicode="6" horiz-adv-x="655" 
d="M614 768q-200 21 -327 -89q-106 -90 -178 -290q81 59 171 79q76 17 146 -2q71 -24 108 -82q43 -69 29 -161q-15 -124 -101 -189q-87 -66 -220 -69h-8q-26 3 -62 12q-90 25 -132 100q-40 69 -33.5 152.5t28.5 159.5v2q36 106 85.5 193.5t118.5 147.5q152 129 382 106
q34 -4 31 -38q-4 -36 -38 -32zM494 230q5 71 -20 116q-27 39 -69 50q-46 17 -108 3q-119 -25 -216 -132v-17q-8 -87 21 -140q30 -50 89 -67q11 -2 23 -4.5t25 -2.5q113 2 180 53q62 48 75 141z" />
    <glyph glyph-name="seven" unicode="7" horiz-adv-x="704" 
d="M163 838q137 -12 245 -12q63 0 126.5 3t130.5 9q33 3 39 -31q0 -16 -10 -27l-276 -357h91q34 0 34 -36t-34 -36h-144l-286 -372q-25 -29 -49 -7q-30 22 -7 50l253 329h-129q-36 0 -36 36t36 36h182l262 338q-45 -2 -90.5 -3.5t-92.5 -1.5q-142 0 -254 12q-37 5 -31 39
q3 34 40 31z" />
    <glyph glyph-name="eight" unicode="8" horiz-adv-x="619" 
d="M549 166q-9 -36 -36 -77.5t-77 -71.5q-78 -52 -190 -52q-49 0 -93 12q-79 21 -115 69q-38 45 -38 100q0 6 5 36q27 110 111.5 175t180.5 116q-51 43 -77 94t7 129q25 62 92 101q60 41 132 41h19q61 -8 103 -46q46 -43 46 -101q0 -7 -3 -12q-7 -78 -62 -127.5t-130 -90.5
q65 -51 109 -117.5t16 -177.5zM479 182q24 90 -20.5 144.5t-101.5 98.5q-90 -47 -175.5 -105.5t-110.5 -153.5v-20q0 -32 19 -55q26 -34 80 -48q29 -7 76 -7q89 0 154 41q65 42 79 105zM292 670q-22 -53 3.5 -90t68.5 -71q72 37 124.5 78.5t58.5 99.5v4q0 27 -22 51
q-26 20 -62 24q-3 0 -5 1t-5 1h-2q-46 0 -96 -31q-46 -29 -63 -67z" />
    <glyph glyph-name="nine" unicode="9" horiz-adv-x="679" 
d="M571 475q-93 -130 -197 -170q-64 -22 -111 -12q-56 10 -88 53q-68 79 -32 221q27 117 111 197q84 74 197 74q77 0 125 -24q56 -26 79 -77q7 -8 2 -22h3q10 -3 14 -16l1 -2l1 -1v-2q3 -5 3 -12q-15 -177 -71 -314t-133 -229q-76 -89 -161 -134q-92 -47 -171 -40
q-67 4 -120 47q-23 22 -3 50q22 30 49 3q32 -28 82 -31q58 -5 129 33q71 35 140 118q102 119 151 290zM590 708q-11 25 -43 41q-43 19 -96 19q-85 0 -149 -57q-65 -62 -89 -161q-28 -104 14 -159q18 -22 49 -28q26 -7 72 9q63 23 132 100.5t127 218.5q-10 7 -17 17z" />
    <glyph glyph-name="colon" unicode=":" horiz-adv-x="445" 
d="M306 91q55 0 48 -72q-10 -68 -65 -68q-58 0 -48 68q8 72 65 72zM392 401q53 0 46 -70q-9 -72 -65 -72q-59 0 -46 72q8 70 65 70z" />
    <glyph glyph-name="semicolon" unicode=";" horiz-adv-x="420" 
d="M313 110q11 -5 24 -21q18 -34 0 -77q-11 -23 -45 -64q-50 -55 -118 -84q-32 -12 -46 22q-8 34 22 45q46 15 91 65q21 24 32 45q-24 28 -8 57q18 30 48 12zM367 401q53 0 46 -70q-9 -72 -65 -72q-59 0 -46 72q8 70 65 70z" />
    <glyph glyph-name="less" unicode="&#x3c;" horiz-adv-x="606" 
d="M576 567l-468 -274l312 -267q25 -21 5 -49q-25 -24 -50 -2l-348 294q-3 5 -10 12q-17 28 14 48l509 298q31 16 48 -12q18 -32 -12 -48z" />
    <glyph glyph-name="equal" unicode="=" horiz-adv-x="536" 
d="M36 167h430q36 0 36 -36t-36 -36h-430q-36 0 -36 36t36 36zM70 377h430q36 0 36 -36t-36 -36h-430q-36 0 -36 36t36 36z" />
    <glyph glyph-name="greater" unicode="&#x3e;" horiz-adv-x="606" 
d="M30 29l468 274l-312 267q-25 21 -5 49q25 24 50 2l348 -294q3 -5 10 -12q17 -28 -14 -48l-509 -298q-31 -16 -48 12q-18 32 12 48z" />
    <glyph glyph-name="question" unicode="?" horiz-adv-x="761" 
d="M298 91q55 0 48 -72q-10 -68 -65 -68q-58 0 -48 68q8 72 65 72zM319 262q30 120 91 208t123 164q46 59 86.5 115t57.5 118q12 49 12 81q0 45 -14 75q-21 28 -53 38q-20 5 -41 5q-104 0 -156 -36q-58 -36 -75 -125q-4 -33 -40 -29q-35 5 -29 41q19 113 105 173
q71 46 195 46q32 0 60 -8q60 -17 94 -69q26 -43 26 -111q0 -49 -14 -100q-22 -72 -65.5 -133t-93.5 -124q-58 -72 -115.5 -154.5t-86.5 -191.5q-8 -35 -43 -27q-36 15 -24 44z" />
    <glyph glyph-name="at" unicode="@" horiz-adv-x="982" 
d="M800 125q113 161 113 269q0 39 -17 72q-20 34 -46 50q-64 46 -163 46q-157 -5 -264 -84q-107 -74 -154 -219q-23 -60 -26 -122q-7 -102 45 -172q47 -60 123 -86q27 -9 74 -15q63 -3 140 17q62 17 81 38q23 27 51 5q24 -20 4 -50q-34 -38 -117 -63q-81 -21 -163 -16
q-52 4 -92 16q-102 38 -158 113q-68 87 -58 218q5 67 29 139q54 166 180 254q123 92 305 96h2q125 0 202 -57q43 -29 67 -75q24 -45 24 -105q0 -132 -124 -310q-78 -104 -130 -124q-51 -14 -75 17q-21 25 -21 71q-4 24 5 67q-6 -5 -22 -26q-119 -129 -211 -129
q-96 5 -92 114q0 69 49 171q53 99 120 154q59 50 126 59t133 -50l7 12l7 15q18 29 48 16q30 -16 17 -48q-122 -236 -118 -353q0 -19 3 -24q34 16 96 99zM706 343q-83 82 -180 3q-60 -50 -103 -135q-41 -82 -41 -139q0 -41 24 -41q61 0 156 106q32 37 69 88.5t75 117.5z" />
    <glyph glyph-name="A" unicode="A" horiz-adv-x="1619" 
d="M1418 1092l-156 -588q149 -7 224.5 1.5t113.5 46.5q22 28 48 3q23 -25 2 -51q-52 -52 -145 -65t-262 -2l-120 -446q-9 -31 -43 -24q-34 9 -24 43l115 434q-83 12 -172.5 29.5t-175.5 35.5l-351 -339q-81 -78 -140 -127.5t-107 -72.5q-101 -49 -202 32q-23 24 -4 51
q23 27 50 5q64 -55 125 -24q41 18 95.5 65t132.5 122l317 305q-88 18 -185 36q-39 4 -29 41q5 33 39 28q55 -9 114.5 -21t122.5 -24l560 540q25 25 50 0q13 -19 7 -34zM885 569q78 -17 155.5 -31.5t149.5 -23.5l128 473z" />
    <glyph glyph-name="B" unicode="B" horiz-adv-x="838" 
d="M240 1049q-39 -9 -67 -21q-35 -9 -46 24q-15 33 22 43q135 46 238 54.5t177 -9.5q66 -18 115 -55q45 -41 63 -91q19 -53 5 -122q-38 -145 -207 -233q-33 -18 -62 -27q113 -29 177 -84q72 -65 80 -153q6 -123 -86 -221q-83 -90 -175 -136q46 6 94 19t93.5 32.5t84.5 46
t67 59.5q20 24 53 0q20 -26 4 -41q-42 -54 -102.5 -90.5t-127.5 -58t-134.5 -29.5t-122.5 -6q-285 -5 -393 15q-2 2 -5 2q-32 9 -24 43zM38 29q115 -18 213 -3.5t176 48.5q81 36 161.5 116.5t73.5 179.5q-4 59 -52 105q-64 52 -168 72q-67 15 -130.5 16.5t-129.5 -1.5z
M202 634q160 -5 304 67q142 75 171 187q11 46 -2 82q-13 34 -41 60q-35 26 -87 41q-103 23 -228 -3z" />
    <glyph glyph-name="C" unicode="C" horiz-adv-x="586" 
d="M803 968q-40 45 -94 69q-97 49 -211 10q-108 -32 -209 -132q-97 -94 -161 -226q-60 -130 -64.5 -256.5t33.5 -223.5q27 -76 87 -127q52 -46 120 -46q120 -4 257 139q23 25 50 3q23 -25 2 -51q-155 -162 -309 -162q-91 0 -166 61q-68 56 -108 159q-40 108 -35.5 249.5
t71.5 285.5q61 137 175 248q112 107 236 146q139 47 261 -12q63 -30 118 -84q22 -26 -2 -50q-23 -23 -51 0z" />
    <glyph glyph-name="D" unicode="D" horiz-adv-x="896" 
d="M127 -49q4 1 7 1q-81 0 -160 15q-32 6 -27 40l1 1l1 2l278 1042q-48 -7 -106 -20q-36 -8 -43 27q-9 33 26 43q345 74 576 22q129 -32 202 -94q82 -72 103 -170q19 -85 -5 -181q-43 -195 -140.5 -338.5t-226.5 -234.5q-77 -55 -162 -90q51 2 110 12t116 28.5t107.5 47
t83.5 67.5q20 24 53 0q20 -26 4 -41q-38 -57 -110 -94t-174 -58t-231.5 -27t-282.5 0zM303 1064l-278 -1035q292 -45 547 134q119 84 209 217.5t132 315.5q19 88 5 149q-18 76 -82 130q-70 58 -173 81q-143 32 -360 8z" />
    <glyph glyph-name="E" unicode="E" horiz-adv-x="646" 
d="M648 535q-9 2 -19.5 2.5t-19.5 2.5q-187 16 -306 -32.5t-174 -123.5q-39 -54 -50 -115q-9 -65 12 -113q45 -118 197 -125q82 -4 180 41q94 39 148 103q24 24 51 3q27 -24 5 -51q-69 -76 -176 -120q-120 -50 -213 -47q-99 6 -164.5 53.5t-92.5 118.5q-26 68 -16 147
q17 86 64 146q46 64 129.5 113t204.5 67q-66 43 -99 98q-39 72 -31 149q2 57 29 113q47 94 134 142q86 48 185 31q59 -10 101 -34q66 -36 96 -88q18 -32 -12 -48q-31 -18 -48 12q-25 40 -67 62q-40 18 -82 26q-74 14 -137 -24q-73 -39 -105 -110q-21 -41 -24 -86
q-5 -60 24 -109q30 -54 100 -88q59 -31 144 -41q9 0 19.5 -1.5t19.5 -1.5q34 -4 31 -40q-4 -32 -36 -32h-2z" />
    <glyph glyph-name="F" unicode="F" horiz-adv-x="598" 
d="M121 617q11 -6 22 -11t24 -11l125 471h-104q-36 0 -36 36q0 34 36 34h584q36 0 36 -34q0 -36 -36 -36h-406l-134 -502q81 -36 185.5 -54t161.5 42q23 25 50 3q23 -25 2 -51q-79 -85 -201 -68t-217 61l-135 -506q-9 -31 -43 -24q-35 9 -27 43l140 516q-15 6 -29.5 13
t-26.5 13q-33 14 -19 46q11 32 48 19z" />
    <glyph glyph-name="G" unicode="G" horiz-adv-x="902" 
d="M526 -258q-57 -54 -76 -104.5t-13 -85.5q2 -20 14 -34q7 -3 15 0q34 15 65 108l52 171zM927 1020q-58 25 -130 41q-50 12 -120 12q-154 0 -290 -117q-75 -63 -132.5 -151t-96.5 -183q-11 -30 -21 -58.5t-17 -56.5q-50 -179 -29 -310q19 -128 101 -163q75 -30 157.5 17.5
t135.5 94.5q170 150 346 464q15 23 43 17q32 -9 24 -44l-168 -547l144 142q26 22 50 -3q26 -25 0 -50l-237 -227l-89 -293q-37 -123 -106 -154q-49 -18 -84 12q-33 27 -41 77q-7 49 15.5 116.5t92.5 135.5l149 144l127 412q-114 -162 -218 -254q-71 -63 -171 -113t-196 -11
q-118 46 -144 217q-22 156 28 339q15 54 44 122q41 102 103.5 197t143.5 166q155 131 336 134q63 0 135 -14q78 -18 141 -46q32 -13 19 -45q-14 -32 -45 -20z" />
    <glyph glyph-name="H" unicode="H" horiz-adv-x="1158" 
d="M992 1092l-158 -593q240 -7 300 53q23 25 50 3q25 -26 0 -51q-45 -47 -121 -62.5t-249 -11.5l-117 -439q-9 -31 -44 -24q-32 9 -24 43l113 425q-103 10 -215 32.5t-222 46.5q-20 5 -41 9t-40 10l-147 -542q-9 -31 -43 -24q-34 9 -24 43l144 537q-57 11 -110 20
q-35 3 -29 40q3 34 41 29q60 -9 115 -21l134 494q8 34 44 27q31 -9 24 -44l-133 -492q20 -4 40 -9t42 -8q110 -25 224 -47.5t216 -31.5l163 605q8 34 43 27q32 -9 24 -44z" />
    <glyph glyph-name="I" unicode="I" horiz-adv-x="635" 
d="M329 1136h422q36 0 36 -34q0 -10 -2 -14l-233 -793q-42 -152 -124 -235q54 17 101.5 45.5t79.5 70.5q20 24 53 0q20 -26 4 -41q-36 -47 -81.5 -79.5t-95.5 -52t-102.5 -28t-103.5 -8.5q-71 -3 -120 12q-90 26 -145 103q-18 29 7 50q29 18 49 -10q43 -58 108 -76
q37 -13 79 -5q37 6 82 36q96 75 142 238l221 751h-377q-34 0 -34 36q0 34 34 34z" />
    <glyph glyph-name="J" unicode="J" horiz-adv-x="518" 
d="M273 1136h423q36 0 36 -34q0 -10 -2 -12l-245 -917l5 2q23 25 50 3q23 -26 0 -51l-91 -93l-20 -74q-57 -216 -127 -333t-128 -157q-63 -40 -116 -21q-50 23 -55 93q-3 51 28.5 124.5t108.5 152.5l246 251l264 996h-377q-33 0 -33 36q0 34 33 34zM190 -229
q-122 -128 -117 -224q3 -26 14 -33q20 -5 46 14q49 33 105.5 129.5t109.5 273.5z" />
    <glyph glyph-name="K" unicode="K" horiz-adv-x="936" 
d="M927 1076q-159 -167 -324 -279q-142 -99 -317 -185q73 -124 137 -247q54 -102 97.5 -175.5t85.5 -115.5q54 -52 122.5 -33t182.5 134q21 27 50 3q21 -28 0 -51q-141 -143 -233 -161t-170 58q-49 46 -95.5 124t-101.5 183q-30 54 -62.5 113.5t-69.5 124.5l-154 -578
q-12 -30 -46 -24q-29 10 -24 43l296 1099q8 34 43 27q34 -10 26 -44l-112 -415q164 78 304 178q179 124 315 271q26 23 50 0q28 -24 0 -50z" />
    <glyph glyph-name="L" unicode="L" horiz-adv-x="1124" 
d="M1073 963q-34 55 -70 77q-48 26 -118 26q-146 0 -246.5 -156.5t-199.5 -357.5q-60 -124 -126 -248.5t-150 -226.5q91 15 181.5 5t183.5 -24q73 -13 146 -22.5t144 -1.5q75 6 137 36q76 39 139 105q24 24 51 3q23 -26 0 -51q-85 -87 -159 -120q-73 -34 -163 -42
q-76 -7 -153 2.5t-154 21.5q-116 18 -231 25t-221 -44q-25 -12 -44 7q-20 29 9 54q109 104 191 253t156 299q106 218 217.5 385.5t291.5 167.5q90 0 154 -34q57 -37 96 -103q18 -32 -12 -48q-28 -20 -50 12z" />
    <glyph glyph-name="M" unicode="M" horiz-adv-x="1895" 
d="M1385 1092l-250 -934l754 963q11 18 38 15q32 -9 24 -44l-237 -883q-15 -54 -24 -105.5t2 -69.5q5 -9 43 18t125 116q21 25 51 2q21 -25 0 -50q-123 -125 -187.5 -144.5t-91.5 23.5q-22 33 -13 98.5t27 128.5l193 718l-754 -965q-25 -28 -51 -7q-14 16 -14 33q2 2 2 5
l257 955q-33 -36 -64 -72t-61 -69q-114 -130 -226.5 -258t-227.5 -251q-56 -62 -147 -142t-186 -137q-104 -55 -166 -64q-94 -14 -154 38q-15 17 -30 40q-17 32 12 48q30 19 47 -12q5 -7 9 -14t10 -12q37 -30 94 -19q54 8 142 57q91 52 177.5 129.5t139.5 135.5
q117 126 229.5 253t223.5 253q54 63 109.5 126t111.5 126q15 18 39 15q36 -10 24 -44z" />
    <glyph glyph-name="N" unicode="N" horiz-adv-x="1437" 
d="M979 -25l-22 1q-29 5 -23 34l259 960l-602 -653q-18 -20 -36 -38.5t-34 -38.5q-58 -63 -117 -126t-116 -102q-74 -48 -142.5 -47.5t-125.5 85.5q-20 28 8 51q27 16 49 -10q61 -92 173 -19q52 36 108 94.5t110 121.5q18 20 35.5 40t34.5 37l701 759q23 26 48 2
q17 -12 12 -29v-5l-250 -924l548 732q118 157 211 212q53 25 91 21q50 -9 72 -48q26 -40 29 -108q0 -36 -33 -36q-34 -4 -39 34q0 46 -17 72q-6 11 -21 17q-17 0 -48 -15q-83 -50 -188 -192l-612 -822q45 -2 96.5 5t101 24t93.5 45t74 67q20 24 53 0q20 -26 4 -41
q-41 -54 -93.5 -87t-110.5 -50.5t-119 -22t-120 -1.5z" />
    <glyph glyph-name="O" unicode="O" horiz-adv-x="1017" 
d="M808 1136q68 0 130 -22q86 -32 132 -110q40 -69 40 -178q0 -131 -57 -288q-102 -262 -272 -418q-52 -45 -106 -77q47 8 94.5 20.5t89.5 29t75 37.5t53 46q20 24 53 0q20 -26 4 -41q-28 -36 -72 -63t-97.5 -46.5t-112 -32t-115 -19.5t-106.5 -8.5t-87 0.5l-10 1
q-21 -2 -42 -2q-73 0 -130 22q-85 30 -124 104q-38 70 -38 168q0 129 64 303q45 123 111 232.5t153 187.5q165 154 370 154zM914 1049q-50 17 -106 17q-177 0 -322 -134q-158 -149 -247 -394q-58 -154 -58 -279q0 -87 29 -134q27 -50 111 -73q138 -62 412 121
q160 142 253 389q55 149 55 264q0 82 -31 144q-34 54 -96 79z" />
    <glyph glyph-name="P" unicode="P" horiz-adv-x="489" 
d="M288 1056q-24 -3 -49 -8.5t-52 -10.5q-36 -10 -43 27q-6 34 28 43q233 54 397 31q90 -15 151 -55q59 -43 74 -111q10 -33 3 -79v-14q-37 -186 -188 -262q-137 -74 -365 -41q-7 0 -12 3l-149 -554q45 -3 97.5 5t104 27t97 49t76.5 70q20 24 50 0q23 -26 7 -41
q-42 -54 -95.5 -88.5t-112 -54t-119 -25.5t-115.5 -3q-29 0 -42 3q-31 9 -23 43zM256 646q203 -30 322 33q122 65 147 214q2 3 2 10q3 29 0 53q-10 38 -48 69q-46 29 -120 43q-80 12 -194 0l-113 -422h4z" />
    <glyph glyph-name="Q" unicode="Q" horiz-adv-x="987" 
d="M542 29q-124 -64 -250 -64q-73 0 -130 22q-84 30 -125 104q-37 68 -37 168q0 129 64 303q45 123 111 232.5t153 187.5q165 154 370 154q69 0 129 -22q88 -33 132 -110q41 -68 41 -178q0 -131 -57 -288q-102 -262 -272 -418q-15 -13 -29 -24l-28 -22q104 -48 173 -26
t170 127q23 25 50 3q25 -26 0 -51q-137 -141 -224.5 -160.5t-240.5 62.5zM318 247l41 -24q54 -34 99 -63t84 -50q42 30 81 63q160 143 252 389q56 152 56 264q0 83 -32 144q-32 54 -96 79q-48 17 -105 17q-177 0 -322 -134q-157 -147 -247 -394q-58 -154 -58 -279
q0 -87 29 -134q27 -50 89 -75q40 -14 103 -14q92 0 175 36q-33 19 -69 41t-75 48l-41 26q-29 17 -12 48q18 30 48 12z" />
    <glyph glyph-name="R" unicode="R" horiz-adv-x="914" 
d="M291 1056q-24 -3 -49 -8.5t-50 -10.5q-35 -9 -43 27q-9 33 26 43q234 53 399 31q93 -16 149 -55q61 -44 77 -111q8 -42 2 -79q0 -4 -1 -7.5t-1 -6.5q-33 -185 -185 -262q-130 -67 -319 -48l273 -461q45 -76 106 -70q83 12 204 137q23 25 50 3q25 -26 0 -51
q-143 -146 -245 -157q-109 -9 -175 102l-283 475l-149 -556q-9 -31 -43 -24q-34 9 -24 43zM260 646q202 -30 321 33q121 62 149 214q0 7 2 10q5 31 -2 53q-7 39 -48 69q-47 30 -120 43q-80 12 -194 0l-116 -422h8z" />
    <glyph glyph-name="S" unicode="S" horiz-adv-x="697" 
d="M699 989q-105 104 -226 63q-45 -16 -74 -48q-36 -36 -48 -80q-22 -65 1 -147.5t112 -173.5q93 -96 132.5 -196t30.5 -184q-6 -65 -33 -115q22 14 40.5 31t34.5 37q20 24 53 0q20 -26 4 -41q-42 -54 -95 -88t-111.5 -52.5t-119 -23.5t-117.5 -1q-14 1 -30 4
q-104 16 -224 88q-29 18 -11 48q17 29 47 12q110 -67 203 -83h1q21 -4 45 -4.5t50 1.5q27 4 52 12q60 18 98 67q35 45 43 113q16 163 -144 327q-103 105 -130 207.5t1 183.5q16 54 62 106q39 41 103 67q70 23 150 6.5t150 -85.5q21 -27 -2 -51q-24 -24 -48 0z" />
    <glyph glyph-name="T" unicode="T" horiz-adv-x="598" 
d="M452 1066h-416q-36 0 -36 36q0 34 36 34h881q36 0 36 -34q0 -36 -36 -36h-391l-280 -1035q43 -2 87.5 6t87 25.5t81 45t70.5 65.5q19 27 52 3q20 -26 4 -41q-42 -54 -94 -88.5t-108.5 -54t-115.5 -25t-114 -2.5q-34 5 -28 45z" />
    <glyph glyph-name="U" unicode="U" horiz-adv-x="916" 
d="M159 972q30 16 59.5 34t60.5 38q29 18 55 39t56 43q32 24 52 -2q14 -17 5 -39q-108 -274 -183.5 -478.5t-111.5 -339.5q-62 -231 0 -231q116 0 367 317q110 138 230.5 330t240.5 429q16 35 48 21q31 -18 14 -53q-146 -299 -241.5 -543.5t-118.5 -385.5q-11 -66 -2 -101
q3 -20 21 -14q60 18 178 139q23 25 50 3q25 -26 0 -51q-134 -136 -209 -157q-75 -22 -103 44q-15 25 -11.5 72.5t6.5 76.5q21 129 108 363q-73 -116 -156 -216q-270 -345 -422 -345t-70 318q32 124 97 302.5t158 410.5q-11 -7 -19 -12q-31 -20 -62 -39t-63 -35
q-33 -20 -48 14q-20 32 14 48z" />
    <glyph glyph-name="V" unicode="V" horiz-adv-x="636" 
d="M128 972q48 26 120 72q57 36 113 84l1 1q1 2 3 2q18 9 32 2q31 -12 19 -45l-15 -41q-151 -381 -241 -623t-90 -342q0 -46 26 -46q75 0 183 78t218 203q110 124 202.5 276.5t141.5 302.5q11 38 5 88q-38 0 -60 8q-31 10 -44 24q-19 21 -21 43q-6 35 31 55q31 20 60 17
q37 0 67 -36q16 -24 19 -31q63 14 164 67q30 17 48 -12q12 -34 -15 -48q-98 -56 -180 -75q10 -64 -7 -122q-51 -157 -148 -316t-210 -287q-119 -135 -241 -220l-18 -12q45 7 90.5 19.5t87.5 30t77.5 39t59.5 48.5q20 24 53 0q20 -26 4 -41q-30 -34 -72 -60.5t-91.5 -46.5
t-103 -33t-107 -21t-103.5 -10t-92 1q-94 2 -94 117q0 104 82 332.5t223 581.5q-11 -7 -19 -12q-31 -20 -62 -39t-63 -35q-32 -19 -48 14q-17 31 15 48zM802 1061q12 -5 17 -5q-5 12 -12 12q-17 9 -5 -7z" />
    <glyph glyph-name="W" unicode="W" horiz-adv-x="1199" 
d="M661 -35q-24 1 -30 34q2 24 36 31q33 -5 81 -3t103 11q-102 -71 -186 -73h-3q-151 3 -79 318q16 69 41.5 155t61.5 189q-111 -189 -225 -348q-232 -314 -365 -314q-96 0 -96 117q0 105 82 333t223 581q-11 -7 -19 -12q-31 -20 -62 -39t-63 -35q-33 -20 -48 14
q-19 30 14 48q30 16 59.5 34t60.5 38q54 33 113 84q29 20 50 -4q16 -20 5 -39l-29 -69q-144 -368 -230.5 -601.5t-86.5 -332.5q0 -46 27 -46q99 0 307 286q216 291 468 794q5 5 5 8l3 2l2 2h2v3h3v2h5l2 3h22v-3h1q0 -1 11 -7h2v-2h2v-3h3v-5h2v-7q3 -5 3 -14v-3h-3v-4
q-108 -274 -180.5 -479.5t-102.5 -341.5q-54 -231 9 -231q74 0 171.5 73.5t196.5 193.5q102 126 191 282.5t138 310.5q10 35 7 88q-37 0 -62 8q-31 10 -44 24q-19 22 -19 43q-4 37 29 55q31 20 60 17q40 0 70 -36q10 -16 16 -31q61 12 164 67q30 17 48 -12q15 -33 -15 -48
q-90 -54 -177 -75q6 -75 -10 -122q-51 -161 -143 -323.5t-200 -291.5q-107 -130 -218 -211l-14 -10q46 7 93 19.5t89.5 30t79 39.5t60.5 49q20 24 53 0q20 -26 4 -41q-30 -34 -72 -60.5t-91.5 -46.5t-103 -33t-107 -21t-103.5 -10t-92 1zM1320 1061q2 0 2.5 -1t2.5 -1
t5.5 -1.5t9.5 -1.5q-9 5 -12 5h-8z" />
    <glyph glyph-name="X" unicode="X" horiz-adv-x="987" 
d="M606 1104q10 -81 18.5 -163.5t17.5 -164.5q2 -48 12 -125l475 475q25 23 51 0q21 -25 0 -50l-519 -517q12 -108 28 -217t42 -215q21 -95 53 -89h2q54 12 175 137q24 24 51 3q23 -26 0 -51q-137 -143 -214 -157h-5q-93 -13 -132 140q-22 96 -37 192.5t-25 194.5l-524 -520
q-24 -26 -50 0q-25 24 2 47l562 562q-6 46 -10 91.5t-9 90.5q-8 83 -15.5 165.5t-18.5 163.5q-4 33 32 39q34 3 38 -32z" />
    <glyph glyph-name="Y" unicode="Y" horiz-adv-x="851" 
d="M191 -35q-191 0 -122 318q24 123 85.5 302t154.5 411q-4 -2 -19 -12q-31 -20 -62 -39t-63 -35q-37 -19 -48 14q-19 31 12 48q63 35 122 72q54 33 113 84l1 1l1 2q17 8 34 2q31 -12 19 -45q-108 -274 -181 -479t-100 -340q-50 -233 53 -233q129 0 322 279
q99 140 209.5 342.5t239.5 456.5q11 28 41 22q34 -10 26 -44l-257 -967l48 50q24 24 51 3q23 -25 2 -51l-139 -140l-8 -27q-54 -207 -122.5 -323t-124.5 -159q-62 -43 -108 -24q-52 20 -48 91q3 51 43.5 130t134.5 172l170 175l204 770q-83 -157 -159 -287.5t-146 -230.5
q-213 -306 -379 -309zM630 -121l-79 -80q-83 -84 -118.5 -150.5t-37.5 -106.5q-4 -24 3 -24q10 -3 38 17q41 31 93.5 114.5t100.5 229.5z" />
    <glyph glyph-name="Z" unicode="Z" horiz-adv-x="1055" 
d="M285 1136h754q36 0 36 -34q0 -20 -12 -26l-896 -1002q86 16 175 6t178 -22q55 -12 111 -19.5t107 -7.5q83 0 140 29q69 33 149 115q23 25 50 3q23 -26 0 -51q-88 -92 -168 -131q-76 -33 -171 -33q-56 0 -113.5 8t-116.5 18q-114 17 -226 23.5t-211 -42.5q-23 -13 -41 5
q-30 21 -5 49l934 1042h-674q-36 0 -36 36q0 34 36 34z" />
    <glyph glyph-name="bracketleft" unicode="[" horiz-adv-x="562" 
d="M526 1148h-108l-327 -1214h89q36 0 36 -36t-36 -36h-134q-7 0 -10 2q-36 10 -24 43l344 1281q6 29 36 29h134q36 0 36 -36q0 -33 -36 -33z" />
    <glyph glyph-name="backslash" unicode="\" horiz-adv-x="159" 
d="M-17 24l149 151q21 26 51 3q20 -26 0 -51l-149 -150q-24 -26 -48 -2q-25 24 -3 49z" />
    <glyph glyph-name="bracketright" unicode="]" horiz-adv-x="562" 
d="M36 -69h108l327 1214h-89q-36 0 -36 36t36 36h134q7 0 10 -2q36 -10 24 -43l-344 -1281q-6 -29 -36 -29h-134q-36 0 -36 36q0 33 36 33z" />
    <glyph glyph-name="asciicircum" unicode="^" horiz-adv-x="741" 
d="M239 828l296 298q25 25 50 0q7 -7 7 -14l137 -293q12 -34 -19 -48q-34 -14 -46 17l-115 252l-259 -262q-26 -24 -51 0q-25 25 0 50z" />
    <glyph glyph-name="underscore" unicode="_" horiz-adv-x="759" 
d="M36 -153h687q36 0 36 -36t-36 -36h-687q-36 0 -36 36t36 36z" />
    <glyph glyph-name="grave" unicode="`" 
d="M320 767l-190 112q-27 16 -10 48q19 30 49 12l189 -112q30 -18 11 -48q-17 -32 -49 -12z" />
    <glyph glyph-name="a" unicode="a" horiz-adv-x="833" 
d="M803 583q-47 -96 -110.5 -243.5t-66.5 -255.5q-8 -30 4 -46q4 -3 15 0q59 21 158 137q24 24 51 3q27 -24 5 -51q-118 -130 -195 -155q-57 -17 -89 22q-28 35 -21 92q3 58 21 123q-15 -18 -30.5 -36t-29.5 -34q-162 -179 -285 -179q-124 5 -118 148q2 64 27 137l-114 -118
q-27 -24 -50 0q-22 25 0 51l319 332q27 28 53 49q83 69 179 79t186 -81q5 12 23 40l6 18q19 30 48 14q33 -14 14 -46zM676 490q-71 78 -145 73t-138 -59q-87 -72 -149 -194q-58 -107 -63 -204q0 -75 51 -75q89 -4 233 156q104 115 211 303z" />
    <glyph glyph-name="b" unicode="b" horiz-adv-x="1013" 
d="M378 759q41 153 101.5 240t114.5 117q59 34 111 10q48 -27 53 -101q0 -58 -44.5 -146.5t-150.5 -196.5l-182 -187q-18 -69 -38.5 -151.5t-29.5 -156.5q-11 -63 -11 -107t16 -44q70 0 166 89q59 55 105.5 122.5t64.5 112.5q23 55 3 103q-22 42 -63 75q-41 28 -41 29
q-29 21 -12 48q20 27 51 12q15 -10 43 -32q32 -20 74 -41.5t87 -27.5q145 -13 192 29q31 21 51 -3q26 -27 -3 -50q-76 -68 -254 -46q-34 5 -53 15q20 -66 -10 -137q-20 -51 -71.5 -125t-115.5 -135q-51 -47 -105.5 -78t-105.5 -31h-3q-63 2 -77.5 68.5t0.5 165.5
q17 105 41 195l-259 -267q-25 -24 -51 -2q-23 25 0 50l346 356v2zM419 634l94 96q95 99 133.5 173.5t38.5 121.5q0 32 -14 39q-15 8 -43 -10q-44 -26 -94 -101.5t-86 -213.5z" />
    <glyph glyph-name="c" unicode="c" horiz-adv-x="589" 
d="M345 459l-13 -14q-8 -9 -16 -19q-44 -56 -77 -116q-72 -135 -72 -221q0 -53 70 -53q105 -4 176 26q73 33 154 113q23 25 50 3q23 -26 0 -51q-89 -93 -178 -128q-72 -34 -202 -34q-142 3 -142 124q1 66 30 141l-100 -103q-27 -24 -50 0q-22 25 0 51l319 332q2 1 3 3
q34 35 71 63q87 63 178.5 61.5t172.5 -109.5q16 -32 -10 -50q-25 -21 -48 7q-58 79 -123.5 79t-125.5 -45q-32 -23 -62 -53q-2 -4 -5 -7z" />
    <glyph glyph-name="d" unicode="d" horiz-adv-x="885" 
d="M939 1092l-146 -547q-29 -103 -34 -121q-2 -5 -3 -9l1 1q1 -2 -17 -73q-75 -282 -48 -314q11 -16 170 146q22 28 48 3q24 -25 3 -51q-214 -217 -276 -143q-41 53 19 314q-35 -46 -84 -104q-94 -105 -190 -169.5t-151 -64.5h-3q-122 8 -114 158q3 60 25 127l-114 -118
q-27 -24 -50 0q-22 25 0 51q346 359 371 381q84 70 182 78.5t190 -87.5q7 19 17 53l137 506q8 34 43 27q32 -9 24 -44zM345 459l-8 -8q-50 -56 -92 -134q-60 -119 -62 -202q-5 -80 50 -84q39 -2 120 58t166 153q94 102 166 238l-2 1q-1 2 -1 4q-70 84 -147 79.5t-143 -60.5
q-22 -18 -42 -39q-2 -3 -5 -6z" />
    <glyph glyph-name="e" unicode="e" horiz-adv-x="515" 
d="M177 235q-17 -85 -11.5 -124t46 -58.5t122.5 9.5q75 34 154 113q23 25 50 3q25 -26 0 -51q-88 -92 -177 -128q-101 -27 -173 -11t-91 84q-5 65 8 120q-23 -18 -46.5 -39.5t-36.5 -33.5q-23 -22 -40 -6q-28 23 -6 54q14 14 28.5 26.5t32 26t40 28.5t52.5 34
q51 150 124.5 249.5t176.5 95.5q65 -2 92 -29q35 -32 24.5 -97.5t-99.5 -114.5t-270 -151zM431 562q-79 0 -132 -72.5t-95 -169.5q123 73 191 111.5t80 64.5t-3.5 46t-40.5 20z" />
    <glyph glyph-name="f" unicode="f" horiz-adv-x="476" 
d="M499 127q-80 -78 -226 -113q-10 0 -24 -4l-149 -535q-10 -34 -43 -26q-33 13 -24 45l141 511q-73 0 -122 26q-32 18 -14 48q13 31 45 15q41 -20 111 -20l86 315l-257 -262q-25 -25 -50 -2q-25 25 0 50l346 356l62 228q39 153 99.5 240t114.5 117q57 34 112 10
q51 -28 51 -101q0 -58 -43.5 -146.5t-151.5 -196.5l-182 -187l-110 -409q115 31 175 89q23 25 50 3q24 -25 3 -51zM448 739l-29 -105l94 96q95 99 134.5 173.5t38.5 121.5q0 30 -12 39q-19 7 -46 -10q-43 -26 -92.5 -101.5t-87.5 -213.5z" />
    <glyph glyph-name="g" unicode="g" horiz-adv-x="787" 
d="M762 631q15 5 26 -2q30 -13 17 -46l-10 -19l-127 -478l87 89q23 25 50 3q23 -26 0 -51l-175 -179l-31 -122q-40 -142 -108 -230.5t-128 -122.5q-57 -34 -98 -19q-56 15 -48 86q5 40 46 107.5t132 159.5l172 177l24 95l68 248q-85 -125 -142 -188q-162 -179 -288 -179
q-118 5 -118 148q2 60 27 133l-110 -114q-27 -24 -50 0q-22 25 0 51l306 318q30 35 63 63q84 69 179 79t185 -81q2 4 17 31l5 17q8 23 29 26zM348 459l-24 -25q-45 -54 -81 -124q-60 -120 -60 -204q-4 -75 48 -75q90 -4 233 156q104 115 211 303q-69 78 -143.5 73
t-139.5 -59q-19 -16 -36 -34q-3 -6 -8 -11zM529 -155l-84 -86q-81 -83 -117 -140.5t-42 -88.5v-9q10 -4 44 14q48 27 106 104.5t93 205.5z" />
    <glyph glyph-name="h" unicode="h" horiz-adv-x="882" 
d="M-25 175l345 356l60 228q41 153 100 240t116 117q59 34 110 10q49 -27 53 -101q0 -58 -44.5 -146.5t-149.5 -196.5l-166 -173l-65 -238q53 79 108 149q66 86 132 147.5t111 63.5h2q95 0 84 -127q-6 -42 -21.5 -95t-33.5 -109l-3 -9q-21 -66 -39 -126.5t-18 -99.5
q0 -29 17 -29q18 0 55 26q43 28 130 113q23 25 50 3q23 -26 0 -51q-44 -45 -78 -75t-61 -50q-61 -37 -96 -37q-87 0 -87 100q0 46 18 112t42 135l3 10q18 54 32 103.5t18 85.5q8 48 -12 48q-27 0 -78.5 -53.5t-111.5 -128.5q-84 -108 -155.5 -224t-81.5 -162
q-12 -31 -44 -24q-35 10 -26 43l108 396l-274 -279q-25 -25 -49 -2q-25 25 0 50zM449 739l-28 -105l93 96q95 99 134 173.5t39 121.5q0 31 -14 39q-15 7 -44 -10q-43 -26 -93.5 -101.5t-86.5 -213.5z" />
    <glyph glyph-name="i" unicode="i" horiz-adv-x="487" 
d="M513 127q-45 -45 -80 -75t-62 -50q-60 -37 -96 -37q-77 0 -77 97q0 43 14 103t32 126l7 31l12 41q-38 -45 -81.5 -89t-86.5 -87l-60 -60q-26 -26 -49 0q-30 24 0 48q13 16 29 31t32 32q83 84 165.5 174.5t108.5 168.5l7 24l1 1q2 1 2 4q7 26 38 21q32 -7 29 -38v-7
q-3 -5 -7 -22l-70 -261l-10 -29v-3q-16 -61 -29.5 -117t-13.5 -92q0 -26 7 -26q18 0 58 26q57 40 127 113q24 24 51 3q23 -25 2 -51zM363 780l43 161q8 34 43 27q34 -10 26 -44l-43 -160q-13 -36 -43 -27q-36 13 -26 43z" />
    <glyph glyph-name="j" unicode="j" horiz-adv-x="356" 
d="M-39 163q9 9 19 19.5t22 21.5q87 90 178.5 192t121.5 185l5 24q2 2 2 5q9 26 41 21q31 -8 26 -40v-5q-5 -13 -5 -19l-129 -481l89 89q22 28 48 3q23 -25 2 -51l-175 -179l-34 -122q-38 -142 -106 -230.5t-127 -122.5q-60 -34 -100 -19q-55 16 -45 86q6 40 45 107.5
t129 159.5l173 177l26 95l75 279q-45 -53 -95 -104.5t-95 -97.5q-29 -29 -41 -43q-25 -27 -50 0q-27 25 0 50zM18 -241q-81 -83 -116 -140.5t-39 -88.5q-1 -5 -1 -7l-1 -2q11 -5 42 14q50 27 107.5 104.5t91.5 205.5zM355 780l43 161q8 34 43 27q34 -10 26 -44l-43 -160
q-13 -36 -43 -27q-36 13 -26 43z" />
    <glyph glyph-name="k" unicode="k" horiz-adv-x="839" 
d="M190 10l106 396l-272 -279q-25 -25 -50 -2q-25 25 0 50l346 356l60 228q41 153 100 240t113 117q60 33 113 10q51 -28 51 -101q1 -58 -43 -146.5t-150 -196.5l-165 -173l-67 -247q23 33 50.5 67t54.5 67q65 70 135.5 118t133.5 50q59 0 89 -41q22 -34 12 -76
q-9 -39 -36 -77q-40 -58 -127.5 -116t-218.5 -86q49 -80 79 -103q35 -29 82 -29q44 0 98 31q53 30 133 108q23 25 50 3q23 -26 0 -51q-79 -81 -146 -122q-70 -40 -135 -40q-72 0 -127 45q-58 52 -111 153q-74 -110 -91 -172q-9 -31 -43 -24q-33 10 -24 43zM420 634l94 96
q95 99 134 173.5t39 121.5q0 31 -15 39q-16 7 -43 -10q-45 -26 -94.5 -101.5t-85.5 -213.5zM399 235q120 25 199 75t115 101q20 26 24 50q4 14 0 22q-6 9 -31 9q-47 0 -104 -41.5t-112 -102.5q-52 -60 -91 -113z" />
    <glyph glyph-name="l" unicode="l" horiz-adv-x="501" 
d="M528 127q-44 -45 -79.5 -75t-62.5 -50q-57 -37 -94 -37h-2q-87 0 -87 100q0 46 19.5 112t65.5 219l-265 -269q-23 -26 -50 -2q-21 27 0 50l346 356l62 228q41 153 100.5 240t113.5 117q58 34 113 10q50 -28 50 -101q0 -58 -43 -146.5t-149 -196.5l-178 -183
q-78 -274 -95 -334.5t-17 -99.5q0 -29 14 -29q18 0 58 26q55 39 129 113q22 28 48 3q24 -25 3 -51zM448 739l-28 -105l93 96q97 99 136 173.5t39 121.5q0 29 -14 39q-16 6 -46 -10q-43 -26 -92.5 -101.5t-87.5 -213.5z" />
    <glyph glyph-name="m" unicode="m" horiz-adv-x="1528" 
d="M25 127q-27 -24 -50 0q-22 25 0 51q413 445 459 451q34 14 65 -5q23 -16 31 -57q8 -71 -36 -238l-34 -125q184 273 310 377q61 48 103 53q63 0 77 -70q19 -82 -36 -276l-21 -84q185 274 314 377q62 50 101 50q61 4 79 -64q14 -62 -5.5 -149.5t-35.5 -150.5
q-16 -62 -28 -115.5t-12 -89.5q0 -26 4 -26q22 0 58 26q43 28 130 113q21 27 50 3q21 -28 0 -51q-44 -45 -78 -75t-61 -50q-61 -37 -99 -37q-76 0 -76 97q0 42 13.5 100t31.5 121q12 52 31.5 135t9.5 132q-4 12 -7 12q-20 0 -63 -36q-74 -60 -184 -203t-236 -341
q-17 -31 -48 -10q-21 12 -17 35h1q2 0 2 3l79 297q48 177 34 243q0 12 -5 12q-21 0 -60 -36q-76 -62 -185 -204.5t-233 -339.5q-19 -31 -48 -10q-19 11 -16 35v3l90 338q41 155 32 186q-9 42 -431 -407z" />
    <glyph glyph-name="n" unicode="n" horiz-adv-x="1093" 
d="M395 504l-368 -377q-27 -24 -50 0q-22 25 0 51l355 364q68 73 108 87q33 14 64 -5q26 -16 29 -57q11 -70 -33 -238l-36 -132q197 287 319 384q61 50 101 50q61 4 79 -64q14 -62 -5.5 -149.5t-35.5 -150.5q-16 -62 -29.5 -115.5t-13.5 -89.5q0 -26 7 -26q18 0 58 26
q53 38 130 113q22 28 48 3q23 -25 2 -51q-44 -45 -78 -75t-61 -50q-66 -37 -99 -37q-77 0 -77 97q0 42 13.5 100t30.5 121q14 52 33 135t7 132q0 12 -4 12q-20 0 -63 -36q-76 -60 -185 -203t-235 -341q-2 -3 -12 -10q-12 -8 -29 -5q-35 10 -26 43l91 338q40 151 34 209v3
q0 2 -13 -3q-11 -4 -31 -25.5t-25 -27.5z" />
    <glyph glyph-name="o" unicode="o" horiz-adv-x="975" 
d="M996 502q-91 -77 -278 -82q-5 -18 -5 -24q-11 -43 -34.5 -83.5t-51.5 -79.5q-47 -62 -96.5 -109t-95.5 -81q-119 -83 -195 -83q-77 5 -103 66q-19 44 -14 101q5 63 30 129l-126 -129q-27 -24 -50 0q-22 25 0 51l367 377q90 73 173 84q8 0 21 -5q42 20 77 9h2
q28 -9 59.5 -57t39.5 -94q162 0 234 63q31 22 51 -5q20 -26 -5 -48zM342 447q-72 -89 -111 -185q-34 -81 -36 -144q-5 -36 7 -63q12 -24 38 -24q54 -4 154 70q91 64 178 175q56 79 72 137q0 3 1 5.5t1 6.5h-2q-56 12 -87 31q-47 30 -55 63q-7 19 -7 43q-76 -20 -153 -115z
M641 497q-5 19 -26 60q-8 15 -19 19q-9 3 -24 -5q-8 -19 -5 -28q8 -17 26 -27q25 -13 48 -19z" />
    <glyph glyph-name="p" unicode="p" horiz-adv-x="923" 
d="M948 127q-44 -45 -78 -75t-61 -50q-61 -37 -96 -37q-80 0 -80 100q0 46 16.5 111t36.5 134l2 12q51 173 22 233q-7 15 -31 12q-34 -8 -91 -53q-107 -90 -231.5 -290.5t-193.5 -460.5v-2l-77 -286q-10 -34 -43 -26q-37 10 -27 43l236 871q-40 -45 -83.5 -89t-85.5 -87
q-16 -15 -30.5 -30.5t-29.5 -29.5q-25 -25 -50 0q-28 24 0 48q19 22 60 63q84 84 167.5 174.5t108.5 168.5l7 24v5q14 25 41 21q32 -7 29 -38q0 -2 -2 -5v-2q0 -5 -5 -22l-82 -305q126 210 245 308q70 58 125 69q72 15 106 -50q42 -79 -17 -283l-3 -10q-18 -67 -34 -128
t-16 -100q0 -29 10 -29q18 0 55 26q48 32 129 113q24 24 51 3q23 -26 0 -51z" />
    <glyph glyph-name="q" unicode="q" horiz-adv-x="799" 
d="M439 -508l228 847q-83 -124 -151 -200q-162 -179 -286 -179q-122 5 -118 148q2 64 27 137l-115 -118q-27 -24 -50 0q-22 25 0 51l298 306q137 145 254 154q96 10 186 -81q15 25 29 55q8 28 41 19q35 -8 26 -43l-158 -586q60 106 127 173q24 24 51 3q23 -26 0 -51
q-88 -91 -178 -270q-91 -189 -142 -382v-2q-14 -32 -43 -24q-35 10 -26 43zM232 31q90 -4 233 156q104 115 211 303q-70 78 -151 77t-197 -128l-1 -1q-45 -55 -83 -128q-59 -112 -62 -204q0 -75 50 -75z" />
    <glyph glyph-name="r" unicode="r" horiz-adv-x="1012" 
d="M1040 504q-48 -50 -165 -62q-59 -5 -94 7q-34 10 -62 36q-18 18 -32 46q-101 -108 -158 -241.5t-108 -282.5l-5 -16q-9 -31 -43 -24q-35 9 -27 43l92 338q36 130 36 195q-4 24 -24 7q-9 -9 -23 -20.5t-397 -402.5q-27 -24 -50 0q-22 25 0 51l367 377q66 62 100 74
q34 14 65 -5q24 -16 29 -57q6 -38 -7 -123q55 95 146 178q9 9 22 9q26 4 36 -21q1 -4 1.5 -10.5t3.5 -11.5q6 -34 26 -53q10 -9 34 -19q51 -5 64 -2q86 2 123 38q23 25 50 3q23 -26 0 -51z" />
    <glyph glyph-name="s" unicode="s" horiz-adv-x="587" 
d="M292 399l-264 -272q-27 -24 -50 0q-22 25 0 51q388 408 425 444q23 26 50 0q21 -28 0 -51q-93 -70 -96.5 -141t71 -143t77 -143t-39.5 -120.5t-135.5 -53.5t-186.5 41q-30 21 -8 48q18 29 52 19q40 -28 112.5 -34t103 19.5t28 75t-72 112t-66.5 148.5z" />
    <glyph glyph-name="t" unicode="t" horiz-adv-x="521" 
d="M581 1092l-261 -970q115 5 168 53q21 27 50 3q20 -26 0 -51q-36 -38 -104 -56t-134 -18l-14 -62h-2v-2q-9 -29 -41 -22q-35 10 -27 40v3q6 20 10 48q-22 2 -51 12q-47 18 -64 50q-18 31 -3 72q25 50 70 58q23 6 53 -8q25 -13 38 -36l82 305q-118 -195 -327 -386
q-26 -23 -50 2q-22 26 2 51q209 187 332 398q114 203 204 533v3q2 2 2 4q12 26 41 20q34 -10 26 -44zM173 163v-9q3 -10 27 -17q7 -4 26 -7q-3 20 -14 36q-5 10 -12 14h-10q-9 0 -17 -17z" />
    <glyph glyph-name="u" unicode="u" horiz-adv-x="993" 
d="M1017 127q-44 -45 -79.5 -75t-62.5 -50q-61 -37 -96 -37q-77 0 -77 97q0 60 18 128.5t35 131.5l21 72q-192 -279 -312 -377q-57 -48 -103 -52q-60 -3 -77 69q-18 72 36 276l43 162l-335 -345q-27 -24 -50 0q-22 25 0 51l424 438q12 20 41 15q31 -7 26 -35l-82 -305
q-49 -184 -33 -243q2 -12 5 -12q18 0 60 34q75 63 184 206t233 341q2 0 2 1l1 1q15 17 36 12q35 -8 26 -43v-2q-8 -25 -29 -99.5t-43.5 -159.5t-39.5 -161t-17 -104q0 -26 7 -26q18 0 57 26q54 37 130 113q22 28 48 3q24 -25 3 -51z" />
    <glyph glyph-name="v" unicode="v" horiz-adv-x="1058" 
d="M471 588q-19 -70 -44.5 -172t-40.5 -195q-12 -76 -15.5 -130.5t13.5 -54.5q42 0 87 29q50 27 110 91q49 54 84 106q40 56 55 98q23 55 3 103q-22 42 -63 75q-13 7 -33 24q-36 25 -17 53q6 16 26 16q16 2 35.5 -13.5t31.5 -22.5q30 -20 72 -41.5t87 -27.5q122 -13 173 29
q27 23 48 -3q26 -27 -3 -50q-73 -67 -233 -46q-36 6 -52 15q20 -66 -10 -137q-17 -44 -62 -113q-39 -59 -89 -113q-76 -76 -127 -103q-64 -40 -123 -40q-63 0 -74 78t7 190q15 95 40 198q6 23 11 45l-338 -349q-27 -24 -50 0q-22 25 0 51l429 443q2 1 3 3q12 12 34 7
q32 -7 25 -43z" />
    <glyph glyph-name="w" unicode="w" horiz-adv-x="1364" 
d="M780 622q16 13 33 9q36 -8 27 -43q-18 -70 -43 -172t-39 -195q-13 -76 -18 -130.5t4 -54.5q30 0 69 26q45 32 96 94q39 49 75 103q36 67 48 99q22 59 5 108q-18 49 -63 89h-2v2h-3q-4 2 -14 12q-28 23 -7 48t45 10q5 0 10 -5q21 -21 66.5 -53.5t96.5 -42.5
q131 -13 170 26q28 28 51 0q28 -24 0 -48q-67 -70 -237 -48q-26 6 -39 12q14 -64 -12 -134q-25 -59 -55 -111q-39 -61 -79 -113q-27 -30 -54.5 -58t-56.5 -47q-63 -40 -110 -40q-58 0 -65.5 78t10.5 190q9 63 26 142q-154 -253 -257 -356q-58 -48 -91 -52q-61 -6 -75 62
q-15 81 36 281l44 171l-343 -354q-27 -24 -50 0q-22 25 0 51l429 443q12 11 25 11q7 1 15 -1q33 -7 24 -43l-74 -295q-48 -184 -36 -250q0 -6 -4 -7q17 1 50 34q138 135 367 545q1 1 1.5 2.5t3.5 4.5z" />
    <glyph glyph-name="x" unicode="x" horiz-adv-x="1054" 
d="M751 619q24 24 56 -2q11 -20 33 -38q24 -24 89.5 -40t94.5 13q23 25 50 3q25 -26 0 -51q-38 -41 -91 -41q-102 0 -135.5 20t-57.5 45l-17 17l-226 -209l92 -326q7 -34 -24 -43q-36 -7 -44 24l-84 290l-333 -307q-28 -22 -48 2q-26 25 0 51l360 331l-49 171l-390 -402
q-27 -24 -50 0q-22 25 0 51l429 443q13 12 26 11q27 3 42 -37l52 -184z" />
    <glyph glyph-name="y" unicode="y" horiz-adv-x="809" 
d="M768 617q15 24 45 12q26 -18 17 -43l-134 -500l88 89q22 28 48 3q24 -25 3 -51l-175 -179l-34 -122q-38 -142 -106 -230.5t-127 -122.5t-98 -19q-58 16 -47 86q6 40 45 107.5t129 159.5l173 177l26 95l72 276q-146 -237 -245 -336q-53 -47 -91 -52q-61 -6 -74 62
q-15 71 36 281l42 164l-337 -347q-27 -24 -50 0q-22 25 0 51l426 440q11 19 39 13q35 -8 26 -43l-77 -295q-48 -187 -36 -250q3 -6 0 -7q14 2 46 34q143 139 365 542q2 3 5 5zM556 -155l-84 -86q-81 -83 -117 -140.5t-39 -88.5q0 -5 -1 -7l-1 -2q13 -4 43 14
q50 27 107.5 104.5t91.5 205.5z" />
    <glyph glyph-name="z" unicode="z" horiz-adv-x="807" 
d="M392 506l-366 -379q-27 -24 -50 0q-22 25 0 51l365 379q3 3 41.5 39.5t110.5 34.5q78 -1 147 -16q41 -9 75.5 -13t58.5 20q25 23 51 0q23 -24 2 -48h-2l-488 -500q30 2 58 -4t58 -12q63 -17 136 -11.5t193 128.5q23 25 50 3q23 -26 0 -51q-141 -143 -230.5 -150
t-168.5 12q-45 12 -93 15t-108 -32q-20 -16 -42 5q-29 23 0 47l498 509q-21 1 -65 12q-54 14 -115 16q-55 -6 -84 -28.5t-32 -26.5z" />
    <glyph glyph-name="braceleft" unicode="{" horiz-adv-x="577" 
d="M548 1138q-152 -74 -184.5 -146.5t-41.5 -146.5q-9 -81 -41 -162t-173 -160q97 -84 84.5 -166t-45.5 -165q-30 -71 -36.5 -140t96.5 -137q28 -17 9 -48q-22 -30 -48 -10q-140 92 -132.5 183t46.5 181q28 70 35.5 138.5t-93.5 137.5l-14 14q-10 36 17 48q150 74 183 147.5
t42 148.5q11 86 49 173.5t215 174.5q31 16 48 -17q13 -30 -16 -48z" />
    <glyph glyph-name="bar" unicode="|" horiz-adv-x="434" 
d="M425 1174l-346 -1286q-8 -33 -43 -24q-36 10 -24 43l344 1284q12 34 43 26q35 -10 26 -43z" />
    <glyph glyph-name="braceright" unicode="}" horiz-adv-x="577" 
d="M29 -82q152 74 184.5 146.5t41.5 146.5q9 81 41 162t173 160q-97 84 -84.5 166t45.5 165q30 71 36.5 140t-96.5 137q-28 17 -9 48q22 30 48 10q140 -92 132.5 -183t-46.5 -181q-28 -70 -35.5 -138.5t93.5 -137.5l14 -14q10 -36 -17 -48q-150 -74 -183 -147.5t-42 -148.5
q-11 -86 -49 -173.5t-215 -174.5q-31 -16 -48 17q-13 30 16 48z" />
    <glyph glyph-name="asciitilde" unicode="~" horiz-adv-x="496" 
d="M420 495q6 35 41 26q35 -4 27 -41q-39 -207 -112 -184.5t-153 91.5q-42 39 -82 51.5t-64 -104.5q-8 -33 -41 -29q-36 9 -29 43q42 207 114 184.5t150 -90.5q44 -40 85 -52t64 105z" />
    <glyph glyph-name="exclamdown" unicode="&#xa1;" horiz-adv-x="559" 
d="M484 490q-55 0 -48 72q10 68 65 68q58 0 48 -68q-8 -72 -65 -72zM463 319l-224 -835q-7 -33 -43 -24q-33 9 -24 43l224 833q8 35 43 27q36 -15 24 -44z" />
    <glyph glyph-name="brokenbar" unicode="&#xa6;" horiz-adv-x="662" 
d="M381 717l102 380q7 33 43 24q33 -9 24 -43l-102 -378q-8 -35 -43 -27q-36 15 -24 44zM193 25l118 414q7 33 43 24q33 -9 24 -43l-118 -412q-8 -35 -43 -27q-36 15 -24 44z" />
    <glyph glyph-name="section" unicode="&#xa7;" horiz-adv-x="69" 
d="M-368 -21q-24 1 -30 34q2 24 36 26q45 -7 100.5 -2.5t111 21t105.5 46t83 72.5q20 24 53 0q20 -26 4 -41q-42 -54 -95.5 -87t-112 -50.5t-118.5 -21.5t-115 -1z" />
    <glyph glyph-name="dieresis" unicode="&#xa8;" 
d="M333 795l43 161q8 31 43 24q34 -10 26 -44l-43 -160q-9 -34 -43 -24q-36 7 -26 43zM167 795l43 161q8 31 43 24q34 -10 26 -44l-43 -160q-9 -34 -43 -24q-36 7 -26 43z" />
    <glyph glyph-name="copyright" unicode="&#xa9;" horiz-adv-x="1152" 
d="M829 848q-27 31 -65 48q-14 6 -35.5 12t-41.5 6q-32 0 -70 -13q-77 -22 -148 -93q-69 -66 -116 -162q-23 -51 -34.5 -104t-11.5 -101q0 -38 6.5 -73.5t17.5 -64.5q18 -51 60 -89q36 -30 81 -30q83 -3 179 98q12 14 26.5 13t30.5 -13q23 -24 -1 -51q-116 -122 -235 -122
q-72 0 -129 47q-52 41 -83 122q-13 35 -20 75.5t-7 85.5q0 56 13.5 118t40.5 122q23 51 56 98t75 87q83 78 177 109q24 9 46.5 12.5t45.5 3.5q28 0 55.5 -6t52.5 -19q22 -11 46.5 -29t48.5 -42q18 -21 -7 -45q-23 -24 -52 -1zM677 1138q80 -1 160 -23q108 -32 180 -111
q61 -70 86 -179q28 -131 -5 -289q-65 -261 -231 -417q-174 -154 -411 -153q-87 1 -159 23q-107 30 -169 105q-60 71 -83 169q-28 129 10 304q27 122 81 231t140 188q160 153 401 152zM830 1037q-65 18 -133 18q-214 1 -360 -132q-161 -145 -212 -388q-36 -153 -9 -275
q21 -85 67 -134q42 -49 124 -74q52 -14 129 -15q211 -1 369 135q165 138 223 383q33 147 8 260q-21 81 -72 144q-53 53 -134 78z" />
    <glyph glyph-name="ordfeminine" unicode="&#xaa;" horiz-adv-x="655" 
d="M638 1004q-17 -36 -37 -80.5t-44 -99.5q-21 -52 -33.5 -99.5t-14.5 -85.5q-3 -16 0 -23h1q1 0 2 1l-1 -1q41 14 113 98q24 24 49 3q27 -24 5 -50q-89 -98 -147 -116q-12 -4 -26 -4q-30 0 -48 22q-11 14 -15.5 33t-2.5 42q0 27 6 53q-5 -6 -9.5 -11t-9.5 -10
q-122 -134 -216 -134q-101 3 -95 117q1 39 14.5 84t36.5 92q25 48 57 89.5t67 71.5q61 52 137 60q35 4 67.5 -8t66.5 -44q3 5 3.5 5.5t2.5 4.5l2 4q2 4 4 8.5t4 8.5q20 29 48 13l-1 1q34 -14 13 -46zM376 722q36 42 75 96.5t75 119.5q-45 50 -94 45q-52 -3 -96 -40
q-63 -53 -107 -140q-43 -78 -46 -147q0 -45 28 -45q31 -2 72.5 27t92.5 84z" />
    <glyph glyph-name="guillemotleft" unicode="&#xab;" horiz-adv-x="912" 
d="M576 567l-468 -274l312 -267q25 -21 5 -49q-25 -24 -50 -2l-348 294q-3 5 -10 12q-17 28 14 48l509 298q31 16 48 -12q18 -32 -12 -48zM866 567l-468 -274l312 -267q25 -21 5 -49q-25 -24 -50 -2l-348 294q-3 5 -10 12q-17 28 14 48l509 298q31 16 48 -12q18 -32 -12 -48
z" />
    <glyph glyph-name="logicalnot" unicode="&#xac;" horiz-adv-x="658" 
d="M525 223l22 82h-386q-36 0 -36 36t36 36h430q23 0 31 -15q8 -11 4 -30q-1 -6 -34 -126q-8 -35 -43 -27q-36 15 -24 44z" />
    <glyph glyph-name="uni00AD" unicode="&#xad;" horiz-adv-x="658" 
d="M161 377h430q36 0 36 -36t-36 -36h-430q-36 0 -36 36t36 36z" />
    <glyph glyph-name="registered" unicode="&#xae;" horiz-adv-x="1153" 
d="M677 1138q80 -1 160 -23q108 -32 180 -111q61 -70 86 -179q28 -131 -5 -289q-42 -166 -124 -290q-56 -79 -107 -127q-174 -154 -411 -153q-87 1 -159 23q-107 30 -169 105q-60 71 -83 169q-28 129 10 304q27 122 81 231t140 188q160 153 401 152zM830 1037
q-65 18 -133 18q-214 1 -360 -132q-161 -145 -212 -388q-36 -153 -9 -275q21 -85 67 -134q42 -49 124 -74q52 -14 129 -15q161 -1 291 78q-53 15 -89 77l-193 323q-26 -95 -52 -190.5t-52 -190.5q-10 -31 -46 -25q-35 10 -25 46l200 749q-5 -1 -15.5 -2t-5.5 -3l3 -1
q-37 -10 -46 24q-9 36 27 46q30 7 53.5 12t44.5 8.5t42 5t45 1.5q21 0 40.5 -1.5t37.5 -3.5q71 -12 115 -42q47 -34 61 -89q3 -15 3.5 -31t-1.5 -30q0 -5 -1 -7q0 -2 -0.5 -2.5t-0.5 -1.5q-25 -141 -143 -200h1q-37 -20 -81.5 -29.5t-96.5 -9.5h-12h-8h-8.5t-12.5 1
q48 -81 95.5 -160t94.5 -159q14 -23 31.5 -34t34.5 -12q26 5 60 26.5t72 60.5q89 117 129 284q33 147 8 260q-21 81 -72 144q-53 53 -134 78zM554 917q-41 -146 -81 -288q43 -6 80 -6q42 0 77 8t64 22q42 20 67.5 59t36.5 90q0 3 2 9q2 8 1 17t-3 15q-4 23 -30 44h1
q-15 9 -38 16.5t-46 12.5q-14 2 -31 3t-33 1q-17 0 -32 -0.5t-35 -2.5z" />
    <glyph glyph-name="macron" unicode="&#xaf;" 
d="M224 886l310 1q32 -1 34 -36q-1 -36 -35 -36h-311q-35 1 -35 36q-2 36 37 35z" />
    <glyph glyph-name="degree" unicode="&#xb0;" horiz-adv-x="324" 
d="M202 1136q19 0 31 -3q46 -15 67 -50q24 -34 24 -87q0 -26 -7 -52q-19 -75 -72 -123q-55 -53 -120 -53q-22 0 -31 3q-45 13 -70 50q-24 41 -24 87q0 25 7 52q17 68 72 123q57 53 123 53zM214 1064q-3 2 -12 2q-37 0 -72 -34q-44 -44 -53 -88q-5 -20 -5 -36q0 -28 12 -48
q11 -17 26 -20q3 0 7 -1t8 -1q34 0 72 34q37 37 53 88q5 30 5 36q0 27 -12 48q-13 15 -29 20z" />
    <glyph glyph-name="plusminus" unicode="&#xb1;" horiz-adv-x="658" 
d="M531 156q36 0 36 -36t-36 -36h-430q-36 0 -36 36t36 36h430zM480 597l-38 -142h168q36 0 36 -36t-36 -36h-188l-43 -163q-12 -34 -43 -24q-36 7 -26 43l38 144h-168q-36 0 -36 36t36 36h187l43 161q8 32 44 24q34 -10 26 -43z" />
    <glyph glyph-name="twosuperior" unicode="&#xb2;" horiz-adv-x="556" 
d="M262 896q15 79 73 134q60 51 137 57q38 1 70.5 -8.5t58.5 -31.5q22 -18 35.5 -41.5t16.5 -52.5q9 -62 -25 -134q-32 -64 -104.5 -140.5t-200.5 -164.5q51 3 97 3q61 0 121.5 -4t121.5 -12q35 -10 31 -45q-9 -34 -44 -30q-54 8 -111 12.5t-119 4.5q-59 0 -120.5 -4.5
t-123.5 -12.5q-41 -5 -42 31q-6 27 22 39q88 53 157.5 103t117.5 94q44 42 77.5 83.5t50.5 74.5q12 23 17 46t3 43q-5 29 -27 48q-32 24 -76 23q-55 -4 -90 -38q-38 -34 -49 -93q-9 -34 -48 -29q-36 9 -27 46v-1z" />
    <glyph glyph-name="threesuperior" unicode="&#xb3;" horiz-adv-x="539" 
d="M276 970q14 28 34 51.5t40 37.5q47 36 101 36q80 0 124 -59q28 -40 28 -81q0 -18 -7 -38.5t-18 -40.5q-16 -26 -39.5 -49t-54.5 -41q33 -14 60 -39q37 -37 40 -90q0 -46 -25 -94q-28 -52 -91 -91q-58 -38 -140 -38q-44 0 -78 8q-21 4 -41 12.5t-43 19.5q-31 19 -13 51
q20 33 51 13q15 -10 31 -15t33 -7q14 -4 29 -5.5t31 -1.5q59 0 101.5 26.5t64.5 64.5q14 27 13 55q0 25 -17 42q-31 29 -102 29l-111 -12q-26 0 -29 30q-8 34 29 44q53 15 92.5 30t68 31t47 32.5t29.5 33.5q5 8 8.5 19t3.5 21q0 18 -13 35h1q-25 30 -62 30q-29 -3 -59 -20
l2 1q-17 -14 -29.5 -30t-22.5 -36q-19 -35 -52 -15q-34 20 -14 51z" />
    <glyph glyph-name="acute" unicode="&#xb4;" 
d="M265 819l180 126q26 18 48 -10q19 -30 -9 -50l-181 -125q-28 -20 -48 9q-22 29 10 50z" />
    <glyph glyph-name="mu" unicode="&#xb5;" horiz-adv-x="993" 
d="M1017 127q-44 -45 -79.5 -75t-62.5 -50q-61 -37 -96 -37q-77 0 -77 97q0 60 18 128.5t35 131.5l21 72q-192 -279 -312 -377q-57 -48 -103 -52q-37 -2 -58 25l-140 -515q-8 -35 -43 -27q-36 15 -24 44l267 980l-335 -345q-27 -24 -50 0q-22 25 0 51l424 438q12 20 41 15
q31 -7 26 -35q-131 -489 -115 -548q2 -12 5 -12q18 0 60 34q75 63 184 206t233 341q2 0 2 1l1 1q15 17 36 12q35 -8 26 -43v-2q-8 -25 -29 -99.5t-43.5 -159.5t-39.5 -161t-17 -104q0 -26 7 -26q18 0 57 26q54 37 130 113q22 28 48 3q24 -25 3 -51z" />
    <glyph glyph-name="paragraph" unicode="&#xb6;" horiz-adv-x="560" 
d="M722 968q-36 40 -83 63l-252 -937q46 32 93 81q23 25 50 3q23 -25 2 -51q-86 -89 -171 -129l-29 -110q-8 -33 -43 -24q-36 10 -24 43l17 64q-30 -6 -59 -6q-62 0 -116 28l-28 -105q-8 -33 -43 -24q-36 10 -24 43l34 128q-60 55 -97 150q-40 108 -35.5 249.5t71.5 285.5
q61 137 175 248q81 77 168 119l28 104q12 34 43 26q35 -10 26 -43l-15 -56q95 29 181 7l18 66q12 34 43 26q35 -10 26 -43l-20 -73q62 -30 117 -83q22 -26 -2 -50q-23 -23 -51 0zM417 1047q-14 -4 -29 -10l-262 -973q44 -28 97 -28q39 -2 80 12l270 1009q-74 18 -156 -10z
M208 915q-97 -94 -161 -226q-60 -130 -64.5 -256.5t33.5 -223.5q18 -52 52 -93l235 877q-48 -32 -95 -78z" />
    <glyph glyph-name="periodcentered" unicode="&#xb7;" horiz-adv-x="445" 
d="M392 401q53 0 46 -70q-9 -72 -65 -72q-59 0 -46 72q8 70 65 70z" />
    <glyph glyph-name="cedilla" unicode="&#xb8;" horiz-adv-x="164" 
d="M102 -26q-3 -11 -5.5 -20t-3.5 -14q-1 -2 -2 -5.5t-1 -2.5q0 -3 -1 -4q30 11 46 -14l-1 1q16 -22 16 -51q0 -25 -11 -54q-10 -22 -27.5 -53.5t-43.5 -67.5q-8 -13 -19 -15t-22 5q-23 20 -11 42q25 35 41.5 63t24.5 49q5 10 6 17t0 10q-19 -8 -33 -8q-11 0 -18.5 4
t-17.5 14q-8 14 -3.5 29.5t11.5 34.5q5 9 6 20v-1v1v1q1 5 2.5 11t1.5 8h65z" />
    <glyph glyph-name="onesuperior" unicode="&#xb9;" horiz-adv-x="380" 
d="M391 1098q14 7 27.5 5t21.5 -16q5 -7 7 -15.5t-2 -17.5l1 1q-42 -148 -84 -294.5t-84 -294.5q-11 -31 -46 -25q-35 10 -25 46q35 127 69.5 248.5t70.5 249.5q-29 -17 -57.5 -35t-56.5 -34h1q-29 -22 -54 11q-18 33 13 52z" />
    <glyph glyph-name="ordmasculine" unicode="&#xba;" horiz-adv-x="742" 
d="M821 951q-35 -28 -86.5 -44t-124.5 -18q-11 -47 -29 -76t-38 -57q-35 -48 -71.5 -82.5t-70.5 -59.5q-91 -62 -149 -62q-62 3 -83 53q-8 17 -10.5 36.5t-0.5 42.5q6 59 32 120q18 44 45.5 87.5t62.5 82.5q70 81 156 93q5 0 16 -3q20 10 39 10q39 0 70 -50q23 -34 30 -65
q119 2 168 46q15 11 26.5 8.5t22.5 -15.5q18 -26 -5 -47zM436 967q-2 6 -3 11.5t-2 11.5q-51 -22 -97 -78q-26 -32 -46 -65.5t-34 -68.5q-13 -29 -19 -54.5t-7 -48.5q-3 -23 5 -42q7 -12 20 -12q34 -3 107 50q67 48 129 126q19 28 32 52t18 45q-18 5 -33 10t-26 13
q-37 22 -45 51zM516 976q7 -5 17 -8q-2 5 -4.5 11t-5.5 12l-4 3q-4 7 -9 10q-3 0 -8 -2q-1 -5 -1 -11q2 -4 6 -8.5t9 -7.5v1z" />
    <glyph glyph-name="guillemotright" unicode="&#xbb;" horiz-adv-x="912" 
d="M320 29l468 274l-312 267q-25 21 -5 49q25 24 50 2l348 -294q3 -5 10 -12q17 -28 -14 -48l-509 -298q-31 -16 -48 12q-18 32 12 48zM30 29l468 274l-312 267q-25 21 -5 49q25 24 50 2l348 -294q3 -5 10 -12q17 -28 -14 -48l-509 -298q-31 -16 -48 12q-18 32 12 48z" />
    <glyph glyph-name="onequarter" unicode="&#xbc;" horiz-adv-x="1073" 
d="M882 224h94q36 0 36 -37q0 -38 -36 -38h-116q-10 -35 -20.5 -73.5t-19.5 -73.5v1q-8 -35 -49 -28q-35 10 -24 48q9 33 17.5 63t18.5 63h-253q-8 0 -22 7q-30 23 -8 52q78 103 155.5 207.5t154.5 207.5q23 29 53 8q30 -23 8 -52q-68 -92 -132 -177t-133 -178h196
q16 58 32 117.5t32 117.5q11 34 45 27q20 -5 26.5 -17.5t1.5 -29.5zM124 19l728 1102q21 26 50 10q27 -22 10 -51l-728 -1098q-22 -30 -50 -10q-27 16 -10 47zM391 1098q14 7 27.5 5t21.5 -16q5 -7 7 -15.5t-2 -17.5l1 1q-42 -148 -84 -294.5t-84 -294.5q-11 -31 -46 -25
q-35 10 -25 46q35 127 69.5 248.5t70.5 249.5q-29 -17 -57.5 -35t-56.5 -34h1q-29 -22 -54 11q-18 33 13 52z" />
    <glyph glyph-name="onehalf" unicode="&#xbd;" horiz-adv-x="1100" 
d="M124 19l728 1102q21 26 50 10q27 -22 10 -51l-728 -1098q-22 -30 -50 -10q-27 16 -10 47zM391 1098q14 7 27.5 5t21.5 -16q5 -7 7 -15.5t-2 -17.5l1 1q-42 -148 -84 -294.5t-84 -294.5q-11 -31 -46 -25q-35 10 -25 46q35 127 69.5 248.5t70.5 249.5q-29 -17 -57.5 -35
t-56.5 -34h1q-29 -22 -54 11q-18 33 13 52zM638 445q15 79 73 134q60 51 137 57q38 1 70.5 -8.5t58.5 -31.5q22 -18 35.5 -41.5t16.5 -52.5q9 -62 -25 -134q-32 -64 -104.5 -140.5t-200.5 -164.5q51 3 97 3q61 0 121.5 -4t121.5 -12q35 -10 31 -45q-9 -34 -44 -30
q-54 8 -111 12.5t-119 4.5q-59 0 -120.5 -4.5t-123.5 -12.5q-41 -5 -42 31q-6 27 22 39q88 53 157.5 103t117.5 94q44 42 77.5 83.5t50.5 74.5q12 23 17 46t3 43q-5 29 -27 48q-32 24 -76 23q-55 -4 -90 -38q-38 -34 -49 -93q-9 -34 -48 -29q-36 9 -27 46v-1z" />
    <glyph glyph-name="threequarters" unicode="&#xbe;" horiz-adv-x="1263" 
d="M316 922q-35 21 -14 55q13 25 31 47.5t40 39t47.5 26t54.5 9.5q30 0 57.5 -11t49 -29.5t34 -44.5t12.5 -56q0 -19 -7 -39t-18 -40q-14 -25 -39 -47.5t-56 -41.5q17 -7 31.5 -16.5t28.5 -22.5q37 -37 40 -91q0 -51 -23 -94q-14 -25 -38.5 -48.5t-54.5 -42.5
q-29 -18 -65 -28.5t-75 -10.5q-48 0 -78 9q-23 4 -42 12.5t-42 19.5q-32 19 -14 52q21 33 53 14q33 -20 64 -25q24 -6 59 -6q59 0 101.5 26.5t63.5 63.5q17 30 15 56q0 24 -18 41q-30 30 -101 30h-19.5t-30 -1t-34 -2.5t-30.5 -4.5q-10 -2 -18.5 2.5t-7.5 24.5q-3 15 3 27
t24 17q103 25 159 58.5t79 66.5q5 11 9.5 21.5t2.5 19.5q-5 20 -13.5 32.5t-19 19.5t-21.5 10t-20 3q-27 -3 -45.5 -13.5t-30.5 -23.5t-19.5 -26t-12.5 -22q-20 -36 -52 -16zM1114 224h94q36 0 36 -37q0 -38 -36 -38h-116q-10 -35 -20.5 -73.5t-19.5 -73.5v1q-8 -35 -49 -28
q-35 10 -24 48q9 33 17.5 63t18.5 63h-253q-8 0 -22 7q-30 23 -8 52q78 103 155.5 207.5t154.5 207.5q23 29 53 8q30 -23 8 -52q-68 -92 -132 -177t-133 -178h196q16 58 32 117.5t32 117.5q11 34 45 27q20 -5 26.5 -17.5t1.5 -29.5zM355 19l728 1102q21 26 50 10
q27 -22 10 -51l-728 -1098q-22 -30 -50 -10q-27 16 -10 47z" />
    <glyph glyph-name="questiondown" unicode="&#xbf;" horiz-adv-x="761" 
d="M686 496q-55 0 -48 72q10 68 65 68q58 0 48 -68q-8 -72 -65 -72zM665 325q-30 -120 -91 -208t-123 -164q-46 -59 -86.5 -115t-57.5 -118q-12 -49 -12 -81q0 -45 14 -75q21 -28 53 -38q20 -5 41 -5q104 0 156 36q58 36 75 125q4 33 40 29q35 -5 29 -41q-19 -113 -105 -173
q-71 -46 -195 -46q-32 0 -60 8q-60 17 -94 69q-26 43 -26 111q0 49 14 100q22 72 65.5 133t93.5 124q58 72 115.5 154.5t86.5 191.5q8 35 43 27q36 -15 24 -44z" />
    <glyph glyph-name="Agrave" unicode="&#xc0;" horiz-adv-x="1573" 
d="M1418 1092l-156 -588q97 -7 172.5 1.5t113.5 46.5q22 28 48 3q23 -25 2 -51q-52 -52 -145 -65t-210 -2l-120 -446q-9 -31 -43 -24q-34 9 -24 43l115 434q-83 12 -172.5 29.5t-175.5 35.5l-351 -339q-81 -78 -140 -127.5t-107 -72.5q-101 -49 -202 32q-23 24 -4 51
q23 27 50 5q64 -55 125 -24q41 18 95.5 65t132.5 122l317 305q-88 18 -185 36q-39 4 -29 41q5 33 39 28q55 -9 114.5 -21t122.5 -24l560 540q25 25 50 0q13 -19 7 -34zM885 569q78 -17 155.5 -31.5t149.5 -23.5l128 473zM1450 1274l-190 112q-27 16 -10 48q19 30 49 12
l189 -112q30 -18 11 -48q-17 -32 -49 -12z" />
    <glyph glyph-name="Aacute" unicode="&#xc1;" horiz-adv-x="1573" 
d="M1418 1092l-156 -588q97 -7 172.5 1.5t113.5 46.5q22 28 48 3q23 -25 2 -51q-52 -52 -145 -65t-210 -2l-120 -446q-9 -31 -43 -24q-34 9 -24 43l115 434q-83 12 -172.5 29.5t-175.5 35.5l-351 -339q-81 -78 -140 -127.5t-107 -72.5q-101 -49 -202 32q-23 24 -4 51
q23 27 50 5q64 -55 125 -24q41 18 95.5 65t132.5 122l317 305q-88 18 -185 36q-39 4 -29 41q5 33 39 28q55 -9 114.5 -21t122.5 -24l560 540q25 25 50 0q13 -19 7 -34zM885 569q78 -17 155.5 -31.5t149.5 -23.5l128 473zM1411 1326l180 126q26 18 48 -10q19 -30 -9 -50
l-181 -125q-28 -20 -48 9q-22 29 10 50z" />
    <glyph glyph-name="Acircumflex" unicode="&#xc2;" horiz-adv-x="1573" 
d="M1418 1092l-156 -588q97 -7 172.5 1.5t113.5 46.5q22 28 48 3q23 -25 2 -51q-52 -52 -145 -65t-210 -2l-120 -446q-9 -31 -43 -24q-34 9 -24 43l115 434q-83 12 -172.5 29.5t-175.5 35.5l-351 -339q-81 -78 -140 -127.5t-107 -72.5q-101 -49 -202 32q-23 24 -4 51
q23 27 50 5q64 -55 125 -24q41 18 95.5 65t132.5 122l317 305q-88 18 -185 36q-39 4 -29 41q5 33 39 28q55 -9 114.5 -21t122.5 -24l560 540q25 25 50 0q13 -19 7 -34zM885 569q78 -17 155.5 -31.5t149.5 -23.5l128 473zM1245 1232q-23 28 -5 52l127 146q4 8 12 15t22 10
q16 3 28 -9q17 -24 89 -163v1q19 -31 -10 -51q-32 -20 -52 9l-60 112q-51 -60 -76 -86.5t-26 -34.5q-23 -23 -49 -1z" />
    <glyph glyph-name="Atilde" unicode="&#xc3;" horiz-adv-x="1573" 
d="M1418 1092l-156 -588q97 -7 172.5 1.5t113.5 46.5q22 28 48 3q23 -25 2 -51q-52 -52 -145 -65t-210 -2l-120 -446q-9 -31 -43 -24q-34 9 -24 43l115 434q-83 12 -172.5 29.5t-175.5 35.5l-351 -339q-81 -78 -140 -127.5t-107 -72.5q-101 -49 -202 32q-23 24 -4 51
q23 27 50 5q64 -55 125 -24q41 18 95.5 65t132.5 122l317 305q-88 18 -185 36q-39 4 -29 41q5 33 39 28q55 -9 114.5 -21t122.5 -24l560 540q25 25 50 0q13 -19 7 -34zM885 569q78 -17 155.5 -31.5t149.5 -23.5l128 473zM1206 1337q22 29 43 50t47 30q63 18 122 -59
q18 -24 30 -27q13 -3 20 -1l-1 -1q11 4 20 10q28 19 41 56v-1q7 32 37 24q34 -10 26 -40q-18 -58 -63 -91q-24 -14 -44 -20v1q-26 -7 -51 1q-19 5 -36 18t-32 32q-31 42 -48 37q-11 -4 -26 -20.5t-33 -36.5q-20 -29 -47 -7q-24 20 -5 45z" />
    <glyph glyph-name="Adieresis" unicode="&#xc4;" horiz-adv-x="1573" 
d="M1418 1092l-156 -588q97 -7 172.5 1.5t113.5 46.5q22 28 48 3q23 -25 2 -51q-52 -52 -145 -65t-210 -2l-120 -446q-9 -31 -43 -24q-34 9 -24 43l115 434q-83 12 -172.5 29.5t-175.5 35.5l-351 -339q-81 -78 -140 -127.5t-107 -72.5q-101 -49 -202 32q-23 24 -4 51
q23 27 50 5q64 -55 125 -24q41 18 95.5 65t132.5 122l317 305q-88 18 -185 36q-39 4 -29 41q5 33 39 28q55 -9 114.5 -21t122.5 -24l560 540q25 25 50 0q13 -19 7 -34zM885 569q78 -17 155.5 -31.5t149.5 -23.5l128 473zM1442 1302l43 161q8 31 43 24q34 -10 26 -44
l-43 -160q-9 -34 -43 -24q-36 7 -26 43zM1276 1302l43 161q8 31 43 24q34 -10 26 -44l-43 -160q-9 -34 -43 -24q-36 7 -26 43z" />
    <glyph glyph-name="Aring" unicode="&#xc5;" horiz-adv-x="1573" 
d="M1418 1092l-156 -588q97 -7 172.5 1.5t113.5 46.5q22 28 48 3q23 -25 2 -51q-52 -52 -145 -65t-210 -2l-120 -446q-9 -31 -43 -24q-34 9 -24 43l115 434q-83 12 -172.5 29.5t-175.5 35.5l-351 -339q-81 -78 -140 -127.5t-107 -72.5q-101 -49 -202 32q-23 24 -4 51
q23 27 50 5q64 -55 125 -24q41 18 95.5 65t132.5 122l317 305q-88 18 -185 36q-39 4 -29 41q5 33 39 28q55 -9 114.5 -21t122.5 -24l560 540q25 25 50 0q13 -19 7 -34zM885 569q78 -17 155.5 -31.5t149.5 -23.5l128 473zM1458 1574q19 0 31 -3q46 -15 67 -50q24 -34 24 -87
q0 -26 -7 -52q-19 -75 -72 -123q-55 -53 -120 -53q-22 0 -31 3q-45 13 -70 50q-24 41 -24 87q0 25 7 52q17 68 72 123q57 53 123 53zM1470 1502q-3 2 -12 2q-37 0 -72 -34q-44 -44 -53 -88q-5 -20 -5 -36q0 -28 12 -48q11 -17 26 -20q3 0 7 -1t8 -1q34 0 72 34q37 37 53 88
q5 30 5 36q0 27 -12 48q-13 15 -29 20z" />
    <glyph glyph-name="AE" unicode="&#xc6;" horiz-adv-x="1875" 
d="M1678 664q12 -7 25 -13q59 -31 144 -41q9 0 19.5 -1.5t19.5 -1.5q34 -4 31 -40q-4 -32 -36 -32h-2q-9 2 -19.5 2.5t-19.5 2.5q-187 16 -306 -32.5t-174 -123.5q-39 -54 -50 -115q-9 -65 12 -113q45 -118 197 -125q82 -4 180 41q94 39 148 103q24 24 51 3q27 -24 5 -51
q-69 -76 -176 -120q-120 -50 -213 -47q-99 6 -164.5 53.5t-92.5 118.5q-26 68 -16 147q17 86 64 146q46 64 129.5 113t204.5 67q-26 17 -47 35q-100 -25 -228 -42q-40 -6 -81 -11l-160 -596q-9 -31 -43 -24q-34 9 -24 43l153 570q-155 -15 -335 -21l-402 -389
q-81 -78 -140 -127.5t-107 -72.5q-101 -49 -202 32q-23 24 -4 51q23 27 50 5q64 -55 125 -24q41 18 95.5 65t132.5 122l347 335q-111 -2 -231 -1q-38 5 -41 34q-3 23 34 34q161 -2 311 3l519 500q25 25 50 0q13 -19 7 -34l-116 -431l21 3q124 16 219 35l-2 4q-39 72 -35 162
t61 175.5t191.5 87.5t166.5 -117.5t-55 -215.5t-191 -131zM1617 717q120 30 198.5 111t46 163t-121.5 73.5t-128 -65.5t-38.5 -134t29.5 -126q6 -12 14 -22zM1318 987l-370 -357q145 8 280 22z" />
    <glyph glyph-name="Ccedilla" unicode="&#xc7;" horiz-adv-x="596" 
d="M813 968q-40 45 -94 69q-97 49 -211 10q-108 -32 -209 -132q-97 -94 -161 -226q-60 -130 -64.5 -256.5t33.5 -223.5q27 -76 87 -127q52 -46 120 -46q120 -4 257 139q23 25 50 3q23 -25 2 -51q-153 -159 -305 -162q-5 -17 -6 -25q-1 -2 -2 -5.5t-1 -2.5q0 -3 -1 -4
q30 11 46 -14l-1 1q16 -22 16 -51q0 -25 -11 -54q-10 -22 -27.5 -53.5t-43.5 -67.5q-8 -13 -19 -15t-22 5q-23 20 -11 42q25 35 41.5 63t24.5 49q5 10 6 17t0 10q-19 -8 -33 -8q-11 0 -18.5 4t-17.5 14q-8 14 -3.5 29.5t11.5 34.5q4 9 6 21v-1q0 2 1.5 8l2.5 10
q-58 13 -108 54q-68 56 -108 159q-40 108 -35.5 249.5t71.5 285.5q61 137 175 248q112 107 236 146q139 47 261 -12q63 -30 118 -84q22 -26 -2 -50q-23 -23 -51 0z" />
    <glyph glyph-name="Egrave" unicode="&#xc8;" horiz-adv-x="646" 
d="M648 535q-9 2 -19.5 2.5t-19.5 2.5q-187 16 -306 -32.5t-174 -123.5q-39 -54 -50 -115q-9 -65 12 -113q45 -118 197 -125q82 -4 180 41q94 39 148 103q24 24 51 3q27 -24 5 -51q-69 -76 -176 -120q-120 -50 -213 -47q-99 6 -164.5 53.5t-92.5 118.5q-26 68 -16 147
q17 86 64 146q46 64 129.5 113t204.5 67q-66 43 -99 98q-39 72 -31 149q2 57 29 113q47 94 134 142q86 48 185 31q59 -10 101 -34q66 -36 96 -88q18 -32 -12 -48q-31 -18 -48 12q-25 40 -67 62q-40 18 -82 26q-74 14 -137 -24q-73 -39 -105 -110q-21 -41 -24 -86
q-5 -60 24 -109q30 -54 100 -88q59 -31 144 -41q9 0 19.5 -1.5t19.5 -1.5q34 -4 31 -40q-4 -32 -36 -32h-2zM676 1274l-190 112q-27 16 -10 48q19 30 49 12l189 -112q30 -18 11 -48q-17 -32 -49 -12z" />
    <glyph glyph-name="Eacute" unicode="&#xc9;" horiz-adv-x="646" 
d="M648 535q-9 2 -19.5 2.5t-19.5 2.5q-187 16 -306 -32.5t-174 -123.5q-39 -54 -50 -115q-9 -65 12 -113q45 -118 197 -125q82 -4 180 41q94 39 148 103q24 24 51 3q27 -24 5 -51q-69 -76 -176 -120q-120 -50 -213 -47q-99 6 -164.5 53.5t-92.5 118.5q-26 68 -16 147
q17 86 64 146q46 64 129.5 113t204.5 67q-66 43 -99 98q-39 72 -31 149q2 57 29 113q47 94 134 142q86 48 185 31q59 -10 101 -34q66 -36 96 -88q18 -32 -12 -48q-31 -18 -48 12q-25 40 -67 62q-40 18 -82 26q-74 14 -137 -24q-73 -39 -105 -110q-21 -41 -24 -86
q-5 -60 24 -109q30 -54 100 -88q59 -31 144 -41q9 0 19.5 -1.5t19.5 -1.5q34 -4 31 -40q-4 -32 -36 -32h-2zM584 1326l180 126q26 18 48 -10q19 -30 -9 -50l-181 -125q-28 -20 -48 9q-22 29 10 50z" />
    <glyph glyph-name="Ecircumflex" unicode="&#xca;" horiz-adv-x="646" 
d="M648 535q-9 2 -19.5 2.5t-19.5 2.5q-187 16 -306 -32.5t-174 -123.5q-39 -54 -50 -115q-9 -65 12 -113q45 -118 197 -125q82 -4 180 41q94 39 148 103q24 24 51 3q27 -24 5 -51q-69 -76 -176 -120q-120 -50 -213 -47q-99 6 -164.5 53.5t-92.5 118.5q-26 68 -16 147
q17 86 64 146q46 64 129.5 113t204.5 67q-66 43 -99 98q-39 72 -31 149q2 57 29 113q47 94 134 142q86 48 185 31q59 -10 101 -34q66 -36 96 -88q18 -32 -12 -48q-31 -18 -48 12q-25 40 -67 62q-40 18 -82 26q-74 14 -137 -24q-73 -39 -105 -110q-21 -41 -24 -86
q-5 -60 24 -109q30 -54 100 -88q59 -31 144 -41q9 0 19.5 -1.5t19.5 -1.5q34 -4 31 -40q-4 -32 -36 -32h-2zM500 1232q-23 28 -5 52l127 146q4 8 12 15t22 10q16 3 28 -9q17 -24 89 -163v1q19 -31 -10 -51q-32 -20 -52 9l-60 112q-51 -60 -76 -86.5t-26 -34.5
q-23 -23 -49 -1z" />
    <glyph glyph-name="Edieresis" unicode="&#xcb;" horiz-adv-x="646" 
d="M648 535q-9 2 -19.5 2.5t-19.5 2.5q-187 16 -306 -32.5t-174 -123.5q-39 -54 -50 -115q-9 -65 12 -113q45 -118 197 -125q82 -4 180 41q94 39 148 103q24 24 51 3q27 -24 5 -51q-69 -76 -176 -120q-120 -50 -213 -47q-99 6 -164.5 53.5t-92.5 118.5q-26 68 -16 147
q17 86 64 146q46 64 129.5 113t204.5 67q-66 43 -99 98q-39 72 -31 149q2 57 29 113q47 94 134 142q86 48 185 31q59 -10 101 -34q66 -36 96 -88q18 -32 -12 -48q-31 -18 -48 12q-25 40 -67 62q-40 18 -82 26q-74 14 -137 -24q-73 -39 -105 -110q-21 -41 -24 -86
q-5 -60 24 -109q30 -54 100 -88q59 -31 144 -41q9 0 19.5 -1.5t19.5 -1.5q34 -4 31 -40q-4 -32 -36 -32h-2zM512 1302l43 161q8 31 43 24q34 -10 26 -44l-43 -160q-9 -34 -43 -24q-36 7 -26 43zM678 1302l43 161q8 31 43 24q34 -10 26 -44l-43 -160q-9 -34 -43 -24
q-36 7 -26 43z" />
    <glyph glyph-name="Igrave" unicode="&#xcc;" horiz-adv-x="588" 
d="M329 1136h422q36 0 36 -34q0 -10 -2 -14l-233 -793q-53 -191 -168 -273q-56 -40 -111 -50q-60 -10 -110 7q-90 26 -145 103q-18 29 7 50q29 18 49 -10q43 -58 108 -76q37 -13 79 -5q37 6 82 36q96 75 142 238l221 751h-377q-34 0 -34 36q0 34 34 34zM552 1274l-190 112
q-27 16 -10 48q19 30 49 12l189 -112q30 -18 11 -48q-17 -32 -49 -12z" />
    <glyph glyph-name="Iacute" unicode="&#xcd;" horiz-adv-x="588" 
d="M329 1136h422q36 0 36 -34q0 -10 -2 -14l-233 -793q-53 -191 -168 -273q-56 -40 -111 -50q-60 -10 -110 7q-90 26 -145 103q-18 29 7 50q29 18 49 -10q43 -58 108 -76q37 -13 79 -5q37 6 82 36q96 75 142 238l221 751h-377q-34 0 -34 36q0 34 34 34zM555 1326l180 126
q26 18 48 -10q19 -30 -9 -50l-181 -125q-28 -20 -48 9q-22 29 10 50z" />
    <glyph glyph-name="Icircumflex" unicode="&#xce;" horiz-adv-x="588" 
d="M329 1136h422q36 0 36 -34q0 -10 -2 -14l-233 -793q-53 -191 -168 -273q-56 -40 -111 -50q-60 -10 -110 7q-90 26 -145 103q-18 29 7 50q29 18 49 -10q43 -58 108 -76q37 -13 79 -5q37 6 82 36q96 75 142 238l221 751h-377q-34 0 -34 36q0 34 34 34zM448 1232
q-23 28 -5 52l127 146q4 8 12 15t22 10q16 3 28 -9q17 -24 89 -163v1q19 -31 -10 -51q-32 -20 -52 9l-60 112q-51 -60 -76 -86.5t-26 -34.5q-23 -23 -49 -1z" />
    <glyph glyph-name="Idieresis" unicode="&#xcf;" horiz-adv-x="588" 
d="M329 1136h422q36 0 36 -34q0 -10 -2 -14l-233 -793q-53 -191 -168 -273q-56 -40 -111 -50q-60 -10 -110 7q-90 26 -145 103q-18 29 7 50q29 18 49 -10q43 -58 108 -76q37 -13 79 -5q37 6 82 36q96 75 142 238l221 751h-377q-34 0 -34 36q0 34 34 34zM619 1302l43 161
q8 31 43 24q34 -10 26 -44l-43 -160q-9 -34 -43 -24q-36 7 -26 43zM453 1302l43 161q8 31 43 24q34 -10 26 -44l-43 -160q-9 -34 -43 -24q-36 7 -26 43z" />
    <glyph glyph-name="Eth" unicode="&#xd0;" horiz-adv-x="870" 
d="M7 10l139 521h-70q-36 0 -36 36t36 36h89l120 449q-48 -7 -106 -20q-36 -8 -43 27q-9 33 26 43q345 74 576 22q129 -32 202 -94q82 -72 103 -170q19 -85 -5 -181q-43 -195 -140.5 -338.5t-226.5 -234.5q-143 -101 -310 -136t-329 -3q-32 6 -27 40v1zM361 1064l-124 -461
h269q36 0 36 -36t-45 -34l-279 -1l-135 -503q292 -45 547 134q119 84 209 217.5t132 315.5q19 88 5 149q-18 76 -82 130q-70 58 -173 81q-143 32 -360 8z" />
    <glyph glyph-name="Ntilde" unicode="&#xd1;" horiz-adv-x="1309" 
d="M1299 1092l-250 -924l548 732q118 157 211 212q53 25 91 21q50 -9 72 -48q26 -40 29 -108q0 -36 -33 -36q-34 -4 -39 34q0 46 -17 72q-6 11 -21 17q-17 0 -48 -15q-83 -50 -188 -192l-657 -878q-23 -26 -51 -7q-22 18 -12 38l259 960l-602 -653q-18 -20 -36 -38.5
t-34 -38.5q-58 -63 -117 -126t-116 -102q-74 -48 -142.5 -47.5t-125.5 85.5q-20 28 8 51q27 16 49 -10q61 -92 173 -19q52 36 108 94.5t110 121.5q18 20 35.5 40t34.5 37l701 759q23 26 48 2q17 -12 12 -29v-5zM1360 1337q22 29 43 50t47 30q63 18 122 -59q18 -24 30 -27
q13 -3 20 -1l-1 -1q11 4 20 10q28 19 41 56v-1q7 32 37 24q34 -10 26 -40q-18 -58 -63 -91q-24 -14 -44 -20v1q-26 -7 -51 1q-19 5 -36 18t-32 32q-31 42 -48 37q-11 -4 -26 -20.5t-33 -36.5q-20 -29 -47 -7q-24 20 -5 45z" />
    <glyph glyph-name="Ograve" unicode="&#xd2;" horiz-adv-x="818" 
d="M698 1136q68 0 130 -22q86 -32 132 -110q40 -69 40 -178q0 -131 -57 -288q-102 -262 -272 -418q-178 -155 -379 -155q-73 0 -130 22q-85 30 -124 104q-38 70 -38 168q0 129 64 303q45 123 111 232.5t153 187.5q165 154 370 154zM804 1049q-50 17 -106 17
q-177 0 -322 -134q-158 -149 -247 -394q-58 -154 -58 -279q0 -87 29 -134q27 -50 89 -75q40 -14 103 -14q174 0 331 137q160 142 253 389q55 149 55 264q0 82 -31 144q-34 54 -96 79zM805 1274l-190 112q-27 16 -10 48q19 30 49 12l189 -112q30 -18 11 -48q-17 -32 -49 -12z
" />
    <glyph glyph-name="Oacute" unicode="&#xd3;" horiz-adv-x="818" 
d="M698 1136q68 0 130 -22q86 -32 132 -110q40 -69 40 -178q0 -131 -57 -288q-102 -262 -272 -418q-178 -155 -379 -155q-73 0 -130 22q-85 30 -124 104q-38 70 -38 168q0 129 64 303q45 123 111 232.5t153 187.5q165 154 370 154zM804 1049q-50 17 -106 17
q-177 0 -322 -134q-158 -149 -247 -394q-58 -154 -58 -279q0 -87 29 -134q27 -50 89 -75q40 -14 103 -14q174 0 331 137q160 142 253 389q55 149 55 264q0 82 -31 144q-34 54 -96 79zM681 1326l180 126q26 18 48 -10q19 -30 -9 -50l-181 -125q-28 -20 -48 9q-22 29 10 50z
" />
    <glyph glyph-name="Ocircumflex" unicode="&#xd4;" horiz-adv-x="818" 
d="M698 1136q68 0 130 -22q86 -32 132 -110q40 -69 40 -178q0 -131 -57 -288q-102 -262 -272 -418q-178 -155 -379 -155q-73 0 -130 22q-85 30 -124 104q-38 70 -38 168q0 129 64 303q45 123 111 232.5t153 187.5q165 154 370 154zM804 1049q-50 17 -106 17
q-177 0 -322 -134q-158 -149 -247 -394q-58 -154 -58 -279q0 -87 29 -134q27 -50 89 -75q40 -14 103 -14q174 0 331 137q160 142 253 389q55 149 55 264q0 82 -31 144q-34 54 -96 79zM611 1232q-23 28 -5 52l127 146q4 8 12 15t22 10q16 3 28 -9q17 -24 89 -163v1
q19 -31 -10 -51q-32 -20 -52 9l-60 112q-51 -60 -76 -86.5t-26 -34.5q-23 -23 -49 -1z" />
    <glyph glyph-name="Otilde" unicode="&#xd5;" horiz-adv-x="818" 
d="M698 1136q68 0 130 -22q86 -32 132 -110q40 -69 40 -178q0 -131 -57 -288q-102 -262 -272 -418q-178 -155 -379 -155q-73 0 -130 22q-85 30 -124 104q-38 70 -38 168q0 129 64 303q45 123 111 232.5t153 187.5q165 154 370 154zM804 1049q-50 17 -106 17
q-177 0 -322 -134q-158 -149 -247 -394q-58 -154 -58 -279q0 -87 29 -134q27 -50 89 -75q40 -14 103 -14q174 0 331 137q160 142 253 389q55 149 55 264q0 82 -31 144q-34 54 -96 79zM595 1337q22 29 43 50t47 30q63 18 122 -59q18 -24 30 -27q13 -3 20 -1l-1 -1q11 4 20 10
q28 19 41 56v-1q7 32 37 24q34 -10 26 -40q-18 -58 -63 -91q-24 -14 -44 -20v1q-26 -7 -51 1q-19 5 -36 18t-32 32q-31 42 -48 37q-11 -4 -26 -20.5t-33 -36.5q-20 -29 -47 -7q-24 20 -5 45z" />
    <glyph glyph-name="Odieresis" unicode="&#xd6;" horiz-adv-x="818" 
d="M698 1136q68 0 130 -22q86 -32 132 -110q40 -69 40 -178q0 -131 -57 -288q-102 -262 -272 -418q-178 -155 -379 -155q-73 0 -130 22q-85 30 -124 104q-38 70 -38 168q0 129 64 303q45 123 111 232.5t153 187.5q165 154 370 154zM804 1049q-50 17 -106 17
q-177 0 -322 -134q-158 -149 -247 -394q-58 -154 -58 -279q0 -87 29 -134q27 -50 89 -75q40 -14 103 -14q174 0 331 137q160 142 253 389q55 149 55 264q0 82 -31 144q-34 54 -96 79zM775 1302l43 161q8 31 43 24q34 -10 26 -44l-43 -160q-9 -34 -43 -24q-36 7 -26 43z
M609 1302l43 161q8 31 43 24q34 -10 26 -44l-43 -160q-9 -34 -43 -24q-36 7 -26 43z" />
    <glyph glyph-name="multiply" unicode="&#xd7;" horiz-adv-x="632" 
d="M178 552l144 -165l240 170q29 21 48 -10q22 -27 -7 -48l-236 -165l140 -159q26 -27 -3 -50q-26 -23 -50 2l-144 166l-240 -171q-30 -21 -51 10q-19 28 10 48l235 166l-142 158q-23 27 5 51q26 21 51 -3z" />
    <glyph glyph-name="Oslash" unicode="&#xd8;" horiz-adv-x="818" 
d="M698 1136q64 0 122 -20l10 15q21 26 50 10q27 -22 10 -51l-4 -6q45 -31 74 -80q40 -69 40 -178q0 -131 -57 -288q-102 -262 -272 -418q-178 -155 -379 -155q-73 0 -130 22l-3 1q-21 -24 -47 -6q-23 14 -14 38q-38 28 -60 71q-38 70 -38 168q0 129 64 303
q45 123 111 232.5t153 187.5q165 154 370 154zM292 36q174 0 331 137q160 142 253 389q55 149 55 264q0 82 -31 144q-21 33 -53 55l-649 -978q38 -11 94 -11zM698 1066q-177 0 -322 -134q-158 -149 -247 -394q-58 -154 -58 -279q0 -87 29 -134q13 -26 36 -45l644 976
q-39 10 -82 10z" />
    <glyph glyph-name="Ugrave" unicode="&#xd9;" horiz-adv-x="916" 
d="M159 972q30 16 59.5 34t60.5 38q29 18 55 39t56 43q32 24 52 -2q14 -17 5 -39q-108 -274 -183.5 -478.5t-111.5 -339.5q-62 -231 0 -231q116 0 367 317q110 138 230.5 330t240.5 429q16 35 48 21q31 -18 14 -53q-146 -299 -241.5 -543.5t-118.5 -385.5q-11 -66 -2 -101
q3 -20 21 -14q60 18 178 139q23 25 50 3q25 -26 0 -51q-134 -136 -209 -157q-75 -22 -103 44q-15 25 -11.5 72.5t6.5 76.5q21 129 108 363q-73 -116 -156 -216q-270 -345 -422 -345t-70 318q32 124 97 302.5t158 410.5q-11 -7 -19 -12q-31 -20 -62 -39t-63 -35
q-33 -20 -48 14q-20 32 14 48zM746 1233l-190 112q-27 16 -10 48q19 30 49 12l189 -112q30 -18 11 -48q-17 -32 -49 -12z" />
    <glyph glyph-name="Uacute" unicode="&#xda;" horiz-adv-x="916" 
d="M159 972q30 16 59.5 34t60.5 38q29 18 55 39t56 43q32 24 52 -2q14 -17 5 -39q-108 -274 -183.5 -478.5t-111.5 -339.5q-62 -231 0 -231q116 0 367 317q110 138 230.5 330t240.5 429q16 35 48 21q31 -18 14 -53q-146 -299 -241.5 -543.5t-118.5 -385.5q-11 -66 -2 -101
q3 -20 21 -14q60 18 178 139q23 25 50 3q25 -26 0 -51q-134 -136 -209 -157q-75 -22 -103 44q-15 25 -11.5 72.5t6.5 76.5q21 129 108 363q-73 -116 -156 -216q-270 -345 -422 -345t-70 318q32 124 97 302.5t158 410.5q-11 -7 -19 -12q-31 -20 -62 -39t-63 -35
q-33 -20 -48 14q-20 32 14 48zM683 1326l180 126q26 18 48 -10q19 -30 -9 -50l-181 -125q-28 -20 -48 9q-22 29 10 50z" />
    <glyph glyph-name="Ucircumflex" unicode="&#xdb;" horiz-adv-x="916" 
d="M159 972q30 16 59.5 34t60.5 38q29 18 55 39t56 43q32 24 52 -2q14 -17 5 -39q-108 -274 -183.5 -478.5t-111.5 -339.5q-62 -231 0 -231q116 0 367 317q110 138 230.5 330t240.5 429q16 35 48 21q31 -18 14 -53q-146 -299 -241.5 -543.5t-118.5 -385.5q-11 -66 -2 -101
q3 -20 21 -14q60 18 178 139q23 25 50 3q25 -26 0 -51q-134 -136 -209 -157q-75 -22 -103 44q-15 25 -11.5 72.5t6.5 76.5q21 129 108 363q-73 -116 -156 -216q-270 -345 -422 -345t-70 318q32 124 97 302.5t158 410.5q-11 -7 -19 -12q-31 -20 -62 -39t-63 -35
q-33 -20 -48 14q-20 32 14 48zM589 1232q-23 28 -5 52l127 146q4 8 12 15t22 10q16 3 28 -9q17 -24 89 -163v1q19 -31 -10 -51q-32 -20 -52 9l-60 112q-51 -60 -76 -86.5t-26 -34.5q-23 -23 -49 -1z" />
    <glyph glyph-name="Udieresis" unicode="&#xdc;" horiz-adv-x="916" 
d="M159 972q30 16 59.5 34t60.5 38q29 18 55 39t56 43q32 24 52 -2q14 -17 5 -39q-108 -274 -183.5 -478.5t-111.5 -339.5q-62 -231 0 -231q116 0 367 317q110 138 230.5 330t240.5 429q16 35 48 21q31 -18 14 -53q-146 -299 -241.5 -543.5t-118.5 -385.5q-11 -66 -2 -101
q3 -20 21 -14q60 18 178 139q23 25 50 3q25 -26 0 -51q-134 -136 -209 -157q-75 -22 -103 44q-15 25 -11.5 72.5t6.5 76.5q21 129 108 363q-73 -116 -156 -216q-270 -345 -422 -345t-70 318q32 124 97 302.5t158 410.5q-11 -7 -19 -12q-31 -20 -62 -39t-63 -35
q-33 -20 -48 14q-20 32 14 48zM763 1302l43 161q8 31 43 24q34 -10 26 -44l-43 -160q-9 -34 -43 -24q-36 7 -26 43zM597 1302l43 161q8 31 43 24q34 -10 26 -44l-43 -160q-9 -34 -43 -24q-36 7 -26 43z" />
    <glyph glyph-name="Yacute" unicode="&#xdd;" horiz-adv-x="851" 
d="M191 -35q-191 0 -122 318q24 123 85.5 302t154.5 411q-4 -2 -19 -12q-31 -20 -62 -39t-63 -35q-37 -19 -48 14q-19 31 12 48q63 35 122 72q54 33 113 84l1 1l1 2q17 8 34 2q31 -12 19 -45q-108 -274 -181 -479t-100 -340q-50 -233 53 -233q129 0 322 279
q99 140 209.5 342.5t239.5 456.5q11 28 41 22q34 -10 26 -44l-257 -967l48 50q24 24 51 3q23 -25 2 -51l-139 -140l-8 -27q-54 -207 -122.5 -323t-124.5 -159q-62 -43 -108 -24q-52 20 -48 91q3 51 43.5 130t134.5 172l170 175l204 770q-83 -157 -159 -287.5t-146 -230.5
q-213 -306 -379 -309zM630 -121l-79 -80q-83 -84 -118.5 -150.5t-37.5 -106.5q-4 -24 3 -24q10 -3 38 17q41 31 93.5 114.5t100.5 229.5zM626 1326l180 126q26 18 48 -10q19 -30 -9 -50l-181 -125q-28 -20 -48 9q-22 29 10 50z" />
    <glyph glyph-name="Thorn" unicode="&#xde;" horiz-adv-x="569" 
d="M212 761q-24 -3 -49 -8.5t-52 -10.5q-36 -10 -43 27q-6 34 28 43q72 17 138 26l70 259q7 33 43 24q33 -9 24 -43l-62 -232q101 8 184 -3q90 -15 151 -55q59 -43 74 -111q10 -33 3 -93q-37 -186 -188 -262q-57 -74 -365 -41q-6 0 -11 2l-67 -251q45 -3 109 4t129 25
t122 46.5t88 68.5q20 24 50 0q23 -26 7 -41q-28 -36 -67 -63.5t-85 -47t-95.5 -32.5t-98.5 -20t-94 -8.5t-82 0.5q-29 0 -42 3q-31 9 -23 43zM180 351q203 -30 322 33q122 65 147 214q5 39 2 63q-10 38 -48 69q-46 29 -120 43q-80 12 -194 0l-113 -422h4z" />
    <glyph glyph-name="germandbls" unicode="&#xdf;" horiz-adv-x="784" 
d="M488 1092l-51 -192l3 3q72 89 153 134q133 70 224 29q42 -19 64 -55q21 -28 27 -79q3 -102 -96 -183q-67 -54 -195 -103q112 -32 159 -125q32 -66 29 -144q-5 -75 -34 -149q-44 -107 -124 -185t-164 -78q-117 0 -173 61q-45 48 -53 154q0 36 34 36t38 -34q5 -80 34 -108
q33 -38 120 -38q63 0 124.5 65t96.5 154q28 66 31 124q0 70 -22 111q-54 103 -230 101q-47 0 -55 24q-8 20 9 38q7 5 24.5 11.5t26.5 10.5q78 28 154 59t127 70q70 60 67 125q0 22 -12 43q-11 18 -34 29q-68 26 -163 -26q-71 -40 -132 -118q-75 -90 -104 -160t-57 -178
l-281 -1044q-10 -34 -43 -26q-34 10 -24 43l262 971q-125 -235 -221 -336q-25 -24 -51 -2q-23 25 0 50q108 112 243 392q123 257 201 542v3q9 30 44 24q29 -10 26 -39v-5h-2z" />
    <glyph glyph-name="agrave" unicode="&#xe0;" horiz-adv-x="833" 
d="M803 583q-47 -96 -110.5 -243.5t-66.5 -255.5q-8 -30 4 -46q4 -3 15 0q59 21 158 137q24 24 51 3q27 -24 5 -51q-118 -130 -195 -155q-57 -17 -89 22q-28 35 -21 92q3 58 21 123q-15 -18 -30.5 -36t-29.5 -34q-162 -179 -285 -179q-124 5 -118 148q2 64 27 137l-114 -118
q-27 -24 -50 0q-22 25 0 51l319 332q27 28 53 49q83 69 179 79t186 -81q5 12 23 40l6 18q19 30 48 14q33 -14 14 -46zM676 490q-71 78 -145 73t-138 -59q-87 -72 -149 -194q-58 -107 -63 -204q0 -75 51 -75q89 -4 233 156q104 115 211 303zM491 767l-190 112q-27 16 -10 48
q19 30 49 12l189 -112q30 -18 11 -48q-17 -32 -49 -12z" />
    <glyph glyph-name="aacute" unicode="&#xe1;" horiz-adv-x="833" 
d="M803 583q-47 -96 -110.5 -243.5t-66.5 -255.5q-8 -30 4 -46q4 -3 15 0q59 21 158 137q24 24 51 3q27 -24 5 -51q-118 -130 -195 -155q-57 -17 -89 22q-28 35 -21 92q3 58 21 123q-15 -18 -30.5 -36t-29.5 -34q-162 -179 -285 -179q-124 5 -118 148q2 64 27 137l-114 -118
q-27 -24 -50 0q-22 25 0 51l319 332q27 28 53 49q83 69 179 79t186 -81q5 12 23 40l6 18q19 30 48 14q33 -14 14 -46zM676 490q-71 78 -145 73t-138 -59q-87 -72 -149 -194q-58 -107 -63 -204q0 -75 51 -75q89 -4 233 156q104 115 211 303zM437 819l180 126q26 18 48 -10
q19 -30 -9 -50l-181 -125q-28 -20 -48 9q-22 29 10 50z" />
    <glyph glyph-name="acircumflex" unicode="&#xe2;" horiz-adv-x="833" 
d="M803 583q-47 -96 -110.5 -243.5t-66.5 -255.5q-8 -30 4 -46q4 -3 15 0q59 21 158 137q24 24 51 3q27 -24 5 -51q-118 -130 -195 -155q-57 -17 -89 22q-28 35 -21 92q3 58 21 123q-15 -18 -30.5 -36t-29.5 -34q-162 -179 -285 -179q-124 5 -118 148q2 64 27 137l-114 -118
q-27 -24 -50 0q-22 25 0 51l319 332q27 28 53 49q83 69 179 79t186 -81q5 12 23 40l6 18q19 30 48 14q33 -14 14 -46zM676 490q-71 78 -145 73t-138 -59q-87 -72 -149 -194q-58 -107 -63 -204q0 -75 51 -75q89 -4 233 156q104 115 211 303zM407 725q-23 28 -5 52l127 146
q4 8 12 15t22 10q16 3 28 -9q17 -24 89 -163v1q19 -31 -10 -51q-32 -20 -52 9l-60 112q-51 -60 -76 -86.5t-26 -34.5q-23 -23 -49 -1z" />
    <glyph glyph-name="atilde" unicode="&#xe3;" horiz-adv-x="833" 
d="M803 583q-47 -96 -110.5 -243.5t-66.5 -255.5q-8 -30 4 -46q4 -3 15 0q59 21 158 137q24 24 51 3q27 -24 5 -51q-118 -130 -195 -155q-57 -17 -89 22q-28 35 -21 92q3 58 21 123q-15 -18 -30.5 -36t-29.5 -34q-162 -179 -285 -179q-124 5 -118 148q2 64 27 137l-114 -118
q-27 -24 -50 0q-22 25 0 51l319 332q27 28 53 49q83 69 179 79t186 -81q5 12 23 40l6 18q19 30 48 14q33 -14 14 -46zM676 490q-71 78 -145 73t-138 -59q-87 -72 -149 -194q-58 -107 -63 -204q0 -75 51 -75q89 -4 233 156q104 115 211 303zM399 830q22 29 43 50t47 30
q63 18 122 -59q18 -24 30 -27q13 -3 20 -1l-1 -1q11 4 20 10q28 19 41 56v-1q7 32 37 24q34 -10 26 -40q-18 -58 -63 -91q-24 -14 -44 -20v1q-26 -7 -51 1q-19 5 -36 18t-32 32q-31 42 -48 37q-11 -4 -26 -20.5t-33 -36.5q-20 -29 -47 -7q-24 20 -5 45z" />
    <glyph glyph-name="adieresis" unicode="&#xe4;" horiz-adv-x="833" 
d="M803 583q-47 -96 -110.5 -243.5t-66.5 -255.5q-8 -30 4 -46q4 -3 15 0q59 21 158 137q24 24 51 3q27 -24 5 -51q-118 -130 -195 -155q-57 -17 -89 22q-28 35 -21 92q3 58 21 123q-15 -18 -30.5 -36t-29.5 -34q-162 -179 -285 -179q-124 5 -118 148q2 64 27 137l-114 -118
q-27 -24 -50 0q-22 25 0 51l319 332q27 28 53 49q83 69 179 79t186 -81q5 12 23 40l6 18q19 30 48 14q33 -14 14 -46zM676 490q-71 78 -145 73t-138 -59q-87 -72 -149 -194q-58 -107 -63 -204q0 -75 51 -75q89 -4 233 156q104 115 211 303zM674 795l43 161q8 31 43 24
q34 -10 26 -44l-43 -160q-9 -34 -43 -24q-36 7 -26 43zM508 795l43 161q8 31 43 24q34 -10 26 -44l-43 -160q-9 -34 -43 -24q-36 7 -26 43z" />
    <glyph glyph-name="aring" unicode="&#xe5;" horiz-adv-x="833" 
d="M648 1063q19 0 31 -3q46 -15 67 -50q24 -34 24 -87q0 -26 -7 -52q-19 -75 -72 -123q-55 -53 -120 -53q-22 0 -31 3q-45 13 -70 50q-24 41 -24 87q0 25 7 52q17 68 72 123q57 53 123 53zM660 991q-3 2 -12 2q-37 0 -72 -34q-44 -44 -53 -88q-5 -20 -5 -36q0 -28 12 -48
q11 -17 26 -20q3 0 7 -1t8 -1q34 0 72 34q37 37 53 88q5 30 5 36q0 27 -12 48q-13 15 -29 20zM803 583q-47 -96 -110.5 -243.5t-66.5 -255.5q-8 -30 4 -46q4 -3 15 0q59 21 158 137q24 24 51 3q27 -24 5 -51q-118 -130 -195 -155q-57 -17 -89 22q-28 35 -21 92q3 58 21 123
q-15 -18 -30.5 -36t-29.5 -34q-162 -179 -285 -179q-124 5 -118 148q2 64 27 137l-114 -118q-27 -24 -50 0q-22 25 0 51l319 332q27 28 53 49q83 69 179 79t186 -81q5 12 23 40l6 18q19 30 48 14q33 -14 14 -46zM676 490q-71 78 -145 73t-138 -59q-87 -72 -149 -194
q-58 -107 -63 -204q0 -75 51 -75q89 -4 233 156q104 115 211 303z" />
    <glyph glyph-name="ae" unicode="&#xe6;" horiz-adv-x="998" 
d="M28 127q-26 -26 -49 0q-30 24 0 48q13 16 174.5 194.5t212 222t136 40t128.5 -53.5q27 -31 40 -71q58 104 162 118q108 15 165.5 -35.5t46 -137.5t-102.5 -133q-106 -49 -273 -56q-8 -77 -4 -113q4 -39 28.5 -74.5t76.5 -41.5t101 22t112 104q19 25 41 6q33 -26 16 -51
q-60 -92 -137 -128q-64 -34 -140 -28.5t-118 54.5q-28 32 -41 73q-57 -105 -162 -119q-108 -15 -165.5 35.5t-46 137.5t101.5 140q93 45 275 55q8 71 4 106q-5 40 -29.5 75.5t-76.5 41.5t-92 -25t-62 -56zM563 166q19 40 31 89v4q-174 -11 -253 -66q-63 -37 -41 -102.5
t101 -63t113 49.5t49 89zM710 426q-19 -38 -30 -87q180 13 252 60q63 42 41 105t-101 60.5t-113 -49.5t-49 -89z" />
    <glyph glyph-name="ccedilla" unicode="&#xe7;" horiz-adv-x="589" 
d="M345 459l-13 -14q-8 -9 -16 -19q-44 -56 -77 -116q-72 -135 -72 -221q0 -53 70 -53q105 -4 176 26q73 33 154 113q23 25 50 3q23 -26 0 -51q-89 -93 -178 -128q-48 -22 -122 -30q-7 -22 -8 -29q-1 -2 -2 -5.5t-1 -2.5q0 -3 -1 -4q30 11 46 -14l-1 1q16 -22 16 -51
q0 -25 -11 -54q-10 -22 -27.5 -53.5t-43.5 -67.5q-8 -13 -19 -15t-22 5q-23 20 -11 42q25 35 41.5 63t24.5 49q5 10 6 17t0 10q-19 -8 -33 -8q-11 0 -18.5 4t-17.5 14q-8 14 -3.5 29.5t11.5 34.5q5 9 6 20v-1q0 4 2 12h-14q-142 3 -142 124q1 66 30 141l-100 -103
q-27 -24 -50 0q-22 25 0 51l319 332q2 1 3 3q34 35 71 63q87 63 178.5 61.5t172.5 -109.5q16 -32 -10 -50q-25 -21 -48 7q-58 79 -123.5 79t-125.5 -45q-32 -23 -62 -53q-2 -4 -5 -7z" />
    <glyph glyph-name="egrave" unicode="&#xe8;" horiz-adv-x="447" 
d="M32 118q-8 -39 0 -63q7 -19 48 -23q65 -12 186 30q75 34 154 113q23 25 50 3q25 -26 0 -51q-88 -92 -177 -128q-139 -48 -213 -38q-96 7 -115 75q-14 39 0 108q10 57 40 127q54 128 154 244t202 116h19q51 -4 74 -33q27 -31 27 -70q0 -4 -1.5 -7.5t-1.5 -6.5
q-9 -107 -76 -163t-159 -111l-202 -120q-2 0 -5 -1t-4 -1zM363 562q-79 0 -162.5 -103t-130.5 -217q-7 -12 -12 -28l149 89q81 47 137.5 92.5t64.5 125.5v7q0 13 -7 22q-9 8 -29 12h-10zM298 767l-190 112q-27 16 -10 48q19 30 49 12l189 -112q30 -18 11 -48
q-17 -32 -49 -12z" />
    <glyph glyph-name="eacute" unicode="&#xe9;" horiz-adv-x="447" 
d="M32 118q-8 -39 0 -63q7 -19 48 -23q65 -12 186 30q75 34 154 113q23 25 50 3q25 -26 0 -51q-88 -92 -177 -128q-139 -48 -213 -38q-96 7 -115 75q-14 39 0 108q10 57 40 127q54 128 154 244t202 116h19q51 -4 74 -33q27 -31 27 -70q0 -4 -1.5 -7.5t-1.5 -6.5
q-9 -107 -76 -163t-159 -111l-202 -120q-2 0 -5 -1t-4 -1zM363 562q-79 0 -162.5 -103t-130.5 -217q-7 -12 -12 -28l149 89q81 47 137.5 92.5t64.5 125.5v7q0 13 -7 22q-9 8 -29 12h-10zM285 819l180 126q26 18 48 -10q19 -30 -9 -50l-181 -125q-28 -20 -48 9q-22 29 10 50z
" />
    <glyph glyph-name="ecircumflex" unicode="&#xea;" horiz-adv-x="447" 
d="M32 118q-8 -39 0 -63q7 -19 48 -23q65 -12 186 30q75 34 154 113q23 25 50 3q25 -26 0 -51q-88 -92 -177 -128q-139 -48 -213 -38q-96 7 -115 75q-14 39 0 108q10 57 40 127q54 128 154 244t202 116h19q51 -4 74 -33q27 -31 27 -70q0 -4 -1.5 -7.5t-1.5 -6.5
q-9 -107 -76 -163t-159 -111l-202 -120q-2 0 -5 -1t-4 -1zM363 562q-79 0 -162.5 -103t-130.5 -217q-7 -12 -12 -28l149 89q81 47 137.5 92.5t64.5 125.5v7q0 13 -7 22q-9 8 -29 12h-10zM223 725q-23 28 -5 52l127 146q4 8 12 15t22 10q16 3 28 -9q17 -24 89 -163v1
q19 -31 -10 -51q-32 -20 -52 9l-60 112q-51 -60 -76 -86.5t-26 -34.5q-23 -23 -49 -1z" />
    <glyph glyph-name="edieresis" unicode="&#xeb;" horiz-adv-x="447" 
d="M32 118q-8 -39 0 -63q7 -19 48 -23q65 -12 186 30q75 34 154 113q23 25 50 3q25 -26 0 -51q-88 -92 -177 -128q-139 -48 -213 -38q-96 7 -115 75q-14 39 0 108q10 57 40 127q54 128 154 244t202 116h19q51 -4 74 -33q27 -31 27 -70q0 -4 -1.5 -7.5t-1.5 -6.5
q-9 -107 -76 -163t-159 -111l-202 -120q-2 0 -5 -1t-4 -1zM363 562q-79 0 -162.5 -103t-130.5 -217q-7 -12 -12 -28l149 89q81 47 137.5 92.5t64.5 125.5v7q0 13 -7 22q-9 8 -29 12h-10zM400 795l43 161q8 31 43 24q34 -10 26 -44l-43 -160q-9 -34 -43 -24q-36 7 -26 43z
M234 795l43 161q8 31 43 24q34 -10 26 -44l-43 -160q-9 -34 -43 -24q-36 7 -26 43z" />
    <glyph glyph-name="igrave" unicode="&#xec;" 
d="M505 127q-45 -45 -80 -75t-62 -50q-60 -37 -96 -37q-77 0 -77 97q0 43 14 103t32 126l7 31l12 41q-38 -45 -81.5 -89t-86.5 -87l-60 -60q-26 -26 -49 0q-30 24 0 48q13 16 29 31t32 32q83 84 165.5 174.5t108.5 168.5l7 24l1 1q2 1 2 4q7 26 38 21q32 -7 29 -38v-7
q-3 -5 -7 -22l-70 -261l-10 -29v-3q-16 -61 -29.5 -117t-13.5 -92q0 -26 7 -26q18 0 58 26q57 40 127 113q24 24 51 3q23 -25 2 -51zM433 767l-190 112q-27 16 -10 48q19 30 49 12l189 -112q30 -18 11 -48q-17 -32 -49 -12z" />
    <glyph glyph-name="iacute" unicode="&#xed;" 
d="M505 127q-45 -45 -80 -75t-62 -50q-60 -37 -96 -37q-77 0 -77 97q0 43 14 103t32 126l7 31l12 41q-38 -45 -81.5 -89t-86.5 -87l-60 -60q-26 -26 -49 0q-30 24 0 48q13 16 29 31t32 32q83 84 165.5 174.5t108.5 168.5l7 24l1 1q2 1 2 4q7 26 38 21q32 -7 29 -38v-7
q-3 -5 -7 -22l-70 -261l-10 -29v-3q-16 -61 -29.5 -117t-13.5 -92q0 -26 7 -26q18 0 58 26q57 40 127 113q24 24 51 3q23 -25 2 -51zM275 819l180 126q26 18 48 -10q19 -30 -9 -50l-181 -125q-28 -20 -48 9q-22 29 10 50z" />
    <glyph glyph-name="icircumflex" unicode="&#xee;" 
d="M505 127q-45 -45 -80 -75t-62 -50q-60 -37 -96 -37q-77 0 -77 97q0 43 14 103t32 126l7 31l12 41q-38 -45 -81.5 -89t-86.5 -87l-60 -60q-26 -26 -49 0q-30 24 0 48q13 16 29 31t32 32q83 84 165.5 174.5t108.5 168.5l7 24l1 1q2 1 2 4q7 26 38 21q32 -7 29 -38v-7
q-3 -5 -7 -22l-70 -261l-10 -29v-3q-16 -61 -29.5 -117t-13.5 -92q0 -26 7 -26q18 0 58 26q57 40 127 113q24 24 51 3q23 -25 2 -51zM230 725q-23 28 -5 52l127 146q4 8 12 15t22 10q16 3 28 -9q17 -24 89 -163v1q19 -31 -10 -51q-32 -20 -52 9l-60 112q-51 -60 -76 -86.5
t-26 -34.5q-23 -23 -49 -1z" />
    <glyph glyph-name="idieresis" unicode="&#xef;" 
d="M505 127q-45 -45 -80 -75t-62 -50q-60 -37 -96 -37q-77 0 -77 97q0 43 14 103t32 126l7 31l12 41q-38 -45 -81.5 -89t-86.5 -87l-60 -60q-26 -26 -49 0q-30 24 0 48q13 16 29 31t32 32q83 84 165.5 174.5t108.5 168.5l7 24l1 1q2 1 2 4q7 26 38 21q32 -7 29 -38v-7
q-3 -5 -7 -22l-70 -261l-10 -29v-3q-16 -61 -29.5 -117t-13.5 -92q0 -26 7 -26q18 0 58 26q57 40 127 113q24 24 51 3q23 -25 2 -51zM443 795l43 161q8 31 43 24q34 -10 26 -44l-43 -160q-9 -34 -43 -24q-36 7 -26 43zM277 795l43 161q8 31 43 24q34 -10 26 -44l-43 -160
q-9 -34 -43 -24q-36 7 -26 43z" />
    <glyph glyph-name="eth" unicode="&#xf0;" horiz-adv-x="649" 
d="M545 788l137 89q-32 49 -77 85q-25 27 -10 51q26 23 59 1q49 -52 84 -100l94 61q28 19 51 -10q20 -32 -10 -53l-95 -61q36 -71 27 -188q-10 -126 -72.5 -236t-150.5 -218q-15 -18 -30.5 -36t-29.5 -34q-162 -179 -285 -179q-124 5 -118 148q2 65 28 140l-118 -121
q-27 -24 -50 0q-22 25 0 51l307 315q24 26 68 66q187 151 365 -2q44 137 5 239l-6 16l-133 -86q-29 -21 -50 9q-23 31 10 53zM683 490q-71 78 -145 73t-138 -59l-56 -55q-52 -59 -93 -139q-58 -107 -63 -204q0 -75 51 -75q89 -4 233 156q104 115 211 303z" />
    <glyph glyph-name="ntilde" unicode="&#xf1;" horiz-adv-x="1103" 
d="M395 504l-368 -377q-27 -24 -50 0q-22 25 0 51l355 364q68 73 108 87q33 14 64 -5q26 -16 29 -57q11 -70 -33 -238l-36 -132q197 287 319 384q61 50 101 50q61 4 79 -64q14 -62 -5.5 -149.5t-35.5 -150.5q-16 -62 -29.5 -115.5t-13.5 -89.5q0 -26 7 -26q18 0 58 26
q53 38 130 113q22 28 48 3q23 -25 2 -51q-44 -45 -78 -75t-61 -50q-66 -37 -99 -37q-77 0 -77 97q0 42 13.5 100t30.5 121q14 52 33 135t7 132q0 12 -4 12q-20 0 -63 -36q-76 -60 -185 -203t-235 -341q-2 -3 -12 -10q-12 -8 -29 -5q-35 10 -26 43l91 338q40 151 34 209v3
q0 2 -13 -3q-11 -4 -31 -25.5t-25 -27.5zM537 830q22 29 43 50t47 30q63 18 122 -59q18 -24 30 -27q13 -3 20 -1l-1 -1q11 4 20 10q28 19 41 56v-1q7 32 37 24q34 -10 26 -40q-18 -58 -63 -91q-24 -14 -44 -20v1q-26 -7 -51 1q-19 5 -36 18t-32 32q-31 42 -48 37
q-11 -4 -26 -20.5t-33 -36.5q-20 -29 -47 -7q-24 20 -5 45z" />
    <glyph glyph-name="ograve" unicode="&#xf2;" horiz-adv-x="1020" 
d="M1041 502q-91 -77 -278 -82q-5 -18 -5 -24q-11 -43 -34.5 -83.5t-51.5 -79.5q-47 -62 -96.5 -109t-95.5 -81q-119 -83 -195 -83q-77 5 -103 66q-19 44 -14 101q5 63 30 129l-126 -129q-27 -24 -50 0q-22 25 0 51l367 377q90 73 173 84q8 0 21 -5q42 20 77 9h2
q28 -9 59.5 -57t39.5 -94q162 0 234 63q31 22 51 -5q20 -26 -5 -48zM387 447q-72 -89 -111 -185q-34 -81 -36 -144q-5 -36 7 -63q12 -24 38 -24q54 -4 154 70q91 64 178 175q56 79 72 137q0 3 1 5.5t1 6.5h-2q-56 12 -87 31q-47 30 -55 63q-7 19 -7 43q-76 -20 -153 -115z
M686 497q-5 19 -26 60q-8 15 -19 19q-9 3 -24 -5q-8 -19 -5 -28q8 -17 26 -27q25 -13 48 -19zM584 767l-190 112q-27 16 -10 48q19 30 49 12l189 -112q30 -18 11 -48q-17 -32 -49 -12z" />
    <glyph glyph-name="oacute" unicode="&#xf3;" horiz-adv-x="1020" 
d="M1041 502q-91 -77 -278 -82q-5 -18 -5 -24q-11 -43 -34.5 -83.5t-51.5 -79.5q-47 -62 -96.5 -109t-95.5 -81q-119 -83 -195 -83q-77 5 -103 66q-19 44 -14 101q5 63 30 129l-126 -129q-27 -24 -50 0q-22 25 0 51l367 377q90 73 173 84q8 0 21 -5q42 20 77 9h2
q28 -9 59.5 -57t39.5 -94q162 0 234 63q31 22 51 -5q20 -26 -5 -48zM387 447q-72 -89 -111 -185q-34 -81 -36 -144q-5 -36 7 -63q12 -24 38 -24q54 -4 154 70q91 64 178 175q56 79 72 137q0 3 1 5.5t1 6.5h-2q-56 12 -87 31q-47 30 -55 63q-7 19 -7 43q-76 -20 -153 -115z
M686 497q-5 19 -26 60q-8 15 -19 19q-9 3 -24 -5q-8 -19 -5 -28q8 -17 26 -27q25 -13 48 -19zM623 819l180 126q26 18 48 -10q19 -30 -9 -50l-181 -125q-28 -20 -48 9q-22 29 10 50z" />
    <glyph glyph-name="ocircumflex" unicode="&#xf4;" horiz-adv-x="1020" 
d="M1041 502q-91 -77 -278 -82q-5 -18 -5 -24q-11 -43 -34.5 -83.5t-51.5 -79.5q-47 -62 -96.5 -109t-95.5 -81q-119 -83 -195 -83q-77 5 -103 66q-19 44 -14 101q5 63 30 129l-126 -129q-27 -24 -50 0q-22 25 0 51l367 377q90 73 173 84q8 0 21 -5q42 20 77 9h2
q28 -9 59.5 -57t39.5 -94q162 0 234 63q31 22 51 -5q20 -26 -5 -48zM387 447q-72 -89 -111 -185q-34 -81 -36 -144q-5 -36 7 -63q12 -24 38 -24q54 -4 154 70q91 64 178 175q56 79 72 137q0 3 1 5.5t1 6.5h-2q-56 12 -87 31q-47 30 -55 63q-7 19 -7 43q-76 -20 -153 -115z
M686 497q-5 19 -26 60q-8 15 -19 19q-9 3 -24 -5q-8 -19 -5 -28q8 -17 26 -27q25 -13 48 -19zM505 725q-23 28 -5 52l127 146q4 8 12 15t22 10q16 3 28 -9q17 -24 89 -163v1q19 -31 -10 -51q-32 -20 -52 9l-60 112q-51 -60 -76 -86.5t-26 -34.5q-23 -23 -49 -1z" />
    <glyph glyph-name="otilde" unicode="&#xf5;" horiz-adv-x="1020" 
d="M1041 502q-91 -77 -278 -82q-5 -18 -5 -24q-11 -43 -34.5 -83.5t-51.5 -79.5q-47 -62 -96.5 -109t-95.5 -81q-119 -83 -195 -83q-77 5 -103 66q-19 44 -14 101q5 63 30 129l-126 -129q-27 -24 -50 0q-22 25 0 51l367 377q90 73 173 84q8 0 21 -5q42 20 77 9h2
q28 -9 59.5 -57t39.5 -94q162 0 234 63q31 22 51 -5q20 -26 -5 -48zM387 447q-72 -89 -111 -185q-34 -81 -36 -144q-5 -36 7 -63q12 -24 38 -24q54 -4 154 70q91 64 178 175q56 79 72 137q0 3 1 5.5t1 6.5h-2q-56 12 -87 31q-47 30 -55 63q-7 19 -7 43q-76 -20 -153 -115z
M686 497q-5 19 -26 60q-8 15 -19 19q-9 3 -24 -5q-8 -19 -5 -28q8 -17 26 -27q25 -13 48 -19zM467 830q22 29 43 50t47 30q63 18 122 -59q18 -24 30 -27q13 -3 20 -1l-1 -1q11 4 20 10q28 19 41 56v-1q7 32 37 24q34 -10 26 -40q-18 -58 -63 -91q-24 -14 -44 -20v1
q-26 -7 -51 1q-19 5 -36 18t-32 32q-31 42 -48 37q-11 -4 -26 -20.5t-33 -36.5q-20 -29 -47 -7q-24 20 -5 45z" />
    <glyph glyph-name="odieresis" unicode="&#xf6;" horiz-adv-x="1020" 
d="M1041 502q-91 -77 -278 -82q-5 -18 -5 -24q-11 -43 -34.5 -83.5t-51.5 -79.5q-47 -62 -96.5 -109t-95.5 -81q-119 -83 -195 -83q-77 5 -103 66q-19 44 -14 101q5 63 30 129l-126 -129q-27 -24 -50 0q-22 25 0 51l367 377q90 73 173 84q8 0 21 -5q42 20 77 9h2
q28 -9 59.5 -57t39.5 -94q162 0 234 63q31 22 51 -5q20 -26 -5 -48zM387 447q-72 -89 -111 -185q-34 -81 -36 -144q-5 -36 7 -63q12 -24 38 -24q54 -4 154 70q91 64 178 175q56 79 72 137q0 3 1 5.5t1 6.5h-2q-56 12 -87 31q-47 30 -55 63q-7 19 -7 43q-76 -20 -153 -115z
M686 497q-5 19 -26 60q-8 15 -19 19q-9 3 -24 -5q-8 -19 -5 -28q8 -17 26 -27q25 -13 48 -19zM724 795l43 161q8 31 43 24q34 -10 26 -44l-43 -160q-9 -34 -43 -24q-36 7 -26 43zM558 795l43 161q8 31 43 24q34 -10 26 -44l-43 -160q-9 -34 -43 -24q-36 7 -26 43z" />
    <glyph glyph-name="divide" unicode="&#xf7;" horiz-adv-x="214" 
d="M74 255q55 0 48 -73q-9 -72 -65 -72q-57 0 -48 72q9 73 65 73zM160 564q54 0 46 -72q-10 -72 -65 -72q-56 0 -46 72q8 72 65 72z" />
    <glyph glyph-name="oslash" unicode="&#xf8;" horiz-adv-x="966" 
d="M989 502q-91 -77 -226 -82q-5 -18 -5 -24q-11 -43 -34.5 -83.5t-51.5 -79.5q-47 -62 -96.5 -109t-95.5 -81q-119 -83 -195 -83q-27 2 -48 11l-6 -9q-22 -30 -50 -10q-27 16 -10 47l14 20q-2 3 -3 7q-19 44 -14 101q5 63 30 129l-126 -129q-27 -24 -50 0q-22 25 0 51
l367 377q90 73 173 84q8 0 21 -5q11 5 21 8l47 69q21 26 50 10q27 -22 10 -51l-27 -40q18 -15 37 -44q32 -48 40 -94q110 0 182 63q31 22 51 -5q20 -26 -5 -48zM285 31q54 -4 154 70q91 64 178 175q56 79 72 137q0 3 1 5.5t1 6.5h-2q-56 12 -87 31q-14 8 -24 17l-300 -442h7
zM387 447q-72 -89 -111 -185q-34 -81 -36 -144q-2 -10 -2 -19l302 448v15q-76 -20 -153 -115zM686 497q-5 19 -26 60q-7 12 -15 16l-27 -41q8 -9 20 -16q25 -13 48 -19z" />
    <glyph glyph-name="ugrave" unicode="&#xf9;" horiz-adv-x="993" 
d="M1017 127q-44 -45 -79.5 -75t-62.5 -50q-61 -37 -96 -37q-77 0 -77 97q0 60 18 128.5t35 131.5l21 72q-192 -279 -312 -377q-57 -48 -103 -52q-60 -3 -77 69q-18 72 36 276l43 162l-335 -345q-27 -24 -50 0q-22 25 0 51l424 438q12 20 41 15q31 -7 26 -35l-82 -305
q-49 -184 -33 -243q2 -12 5 -12q18 0 60 34q75 63 184 206t233 341q2 0 2 1l1 1q15 17 36 12q35 -8 26 -43v-2q-8 -25 -29 -99.5t-43.5 -159.5t-39.5 -161t-17 -104q0 -26 7 -26q18 0 57 26q54 37 130 113q22 28 48 3q24 -25 3 -51zM658 767l-190 112q-27 16 -10 48
q19 30 49 12l189 -112q30 -18 11 -48q-17 -32 -49 -12z" />
    <glyph glyph-name="uacute" unicode="&#xfa;" horiz-adv-x="993" 
d="M1017 127q-44 -45 -79.5 -75t-62.5 -50q-61 -37 -96 -37q-77 0 -77 97q0 60 18 128.5t35 131.5l21 72q-192 -279 -312 -377q-57 -48 -103 -52q-60 -3 -77 69q-18 72 36 276l43 162l-335 -345q-27 -24 -50 0q-22 25 0 51l424 438q12 20 41 15q31 -7 26 -35l-82 -305
q-49 -184 -33 -243q2 -12 5 -12q18 0 60 34q75 63 184 206t233 341q2 0 2 1l1 1q15 17 36 12q35 -8 26 -43v-2q-8 -25 -29 -99.5t-43.5 -159.5t-39.5 -161t-17 -104q0 -26 7 -26q18 0 57 26q54 37 130 113q22 28 48 3q24 -25 3 -51zM589 819l180 126q26 18 48 -10
q19 -30 -9 -50l-181 -125q-28 -20 -48 9q-22 29 10 50z" />
    <glyph glyph-name="ucircumflex" unicode="&#xfb;" horiz-adv-x="993" 
d="M1017 127q-44 -45 -79.5 -75t-62.5 -50q-61 -37 -96 -37q-77 0 -77 97q0 60 18 128.5t35 131.5l21 72q-192 -279 -312 -377q-57 -48 -103 -52q-60 -3 -77 69q-18 72 36 276l43 162l-335 -345q-27 -24 -50 0q-22 25 0 51l424 438q12 20 41 15q31 -7 26 -35l-82 -305
q-49 -184 -33 -243q2 -12 5 -12q18 0 60 34q75 63 184 206t233 341q2 0 2 1l1 1q15 17 36 12q35 -8 26 -43v-2q-8 -25 -29 -99.5t-43.5 -159.5t-39.5 -161t-17 -104q0 -26 7 -26q18 0 57 26q54 37 130 113q22 28 48 3q24 -25 3 -51zM536 725q-23 28 -5 52l127 146q4 8 12 15
t22 10q16 3 28 -9q17 -24 89 -163v1q19 -31 -10 -51q-32 -20 -52 9l-60 112q-51 -60 -76 -86.5t-26 -34.5q-23 -23 -49 -1z" />
    <glyph glyph-name="udieresis" unicode="&#xfc;" horiz-adv-x="993" 
d="M1017 127q-44 -45 -79.5 -75t-62.5 -50q-61 -37 -96 -37q-77 0 -77 97q0 60 18 128.5t35 131.5l21 72q-192 -279 -312 -377q-57 -48 -103 -52q-60 -3 -77 69q-18 72 36 276l43 162l-335 -345q-27 -24 -50 0q-22 25 0 51l424 438q12 20 41 15q31 -7 26 -35l-82 -305
q-49 -184 -33 -243q2 -12 5 -12q18 0 60 34q75 63 184 206t233 341q2 0 2 1l1 1q15 17 36 12q35 -8 26 -43v-2q-8 -25 -29 -99.5t-43.5 -159.5t-39.5 -161t-17 -104q0 -26 7 -26q18 0 57 26q54 37 130 113q22 28 48 3q24 -25 3 -51zM710 795l43 161q8 31 43 24
q34 -10 26 -44l-43 -160q-9 -34 -43 -24q-36 7 -26 43zM544 795l43 161q8 31 43 24q34 -10 26 -44l-43 -160q-9 -34 -43 -24q-36 7 -26 43z" />
    <glyph glyph-name="yacute" unicode="&#xfd;" horiz-adv-x="809" 
d="M768 617q15 24 45 12q26 -18 17 -43l-134 -500l88 89q22 28 48 3q24 -25 3 -51l-175 -179l-34 -122q-38 -142 -106 -230.5t-127 -122.5t-98 -19q-58 16 -47 86q6 40 45 107.5t129 159.5l173 177l26 95l72 276q-146 -237 -245 -336q-53 -47 -91 -52q-61 -6 -74 62
q-15 71 36 281l42 164l-337 -347q-27 -24 -50 0q-22 25 0 51l426 440q11 19 39 13q35 -8 26 -43l-77 -295q-48 -187 -36 -250q3 -6 0 -7q14 2 46 34q143 139 365 542q2 3 5 5zM556 -155l-84 -86q-81 -83 -117 -140.5t-39 -88.5q0 -5 -1 -7l-1 -2q13 -4 43 14
q50 27 107.5 104.5t91.5 205.5zM576 819l180 126q26 18 48 -10q19 -30 -9 -50l-181 -125q-28 -20 -48 9q-22 29 10 50z" />
    <glyph glyph-name="thorn" unicode="&#xfe;" horiz-adv-x="983" 
d="M352 511q-118 -195 -327 -386q-26 -23 -50 2q-22 26 2 51q209 187 332 398q114 203 204 533v3q2 2 2 4q12 26 41 20q34 -10 26 -44l-222 -833q126 210 245 308q70 58 125 69q72 15 106 -50q42 -79 -17 -283l-3 -10q-18 -67 -34 -128t-16 -100q0 -29 10 -29q18 0 55 26
q48 32 129 113q24 24 51 3q23 -26 0 -51q-44 -45 -78 -75t-61 -50q-61 -37 -96 -37q-80 0 -80 100q0 46 16.5 111t36.5 134l2 12q51 173 22 233q-7 15 -31 12q-34 -8 -91 -53q-107 -90 -231.5 -290.5t-193.5 -460.5v-2l-77 -286q-10 -34 -43 -26q-37 10 -27 43z" />
    <glyph glyph-name="ydieresis" unicode="&#xff;" horiz-adv-x="809" 
d="M768 617q15 24 45 12q26 -18 17 -43l-134 -500l88 89q22 28 48 3q24 -25 3 -51l-175 -179l-34 -122q-38 -142 -106 -230.5t-127 -122.5t-98 -19q-58 16 -47 86q6 40 45 107.5t129 159.5l173 177l26 95l72 276q-146 -237 -245 -336q-53 -47 -91 -52q-61 -6 -74 62
q-15 71 36 281l42 164l-337 -347q-27 -24 -50 0q-22 25 0 51l426 440q11 19 39 13q35 -8 26 -43l-77 -295q-48 -187 -36 -250q3 -6 0 -7q14 2 46 34q143 139 365 542q2 3 5 5zM556 -155l-84 -86q-81 -83 -117 -140.5t-39 -88.5q0 -5 -1 -7l-1 -2q13 -4 43 14
q50 27 107.5 104.5t91.5 205.5zM645 795l43 161q8 31 43 24q34 -10 26 -44l-43 -160q-9 -34 -43 -24q-36 7 -26 43zM479 795l43 161q8 31 43 24q34 -10 26 -44l-43 -160q-9 -34 -43 -24q-36 7 -26 43z" />
    <glyph glyph-name="OE" unicode="&#x152;" horiz-adv-x="1104" 
d="M1114 535q-9 2 -19.5 2.5t-19.5 2.5q-79 7 -147 2q-1 -2 -1 -4q-102 -262 -272 -418q-24 -21 -48 -39q53 -46 147 -50q82 -4 180 41q94 39 148 103q24 24 51 3q27 -24 5 -51q-69 -76 -176 -120q-120 -50 -213 -47q-99 6 -165 53q-19 14 -35 30q-131 -78 -273 -78
q-73 0 -130 22q-85 30 -124 104q-38 70 -38 168q0 129 64 303q45 123 111 232.5t153 187.5q165 154 370 154q68 0 130 -22q32 -12 58 -31q18 13 37 24q86 48 185 31q59 -10 101 -34q66 -36 96 -88q18 -32 -12 -48q-31 -18 -48 12q-25 40 -67 62q-40 18 -82 26
q-74 14 -137 -24q-10 -5 -19 -11q11 -14 20 -29q40 -69 40 -178q0 -87 -25 -186q52 -22 123 -30q9 0 19.5 -1.5t19.5 -1.5q34 -4 31 -40q-4 -32 -36 -32h-2zM788 1049q-50 17 -106 17q-177 0 -322 -134q-158 -149 -247 -394q-58 -154 -58 -279q0 -87 29 -134q27 -50 89 -75
q40 -14 103 -14q119 0 230 64q-8 15 -14 32q-26 68 -16 147q17 86 64 146q46 64 129.5 113t204.5 67q-66 43 -99 98q-39 72 -31 149q2 57 29 113q19 38 45 69q-14 8 -30 15zM607 173q150 133 240 358q-42 -9 -78 -24q-119 -48 -174 -123q-39 -54 -50 -115q-9 -65 12 -113
q3 -9 7 -17q22 15 43 34zM915 826q0 82 -31 144q-6 9 -13 17q-20 -24 -33 -53q-21 -41 -24 -86q-5 -60 24 -109q20 -36 57 -63q20 81 20 150z" />
    <glyph glyph-name="oe" unicode="&#x153;" horiz-adv-x="930" 
d="M136 245l-114 -118q-27 -24 -50 0q-22 25 0 51l319 332l14 14t40 35q83 69 179 79t203 -97q20 29 69.5 54.5t108.5 21.5h19q51 -4 74 -33q27 -31 27 -70q0 -4 -1.5 -7.5t-1.5 -6.5q9 -130 -142 -214.5t-303 -162.5q-12 -47 -1 -82q7 -19 24 -19q79 -4 146 26
q75 34 154 113q23 25 50 3q25 -26 0 -51q-88 -92 -177 -128q-74 -34 -173 -34q-72 3 -91 71q-6 30 -6 62q-153 -124 -275 -124q-124 5 -118 148q2 64 27 136zM677 487q-74 81 -148 76t-138 -59q-87 -72 -149 -194q-58 -107 -63 -204q0 -75 51 -75q89 -4 286 148
q38 126 161 308zM907 548q-75 3 -154 -82q-80 -108 -149 -248q118 62 235.5 127t113.5 162v7q0 13 -7 22q-9 8 -29 12h-10z" />
    <glyph glyph-name="Scaron" unicode="&#x160;" horiz-adv-x="697" 
d="M699 989q-105 104 -226 63q-45 -16 -74 -48q-36 -36 -48 -80q-22 -65 1 -147.5t112 -173.5q93 -96 132.5 -196t30.5 -184q-6 -65 -33 -115q22 14 40.5 31t34.5 37q20 24 53 0q20 -26 4 -41q-42 -54 -95 -88t-111.5 -52.5t-119 -23.5t-117.5 -1q-14 1 -30 4
q-104 16 -224 88q-29 18 -11 48q17 29 47 12q110 -67 203 -83h1q21 -4 45 -4.5t50 1.5q27 4 52 12q60 18 98 67q35 45 43 113q16 163 -144 327q-103 105 -130 207.5t1 183.5q16 54 62 106q39 41 103 67q70 23 150 6.5t150 -85.5q21 -27 -2 -51q-24 -24 -48 0zM727 1488
q23 -29 5 -55l-133 -153q-5 -9 -13.5 -16t-22.5 -10q-17 -3 -30 9q-8 13 -31.5 55t-61.5 116v-1q-21 32 10 54q34 19 55 -10l63 -117q53 63 79.5 90.5t27.5 36.5q25 24 52 1z" />
    <glyph glyph-name="scaron" unicode="&#x161;" horiz-adv-x="587" 
d="M292 399l-264 -272q-27 -24 -50 0q-22 25 0 51q388 408 425 444q23 26 50 0q21 -28 0 -51q-93 -70 -96.5 -141t71 -143t77 -143t-39.5 -120.5t-135.5 -53.5t-186.5 41q-30 21 -8 48q18 29 52 19q40 -28 112.5 -34t103 19.5t28 75t-72 112t-66.5 148.5zM569 981
q23 -29 5 -55l-133 -153q-5 -9 -13.5 -16t-22.5 -10q-17 -3 -30 9q-8 13 -31.5 55t-61.5 116v-1q-21 32 10 54q34 19 55 -10l63 -117q53 63 79.5 90.5t27.5 36.5q25 24 52 1z" />
    <glyph glyph-name="Ydieresis" unicode="&#x178;" horiz-adv-x="851" 
d="M191 -35q-191 0 -122 318q24 123 85.5 302t154.5 411q-4 -2 -19 -12q-31 -20 -62 -39t-63 -35q-37 -19 -48 14q-19 31 12 48q63 35 122 72q54 33 113 84l1 1l1 2q17 8 34 2q31 -12 19 -45q-108 -274 -181 -479t-100 -340q-50 -233 53 -233q129 0 322 279
q99 140 209.5 342.5t239.5 456.5q11 28 41 22q34 -10 26 -44l-257 -967l48 50q24 24 51 3q23 -25 2 -51l-139 -140l-8 -27q-54 -207 -122.5 -323t-124.5 -159q-62 -43 -108 -24q-52 20 -48 91q3 51 43.5 130t134.5 172l170 175l204 770q-83 -157 -159 -287.5t-146 -230.5
q-213 -306 -379 -309zM630 -121l-79 -80q-83 -84 -118.5 -150.5t-37.5 -106.5q-4 -24 3 -24q10 -3 38 17q41 31 93.5 114.5t100.5 229.5zM731 1302l43 161q8 31 43 24q34 -10 26 -44l-43 -160q-9 -34 -43 -24q-36 7 -26 43zM565 1302l43 161q8 31 43 24q34 -10 26 -44
l-43 -160q-9 -34 -43 -24q-36 7 -26 43z" />
    <glyph glyph-name="Zcaron" unicode="&#x17d;" horiz-adv-x="1055" 
d="M285 1136h754q36 0 36 -34q0 -20 -12 -26l-896 -1002q86 16 175 6t178 -22q55 -12 111 -19.5t107 -7.5q83 0 140 29q69 33 149 115q23 25 50 3q23 -26 0 -51q-88 -92 -168 -131q-76 -33 -171 -33q-56 0 -113.5 8t-116.5 18q-114 17 -226 23.5t-211 -42.5q-23 -13 -41 5
q-30 21 -5 49l934 1042h-674q-36 0 -36 36q0 34 36 34zM823 1488q23 -29 5 -55l-133 -153q-5 -9 -13.5 -16t-22.5 -10q-17 -3 -30 9q-8 13 -31.5 55t-61.5 116v-1q-21 32 10 54q34 19 55 -10l63 -117q53 63 79.5 90.5t27.5 36.5q25 24 52 1z" />
    <glyph glyph-name="zcaron" unicode="&#x17e;" horiz-adv-x="807" 
d="M392 506l-366 -379q-27 -24 -50 0q-22 25 0 51l365 379q3 3 41.5 39.5t110.5 34.5q78 -1 147 -16q41 -9 75.5 -13t58.5 20q25 23 51 0q23 -24 2 -48h-2l-488 -500q30 2 58 -4t58 -12q63 -17 136 -11.5t193 128.5q23 25 50 3q23 -26 0 -51q-141 -143 -230.5 -150
t-168.5 12q-45 12 -93 15t-108 -32q-20 -16 -42 5q-29 23 0 47l498 509q-21 1 -65 12q-54 14 -115 16q-55 -6 -84 -28.5t-32 -26.5zM808 981q23 -29 5 -55l-133 -153q-5 -9 -13.5 -16t-22.5 -10q-17 -3 -30 9q-8 13 -31.5 55t-61.5 116v-1q-21 32 10 54q34 19 55 -10
l63 -117q53 63 79.5 90.5t27.5 36.5q25 24 52 1z" />
    <glyph glyph-name="florin" unicode="&#x192;" horiz-adv-x="382" 
d="M280 389l-257 -262q-25 -25 -50 -2q-25 25 0 50l346 356l62 228q39 153 99.5 240t114.5 117q57 34 112 10q51 -28 51 -101q0 -58 -43.5 -146.5t-151.5 -196.5l-182 -187l-111 -409l87 89q23 25 50 3q23 -26 0 -51l-175 -179l-31 -122q-40 -142 -108 -230.5t-128 -122.5
q-57 -34 -98 -19q-56 15 -48 86q5 40 46 107.5t132 159.5l172 177zM448 739l-29 -105l94 96q95 99 134.5 173.5t38.5 121.5q0 30 -12 39q-19 7 -46 -10q-43 -26 -92.5 -101.5t-87.5 -213.5zM131 -155l-84 -86q-81 -83 -117 -140.5t-42 -88.5v-9q10 -4 44 14q48 27 106 104.5
t93 205.5z" />
    <glyph glyph-name="circumflex" unicode="&#x2c6;" horiz-adv-x="294" 
d="M128 725q-23 28 -5 52l127 146q4 8 12 15t22 10q16 3 28 -9q17 -24 89 -163v1q19 -31 -10 -51q-32 -20 -52 9l-60 112q-51 -60 -76 -86.5t-26 -34.5q-23 -23 -49 -1z" />
    <glyph glyph-name="caron" unicode="&#x2c7;" horiz-adv-x="309" 
d="M418 981q23 -29 5 -55l-133 -153q-5 -9 -13.5 -16t-22.5 -10q-17 -3 -30 9q-8 13 -31.5 55t-61.5 116v-1q-21 32 10 54q34 19 55 -10l63 -117q53 63 79.5 90.5t27.5 36.5q25 24 52 1z" />
    <glyph glyph-name="ring" unicode="&#x2da;" horiz-adv-x="324" 
d="M202 1136q19 0 31 -3q46 -15 67 -50q24 -34 24 -87q0 -26 -7 -52q-19 -75 -72 -123q-55 -53 -120 -53q-22 0 -31 3q-45 13 -70 50q-24 41 -24 87q0 25 7 52q17 68 72 123q57 53 123 53zM214 1064q-3 2 -12 2q-37 0 -72 -34q-44 -44 -53 -88q-5 -20 -5 -36q0 -28 12 -48
q11 -17 26 -20q3 0 7 -1t8 -1q34 0 72 34q37 37 53 88q5 30 5 36q0 27 -12 48q-13 15 -29 20z" />
    <glyph glyph-name="tilde" unicode="&#x2dc;" horiz-adv-x="446" 
d="M199 830q22 29 43 50t47 30q63 18 122 -59q18 -24 30 -27q13 -3 20 -1l-1 -1q11 4 20 10q28 19 41 56v-1q7 32 37 24q34 -10 26 -40q-18 -58 -63 -91q-24 -14 -44 -20v1q-26 -7 -51 1q-19 5 -36 18t-32 32q-31 42 -48 37q-11 -4 -26 -20.5t-33 -36.5q-20 -29 -47 -7
q-24 20 -5 45z" />
    <glyph glyph-name="endash" unicode="&#x2013;" horiz-adv-x="697" 
d="M161 377h465q36 0 36 -36t-36 -36h-465q-36 0 -36 36t36 36z" />
    <glyph glyph-name="emdash" unicode="&#x2014;" horiz-adv-x="1030" 
d="M161 377h810q36 0 36 -36t-30 -36h-816q-36 0 -36 36t36 36z" />
    <glyph glyph-name="quoteleft" unicode="&#x2018;" horiz-adv-x="283" 
d="M167 842q-12 1 -30 12q-28 25 -26 72q2 25 20 76q28 68 82 119q26 22 51 -5q19 -29 -6 -50q-38 -30 -63 -92q-11 -30 -14 -53q0 -10 -1 -10q33 -8 28 -41q-7 -34 -41 -28zM181 908l-1 1z" />
    <glyph glyph-name="quoteright" unicode="&#x2019;" horiz-adv-x="289" 
d="M231 1137q12 -1 30 -12q28 -25 26 -72q-2 -25 -20 -76q-28 -68 -82 -119q-26 -22 -51 5q-19 29 6 50q38 30 63 92q11 30 14 53q0 10 1 10q-33 8 -28 41q7 34 41 28zM217 1071v-1l1 -2z" />
    <glyph glyph-name="quotesinglbase" unicode="&#x201a;" horiz-adv-x="258" 
d="M116 129q12 -1 30 -12q28 -25 26 -72q-2 -25 -20 -76q-28 -68 -82 -119q-26 -22 -51 5q-19 29 6 50q38 30 63 92q11 30 14 53q0 10 1 10q-33 8 -28 41q7 34 41 28zM102 63v-1l1 -2z" />
    <glyph glyph-name="quotedblleft" unicode="&#x201c;" horiz-adv-x="440" 
d="M161 842q-12 1 -30 12q-28 25 -26 72q2 25 20 76q28 68 82 119q26 22 51 -5q19 -29 -6 -50q-38 -30 -63 -92q-11 -30 -14 -53q0 -10 -1 -10q33 -8 28 -41q-7 -34 -41 -28zM324 842q-12 1 -30 12q-28 25 -26 72q2 25 20 76q28 68 82 119q26 22 51 -5q19 -29 -6 -50
q-38 -30 -63 -92q-11 -30 -14 -53q0 -10 -1 -10q33 -8 28 -41q-7 -34 -41 -28zM338 908l-1 1zM175 908l-1 1z" />
    <glyph glyph-name="quotedblright" unicode="&#x201d;" horiz-adv-x="428" 
d="M370 1137q12 -1 30 -12q28 -25 26 -72q-2 -25 -20 -76q-28 -68 -82 -119q-26 -22 -51 5q-19 29 6 50q38 30 63 92q11 30 14 53q0 10 1 10q-33 8 -28 41q7 34 41 28zM207 1137q12 -1 30 -12q28 -25 26 -72q-2 -25 -20 -76q-28 -68 -82 -119q-26 -22 -51 5q-19 29 6 50
q38 30 63 92q11 30 14 53q0 10 1 10q-33 8 -28 41q7 34 41 28zM193 1071v-1l1 -2zM356 1071v-1l1 -2z" />
    <glyph glyph-name="quotedblbase" unicode="&#x201e;" horiz-adv-x="415" 
d="M279 129q12 -1 30 -12q28 -25 26 -72q-2 -25 -20 -76q-28 -68 -82 -119q-26 -22 -51 5q-19 29 6 50q38 30 63 92q11 30 14 53q0 10 1 10q-33 8 -28 41q7 34 41 28zM116 129q12 -1 30 -12q28 -25 26 -72q-2 -25 -20 -76q-28 -68 -82 -119q-26 -22 -51 5q-19 29 6 50
q38 30 63 92q11 30 14 53q0 10 1 10q-33 8 -28 41q7 34 41 28zM102 63v-1l1 -2zM265 63v-1l1 -2z" />
    <glyph glyph-name="dagger" unicode="&#x2020;" horiz-adv-x="662" 
d="M193 25l221 817h-161q-36 0 -36 36t36 36h180l50 183q7 33 43 24q33 -9 24 -43l-45 -164h178q36 0 36 -36t-36 -36h-197l-226 -834q-8 -35 -43 -27q-36 15 -24 44z" />
    <glyph glyph-name="daggerdbl" unicode="&#x2021;" horiz-adv-x="662" 
d="M193 25l52 192h-154q-36 0 -36 36t36 36h173l150 553h-161q-36 0 -36 36t36 36h180l50 183q7 33 43 24q33 -9 24 -43l-45 -164h178q36 0 36 -36t-36 -36h-197l-150 -553h185q36 0 36 -36t-36 -36h-205l-56 -209q-8 -35 -43 -27q-36 15 -24 44z" />
    <glyph glyph-name="bullet" unicode="&#x2022;" horiz-adv-x="183" 
d="M142 743q16 -5 29 -20q12 -21 12 -48q0 -6 -5 -36q-16 -51 -53 -88q-38 -34 -72 -34q-4 0 -8 1t-7 1q-15 3 -26 20q-12 20 -12 48q0 16 5 36q9 44 53 88q35 34 72 34q9 0 12 -2z" />
    <glyph glyph-name="ellipsis" unicode="&#x2026;" horiz-adv-x="1014" 
d="M280 106q58 0 46 -70q-9 -71 -65 -71q-55 0 -46 71q9 70 65 70zM618 106q58 0 46 -70q-9 -71 -65 -71q-55 0 -46 71q9 70 65 70zM956 106q58 0 46 -70q-9 -71 -65 -71q-55 0 -46 71q9 70 65 70z" />
    <glyph glyph-name="perthousand" unicode="&#x2030;" horiz-adv-x="1112" 
d="M17 19l728 1102q21 26 50 10q27 -22 10 -51l-728 -1098q-22 -30 -50 -10q-27 16 -10 47zM345 1136q19 0 31 -3q46 -15 67 -50q24 -34 24 -87q0 -26 -7 -52q-19 -75 -72 -123q-55 -53 -120 -53q-22 0 -31 3q-45 13 -70 50q-24 41 -24 87q0 25 7 52q17 68 72 123
q57 53 123 53zM357 1064q-3 2 -12 2q-37 0 -72 -34q-44 -44 -53 -88q-5 -20 -5 -36q0 -28 12 -48q11 -17 26 -20q3 0 7 -1t8 -1q34 0 72 34q37 37 53 88q5 30 5 36q0 27 -12 48q-13 15 -29 20zM959 384q19 0 31 -3q46 -15 67 -50q24 -34 24 -87q0 -26 -7 -52
q-19 -75 -72 -123q-55 -53 -120 -53q-22 0 -31 3q-45 13 -70 50q-24 41 -24 87q0 25 7 52q17 68 72 123q57 53 123 53zM971 312q-3 2 -12 2q-37 0 -72 -34q-44 -44 -53 -88q-5 -20 -5 -36q0 -28 12 -48q11 -17 26 -20q3 0 7 -1t8 -1q34 0 72 34q37 37 53 88q5 30 5 36
q0 27 -12 48q-13 15 -29 20zM599 384q19 0 31 -3q46 -15 67 -50q24 -34 24 -87q0 -26 -7 -52q-19 -75 -72 -123q-55 -53 -120 -53q-22 0 -31 3q-45 13 -70 50q-24 41 -24 87q0 25 7 52q17 68 72 123q57 53 123 53zM611 312q-3 2 -12 2q-37 0 -72 -34q-44 -44 -53 -88
q-5 -20 -5 -36q0 -28 12 -48q11 -17 26 -20q3 0 7 -1t8 -1q34 0 72 34q37 37 53 88q5 30 5 36q0 27 -12 48q-13 15 -29 20z" />
    <glyph glyph-name="guilsinglleft" unicode="&#x2039;" horiz-adv-x="606" 
d="M576 567l-468 -274l312 -267q25 -21 5 -49q-25 -24 -50 -2l-348 294q-3 5 -10 12q-17 28 14 48l509 298q31 16 48 -12q18 -32 -12 -48z" />
    <glyph glyph-name="guilsinglright" unicode="&#x203a;" horiz-adv-x="606" 
d="M30 29l468 274l-312 267q-25 21 -5 49q25 24 50 2l348 -294q3 -5 10 -12q17 -28 -14 -48l-509 -298q-31 -16 -48 12q-18 32 12 48z" />
    <glyph glyph-name="Euro" unicode="&#x20ac;" horiz-adv-x="968" 
d="M36 506h55q9 68 33 138h-54q-36 0 -36 36t36 36h84l2 4q61 137 175 248q112 107 236 146q139 47 261 -12q63 -30 118 -84q22 -26 -2 -50q-23 -23 -51 0q-40 45 -94 69q-97 49 -211 10q-108 -32 -209 -132q-87 -84 -148 -199h374q36 0 36 -36t-36 -36h-407
q-26 -70 -38 -138h306q36 0 36 -36t-36 -36h-313v-2q-4 -126 34 -223q27 -76 87 -127q52 -46 120 -46q120 -4 257 139q23 25 50 3q23 -25 2 -51q-155 -162 -309 -162q-91 0 -166 61q-68 56 -108 159q-40 108 -35 249h-49q-36 0 -36 36t36 36z" />
    <glyph glyph-name="NULL" horiz-adv-x="0" 
 />
    <glyph glyph-name="ae.001" horiz-adv-x="878" 
d="M590 259q-33 -80 -45 -130.5t-4 -89.5q6 -18 22 -18q76 -4 139 25q72 32 147 107q22 24 48 3q24 -25 0 -48q-84 -88 -169 -122q-70 -33 -165 -33q-68 3 -86 68q-14 37 0 103q0 2 1 5q-153 -167 -269 -167q-118 5 -112 141q1 49 16 103q-25 -26 -48 -50q-29 -29 -41 -43
q-25 -27 -50 0q-27 25 0 50q9 9 19 19.5t22 21.5q87 90 178 192q29 31 51 61l-1 -3q36 44 78 78q79 66 170 75.5t177 -77.5q5 12 18 35l10 21q18 28 45 13q29 -12 17 -39q47 28 96 28h18q49 -4 70 -32q26 -29 26 -66q0 -4 -1.5 -7.5t-1.5 -6.5q-8 -102 -98 -171
q-85 -67 -269 -29q-5 -8 -8 -17zM634 467q-68 74 -138.5 69t-131.5 -56q-83 -69 -142 -185q-55 -102 -60 -194q0 -71 49 -71q85 -4 222 148q99 110 201 289zM856 522q-56 -4 -145 -93q-45 -46 -76 -90q152 -26 203 19q54 49 62 125v7q0 12 -7 20q-9 8 -28 12h-9z" />
    </font>
</defs>
</svg>
