<?xml version="1.0" standalone="no"?>
<!DOCTYPE svg PUBLIC "-//W3C//DTD SVG 1.1//EN" "http://www.w3.org/Graphics/SVG/1.1/DTD/svg11.dtd" >
<svg xmlns="http://www.w3.org/2000/svg" xmlns:xlink="http://www.w3.org/1999/xlink" version="1.1">
<metadata>
Created by FontForge 20170731 at Thu Sep 29 06:21:40 2016
 By ,,,
Digital Play Italic St (c) (Southype). 2016. All Rights Reserved www.southype.com free for personal use
</metadata>
<defs>
<font id="DigitalPlayItalicSt" horiz-adv-x="1640" >
  <font-face 
    font-family="Digital Play Italic St"
    font-weight="400"
    font-style="italic"
    font-stretch="normal"
    units-per-em="2048"
    panose-1="2 0 5 0 0 0 0 0 0 0"
    ascent="1638"
    descent="-410"
    x-height="2012"
    cap-height="2016"
    bbox="-209 -853 3430 2865"
    underline-thickness="150"
    underline-position="-442"
    unicode-range="U+0020-F002"
  />
<missing-glyph horiz-adv-x="1178" 
 />
    <glyph glyph-name=".notdef" horiz-adv-x="1178" 
 />
    <glyph glyph-name=".null" horiz-adv-x="0" 
 />
    <glyph glyph-name="nonmarkingreturn" horiz-adv-x="584" 
 />
    <glyph glyph-name="space" unicode=" " horiz-adv-x="584" 
 />
    <glyph glyph-name="space" unicode="&#xa0;" horiz-adv-x="584" 
 />
    <glyph glyph-name="exclam" unicode="!" horiz-adv-x="490" 
d="M634 2076h69q7 -1 105 -143l-108 -404q-2 -6 -187 -148h-65l-54 69q21 99 34 148l70 262q13 48 45 147zM398 1211h73q7 -1 105 -142l-108 -405q-2 -6 -181 -143h-69l-55 69q45 187 69 276q21 78 80 281zM156 291h143q6 0 50 -69l-20 -78q-2 -6 -182 -143h-69q-5 0 -53 74
l38 143q2 5 93 73z" />
    <glyph glyph-name="quotedbl" unicode="&#x22;" horiz-adv-x="1051" 
d="M609 2000h143q5 0 53 -73l-18 -69q-2 -6 -187 -148h-69q-6 0 -53 74l38 143q2 5 93 73zM1170 2000h143q6 0 54 -73l-38 -143q-2 -6 -94 -74h-69q-6 0 -107 148l18 69q2 5 93 73zM508 1623h138q6 0 57 -78l-51 -189q-1 -6 -99 -78h-64q-6 0 -107 147l33 124q2 6 93 74z
M1074 1623h138q6 0 54 -74l-33 -124q-2 -6 -188 -147h-64q-6 0 -57 78l51 189q1 5 99 78z" />
    <glyph glyph-name="numbersign" unicode="#" horiz-adv-x="3102" 
d="M1947 2016h69q6 0 55 -73l-39 -143q-1 -6 -94 -74h-64q-5 0 -6 -4l-8 4h-64q-6 0 -54 74l19 69q3 7 186 147zM2955 2016h69q5 0 54 -73l-39 -143q-1 -6 -93 -74h-65q-4 0 -5 -4l-8 4h-65q-6 0 -53 74l19 69q3 7 186 147zM1924 1671q42 -38 42 -62q0 -4 -1 -7l-13 -83
q-380 -354 -458 -423q-16 0 -99 -9q-40 37 -49 41q32 181 32 201v2q217 211 343 317q162 14 203 23zM2932 1671q41 -39 41 -65q0 -4 -1 -8q-13 -60 -13 -75q0 -3 1 -4q-5 0 -392 -363q-61 -60 -75 -60q-85 -9 -100 -9q-36 37 -36 52v4q0 16 30 197l336 308q45 0 209 23z
M1220 1584h73q17 -13 100 -143l-1 -4q-2 -6 -180 -143h-69q-6 0 -109 147zM2153 1584h74q14 -12 104 -147q-2 -6 -181 -143h-74q-14 12 -103 147zM3110 1584h74q14 -12 103 -147l-180 -143h-74q-6 0 -104 143l1 4q3 7 180 143zM1205 1151h73q15 -11 104 -147l-181 -142h-73
q-15 11 -104 147q3 7 181 142zM2212 1151h74q14 -11 103 -147l-185 -142h-69q-14 11 -103 147q3 7 180 142zM1011 926q39 -35 39 -61q0 -4 -1 -8l-32 -184q-329 -304 -334 -304q-167 -23 -213 -23q-39 39 -39 60q0 3 1 5q15 73 18 87l454 419q91 9 107 9zM2019 926
q35 -37 35 -52v-3l-28 -193q-245 -229 -336 -309q-169 -23 -213 -23q-36 28 -36 61q0 9 2 18l9 69q380 354 459 423q84 9 108 9zM351 779h74q14 -12 103 -147q-1 -6 -181 -143h-74q-14 12 -103 147zM1258 779h73q16 -13 99 -143l-1 -4q-1 -6 -180 -143h-69q-6 0 -109 147z
M2247 779h73q16 -13 99 -143l-1 -4q-1 -6 -180 -143h-69q-6 0 -109 147zM534 296l8 -5h65q5 0 53 -73l-18 -69q-2 -6 -187 -148h-69q-6 0 -53 74l39 147q2 6 88 69h69q4 0 5 5zM1542 296q7 -5 17 -5h55q6 0 50 -69l-14 -55l-1 -23l-186 -143h-69q-56 67 -56 81v2
q5 22 43 143l86 64h55q10 0 20 5z" />
    <glyph glyph-name="dollar" unicode="$" 
d="M763 2021h1003q5 0 53 -74l-20 -73q-1 -6 -180 -143q-213 0 -435 -5q-222 5 -435 5l-100 143l20 73q1 6 94 74zM558 1791h65q7 -1 108 -147l-108 -401q-1 -5 -186 -147h-65q-5 0 -57 78l144 539q1 5 99 78zM1103 1680h138q6 0 55 -73l-88 -327q-82 -73 -107 -73h-125
q-5 0 -57 78l85 317q2 6 99 78zM600 1156h860q6 -1 107 -147l-185 -143h-860q-6 0 -105 143l1 4q3 7 182 143zM1545 926h69q6 0 54 -74l-145 -542q-2 -6 -94 -74h-69q-5 0 -107 147l106 396q3 7 186 147zM868 816h142q6 0 54 -74l-86 -322q-2 -6 -94 -74h-142q-6 0 -54 74
l86 322q1 6 94 74zM374 296h855q7 -1 108 -147l-19 -69q-1 -6 -92 -74q-138 0 -508 -5q-359 5 -504 5l-47 69l20 74q3 7 187 147z" />
    <glyph glyph-name="percent" unicode="%" horiz-adv-x="1498" 
d="M619 2016h142q6 0 55 -73l-20 -74q-2 -6 -182 -143h-73q-6 0 -54 74l39 143q1 5 93 73zM959 2016h143q5 0 54 -73l-39 -143q-1 -6 -93 -74h-69q-6 0 -108 148l19 69q1 5 93 73zM1649 2016h55q6 0 55 -73l-40 -148q-1 -5 -94 -73h-138q-6 0 -57 78l19 69q174 147 200 147z
M527 1671h73q6 -1 105 -142l-20 -74q-2 -6 -94 -74h-138q-6 0 -57 79l37 138q2 5 94 73zM936 1671h74q5 0 53 -73l-38 -143q-2 -6 -93 -74h-143q-6 0 -54 74l20 74q4 7 181 142zM1611 1667q40 -37 48 -42q-3 -11 -20 -110q-4 0 -447 -414q-26 -9 -109 -14q-7 0 -47 46
l36 207l331 304q138 18 208 23zM893 1151h73q14 -11 104 -147q-2 -6 -181 -142h-73q-15 11 -104 147zM699 926q39 -40 39 -57v-3q-26 -169 -33 -193q-255 -238 -335 -308q-35 0 -209 -23q-39 41 -39 57v3q10 73 14 87q329 317 460 428q10 0 103 9zM911 636h143q5 0 54 -73
l-19 -69q-1 -6 -186 -148h-69q-6 0 -54 74l38 143q1 5 93 73zM1251 636h143q6 0 55 -73l-38 -143q-2 -6 -94 -74h-74q-5 0 -104 143l20 74q1 5 92 73zM152 291h143q5 0 53 -73l-18 -69q-2 -6 -187 -148h-69q-6 0 -54 74l38 143q2 5 94 73zM819 291h74q7 -1 104 -142l-20 -74
q-2 -6 -93 -74h-143q-6 0 -54 74l38 143q2 5 94 73zM1228 291h74q6 0 54 -73l-37 -138q-1 -6 -100 -79h-138q-5 0 -53 74l20 74q3 7 180 142z" />
    <glyph glyph-name="ampersand" unicode="&#x26;" horiz-adv-x="1990" 
d="M761 2016h1003q6 0 55 -73l-20 -74q-2 -6 -182 -143h-865q-6 0 -103 143l20 74q1 5 92 73zM558 1786h69l105 -138q-22 -99 -35 -147l-32 -120q-13 -48 -44 -147l-185 -142h-64l-56 69q22 99 34 147l71 262q13 48 44 147zM1746 1671h69q5 0 53 -73l-116 -433
q-1 -6 -92 -73h-65q-6 0 -108 147l78 290q3 7 181 142zM1033 1156q222 -5 435 -5l100 -142q-1 -6 -187 -147h-855q-6 0 -108 147q3 7 180 142q213 0 435 5zM321 921h74q6 -1 104 -142q-12 -44 -50 -203q-44 -146 -60 -207l-179 -138h-69l-56 69q45 187 69 276q22 79 81 281z
M1545 921h73l52 -64q-47 -194 -73 -290q-22 -83 -77 -267l-91 -69h-69q-6 0 -105 143q14 53 51 207q44 148 59 202zM1864 811h65q5 0 57 -78l-37 -138q-1 -6 -98 -78h-138q-6 0 -55 73l20 74q3 7 186 147zM1753 411l8 -5h64q6 0 54 -73l-37 -138q-1 -6 -99 -79h-65
q-6 0 -107 148l19 73q2 6 88 69h69q5 0 6 5zM373 291h855q7 -1 109 -147l-19 -69q-2 -6 -94 -74h-1003q-6 0 -53 74l19 69q2 7 186 147z" />
    <glyph glyph-name="quotesingle" unicode="'" horiz-adv-x="490" 
d="M610 2000h142q6 0 54 -73l-18 -69q-2 -6 -187 -148h-69q-6 0 -54 74l38 143q2 5 94 73zM509 1623h138q5 0 57 -78l-51 -189q-1 -6 -99 -78h-65q-5 0 -107 147l33 124q2 6 94 74z" />
    <glyph glyph-name="parenleft" unicode="(" horiz-adv-x="1492" 
d="M751 1997h1003q5 0 53 -74l-20 -74q-1 -5 -180 -142h-860q-6 0 -108 147l18 69q2 6 94 74zM526 1707h73q7 -1 109 -147l-75 -281q-2 -6 -188 -147h-69q-5 0 -53 73l116 433q2 6 87 69zM362 1077h69q6 -1 108 -148l-76 -285q-2 -5 -188 -147h-69q-5 0 -53 74l116 432
q1 6 93 74zM191 442h74q7 -1 108 -147l-75 -281q-2 -6 -187 -147h-69q-6 0 -54 73l116 433q2 6 87 69zM269 -78h860q7 -1 104 -143l-20 -73q-1 -6 -93 -74h-1003q-6 0 -54 74l19 69q3 7 187 147z" />
    <glyph glyph-name="parenright" unicode=")" horiz-adv-x="1492" 
d="M1611 1997q54 -66 54 -74l-18 -69q-182 -147 -187 -147h-861q-104 136 -104 142l20 74q88 74 93 74h1003zM1680 1707q51 -61 51 -68v-1l-116 -433q-88 -73 -93 -73h-69q-107 138 -107 147l75 281q179 146 186 147h73zM1508 1077q53 -67 53 -74l-116 -432q-88 -74 -93 -74
h-69q-107 139 -107 147l76 285q179 147 187 148h69zM1337 442q51 -61 51 -68v-1l-116 -433q-88 -73 -94 -73h-69q-107 138 -107 147l75 281q179 146 186 147h74zM982 -78q108 -139 108 -147l-19 -69q-88 -74 -94 -74h-1003q-53 67 -53 74l20 73q173 142 180 143h861z" />
    <glyph glyph-name="asterisk" unicode="*" horiz-adv-x="1723" 
d="M1368 2540h85q7 0 66 -90l-23 -85q-1 -6 -114 -90h-85q-6 0 -34 48l45 169q2 7 60 48zM915 2349l10 -5h53q8 0 46 -63l-33 -122q-2 -8 -80 -63h-64l-95 121l9 11l16 58q2 7 74 58h58q5 0 6 5zM1814 2344q7 -5 19 -5h42q8 0 47 -64l-16 -58q-2 -8 -161 -127h-64
q-8 0 -45 64l32 121q2 8 80 64h43q11 0 23 5zM1002 2101q95 -5 120 -5l37 -59l-15 -58v-2q0 -3 4 -3l-9 -11l-14 -53q-2 -8 -80 -63h-58q-8 0 -93 127l17 63q68 64 91 64zM1482 2096h122q8 0 46 -64l-17 -63q-2 -8 -161 -127h-58q-8 0 -46 63l34 127q2 8 80 64zM1160 1900
h164q31 -22 31 -54q0 -9 -3 -20q-3 -29 -7 -43q-19 -72 -64 -100l-19 -11h-164q-6 0 -38 53l32 122q2 7 68 53zM1827 1900h90q6 0 61 -85l-24 -90q-2 -6 -60 -47h-164q-7 0 -39 53l21 79q2 7 115 90zM518 1873h174q7 0 36 -47l-23 -85q-2 -6 -114 -90h-90q-7 0 -66 90l23 85
q1 6 60 47zM1444 1715l87 -127l-17 -64q-2 -8 -80 -63h-122q-8 0 -46 63l32 122q3 8 80 63h53zM944 1709l10 -5h58q7 0 42 -58l-15 -58v-3q0 -3 4 -3l-8 -10l-15 -53q-2 -8 -80 -64h-122q-8 0 -46 64l17 63zM1519 1466h53q8 0 98 -132l-14 -53q-2 -8 -88 -69h-117
q-7 0 -49 69l31 116q2 8 86 69zM683 1461h53q8 0 49 -69l-31 -116q-2 -8 -86 -69h-117q-8 0 -46 63l14 53l-3 11zM1042 1281h90q7 0 35 -48l-45 -169q-2 -7 -61 -48h-90q-7 0 -66 90l23 85q1 7 114 90z" />
    <glyph glyph-name="plus" unicode="+" horiz-adv-x="1432" 
d="M1192 1543l9 -5h69q5 0 50 -69l-52 -197q-2 -6 -94 -74h-69q-6 0 -108 147l32 120q2 5 93 73h65q4 0 5 5zM526 1152h1086q6 0 54 -74l-19 -69q-1 -5 -186 -147h-943q-6 0 -104 143l20 73q1 6 92 74zM931 807h64q7 -1 109 -147l-34 -124q-1 -6 -94 -74h-138q-6 0 -57 78
l51 189q1 5 99 78z" />
    <glyph glyph-name="comma" unicode="," horiz-adv-x="794" 
d="M506 616q74 -12 74 -43q0 -4 -1 -8q5 -1 21 -60q-36 -92 -75 -92q-2 -7 -22 -14q-141 36 -141 55v1q-10 22 -10 32q0 2 1 4q37 83 64 83q70 42 89 42zM250 487q75 -10 75 -42q0 -4 -1 -9q7 0 7 -8q0 -4 -2 -10q-72 -142 -87 -152q-41 -18 -51 -18q-73 10 -73 36q0 2 1 5
q-22 62 -22 73v1q42 87 70 87q67 37 83 37zM566 395q84 -14 84 -44q0 -4 -1 -7q19 -54 19 -67v-2q-37 -83 -65 -83q-73 -41 -84 -41q-74 0 -83 64l1 5q77 152 91 152q36 17 38 23zM304 257q83 -17 83 -48q0 -3 -1 -7q23 0 27 -51q-42 -101 -82 -101l-76 -42q-70 20 -70 28
q-11 24 -11 70v8q-5 0 -8 23q40 88 69 88q67 26 69 32zM184 -19q83 -13 83 -47q0 -4 -1 -8q19 -47 19 -61v-4q-37 -83 -63 -83q-71 -41 -89 -41q-76 13 -76 43q0 4 1 8q-6 0 -6 7q0 5 2 11q68 134 81 147q47 22 49 28z" />
    <glyph glyph-name="hyphen" unicode="-" horiz-adv-x="1428" 
d="M594 1143h943q6 -1 104 -143l-20 -73q-2 -6 -93 -74h-1081q-6 0 -54 74l20 73q3 7 181 143z" />
    <glyph glyph-name="hyphen" unicode="&#xad;" horiz-adv-x="1428" 
d="M594 1143h943q6 -1 104 -143l-20 -73q-2 -6 -93 -74h-1081q-6 0 -54 74l20 73q3 7 181 143z" />
    <glyph glyph-name="period" unicode="." horiz-adv-x="794" 
d="M500 595q75 -13 75 -43q0 -4 -1 -8q4 -1 21 -60q-37 -92 -76 -92q-2 -6 -21 -13q-142 35 -142 54v1q-9 23 -9 33v4q37 82 64 82q70 42 89 42zM245 466q74 -9 74 -42q0 -4 -1 -9q7 0 7 -8q0 -4 -2 -10q-71 -141 -86 -152q-41 -18 -51 -18q-73 10 -73 36q0 2 1 5
q-22 62 -22 73v1q41 87 69 87q68 37 84 37zM560 374q85 -15 85 -45q0 -3 -1 -6q18 -51 18 -66v-3q-36 -82 -64 -82q-73 -42 -84 -42q-74 0 -84 65l1 4q77 152 91 152q37 17 38 23zM256 218q136 -34 140 -46q12 -30 12 -40v-2q-35 -87 -64 -87q-4 -2 -81 -42q-80 12 -80 40
q0 3 1 6q-5 0 -24 69q41 88 70 88q1 4 26 14z" />
    <glyph glyph-name="slash" unicode="/" horiz-adv-x="1438" 
d="M1635 2016h69q6 0 55 -73l-39 -143q-1 -6 -94 -74h-64q-5 0 -6 -4l-8 4h-64q-6 0 -54 74l19 69q3 7 186 147zM1612 1671q42 -38 42 -62q0 -4 -1 -7l-13 -83q-380 -354 -458 -423q-16 0 -99 -9q-40 37 -49 41q32 185 32 201v2q217 211 342 317q163 14 204 23zM893 1151h73
q14 -11 104 -147l-181 -142h-73q-15 11 -104 147q3 7 181 142zM699 926q38 -35 38 -61q0 -4 -1 -8l-31 -184q-330 -304 -334 -304q-167 -23 -213 -23q-39 39 -39 60q0 3 1 5q15 73 18 87l453 419q92 9 108 9zM222 296l8 -5h65q5 0 53 -73l-18 -69q-2 -6 -187 -148h-69
q-6 0 -54 74l39 147q2 6 88 69h69q5 0 6 5z" />
    <glyph glyph-name="zero" unicode="0" 
d="M1264 2021q359 -5 504 -5l47 -69l-20 -73q-1 -6 -187 -148h-856q-6 0 -107 148l19 69q1 5 92 73q138 0 508 5zM548 1786h74q6 -1 107 -147l-106 -396q-1 -5 -186 -147h-69q-6 0 -54 74l146 547q2 6 88 69zM1772 1786h73q6 0 54 -73l-145 -543q-2 -6 -94 -74h-73
q-6 0 -105 143l109 405q2 7 181 142zM959 1156h138q5 0 57 -78l-37 -138q-2 -6 -99 -78h-138q-6 0 -54 73l39 147q2 6 94 74zM322 926h69q7 -1 108 -147l-107 -400q-2 -6 -187 -148h-69q-6 0 -54 74l146 547q2 6 94 74zM1545 926h69q6 0 54 -74l-145 -542q-2 -6 -99 -79h-65
q-5 0 -107 148l107 400q3 7 186 147zM797 296q223 -5 436 -5l100 -142l-20 -74q-2 -6 -94 -74h-998q-6 0 -57 79l19 69q3 7 180 142q213 0 434 5z" />
    <glyph glyph-name="one" unicode="1" horiz-adv-x="490" 
d="M683 2016h73q6 0 55 -73l-222 -828q-2 -6 -99 -79h-65q-5 0 -108 148l185 690q3 7 181 142zM332 981h74q7 -1 107 -147l-183 -685q-2 -6 -187 -148h-69q-6 0 -54 74l224 837q2 6 88 69z" />
    <glyph glyph-name="two" unicode="2" 
d="M1264 2021q359 -5 504 -5l50 -73l-19 -69q-1 -6 -187 -148h-855q-6 0 -108 148l20 73q1 6 87 69q138 0 508 5zM1776 1786h74q6 0 50 -69l-146 -547q-2 -6 -94 -74h-69q-5 0 -108 147l106 396q3 7 187 147zM600 1156h860q6 -1 107 -147l-185 -143h-860q-6 0 -105 143l1 4
q3 7 182 143zM322 926h69q7 -1 108 -147l-107 -400q-2 -6 -187 -148h-65q-5 0 -57 79l145 542q2 6 94 74zM801 296q224 -5 436 -5l100 -142l-19 -69q-1 -6 -99 -79h-998q-6 0 -54 74l20 74q3 7 181 142q213 0 433 5z" />
    <glyph glyph-name="three" unicode="3" horiz-adv-x="1498" 
d="M1122 2021q359 -5 504 -5l50 -73l-19 -69q-1 -6 -187 -148h-860q-6 0 -108 148l19 69q1 5 93 73q138 0 508 5zM1629 1786h74q6 0 54 -73l-145 -543q-2 -6 -94 -74h-69q-6 0 -108 147l108 401q2 7 180 142zM458 1156h860q6 -1 107 -147l-185 -143h-860q-6 0 -109 147z
M1403 926h69q6 0 54 -74l-145 -542q-2 -6 -100 -79h-64q-6 0 -107 148l107 400q3 7 186 147zM659 296q221 -5 431 -5l104 -147l-18 -64q-1 -6 -99 -79h-998q-6 0 -58 79l18 64q3 7 187 147q212 0 433 5z" />
    <glyph glyph-name="four" unicode="4" 
d="M614 2016h73q7 -1 105 -142l-169 -631q-1 -5 -186 -147h-69q-6 0 -54 74l207 773q1 5 93 73zM1833 2016h73q6 0 55 -73l-207 -773q-2 -6 -94 -74h-69q-5 0 -108 147l169 631q3 7 181 142zM600 1156h860q6 -1 107 -147l-185 -143h-860q-6 0 -108 147zM1545 926h69
q6 0 54 -74l-207 -772q-1 -6 -99 -79h-65q-5 0 -107 148q81 318 132 506q9 35 38 128z" />
    <glyph glyph-name="five" unicode="5" 
d="M1264 2021q359 -5 504 -5l50 -73l-19 -69q-1 -6 -187 -148h-855q-6 0 -108 148l20 73q1 6 87 69q138 0 508 5zM553 1786h73q6 -1 105 -142l-109 -405q-2 -6 -181 -143h-73q-6 0 -54 74l145 543q1 5 94 73zM600 1156h860q6 -1 107 -147l-185 -143h-860q-6 0 -105 143l1 4
q3 7 182 143zM1545 926h69q6 0 54 -74l-146 -547q-2 -6 -94 -74h-69q-5 0 -107 148l107 400q3 7 186 147zM801 296q224 -5 436 -5l100 -142l-19 -69q-1 -6 -99 -79h-998q-6 0 -54 74l20 74q3 7 181 142q213 0 433 5z" />
    <glyph glyph-name="six" unicode="6" 
d="M1264 2021q359 -5 504 -5l47 -69l-20 -73q-1 -6 -187 -148h-856q-6 0 -107 148l19 69q1 5 92 73q138 0 508 5zM548 1786h74q6 -1 107 -147l-106 -396q-1 -5 -186 -147h-69q-6 0 -54 74l146 547q2 6 88 69zM600 1156h860q6 -1 104 -143l-1 -4q-1 -6 -181 -143h-860
q-6 0 -108 147zM322 926h69q7 -1 108 -147l-107 -400q-2 -6 -187 -148h-69q-6 0 -54 74l146 547q2 6 94 74zM1545 926h69q6 0 54 -74l-145 -542q-2 -6 -99 -79h-65q-5 0 -107 148l107 400q3 7 186 147zM797 296q223 -5 436 -5l100 -142l-20 -74q-2 -6 -94 -74h-998
q-6 0 -57 79l19 69q3 7 180 142q213 0 434 5z" />
    <glyph glyph-name="seven" unicode="7" horiz-adv-x="1498" 
d="M1122 2021q359 -5 504 -5l46 -69l-20 -73q-1 -6 -187 -148h-855q-6 0 -108 148l20 73q1 6 87 69q115 0 513 5zM1629 1786h74q6 0 50 -69l-55 -207q-33 -123 -45 -184q-21 -61 -54 -184l-54 -202q-2 -6 -94 -74h-69l-105 138q22 101 36 152q43 160 137 492zM1336 696h69
l56 -69q-45 -186 -69 -276q-21 -78 -80 -281l-93 -69h-64q-6 0 -107 148q12 44 49 202q44 146 61 207z" />
    <glyph glyph-name="eight" unicode="8" 
d="M1264 2021q359 -5 504 -5l50 -73l-19 -69q-1 -6 -187 -148h-855q-6 0 -108 148l20 73q1 6 87 69q138 0 508 5zM553 1786h73q6 -1 105 -142l-109 -405q-2 -6 -181 -143h-73q-6 0 -54 74l145 543q1 5 94 73zM1776 1786h74q6 0 50 -69l-146 -547q-2 -6 -94 -74h-69
q-5 0 -108 147l106 396q3 7 187 147zM600 1156h860q6 -1 107 -147l-185 -143h-860q-6 0 -105 143l1 4q3 7 182 143zM322 926h69q7 -1 108 -147l-107 -400q-2 -6 -187 -148h-65q-5 0 -57 79l145 542q2 6 94 74zM1545 926h69q6 0 54 -74l-146 -547q-2 -6 -94 -74h-69
q-5 0 -107 148l107 400q3 7 186 147zM801 296q224 -5 436 -5l100 -142l-19 -69q-1 -6 -99 -79h-998q-6 0 -54 74l20 74q3 7 181 142q213 0 433 5z" />
    <glyph glyph-name="nine" unicode="9" 
d="M1264 2021q359 -5 504 -5l50 -73l-19 -69q-1 -6 -187 -148h-860q-6 0 -107 148l19 69q1 5 92 73q138 0 508 5zM553 1786h73q6 -1 105 -142l-108 -401q-1 -5 -186 -147h-69q-6 0 -54 74l145 543q1 5 94 73zM1772 1786h73q6 0 54 -73l-145 -543q-2 -6 -94 -74h-69
q-5 0 -108 147l108 401q2 7 181 142zM600 1156h860q6 -1 107 -147l-185 -143h-860q-6 0 -108 147zM1545 926h69q6 0 54 -74l-145 -542q-2 -6 -99 -79h-65q-5 0 -107 148l107 400q3 7 186 147zM801 296q221 -5 432 -5l103 -147l-18 -64q-1 -6 -99 -79h-998q-6 0 -57 79l18 64
q2 7 186 147q213 0 433 5z" />
    <glyph glyph-name="colon" unicode=":" horiz-adv-x="794" 
d="M500 595q75 -13 75 -43q0 -4 -1 -8q4 -1 21 -60q-37 -92 -76 -92q-2 -6 -21 -13q-142 35 -142 54v1q-9 23 -9 33v4q37 82 64 82q70 42 89 42zM245 466q74 -9 74 -42q0 -4 -1 -9q7 0 7 -8q0 -4 -2 -10q-71 -141 -86 -152q-41 -18 -51 -18q-73 10 -73 36q0 2 1 5
q-22 62 -22 73v1q41 87 69 87q68 37 84 37zM560 374q85 -15 85 -45q0 -3 -1 -6q18 -51 18 -66v-3q-36 -82 -64 -82q-73 -42 -84 -42q-74 0 -84 65l1 4q77 152 91 152q37 17 38 23zM256 218q136 -34 140 -46q12 -30 12 -40v-2q-35 -87 -64 -87q-4 -2 -81 -42q-80 12 -80 40
q0 3 1 6q-5 0 -24 69q41 88 70 88q1 4 26 14zM891 2051q74 -12 74 -43q0 -4 -1 -8q5 -1 21 -60q-37 -92 -76 -92q-2 -7 -21 -13q-142 35 -142 54v1q-9 23 -9 33v4q37 82 64 82q71 42 90 42zM635 1922q74 -9 74 -42q0 -4 -1 -9q7 0 7 -9q0 -4 -1 -9q-73 -142 -87 -152
q-41 -18 -51 -18q-73 10 -73 36q0 2 1 5q-22 62 -22 73v1q41 87 69 87q68 37 84 37zM950 1830q85 -15 85 -45q0 -3 -1 -6q18 -51 18 -66v-3q-36 -82 -64 -82q-73 -42 -84 -42q-74 0 -84 65l1 4q77 152 91 152q37 17 38 23zM647 1674q135 -34 139 -46q12 -30 12 -40v-2
q-35 -87 -64 -87q-4 -3 -81 -42q-80 12 -80 40q0 3 1 6q-5 0 -24 69q41 88 70 88q1 4 27 14z" />
    <glyph glyph-name="semicolon" unicode=";" horiz-adv-x="794" 
d="M506 616q74 -12 74 -43q0 -4 -1 -8q5 -1 21 -60q-36 -92 -75 -92q-2 -7 -22 -14q-141 36 -141 55v1q-10 22 -10 32q0 2 1 4q37 83 64 83q70 42 89 42zM250 487q75 -10 75 -42q0 -4 -1 -9q7 0 7 -8q0 -4 -2 -10q-72 -142 -87 -152q-41 -18 -51 -18q-73 10 -73 36q0 2 1 5
q-22 62 -22 73v1q42 87 70 87q67 37 83 37zM566 395q84 -14 84 -44q0 -4 -1 -7q19 -54 19 -67v-2q-37 -83 -65 -83q-73 -41 -84 -41q-74 0 -83 64l1 5q77 152 91 152q36 17 38 23zM304 257q83 -17 83 -48q0 -3 -1 -7q23 0 27 -51q-42 -101 -82 -101l-76 -42q-70 20 -70 28
q-11 24 -11 70v8q-5 0 -8 23q40 88 69 88q67 26 69 32zM184 -19q83 -13 83 -47q0 -4 -1 -8q19 -47 19 -61v-4q-37 -83 -63 -83q-71 -41 -89 -41q-76 13 -76 43q0 4 1 8q-6 0 -6 7q0 5 2 11q68 134 81 147q47 22 49 28zM891 2051q74 -12 74 -43q0 -4 -1 -8q5 -1 21 -60
q-37 -92 -76 -92q-2 -7 -21 -13q-142 35 -142 54v1q-9 23 -9 33v4q37 82 64 82q71 42 90 42zM635 1922q74 -9 74 -42q0 -4 -1 -9q7 0 7 -9q0 -4 -1 -9q-73 -142 -87 -152q-41 -18 -51 -18q-73 10 -73 36q0 2 1 5q-22 62 -22 73v1q41 87 69 87q68 37 84 37zM950 1830
q85 -15 85 -45q0 -3 -1 -6q18 -51 18 -66v-3q-36 -82 -64 -82q-73 -42 -84 -42q-74 0 -84 65l1 4q77 152 91 152q37 17 38 23zM647 1674q135 -34 139 -46q12 -30 12 -40v-2q-35 -87 -64 -87q-4 -3 -81 -42q-80 12 -80 40q0 3 1 6q-5 0 -24 69q41 88 70 88q1 4 27 14z" />
    <glyph glyph-name="semicolon" unicode="&#x37e;" horiz-adv-x="794" 
d="M506 616q74 -12 74 -43q0 -4 -1 -8q5 -1 21 -60q-36 -92 -75 -92q-2 -7 -22 -14q-141 36 -141 55v1q-10 22 -10 32q0 2 1 4q37 83 64 83q70 42 89 42zM250 487q75 -10 75 -42q0 -4 -1 -9q7 0 7 -8q0 -4 -2 -10q-72 -142 -87 -152q-41 -18 -51 -18q-73 10 -73 36q0 2 1 5
q-22 62 -22 73v1q42 87 70 87q67 37 83 37zM566 395q84 -14 84 -44q0 -4 -1 -7q19 -54 19 -67v-2q-37 -83 -65 -83q-73 -41 -84 -41q-74 0 -83 64l1 5q77 152 91 152q36 17 38 23zM304 257q83 -17 83 -48q0 -3 -1 -7q23 0 27 -51q-42 -101 -82 -101l-76 -42q-70 20 -70 28
q-11 24 -11 70v8q-5 0 -8 23q40 88 69 88q67 26 69 32zM184 -19q83 -13 83 -47q0 -4 -1 -8q19 -47 19 -61v-4q-37 -83 -63 -83q-71 -41 -89 -41q-76 13 -76 43q0 4 1 8q-6 0 -6 7q0 5 2 11q68 134 81 147q47 22 49 28zM891 2051q74 -12 74 -43q0 -4 -1 -8q5 -1 21 -60
q-37 -92 -76 -92q-2 -7 -21 -13q-142 35 -142 54v1q-9 23 -9 33v4q37 82 64 82q71 42 90 42zM635 1922q74 -9 74 -42q0 -4 -1 -9q7 0 7 -9q0 -4 -1 -9q-73 -142 -87 -152q-41 -18 -51 -18q-73 10 -73 36q0 2 1 5q-22 62 -22 73v1q41 87 69 87q68 37 84 37zM950 1830
q85 -15 85 -45q0 -3 -1 -6q18 -51 18 -66v-3q-36 -82 -64 -82q-73 -42 -84 -42q-74 0 -84 65l1 4q77 152 91 152q37 17 38 23zM647 1674q135 -34 139 -46q12 -30 12 -40v-2q-35 -87 -64 -87q-4 -3 -81 -42q-80 12 -80 40q0 3 1 6q-5 0 -24 69q41 88 70 88q1 4 27 14z" />
    <glyph glyph-name="less" unicode="&#x3c;" horiz-adv-x="986" 
d="M343 899l53 198q2 7 69 55h101l79 -101q-19 -54 -25 -78l-8 -28l-129 -106l-45 5h-55q-7 0 -40 55zM632 1226l19 69q3 7 186 147h56q25 0 67 -74l-38 -142q-1 -6 -94 -74h-64q-5 0 -6 -5l-8 5h-64q-6 0 -54 74zM504 729l17 64q2 6 99 78h138q6 0 55 -73q-6 -21 -33 -138
q-4 -13 -94 -78h-74q-7 1 -108 147zM980 1460l15 55q7 27 191 161h69q5 0 57 -78l-37 -138q-1 -5 -94 -73h-147q-6 0 -54 73zM730 490l20 73q85 74 98 74q22 0 140 -5l50 -73l-37 -138q-2 -6 -93 -74h-65l-11 -5z" />
    <glyph glyph-name="equal" unicode="=" horiz-adv-x="1432" 
d="M1081 1374q265 -4 546 -4l49 -74l-19 -69q-1 -5 -186 -147h-938q-6 0 -108 147l19 69q85 74 98 74q259 0 539 4zM496 942h938q7 -1 107 -147l-18 -69q-85 -74 -98 -74q-259 0 -539 -4q-265 4 -546 4l-49 74l18 69q3 7 187 147z" />
    <glyph glyph-name="greater" unicode="&#x3e;" horiz-adv-x="986" 
d="M1059 824h-55l-47 -5l-73 106l8 28q6 24 15 78l133 101h101q41 -46 41 -54v-1l-53 -198q-63 -55 -70 -55zM920 1132h-64l-10 -5v2q0 3 -4 3h-64q-54 67 -54 74l38 142q82 74 108 74h55q108 -139 108 -147l-19 -69q-88 -74 -94 -74zM690 562h-73q-53 61 -53 76v2
q36 117 42 138q86 73 92 73h138q57 -70 57 -78l-17 -64q-179 -146 -186 -147zM698 1367h-147q-54 67 -54 73l37 138q94 78 100 78h69q104 -126 104 -157v-4l-15 -55q-88 -73 -94 -73zM340 322l-7 5h-65q-53 66 -53 74l37 138l88 73q122 5 144 5q13 0 59 -74l-20 -73z" />
    <glyph glyph-name="question" unicode="?" horiz-adv-x="1695" 
d="M819 2025h1002q6 0 54 -73l-20 -74q-1 -6 -181 -142h-864q-6 0 -105 142l20 74q2 6 94 73zM1833 1795h69q6 0 54 -73l-146 -548q-2 -5 -94 -73h-64q-6 0 -109 147q12 45 51 202q43 146 59 207zM1089 1165q223 -4 436 -4l100 -143q-2 -6 -187 -147h-856q-6 0 -107 147
q3 7 181 143q212 0 433 4zM318 931h73q7 -2 105 -143l-78 -290q-1 -6 -181 -142h-69q-6 0 -53 73l116 433q1 5 87 69zM297 250q23 0 23 -31q0 -18 -8 -47l-1 -5q-2 -7 -35 -28h-28q-32 29 -45 56l6 23q8 27 88 32zM120 241h50q21 -12 21 -35q0 -7 -2 -16q-66 -60 -72 -60
h-27q-20 14 -20 37q0 8 3 18h4l-2 10l4 13q2 7 41 33zM248 121h27q22 -13 22 -37q0 -9 -3 -18h-5l2 -9l-3 -14q-2 -7 -42 -32h-50q-21 12 -21 35q0 7 2 15q65 60 71 60zM89 112h28q32 -29 45 -55l-6 -23q-7 -28 -87 -33q-24 0 -24 32q0 18 8 47l2 4q1 7 34 28z" />
    <glyph glyph-name="at" unicode="@" horiz-adv-x="1846" 
d="M756 2016h1150q6 0 54 -73l-19 -69q-1 -6 -187 -148h-1003q-5 0 -103 143l21 78q1 6 87 69zM552 1786h74q6 -1 104 -142l-124 -460q-1 -6 -186 -148h-64q-6 0 -57 79l160 598q1 5 93 73zM1983 1786h69q6 0 53 -73l-162 -603q-1 -6 -92 -74h-69q-6 0 -108 148l122 455
q3 7 187 147zM971 1584h143q5 0 54 -74l-19 -69q-1 -6 -186 -147h-69q-6 0 -54 74l38 142q1 6 93 74zM1307 1584h147q52 -55 52 -82q0 -3 -1 -6l-34 -128q-2 -6 -94 -74h-74q-5 0 -108 147l15 55q7 26 97 88zM879 1239h69q7 -1 108 -147l-19 -69q-1 -6 -93 -74h-143
q-6 0 -54 74l38 142q2 6 94 74zM1288 1239h74q6 0 54 -74l-34 -129q-7 -25 -98 -87h-147q-51 55 -51 81q0 3 1 6l15 56q2 7 186 147zM336 981h74q7 -1 104 -142l-123 -460q-2 -6 -187 -148h-64q-6 0 -57 79l160 598q2 5 93 73zM1767 981h69q6 0 53 -73l-161 -603
q-2 -6 -93 -74h-69q-6 0 -107 148l121 455q3 7 187 147zM765 880h101q6 0 74 -101l-29 -106q-1 -6 -128 -101h-101q-7 0 -41 55l53 198q2 7 71 55zM1183 880h101q34 -30 34 -57q0 -6 -2 -12q-3 -32 -19 -92l-25 -92q-2 -7 -71 -55h-101q-6 0 -77 106l27 101zM367 291h1008
q7 -1 104 -142l-20 -74q-2 -6 -93 -74h-1146q-5 0 -53 74l20 74q3 7 180 142z" />
    <glyph glyph-name="A" unicode="A" horiz-adv-x="1644" 
d="M761 2016h1002q6 0 55 -73l-20 -74q-2 -6 -182 -143h-864q-6 0 -104 143l20 74q1 5 93 73zM557 1786h69l106 -138q-23 -99 -36 -147l-32 -120q-13 -48 -43 -147l-186 -142h-64l-56 69q23 99 35 147l71 262q13 48 43 147zM1776 1786h69l55 -69q-46 -186 -70 -276
q-21 -78 -79 -280l-92 -69h-64q-6 0 -109 147q12 45 50 202q43 146 60 207zM1032 1156q222 -5 435 -5l100 -142q-1 -6 -186 -147h-856q-6 0 -108 147q3 7 181 142q212 0 434 5zM320 921h74q7 -1 105 -142l-170 -635q-2 -6 -182 -143h-69q-6 0 -54 74q121 467 139 534
q63 218 71 248zM1544 921h74q5 0 50 -69l-55 -207q-33 -123 -45 -184q-21 -61 -54 -184l-54 -202q-2 -6 -94 -74h-69q-6 0 -104 143q88 345 133 511q9 35 38 128z" />
    <glyph glyph-name="B" unicode="B" horiz-adv-x="1644" 
d="M761 2016h1002q6 0 55 -73l-20 -74q-2 -6 -182 -143h-864q-6 0 -104 143l20 74q1 5 93 73zM557 1786h69l106 -138q-23 -99 -36 -147l-32 -120q-13 -48 -43 -147l-186 -142h-64l-56 69q23 99 35 147l71 262q13 48 43 147zM1776 1786h69l55 -69q-46 -186 -70 -276
q-21 -78 -79 -280l-92 -69h-64q-6 0 -109 147q12 45 50 202q43 146 60 207zM1032 1156q222 -5 435 -5l100 -142q-1 -6 -186 -147h-856q-6 0 -108 147q3 7 181 142q212 0 434 5zM320 921h74q7 -1 105 -142q-12 -44 -51 -203q-43 -146 -59 -207l-180 -138h-69l-56 69
q46 187 70 276q22 79 80 281zM1544 921h74l52 -64q-48 -194 -74 -290q-22 -83 -76 -267l-92 -69h-69q-6 0 -105 143q14 53 52 207q43 148 58 202zM372 291h856q7 -1 108 -147l-19 -69q-2 -6 -94 -74h-1002q-6 0 -54 74l19 69q2 7 186 147z" />
    <glyph glyph-name="C" unicode="C" 
d="M756 2016h1150q6 0 55 -73l-19 -69q-1 -6 -187 -148h-1003q-6 0 -107 148l19 69q1 5 92 73zM553 1786h69q6 -1 107 -147l-122 -455q-1 -6 -186 -148h-69q-6 0 -55 74l162 603q1 5 94 73zM337 981h69q7 -1 107 -147l-121 -455q-2 -6 -187 -148h-69q-6 0 -54 74l161 603
q2 5 94 73zM368 291h1003q7 -1 108 -147l-19 -69q-2 -6 -94 -74h-1150q-5 0 -53 74l19 69q2 7 186 147z" />
    <glyph glyph-name="D" unicode="D" 
d="M683 2016h1081q5 0 54 -73l-19 -69q-1 -6 -187 -148h-860q-6 0 -107 148zM479 1786h143q6 -1 107 -147l-123 -460q-2 -6 -181 -143h-147zM1776 1786h69q6 0 54 -73l-162 -603q-1 -6 -93 -74h-69q-5 0 -108 148l122 455q3 7 187 147zM263 981h143q7 -1 107 -147l-123 -460
q-1 -6 -181 -143h-147zM1560 981h69q6 0 54 -73l-161 -603q-2 -6 -94 -74h-69q-5 0 -107 148l121 455q3 7 187 147zM368 291h860q7 -1 108 -147l-19 -69q-2 -6 -93 -74h-1081l39 143q2 7 186 147z" />
    <glyph glyph-name="E" unicode="E" 
d="M761 2016h1145q6 0 55 -73l-20 -74q-2 -6 -182 -143h-1007q-6 0 -104 143l20 74q1 5 93 73zM557 1786h69l106 -138q-22 -99 -35 -147l-32 -120q-13 -48 -44 -147l-185 -142h-65l-55 69q22 99 34 147l71 262q13 48 44 147zM1032 1156q223 -5 435 -5l100 -142
q-1 -6 -186 -147h-855q-6 0 -109 147q3 7 181 142q213 0 434 5zM321 921h73q7 -1 105 -142q-12 -44 -50 -203q-44 -146 -60 -207l-180 -138h-69l-55 69q45 187 69 276q22 79 81 281zM373 291h1002q7 -1 105 -142l-20 -74q-2 -6 -94 -74h-1145q-6 0 -54 74l19 69q2 7 187 147
z" />
    <glyph glyph-name="F" unicode="F" horiz-adv-x="1644" 
d="M761 2016h1150q5 0 54 -73l-19 -69q-1 -6 -187 -148h-1003q-6 0 -107 148l19 69q1 5 93 73zM557 1786h69q6 -1 107 -147l-107 -400q-2 -6 -186 -147h-69q-6 0 -55 73l147 548q1 5 94 73zM1032 1156q222 -5 435 -5l100 -142q-1 -6 -186 -147h-856q-6 0 -108 147
q3 7 181 142q212 0 434 5zM320 921h74q7 -1 107 -147l-54 -202q-20 -75 -33 -111q-6 -35 -26 -110l-54 -202q-2 -6 -187 -148h-69q-6 0 -54 74q44 163 115 442q58 203 95 340z" />
    <glyph glyph-name="G" unicode="G" horiz-adv-x="1644" 
d="M763 2021h1002q6 0 54 -74l-20 -73q-1 -6 -181 -143q-212 0 -434 -5q-222 5 -435 5l-100 143l20 73q1 6 94 74zM558 1791h64l110 -143q-23 -99 -36 -147l-10 -37q-25 -94 -80 -285l-180 -138h-74l-52 64q50 202 76 299l46 171q13 48 43 147zM1106 1156h427q6 0 54 -74
l-19 -69q-1 -5 -186 -147h-281q-6 0 -108 147l19 69q2 6 94 74zM342 986h64q107 -134 107 -151v-1q-37 -140 -56 -225q-26 -81 -67 -235l-180 -138h-74q-5 0 -50 69q17 66 77 304q67 234 87 308zM1545 926h74l52 -64q-47 -191 -73 -286q-20 -75 -78 -276l-86 -64h-74
q-6 0 -104 143q11 44 50 202q43 146 59 207zM373 296h856q7 -1 108 -147l-19 -69q-1 -6 -93 -74q-478 -5 -641 -5q-53 0 -122 5q-29 -5 -126 -5h-19q-54 0 -168 5l38 143q3 7 186 147z" />
    <glyph glyph-name="H" unicode="H" horiz-adv-x="1644" 
d="M618 2016h69q7 -1 108 -147l-169 -630q-2 -6 -186 -147h-69q-6 0 -55 73l209 778q1 5 93 73zM1842 2016h69q5 0 54 -73l-207 -773q-2 -6 -99 -78h-64q-6 0 -109 147l169 630q4 7 187 147zM1032 1156q222 -5 435 -5l100 -142q-1 -6 -186 -147h-856q-6 0 -108 147
q3 7 181 142q212 0 434 5zM320 921h74q7 -1 107 -147l-54 -202q-20 -75 -33 -111q-6 -35 -26 -110l-54 -202q-2 -6 -187 -148h-69q-6 0 -54 74q20 75 139 534q57 197 71 248zM1544 921h74q5 0 53 -73l-207 -773q-2 -6 -93 -74h-74q-6 0 -104 143q88 345 130 501
q11 40 41 138z" />
    <glyph glyph-name="I" unicode="I" horiz-adv-x="490" 
d="M614 2016h69q7 -1 108 -147l-184 -685q-1 -6 -186 -148h-69q-6 0 -55 74l224 833q1 5 93 73zM410 981h69q6 0 54 -73l-223 -833q-2 -6 -94 -74h-69q-5 0 -107 148l183 685q3 7 187 147z" />
    <glyph glyph-name="J" unicode="J" horiz-adv-x="1644" 
d="M1841 2012h64q6 0 54 -74q-131 -505 -156 -598q-7 -28 -67 -235l-92 -69h-69q-6 0 -105 143q10 39 53 212q41 140 52 179v2q0 3 -3 3l13 32l68 257q4 7 188 148zM1560 981h69q6 0 54 -73q-17 -66 -77 -304q-61 -213 -86 -304l-92 -69h-69q-103 130 -103 147v1
q37 140 56 225q28 92 68 239zM320 921h74q7 -1 105 -142q-12 -44 -51 -203q-43 -146 -59 -207l-180 -138h-69l-56 69q46 187 70 276q22 79 80 281zM372 291h860q7 -1 105 -142l-40 -148h-1076q-6 0 -54 74l19 69q2 7 186 147z" />
    <glyph glyph-name="K" unicode="K" horiz-adv-x="1644" 
d="M1890 2021q1 -12 1 -63t-1 -140q-58 -59 -477 -561q-206 -50 -216 -50l1 4v189q80 99 484 570q19 0 208 51zM618 2016h69q7 -1 108 -147l-169 -630q-2 -6 -186 -147h-64q-6 0 -58 78l207 773q1 5 93 73zM1037 1156q220 -5 430 -5l104 -147l-186 -142h-860q-6 0 -108 147
l185 142q213 0 435 5zM325 921h74q7 -1 104 -142l-61 -226q-16 -59 -28 -92q-5 -32 -21 -92l-59 -220q-2 -6 -187 -148h-69q-6 0 -54 74q20 75 139 534q2 5 69 243zM1544 921h74q5 0 53 -73l-207 -773q-2 -6 -93 -74h-69q-6 0 -108 148q88 342 129 496q11 40 41 138z" />
    <glyph glyph-name="L" unicode="L" horiz-adv-x="1498" 
d="M613 2012h69q7 -2 107 -148l-182 -680q-1 -6 -186 -148h-69q-6 0 -55 74l222 828q2 6 94 74zM337 981h69q7 -1 107 -147l-121 -455q-2 -6 -187 -148h-69q-6 0 -54 74l161 603q2 5 94 73zM368 291h860q7 -1 109 -147l-19 -69q-2 -6 -94 -74h-1081l39 143q2 7 186 147z" />
    <glyph glyph-name="M" unicode="M" horiz-adv-x="1994" 
d="M618 2016h69q7 -1 108 -147l-185 -690q-2 -6 -180 -143h-74q-6 0 -54 74l224 833q1 5 92 73zM2187 2016h69q6 0 54 -73l-224 -833q-1 -6 -92 -74h-74q-6 0 -104 143l185 690q3 7 186 147zM952 1855q164 -71 172 -83l83 -510q-111 -176 -130 -193q-62 -28 -76 -28
q-82 34 -82 50v1l-107 634q62 106 79 106q7 0 61 23zM1836 1855q65 -25 65 -46v-4q5 -58 5 -74v-5q-432 -622 -463 -653l-101 -32q-60 22 -60 49q0 3 1 6q-20 146 -20 164v2q353 507 369 520zM1201 1101l104 -147l-19 -69q-1 -6 -94 -74h-142q-6 0 -54 74l19 69q2 7 186 147
zM341 981h69q7 -1 107 -147l-38 -143q-37 -138 -58 -202q-13 -63 -50 -202l-38 -143q-2 -6 -181 -143h-74q-6 0 -53 74q33 121 129 501q72 250 95 336zM1910 981h69q6 0 53 -73q-22 -82 -85 -336q-105 -376 -139 -502l-92 -69h-74q-6 0 -103 143l38 143q37 139 58 202
q13 64 50 202l38 143q3 7 187 147z" />
    <glyph glyph-name="N" unicode="N" horiz-adv-x="1644" 
d="M618 2016h69q7 -1 108 -147l-184 -685q-1 -6 -186 -148h-69q-6 0 -55 74l224 833q1 5 93 73zM1842 2016h64q6 0 57 -78l-222 -828q-1 -6 -92 -74h-74q-6 0 -105 143l185 690q4 7 187 147zM341 981h69q7 -1 107 -147l-33 -124q-39 -147 -63 -221q-16 -74 -55 -221
l-32 -119q-2 -6 -187 -148h-69q-6 0 -54 74q33 123 129 497q76 267 95 340zM1565 981h64q6 0 57 -78l-222 -828q-2 -6 -93 -74h-74q-6 0 -104 143q88 344 116 451q68 238 70 244zM1050 1181q-164 71 -171 83l-84 510q112 176 130 193q63 28 77 28q82 -34 82 -50v-1l106 -634
q-61 -106 -78 -106q-7 0 -62 -23zM1045 1090q156 -82 162 -95l49 -523q-120 -171 -140 -188q-61 -23 -76 -23h-1q-78 39 -78 55v1l-63 651q68 102 85 102q7 0 62 20z" />
    <glyph glyph-name="O" unicode="O" 
d="M756 2016h1008q5 0 54 -73l-19 -69q-1 -6 -187 -148h-860q-6 0 -104 143l21 78q1 6 87 69zM553 1786h73q6 -1 105 -142l-109 -405q-2 -6 -181 -143h-73q-6 0 -54 74l145 543q1 5 94 73zM1776 1786h69q6 0 54 -73l-145 -543q-2 -6 -94 -74h-69q-5 0 -108 147l106 396
q3 7 187 147zM326 926h65q7 -1 108 -147l-107 -400q-2 -6 -187 -148h-65q-5 0 -57 79l144 538q2 6 99 78zM1545 926h69q6 0 54 -74l-146 -547q-2 -6 -94 -74h-69q-5 0 -107 148l107 400q3 7 186 147zM368 291h860q7 -1 108 -147l-19 -69q-2 -6 -93 -74h-1003q-6 0 -54 74
l20 74q3 7 181 142z" />
    <glyph glyph-name="P" unicode="P" horiz-adv-x="1644" 
d="M1269 2021q359 -5 504 -5l46 -69l-20 -73q-1 -6 -187 -148h-856q-6 0 -107 148l20 73q1 6 87 69q115 0 513 5zM552 1786h74l106 -138q-23 -99 -36 -147l-32 -120q-13 -48 -43 -147l-180 -138h-69l-56 69q23 99 36 147l70 263q13 48 43 147zM1776 1786h74l51 -64
q-48 -195 -73 -290q-23 -83 -76 -267l-92 -69h-69q-6 0 -105 143q14 53 51 207q44 148 59 202zM604 1156h856q6 -1 107 -147q-1 -6 -181 -143h-864q-6 0 -105 143q3 7 187 147zM326 926h69q7 -1 105 -143l-42 -156q-16 -59 -31 -129l-8 -18q-16 -73 -25 -106
q-12 -46 -65 -230l-187 -143h-64l-55 69q42 174 61 244q34 127 150 543z" />
    <glyph glyph-name="Q" unicode="Q" 
d="M1263 2019q360 -5 505 -5l46 -69l-20 -74q-1 -5 -186 -147h-856q-6 0 -108 147l19 69q1 6 93 74q138 0 507 5zM547 1784h74q7 -1 108 -147l-106 -396q-2 -6 -187 -147h-69q-6 0 -54 74l147 547q1 6 87 69zM1771 1784h73q6 0 54 -74l-145 -542q-2 -6 -94 -74h-73
q-6 0 -105 143l109 404q3 7 181 143zM322 924h69q6 -1 107 -147l-107 -401q-2 -5 -187 -147h-69q-6 0 -54 74l147 547q1 6 94 74zM1545 924h69q6 0 54 -74l-146 -543q-1 -5 -99 -78h-65q-5 0 -107 147l107 401q3 6 187 147zM820 639h55q26 0 122 -148l-19 -69q-1 -5 -99 -78
h-138q-6 0 -54 74l39 147q2 6 94 74zM797 294q222 -5 435 -5l100 -143l-19 -73q-2 -6 -94 -74h-998q-6 0 -57 78l18 69q3 7 180 143q213 0 435 5zM638 -42h142q6 0 54 -74l-19 -69q-1 -6 -186 -147h-69q-6 0 -54 74l38 142q2 6 94 74z" />
    <glyph glyph-name="R" unicode="R" 
d="M759 2025h1003q6 0 54 -73l-20 -74q-1 -6 -181 -142h-860q-6 0 -107 147l18 69q2 6 93 73zM555 1795h69q7 -1 108 -147l-108 -400q-1 -6 -186 -147h-69q-6 0 -54 73l146 548q2 6 94 73zM1778 1795h69q6 0 54 -73l-155 -580q-2 -6 -94 -73h-73q-6 0 -105 142l118 437
q2 7 186 147zM589 1133h861q5 -1 107 -147l-18 -69q-86 -74 -98 -74q-141 0 -346 -4q-141 4 -183 4l-75 -4q-77 4 -174 4h-83q-5 0 -108 147l18 65q1 6 99 78zM318 931h74q7 -2 108 -148l-168 -625q-1 -6 -186 -147h-69q-6 0 -54 73l208 778q1 5 87 69zM1245 797
q67 -4 99 -4q53 -75 217 -309l-27 -101q-2 -6 -65 -50h-106q-112 0 -112 24v3q-6 0 -131 180l56 211q10 0 69 46zM1303 296h142q6 0 54 -74l-38 -142q-1 -6 -93 -74h-64q-5 0 -7 -5l-7 5h-64q-6 0 -55 74l38 142q2 6 94 74z" />
    <glyph glyph-name="S" unicode="S" horiz-adv-x="1644" 
d="M1333 2021q191 -5 578 -5l50 -73l-19 -69q-1 -6 -188 -148h-993q-6 0 -107 148l20 73q79 69 91 69q367 0 568 5zM557 1786h74q6 -1 104 -142l-109 -405q-2 -6 -180 -143h-74q-6 0 -54 74l145 543q1 5 94 73zM604 1156h860q6 -1 108 -147l-186 -143h-860q-6 0 -104 143
l1 4q3 7 181 143zM1550 926h69q5 0 53 -74l-146 -547q-2 -6 -93 -74h-69q-6 0 -108 148l107 400q4 7 187 147zM727 296q101 -5 285 -5h225q7 -1 105 -142l-19 -69q-1 -6 -100 -79h-1145q-6 0 -57 79l19 69q3 7 180 142h226q191 0 281 5z" />
    <glyph glyph-name="T" unicode="T" horiz-adv-x="1636" 
d="M614 2016h1288q6 0 55 -73l-20 -74q-2 -6 -182 -143h-557q-10 0 -19 -4q-7 4 -17 4h-557q-6 0 -104 143l20 74q1 5 93 73zM1157 1639h74q5 0 51 -69q-34 -126 -81 -317q-54 -187 -91 -322l-92 -69h-69q-6 0 -105 142l17 65q33 123 46 184q20 61 53 184l16 59q4 7 181 143
zM858 779h69q6 -1 104 -143l-17 -64q-33 -123 -45 -184q-20 -61 -53 -184l-16 -60q-2 -6 -182 -143h-74q-5 0 -50 69q36 136 82 322q51 176 89 318z" />
    <glyph glyph-name="U" unicode="U" horiz-adv-x="1636" 
d="M613 2012h69q7 -2 107 -148l-182 -680q-1 -6 -186 -148h-69q-6 0 -55 74l222 828q2 6 94 74zM1827 2012h69q6 0 58 -79l-217 -809q-7 -25 -97 -88h-74q-5 0 -108 148l179 667q7 26 190 161zM337 981h69q7 -1 107 -147l-121 -455q-2 -6 -187 -148h-69q-6 0 -54 74l161 603
q2 5 94 73zM1551 981h69q6 0 54 -73q-17 -66 -76 -304q-62 -213 -87 -304l-92 -69h-69q-102 130 -102 147v1q37 140 55 225q29 92 69 239zM364 291h855q7 -1 108 -147l-19 -69q-2 -6 -93 -74h-1003q-6 0 -54 74l19 69q3 7 187 147z" />
    <glyph glyph-name="V" unicode="V" 
d="M614 2016h69q7 -1 108 -147l-183 -681q-1 -6 -186 -147h-69q-6 0 -54 74l222 828q1 5 93 73zM1837 2016h69q6 0 55 -73l-222 -828q-2 -6 -94 -74h-69q-5 0 -108 147l183 681q3 7 186 147zM1625 949q41 -34 41 -65q0 -7 -2 -13q-14 -67 -15 -74q-589 -552 -594 -552
q-74 -9 -109 -9q-39 39 -39 60q0 2 1 4q10 35 32 184q470 440 477 442q201 23 208 23zM318 944q205 -24 207 -32q5 -18 179 -345q43 -85 51 -87q-82 -216 -90 -216q-14 0 -56 -37q-106 11 -106 18q-286 535 -289 552q33 124 75 124q1 4 29 23zM796 291l103 -147l-19 -69
q-2 -6 -93 -74h-143q-6 0 -53 74l19 69q2 7 186 147z" />
    <glyph glyph-name="W" unicode="W" horiz-adv-x="2790" 
d="M614 2016h69q7 -1 108 -147l-183 -681q-1 -6 -186 -147h-69q-6 0 -54 74l222 828q1 5 93 73zM1837 2016h69q6 0 55 -73l-287 -1068q-1 -5 -98 -78h-65q-5 0 -108 147l248 925q3 7 186 147zM2987 2016h69q6 0 55 -73l-222 -828q-2 -6 -94 -74h-69q-5 0 -108 147l183 681
q3 7 186 147zM2775 949q41 -34 41 -65q0 -7 -2 -13q-14 -67 -15 -74q-589 -552 -594 -552q-74 -9 -109 -9q-39 39 -39 60q0 2 1 4q10 35 32 184q470 440 477 442q201 23 208 23zM318 944q205 -24 207 -32q5 -18 179 -345q43 -85 51 -87q-82 -216 -90 -216q-14 0 -56 -37
q-106 11 -106 18q-286 535 -289 552q33 124 75 124q1 4 29 23zM1397 733q39 -39 39 -60q0 -2 -1 -5q-3 -13 -14 -87l-366 -336q-74 -9 -109 -9q-39 39 -39 60q0 2 1 4q10 35 32 184l244 226zM1580 728q207 -23 207 -32q102 -202 118 -216q-82 -216 -90 -216q-14 0 -56 -37
q-106 11 -106 18q-164 306 -177 336q30 115 63 115zM796 291l103 -147l-19 -69q-2 -6 -93 -74h-143q-6 0 -53 74l19 69q2 7 186 147zM1946 291l103 -147l-19 -69q-2 -6 -93 -74h-143q-6 0 -53 74l19 69q2 7 186 147z" />
    <glyph glyph-name="X" unicode="X" horiz-adv-x="1442" 
d="M613 2012h73l109 -143l-7 -9l-17 -65q-1 -5 -94 -73h-138q-6 0 -53 73l35 148zM1634 2012h73q6 0 54 -74l-37 -138q-1 -6 -99 -78h-138q-6 0 -54 73l20 74q3 7 181 143zM525 1667q206 -21 206 -36v-1l155 -299q-74 -216 -95 -216q-16 -5 -50 -33q-108 12 -108 27v1
q-205 382 -217 409q5 17 37 106q13 5 72 42zM1611 1667q46 -28 46 -61q0 -6 -2 -13q-12 -57 -12 -70q0 -3 1 -4q-365 -342 -458 -423q-85 -9 -105 -14q-41 39 -41 65q0 5 1 9l30 179q331 309 336 309zM892 1151h78q15 -11 104 -147l-186 -147h-60q-28 0 -110 138q-7 0 -7 6
v3q150 128 181 147zM699 926q39 -35 39 -58q0 -3 -1 -6v-1q0 -20 -28 -188l-322 -294q-6 -19 -84 -19q0 -3 -133 -18q-47 30 -47 59q0 5 1 10q5 18 13 83q4 0 422 391q9 32 140 41zM1039 926q114 -7 114 -33v-4q42 -70 215 -400q-37 -115 -58 -115q-43 -25 -45 -32
q-192 19 -208 32l-162 304q80 211 88 211q14 4 56 37zM156 291h138q6 0 54 -73l-17 -65l2 -9l-186 -143h-73q-52 58 -52 79q0 2 1 4q36 118 41 138zM1104 291h142q6 0 54 -73l-38 -143q-2 -6 -94 -74h-73q-6 0 -104 143l19 74q2 5 94 73z" />
    <glyph glyph-name="Y" unicode="Y" horiz-adv-x="1636" 
d="M614 2016h74l109 -142l-8 -10l-17 -64q-1 -6 -93 -74h-138q-6 0 -54 74q6 21 32 138q4 13 95 78zM1833 2016h69q6 0 55 -73l-39 -143q-1 -6 -94 -74h-143q-5 0 -53 74l19 69q3 7 186 147zM1812 1680q46 -32 46 -51q0 -2 -1 -4q-4 -50 -15 -92l-422 -405
q-157 -142 -159 -151q-93 -10 -109 -10q-43 28 -43 57q0 6 2 12q22 150 31 184q223 198 229 221q231 216 242 216zM518 1676q151 -19 200 -28l231 -441q-76 -221 -100 -221q-12 0 -44 -28q-114 7 -114 37q0 3 1 5q-12 10 -282 529q36 110 52 110q3 0 56 37zM987 1023l9 -5
h64q6 0 54 -74l-214 -800q-2 -6 -182 -143h-74q-5 0 -53 74l233 869q2 6 93 74h65q4 0 5 5z" />
    <glyph glyph-name="Z" unicode="Z" horiz-adv-x="1636" 
d="M609 2016h1298q5 0 51 -69l-21 -78q-2 -6 -182 -143h-1150q-6 0 -104 143l21 78q1 6 87 69zM1642 1680q42 -43 42 -65v-4q-4 -13 -20 -87q-509 -460 -532 -474q-20 0 -102 -4q-34 39 -34 56v4q0 19 34 197q17 9 314 281q82 78 100 78q134 14 192 14q1 4 6 4zM967 1050
l42 -50q-18 -84 -23 -106l-624 -557q-61 -4 -98 -4q-1 -5 -5 -5q-43 42 -43 64q0 3 1 5l36 184q337 313 508 455zM221 291h1150q7 -1 105 -142l-20 -74q-2 -6 -94 -74h-1288q-6 0 -54 74l20 74q4 7 181 142z" />
    <glyph glyph-name="bracketleft" unicode="[" horiz-adv-x="1492" 
d="M751 1997h1003q5 0 53 -74l-20 -74q-1 -5 -180 -142h-860q-6 0 -108 147l18 69q2 6 94 74zM526 1707h73q7 -1 109 -147l-75 -281q-2 -6 -188 -147h-69q-5 0 -53 73l116 433q2 6 87 69zM362 1077h69q6 -1 108 -148l-76 -285q-2 -5 -188 -147h-69q-5 0 -53 74l116 432
q1 6 93 74zM191 442h74q7 -1 108 -147l-75 -281q-2 -6 -187 -147h-69q-6 0 -54 73l116 433q2 6 87 69zM269 -78h860q7 -1 104 -143l-20 -73q-1 -6 -93 -74h-1003q-6 0 -54 74l19 69q3 7 187 147z" />
    <glyph glyph-name="backslash" unicode="\" horiz-adv-x="1442" 
d="M614 2016h73l109 -142l-7 -10l-17 -64q-1 -6 -94 -74h-138q-6 0 -53 74q6 21 32 138q4 13 95 78zM522 1671q207 -23 207 -32l158 -304q-72 -211 -89 -211l-56 -37q-114 7 -114 36q0 3 1 5q-210 374 -210 400v1q32 119 74 119zM894 1156h69q21 -20 103 -147
q-150 -128 -182 -147h-69q-21 19 -103 147q150 127 182 147zM1044 926q108 0 108 -25v-3q38 -65 217 -404q-32 -120 -68 -120q-1 -6 -40 -28q-202 20 -202 33q-157 295 -164 299l84 211zM1105 296h138q6 0 57 -78l-37 -138q-1 -6 -99 -79h-65q-5 0 -107 148l19 73q2 6 94 74
z" />
    <glyph glyph-name="bracketright" unicode="]" horiz-adv-x="1492" 
d="M1611 1997q54 -66 54 -74l-18 -69q-182 -147 -187 -147h-861q-104 136 -104 142l20 74q88 74 93 74h1003zM1680 1707q51 -61 51 -68v-1l-116 -433q-88 -73 -93 -73h-69q-107 138 -107 147l75 281q179 146 186 147h73zM1508 1077q53 -67 53 -74l-116 -432q-88 -74 -93 -74
h-69q-107 139 -107 147l76 285q179 147 187 148h69zM1337 442q51 -61 51 -68v-1l-116 -433q-88 -73 -94 -73h-69q-107 138 -107 147l75 281q179 146 186 147h74zM982 -78q108 -139 108 -147l-19 -69q-88 -74 -94 -74h-1003q-53 67 -53 74l20 73q173 142 180 143h861z" />
    <glyph glyph-name="asciicircum" unicode="^" horiz-adv-x="1534" 
d="M1143 2186h197q7 0 41 -55l-27 -101l-130 -106q-53 5 -77 5h-27l-79 101l16 46l15 55q2 7 71 55zM1415 1984h69q6 -1 107 -147l-15 -55q-6 -26 -96 -88h-143q-6 0 -53 74l17 64v2q0 3 -4 3l8 9l17 64q1 6 93 74zM916 1979h65q6 0 57 -78l-37 -138q-1 -6 -93 -73
q-20 0 -140 -5q-12 0 -58 74l20 73q3 7 186 147zM1573 1699h55q26 0 122 -147l-19 -69q-1 -6 -99 -79h-138q-6 0 -54 74l39 147q2 6 94 74zM600 1690h74q52 -63 52 -77v-2q-6 -21 -42 -142l-93 -69h-138q-6 0 -53 73l17 65l-2 9z" />
    <glyph glyph-name="underscore" unicode="_" horiz-adv-x="1428" 
d="M221 291h943q6 -1 104 -142l-20 -74q-2 -6 -93 -74h-1081q-6 0 -54 74l20 74q3 7 181 142z" />
    <glyph glyph-name="grave" unicode="`" horiz-adv-x="724" 
d="M783 2651h69q7 -1 109 -147l-19 -69q-1 -6 -93 -74h-143q-5 0 -54 74l39 142q1 6 92 74zM956 2366h55q7 -1 108 -147l-19 -69q-2 -6 -99 -79h-133q-6 0 -58 79l38 142q83 74 108 74z" />
    <glyph glyph-name="a" unicode="a" horiz-adv-x="1644" 
d="M761 2016h1002q6 0 55 -73l-20 -74q-2 -6 -182 -143h-864q-6 0 -104 143l20 74q1 5 93 73zM557 1786h69l106 -138q-23 -99 -36 -147l-32 -120q-13 -48 -43 -147l-186 -142h-64l-56 69q23 99 35 147l71 262q13 48 43 147zM1776 1786h69l55 -69q-46 -186 -70 -276
q-21 -78 -79 -280l-92 -69h-64q-6 0 -109 147q12 45 50 202q43 146 60 207zM1032 1156q222 -5 435 -5l100 -142q-1 -6 -186 -147h-856q-6 0 -108 147q3 7 181 142q212 0 434 5zM320 921h74q7 -1 105 -142l-170 -635q-2 -6 -182 -143h-69q-6 0 -54 74q121 467 139 534
q63 218 71 248zM1544 921h74q5 0 50 -69l-55 -207q-33 -123 -45 -184q-21 -61 -54 -184l-54 -202q-2 -6 -94 -74h-69q-6 0 -104 143q88 345 133 511q9 35 38 128z" />
    <glyph glyph-name="b" unicode="b" horiz-adv-x="1644" 
d="M761 2016h1002q6 0 55 -73l-20 -74q-2 -6 -182 -143h-864q-6 0 -104 143l20 74q1 5 93 73zM557 1786h69l106 -138q-23 -99 -36 -147l-32 -120q-13 -48 -43 -147l-186 -142h-64l-56 69q23 99 35 147l71 262q13 48 43 147zM1776 1786h69l55 -69q-46 -186 -70 -276
q-21 -78 -79 -280l-92 -69h-64q-6 0 -109 147q12 45 50 202q43 146 60 207zM1032 1156q222 -5 435 -5l100 -142q-1 -6 -186 -147h-856q-6 0 -108 147q3 7 181 142q212 0 434 5zM320 921h74q7 -1 105 -142q-12 -44 -51 -203q-43 -146 -59 -207l-180 -138h-69l-56 69
q46 187 70 276q22 79 80 281zM1544 921h74l52 -64q-48 -194 -74 -290q-22 -83 -76 -267l-92 -69h-69q-6 0 -105 143q14 53 52 207q43 148 58 202zM372 291h856q7 -1 108 -147l-19 -69q-2 -6 -94 -74h-1002q-6 0 -54 74l19 69q2 7 186 147z" />
    <glyph glyph-name="c" unicode="c" 
d="M756 2016h1150q6 0 55 -73l-19 -69q-1 -6 -187 -148h-1003q-6 0 -107 148l19 69q1 5 92 73zM553 1786h69q6 -1 107 -147l-122 -455q-1 -6 -186 -148h-69q-6 0 -55 74l162 603q1 5 94 73zM337 981h69q7 -1 107 -147l-121 -455q-2 -6 -187 -148h-69q-6 0 -54 74l161 603
q2 5 94 73zM368 291h1003q7 -1 108 -147l-19 -69q-2 -6 -94 -74h-1150q-5 0 -53 74l19 69q2 7 186 147z" />
    <glyph glyph-name="d" unicode="d" 
d="M683 2016h1081q5 0 54 -73l-19 -69q-1 -6 -187 -148h-860q-6 0 -107 148zM479 1786h143q6 -1 107 -147l-123 -460q-2 -6 -181 -143h-147zM1776 1786h69q6 0 54 -73l-162 -603q-1 -6 -93 -74h-69q-5 0 -108 148l122 455q3 7 187 147zM263 981h143q7 -1 107 -147l-123 -460
q-1 -6 -181 -143h-147zM1560 981h69q6 0 54 -73l-161 -603q-2 -6 -94 -74h-69q-5 0 -107 148l121 455q3 7 187 147zM368 291h860q7 -1 108 -147l-19 -69q-2 -6 -93 -74h-1081l39 143q2 7 186 147z" />
    <glyph glyph-name="e" unicode="e" 
d="M761 2016h1145q6 0 55 -73l-20 -74q-2 -6 -182 -143h-1007q-6 0 -104 143l20 74q1 5 93 73zM557 1786h69l106 -138q-22 -99 -35 -147l-32 -120q-13 -48 -44 -147l-185 -142h-65l-55 69q22 99 34 147l71 262q13 48 44 147zM1032 1156q223 -5 435 -5l100 -142
q-1 -6 -186 -147h-855q-6 0 -109 147q3 7 181 142q213 0 434 5zM321 921h73q7 -1 105 -142q-12 -44 -50 -203q-44 -146 -60 -207l-180 -138h-69l-55 69q45 187 69 276q22 79 81 281zM373 291h1002q7 -1 105 -142l-20 -74q-2 -6 -94 -74h-1145q-6 0 -54 74l19 69q2 7 187 147
z" />
    <glyph glyph-name="f" unicode="f" horiz-adv-x="1644" 
d="M761 2016h1150q5 0 54 -73l-19 -69q-1 -6 -187 -148h-1003q-6 0 -107 148l19 69q1 5 93 73zM557 1786h69q6 -1 107 -147l-107 -400q-2 -6 -186 -147h-69q-6 0 -55 73l147 548q1 5 94 73zM1032 1156q222 -5 435 -5l100 -142q-1 -6 -186 -147h-856q-6 0 -108 147
q3 7 181 142q212 0 434 5zM320 921h74q7 -1 107 -147l-54 -202q-20 -75 -33 -111q-6 -35 -26 -110l-54 -202q-2 -6 -187 -148h-69q-6 0 -54 74q44 163 115 442q58 203 95 340z" />
    <glyph glyph-name="g" unicode="g" horiz-adv-x="1644" 
d="M763 2021h1002q6 0 54 -74l-20 -73q-1 -6 -181 -143q-212 0 -434 -5q-222 5 -435 5l-100 143l20 73q1 6 94 74zM558 1791h64l110 -143q-23 -99 -36 -147l-10 -37q-25 -94 -80 -285l-180 -138h-74l-52 64q50 202 76 299l46 171q13 48 43 147zM1106 1156h427q6 0 54 -74
l-19 -69q-1 -5 -186 -147h-281q-6 0 -108 147l19 69q2 6 94 74zM342 986h64q107 -134 107 -151v-1q-37 -140 -56 -225q-26 -81 -67 -235l-180 -138h-74q-5 0 -50 69q17 66 77 304q67 234 87 308zM1545 926h74l52 -64q-47 -191 -73 -286q-20 -75 -78 -276l-86 -64h-74
q-6 0 -104 143q11 44 50 202q43 146 59 207zM373 296h856q7 -1 108 -147l-19 -69q-1 -6 -93 -74q-478 -5 -641 -5q-53 0 -122 5q-29 -5 -126 -5h-19q-54 0 -168 5l38 143q3 7 186 147z" />
    <glyph glyph-name="h" unicode="h" horiz-adv-x="1644" 
d="M618 2016h69q7 -1 108 -147l-169 -630q-2 -6 -186 -147h-69q-6 0 -55 73l209 778q1 5 93 73zM1842 2016h69q5 0 54 -73l-207 -773q-2 -6 -99 -78h-64q-6 0 -109 147l169 630q4 7 187 147zM1032 1156q222 -5 435 -5l100 -142q-1 -6 -186 -147h-856q-6 0 -108 147
q3 7 181 142q212 0 434 5zM320 921h74q7 -1 107 -147l-54 -202q-20 -75 -33 -111q-6 -35 -26 -110l-54 -202q-2 -6 -187 -148h-69q-6 0 -54 74q20 75 139 534q57 197 71 248zM1544 921h74q5 0 53 -73l-207 -773q-2 -6 -93 -74h-74q-6 0 -104 143q88 345 130 501
q11 40 41 138z" />
    <glyph glyph-name="i" unicode="i" horiz-adv-x="490" 
d="M614 2016h69q7 -1 108 -147l-184 -685q-1 -6 -186 -148h-69q-6 0 -55 74l224 833q1 5 93 73zM410 981h69q6 0 54 -73l-223 -833q-2 -6 -94 -74h-69q-5 0 -107 148l183 685q3 7 187 147z" />
    <glyph glyph-name="j" unicode="j" horiz-adv-x="1644" 
d="M1841 2012h64q6 0 54 -74q-131 -505 -156 -598q-7 -28 -67 -235l-92 -69h-69q-6 0 -105 143q10 39 53 212q41 140 52 179v2q0 3 -3 3l13 32l68 257q4 7 188 148zM1560 981h69q6 0 54 -73q-17 -66 -77 -304q-61 -213 -86 -304l-92 -69h-69q-103 130 -103 147v1
q37 140 56 225q28 92 68 239zM320 921h74q7 -1 105 -142q-12 -44 -51 -203q-43 -146 -59 -207l-180 -138h-69l-56 69q46 187 70 276q22 79 80 281zM372 291h860q7 -1 105 -142l-40 -148h-1076q-6 0 -54 74l19 69q2 7 186 147z" />
    <glyph glyph-name="k" unicode="k" horiz-adv-x="1644" 
d="M1890 2021q1 -12 1 -63t-1 -140q-58 -59 -477 -561q-206 -50 -216 -50l1 4v189q80 99 484 570q19 0 208 51zM618 2016h69q7 -1 108 -147l-169 -630q-2 -6 -186 -147h-64q-6 0 -58 78l207 773q1 5 93 73zM1037 1156q220 -5 430 -5l104 -147l-186 -142h-860q-6 0 -108 147
l185 142q213 0 435 5zM325 921h74q7 -1 104 -142l-61 -226q-16 -59 -28 -92q-5 -32 -21 -92l-59 -220q-2 -6 -187 -148h-69q-6 0 -54 74q20 75 139 534q2 5 69 243zM1544 921h74q5 0 53 -73l-207 -773q-2 -6 -93 -74h-69q-6 0 -108 148q88 342 129 496q11 40 41 138z" />
    <glyph glyph-name="l" unicode="l" horiz-adv-x="1498" 
d="M613 2012h69q7 -2 107 -148l-182 -680q-1 -6 -186 -148h-69q-6 0 -55 74l222 828q2 6 94 74zM337 981h69q7 -1 107 -147l-121 -455q-2 -6 -187 -148h-69q-6 0 -54 74l161 603q2 5 94 73zM368 291h860q7 -1 109 -147l-19 -69q-2 -6 -94 -74h-1081l39 143q2 7 186 147z" />
    <glyph glyph-name="m" unicode="m" horiz-adv-x="1994" 
d="M618 2016h69q7 -1 108 -147l-185 -690q-2 -6 -180 -143h-74q-6 0 -54 74l224 833q1 5 92 73zM2187 2016h69q6 0 54 -73l-224 -833q-1 -6 -92 -74h-74q-6 0 -104 143l185 690q3 7 186 147zM952 1855q164 -71 172 -83l83 -510q-111 -176 -130 -193q-62 -28 -76 -28
q-82 34 -82 50v1l-107 634q62 106 79 106q7 0 61 23zM1836 1855q65 -25 65 -46v-4q5 -58 5 -74v-5q-432 -622 -463 -653l-101 -32q-60 22 -60 49q0 3 1 6q-20 146 -20 164v2q353 507 369 520zM1201 1101l104 -147l-19 -69q-1 -6 -94 -74h-142q-6 0 -54 74l19 69q2 7 186 147
zM341 981h69q7 -1 107 -147l-38 -143q-37 -138 -58 -202q-13 -63 -50 -202l-38 -143q-2 -6 -181 -143h-74q-6 0 -53 74q33 121 129 501q72 250 95 336zM1910 981h69q6 0 53 -73q-22 -82 -85 -336q-105 -376 -139 -502l-92 -69h-74q-6 0 -103 143l38 143q37 139 58 202
q13 64 50 202l38 143q3 7 187 147z" />
    <glyph glyph-name="n" unicode="n" horiz-adv-x="1644" 
d="M618 2016h69q7 -1 108 -147l-184 -685q-1 -6 -186 -148h-69q-6 0 -55 74l224 833q1 5 93 73zM1842 2016h64q6 0 57 -78l-222 -828q-1 -6 -92 -74h-74q-6 0 -105 143l185 690q4 7 187 147zM341 981h69q7 -1 107 -147l-33 -124q-39 -147 -63 -221q-16 -74 -55 -221
l-32 -119q-2 -6 -187 -148h-69q-6 0 -54 74q33 123 129 497q76 267 95 340zM1565 981h64q6 0 57 -78l-222 -828q-2 -6 -93 -74h-74q-6 0 -104 143q88 344 116 451q68 238 70 244zM1050 1181q-164 71 -171 83l-84 510q112 176 130 193q63 28 77 28q82 -34 82 -50v-1l106 -634
q-61 -106 -78 -106q-7 0 -62 -23zM1045 1090q156 -82 162 -95l49 -523q-120 -171 -140 -188q-61 -23 -76 -23h-1q-78 39 -78 55v1l-63 651q68 102 85 102q7 0 62 20z" />
    <glyph glyph-name="o" unicode="o" 
d="M756 2016h1008q5 0 54 -73l-19 -69q-1 -6 -187 -148h-860q-6 0 -104 143l21 78q1 6 87 69zM553 1786h73q6 -1 105 -142l-109 -405q-2 -6 -181 -143h-73q-6 0 -54 74l145 543q1 5 94 73zM1776 1786h69q6 0 54 -73l-145 -543q-2 -6 -94 -74h-69q-5 0 -108 147l106 396
q3 7 187 147zM326 926h65q7 -1 108 -147l-107 -400q-2 -6 -187 -148h-65q-5 0 -57 79l144 538q2 6 99 78zM1545 926h69q6 0 54 -74l-146 -547q-2 -6 -94 -74h-69q-5 0 -107 148l107 400q3 7 186 147zM368 291h860q7 -1 108 -147l-19 -69q-2 -6 -93 -74h-1003q-6 0 -54 74
l20 74q3 7 181 142z" />
    <glyph glyph-name="p" unicode="p" horiz-adv-x="1644" 
d="M1269 2021q359 -5 504 -5l46 -69l-20 -73q-1 -6 -187 -148h-856q-6 0 -107 148l20 73q1 6 87 69q115 0 513 5zM552 1786h74l106 -138q-23 -99 -36 -147l-32 -120q-13 -48 -43 -147l-180 -138h-69l-56 69q23 99 36 147l70 263q13 48 43 147zM1776 1786h74l51 -64
q-48 -195 -73 -290q-23 -83 -76 -267l-92 -69h-69q-6 0 -105 143q14 53 51 207q44 148 59 202zM604 1156h856q6 -1 107 -147q-1 -6 -181 -143h-864q-6 0 -105 143q3 7 187 147zM326 926h69q7 -1 105 -143l-42 -156q-16 -59 -31 -129l-8 -18q-16 -73 -25 -106
q-12 -46 -65 -230l-187 -143h-64l-55 69q42 174 61 244q34 127 150 543z" />
    <glyph glyph-name="q" unicode="q" 
d="M1263 2019q360 -5 505 -5l46 -69l-20 -74q-1 -5 -186 -147h-856q-6 0 -108 147l19 69q1 6 93 74q138 0 507 5zM547 1784h74q7 -1 108 -147l-106 -396q-2 -6 -187 -147h-69q-6 0 -54 74l147 547q1 6 87 69zM1771 1784h73q6 0 54 -74l-145 -542q-2 -6 -94 -74h-73
q-6 0 -105 143l109 404q3 7 181 143zM322 924h69q6 -1 107 -147l-107 -401q-2 -5 -187 -147h-69q-6 0 -54 74l147 547q1 6 94 74zM1545 924h69q6 0 54 -74l-146 -543q-1 -5 -99 -78h-65q-5 0 -107 147l107 401q3 6 187 147zM820 639h55q26 0 122 -148l-19 -69q-1 -5 -99 -78
h-138q-6 0 -54 74l39 147q2 6 94 74zM797 294q222 -5 435 -5l100 -143l-19 -73q-2 -6 -94 -74h-998q-6 0 -57 78l18 69q3 7 180 143q213 0 435 5zM638 -42h142q6 0 54 -74l-19 -69q-1 -6 -186 -147h-69q-6 0 -54 74l38 142q2 6 94 74z" />
    <glyph glyph-name="r" unicode="r" 
d="M759 2025h1003q6 0 54 -73l-20 -74q-1 -6 -181 -142h-860q-6 0 -107 147l18 69q2 6 93 73zM555 1795h69q7 -1 108 -147l-108 -400q-1 -6 -186 -147h-69q-6 0 -54 73l146 548q2 6 94 73zM1778 1795h69q6 0 54 -73l-155 -580q-2 -6 -94 -73h-73q-6 0 -105 142l118 437
q2 7 186 147zM589 1133h861q5 -1 107 -147l-18 -69q-86 -74 -98 -74q-141 0 -346 -4q-141 4 -183 4l-75 -4q-77 4 -174 4h-83q-5 0 -108 147l18 65q1 6 99 78zM318 931h74q7 -2 108 -148l-168 -625q-1 -6 -186 -147h-69q-6 0 -54 73l208 778q1 5 87 69zM1245 797
q67 -4 99 -4q53 -75 217 -309l-27 -101q-2 -6 -65 -50h-106q-112 0 -112 24v3q-6 0 -131 180l56 211q10 0 69 46zM1303 296h142q6 0 54 -74l-38 -142q-1 -6 -93 -74h-64q-5 0 -7 -5l-7 5h-64q-6 0 -55 74l38 142q2 6 94 74z" />
    <glyph glyph-name="s" unicode="s" horiz-adv-x="1644" 
d="M1333 2021q191 -5 578 -5l50 -73l-19 -69q-1 -6 -188 -148h-993q-6 0 -107 148l20 73q79 69 91 69q367 0 568 5zM557 1786h74q6 -1 104 -142l-109 -405q-2 -6 -180 -143h-74q-6 0 -54 74l145 543q1 5 94 73zM604 1156h860q6 -1 108 -147l-186 -143h-860q-6 0 -104 143
l1 4q3 7 181 143zM1550 926h69q5 0 53 -74l-146 -547q-2 -6 -93 -74h-69q-6 0 -108 148l107 400q4 7 187 147zM727 296q101 -5 285 -5h225q7 -1 105 -142l-19 -69q-1 -6 -100 -79h-1145q-6 0 -57 79l19 69q3 7 180 142h226q191 0 281 5z" />
    <glyph glyph-name="t" unicode="t" horiz-adv-x="1636" 
d="M614 2016h1288q6 0 55 -73l-20 -74q-2 -6 -182 -143h-557q-10 0 -19 -4q-7 4 -17 4h-557q-6 0 -104 143l20 74q1 5 93 73zM1157 1639h74q5 0 51 -69q-34 -126 -81 -317q-54 -187 -91 -322l-92 -69h-69q-6 0 -105 142l17 65q33 123 46 184q20 61 53 184l16 59q4 7 181 143
zM858 779h69q6 -1 104 -143l-17 -64q-33 -123 -45 -184q-20 -61 -53 -184l-16 -60q-2 -6 -182 -143h-74q-5 0 -50 69q36 136 82 322q51 176 89 318z" />
    <glyph glyph-name="u" unicode="u" horiz-adv-x="1636" 
d="M613 2012h69q7 -2 107 -148l-182 -680q-1 -6 -186 -148h-69q-6 0 -55 74l222 828q2 6 94 74zM1827 2012h69q6 0 58 -79l-217 -809q-7 -25 -97 -88h-74q-5 0 -108 148l179 667q7 26 190 161zM337 981h69q7 -1 107 -147l-121 -455q-2 -6 -187 -148h-69q-6 0 -54 74l161 603
q2 5 94 73zM1551 981h69q6 0 54 -73q-17 -66 -76 -304q-62 -213 -87 -304l-92 -69h-69q-102 130 -102 147v1q37 140 55 225q29 92 69 239zM364 291h855q7 -1 108 -147l-19 -69q-2 -6 -93 -74h-1003q-6 0 -54 74l19 69q3 7 187 147z" />
    <glyph glyph-name="v" unicode="v" 
d="M614 2016h69q7 -1 108 -147l-183 -681q-1 -6 -186 -147h-69q-6 0 -54 74l222 828q1 5 93 73zM1837 2016h69q6 0 55 -73l-222 -828q-2 -6 -94 -74h-69q-5 0 -108 147l183 681q3 7 186 147zM1625 949q41 -34 41 -65q0 -7 -2 -13q-14 -67 -15 -74q-589 -552 -594 -552
q-74 -9 -109 -9q-39 39 -39 60q0 2 1 4q10 35 32 184q470 440 477 442q201 23 208 23zM318 944q205 -24 207 -32q5 -18 179 -345q43 -85 51 -87q-82 -216 -90 -216q-14 0 -56 -37q-106 11 -106 18q-286 535 -289 552q33 124 75 124q1 4 29 23zM796 291l103 -147l-19 -69
q-2 -6 -93 -74h-143q-6 0 -53 74l19 69q2 7 186 147z" />
    <glyph glyph-name="w" unicode="w" horiz-adv-x="2790" 
d="M614 2016h69q7 -1 108 -147l-183 -681q-1 -6 -186 -147h-69q-6 0 -54 74l222 828q1 5 93 73zM1837 2016h69q6 0 55 -73l-287 -1068q-1 -5 -98 -78h-65q-5 0 -108 147l248 925q3 7 186 147zM2987 2016h69q6 0 55 -73l-222 -828q-2 -6 -94 -74h-69q-5 0 -108 147l183 681
q3 7 186 147zM2775 949q41 -34 41 -65q0 -7 -2 -13q-14 -67 -15 -74q-589 -552 -594 -552q-74 -9 -109 -9q-39 39 -39 60q0 2 1 4q10 35 32 184q470 440 477 442q201 23 208 23zM318 944q205 -24 207 -32q5 -18 179 -345q43 -85 51 -87q-82 -216 -90 -216q-14 0 -56 -37
q-106 11 -106 18q-286 535 -289 552q33 124 75 124q1 4 29 23zM1397 733q39 -39 39 -60q0 -2 -1 -5q-3 -13 -14 -87l-366 -336q-74 -9 -109 -9q-39 39 -39 60q0 2 1 4q10 35 32 184l244 226zM1580 728q207 -23 207 -32q102 -202 118 -216q-82 -216 -90 -216q-14 0 -56 -37
q-106 11 -106 18q-164 306 -177 336q30 115 63 115zM796 291l103 -147l-19 -69q-2 -6 -93 -74h-143q-6 0 -53 74l19 69q2 7 186 147zM1946 291l103 -147l-19 -69q-2 -6 -93 -74h-143q-6 0 -53 74l19 69q2 7 186 147z" />
    <glyph glyph-name="x" unicode="x" horiz-adv-x="1442" 
d="M613 2012h73l109 -143l-7 -9l-17 -65q-1 -5 -94 -73h-138q-6 0 -53 73l35 148zM1634 2012h73q6 0 54 -74l-37 -138q-1 -6 -99 -78h-138q-6 0 -54 73l20 74q3 7 181 143zM525 1667q206 -21 206 -36v-1l155 -299q-74 -216 -95 -216q-16 -5 -50 -33q-108 12 -108 27v1
q-205 382 -217 409q5 17 37 106q13 5 72 42zM1611 1667q46 -28 46 -61q0 -6 -2 -13q-12 -57 -12 -70q0 -3 1 -4q-365 -342 -458 -423q-85 -9 -105 -14q-41 39 -41 65q0 5 1 9l30 179q331 309 336 309zM892 1151h78q15 -11 104 -147l-186 -147h-60q-28 0 -110 138q-7 0 -7 6
v3q150 128 181 147zM699 926q39 -35 39 -58q0 -3 -1 -6v-1q0 -20 -28 -188l-322 -294q-6 -19 -84 -19q0 -3 -133 -18q-47 30 -47 59q0 5 1 10q5 18 13 83q4 0 422 391q9 32 140 41zM1039 926q114 -7 114 -33v-4q42 -70 215 -400q-37 -115 -58 -115q-43 -25 -45 -32
q-192 19 -208 32l-162 304q80 211 88 211q14 4 56 37zM156 291h138q6 0 54 -73l-17 -65l2 -9l-186 -143h-73q-52 58 -52 79q0 2 1 4q36 118 41 138zM1104 291h142q6 0 54 -73l-38 -143q-2 -6 -94 -74h-73q-6 0 -104 143l19 74q2 5 94 73z" />
    <glyph glyph-name="y" unicode="y" horiz-adv-x="1636" 
d="M614 2016h74l109 -142l-8 -10l-17 -64q-1 -6 -93 -74h-138q-6 0 -54 74q6 21 32 138q4 13 95 78zM1833 2016h69q6 0 55 -73l-39 -143q-1 -6 -94 -74h-143q-5 0 -53 74l19 69q3 7 186 147zM1812 1680q46 -32 46 -51q0 -2 -1 -4q-4 -50 -15 -92l-422 -405
q-157 -142 -159 -151q-93 -10 -109 -10q-43 28 -43 57q0 6 2 12q22 150 31 184q223 198 229 221q231 216 242 216zM518 1676q151 -19 200 -28l231 -441q-76 -221 -100 -221q-12 0 -44 -28q-114 7 -114 37q0 3 1 5q-12 10 -282 529q36 110 52 110q3 0 56 37zM987 1023l9 -5
h64q6 0 54 -74l-214 -800q-2 -6 -182 -143h-74q-5 0 -53 74l233 869q2 6 93 74h65q4 0 5 5z" />
    <glyph glyph-name="z" unicode="z" horiz-adv-x="1636" 
d="M609 2016h1298q5 0 51 -69l-21 -78q-2 -6 -182 -143h-1150q-6 0 -104 143l21 78q1 6 87 69zM1642 1680q42 -43 42 -65v-4q-4 -13 -20 -87q-509 -460 -532 -474q-20 0 -102 -4q-34 39 -34 56v4q0 19 34 197q17 9 314 281q82 78 100 78q134 14 192 14q1 4 6 4zM967 1050
l42 -50q-18 -84 -23 -106l-624 -557q-61 -4 -98 -4q-1 -5 -5 -5q-43 42 -43 64q0 3 1 5l36 184q337 313 508 455zM221 291h1150q7 -1 105 -142l-20 -74q-2 -6 -94 -74h-1288q-6 0 -54 74l20 74q4 7 181 142z" />
    <glyph glyph-name="braceleft" unicode="{" horiz-adv-x="1866" 
d="M1124 1998h1003q6 0 55 -74l-20 -73q-2 -6 -181 -143h-860q-6 0 -108 147l19 69q1 6 92 74zM900 1708h74q6 -1 107 -147l-75 -281q-2 -6 -186 -147h-69q-6 0 -55 74l116 432q2 6 88 69zM736 1078h69q7 -1 107 -147l-76 -286q-2 -5 -187 -147h-69q-6 0 -54 74l116 432
q2 6 94 74zM316 903h143q5 0 53 -74l-38 -142q-2 -6 -93 -74h-143q-6 0 -54 74l38 142q2 6 94 74zM566 443h73q6 -1 107 -147l-75 -281q-2 -6 -186 -147h-69q-6 0 -54 74l116 432q2 6 88 69zM642 -77h860q7 -1 105 -142l-20 -74q-1 -6 -93 -74h-1003q-6 0 -54 74l19 69
q3 7 186 147z" />
    <glyph glyph-name="bar" unicode="|" horiz-adv-x="494" 
d="M684 2005h69q6 0 54 -74l-114 -428q-2 -5 -100 -78h-64q-6 0 -108 147l77 286q2 6 186 147zM455 1375h55q7 -2 112 -152l-76 -281q-1 -6 -186 -147h-74q-5 0 -53 74l116 432q81 74 106 74zM345 740h69q6 0 54 -74l-114 -428q-2 -5 -100 -78h-64q-6 0 -108 147l77 286
q3 6 186 147zM101 105h74q7 -1 108 -147l-76 -281q-1 -6 -186 -147h-69q-6 0 -54 74l116 432q1 6 87 69z" />
    <glyph glyph-name="braceright" unicode="}" horiz-adv-x="1866" 
d="M1612 1998q54 -67 54 -74l-19 -69q-180 -147 -186 -147h-860q-105 134 -105 143l20 73q87 74 93 74h1003zM1682 1708q50 -61 50 -68v-1l-116 -432q-87 -74 -93 -74h-69q-108 138 -108 147l75 281q180 146 187 147h74zM1508 1078q54 -66 54 -74l-116 -432q-88 -74 -94 -74
h-69q-107 139 -107 147l76 286q181 146 187 147h69zM1834 903q54 -66 54 -74l-38 -142q-88 -74 -94 -74h-143q-53 66 -53 74l38 142q88 74 93 74h143zM1338 443q50 -61 50 -68v-1l-116 -432q-86 -74 -92 -74h-69q-108 138 -108 147l75 281q179 146 187 147h73zM982 -77
q108 -139 108 -147l-19 -69q-86 -74 -92 -74h-1003q-55 67 -55 74l20 74q174 141 181 142h860z" />
    <glyph glyph-name="asciitilde" unicode="~" horiz-adv-x="1884" 
d="M912 1978h69q6 0 54 -73l-17 -65v-1q0 -3 3 -3l-7 -10l-17 -64q-1 -6 -94 -74h-143q-50 56 -50 82q0 3 1 6l15 55q2 7 186 147zM1179 1978h73q7 -1 105 -142l-20 -74q-1 -6 -94 -74h-142q-6 0 -54 74l38 143q2 5 94 73zM2067 1978h73q6 0 54 -73l-38 -143q-1 -6 -94 -74
h-142q-6 0 -54 74l20 74q3 7 181 142zM615 1693h55q6 0 54 -74l-40 -147q-1 -5 -93 -73h-138q-5 0 -57 78l18 69q175 147 201 147zM1342 1693h64l112 -147l-6 -9l-18 -65q-1 -5 -93 -73h-138q-6 0 -55 73l36 147zM1756 1693l7 -5h65q5 0 51 -69l-15 -55q-2 -6 -2 -11
q0 -4 1 -7q-6 -8 -9 -19l-15 -55q-1 -5 -93 -73h-138q-6 0 -57 78l17 64z" />
    <glyph glyph-name="exclamdown" unicode="&#xa1;" horiz-adv-x="490" 
d="M24 70q21 99 34 148l71 262q12 48 44 147l91 69h65q108 -138 108 -147l-108 -405q-174 -141 -182 -143h-69zM254 931q50 202 70 280q25 90 79 276l92 69h69q105 -136 105 -142l-109 -405q-174 -142 -181 -143h-73zM557 1786q-54 67 -54 74l38 142q88 74 93 74h69
q105 -134 105 -143l-21 -78q-81 -69 -87 -69h-143z" />
    <glyph glyph-name="cent" unicode="&#xa2;" horiz-adv-x="1498" 
d="M1162 1966h138q6 0 54 -74l-53 -198q-2 -6 -94 -73h-69q-6 0 -107 147l32 119q1 6 99 79zM712 1575h860q6 -2 108 -148l-186 -142h-860q-6 0 -107 147zM404 1230h69q6 -2 107 -148l-76 -285q-2 -6 -180 -142h-74q-6 0 -55 73l115 428q1 6 94 74zM481 714h860
q7 -1 109 -147l-19 -69q-1 -6 -93 -73q-138 0 -507 -5q-360 5 -505 5l-50 73l19 69q3 7 186 147zM723 342h142q6 0 54 -74l-52 -193q-2 -6 -94 -74h-69q-6 0 -107 148l32 119q1 6 94 74z" />
    <glyph glyph-name="sterling" unicode="&#xa3;" horiz-adv-x="1984" 
d="M1103 2021h1007q6 0 54 -74l-19 -69q-1 -6 -186 -147h-861q-5 0 -108 147l19 69q1 6 94 74zM883 1736h69q7 -2 108 -148l-108 -400q-1 -6 -186 -147h-69q-6 0 -53 74l146 547q2 6 93 74zM2046 1731h74q5 0 53 -74l-20 -73q-10 -39 -37 -124l-92 -69h-138q-6 0 -55 73l2 5
q8 31 10 55q11 24 19 55l-1 9zM1093 1179h120q5 0 53 -74l-38 -142l-89 -74q-86 -4 -125 -4h-60q-25 0 -67 73l20 74q2 7 186 147zM682 986h69q7 -1 108 -147l-122 -456q-2 -6 -187 -147h-69q-6 0 -53 74l161 602q2 6 93 74zM1807 636l8 -4h65q6 0 54 -74l-52 -193
q-2 -6 -93 -74h-69q-6 0 -108 147l33 120q1 6 92 74h65q4 0 5 4zM709 296h865q7 -1 108 -147l-17 -65q-2 -6 -99 -78h-1008q-6 0 -54 74l19 69q3 7 186 147zM156 291h119q7 -1 109 -147l-19 -69q-2 -6 -94 -74h-193q-6 0 -54 74l17 64q1 2 1 3q0 2 -3 2l6 9l17 65q2 5 94 73
z" />
    <glyph glyph-name="currency" unicode="&#xa4;" horiz-adv-x="1406" 
d="M680 2262h74l109 -142l-7 -9l-18 -65q-1 -6 -92 -73h-138q-6 0 -55 73l35 147zM1669 2262h74q5 0 51 -69l-40 -147q-1 -6 -93 -73h-138q-6 0 -57 78l17 64q3 7 186 147zM908 2032h142q6 0 55 -73l-19 -69q-1 -6 -186 -147h-69q-6 0 -54 73l38 143q1 5 93 73zM1248 2032
h143q6 0 54 -73l-38 -143q-2 -6 -93 -73h-74q-6 0 -104 142l20 74q1 5 92 73zM816 1687h73q7 -1 105 -142l-20 -74q-1 -6 -93 -73h-142q-6 0 -55 73l38 143q2 5 94 73zM1225 1687h74q6 0 53 -73l-37 -138q-1 -6 -98 -78h-138q-6 0 -54 73l20 74q3 7 180 142zM455 1402h138
q5 0 53 -73l-17 -65l2 -9l-191 -147h-64q-57 67 -57 82v1q6 21 43 142zM1370 1402h138q6 0 54 -73l-40 -148q-81 -73 -107 -73h-41q-27 0 -122 147l19 69q1 6 99 78z" />
    <glyph glyph-name="yen" unicode="&#xa5;" horiz-adv-x="1636" 
d="M622 2008h74q6 -1 104 -143l-20 -73q-1 -6 -93 -74h-138q-6 0 -57 78l37 138q1 6 93 74zM577 793h60q6 0 57 -78l-15 -55q-7 -27 -190 -161h-120q-5 0 -57 78l37 138l89 74q93 4 139 4zM1319 798h120q5 0 53 -74l-38 -142l-89 -74q-86 -4 -125 -4h-60q-25 0 -67 73l19 74
q3 7 187 147zM995 1014l26 -4h46q6 0 54 -74l-213 -796q-1 -5 -187 -147h-69q-5 0 -53 74l233 869q1 6 93 74h46q15 0 24 4zM526 1667q206 -21 206 -35v-1q0 -12 226 -428q-79 -216 -90 -216l-59 -33q-111 0 -111 32q0 2 1 5q-12 10 -281 529q33 124 74 124q2 7 34 23z
M1820 1672q39 -36 49 -41q-18 -99 -21 -111q-223 -201 -241 -230q-344 -322 -348 -322q-10 0 -104 -9q-33 41 -44 41q11 41 32 207l376 355q86 87 97 87q19 5 204 23zM1836 2008h74q6 0 54 -74l-38 -142q-2 -6 -94 -74h-142q-6 0 -54 74l19 73q3 7 181 143z" />
    <glyph glyph-name="brokenbar" unicode="&#xa6;" horiz-adv-x="1166" 
 />
    <glyph glyph-name="section" unicode="&#xa7;" horiz-adv-x="1226" 
d="M1021 2212h143q5 0 53 -74l-20 -73q-1 -6 -180 -143h-74q-6 0 -54 74l38 142q1 6 94 74zM1398 2212h147q6 0 54 -74l-37 -138q-2 -6 -99 -78h-69q-6 0 -105 143l21 78q2 5 88 69zM928 1867h152q5 0 53 -74l-18 -69l-13 -14l-16 -59q-1 -6 -92 -74h-138q-6 0 -59 78
l37 138q2 6 94 74zM584 1632h143q6 0 55 -73l-20 -74q-2 -6 -181 -143h-74q-5 0 -54 74l39 143q1 5 92 73zM1155 1632h69q7 -1 108 -147l-19 -69q-1 -6 -93 -74h-142q-6 0 -55 74l39 143q1 5 93 73zM1064 1292h142q6 0 54 -74l-18 -69q-2 -6 -187 -147h-69q-6 0 -54 74
l38 142q2 6 94 74zM492 1287h69q7 -1 108 -147l-18 -69q-2 -6 -94 -74h-143q-5 0 -53 74l38 143q2 5 93 73zM711 1057h143q5 0 54 -73l-18 -65v-2q0 -7 7 -7l-10 -23l-15 -55q-2 -6 -88 -69h-55q-11 0 -20 -5q-7 5 -17 5h-55q-6 0 -58 78l39 143q1 5 93 73zM628 712h138
q6 0 54 -73l-17 -65l1 -9l-185 -143h-73q-52 59 -52 80v3q37 117 42 138zM259 689h142q6 0 54 -73l-18 -69q-2 -6 -187 -148h-69q-6 0 -54 74l38 143q1 5 94 73z" />
    <glyph glyph-name="dieresis" unicode="&#xa8;" horiz-adv-x="1475" 
d="M793 2550q7 -5 18 -5h36q7 0 41 -55l-13 -51q-2 -6 -141 -110h-55q-7 0 -40 55l28 106q2 7 70 55h37q10 0 19 5zM1046 2550l8 -5h46q7 0 41 -55l-28 -106q-2 -7 -71 -55h-55l-82 106l7 9l12 46q2 7 71 55h46q4 0 5 5zM668 2288h55q7 0 81 -111l-13 -50q-2 -7 -71 -56h-36
q-11 0 -20 -4q-7 4 -17 4h-37q-7 0 -40 56l28 105q2 7 70 56zM976 2288h55q7 0 41 -56l-28 -105q-2 -7 -71 -56h-105q-7 0 -41 56l12 46l-1 9zM1597 2557q7 -5 17 -5h37q7 0 40 -55l-14 -51q-1 -7 -139 -110h-55q-7 0 -41 55l28 106q2 7 71 55h36q11 0 20 5zM1850 2557l8 -5
h46q7 0 40 -55l-28 -106q-2 -7 -70 -55h-55l-83 106l8 9l12 46q2 7 70 55h46q5 0 6 5zM1472 2295h55q7 0 80 -111l-13 -50q-2 -7 -70 -56h-37q-10 0 -19 -4q-7 4 -18 4h-36q-7 0 -41 56l28 105q2 7 71 56zM1780 2295h55q7 0 40 -56l-28 -105q-2 -7 -70 -56h-106q-7 0 -40 56
l12 46l-2 9z" />
    <glyph glyph-name="copyright" unicode="&#xa9;" 
d="M1264 2021q359 -5 504 -5l50 -73l-19 -69q-1 -6 -187 -148h-855q-6 0 -108 148l20 73q1 6 87 69q138 0 508 5zM553 1786h73q6 -1 105 -142l-109 -405q-2 -6 -181 -143h-73q-6 0 -54 74l145 543q1 5 94 73zM1776 1786h74q6 0 50 -69l-146 -547q-2 -6 -94 -74h-69
q-5 0 -108 147l106 396q3 7 187 147zM1013 1446h50q87 0 252 -5l36 -55l-27 -101q-127 -101 -137 -101q-21 0 -202 4l-69 101l28 102q2 7 69 55zM804 1165h102q5 0 77 -106l-27 -101q-2 -6 -128 -101h-110q-7 0 -41 55l52 193q2 7 75 60zM322 926h69q7 -1 108 -147
l-107 -400q-2 -6 -187 -148h-65q-5 0 -57 79l145 542q2 6 94 74zM1545 926h69q6 0 54 -74l-146 -547q-2 -6 -94 -74h-69q-5 0 -107 148l107 400q3 7 186 147zM887 820h101q4 0 4 -3v-1l10 4h97q5 0 77 -106l-25 -96q-2 -7 -71 -55h-312q-7 0 -41 55l25 96q2 6 135 106z
M801 296q224 -5 436 -5l100 -142l-19 -69q-1 -6 -99 -79h-998q-6 0 -54 74l20 74q3 7 181 142q213 0 433 5z" />
    <glyph glyph-name="ordfeminine" unicode="&#xaa;" horiz-adv-x="745" 
 />
    <glyph glyph-name="guillemotleft" unicode="&#xab;" horiz-adv-x="1086" 
 />
    <glyph glyph-name="logicalnot" unicode="&#xac;" horiz-adv-x="1166" 
 />
    <glyph glyph-name="registered" unicode="&#xae;" 
d="M1264 2021q359 -5 504 -5l47 -69l-20 -73q-1 -6 -187 -148h-856q-6 0 -107 148l19 69q1 5 92 73q138 0 508 5zM548 1786h74q6 -1 107 -147l-106 -396q-1 -5 -186 -147h-69q-6 0 -54 74l146 547q2 6 88 69zM1772 1786h73q6 0 54 -73l-145 -543q-2 -6 -94 -74h-73
q-6 0 -105 143l109 405q2 7 181 142zM1097 1519h55q87 0 252 -4v-1q0 -11 31 -54l-27 -102q-120 -101 -132 -101q-21 0 -202 5l-72 106l25 96q2 7 70 55zM837 1289h97q6 0 78 -105q-53 -181 -64 -221l-127 -97h-101q-7 0 -40 55l9 33q25 94 80 285zM322 926h69
q7 -1 108 -147l-107 -400q-2 -6 -187 -148h-69q-6 0 -54 74l146 547q2 6 94 74zM1545 926h69q6 0 54 -74l-145 -542q-2 -6 -99 -79h-65q-5 0 -107 148l107 400q3 7 186 147zM713 825h97q6 0 78 -106q-57 -194 -65 -221l-126 -96h-101q-7 0 -41 55l9 32q25 94 80 285z
M797 296q223 -5 436 -5l100 -142l-20 -74q-2 -6 -94 -74h-998q-6 0 -57 79l19 69q3 7 180 142q213 0 434 5z" />
    <glyph glyph-name="macron" unicode="&#xaf;" horiz-adv-x="771" 
 />
    <glyph glyph-name="degree" unicode="&#xb0;" horiz-adv-x="830" 
d="M619 2035h142q6 0 54 -74l-19 -74q-2 -5 -181 -142h-73q-6 0 -55 73l38 143q2 6 94 74zM959 2035h143q5 0 53 -74l-38 -143q-1 -5 -92 -73h-69q-6 0 -109 147l18 69q2 6 94 74zM527 1690h73q6 -2 105 -143l-20 -74q-2 -5 -94 -73h-138q-6 0 -57 78l37 138q2 6 94 74z
M936 1690h74q5 0 53 -74l-38 -143q-2 -5 -93 -73h-143q-6 0 -54 73l20 74q2 7 181 143z" />
    <glyph glyph-name="plusminus" unicode="&#xb1;" horiz-adv-x="1436" 
d="M1193 1753l8 -5h69q6 0 50 -69l-52 -197q-2 -6 -93 -74h-69q-6 0 -108 147l32 120q2 5 93 73h65q4 0 5 5zM527 1362h1086q5 0 54 -74l-19 -69q-1 -5 -186 -147h-943q-6 0 -105 143l20 73q1 6 93 74zM932 1017h64q7 -1 108 -147l-34 -124q-1 -6 -93 -74h-138q-6 0 -57 78
l51 189q1 5 99 78zM228 581h943q7 -1 105 -142l-20 -74q-2 -6 -94 -74h-1081q-6 0 -54 74l20 74q4 7 181 142z" />
    <glyph glyph-name="uni00B2" unicode="&#xb2;" horiz-adv-x="1166" 
 />
    <glyph glyph-name="uni00B3" unicode="&#xb3;" horiz-adv-x="1166" 
 />
    <glyph glyph-name="acute" unicode="&#xb4;" horiz-adv-x="724" 
d="M1091 2646h69q5 0 53 -73l-38 -143q-1 -6 -92 -73h-143q-6 0 -55 73l19 69q3 7 187 147zM780 2361h64q6 0 58 -78l-37 -138q-2 -6 -100 -78h-138q-5 0 -54 73l20 74q3 7 187 147z" />
    <glyph glyph-name="mu" unicode="&#xb5;" horiz-adv-x="1644" 
d="M618 2016h69q7 -1 105 -142q-17 -64 -65 -258q-3 -11 -22 -69q-5 -32 -6 -37q-35 -115 -61 -211l-16 -60q-2 -6 -187 -147h-64l-56 69q88 342 120 464q25 92 91 322zM1837 2016h69q6 0 55 -73q-123 -472 -172 -654q-6 -25 -38 -128l-92 -69h-64l-110 142q22 99 35 147
l20 74q11 43 36 120v1q0 3 -3 3l10 23l73 272q4 7 181 142zM1032 1156q222 -5 435 -5l100 -142q-1 -6 -186 -147h-856q-6 0 -108 147q3 7 181 142q212 0 434 5zM320 921h74l106 -138q-19 -85 -34 -142q-42 -157 -139 -502l-180 -138h-69q-6 0 -54 74l54 202q33 123 46 184
q20 61 53 184l55 207q2 6 88 69z" />
    <glyph glyph-name="paragraph" unicode="&#xb6;" horiz-adv-x="1644" 
d="M758 2021h1081l-39 -143q-1 -6 -186 -147h-860q-6 0 -109 147l19 69q1 6 94 74zM553 1791h69q7 -1 109 -147l-108 -401q-1 -5 -181 -142h-74q-5 0 -53 73l145 543q2 6 93 74zM1781 1786h69q5 0 53 -73l-208 -778q-2 -6 -93 -73h-69q-6 0 -109 147l169 630q4 7 188 147z
M1313 1657h74l52 -64q-41 -167 -64 -253l-10 -37q-23 -86 -72 -253l-86 -64h-74q-6 0 -104 142q5 18 47 194q53 177 58 197zM601 1161h285q7 -2 107 -148l-18 -69q-1 -5 -94 -73h-432q-6 0 -54 73l18 69q4 7 188 148zM1116 921h74q6 0 50 -69q-122 -470 -169 -648
q-7 -25 -39 -129l-92 -69h-69l-105 138q21 99 34 147l22 83q13 46 35 110v2q0 3 -4 3l11 23l72 267q3 7 180 142zM1487 691h73q6 0 51 -69l-147 -547q-2 -6 -93 -74h-69q-6 0 -108 148l106 395q4 7 187 147z" />
    <glyph glyph-name="periodcentered" unicode="&#xb7;" horiz-adv-x="584" 
 />
    <glyph glyph-name="periodcentered" unicode="&#x2219;" horiz-adv-x="584" 
 />
    <glyph glyph-name="cedilla" unicode="&#xb8;" horiz-adv-x="982" 
d="M624 -57h69q6 0 54 -74l-116 -432q-1 -6 -94 -74h-69q-5 0 -107 147l76 286q3 6 187 147zM-4 -563h281q7 -1 108 -147l-19 -69q-1 -6 -94 -74h-427q-6 0 -54 74l19 69q2 6 186 147z" />
    <glyph glyph-name="uni00B9" unicode="&#xb9;" horiz-adv-x="1166" 
 />
    <glyph glyph-name="ordmasculine" unicode="&#xba;" horiz-adv-x="826" 
 />
    <glyph glyph-name="guillemotright" unicode="&#xbb;" horiz-adv-x="1086" 
 />
    <glyph glyph-name="onequarter" unicode="&#xbc;" horiz-adv-x="1964" 
 />
    <glyph glyph-name="onehalf" unicode="&#xbd;" horiz-adv-x="2259" 
 />
    <glyph glyph-name="threequarters" unicode="&#xbe;" horiz-adv-x="1964" 
 />
    <glyph glyph-name="questiondown" unicode="&#xbf;" horiz-adv-x="1695" 
d="M1050 -631h-1003q-6 0 -54 74l19 73q2 6 182 143h865q5 0 103 -143l-19 -73q-2 -6 -93 -74zM35 -401h-69q-6 0 -54 74l147 547q2 6 93 74h65q5 0 107 -148q-11 -43 -50 -202q-43 -146 -59 -207zM778 229q-222 5 -435 5l-100 142q1 6 186 148h856q6 0 108 -148
q-3 -7 -180 -142q-213 0 -435 -5zM1550 464h-74q-6 1 -105 142l78 290q2 6 181 143h69q6 0 55 -74l-116 -432q-2 -6 -88 -69zM1572 1145q-24 0 -24 32q0 18 8 46l1 4q2 7 34 28h28q33 -29 46 -55l-7 -23q-7 -28 -86 -32zM1748 1154h-50q-20 12 -20 34q0 8 2 16q65 60 71 60
h27q21 -13 21 -37q0 -8 -3 -18h-5l3 -9l-4 -14q-2 -7 -42 -32zM1619 1273h-27q-20 14 -20 37q0 9 3 19h4l-1 9l3 14q2 6 41 32h50q22 -12 22 -34q0 -8 -3 -17q-66 -60 -72 -60zM1779 1283h-28q-33 28 -45 55l6 23q7 27 87 32q23 0 23 -31q0 -18 -8 -47l-1 -5q-2 -7 -34 -27z
" />
    <glyph glyph-name="Agrave" unicode="&#xc0;" horiz-adv-x="1644" 
d="M761 2016h1002q6 0 55 -73l-20 -74q-2 -6 -182 -143h-864q-6 0 -104 143l20 74q1 5 93 73zM557 1786h69l106 -138q-23 -99 -36 -147l-32 -120q-13 -48 -43 -147l-186 -142h-64l-56 69q23 99 35 147l71 262q13 48 43 147zM1776 1786h69l55 -69q-46 -186 -70 -276
q-21 -78 -79 -280l-92 -69h-64q-6 0 -109 147q12 45 50 202q43 146 60 207zM1032 1156q222 -5 435 -5l100 -142q-1 -6 -186 -147h-856q-6 0 -108 147q3 7 181 142q212 0 434 5zM320 921h74q7 -1 105 -142l-170 -635q-2 -6 -182 -143h-69q-6 0 -54 74q121 467 139 534
q63 218 71 248zM1544 921h74q5 0 50 -69l-55 -207q-33 -123 -45 -184q-21 -61 -54 -184l-54 -202q-2 -6 -94 -74h-69q-6 0 -104 143q88 345 133 511q9 35 38 128zM1154 2644h69q7 -1 108 -147l-18 -69q-2 -6 -93 -74h-143q-6 0 -54 74l38 143q1 5 93 73zM1326 2359h56
q7 -1 108 -147l-19 -69q-1 -6 -99 -78h-134q-6 0 -57 78l38 142q82 74 107 74z" />
    <glyph glyph-name="Aacute" unicode="&#xc1;" horiz-adv-x="1644" 
d="M761 2016h1002q6 0 55 -73l-20 -74q-2 -6 -182 -143h-864q-6 0 -104 143l20 74q1 5 93 73zM557 1786h69l106 -138q-23 -99 -36 -147l-32 -120q-13 -48 -43 -147l-186 -142h-64l-56 69q23 99 35 147l71 262q13 48 43 147zM1776 1786h69l55 -69q-46 -186 -70 -276
q-21 -78 -79 -280l-92 -69h-64q-6 0 -109 147q12 45 50 202q43 146 60 207zM1032 1156q222 -5 435 -5l100 -142q-1 -6 -186 -147h-856q-6 0 -108 147q3 7 181 142q212 0 434 5zM320 921h74q7 -1 105 -142l-170 -635q-2 -6 -182 -143h-69q-6 0 -54 74q121 467 139 534
q63 218 71 248zM1544 921h74q5 0 50 -69l-55 -207q-33 -123 -45 -184q-21 -61 -54 -184l-54 -202q-2 -6 -94 -74h-69q-6 0 -104 143q88 345 133 511q9 35 38 128zM1636 2640h69q6 0 55 -74l-39 -143q-1 -5 -93 -73h-143q-5 0 -54 73l19 69q3 7 186 148zM1325 2354h65
q6 0 57 -78l-37 -138q-2 -6 -99 -78h-138q-6 0 -54 74l19 73q3 7 187 147z" />
    <glyph glyph-name="Acircumflex" unicode="&#xc2;" horiz-adv-x="1644" 
d="M761 2016h1002q6 0 55 -73l-20 -74q-2 -6 -182 -143h-864q-6 0 -104 143l20 74q1 5 93 73zM557 1786h69l106 -138q-23 -99 -36 -147l-32 -120q-13 -48 -43 -147l-186 -142h-64l-56 69q23 99 35 147l71 262q13 48 43 147zM1776 1786h69l55 -69q-46 -186 -70 -276
q-21 -78 -79 -280l-92 -69h-64q-6 0 -109 147q12 45 50 202q43 146 60 207zM1032 1156q222 -5 435 -5l100 -142q-1 -6 -186 -147h-856q-6 0 -108 147q3 7 181 142q212 0 434 5zM320 921h74q7 -1 105 -142l-170 -635q-2 -6 -182 -143h-69q-6 0 -54 74q121 467 139 534
q63 218 71 248zM1544 921h74q5 0 50 -69l-55 -207q-33 -123 -45 -184q-21 -61 -54 -184l-54 -202q-2 -6 -94 -74h-69q-6 0 -104 143q88 345 133 511q9 35 38 128zM1378 2858h197q7 0 41 -55l-27 -101l-130 -106q-53 4 -77 4h-27l-79 102l16 46l15 55q2 7 71 55zM1650 2656
h69q6 -2 107 -148l-15 -55q-6 -25 -96 -87h-143q-6 0 -53 73l17 65v1q0 3 -4 3l8 10l17 64q1 6 93 74zM1151 2651h65q6 0 57 -78l-37 -138q-1 -6 -93 -74q-20 0 -139 -4q-12 0 -59 73l20 74q3 7 186 147zM1808 2370h55q26 0 122 -147l-19 -69q-1 -6 -99 -78h-138
q-6 0 -54 74l39 147q2 6 94 73zM835 2361h74q52 -62 52 -76v-2q-6 -22 -43 -143l-92 -69h-138q-6 0 -53 74l17 64l-2 10z" />
    <glyph glyph-name="Atilde" unicode="&#xc3;" horiz-adv-x="1701" 
d="M761 2016h1003q5 0 54 -73l-20 -74q-2 -6 -181 -143h-865q-6 0 -104 143l20 74q1 5 93 73zM557 1786h69l106 -138q-22 -99 -35 -147l-32 -120q-13 -48 -44 -147l-185 -142h-65l-55 69q22 99 34 147l71 262q13 48 44 147zM1776 1786h69l55 -69q-45 -186 -69 -276
q-21 -78 -80 -280l-92 -69h-64q-6 0 -108 147q12 45 49 202q44 146 61 207zM1032 1156q223 -5 435 -5l100 -142q-1 -6 -186 -147h-855q-6 0 -109 147q3 7 181 142q213 0 434 5zM321 921h73q7 -1 105 -142l-170 -635q-2 -6 -182 -143h-69q-5 0 -53 74q120 467 138 534
q64 218 72 248zM1544 921h74q6 0 50 -69l-55 -207q-33 -123 -44 -184q-22 -61 -55 -184l-54 -202q-2 -6 -94 -74h-69q-5 0 -103 143q87 345 132 511q9 35 39 128zM1059 2562h60q4 0 47 -63l-15 -56q-1 -2 -1 -3q0 -2 3 -2l-6 -7l-15 -56q-1 -5 -80 -63h-125q-43 47 -43 70
q0 3 1 5l12 48q3 6 162 127zM1290 2562h64q6 -1 90 -124l-17 -63q-1 -5 -80 -63h-124q-5 0 -46 63l34 124q1 5 79 63zM2059 2562h65q4 0 47 -63l-34 -124q-1 -5 -80 -63h-125q-4 0 -46 63l17 63q3 7 156 124zM801 2315h48q5 0 47 -64l-34 -128q-1 -4 -81 -63h-120
q-4 0 -49 68l16 60q150 127 173 127zM1431 2315h56l97 -127l-5 -8l-15 -57q-1 -4 -82 -63h-119q-5 0 -46 63l29 128zM1791 2315l6 -3h56q5 0 44 -61l-12 -47q-2 -6 -2 -10t1 -6q-6 -7 -8 -17l-13 -48q-1 -4 -80 -63h-121q-5 0 -49 68l15 56z" />
    <glyph glyph-name="Adieresis" unicode="&#xc4;" horiz-adv-x="1644" 
d="M761 2016h1002q6 0 55 -73l-20 -74q-2 -6 -182 -143h-864q-6 0 -104 143l20 74q1 5 93 73zM557 1786h69l106 -138q-23 -99 -36 -147l-32 -120q-13 -48 -43 -147l-186 -142h-64l-56 69q23 99 35 147l71 262q13 48 43 147zM1776 1786h69l55 -69q-46 -186 -70 -276
q-21 -78 -79 -280l-92 -69h-64q-6 0 -109 147q12 45 50 202q43 146 60 207zM1032 1156q222 -5 435 -5l100 -142q-1 -6 -186 -147h-856q-6 0 -108 147q3 7 181 142q212 0 434 5zM320 921h74q7 -1 105 -142l-170 -635q-2 -6 -182 -143h-69q-6 0 -54 74q121 467 139 534
q63 218 71 248zM1544 921h74q5 0 50 -69l-55 -207q-33 -123 -45 -184q-21 -61 -54 -184l-54 -202q-2 -6 -94 -74h-69q-6 0 -104 143q88 345 133 511q9 35 38 128zM876 2543q7 -5 18 -5h37q5 0 40 -55l-13 -50q-2 -7 -141 -111h-55q-7 0 -40 55l28 106q2 7 70 55h37
q10 0 19 5zM1129 2543l9 -5h46q5 0 40 -55l-28 -106q-2 -7 -70 -55h-56l-81 106l7 9l12 46q2 7 70 55h46q4 0 5 5zM751 2281h55q6 0 81 -111l-13 -50q-2 -7 -70 -55h-37q-11 0 -20 -5q-7 5 -17 5h-37q-7 0 -40 55l28 106q2 6 70 55zM1059 2281h56q5 0 40 -55l-28 -106
q-2 -7 -70 -55h-106q-7 0 -40 55l12 46l-2 9zM1680 2550q7 -5 17 -5h37q6 0 40 -55l-13 -51q-2 -6 -140 -110h-55q-7 0 -41 55l28 106q2 7 71 55h36q11 0 20 5zM1933 2550l8 -5h46q6 0 40 -55l-28 -106q-2 -7 -70 -55h-55l-83 106l8 9l12 46q2 7 70 55h46q5 0 6 5z
M1555 2288h55q6 0 80 -111l-13 -50q-2 -7 -70 -56h-37q-10 0 -19 -4q-7 4 -18 4h-36q-7 0 -41 56l28 105q2 7 71 56zM1863 2288h55q6 0 40 -56l-28 -105q-2 -7 -70 -56h-106q-7 0 -40 56l12 46l-2 9z" />
    <glyph glyph-name="Aring" unicode="&#xc5;" horiz-adv-x="1644" 
d="M761 2016h1002q6 0 55 -73l-20 -74q-2 -6 -182 -143h-864q-6 0 -104 143l20 74q1 5 93 73zM557 1786h69l106 -138q-23 -99 -36 -147l-32 -120q-13 -48 -43 -147l-186 -142h-64l-56 69q23 99 35 147l71 262q13 48 43 147zM1776 1786h69l55 -69q-46 -186 -70 -276
q-21 -78 -79 -280l-92 -69h-64q-6 0 -109 147q12 45 50 202q43 146 60 207zM1032 1156q222 -5 435 -5l100 -142q-1 -6 -186 -147h-856q-6 0 -108 147q3 7 181 142q212 0 434 5zM320 921h74q7 -1 105 -142l-170 -635q-2 -6 -182 -143h-69q-6 0 -54 74q121 467 139 534
q63 218 71 248zM1544 921h74q5 0 50 -69l-55 -207q-33 -123 -45 -184q-21 -61 -54 -184l-54 -202q-2 -6 -94 -74h-69q-6 0 -104 143q88 345 133 511q9 35 38 128zM1206 2706h142q6 0 55 -73l-20 -74q-2 -6 -182 -143h-73q-6 0 -54 74l39 143q1 5 93 73zM1546 2706h143
q5 0 54 -73l-39 -143q-1 -6 -93 -74h-69q-6 0 -108 148l19 69q1 5 93 73zM1114 2361h73q6 -1 105 -142l-20 -74q-2 -6 -94 -74h-138q-6 0 -57 79l37 138q1 5 94 73zM1523 2361h74q5 0 53 -73l-38 -143q-2 -6 -93 -74h-143q-6 0 -54 74l20 74q2 7 181 142z" />
    <glyph glyph-name="AE" unicode="&#xc6;" horiz-adv-x="2824" 
d="M761 2016h1002q6 0 55 -73l-20 -74q-2 -6 -182 -143h-864q-6 0 -104 143l20 74q1 5 93 73zM1557 291h1003q6 -1 104 -142l-20 -74q-2 -6 -93 -74h-1146q-6 0 -53 74l19 69q2 7 186 147zM1505 921h74q6 -1 104 -142q-12 -44 -50 -203q-44 -146 -60 -207l-179 -138h-69
l-56 69q45 187 69 276q22 79 81 281zM2217 1156q222 -5 435 -5l100 -142q-1 -6 -187 -147h-855q-6 0 -108 147q3 7 180 142q213 0 435 5zM1945 2016h1146q5 0 54 -73l-20 -74q-2 -6 -181 -143h-1008q-6 0 -103 143l20 74q1 5 92 73zM320 921h74q7 -1 105 -142l-170 -635
q-2 -6 -182 -143h-69q-6 0 -54 74q121 467 139 534q63 218 71 248zM1032 1156q222 -5 435 -5l100 -142q-1 -6 -186 -147h-856q-5 0 -108 147q3 7 181 142q212 0 434 5zM1776 1786h69l55 -69q-46 -186 -70 -276q-21 -78 -79 -280l-92 -69h-64q-6 0 -109 147q12 45 50 202
q43 146 60 207zM557 1786h69l106 -138q-23 -99 -36 -147l-32 -120q-13 -48 -43 -147l-186 -142h-64l-56 69q23 99 35 147l71 262q13 48 43 147z" />
    <glyph glyph-name="Ccedilla" unicode="&#xc7;" 
d="M756 2016h1150q6 0 55 -73l-19 -69q-1 -6 -187 -148h-1003q-6 0 -107 148l19 69q1 5 92 73zM553 1786h69q6 -1 107 -147l-122 -455q-1 -6 -186 -148h-69q-6 0 -55 74l162 603q1 5 94 73zM337 981h69q7 -1 107 -147l-121 -455q-2 -6 -187 -148h-69q-6 0 -54 74l161 603
q2 5 94 73zM368 291h1003q7 -1 108 -147l-19 -69q-2 -6 -94 -74h-1150q-5 0 -53 74l19 69q2 7 186 147zM953 -57h69q6 0 54 -74l-116 -432q-1 -6 -94 -74h-69q-5 0 -107 147l76 286q3 6 187 147zM325 -563h281q7 -1 108 -147l-19 -69q-1 -6 -94 -74h-427q-6 0 -54 74l19 69
q2 6 186 147z" />
    <glyph glyph-name="Egrave" unicode="&#xc8;" 
d="M761 2016h1145q6 0 55 -73l-20 -74q-2 -6 -182 -143h-1007q-6 0 -104 143l20 74q1 5 93 73zM557 1786h69l106 -138q-22 -99 -35 -147l-32 -120q-13 -48 -44 -147l-185 -142h-65l-55 69q22 99 34 147l71 262q13 48 44 147zM1032 1156q223 -5 435 -5l100 -142
q-1 -6 -186 -147h-855q-6 0 -109 147q3 7 181 142q213 0 434 5zM321 921h73q7 -1 105 -142q-12 -44 -50 -203q-44 -146 -60 -207l-180 -138h-69l-55 69q45 187 69 276q22 79 81 281zM373 291h1002q7 -1 105 -142l-20 -74q-2 -6 -94 -74h-1145q-6 0 -54 74l19 69q2 7 187 147
zM1152 2644h69q7 -1 108 -147l-18 -69q-2 -6 -93 -74h-143q-6 0 -54 74l38 143q1 5 93 73zM1324 2359h56q7 -1 108 -147l-19 -69q-1 -6 -99 -78h-134q-6 0 -57 78l38 142q82 74 107 74z" />
    <glyph glyph-name="Eacute" unicode="&#xc9;" 
d="M761 2016h1145q6 0 55 -73l-20 -74q-2 -6 -182 -143h-1007q-6 0 -104 143l20 74q1 5 93 73zM557 1786h69l106 -138q-22 -99 -35 -147l-32 -120q-13 -48 -44 -147l-185 -142h-65l-55 69q22 99 34 147l71 262q13 48 44 147zM1032 1156q223 -5 435 -5l100 -142
q-1 -6 -186 -147h-855q-6 0 -109 147q3 7 181 142q213 0 434 5zM321 921h73q7 -1 105 -142q-12 -44 -50 -203q-44 -146 -60 -207l-180 -138h-69l-55 69q45 187 69 276q22 79 81 281zM373 291h1002q7 -1 105 -142l-20 -74q-2 -6 -94 -74h-1145q-6 0 -54 74l19 69q2 7 187 147
zM1634 2640h69q6 0 55 -74l-39 -143q-1 -5 -93 -73h-143q-5 0 -54 73l19 69q3 7 186 148zM1323 2354h65q6 0 57 -78l-37 -138q-2 -6 -99 -78h-138q-6 0 -54 74l19 73q3 7 187 147z" />
    <glyph glyph-name="Ecircumflex" unicode="&#xca;" 
d="M761 2016h1145q6 0 55 -73l-20 -74q-2 -6 -182 -143h-1007q-6 0 -104 143l20 74q1 5 93 73zM557 1786h69l106 -138q-22 -99 -35 -147l-32 -120q-13 -48 -44 -147l-185 -142h-65l-55 69q22 99 34 147l71 262q13 48 44 147zM1032 1156q223 -5 435 -5l100 -142
q-1 -6 -186 -147h-855q-6 0 -109 147q3 7 181 142q213 0 434 5zM321 921h73q7 -1 105 -142q-12 -44 -50 -203q-44 -146 -60 -207l-180 -138h-69l-55 69q45 187 69 276q22 79 81 281zM373 291h1002q7 -1 105 -142l-20 -74q-2 -6 -94 -74h-1145q-6 0 -54 74l19 69q2 7 187 147
zM1376 2858h197q7 0 41 -55l-27 -101l-130 -106q-53 4 -77 4h-27l-79 102l16 46l15 55q2 7 71 55zM1648 2656h69q6 -2 107 -148l-15 -55q-6 -25 -96 -87h-143q-6 0 -53 73l17 65v1q0 3 -4 3l8 10l17 64q1 6 93 74zM1149 2651h65q6 0 57 -78l-37 -138q-1 -6 -93 -74
q-20 0 -139 -4q-12 0 -59 73l20 74q3 7 186 147zM1806 2370h55q26 0 122 -147l-19 -69q-1 -6 -99 -78h-138q-6 0 -54 74l39 147q2 6 94 73zM833 2361h74q52 -62 52 -76v-2q-6 -22 -43 -143l-92 -69h-138q-6 0 -53 74l17 64l-2 10z" />
    <glyph glyph-name="Edieresis" unicode="&#xcb;" 
d="M761 2016h1145q6 0 55 -73l-20 -74q-2 -6 -182 -143h-1007q-6 0 -104 143l20 74q1 5 93 73zM557 1786h69l106 -138q-22 -99 -35 -147l-32 -120q-13 -48 -44 -147l-185 -142h-65l-55 69q22 99 34 147l71 262q13 48 44 147zM1032 1156q223 -5 435 -5l100 -142
q-1 -6 -186 -147h-855q-6 0 -109 147q3 7 181 142q213 0 434 5zM321 921h73q7 -1 105 -142q-12 -44 -50 -203q-44 -146 -60 -207l-180 -138h-69l-55 69q45 187 69 276q22 79 81 281zM373 291h1002q7 -1 105 -142l-20 -74q-2 -6 -94 -74h-1145q-6 0 -54 74l19 69q2 7 187 147
zM874 2543q7 -5 18 -5h37q5 0 40 -55l-13 -50q-2 -7 -141 -111h-55q-7 0 -40 55l28 106q2 7 70 55h37q10 0 19 5zM1127 2543l9 -5h46q5 0 40 -55l-28 -106q-2 -7 -70 -55h-56l-81 106l7 9l12 46q2 7 70 55h46q4 0 5 5zM749 2281h55q6 0 81 -111l-13 -50q-2 -7 -70 -55h-37
q-11 0 -20 -5q-7 5 -17 5h-37q-7 0 -40 55l28 106q2 6 70 55zM1057 2281h56q5 0 40 -55l-28 -106q-2 -7 -70 -55h-106q-7 0 -40 55l12 46l-2 9zM1678 2550q7 -5 17 -5h37q6 0 40 -55l-13 -51q-2 -6 -140 -110h-55q-7 0 -41 55l28 106q2 7 71 55h36q11 0 20 5zM1931 2550
l8 -5h46q6 0 40 -55l-28 -106q-2 -7 -70 -55h-55l-83 106l8 9l12 46q2 7 70 55h46q5 0 6 5zM1553 2288h55q6 0 80 -111l-13 -50q-2 -7 -70 -56h-37q-10 0 -19 -4q-7 4 -18 4h-36q-7 0 -41 56l28 105q2 7 71 56zM1861 2288h55q6 0 40 -56l-28 -105q-2 -7 -70 -56h-106
q-7 0 -40 56l12 46l-2 9z" />
    <glyph glyph-name="Igrave" unicode="&#xcc;" horiz-adv-x="724" 
d="M818 2016h69q7 -1 108 -147l-184 -685q-1 -6 -186 -148h-69q-6 0 -54 74l224 833q1 5 92 73zM615 981h69q5 0 53 -73l-223 -833q-2 -6 -93 -74h-69q-6 0 -107 148l183 685q3 7 187 147zM781 2644h69q7 -1 109 -147l-18 -69q-2 -6 -94 -74h-143q-5 0 -53 74l38 143
q1 5 92 73zM954 2359h55q7 -1 108 -147l-19 -69q-1 -6 -99 -78h-133q-6 0 -58 78l38 142q83 74 108 74z" />
    <glyph glyph-name="Iacute" unicode="&#xcd;" horiz-adv-x="724" 
d="M643 2016h69q7 -1 109 -147l-184 -685q-1 -6 -187 -148h-69q-5 0 -54 74l224 833q1 5 92 73zM440 981h69q6 0 54 -73l-223 -833q-2 -6 -94 -74h-69q-6 0 -107 148l183 685q3 7 187 147zM1089 2640h69q5 0 54 -74l-39 -143q-1 -5 -92 -73h-143q-6 0 -55 73l19 69
q4 7 187 148zM778 2354h64q6 0 58 -78l-37 -138q-2 -6 -100 -78h-138q-5 0 -53 74l19 73q3 7 187 147z" />
    <glyph glyph-name="Icircumflex" unicode="&#xce;" horiz-adv-x="1534" 
d="M1136 2016h69q7 -1 108 -147l-184 -685q-1 -6 -186 -148h-69q-6 0 -55 74l224 833q1 5 93 73zM932 981h69q6 0 54 -73l-223 -833q-2 -6 -94 -74h-69q-5 0 -107 148l183 685q3 7 187 147zM1323 2858h197q7 0 41 -55l-27 -101l-130 -106q-53 4 -77 4h-27l-79 102l16 46
l15 55q2 7 71 55zM1595 2656h69q6 -2 107 -148l-15 -55q-6 -25 -96 -87h-143q-6 0 -53 73l17 65v1q0 3 -4 3l8 10l17 64q1 6 93 74zM1096 2651h65q6 0 57 -78l-37 -138q-1 -6 -93 -74q-20 0 -139 -4q-12 0 -59 73l20 74q3 7 186 147zM1753 2370h55q26 0 122 -147l-19 -69
q-1 -6 -99 -78h-138q-6 0 -54 74l39 147q2 6 94 73zM780 2361h74q52 -62 52 -76v-2q-6 -22 -43 -143l-92 -69h-138q-6 0 -53 74l17 64l-2 10z" />
    <glyph glyph-name="Idieresis" unicode="&#xcf;" horiz-adv-x="1475" 
d="M1106 2016h69q7 -1 108 -147l-184 -685q-1 -6 -186 -148h-69q-6 0 -55 74l224 833q1 5 93 73zM902 981h69q6 0 54 -73l-223 -833q-2 -6 -94 -74h-69q-6 0 -107 148l183 685q3 7 187 147zM791 2543q7 -5 18 -5h36q6 0 41 -55l-13 -50q-2 -7 -141 -111h-55q-7 0 -40 55
l28 106q2 7 70 55h37q10 0 19 5zM1044 2543l8 -5h46q6 0 41 -55l-28 -106q-2 -7 -71 -55h-55l-81 106l6 9l12 46q2 7 71 55h46q4 0 5 5zM666 2281h55q6 0 81 -111l-13 -50q-2 -7 -71 -55h-36q-11 0 -20 -5q-7 5 -17 5h-37q-7 0 -40 55l28 106q2 6 70 55zM974 2281h55
q6 0 41 -55l-28 -106q-2 -7 -71 -55h-105q-7 0 -41 55l12 46l-1 9zM1595 2550q7 -5 17 -5h37q6 0 40 -55l-13 -51q-2 -6 -140 -110h-55q-7 0 -41 55l28 106q2 7 71 55h36q11 0 20 5zM1848 2550l8 -5h46q6 0 40 -55l-28 -106q-2 -7 -70 -55h-55l-83 106l8 9l12 46q2 7 70 55
h46q5 0 6 5zM1470 2288h55q6 0 80 -111l-13 -50q-2 -7 -70 -56h-37q-10 0 -19 -4q-7 4 -18 4h-36q-7 0 -41 56l28 105q2 7 71 56zM1778 2288h55q6 0 40 -56l-28 -105q-2 -7 -70 -56h-106q-7 0 -40 56l12 46l-2 9z" />
    <glyph glyph-name="Eth" unicode="&#xd0;" horiz-adv-x="1746" 
 />
    <glyph glyph-name="Ntilde" unicode="&#xd1;" horiz-adv-x="1701" 
d="M618 2016h69q7 -1 108 -147l-184 -685q-1 -6 -186 -148h-69q-6 0 -55 74l224 833q1 5 93 73zM1842 2016h64q6 0 57 -78l-222 -828q-1 -6 -92 -74h-74q-6 0 -105 143l185 690q4 7 187 147zM947 1818q154 -69 167 -78q88 -549 181 -1007q-103 -173 -131 -198l-67 -28
q-86 33 -90 42q-115 583 -204 1145q57 111 104 111q2 9 40 13zM341 981h69q7 -1 107 -147l-33 -124q-39 -147 -63 -221q-16 -74 -55 -221l-32 -119q-2 -6 -187 -148h-69q-6 0 -54 74q33 123 129 497q76 267 95 340zM1565 981h64q6 0 57 -78l-222 -828q-2 -6 -93 -74h-74
q-6 0 -104 143q88 344 116 451q68 238 70 244zM1058 2562h60q5 0 47 -63l-15 -56q-1 -1 -1 -2q0 -3 4 -3l-7 -7l-15 -56q-1 -5 -80 -63h-124q-43 47 -43 70q0 3 1 5l12 48q3 6 161 127zM1290 2562h64q6 -1 90 -124l-17 -63q-1 -5 -80 -63h-124q-5 0 -47 63l34 124q1 5 80 63
zM2059 2562h64q5 0 48 -63l-34 -124q-1 -5 -81 -63h-124q-4 0 -46 63l17 63q3 7 156 124zM800 2315h49q4 0 47 -64l-34 -128q-1 -4 -81 -63h-120q-5 0 -50 68l16 60q150 127 173 127zM1431 2315h56l97 -127l-5 -8l-15 -57q-1 -4 -82 -63h-119q-5 0 -47 63l30 128zM1791 2315
l5 -3h57q4 0 44 -61l-12 -47q-2 -6 -2 -10t1 -6q-6 -7 -8 -17l-13 -48q-1 -4 -81 -63h-120q-5 0 -49 68l15 56z" />
    <glyph glyph-name="Ograve" unicode="&#xd2;" 
d="M756 2016h1008q5 0 54 -73l-19 -69q-1 -6 -187 -148h-860q-6 0 -104 143l21 78q1 6 87 69zM553 1786h73q6 -1 105 -142l-109 -405q-2 -6 -181 -143h-73q-6 0 -54 74l145 543q1 5 94 73zM1776 1786h69q6 0 54 -73l-145 -543q-2 -6 -94 -74h-69q-5 0 -108 147l106 396
q3 7 187 147zM326 926h65q7 -1 108 -147l-107 -400q-2 -6 -187 -148h-65q-5 0 -57 79l144 538q2 6 99 78zM1545 926h69q6 0 54 -74l-146 -547q-2 -6 -94 -74h-69q-5 0 -107 148l107 400q3 7 186 147zM368 291h860q7 -1 108 -147l-19 -69q-2 -6 -93 -74h-1003q-6 0 -54 74
l20 74q3 7 181 142zM1152 2644h69q7 -1 108 -147l-18 -69q-2 -6 -93 -74h-143q-6 0 -54 74l38 143q1 5 93 73zM1324 2359h56q7 -1 108 -147l-19 -69q-1 -6 -99 -78h-134q-6 0 -57 78l38 142q82 74 107 74z" />
    <glyph glyph-name="Oacute" unicode="&#xd3;" 
d="M756 2016h1008q5 0 54 -73l-19 -69q-1 -6 -187 -148h-860q-6 0 -104 143l21 78q1 6 87 69zM553 1786h73q6 -1 105 -142l-109 -405q-2 -6 -181 -143h-73q-6 0 -54 74l145 543q1 5 94 73zM1776 1786h69q6 0 54 -73l-145 -543q-2 -6 -94 -74h-69q-5 0 -108 147l106 396
q3 7 187 147zM326 926h65q7 -1 108 -147l-107 -400q-2 -6 -187 -148h-65q-5 0 -57 79l144 538q2 6 99 78zM1545 926h69q6 0 54 -74l-146 -547q-2 -6 -94 -74h-69q-5 0 -107 148l107 400q3 7 186 147zM368 291h860q7 -1 108 -147l-19 -69q-2 -6 -93 -74h-1003q-6 0 -54 74
l20 74q3 7 181 142zM1634 2640h69q6 0 55 -74l-39 -143q-1 -5 -93 -73h-143q-5 0 -54 73l19 69q3 7 186 148zM1323 2354h65q6 0 57 -78l-37 -138q-2 -6 -99 -78h-138q-6 0 -54 74l19 73q3 7 187 147z" />
    <glyph glyph-name="Ocircumflex" unicode="&#xd4;" 
d="M756 2016h1008q5 0 54 -73l-19 -69q-1 -6 -187 -148h-860q-6 0 -104 143l21 78q1 6 87 69zM553 1786h73q6 -1 105 -142l-109 -405q-2 -6 -181 -143h-73q-6 0 -54 74l145 543q1 5 94 73zM1776 1786h69q6 0 54 -73l-145 -543q-2 -6 -94 -74h-69q-5 0 -108 147l106 396
q3 7 187 147zM326 926h65q7 -1 108 -147l-107 -400q-2 -6 -187 -148h-65q-5 0 -57 79l144 538q2 6 99 78zM1545 926h69q6 0 54 -74l-146 -547q-2 -6 -94 -74h-69q-5 0 -107 148l107 400q3 7 186 147zM368 291h860q7 -1 108 -147l-19 -69q-2 -6 -93 -74h-1003q-6 0 -54 74
l20 74q3 7 181 142zM1376 2858h197q7 0 41 -55l-27 -101l-130 -106q-53 4 -77 4h-27l-79 102l16 46l15 55q2 7 71 55zM1648 2656h69q6 -2 107 -148l-15 -55q-6 -25 -96 -87h-143q-6 0 -53 73l17 65v1q0 3 -4 3l8 10l17 64q1 6 93 74zM1149 2651h65q6 0 57 -78l-37 -138
q-1 -6 -93 -74q-20 0 -139 -4q-12 0 -59 73l20 74q3 7 186 147zM1806 2370h55q26 0 122 -147l-19 -69q-1 -6 -99 -78h-138q-6 0 -54 74l39 147q2 6 94 73zM833 2361h74q52 -62 52 -76v-2q-6 -22 -43 -143l-92 -69h-138q-6 0 -53 74l17 64l-2 10z" />
    <glyph glyph-name="Otilde" unicode="&#xd5;" horiz-adv-x="1699" 
d="M756 2016h1008q6 0 54 -73l-19 -69q-1 -6 -187 -148h-860q-6 0 -104 143l21 78q1 6 87 69zM553 1786h73q6 -1 105 -142l-109 -405q-2 -6 -181 -143h-73q-6 0 -54 74l145 543q1 5 94 73zM1776 1786h69q6 0 54 -73l-145 -543q-2 -6 -94 -74h-69q-5 0 -108 147l106 396
q3 7 187 147zM326 926h65q7 -1 108 -147l-107 -400q-2 -6 -187 -148h-65q-5 0 -57 79l144 538q2 6 99 78zM1545 926h69q6 0 54 -74l-146 -547q-2 -6 -94 -74h-69q-5 0 -107 148l107 400q3 7 186 147zM368 291h860q7 -1 108 -147l-19 -69q-2 -6 -93 -74h-1003q-6 0 -54 74
l20 74q4 7 181 142zM1057 2562h59q5 0 48 -63l-15 -56q-1 -2 -1 -3q0 -2 3 -2l-6 -7l-15 -56q-1 -5 -81 -63h-124q-43 47 -43 70q0 3 1 5l12 48q3 6 162 127zM1288 2562h64q6 -1 90 -124l-17 -63q-1 -5 -80 -63h-124q-5 0 -47 63l34 124q1 5 80 63zM2057 2562h64q5 0 48 -63
l-34 -124q-1 -5 -81 -63h-124q-4 0 -46 63l17 63q3 7 156 124zM798 2315h49q4 0 47 -64l-34 -128q-1 -4 -81 -63h-120q-4 0 -50 68l16 60q150 127 173 127zM1429 2315h56l97 -127l-5 -8l-15 -57q-1 -4 -82 -63h-119q-5 0 -47 63l30 128zM1789 2315l6 -3h56q4 0 44 -61
l-12 -47q-2 -6 -2 -10t1 -6q-6 -7 -8 -17l-13 -48q-1 -4 -81 -63h-120q-5 0 -49 68l15 56z" />
    <glyph glyph-name="Odieresis" unicode="&#xd6;" 
d="M756 2016h1008q5 0 54 -73l-19 -69q-1 -6 -187 -148h-860q-6 0 -104 143l21 78q1 6 87 69zM553 1786h73q6 -1 105 -142l-109 -405q-2 -6 -181 -143h-73q-6 0 -54 74l145 543q1 5 94 73zM1776 1786h69q6 0 54 -73l-145 -543q-2 -6 -94 -74h-69q-5 0 -108 147l106 396
q3 7 187 147zM326 926h65q7 -1 108 -147l-107 -400q-2 -6 -187 -148h-65q-5 0 -57 79l144 538q2 6 99 78zM1545 926h69q6 0 54 -74l-146 -547q-2 -6 -94 -74h-69q-5 0 -107 148l107 400q3 7 186 147zM368 291h860q7 -1 108 -147l-19 -69q-2 -6 -93 -74h-1003q-6 0 -54 74
l20 74q3 7 181 142zM874 2543q7 -5 18 -5h37q5 0 40 -55l-13 -50q-2 -7 -141 -111h-55q-7 0 -40 55l28 106q2 7 70 55h37q10 0 19 5zM1127 2543l9 -5h46q5 0 40 -55l-28 -106q-2 -7 -70 -55h-56l-81 106l7 9l12 46q2 7 70 55h46q4 0 5 5zM749 2281h55q6 0 81 -111l-13 -50
q-2 -7 -70 -55h-37q-11 0 -20 -5q-7 5 -17 5h-37q-7 0 -40 55l28 106q2 6 70 55zM1057 2281h56q5 0 40 -55l-28 -106q-2 -7 -70 -55h-106q-7 0 -40 55l12 46l-2 9zM1678 2550q7 -5 17 -5h37q6 0 40 -55l-13 -51q-2 -6 -140 -110h-55q-7 0 -41 55l28 106q2 7 71 55h36
q11 0 20 5zM1931 2550l8 -5h46q6 0 40 -55l-28 -106q-2 -7 -70 -55h-55l-83 106l8 9l12 46q2 7 70 55h46q5 0 6 5zM1553 2288h55q6 0 80 -111l-13 -50q-2 -7 -70 -56h-37q-10 0 -19 -4q-7 4 -18 4h-36q-7 0 -41 56l28 105q2 7 71 56zM1861 2288h55q6 0 40 -56l-28 -105
q-2 -7 -70 -56h-106q-7 0 -40 56l12 46l-2 9z" />
    <glyph glyph-name="multiply" unicode="&#xd7;" horiz-adv-x="1166" 
 />
    <glyph glyph-name="Oslash" unicode="&#xd8;" 
d="M753 2006h1008q5 0 53 -74l-19 -69q-1 -5 -186 -147h-860q-6 0 -105 143l21 78q2 6 88 69zM553 1786h73q6 -1 105 -142l-109 -405q-2 -6 -181 -143h-73q-6 0 -54 74l145 543q1 5 94 73zM1776 1786h69q6 0 54 -73l-145 -543q-2 -6 -94 -74h-69q-5 0 -108 147l106 396
q3 7 187 147zM326 926h65q7 -1 108 -147l-107 -400q-2 -6 -187 -148h-65q-5 0 -57 79l144 538q2 6 99 78zM1545 926h69q6 0 54 -74l-146 -547q-2 -6 -94 -74h-69q-5 0 -107 148l107 400q3 7 186 147zM386 299h860q7 -1 108 -147l-19 -69q-1 -6 -93 -74h-1003q-6 0 -54 74
l20 74q4 7 181 142zM1366 1603h69q6 0 54 -73l-38 -143q-2 -6 -94 -73h-64q-5 0 -6 -5l-8 5h-64q-6 0 -54 73l18 69q3 7 187 147zM664 678l7 -5h65q5 0 54 -74l-19 -69q-1 -5 -186 -147h-69q-6 0 -55 74l40 147q1 6 87 69h69q5 0 7 5zM929 1069q18 17 179 140h74
q14 -12 104 -147l-182 -143h-24l-177 -140h-74q-14 11 -104 147q4 7 181 143h23z" />
    <glyph glyph-name="Ugrave" unicode="&#xd9;" horiz-adv-x="1636" 
d="M613 2012h69q7 -2 107 -148l-182 -680q-1 -6 -186 -148h-69q-6 0 -55 74l222 828q2 6 94 74zM1827 2012h69q6 0 58 -79l-217 -809q-7 -25 -97 -88h-74q-5 0 -108 148l179 667q7 26 190 161zM337 981h69q7 -1 107 -147l-121 -455q-2 -6 -187 -148h-69q-6 0 -54 74l161 603
q2 5 94 73zM1551 981h69q6 0 54 -73q-17 -66 -76 -304q-62 -213 -87 -304l-92 -69h-69q-102 130 -102 147v1q37 140 55 225q29 92 69 239zM364 291h855q7 -1 108 -147l-19 -69q-2 -6 -93 -74h-1003q-6 0 -54 74l19 69q3 7 187 147zM1150 2644h69q7 -1 108 -147l-18 -69
q-2 -6 -93 -74h-143q-6 0 -54 74l38 143q1 5 93 73zM1322 2359h56q7 -1 108 -147l-19 -69q-1 -6 -99 -78h-134q-6 0 -57 78l38 142q82 74 107 74z" />
    <glyph glyph-name="Uacute" unicode="&#xda;" horiz-adv-x="1636" 
d="M613 2012h69q7 -2 107 -148l-182 -680q-1 -6 -186 -148h-69q-6 0 -55 74l222 828q2 6 94 74zM1827 2012h69q6 0 58 -79l-217 -809q-7 -25 -97 -88h-74q-5 0 -108 148l179 667q7 26 190 161zM337 981h69q7 -1 107 -147l-121 -455q-2 -6 -187 -148h-69q-6 0 -54 74l161 603
q2 5 94 73zM1551 981h69q6 0 54 -73q-17 -66 -76 -304q-62 -213 -87 -304l-92 -69h-69q-102 130 -102 147v1q37 140 55 225q29 92 69 239zM364 291h855q7 -1 108 -147l-19 -69q-2 -6 -93 -74h-1003q-6 0 -54 74l19 69q3 7 187 147zM1632 2640h69q6 0 55 -74l-39 -143
q-1 -5 -93 -73h-143q-5 0 -54 73l19 69q3 7 186 148zM1321 2354h65q6 0 57 -78l-37 -138q-2 -6 -99 -78h-138q-6 0 -54 74l19 73q3 7 187 147z" />
    <glyph glyph-name="Ucircumflex" unicode="&#xdb;" horiz-adv-x="1636" 
d="M613 2012h69q7 -2 107 -148l-182 -680q-1 -6 -186 -148h-69q-6 0 -55 74l222 828q2 6 94 74zM1827 2012h69q6 0 58 -79l-217 -809q-7 -25 -97 -88h-74q-5 0 -108 148l179 667q7 26 190 161zM337 981h69q7 -1 107 -147l-121 -455q-2 -6 -187 -148h-69q-6 0 -54 74l161 603
q2 5 94 73zM1551 981h69q6 0 54 -73q-17 -66 -76 -304q-62 -213 -87 -304l-92 -69h-69q-102 130 -102 147v1q37 140 55 225q29 92 69 239zM364 291h855q7 -1 108 -147l-19 -69q-2 -6 -93 -74h-1003q-6 0 -54 74l19 69q3 7 187 147zM1374 2858h197q7 0 41 -55l-27 -101
l-130 -106q-53 4 -77 4h-27l-79 102l16 46l15 55q2 7 71 55zM1646 2656h69q6 -2 107 -148l-15 -55q-6 -25 -96 -87h-143q-6 0 -53 73l17 65v1q0 3 -4 3l8 10l17 64q1 6 93 74zM1147 2651h65q6 0 57 -78l-37 -138q-1 -6 -93 -74q-20 0 -139 -4q-12 0 -59 73l20 74
q3 7 186 147zM1804 2370h55q26 0 122 -147l-19 -69q-1 -6 -99 -78h-138q-6 0 -54 74l39 147q2 6 94 73zM831 2361h74q52 -62 52 -76v-2q-6 -22 -43 -143l-92 -69h-138q-6 0 -53 74l17 64l-2 10z" />
    <glyph glyph-name="Udieresis" unicode="&#xdc;" horiz-adv-x="1636" 
d="M613 2012h69q7 -2 107 -148l-182 -680q-1 -6 -186 -148h-69q-6 0 -55 74l222 828q2 6 94 74zM1827 2012h69q6 0 58 -79l-217 -809q-7 -25 -97 -88h-74q-5 0 -108 148l179 667q7 26 190 161zM337 981h69q7 -1 107 -147l-121 -455q-2 -6 -187 -148h-69q-6 0 -54 74l161 603
q2 5 94 73zM1551 981h69q6 0 54 -73q-17 -66 -76 -304q-62 -213 -87 -304l-92 -69h-69q-102 130 -102 147v1q37 140 55 225q29 92 69 239zM364 291h855q7 -1 108 -147l-19 -69q-2 -6 -93 -74h-1003q-6 0 -54 74l19 69q3 7 187 147zM872 2543q7 -5 18 -5h37q5 0 40 -55
l-13 -50q-2 -7 -141 -111h-55q-7 0 -40 55l28 106q2 7 70 55h37q10 0 19 5zM1125 2543l9 -5h46q5 0 40 -55l-28 -106q-2 -7 -70 -55h-56l-81 106l7 9l12 46q2 7 70 55h46q4 0 5 5zM747 2281h55q6 0 81 -111l-13 -50q-2 -7 -70 -55h-37q-11 0 -20 -5q-7 5 -17 5h-37
q-7 0 -40 55l28 106q2 6 70 55zM1055 2281h56q5 0 40 -55l-28 -106q-2 -7 -70 -55h-106q-7 0 -40 55l12 46l-2 9zM1676 2550q7 -5 17 -5h37q6 0 40 -55l-13 -51q-2 -6 -140 -110h-55q-7 0 -41 55l28 106q2 7 71 55h36q11 0 20 5zM1929 2550l8 -5h46q6 0 40 -55l-28 -106
q-2 -7 -70 -55h-55l-83 106l8 9l12 46q2 7 70 55h46q5 0 6 5zM1551 2288h55q6 0 80 -111l-13 -50q-2 -7 -70 -56h-37q-10 0 -19 -4q-7 4 -18 4h-36q-7 0 -41 56l28 105q2 7 71 56zM1859 2288h55q6 0 40 -56l-28 -105q-2 -7 -70 -56h-106q-7 0 -40 56l12 46l-2 9z" />
    <glyph glyph-name="Yacute" unicode="&#xdd;" horiz-adv-x="1636" 
d="M614 2016h74l109 -142l-8 -10l-17 -64q-1 -6 -93 -74h-138q-6 0 -54 74q6 21 32 138q4 13 95 78zM1833 2016h69q6 0 55 -73l-39 -143q-1 -6 -94 -74h-143q-5 0 -53 74l19 69q3 7 186 147zM1812 1680q46 -32 46 -51q0 -2 -1 -4q-4 -50 -15 -92l-422 -405
q-157 -142 -159 -151q-93 -10 -109 -10q-43 28 -43 57q0 6 2 12q22 150 31 184q223 198 229 221q231 216 242 216zM518 1676q151 -19 200 -28l231 -441q-76 -221 -100 -221q-12 0 -44 -28q-114 7 -114 37q0 3 1 5q-12 10 -282 529q36 110 52 110q3 0 56 37zM987 1023l9 -5
h64q6 0 54 -74l-214 -800q-2 -6 -182 -143h-74q-5 0 -53 74l233 869q2 6 93 74h65q4 0 5 5zM1632 2640h69q6 0 55 -74l-39 -143q-1 -5 -93 -73h-143q-5 0 -54 73l19 69q3 7 186 148zM1321 2354h65q6 0 57 -78l-37 -138q-2 -6 -99 -78h-138q-6 0 -54 74l19 73q3 7 187 147z
" />
    <glyph glyph-name="Thorn" unicode="&#xde;" horiz-adv-x="1288" 
 />
    <glyph glyph-name="germandbls" unicode="&#xdf;" horiz-adv-x="1439" 
 />
    <glyph glyph-name="agrave" unicode="&#xe0;" horiz-adv-x="1644" 
d="M761 2016h1002q6 0 55 -73l-20 -74q-2 -6 -182 -143h-864q-6 0 -104 143l20 74q1 5 93 73zM557 1786h69l106 -138q-23 -99 -36 -147l-32 -120q-13 -48 -43 -147l-186 -142h-64l-56 69q23 99 35 147l71 262q13 48 43 147zM1776 1786h69l55 -69q-46 -186 -70 -276
q-21 -78 -79 -280l-92 -69h-64q-6 0 -109 147q12 45 50 202q43 146 60 207zM1032 1156q222 -5 435 -5l100 -142q-1 -6 -186 -147h-856q-6 0 -108 147q3 7 181 142q212 0 434 5zM320 921h74q7 -1 105 -142l-170 -635q-2 -6 -182 -143h-69q-6 0 -54 74q121 467 139 534
q63 218 71 248zM1544 921h74q5 0 50 -69l-55 -207q-33 -123 -45 -184q-21 -61 -54 -184l-54 -202q-2 -6 -94 -74h-69q-6 0 -104 143q88 345 133 511q9 35 38 128zM1154 2644h69q7 -1 108 -147l-18 -69q-2 -6 -93 -74h-143q-6 0 -54 74l38 143q1 5 93 73zM1326 2359h56
q7 -1 108 -147l-19 -69q-1 -6 -99 -78h-134q-6 0 -57 78l38 142q82 74 107 74z" />
    <glyph glyph-name="aacute" unicode="&#xe1;" horiz-adv-x="1644" 
d="M761 2016h1002q6 0 55 -73l-20 -74q-2 -6 -182 -143h-864q-6 0 -104 143l20 74q1 5 93 73zM557 1786h69l106 -138q-23 -99 -36 -147l-32 -120q-13 -48 -43 -147l-186 -142h-64l-56 69q23 99 35 147l71 262q13 48 43 147zM1776 1786h69l55 -69q-46 -186 -70 -276
q-21 -78 -79 -280l-92 -69h-64q-6 0 -109 147q12 45 50 202q43 146 60 207zM1032 1156q222 -5 435 -5l100 -142q-1 -6 -186 -147h-856q-6 0 -108 147q3 7 181 142q212 0 434 5zM320 921h74q7 -1 105 -142l-170 -635q-2 -6 -182 -143h-69q-6 0 -54 74q121 467 139 534
q63 218 71 248zM1544 921h74q5 0 50 -69l-55 -207q-33 -123 -45 -184q-21 -61 -54 -184l-54 -202q-2 -6 -94 -74h-69q-6 0 -104 143q88 345 133 511q9 35 38 128zM1636 2640h69q6 0 55 -74l-39 -143q-1 -5 -93 -73h-143q-5 0 -54 73l19 69q3 7 186 148zM1325 2354h65
q6 0 57 -78l-37 -138q-2 -6 -99 -78h-138q-6 0 -54 74l19 73q3 7 187 147z" />
    <glyph glyph-name="acircumflex" unicode="&#xe2;" horiz-adv-x="1644" 
d="M761 2016h1002q6 0 55 -73l-20 -74q-2 -6 -182 -143h-864q-6 0 -104 143l20 74q1 5 93 73zM557 1786h69l106 -138q-23 -99 -36 -147l-32 -120q-13 -48 -43 -147l-186 -142h-64l-56 69q23 99 35 147l71 262q13 48 43 147zM1776 1786h69l55 -69q-46 -186 -70 -276
q-21 -78 -79 -280l-92 -69h-64q-6 0 -109 147q12 45 50 202q43 146 60 207zM1032 1156q222 -5 435 -5l100 -142q-1 -6 -186 -147h-856q-6 0 -108 147q3 7 181 142q212 0 434 5zM320 921h74q7 -1 105 -142l-170 -635q-2 -6 -182 -143h-69q-6 0 -54 74q121 467 139 534
q63 218 71 248zM1544 921h74q5 0 50 -69l-55 -207q-33 -123 -45 -184q-21 -61 -54 -184l-54 -202q-2 -6 -94 -74h-69q-6 0 -104 143q88 345 133 511q9 35 38 128zM1378 2858h197q7 0 41 -55l-27 -101l-130 -106q-53 4 -77 4h-27l-79 102l16 46l15 55q2 7 71 55zM1650 2656
h69q6 -2 107 -148l-15 -55q-6 -25 -96 -87h-143q-6 0 -53 73l17 65v1q0 3 -4 3l8 10l17 64q1 6 93 74zM1151 2651h65q6 0 57 -78l-37 -138q-1 -6 -93 -74q-20 0 -139 -4q-12 0 -59 73l20 74q3 7 186 147zM1808 2370h55q26 0 122 -147l-19 -69q-1 -6 -99 -78h-138
q-6 0 -54 74l39 147q2 6 94 73zM835 2361h74q52 -62 52 -76v-2q-6 -22 -43 -143l-92 -69h-138q-6 0 -53 74l17 64l-2 10z" />
    <glyph glyph-name="atilde" unicode="&#xe3;" horiz-adv-x="1701" 
d="M761 2016h1003q5 0 54 -73l-20 -74q-2 -6 -181 -143h-865q-6 0 -104 143l20 74q1 5 93 73zM557 1786h69l106 -138q-22 -99 -35 -147l-32 -120q-13 -48 -44 -147l-185 -142h-65l-55 69q22 99 34 147l71 262q13 48 44 147zM1776 1786h69l55 -69q-45 -186 -69 -276
q-21 -78 -80 -280l-92 -69h-64q-6 0 -108 147q12 45 49 202q44 146 61 207zM1032 1156q223 -5 435 -5l100 -142q-1 -6 -186 -147h-855q-6 0 -109 147q3 7 181 142q213 0 434 5zM321 921h73q7 -1 105 -142l-170 -635q-2 -6 -182 -143h-69q-5 0 -53 74q120 467 138 534
q64 218 72 248zM1544 921h74q6 0 50 -69l-55 -207q-33 -123 -44 -184q-22 -61 -55 -184l-54 -202q-2 -6 -94 -74h-69q-5 0 -103 143q87 345 132 511q9 35 39 128zM1059 2562h60q4 0 47 -63l-15 -56q-1 -2 -1 -3q0 -2 3 -2l-6 -7l-15 -56q-1 -5 -80 -63h-125q-43 47 -43 70
q0 3 1 5l12 48q3 6 162 127zM1290 2562h64q6 -1 90 -124l-17 -63q-1 -5 -80 -63h-124q-5 0 -46 63l34 124q1 5 79 63zM2059 2562h65q4 0 47 -63l-34 -124q-1 -5 -80 -63h-125q-4 0 -46 63l17 63q3 7 156 124zM801 2315h48q5 0 47 -64l-34 -128q-1 -4 -81 -63h-120
q-4 0 -49 68l16 60q150 127 173 127zM1431 2315h56l97 -127l-5 -8l-15 -57q-1 -4 -82 -63h-119q-5 0 -46 63l29 128zM1791 2315l6 -3h56q5 0 44 -61l-12 -47q-2 -6 -2 -10t1 -6q-6 -7 -8 -17l-13 -48q-1 -4 -80 -63h-121q-5 0 -49 68l15 56z" />
    <glyph glyph-name="adieresis" unicode="&#xe4;" horiz-adv-x="1644" 
d="M761 2016h1002q6 0 55 -73l-20 -74q-2 -6 -182 -143h-864q-6 0 -104 143l20 74q1 5 93 73zM557 1786h69l106 -138q-23 -99 -36 -147l-32 -120q-13 -48 -43 -147l-186 -142h-64l-56 69q23 99 35 147l71 262q13 48 43 147zM1776 1786h69l55 -69q-46 -186 -70 -276
q-21 -78 -79 -280l-92 -69h-64q-6 0 -109 147q12 45 50 202q43 146 60 207zM1032 1156q222 -5 435 -5l100 -142q-1 -6 -186 -147h-856q-6 0 -108 147q3 7 181 142q212 0 434 5zM320 921h74q7 -1 105 -142l-170 -635q-2 -6 -182 -143h-69q-6 0 -54 74q121 467 139 534
q63 218 71 248zM1544 921h74q5 0 50 -69l-55 -207q-33 -123 -45 -184q-21 -61 -54 -184l-54 -202q-2 -6 -94 -74h-69q-6 0 -104 143q88 345 133 511q9 35 38 128zM876 2543q7 -5 18 -5h37q5 0 40 -55l-13 -50q-2 -7 -141 -111h-55q-7 0 -40 55l28 106q2 7 70 55h37
q10 0 19 5zM1129 2543l9 -5h46q5 0 40 -55l-28 -106q-2 -7 -70 -55h-56l-81 106l7 9l12 46q2 7 70 55h46q4 0 5 5zM751 2281h55q6 0 81 -111l-13 -50q-2 -7 -70 -55h-37q-11 0 -20 -5q-7 5 -17 5h-37q-7 0 -40 55l28 106q2 6 70 55zM1059 2281h56q5 0 40 -55l-28 -106
q-2 -7 -70 -55h-106q-7 0 -40 55l12 46l-2 9zM1680 2550q7 -5 17 -5h37q6 0 40 -55l-13 -51q-2 -6 -140 -110h-55q-7 0 -41 55l28 106q2 7 71 55h36q11 0 20 5zM1933 2550l8 -5h46q6 0 40 -55l-28 -106q-2 -7 -70 -55h-55l-83 106l8 9l12 46q2 7 70 55h46q5 0 6 5z
M1555 2288h55q6 0 80 -111l-13 -50q-2 -7 -70 -56h-37q-10 0 -19 -4q-7 4 -18 4h-36q-7 0 -41 56l28 105q2 7 71 56zM1863 2288h55q6 0 40 -56l-28 -105q-2 -7 -70 -56h-106q-7 0 -40 56l12 46l-2 9z" />
    <glyph glyph-name="aring" unicode="&#xe5;" horiz-adv-x="1644" 
d="M761 2016h1002q6 0 55 -73l-20 -74q-2 -6 -182 -143h-864q-6 0 -104 143l20 74q1 5 93 73zM557 1786h69l106 -138q-23 -99 -36 -147l-32 -120q-13 -48 -43 -147l-186 -142h-64l-56 69q23 99 35 147l71 262q13 48 43 147zM1776 1786h69l55 -69q-46 -186 -70 -276
q-21 -78 -79 -280l-92 -69h-64q-6 0 -109 147q12 45 50 202q43 146 60 207zM1032 1156q222 -5 435 -5l100 -142q-1 -6 -186 -147h-856q-6 0 -108 147q3 7 181 142q212 0 434 5zM320 921h74q7 -1 105 -142l-170 -635q-2 -6 -182 -143h-69q-6 0 -54 74q121 467 139 534
q63 218 71 248zM1544 921h74q5 0 50 -69l-55 -207q-33 -123 -45 -184q-21 -61 -54 -184l-54 -202q-2 -6 -94 -74h-69q-6 0 -104 143q88 345 133 511q9 35 38 128zM1206 2706h142q6 0 55 -73l-20 -74q-2 -6 -182 -143h-73q-6 0 -54 74l39 143q1 5 93 73zM1546 2706h143
q5 0 54 -73l-39 -143q-1 -6 -93 -74h-69q-6 0 -108 148l19 69q1 5 93 73zM1114 2361h73q6 -1 105 -142l-20 -74q-2 -6 -94 -74h-138q-6 0 -57 79l37 138q1 5 94 73zM1523 2361h74q5 0 53 -73l-38 -143q-2 -6 -93 -74h-143q-6 0 -54 74l20 74q2 7 181 142z" />
    <glyph glyph-name="ae" unicode="&#xe6;" horiz-adv-x="2824" 
d="M761 2016h1002q6 0 55 -73l-20 -74q-2 -6 -182 -143h-864q-6 0 -104 143l20 74q1 5 93 73zM1557 291h1003q6 -1 104 -142l-20 -74q-2 -6 -93 -74h-1146q-6 0 -53 74l19 69q2 7 186 147zM1505 921h74q6 -1 104 -142q-12 -44 -50 -203q-44 -146 -60 -207l-179 -138h-69
l-56 69q45 187 69 276q22 79 81 281zM2217 1156q222 -5 435 -5l100 -142q-1 -6 -187 -147h-855q-6 0 -108 147q3 7 180 142q213 0 435 5zM1945 2016h1146q5 0 54 -73l-20 -74q-2 -6 -181 -143h-1008q-6 0 -103 143l20 74q1 5 92 73zM320 921h74q7 -1 105 -142l-170 -635
q-2 -6 -182 -143h-69q-6 0 -54 74q121 467 139 534q63 218 71 248zM1032 1156q222 -5 435 -5l100 -142q-1 -6 -186 -147h-856q-5 0 -108 147q3 7 181 142q212 0 434 5zM1776 1786h69l55 -69q-46 -186 -70 -276q-21 -78 -79 -280l-92 -69h-64q-6 0 -109 147q12 45 50 202
q43 146 60 207zM557 1786h69l106 -138q-23 -99 -36 -147l-32 -120q-13 -48 -43 -147l-186 -142h-64l-56 69q23 99 35 147l71 262q13 48 43 147z" />
    <glyph glyph-name="ccedilla" unicode="&#xe7;" 
d="M756 2016h1150q6 0 55 -73l-19 -69q-1 -6 -187 -148h-1003q-6 0 -107 148l19 69q1 5 92 73zM553 1786h69q6 -1 107 -147l-122 -455q-1 -6 -186 -148h-69q-6 0 -55 74l162 603q1 5 94 73zM337 981h69q7 -1 107 -147l-121 -455q-2 -6 -187 -148h-69q-6 0 -54 74l161 603
q2 5 94 73zM368 291h1003q7 -1 108 -147l-19 -69q-2 -6 -94 -74h-1150q-5 0 -53 74l19 69q2 7 186 147zM953 -57h69q6 0 54 -74l-116 -432q-1 -6 -94 -74h-69q-5 0 -107 147l76 286q3 6 187 147zM325 -563h281q7 -1 108 -147l-19 -69q-1 -6 -94 -74h-427q-6 0 -54 74l19 69
q2 6 186 147z" />
    <glyph glyph-name="egrave" unicode="&#xe8;" 
d="M761 2016h1145q6 0 55 -73l-20 -74q-2 -6 -182 -143h-1007q-6 0 -104 143l20 74q1 5 93 73zM557 1786h69l106 -138q-22 -99 -35 -147l-32 -120q-13 -48 -44 -147l-185 -142h-65l-55 69q22 99 34 147l71 262q13 48 44 147zM1032 1156q223 -5 435 -5l100 -142
q-1 -6 -186 -147h-855q-6 0 -109 147q3 7 181 142q213 0 434 5zM321 921h73q7 -1 105 -142q-12 -44 -50 -203q-44 -146 -60 -207l-180 -138h-69l-55 69q45 187 69 276q22 79 81 281zM373 291h1002q7 -1 105 -142l-20 -74q-2 -6 -94 -74h-1145q-6 0 -54 74l19 69q2 7 187 147
zM1152 2644h69q7 -1 108 -147l-18 -69q-2 -6 -93 -74h-143q-6 0 -54 74l38 143q1 5 93 73zM1324 2359h56q7 -1 108 -147l-19 -69q-1 -6 -99 -78h-134q-6 0 -57 78l38 142q82 74 107 74z" />
    <glyph glyph-name="eacute" unicode="&#xe9;" 
d="M761 2016h1145q6 0 55 -73l-20 -74q-2 -6 -182 -143h-1007q-6 0 -104 143l20 74q1 5 93 73zM557 1786h69l106 -138q-22 -99 -35 -147l-32 -120q-13 -48 -44 -147l-185 -142h-65l-55 69q22 99 34 147l71 262q13 48 44 147zM1032 1156q223 -5 435 -5l100 -142
q-1 -6 -186 -147h-855q-6 0 -109 147q3 7 181 142q213 0 434 5zM321 921h73q7 -1 105 -142q-12 -44 -50 -203q-44 -146 -60 -207l-180 -138h-69l-55 69q45 187 69 276q22 79 81 281zM373 291h1002q7 -1 105 -142l-20 -74q-2 -6 -94 -74h-1145q-6 0 -54 74l19 69q2 7 187 147
zM1634 2640h69q6 0 55 -74l-39 -143q-1 -5 -93 -73h-143q-5 0 -54 73l19 69q3 7 186 148zM1323 2354h65q6 0 57 -78l-37 -138q-2 -6 -99 -78h-138q-6 0 -54 74l19 73q3 7 187 147z" />
    <glyph glyph-name="ecircumflex" unicode="&#xea;" 
d="M761 2016h1145q6 0 55 -73l-20 -74q-2 -6 -182 -143h-1007q-6 0 -104 143l20 74q1 5 93 73zM557 1786h69l106 -138q-22 -99 -35 -147l-32 -120q-13 -48 -44 -147l-185 -142h-65l-55 69q22 99 34 147l71 262q13 48 44 147zM1032 1156q223 -5 435 -5l100 -142
q-1 -6 -186 -147h-855q-6 0 -109 147q3 7 181 142q213 0 434 5zM321 921h73q7 -1 105 -142q-12 -44 -50 -203q-44 -146 -60 -207l-180 -138h-69l-55 69q45 187 69 276q22 79 81 281zM373 291h1002q7 -1 105 -142l-20 -74q-2 -6 -94 -74h-1145q-6 0 -54 74l19 69q2 7 187 147
zM1376 2858h197q7 0 41 -55l-27 -101l-130 -106q-53 4 -77 4h-27l-79 102l16 46l15 55q2 7 71 55zM1648 2656h69q6 -2 107 -148l-15 -55q-6 -25 -96 -87h-143q-6 0 -53 73l17 65v1q0 3 -4 3l8 10l17 64q1 6 93 74zM1149 2651h65q6 0 57 -78l-37 -138q-1 -6 -93 -74
q-20 0 -139 -4q-12 0 -59 73l20 74q3 7 186 147zM1806 2370h55q26 0 122 -147l-19 -69q-1 -6 -99 -78h-138q-6 0 -54 74l39 147q2 6 94 73zM833 2361h74q52 -62 52 -76v-2q-6 -22 -43 -143l-92 -69h-138q-6 0 -53 74l17 64l-2 10z" />
    <glyph glyph-name="edieresis" unicode="&#xeb;" 
d="M761 2016h1145q6 0 55 -73l-20 -74q-2 -6 -182 -143h-1007q-6 0 -104 143l20 74q1 5 93 73zM557 1786h69l106 -138q-22 -99 -35 -147l-32 -120q-13 -48 -44 -147l-185 -142h-65l-55 69q22 99 34 147l71 262q13 48 44 147zM1032 1156q223 -5 435 -5l100 -142
q-1 -6 -186 -147h-855q-6 0 -109 147q3 7 181 142q213 0 434 5zM321 921h73q7 -1 105 -142q-12 -44 -50 -203q-44 -146 -60 -207l-180 -138h-69l-55 69q45 187 69 276q22 79 81 281zM373 291h1002q7 -1 105 -142l-20 -74q-2 -6 -94 -74h-1145q-6 0 -54 74l19 69q2 7 187 147
zM874 2543q7 -5 18 -5h37q5 0 40 -55l-13 -50q-2 -7 -141 -111h-55q-7 0 -40 55l28 106q2 7 70 55h37q10 0 19 5zM1127 2543l9 -5h46q5 0 40 -55l-28 -106q-2 -7 -70 -55h-56l-81 106l7 9l12 46q2 7 70 55h46q4 0 5 5zM749 2281h55q6 0 81 -111l-13 -50q-2 -7 -70 -55h-37
q-11 0 -20 -5q-7 5 -17 5h-37q-7 0 -40 55l28 106q2 6 70 55zM1057 2281h56q5 0 40 -55l-28 -106q-2 -7 -70 -55h-106q-7 0 -40 55l12 46l-2 9zM1678 2550q7 -5 17 -5h37q6 0 40 -55l-13 -51q-2 -6 -140 -110h-55q-7 0 -41 55l28 106q2 7 71 55h36q11 0 20 5zM1931 2550
l8 -5h46q6 0 40 -55l-28 -106q-2 -7 -70 -55h-55l-83 106l8 9l12 46q2 7 70 55h46q5 0 6 5zM1553 2288h55q6 0 80 -111l-13 -50q-2 -7 -70 -56h-37q-10 0 -19 -4q-7 4 -18 4h-36q-7 0 -41 56l28 105q2 7 71 56zM1861 2288h55q6 0 40 -56l-28 -105q-2 -7 -70 -56h-106
q-7 0 -40 56l12 46l-2 9z" />
    <glyph glyph-name="igrave" unicode="&#xec;" horiz-adv-x="724" 
d="M818 2016h69q7 -1 108 -147l-184 -685q-1 -6 -186 -148h-69q-6 0 -54 74l224 833q1 5 92 73zM615 981h69q5 0 53 -73l-223 -833q-2 -6 -93 -74h-69q-6 0 -107 148l183 685q3 7 187 147zM781 2644h69q7 -1 109 -147l-18 -69q-2 -6 -94 -74h-143q-5 0 -53 74l38 143
q1 5 92 73zM954 2359h55q7 -1 108 -147l-19 -69q-1 -6 -99 -78h-133q-6 0 -58 78l38 142q83 74 108 74z" />
    <glyph glyph-name="iacute" unicode="&#xed;" horiz-adv-x="724" 
d="M643 2016h69q7 -1 109 -147l-184 -685q-1 -6 -187 -148h-69q-5 0 -54 74l224 833q1 5 92 73zM440 981h69q6 0 54 -73l-223 -833q-2 -6 -94 -74h-69q-6 0 -107 148l183 685q3 7 187 147zM1089 2640h69q5 0 54 -74l-39 -143q-1 -5 -92 -73h-143q-6 0 -55 73l19 69
q4 7 187 148zM778 2354h64q6 0 58 -78l-37 -138q-2 -6 -100 -78h-138q-5 0 -53 74l19 73q3 7 187 147z" />
    <glyph glyph-name="icircumflex" unicode="&#xee;" horiz-adv-x="1534" 
d="M1136 2016h69q7 -1 108 -147l-184 -685q-1 -6 -186 -148h-69q-6 0 -55 74l224 833q1 5 93 73zM932 981h69q6 0 54 -73l-223 -833q-2 -6 -94 -74h-69q-5 0 -107 148l183 685q3 7 187 147zM1323 2858h197q7 0 41 -55l-27 -101l-130 -106q-53 4 -77 4h-27l-79 102l16 46
l15 55q2 7 71 55zM1595 2656h69q6 -2 107 -148l-15 -55q-6 -25 -96 -87h-143q-6 0 -53 73l17 65v1q0 3 -4 3l8 10l17 64q1 6 93 74zM1096 2651h65q6 0 57 -78l-37 -138q-1 -6 -93 -74q-20 0 -139 -4q-12 0 -59 73l20 74q3 7 186 147zM1753 2370h55q26 0 122 -147l-19 -69
q-1 -6 -99 -78h-138q-6 0 -54 74l39 147q2 6 94 73zM780 2361h74q52 -62 52 -76v-2q-6 -22 -43 -143l-92 -69h-138q-6 0 -53 74l17 64l-2 10z" />
    <glyph glyph-name="idieresis" unicode="&#xef;" horiz-adv-x="1475" 
d="M1106 2016h69q7 -1 108 -147l-184 -685q-1 -6 -186 -148h-69q-6 0 -55 74l224 833q1 5 93 73zM902 981h69q6 0 54 -73l-223 -833q-2 -6 -94 -74h-69q-6 0 -107 148l183 685q3 7 187 147zM791 2543q7 -5 18 -5h36q6 0 41 -55l-13 -50q-2 -7 -141 -111h-55q-7 0 -40 55
l28 106q2 7 70 55h37q10 0 19 5zM1044 2543l8 -5h46q6 0 41 -55l-28 -106q-2 -7 -71 -55h-55l-81 106l6 9l12 46q2 7 71 55h46q4 0 5 5zM666 2281h55q6 0 81 -111l-13 -50q-2 -7 -71 -55h-36q-11 0 -20 -5q-7 5 -17 5h-37q-7 0 -40 55l28 106q2 6 70 55zM974 2281h55
q6 0 41 -55l-28 -106q-2 -7 -71 -55h-105q-7 0 -41 55l12 46l-1 9zM1595 2550q7 -5 17 -5h37q6 0 40 -55l-13 -51q-2 -6 -140 -110h-55q-7 0 -41 55l28 106q2 7 71 55h36q11 0 20 5zM1848 2550l8 -5h46q6 0 40 -55l-28 -106q-2 -7 -70 -55h-55l-83 106l8 9l12 46q2 7 70 55
h46q5 0 6 5zM1470 2288h55q6 0 80 -111l-13 -50q-2 -7 -70 -56h-37q-10 0 -19 -4q-7 4 -18 4h-36q-7 0 -41 56l28 105q2 7 71 56zM1778 2288h55q6 0 40 -56l-28 -105q-2 -7 -70 -56h-106q-7 0 -40 56l12 46l-2 9z" />
    <glyph glyph-name="eth" unicode="&#xf0;" horiz-adv-x="1310" 
 />
    <glyph glyph-name="ntilde" unicode="&#xf1;" horiz-adv-x="1701" 
d="M618 2016h69q7 -1 109 -147l-184 -685q-1 -6 -187 -148h-69q-5 0 -54 74l224 833q1 5 92 73zM1842 2016h64q6 0 58 -78l-222 -828q-1 -6 -93 -74h-74q-5 0 -104 143l185 690q3 7 186 147zM947 1818q155 -69 168 -78q87 -549 181 -1007q-104 -173 -132 -198l-66 -28
q-87 33 -91 42q-115 583 -203 1145q56 111 103 111q2 9 40 13zM341 981h69q7 -1 108 -147l-33 -124q-39 -147 -64 -221q-15 -74 -54 -221l-32 -119q-2 -6 -188 -148h-69q-5 0 -53 74q33 123 128 497q77 267 96 340zM1565 981h64q6 0 58 -78l-222 -828q-2 -6 -94 -74h-74
q-5 0 -103 143q87 344 115 451q69 238 71 244zM1059 2562h60q4 0 47 -63l-15 -56q-1 -2 -1 -3q0 -2 3 -2l-6 -7l-15 -56q-1 -5 -80 -63h-125q-43 47 -43 70q0 3 1 5l12 48q3 6 162 127zM1290 2562h64q6 -1 90 -124l-17 -63q-1 -5 -80 -63h-124q-5 0 -46 63l34 124q1 5 79 63
zM2059 2562h65q4 0 47 -63l-34 -124q-1 -5 -80 -63h-125q-4 0 -46 63l17 63q3 7 156 124zM801 2315h48q5 0 47 -64l-34 -128q-1 -4 -81 -63h-120q-4 0 -49 68l16 60q150 127 173 127zM1431 2315h56l97 -127l-5 -8l-15 -57q-1 -4 -82 -63h-119q-5 0 -46 63l29 128zM1791 2315
l6 -3h56q5 0 44 -61l-12 -47q-2 -6 -2 -10t1 -6q-6 -7 -8 -17l-13 -48q-1 -4 -80 -63h-121q-5 0 -49 68l15 56z" />
    <glyph glyph-name="ograve" unicode="&#xf2;" 
d="M756 2016h1008q5 0 54 -73l-19 -69q-1 -6 -187 -148h-860q-6 0 -104 143l21 78q1 6 87 69zM553 1786h73q6 -1 105 -142l-109 -405q-2 -6 -181 -143h-73q-6 0 -54 74l145 543q1 5 94 73zM1776 1786h69q6 0 54 -73l-145 -543q-2 -6 -94 -74h-69q-5 0 -108 147l106 396
q3 7 187 147zM326 926h65q7 -1 108 -147l-107 -400q-2 -6 -187 -148h-65q-5 0 -57 79l144 538q2 6 99 78zM1545 926h69q6 0 54 -74l-146 -547q-2 -6 -94 -74h-69q-5 0 -107 148l107 400q3 7 186 147zM368 291h860q7 -1 108 -147l-19 -69q-2 -6 -93 -74h-1003q-6 0 -54 74
l20 74q3 7 181 142zM1152 2644h69q7 -1 108 -147l-18 -69q-2 -6 -93 -74h-143q-6 0 -54 74l38 143q1 5 93 73zM1324 2359h56q7 -1 108 -147l-19 -69q-1 -6 -99 -78h-134q-6 0 -57 78l38 142q82 74 107 74z" />
    <glyph glyph-name="oacute" unicode="&#xf3;" 
d="M756 2016h1008q5 0 54 -73l-19 -69q-1 -6 -187 -148h-860q-6 0 -104 143l21 78q1 6 87 69zM553 1786h73q6 -1 105 -142l-109 -405q-2 -6 -181 -143h-73q-6 0 -54 74l145 543q1 5 94 73zM1776 1786h69q6 0 54 -73l-145 -543q-2 -6 -94 -74h-69q-5 0 -108 147l106 396
q3 7 187 147zM326 926h65q7 -1 108 -147l-107 -400q-2 -6 -187 -148h-65q-5 0 -57 79l144 538q2 6 99 78zM1545 926h69q6 0 54 -74l-146 -547q-2 -6 -94 -74h-69q-5 0 -107 148l107 400q3 7 186 147zM368 291h860q7 -1 108 -147l-19 -69q-2 -6 -93 -74h-1003q-6 0 -54 74
l20 74q3 7 181 142zM1634 2640h69q6 0 55 -74l-39 -143q-1 -5 -93 -73h-143q-5 0 -54 73l19 69q3 7 186 148zM1323 2354h65q6 0 57 -78l-37 -138q-2 -6 -99 -78h-138q-6 0 -54 74l19 73q3 7 187 147z" />
    <glyph glyph-name="ocircumflex" unicode="&#xf4;" 
d="M756 2016h1008q5 0 54 -73l-19 -69q-1 -6 -187 -148h-860q-6 0 -104 143l21 78q1 6 87 69zM553 1786h73q6 -1 105 -142l-109 -405q-2 -6 -181 -143h-73q-6 0 -54 74l145 543q1 5 94 73zM1776 1786h69q6 0 54 -73l-145 -543q-2 -6 -94 -74h-69q-5 0 -108 147l106 396
q3 7 187 147zM326 926h65q7 -1 108 -147l-107 -400q-2 -6 -187 -148h-65q-5 0 -57 79l144 538q2 6 99 78zM1545 926h69q6 0 54 -74l-146 -547q-2 -6 -94 -74h-69q-5 0 -107 148l107 400q3 7 186 147zM368 291h860q7 -1 108 -147l-19 -69q-2 -6 -93 -74h-1003q-6 0 -54 74
l20 74q3 7 181 142zM1376 2858h197q7 0 41 -55l-27 -101l-130 -106q-53 4 -77 4h-27l-79 102l16 46l15 55q2 7 71 55zM1648 2656h69q6 -2 107 -148l-15 -55q-6 -25 -96 -87h-143q-6 0 -53 73l17 65v1q0 3 -4 3l8 10l17 64q1 6 93 74zM1149 2651h65q6 0 57 -78l-37 -138
q-1 -6 -93 -74q-20 0 -139 -4q-12 0 -59 73l20 74q3 7 186 147zM1806 2370h55q26 0 122 -147l-19 -69q-1 -6 -99 -78h-138q-6 0 -54 74l39 147q2 6 94 73zM833 2361h74q52 -62 52 -76v-2q-6 -22 -43 -143l-92 -69h-138q-6 0 -53 74l17 64l-2 10z" />
    <glyph glyph-name="otilde" unicode="&#xf5;" horiz-adv-x="1699" 
d="M756 2016h1008q6 0 54 -73l-19 -69q-1 -6 -187 -148h-860q-6 0 -104 143l21 78q1 6 87 69zM553 1786h73q6 -1 105 -142l-109 -405q-2 -6 -181 -143h-73q-6 0 -54 74l145 543q1 5 94 73zM1776 1786h69q6 0 54 -73l-145 -543q-2 -6 -94 -74h-69q-5 0 -108 147l106 396
q3 7 187 147zM326 926h65q7 -1 108 -147l-107 -400q-2 -6 -187 -148h-65q-5 0 -57 79l144 538q2 6 99 78zM1545 926h69q6 0 54 -74l-146 -547q-2 -6 -94 -74h-69q-5 0 -107 148l107 400q3 7 186 147zM368 291h860q7 -1 108 -147l-19 -69q-2 -6 -93 -74h-1003q-6 0 -54 74
l20 74q4 7 181 142zM1057 2562h59q5 0 48 -63l-15 -56q-1 -2 -1 -3q0 -2 3 -2l-6 -7l-15 -56q-1 -5 -81 -63h-124q-43 47 -43 70q0 3 1 5l12 48q3 6 162 127zM1288 2562h64q6 -1 90 -124l-17 -63q-1 -5 -80 -63h-124q-5 0 -47 63l34 124q1 5 80 63zM2057 2562h64q5 0 48 -63
l-34 -124q-1 -5 -81 -63h-124q-4 0 -46 63l17 63q3 7 156 124zM799 2315h48q4 0 47 -64l-34 -128q-1 -4 -81 -63h-120q-4 0 -50 68l16 60q151 127 174 127zM1429 2315h56l97 -127l-5 -8l-15 -57q-1 -4 -82 -63h-119q-5 0 -47 63l30 128zM1789 2315l6 -3h56q5 0 44 -61
l-12 -47q-2 -6 -2 -10t1 -6q-6 -7 -8 -17l-13 -48q-1 -4 -81 -63h-120q-5 0 -49 68l15 56z" />
    <glyph glyph-name="odieresis" unicode="&#xf6;" 
d="M756 2016h1008q5 0 54 -73l-19 -69q-1 -6 -187 -148h-860q-6 0 -104 143l21 78q1 6 87 69zM553 1786h73q6 -1 105 -142l-109 -405q-2 -6 -181 -143h-73q-6 0 -54 74l145 543q1 5 94 73zM1776 1786h69q6 0 54 -73l-145 -543q-2 -6 -94 -74h-69q-5 0 -108 147l106 396
q3 7 187 147zM326 926h65q7 -1 108 -147l-107 -400q-2 -6 -187 -148h-65q-5 0 -57 79l144 538q2 6 99 78zM1545 926h69q6 0 54 -74l-146 -547q-2 -6 -94 -74h-69q-5 0 -107 148l107 400q3 7 186 147zM368 291h860q7 -1 108 -147l-19 -69q-2 -6 -93 -74h-1003q-6 0 -54 74
l20 74q3 7 181 142zM874 2543q7 -5 18 -5h37q5 0 40 -55l-13 -50q-2 -7 -141 -111h-55q-7 0 -40 55l28 106q2 7 70 55h37q10 0 19 5zM1127 2543l9 -5h46q5 0 40 -55l-28 -106q-2 -7 -70 -55h-56l-81 106l7 9l12 46q2 7 70 55h46q4 0 5 5zM749 2281h55q6 0 81 -111l-13 -50
q-2 -7 -70 -55h-37q-11 0 -20 -5q-7 5 -17 5h-37q-7 0 -40 55l28 106q2 6 70 55zM1057 2281h56q5 0 40 -55l-28 -106q-2 -7 -70 -55h-106q-7 0 -40 55l12 46l-2 9zM1678 2550q7 -5 17 -5h37q6 0 40 -55l-13 -51q-2 -6 -140 -110h-55q-7 0 -41 55l28 106q2 7 71 55h36
q11 0 20 5zM1931 2550l8 -5h46q6 0 40 -55l-28 -106q-2 -7 -70 -55h-55l-83 106l8 9l12 46q2 7 70 55h46q5 0 6 5zM1553 2288h55q6 0 80 -111l-13 -50q-2 -7 -70 -56h-37q-10 0 -19 -4q-7 4 -18 4h-36q-7 0 -41 56l28 105q2 7 71 56zM1861 2288h55q6 0 40 -56l-28 -105
q-2 -7 -70 -56h-106q-7 0 -40 56l12 46l-2 9z" />
    <glyph glyph-name="divide" unicode="&#xf7;" horiz-adv-x="1428" 
d="M594 1153h943q6 -1 104 -143l-20 -73q-2 -6 -93 -74h-1081q-6 0 -54 74l20 73q3 7 181 143zM955 577q74 -12 74 -43q0 -4 -1 -8q5 -1 21 -60q-37 -92 -76 -92q-2 -7 -22 -14q-141 36 -141 55v1q-9 23 -9 33v3q37 83 64 83q71 42 90 42zM699 448q74 -10 74 -42q0 -4 -1 -9
q7 0 7 -9q0 -4 -1 -9q-72 -142 -87 -152q-41 -18 -51 -18q-73 10 -73 36q0 2 1 5q-22 62 -22 73v1q41 87 69 87q68 37 84 37zM1014 356q85 -15 85 -45q0 -3 -1 -6q18 -51 18 -66v-3q-36 -83 -64 -83q-73 -41 -84 -41q-74 0 -84 64l2 5q76 152 90 152q37 17 38 23zM710 199
q136 -33 140 -46q12 -29 12 -39v-2q-35 -87 -64 -87q-4 -3 -81 -42q-80 12 -80 40q0 3 1 6q-5 0 -24 69q41 88 70 88q1 4 26 13zM1344 2032q75 -12 75 -42q0 -4 -1 -8q5 -1 21 -60q-37 -92 -76 -92q-2 -7 -21 -14q-142 36 -142 54v1q-9 24 -9 34v3q37 83 64 83q70 41 89 41z
M1089 1904q75 -10 75 -43q0 -4 -1 -8q7 0 7 -8q0 -4 -2 -10q-72 -142 -87 -152q-41 -19 -51 -19q-73 11 -73 37q0 2 1 5q-22 62 -22 72v1q41 88 69 88q68 37 84 37zM1405 1812q84 -15 84 -45q0 -3 -1 -6q18 -52 18 -66v-3q-36 -83 -64 -83q-73 -41 -84 -41q-74 0 -84 64l2 5
q76 152 90 152q37 17 39 23zM1100 1655q137 -33 140 -46q12 -29 12 -39v-2q-35 -88 -64 -88q-4 -2 -80 -41q-81 12 -81 40q0 3 1 6q-5 0 -24 69q41 87 70 87q1 5 26 14z" />
    <glyph glyph-name="oslash" unicode="&#xf8;" 
d="M753 2006h1008q5 0 53 -74l-19 -69q-1 -5 -186 -147h-860q-6 0 -105 143l21 78q2 6 88 69zM553 1786h73q6 -1 105 -142l-109 -405q-2 -6 -181 -143h-73q-6 0 -54 74l145 543q1 5 94 73zM1776 1786h69q6 0 54 -73l-145 -543q-2 -6 -94 -74h-69q-5 0 -108 147l106 396
q3 7 187 147zM326 926h65q7 -1 108 -147l-107 -400q-2 -6 -187 -148h-65q-5 0 -57 79l144 538q2 6 99 78zM1545 926h69q6 0 54 -74l-146 -547q-2 -6 -94 -74h-69q-5 0 -107 148l107 400q3 7 186 147zM386 299h860q7 -1 108 -147l-19 -69q-1 -6 -93 -74h-1003q-6 0 -54 74
l20 74q4 7 181 142zM1366 1603h69q6 0 54 -73l-38 -143q-2 -6 -94 -73h-64q-5 0 -6 -5l-8 5h-64q-6 0 -54 73l18 69q3 7 187 147zM664 678l7 -5h65q5 0 54 -74l-19 -69q-1 -5 -186 -147h-69q-6 0 -55 74l40 147q1 6 87 69h69q5 0 7 5zM929 1069q18 17 179 140h74
q14 -12 104 -147l-182 -143h-24l-177 -140h-74q-14 11 -104 147q4 7 181 143h23z" />
    <glyph glyph-name="ugrave" unicode="&#xf9;" horiz-adv-x="1636" 
d="M613 2012h69q7 -2 107 -148l-182 -680q-1 -6 -186 -148h-69q-6 0 -55 74l222 828q2 6 94 74zM1827 2012h69q6 0 58 -79l-217 -809q-7 -25 -97 -88h-74q-5 0 -108 148l179 667q7 26 190 161zM337 981h69q7 -1 107 -147l-121 -455q-2 -6 -187 -148h-69q-6 0 -54 74l161 603
q2 5 94 73zM1551 981h69q6 0 54 -73q-17 -66 -76 -304q-62 -213 -87 -304l-92 -69h-69q-102 130 -102 147v1q37 140 55 225q29 92 69 239zM364 291h855q7 -1 108 -147l-19 -69q-2 -6 -93 -74h-1003q-6 0 -54 74l19 69q3 7 187 147zM1150 2644h69q7 -1 108 -147l-18 -69
q-2 -6 -93 -74h-143q-6 0 -54 74l38 143q1 5 93 73zM1322 2359h56q7 -1 108 -147l-19 -69q-1 -6 -99 -78h-134q-6 0 -57 78l38 142q82 74 107 74z" />
    <glyph glyph-name="uacute" unicode="&#xfa;" horiz-adv-x="1636" 
d="M613 2012h69q7 -2 107 -148l-182 -680q-1 -6 -186 -148h-69q-6 0 -55 74l222 828q2 6 94 74zM1827 2012h69q6 0 58 -79l-217 -809q-7 -25 -97 -88h-74q-5 0 -108 148l179 667q7 26 190 161zM337 981h69q7 -1 107 -147l-121 -455q-2 -6 -187 -148h-69q-6 0 -54 74l161 603
q2 5 94 73zM1551 981h69q6 0 54 -73q-17 -66 -76 -304q-62 -213 -87 -304l-92 -69h-69q-102 130 -102 147v1q37 140 55 225q29 92 69 239zM364 291h855q7 -1 108 -147l-19 -69q-2 -6 -93 -74h-1003q-6 0 -54 74l19 69q3 7 187 147zM1632 2640h69q6 0 55 -74l-39 -143
q-1 -5 -93 -73h-143q-5 0 -54 73l19 69q3 7 186 148zM1321 2354h65q6 0 57 -78l-37 -138q-2 -6 -99 -78h-138q-6 0 -54 74l19 73q3 7 187 147z" />
    <glyph glyph-name="ucircumflex" unicode="&#xfb;" horiz-adv-x="1636" 
d="M613 2012h69q7 -2 107 -148l-182 -680q-1 -6 -186 -148h-69q-6 0 -55 74l222 828q2 6 94 74zM1827 2012h69q6 0 58 -79l-217 -809q-7 -25 -97 -88h-74q-5 0 -108 148l179 667q7 26 190 161zM337 981h69q7 -1 107 -147l-121 -455q-2 -6 -187 -148h-69q-6 0 -54 74l161 603
q2 5 94 73zM1551 981h69q6 0 54 -73q-17 -66 -76 -304q-62 -213 -87 -304l-92 -69h-69q-102 130 -102 147v1q37 140 55 225q29 92 69 239zM364 291h855q7 -1 108 -147l-19 -69q-2 -6 -93 -74h-1003q-6 0 -54 74l19 69q3 7 187 147zM1374 2858h197q7 0 41 -55l-27 -101
l-130 -106q-53 4 -77 4h-27l-79 102l16 46l15 55q2 7 71 55zM1646 2656h69q6 -2 107 -148l-15 -55q-6 -25 -96 -87h-143q-6 0 -53 73l17 65v1q0 3 -4 3l8 10l17 64q1 6 93 74zM1147 2651h65q6 0 57 -78l-37 -138q-1 -6 -93 -74q-20 0 -139 -4q-12 0 -59 73l20 74
q3 7 186 147zM1804 2370h55q26 0 122 -147l-19 -69q-1 -6 -99 -78h-138q-6 0 -54 74l39 147q2 6 94 73zM831 2361h74q52 -62 52 -76v-2q-6 -22 -43 -143l-92 -69h-138q-6 0 -53 74l17 64l-2 10z" />
    <glyph glyph-name="udieresis" unicode="&#xfc;" horiz-adv-x="1636" 
d="M613 2012h69q7 -2 107 -148l-182 -680q-1 -6 -186 -148h-69q-6 0 -55 74l222 828q2 6 94 74zM1827 2012h69q6 0 58 -79l-217 -809q-7 -25 -97 -88h-74q-5 0 -108 148l179 667q7 26 190 161zM337 981h69q7 -1 107 -147l-121 -455q-2 -6 -187 -148h-69q-6 0 -54 74l161 603
q2 5 94 73zM1551 981h69q6 0 54 -73q-17 -66 -76 -304q-62 -213 -87 -304l-92 -69h-69q-102 130 -102 147v1q37 140 55 225q29 92 69 239zM364 291h855q7 -1 108 -147l-19 -69q-2 -6 -93 -74h-1003q-6 0 -54 74l19 69q3 7 187 147zM872 2543q7 -5 18 -5h37q5 0 40 -55
l-13 -50q-2 -7 -141 -111h-55q-7 0 -40 55l28 106q2 7 70 55h37q10 0 19 5zM1125 2543l9 -5h46q5 0 40 -55l-28 -106q-2 -7 -70 -55h-56l-81 106l7 9l12 46q2 7 70 55h46q4 0 5 5zM747 2281h55q6 0 81 -111l-13 -50q-2 -7 -70 -55h-37q-11 0 -20 -5q-7 5 -17 5h-37
q-7 0 -40 55l28 106q2 6 70 55zM1055 2281h56q5 0 40 -55l-28 -106q-2 -7 -70 -55h-106q-7 0 -40 55l12 46l-2 9zM1676 2550q7 -5 17 -5h37q6 0 40 -55l-13 -51q-2 -6 -140 -110h-55q-7 0 -41 55l28 106q2 7 71 55h36q11 0 20 5zM1929 2550l8 -5h46q6 0 40 -55l-28 -106
q-2 -7 -70 -55h-55l-83 106l8 9l12 46q2 7 70 55h46q5 0 6 5zM1551 2288h55q6 0 80 -111l-13 -50q-2 -7 -70 -56h-37q-10 0 -19 -4q-7 4 -18 4h-36q-7 0 -41 56l28 105q2 7 71 56zM1859 2288h55q6 0 40 -56l-28 -105q-2 -7 -70 -56h-106q-7 0 -40 56l12 46l-2 9z" />
    <glyph glyph-name="yacute" unicode="&#xfd;" horiz-adv-x="1636" 
d="M614 2016h74l109 -142l-8 -10l-17 -64q-1 -6 -93 -74h-138q-6 0 -54 74q6 21 32 138q4 13 95 78zM1833 2016h69q6 0 55 -73l-39 -143q-1 -6 -94 -74h-143q-5 0 -53 74l19 69q3 7 186 147zM1812 1680q46 -32 46 -51q0 -2 -1 -4q-4 -50 -15 -92l-422 -405
q-157 -142 -159 -151q-93 -10 -109 -10q-43 28 -43 57q0 6 2 12q22 150 31 184q223 198 229 221q231 216 242 216zM518 1676q151 -19 200 -28l231 -441q-76 -221 -100 -221q-12 0 -44 -28q-114 7 -114 37q0 3 1 5q-12 10 -282 529q36 110 52 110q3 0 56 37zM987 1023l9 -5
h64q6 0 54 -74l-214 -800q-2 -6 -182 -143h-74q-5 0 -53 74l233 869q2 6 93 74h65q4 0 5 5zM1632 2640h69q6 0 55 -74l-39 -143q-1 -5 -93 -73h-143q-5 0 -54 73l19 69q3 7 186 148zM1321 2354h65q6 0 57 -78l-37 -138q-2 -6 -99 -78h-138q-6 0 -54 74l19 73q3 7 187 147z
" />
    <glyph glyph-name="thorn" unicode="&#xfe;" horiz-adv-x="1162" 
 />
    <glyph glyph-name="ydieresis" unicode="&#xff;" horiz-adv-x="998" 
 />
    <glyph glyph-name="dotlessi" unicode="&#x131;" horiz-adv-x="591" 
 />
    <glyph glyph-name="OE" unicode="&#x152;" horiz-adv-x="3046" 
d="M756 2016h1008q5 0 54 -73l-19 -69q-1 -6 -187 -148h-860q-6 0 -104 143l21 78q1 6 87 69zM553 1786h73q6 -1 105 -142l-109 -405q-2 -6 -181 -143h-73q-6 0 -54 74l145 543q1 5 94 73zM1776 1786h69q6 0 54 -73l-145 -543q-2 -6 -94 -74h-69q-5 0 -108 147l106 396
q3 7 187 147zM326 926h65q7 -1 108 -147l-107 -400q-2 -6 -187 -148h-65q-5 0 -57 79l144 538q2 6 99 78zM1545 926h69q6 0 54 -74l-146 -547q-2 -6 -94 -74h-69q-5 0 -107 148l107 400q3 7 186 147zM368 291h860q7 -1 108 -147l-19 -69q-2 -6 -93 -74h-1003q-6 0 -54 74
l20 74q3 7 181 142zM2230 2016h1145q6 0 55 -73l-20 -74q-2 -6 -182 -143h-1007q-6 0 -104 143l20 74q1 5 93 73zM2026 1786h69l106 -138q-22 -99 -35 -147l-32 -120q-13 -48 -44 -147l-185 -142h-65l-55 69q22 99 34 147l71 262q13 48 44 147zM2501 1156q223 -5 435 -5
l100 -142q-1 -6 -186 -147h-855q-6 0 -109 147q3 7 181 142q213 0 434 5zM1790 921h73q7 -1 105 -142q-12 -44 -50 -203q-44 -146 -60 -207l-180 -138h-69l-55 69q45 187 69 276q22 79 81 281zM1842 291h1002q7 -1 105 -142l-20 -74q-2 -6 -94 -74h-1145q-6 0 -54 74l19 69
q2 7 187 147z" />
    <glyph glyph-name="oe" unicode="&#x153;" horiz-adv-x="3164" 
d="M749 2016h1008q5 0 54 -73l-19 -69q-1 -6 -187 -148h-860q-6 0 -104 143l21 78q1 6 87 69zM546 1786h73q6 -1 105 -142l-109 -405q-2 -6 -181 -143h-73q-6 0 -54 74l145 543q1 5 94 73zM1769 1786h69q6 0 54 -73l-145 -543q-2 -6 -94 -74h-69q-5 0 -108 147l106 396
q3 7 187 147zM319 926h65q7 -1 108 -147l-107 -400q-2 -6 -187 -148h-65q-5 0 -57 79l144 538q2 6 99 78zM1538 926h69q6 0 54 -74l-146 -547q-2 -6 -94 -74h-69q-5 0 -107 148l107 400q3 7 186 147zM361 291h860q7 -1 108 -147l-19 -69q-2 -6 -93 -74h-1003q-6 0 -54 74
l20 74q3 7 181 142zM2223 2016h1145q6 0 55 -73l-20 -74q-2 -6 -182 -143h-1007q-6 0 -104 143l20 74q1 5 93 73zM2019 1786h69l106 -138q-22 -99 -35 -147l-32 -120q-13 -48 -44 -147l-185 -142h-65l-55 69q22 99 34 147l71 262q13 48 44 147zM2494 1156q223 -5 435 -5
l100 -142q-1 -6 -186 -147h-855q-6 0 -109 147q3 7 181 142q213 0 434 5zM1783 921h73q7 -1 105 -142q-12 -44 -50 -203q-44 -146 -60 -207l-180 -138h-69l-55 69q45 187 69 276q22 79 81 281zM1835 291h1002q7 -1 105 -142l-20 -74q-2 -6 -94 -74h-1145q-6 0 -54 74l19 69
q2 7 187 147z" />
    <glyph glyph-name="circumflex" unicode="&#x2c6;" horiz-adv-x="1534" 
d="M1325 2865h197q7 0 41 -55l-27 -101l-131 -106q-52 4 -76 4h-27l-79 102l16 46l15 55q2 7 71 55zM1597 2663h69q6 -2 107 -148l-15 -55q-7 -25 -96 -87h-143q-6 0 -54 73l18 65v1q0 3 -4 3l8 10l17 64q1 6 93 74zM1098 2658h65q6 0 57 -78l-37 -138q-1 -6 -93 -74
q-20 0 -140 -4q-12 0 -58 73l20 74q3 7 186 147zM1755 2377h55q26 0 122 -147l-19 -69q-2 -6 -99 -78h-138q-6 0 -54 74l39 147q2 5 94 73zM782 2368h74q52 -62 52 -76v-2q-6 -22 -43 -143l-92 -69h-138q-6 0 -53 74l17 64l-3 10z" />
    <glyph glyph-name="caron" unicode="&#x2c7;" horiz-adv-x="1178" 
 />
    <glyph glyph-name="uni02C9" unicode="&#x2c9;" horiz-adv-x="1178" 
 />
    <glyph glyph-name="breve" unicode="&#x2d8;" horiz-adv-x="1178" 
 />
    <glyph glyph-name="dotaccent" unicode="&#x2d9;" horiz-adv-x="1178" 
 />
    <glyph glyph-name="ring" unicode="&#x2da;" horiz-adv-x="830" 
d="M801 2713h142q6 0 54 -73l-19 -74q-2 -6 -182 -143h-73q-6 0 -54 74l38 143q2 5 94 73zM1141 2713h143q5 0 53 -73l-38 -143q-2 -6 -93 -74h-69q-6 0 -108 148l18 69q2 5 94 73zM709 2368h73q6 -1 104 -142l-19 -74q-2 -6 -94 -74h-138q-6 0 -57 79l37 138q1 5 94 73z
M1118 2368h74q5 0 53 -73l-38 -143q-2 -6 -93 -74h-143q-6 0 -54 74l19 74q3 6 182 142z" />
    <glyph glyph-name="ogonek" unicode="&#x2db;" horiz-adv-x="1178" 
 />
    <glyph glyph-name="tilde" unicode="&#x2dc;" horiz-adv-x="1659" 
d="M1019 2569h60q4 0 46 -63l-15 -56v-2q0 -3 4 -3l-7 -7l-15 -56q-1 -5 -80 -63h-124q-44 48 -44 70v4l13 49q4 5 162 127zM1250 2569h65q5 -1 90 -124l-17 -63q-1 -5 -81 -63h-124q-4 0 -46 63l33 124q2 5 80 63zM2020 2569h64q5 0 46 -63l-33 -124q-1 -5 -80 -63h-124
q-5 0 -47 63l17 63q4 7 157 124zM761 2322h48q5 0 48 -64l-34 -128q-2 -5 -82 -63h-119q-5 0 -50 68l16 59q150 128 173 128zM1391 2322h57l97 -128l-6 -8l-15 -56q-2 -5 -81 -63h-120q-4 0 -46 63l29 128zM1751 2322l6 -3h56q5 0 44 -61l-13 -47q-1 -4 -1 -7q0 -6 2 -10
q-7 -6 -9 -16l-13 -48q-2 -5 -80 -63h-121q-4 0 -49 68l15 56z" />
    <glyph glyph-name="hungarumlaut" unicode="&#x2dd;" horiz-adv-x="1178" 
 />
    <glyph glyph-name="endash" unicode="&#x2013;" horiz-adv-x="1274" 
 />
    <glyph glyph-name="emdash" unicode="&#x2014;" horiz-adv-x="2355" 
 />
    <glyph glyph-name="quoteleft" unicode="&#x2018;" horiz-adv-x="641" 
 />
    <glyph glyph-name="quoteright" unicode="&#x2019;" horiz-adv-x="641" 
 />
    <glyph glyph-name="quotesinglbase" unicode="&#x201a;" horiz-adv-x="641" 
 />
    <glyph glyph-name="quotedblleft" unicode="&#x201c;" horiz-adv-x="1047" 
 />
    <glyph glyph-name="quotedblright" unicode="&#x201d;" horiz-adv-x="1047" 
 />
    <glyph glyph-name="quotedblbase" unicode="&#x201e;" horiz-adv-x="1047" 
 />
    <glyph glyph-name="dagger" unicode="&#x2020;" horiz-adv-x="1166" 
 />
    <glyph glyph-name="daggerdbl" unicode="&#x2021;" horiz-adv-x="1166" 
 />
    <glyph glyph-name="bullet" unicode="&#x2022;" horiz-adv-x="1178" 
 />
    <glyph glyph-name="ellipsis" unicode="&#x2026;" horiz-adv-x="2355" 
 />
    <glyph glyph-name="perthousand" unicode="&#x2030;" horiz-adv-x="2205" 
d="M619 2016h142q6 0 55 -73l-20 -74q-2 -6 -182 -143h-73q-6 0 -54 74l39 143q1 5 93 73zM959 2016h143q5 0 54 -73l-39 -143q-1 -6 -93 -74h-69q-6 0 -108 148l19 69q1 5 93 73zM1649 2016h55q6 0 55 -73l-40 -148q-1 -5 -94 -73h-138q-6 0 -57 78l19 69q174 147 200 147z
M527 1671h73q6 -1 105 -142l-20 -74q-2 -6 -94 -74h-138q-6 0 -57 79l37 138q2 5 94 73zM936 1671h74q5 0 53 -73l-38 -143q-2 -6 -93 -74h-143q-6 0 -54 74l20 74q4 7 181 142zM1611 1667q40 -37 48 -42q-3 -11 -20 -110q-4 0 -447 -414q-26 -9 -109 -14q-7 0 -47 46
l36 207l331 304q138 18 208 23zM893 1151h73q14 -11 104 -147q-2 -6 -181 -142h-73q-15 11 -104 147zM699 926q39 -40 39 -57v-3q-26 -169 -33 -193q-255 -238 -335 -308q-35 0 -209 -23q-39 41 -39 57v3q10 73 14 87q329 317 460 428q10 0 103 9zM911 636h143q5 0 54 -73
l-19 -69q-1 -6 -186 -148h-69q-6 0 -54 74l38 143q1 5 93 73zM1251 636h143q6 0 55 -73l-38 -143q-2 -6 -94 -74h-74q-5 0 -104 143l20 74q1 5 92 73zM152 291h143q5 0 53 -73l-18 -69q-2 -6 -187 -148h-69q-6 0 -54 74l38 143q2 5 94 73zM819 291h74q7 -1 104 -142l-20 -74
q-2 -6 -93 -74h-143q-6 0 -54 74l38 143q2 5 94 73zM1228 291h74q6 0 54 -73l-37 -138q-1 -6 -100 -79h-138q-5 0 -53 74l20 74q3 7 180 142zM1641 636h143q5 0 54 -73l-19 -69q-1 -6 -186 -148h-69q-6 0 -54 74l38 143q1 5 93 73zM1981 636h143q6 0 55 -73l-38 -143
q-2 -6 -94 -74h-74q-5 0 -104 143l20 74q1 5 92 73zM1549 291h74q7 -1 104 -142l-20 -74q-2 -6 -93 -74h-143q-6 0 -54 74l38 143q2 5 94 73zM1958 291h74q6 0 54 -73l-37 -138q-1 -6 -100 -79h-138q-5 0 -53 74l20 74q3 7 180 142z" />
    <glyph glyph-name="guilsinglleft" unicode="&#x2039;" horiz-adv-x="726" 
 />
    <glyph glyph-name="guilsinglright" unicode="&#x203a;" horiz-adv-x="726" 
 />
    <glyph glyph-name="fraction" unicode="&#x2044;" horiz-adv-x="393" 
 />
    <glyph glyph-name="fraction" unicode="&#x2215;" horiz-adv-x="393" 
 />
    <glyph glyph-name="franc" unicode="&#x20a3;" horiz-adv-x="1166" 
 />
    <glyph glyph-name="lira" unicode="&#x20a4;" horiz-adv-x="1166" 
 />
    <glyph glyph-name="peseta" unicode="&#x20a7;" horiz-adv-x="2332" 
 />
    <glyph glyph-name="Euro" unicode="&#x20ac;" horiz-adv-x="2054" 
d="M1170 2016h1003q6 0 55 -73l-20 -74q-2 -6 -182 -143h-865q-5 0 -103 143l20 74q1 5 92 73zM945 1726h74q7 -1 104 -142q-11 -44 -49 -203q-44 -146 -60 -207l-179 -138h-69l-56 69q46 187 70 276q21 79 79 281zM2114 1726h69q5 0 54 -73l-52 -193q-1 -6 -93 -74h-65
q-4 0 -5 -5l-9 5h-64q-6 0 -54 74l32 119q3 7 187 147zM1247 1340h120q5 0 57 -78l-37 -138l-89 -74q-93 -4 -139 -4h-60q-6 0 -57 78l19 69q3 7 186 147zM428 1322h124q104 -127 104 -158v-3l-11 -42q-7 -25 -96 -87h-198q-6 0 -55 73l38 143q2 6 94 74zM751 981h69
q102 -129 102 -146v-1q-37 -140 -55 -225q-29 -92 -69 -240l-179 -138h-69q-6 0 -54 74q17 66 77 304q61 212 85 303zM1063 931h194q5 0 57 -79l-37 -138q-1 -5 -93 -73h-124q-6 0 -108 147l19 69q1 6 92 74zM318 912h198q51 -55 51 -81q0 -3 -1 -6l-15 -55q-1 -6 -186 -148
h-124q-6 0 -55 74l39 143q1 5 93 73zM1801 627h147l52 -64q-20 -92 -32 -138l-14 -51q-6 -25 -97 -87h-73l-109 142l6 9q9 31 11 56q11 24 19 55l3 9q1 6 87 69zM773 291h865q6 -1 108 -147l-19 -69q-2 -6 -94 -74h-1007q-6 0 -54 74l20 74q3 7 181 142z" />
    <glyph glyph-name="afii61352" unicode="&#x2116;" horiz-adv-x="2612" 
 />
    <glyph glyph-name="trademark" unicode="&#x2122;" horiz-adv-x="1654" 
d="M727 2587h579q2 0 26 -30l-8 -29q0 -2 -80 -58h-251q-4 0 -8 -1q-3 1 -8 1h-250q-3 0 -50 58l8 29q1 2 42 30zM976 2436h34q2 0 23 -28q-13 -50 -33 -127q-21 -75 -35 -129l-42 -28h-31q-2 0 -48 58l6 25q14 50 18 74q9 25 22 73l6 24q1 4 80 58zM853 2092h31
q2 -1 49 -57l-7 -26q-13 -49 -18 -73q-8 -26 -21 -74l-7 -24q0 -2 -80 -58h-33q-2 0 -24 28q15 54 33 129q21 71 36 128zM1374 2587h31q4 0 51 -59l-74 -276q0 -2 -80 -58h-33q-2 0 -25 30l89 333q1 2 41 30zM2080 2587h31q2 0 26 -30l-89 -333q-1 -2 -42 -30h-33
q-2 0 -50 58l74 276q3 2 83 59zM1527 2522q74 -29 77 -33l46 -204q-48 -71 -57 -78q-26 -10 -33 -10q-39 13 -39 19l-56 254q26 43 34 43q3 0 28 9zM1924 2522q30 -10 30 -18v-2q4 -30 4 -32q-187 -248 -201 -261l-44 -12q-26 9 -26 19v3q-13 59 -13 65v1q154 203 159 207z
M1649 2221l48 -60l-7 -27q-1 -3 -41 -29h-65q-2 0 -24 29l7 27q1 4 82 60zM1263 2173h31q4 0 51 -59l-15 -58q-15 -55 -25 -80q-3 -25 -19 -82l-15 -56q0 -2 -80 -58h-33q-2 0 -25 30q13 49 53 200q28 101 37 135zM1969 2173h31q2 0 26 -30q-8 -32 -34 -134
q-42 -150 -56 -201l-41 -28h-33q-2 0 -50 58l15 56q16 57 25 82q4 25 19 80l15 58q3 2 83 59z" />
    <glyph glyph-name="partialdiff" unicode="&#x2202;" horiz-adv-x="1166" 
 />
    <glyph glyph-name="Delta" unicode="&#x2206;" horiz-adv-x="1243" 
 />
    <glyph glyph-name="product" unicode="&#x220f;" horiz-adv-x="1742" 
 />
    <glyph glyph-name="summation" unicode="&#x2211;" horiz-adv-x="1387" 
 />
    <glyph glyph-name="minus" unicode="&#x2212;" horiz-adv-x="1428" 
d="M594 1153h943q6 -1 104 -143l-20 -73q-2 -6 -93 -74h-1081q-6 0 -54 74l20 73q3 7 181 143z" />
    <glyph glyph-name="radical" unicode="&#x221a;" horiz-adv-x="1166" 
 />
    <glyph glyph-name="infinity" unicode="&#x221e;" horiz-adv-x="1166" 
 />
    <glyph glyph-name="integral" unicode="&#x222b;" horiz-adv-x="765" 
 />
    <glyph glyph-name="approxequal" unicode="&#x2248;" horiz-adv-x="1166" 
 />
    <glyph glyph-name="lessequal" unicode="&#x2264;" horiz-adv-x="1166" 
 />
    <glyph glyph-name="greaterequal" unicode="&#x2265;" horiz-adv-x="1166" 
 />
    <glyph glyph-name="uniF001" unicode="&#xf001;" horiz-adv-x="1234" 
 />
    <glyph glyph-name="uniF001" unicode="&#xfb01;" horiz-adv-x="1234" 
 />
    <glyph glyph-name="uniF002" unicode="&#xf002;" horiz-adv-x="1243" 
 />
    <glyph glyph-name="uniF002" unicode="&#xfb02;" horiz-adv-x="1243" 
 />
  </font>
</defs>
</svg>
